<?xml version="1.0" encoding="UTF-8" standalone="no"?>
<!-- Created with Inkscape (http://www.inkscape.org/) -->

<svg
   xmlns:dc="http://purl.org/dc/elements/1.1/"
   xmlns:cc="http://creativecommons.org/ns#"
   xmlns:rdf="http://www.w3.org/1999/02/22-rdf-syntax-ns#"
   xmlns:svg="http://www.w3.org/2000/svg"
   xmlns="http://www.w3.org/2000/svg"
   xmlns:sodipodi="http://sodipodi.sourceforge.net/DTD/sodipodi-0.dtd"
   xmlns:inkscape="http://www.inkscape.org/namespaces/inkscape"
   version="1.1"
   id="svg2"
   xml:space="preserve"
   width="498.13162"
   height="393.69305"
   viewBox="0 0 498.13162 393.69305"
   sodipodi:docname="phase-damping.svg"
   inkscape:version="0.92.0 r15299"><metadata
     id="metadata8"><rdf:RDF><cc:Work
         rdf:about=""><dc:format>image/svg+xml</dc:format><dc:type
           rdf:resource="http://purl.org/dc/dcmitype/StillImage" /><dc:title></dc:title></cc:Work></rdf:RDF></metadata><defs
     id="defs6"><clipPath
       clipPathUnits="userSpaceOnUse"
       id="clipPath18"><path
         d="M 0,3150 V 0 h 4199.17 v 3150 z"
         id="path16"
         inkscape:connector-curvature="0" /></clipPath><clipPath
       clipPathUnits="userSpaceOnUse"
       id="clipPath44"><path
         d="M 0,3150 V 0 h 4199.17 v 3150 z"
         id="path42"
         inkscape:connector-curvature="0" /></clipPath><clipPath
       clipPathUnits="userSpaceOnUse"
       id="clipPath60"><path
         d="M 0,3150 V 0 h 4199.17 v 3150 z"
         id="path58"
         inkscape:connector-curvature="0" /></clipPath><clipPath
       clipPathUnits="userSpaceOnUse"
       id="clipPath80"><path
         d="M 0,3150 V 0 h 4199.17 v 3150 z"
         id="path78"
         inkscape:connector-curvature="0" /></clipPath><clipPath
       clipPathUnits="userSpaceOnUse"
       id="clipPath96"><path
         d="M 0,3150 V 0 h 4199.17 v 3150 z"
         id="path94"
         inkscape:connector-curvature="0" /></clipPath><clipPath
       clipPathUnits="userSpaceOnUse"
       id="clipPath112"><path
         d="M 0,3150 V 0 h 4199.17 v 3150 z"
         id="path110"
         inkscape:connector-curvature="0" /></clipPath><clipPath
       clipPathUnits="userSpaceOnUse"
       id="clipPath128"><path
         d="M 0,3150 V 0 h 4199.17 v 3150 z"
         id="path126"
         inkscape:connector-curvature="0" /></clipPath><clipPath
       clipPathUnits="userSpaceOnUse"
       id="clipPath144"><path
         d="M 0,3150 V 0 h 4199.17 v 3150 z"
         id="path142"
         inkscape:connector-curvature="0" /></clipPath><clipPath
       clipPathUnits="userSpaceOnUse"
       id="clipPath160"><path
         d="M 0,3150 V 0 h 4199.17 v 3150 z"
         id="path158"
         inkscape:connector-curvature="0" /></clipPath><clipPath
       clipPathUnits="userSpaceOnUse"
       id="clipPath176"><path
         d="M 0,3150 V 0 h 4199.17 v 3150 z"
         id="path174"
         inkscape:connector-curvature="0" /></clipPath><clipPath
       clipPathUnits="userSpaceOnUse"
       id="clipPath192"><path
         d="M 0,3150 V 0 h 4199.17 v 3150 z"
         id="path190"
         inkscape:connector-curvature="0" /></clipPath><clipPath
       clipPathUnits="userSpaceOnUse"
       id="clipPath204"><path
         d="M 545.836,345.832 H 3800.83 V 2914.16 H 545.836 Z"
         id="path202"
         inkscape:connector-curvature="0" /></clipPath><clipPath
       clipPathUnits="userSpaceOnUse"
       id="clipPath234"><path
         d="M 0,3150 V 0 h 4199.17 v 3150 z"
         id="path232"
         inkscape:connector-curvature="0" /></clipPath><clipPath
       clipPathUnits="userSpaceOnUse"
       id="clipPath258"><path
         d="M 0,3150 V 0 h 4199.17 v 3150 z"
         id="path256"
         inkscape:connector-curvature="0" /></clipPath></defs><sodipodi:namedview
     pagecolor="#ffffff"
     bordercolor="#666666"
     borderopacity="1"
     objecttolerance="10"
     gridtolerance="10"
     guidetolerance="10"
     inkscape:pageopacity="0"
     inkscape:pageshadow="2"
     inkscape:window-width="640"
     inkscape:window-height="480"
     id="namedview4"
     showgrid="false"
     fit-margin-top="0"
     fit-margin-left="0"
     fit-margin-right="0"
     fit-margin-bottom="0"
     inkscape:zoom="0.22348485"
     inkscape:cx="312.43027"
     inkscape:cy="526.59772"
     inkscape:window-x="0"
     inkscape:window-y="0"
     inkscape:window-maximized="0"
     inkscape:current-layer="g10" /><g
     id="g10"
     inkscape:groupmode="layer"
     inkscape:label="A9Rtimjbt_86ivob_q8"
     transform="matrix(1.3333333,0,0,-1.3333333,-17.264641,395.09532)"><g
       id="g12"
       transform="scale(0.1)"><g
         id="g14"
         clip-path="url(#clipPath18)"><path
           d="m 545.836,346.672 h 3254.16 v 2567.49 H 545.836 Z"
           style="fill:#ffffff;fill-opacity:1;fill-rule:evenodd;stroke:none"
           id="path20"
           inkscape:connector-curvature="0" /><g
           id="g22"
           transform="translate(545.836,346.672)"><path
             d="M 0,0 V 2567.488 H 3254.164 V 0 H 0"
             style="fill:none;stroke:#ffffff;stroke-width:10;stroke-linecap:butt;stroke-linejoin:round;stroke-miterlimit:10;stroke-dasharray:none;stroke-opacity:1"
             id="path24"
             inkscape:connector-curvature="0" /></g><g
           id="g26"
           transform="translate(3800,2914.1599)"><path
             d="M 0,0 V 0 M -3254.164,0 H 0 m 0,-513.32 v 0 m -3254.164,0 H 0 m 0,-513.34 v 0 m -3254.164,0 H 0 m 0,-513.33 v 0 m -3254.164,0 H 0 m 0,-513.342 v 0 m -3254.164,0 H 0 m 0,-514.156 v 0 m -3254.164,0 H 0 M 0,0 V 0 M 0,-2567.488 V 0 m -814.17,0 v 0 m 0,-2567.488 V 0 m -813.33,0 v 0 m 0,-2567.488 V 0 m -813.33,0 v 0 m 0,-2567.488 V 0 m -813.334,0 v 0 m 0,-2567.488 V 0"
             style="fill:none;stroke:#231f20;stroke-width:6.66699982;stroke-linecap:butt;stroke-linejoin:round;stroke-miterlimit:10;stroke-dasharray:5, 40;stroke-dashoffset:0;stroke-opacity:1"
             id="path28"
             inkscape:connector-curvature="0" /></g><g
           id="g30"
           transform="translate(545.836,2914.1599)"><path
             d="m 0,0 v -32.5 m 0,-2534.988 v 33.328 m 0,-33.328 V 0 M 0,-2567.488 H 3254.164 M 0,-2567.488 V 0 M 3254.164,-2567.488 V 0 M 0,-2567.488 H 3254.164 M 0,0 h 3254.164"
             style="fill:none;stroke:#231f20;stroke-width:10;stroke-linecap:butt;stroke-linejoin:round;stroke-miterlimit:10;stroke-dasharray:none;stroke-opacity:1"
             id="path32"
             inkscape:connector-curvature="0" /></g></g></g><text
       transform="matrix(1,0,0,-1,50.749,18.826)"
       style="font-variant:normal;font-weight:normal;font-size:14px;font-family:Helvetica;-inkscape-font-specification:Helvetica;writing-mode:lr-tb;fill:#211c1d;fill-opacity:1;fill-rule:nonzero;stroke:none"
       id="text36"><tspan
         x="0"
         y="0"
         id="tspan34">0</tspan></text>
<g
       id="g38"
       transform="scale(0.1)"><g
         id="g40"
         clip-path="url(#clipPath44)"><g
           id="g46"
           transform="translate(1359.17,2914.1599)"><path
             d="m 0,0 v -32.5 m 0,-2534.988 v 33.328"
             style="fill:none;stroke:#231f20;stroke-width:10;stroke-linecap:butt;stroke-linejoin:round;stroke-miterlimit:10;stroke-dasharray:none;stroke-opacity:1"
             id="path48"
             inkscape:connector-curvature="0" /></g></g></g><text
       transform="matrix(1,0,0,-1,128.165,18.826)"
       style="font-variant:normal;font-weight:normal;font-size:14px;font-family:Helvetica;-inkscape-font-specification:Helvetica;writing-mode:lr-tb;fill:#211c1d;fill-opacity:1;fill-rule:nonzero;stroke:none"
       id="text52"><tspan
         x="0 7.1820002"
         y="0"
         sodipodi:role="line"
         id="tspan50">20</tspan></text>
<g
       id="g54"
       transform="scale(0.1)"><g
         id="g56"
         clip-path="url(#clipPath60)"><g
           id="g62"
           transform="translate(2172.5,2914.1599)"><path
             d="m 0,0 v -32.5 m 0,-2534.988 v 33.328"
             style="fill:none;stroke:#231f20;stroke-width:10;stroke-linecap:butt;stroke-linejoin:round;stroke-miterlimit:10;stroke-dasharray:none;stroke-opacity:1"
             id="path64"
             inkscape:connector-curvature="0" /></g><g
           id="g66"
           transform="translate(2985.8301,2914.1599)"><path
             d="m 0,0 v -32.5 m 0,-2534.988 v 33.328"
             style="fill:none;stroke:#231f20;stroke-width:10;stroke-linecap:butt;stroke-linejoin:round;stroke-miterlimit:10;stroke-dasharray:none;stroke-opacity:1"
             id="path68"
             inkscape:connector-curvature="0" /></g></g></g><text
       transform="matrix(1,0,0,-1,290.835,18.826)"
       style="font-variant:normal;font-weight:normal;font-size:14px;font-family:Helvetica;-inkscape-font-specification:Helvetica;writing-mode:lr-tb;fill:#211c1d;fill-opacity:1;fill-rule:nonzero;stroke:none"
       id="text72"><tspan
         x="0 7.1820002"
         y="0"
         sodipodi:role="line"
         id="tspan70">60</tspan></text>
<g
       id="g74"
       transform="scale(0.1)"><g
         id="g76"
         clip-path="url(#clipPath80)"><g
           id="g82"
           transform="translate(3800,2914.1599)"><path
             d="m 0,0 v -32.5 m 0,-2534.988 v 33.328"
             style="fill:none;stroke:#231f20;stroke-width:10;stroke-linecap:butt;stroke-linejoin:round;stroke-miterlimit:10;stroke-dasharray:none;stroke-opacity:1"
             id="path84"
             inkscape:connector-curvature="0" /></g></g></g><text
       transform="matrix(1,0,0,-1,372.249,18.826)"
       style="font-variant:normal;font-weight:normal;font-size:14px;font-family:Helvetica;-inkscape-font-specification:Helvetica;writing-mode:lr-tb;fill:#211c1d;fill-opacity:1;fill-rule:nonzero;stroke:none"
       id="text88"><tspan
         x="0 7.1820002"
         y="0"
         sodipodi:role="line"
         id="tspan86">80</tspan></text>
<g
       id="g90"
       transform="scale(0.1)"><g
         id="g92"
         clip-path="url(#clipPath96)"><g
           id="g98"
           transform="translate(3800,346.672)"><path
             d="m 0,0 h -33.33 m -3220.834,0 h 32.5"
             style="fill:none;stroke:#231f20;stroke-width:10;stroke-linecap:butt;stroke-linejoin:round;stroke-miterlimit:10;stroke-dasharray:none;stroke-opacity:1"
             id="path100"
             inkscape:connector-curvature="0" /></g></g></g><text
       transform="matrix(1,0,0,-1,43.915,29.509)"
       style="font-variant:normal;font-weight:normal;font-size:14px;font-family:Helvetica;-inkscape-font-specification:Helvetica;writing-mode:lr-tb;fill:#211c1d;fill-opacity:1;fill-rule:nonzero;stroke:none"
       id="text104"><tspan
         x="0"
         y="0"
         id="tspan102">0</tspan></text>
<g
       id="g106"
       transform="scale(0.1)"><g
         id="g108"
         clip-path="url(#clipPath112)"><g
           id="g114"
           transform="translate(3800,860.828)"><path
             d="m 0,0 h -33.33 m -3220.834,0 h 32.5"
             style="fill:none;stroke:#231f20;stroke-width:10;stroke-linecap:butt;stroke-linejoin:round;stroke-miterlimit:10;stroke-dasharray:none;stroke-opacity:1"
             id="path116"
             inkscape:connector-curvature="0" /></g></g></g><text
       transform="matrix(1,0,0,-1,32.251,80.923)"
       style="font-variant:normal;font-weight:normal;font-size:14px;font-family:Helvetica;-inkscape-font-specification:Helvetica;writing-mode:lr-tb;fill:#211c1d;fill-opacity:1;fill-rule:nonzero;stroke:none"
       id="text120"><tspan
         x="0 7.1820002 10.08"
         y="0"
         sodipodi:role="line"
         id="tspan118">0.2</tspan></text>
<g
       id="g122"
       transform="scale(0.1)"><g
         id="g124"
         clip-path="url(#clipPath128)"><g
           id="g130"
           transform="translate(3800,1374.17)"><path
             d="m 0,0 h -33.33 m -3220.834,0 h 32.5"
             style="fill:none;stroke:#231f20;stroke-width:10;stroke-linecap:butt;stroke-linejoin:round;stroke-miterlimit:10;stroke-dasharray:none;stroke-opacity:1"
             id="path132"
             inkscape:connector-curvature="0" /></g></g></g><text
       transform="matrix(1,0,0,-1,32.251,132.251)"
       style="font-variant:normal;font-weight:normal;font-size:14px;font-family:Helvetica;-inkscape-font-specification:Helvetica;writing-mode:lr-tb;fill:#211c1d;fill-opacity:1;fill-rule:nonzero;stroke:none"
       id="text136"><tspan
         x="0 7.1820002 10.08"
         y="0"
         sodipodi:role="line"
         id="tspan134">0.4</tspan></text>
<g
       id="g138"
       transform="scale(0.1)"><g
         id="g140"
         clip-path="url(#clipPath144)"><g
           id="g146"
           transform="translate(3800,1887.5)"><path
             d="m 0,0 h -33.33 m -3220.834,0 h 32.5"
             style="fill:none;stroke:#231f20;stroke-width:10;stroke-linecap:butt;stroke-linejoin:round;stroke-miterlimit:10;stroke-dasharray:none;stroke-opacity:1"
             id="path148"
             inkscape:connector-curvature="0" /></g></g></g><text
       transform="matrix(1,0,0,-1,32.251,183.587)"
       style="font-variant:normal;font-weight:normal;font-size:14px;font-family:Helvetica;-inkscape-font-specification:Helvetica;writing-mode:lr-tb;fill:#211c1d;fill-opacity:1;fill-rule:nonzero;stroke:none"
       id="text152"><tspan
         x="0 7.1820002 10.08"
         y="0"
         sodipodi:role="line"
         id="tspan150">0.6</tspan></text>
<g
       id="g154"
       transform="scale(0.1)"><g
         id="g156"
         clip-path="url(#clipPath160)"><g
           id="g162"
           transform="translate(3800,2400.8401)"><path
             d="m 0,0 h -33.33 m -3220.834,0 h 32.5"
             style="fill:none;stroke:#231f20;stroke-width:10;stroke-linecap:butt;stroke-linejoin:round;stroke-miterlimit:10;stroke-dasharray:none;stroke-opacity:1"
             id="path164"
             inkscape:connector-curvature="0" /></g></g></g><text
       transform="matrix(1,0,0,-1,32.251,234.915)"
       style="font-variant:normal;font-weight:normal;font-size:14px;font-family:Helvetica;-inkscape-font-specification:Helvetica;writing-mode:lr-tb;fill:#211c1d;fill-opacity:1;fill-rule:nonzero;stroke:none"
       id="text168"><tspan
         x="0 7.1820002 10.08"
         y="0"
         sodipodi:role="line"
         id="tspan166">0.8</tspan></text>
<g
       id="g170"
       transform="scale(0.1)"><g
         id="g172"
         clip-path="url(#clipPath176)"><g
           id="g178"
           transform="translate(3800,2914.1599)"><path
             d="m 0,0 h -33.33 m -3220.834,0 h 32.5"
             style="fill:none;stroke:#231f20;stroke-width:10;stroke-linecap:butt;stroke-linejoin:round;stroke-miterlimit:10;stroke-dasharray:none;stroke-opacity:1"
             id="path180"
             inkscape:connector-curvature="0" /></g></g></g><text
       transform="matrix(1,0,0,-1,43.915,286.259)"
       style="font-variant:normal;font-weight:normal;font-size:14px;font-family:Helvetica;-inkscape-font-specification:Helvetica;writing-mode:lr-tb;fill:#211c1d;fill-opacity:1;fill-rule:nonzero;stroke:none"
       id="text184"><tspan
         x="0"
         y="0"
         id="tspan182">1</tspan></text>
<g
       id="g186"
       transform="scale(0.1)"><g
         id="g188"
         clip-path="url(#clipPath192)"><g
           id="g194"
           transform="translate(545.836,346.672)"><path
             d="M 0,0 V 2567.488 M 3254.164,0 V 2567.488 M 0,0 H 3254.164 M 0,2567.488 h 3254.164"
             style="fill:none;stroke:#231f20;stroke-width:10;stroke-linecap:butt;stroke-linejoin:round;stroke-miterlimit:10;stroke-dasharray:none;stroke-opacity:1"
             id="path196"
             inkscape:connector-curvature="0" /></g></g></g><g
       id="g198"
       transform="scale(0.1)"><g
         id="g200"
         clip-path="url(#clipPath204)"><g
           id="g206"
           transform="translate(545.836,346.672)"><path
             d="M 0,0 45.828,25.828 92.5,51.66 l 46.664,25.84 46.664,25.828 46.672,25.832 46.664,25 L 325,180 l 46.664,25.828 46.664,25.832 45.836,25.84 45.83,25 45.84,25.828 45.83,25.828 45.83,25.844 45.84,25.828 45.83,25 45,25.828 45,25.844 45,25.828 45,25.828 44.17,25.844 44.16,25 44.17,25.828 44.17,25.828 43.33,25.844 43.33,25.828 43.34,25 42.5,25.83 42.5,25.84 42.5,25.83 41.66,25.83 40.84,25 41.66,25.84 40.84,25.83 40,25.83 40,25.84 39.16,25 39.17,25.83 38.33,25.83 38.34,25.84 37.5,25.83 37.5,25.83 36.66,25 36.67,25.84 35,25.83 35.83,25.83 34.17,25.84 34.17,24.99 34.16,25.84 32.5,25.83 32.5,25.84 32.5,25.83 30.84,25 30.83,25.83 30.83,25.84 29.17,25.83 29.17,25.83 28.33,25 28.33,25.84 27.5,25.83 26.67,25.83 25.83,25.84 25.84,25.83 25,25 25,25.83 23.33,25.84 23.33,25.83 23.34,25.83 22.5,25 21.66,25.84 21.67,25.83 20.83,25.84 20,25.82 20,25 19.17,25.84 18.33,25.84 19.17,25.82 17.5,25.84 17.5,25 17.5,25.84 15.83,25.82 16.67,25.84 15.83,25.84 15,25.82 15,25 15,25.84 14.17,25.84 14.17,25.82 13.33,25.84 13.33,25 12.5,25.83 12.5,25.83 12.5,25.84 11.67,25.83 11.67,25 11.66,25.83 10.84,25.84 10.83,25.83 10.83,25.83 10,25"
             style="fill:none;stroke:#3b4ba7;stroke-width:30;stroke-linecap:butt;stroke-linejoin:round;stroke-miterlimit:10;stroke-dasharray:none;stroke-opacity:1"
             id="path208"
             inkscape:connector-curvature="0" /></g><g
           id="g210"
           transform="translate(545.836,346.672)"><path
             d="m 0,0 45.828,30 46.672,29.16 46.664,29.168 46.664,30 46.672,29.172 46.664,29.16 45.836,29.168 46.664,29.172 46.664,29.156 45.836,29.172 45.83,29.172 45.84,29.156 45.83,29.172 45.83,28.328 45.84,29.172 45.83,28.328 45,29.172 45,28.328 45,28.344 45,28.328 44.17,28.328 44.16,27.5 44.17,28.342 44.17,27.5 43.33,27.5 43.33,27.5 43.34,26.66 42.5,27.5 42.5,26.67 42.5,26.67 41.66,25.83 40.84,26.67 41.66,25.83 40.84,25.83 40,25 40,25 39.16,25 39.17,25 38.33,24.17 38.34,24.17 37.5,24.16 37.5,23.34 36.66,23.33 36.67,22.5 35,22.5 35.83,22.5 34.17,21.67 34.17,21.66 34.16,20.84 32.5,20.83 32.5,20.83 32.5,20 30.84,20 30.83,19.17 30.83,19.17 29.17,19.16 29.17,18.34 28.33,17.5 28.33,17.5 27.5,17.5 26.67,16.66 25.83,16.67 25.84,16.67 25,15.83 25,15 23.33,15 23.33,15 23.34,14.17 22.5,14.16 21.66,14.17 21.67,13.33 20.83,13.34 20,12.5 20,12.5 19.17,12.5 18.33,11.66 19.17,11.67 17.5,11.67 17.5,10.83 17.5,10.83 15.83,10.01 16.67,10.82 15.83,10 15,9.18 15,10 15,9.16 14.17,9.16 14.17,8.34 13.33,8.34 13.33,8.32 12.5,8.34 12.5,8.34 12.5,7.5 11.67,7.5 11.67,7.5 11.66,6.66 10.84,7.5 10.83,6.66 10.83,6.68 10,6.66"
             style="fill:none;stroke:#26813a;stroke-width:30;stroke-linecap:butt;stroke-linejoin:round;stroke-miterlimit:10;stroke-dasharray:none;stroke-opacity:1"
             id="path212"
             inkscape:connector-curvature="0" /></g></g></g><text
       transform="matrix(1,0,0,-1,209.493,18.826)"
       style="font-variant:normal;font-weight:normal;font-size:14px;font-family:Helvetica;-inkscape-font-specification:Helvetica;writing-mode:lr-tb;fill:#211c1d;fill-opacity:1;fill-rule:nonzero;stroke:none"
       id="text218"><tspan
         x="0 7.1820002"
         y="0"
         sodipodi:role="line"
         id="tspan214">40</tspan><tspan
         x="-53.821999 -46.374001 -38.604 -31.856001 -26.312 -19.298 -16.33 -5.0739999 1.674 6.2519999 14.078 17.354 25.124001 28.091999 32.068001 39.964001 46.978001 54.804001"
         y="14.828"
         sodipodi:role="line"
         id="tspan216">Phase Margin (deg)</tspan></text>
<text
       transform="matrix(1,0,0,-1,300.406,263.72)"
       style="font-variant:normal;font-weight:normal;font-size:18px;font-family:MyriadPro;-inkscape-font-specification:MyriadPro-Regular;writing-mode:lr-tb;fill:#100f0d;fill-opacity:1;fill-rule:nonzero;stroke:none"
       id="text226"><tspan
         x="0"
         y="0"
         id="tspan220">ζ</tspan><tspan
         x="7.677 15.039"
         y="122.958"
         sodipodi:role="line"
         id="tspan222">ζ=</tspan><tspan
         x="-53.405998 -44.73 -36.43211 -30.474108 -20.556108 -11.880108 -7.6321082"
         y="0"
         sodipodi:role="line"
         id="tspan224">actual </tspan></text>
<g
       id="g228"
       transform="scale(0.1)"><g
         id="g230"
         clip-path="url(#clipPath234)"><g
           id="g236"
           transform="translate(3310.8301,1460.42)"><path
             d="M 0,0 H 340"
             style="fill:none;stroke:#100f0d;stroke-width:10;stroke-linecap:butt;stroke-linejoin:miter;stroke-miterlimit:10;stroke-dasharray:none;stroke-opacity:1"
             id="path238"
             inkscape:connector-curvature="0" /></g></g></g><text
       transform="matrix(1,0,0,-1,336.083,150.262)"
       style="font-variant:normal;font-weight:normal;font-size:18px;font-family:MyriadPro;-inkscape-font-specification:MyriadPro-Regular;writing-mode:lr-tb;fill:#100f0d;fill-opacity:1;fill-rule:nonzero;stroke:none"
       id="text242"><tspan
         x="0 9.3603058"
         y="0"
         sodipodi:role="line"
         id="tspan240">PM</tspan></text>
<text
       transform="matrix(0,1,1,0,23.5852,105.837)"
       style="font-variant:normal;font-weight:normal;font-size:14px;font-family:Helvetica;-inkscape-font-specification:Helvetica;writing-mode:lr-tb;fill:#211c1d;fill-opacity:1;fill-rule:nonzero;stroke:none"
       id="text246"><tspan
         x="0 9.3240004 16.072001 27.747999 35.714001 38.990002 46.759998 54.585999 57.554001 65.085999 71.834 76.468002 79.744003 87.43 95.199997 98.098"
         y="0"
         sodipodi:role="line"
         id="tspan244">Damping Ration, </tspan></text>
<text
       transform="matrix(0,1,1,0,23.5852,213.92)"
       style="font-variant:normal;font-weight:normal;font-size:14px;font-family:Symbol;-inkscape-font-specification:SymbolMT;writing-mode:lr-tb;fill:#211c1d;fill-opacity:1;fill-rule:nonzero;stroke:none"
       id="text250"><tspan
         x="0"
         y="0"
         id="tspan248">ζ</tspan></text>
<g
       id="g252"
       transform="scale(0.1)"><g
         id="g254"
         clip-path="url(#clipPath258)"><g
           id="g260"
           transform="translate(3130,2690)"><path
             d="M 0,0 350.83,-135"
             style="fill:none;stroke:#100f0d;stroke-width:10;stroke-linecap:butt;stroke-linejoin:miter;stroke-miterlimit:10;stroke-dasharray:none;stroke-opacity:1"
             id="path262"
             inkscape:connector-curvature="0" /></g><g
           id="g264"
           transform="translate(3305.4099,1630)"><path
             d="M 0,0 -67.08,416.67"
             style="fill:none;stroke:#100f0d;stroke-width:10;stroke-linecap:butt;stroke-linejoin:miter;stroke-miterlimit:10;stroke-dasharray:none;stroke-opacity:1"
             id="path266"
             inkscape:connector-curvature="0" /></g></g></g><text
       transform="matrix(1,0,0,-1,333.083,129.262)"
       style="font-variant:normal;font-weight:normal;font-size:18px;font-family:MyriadPro;-inkscape-font-specification:MyriadPro-Regular;writing-mode:lr-tb;fill:#100f0d;fill-opacity:1;fill-rule:nonzero;stroke:none"
       id="text270"><tspan
         x="0 9.2340002 18.468"
         y="0"
         sodipodi:role="line"
         id="tspan268">100</tspan></text>
</g></svg>