<?xml version="1.0" encoding="UTF-8" standalone="no"?>
<!-- Created with Inkscape (http://www.inkscape.org/) -->

<svg
   xmlns:dc="http://purl.org/dc/elements/1.1/"
   xmlns:cc="http://creativecommons.org/ns#"
   xmlns:rdf="http://www.w3.org/1999/02/22-rdf-syntax-ns#"
   xmlns:svg="http://www.w3.org/2000/svg"
   xmlns="http://www.w3.org/2000/svg"
   xmlns:sodipodi="http://sodipodi.sourceforge.net/DTD/sodipodi-0.dtd"
   xmlns:inkscape="http://www.inkscape.org/namespaces/inkscape"
   version="1.1"
   id="svg2"
   xml:space="preserve"
   width="307.90543"
   height="273.02847"
   viewBox="0 0 307.90543 273.02847"
   sodipodi:docname="root-locus.svg"
   inkscape:version="0.92.0 r15299"><metadata
     id="metadata8"><rdf:RDF><cc:Work
         rdf:about=""><dc:format>image/svg+xml</dc:format><dc:type
           rdf:resource="http://purl.org/dc/dcmitype/StillImage" /><dc:title></dc:title></cc:Work></rdf:RDF></metadata><defs
     id="defs6"><clipPath
       clipPathUnits="userSpaceOnUse"
       id="clipPath18"><path
         d="M 0,2047.72 V 0 h 2530.26 v 2047.72 z"
         id="path16"
         inkscape:connector-curvature="0" /></clipPath><clipPath
       clipPathUnits="userSpaceOnUse"
       id="clipPath42"><path
         d="M 0,2047.72 V 0 h 2530.26 v 2047.72 z"
         id="path40"
         inkscape:connector-curvature="0" /></clipPath><clipPath
       clipPathUnits="userSpaceOnUse"
       id="clipPath106"><path
         d="M 0,2047.72 V 0 h 2530.26 v 2047.72 z"
         id="path104"
         inkscape:connector-curvature="0" /></clipPath></defs><sodipodi:namedview
     pagecolor="#ffffff"
     bordercolor="#666666"
     borderopacity="1"
     objecttolerance="10"
     gridtolerance="10"
     guidetolerance="10"
     inkscape:pageopacity="0"
     inkscape:pageshadow="2"
     inkscape:window-width="1600"
     inkscape:window-height="847"
     id="namedview4"
     showgrid="false"
     fit-margin-top="0"
     fit-margin-left="0"
     fit-margin-right="0"
     fit-margin-bottom="0"
     inkscape:zoom="0.89393939"
     inkscape:cx="298.32138"
     inkscape:cy="241.22449"
     inkscape:window-x="-8"
     inkscape:window-y="-8"
     inkscape:window-maximized="1"
     inkscape:current-layer="g10" /><g
     id="g10"
     inkscape:groupmode="layer"
     inkscape:label="A9R9g6rme_86ivo5_q8"
     transform="matrix(1.3333333,0,0,-1.3333333,-2.3437499,273.02933)"><g
       id="g12"
       transform="scale(0.1)"><g
         id="g14"
         clip-path="url(#clipPath18)"><g
           id="g20"
           transform="translate(1121.54,1843.52)"><path
             d="M 0,0 V -1650.801"
             style="fill:none;stroke:#211c1d;stroke-width:10;stroke-linecap:butt;stroke-linejoin:miter;stroke-miterlimit:10;stroke-dasharray:none;stroke-opacity:1"
             id="path22"
             inkscape:connector-curvature="0" /></g><g
           id="g24"
           transform="translate(304.082,1018.13)"><path
             d="M 0,0 H 1714.278"
             style="fill:none;stroke:#211c1d;stroke-width:10;stroke-linecap:butt;stroke-linejoin:miter;stroke-miterlimit:10;stroke-dasharray:none;stroke-opacity:1"
             id="path26"
             inkscape:connector-curvature="0" /></g><g
           id="g28"
           transform="translate(1121.54,1018.13)"><path
             d="M 0,0 C -89.4,175.67 -182.255,582.82 -489.395,-1017.181"
             style="fill:none;stroke:#100f0d;stroke-width:10;stroke-linecap:butt;stroke-linejoin:miter;stroke-miterlimit:10;stroke-dasharray:none;stroke-opacity:1"
             id="path30"
             inkscape:connector-curvature="0" /></g></g></g><text
       transform="matrix(1,0,0,-1,195.09,109.559)"
       style="font-variant:normal;font-weight:normal;font-size:18px;font-family:MyriadPro;-inkscape-font-specification:MyriadPro-Regular;writing-mode:lr-tb;fill:#100f0d;fill-opacity:1;fill-rule:nonzero;stroke:none"
       id="text34"><tspan
         x="0 9.7558918 18.773891 23.885893 31.013891"
         y="0"
         sodipodi:role="line"
         id="tspan32">Re(s)</tspan></text>
<g
       id="g36"
       transform="scale(0.1)"><g
         id="g38"
         clip-path="url(#clipPath42)"><g
           id="g44"
           transform="translate(1121.54,1029.6)"><path
             d="M 0,0 C -89.39,-175.67 -182.255,-582.819 -489.395,1017.18"
             style="fill:none;stroke:#100f0d;stroke-width:10;stroke-linecap:butt;stroke-linejoin:miter;stroke-miterlimit:10;stroke-dasharray:100, 50;stroke-dashoffset:0;stroke-opacity:1"
             id="path46"
             inkscape:connector-curvature="0" /></g><g
           id="g48"
           transform="translate(1621.54,1018.13)"><path
             d="m 0,0 c 0,276.14 -223.85,500 -500,500 -276.142,0 -499.997,-223.86 -499.997,-500 0,-276.15 223.855,-500.001 499.997,-500.001 276.15,0 500,223.851 500,500.001 z"
             style="fill:none;stroke:#100f0d;stroke-width:10;stroke-linecap:butt;stroke-linejoin:miter;stroke-miterlimit:10;stroke-dasharray:none;stroke-opacity:1"
             id="path50"
             inkscape:connector-curvature="0" /></g><g
           id="g52"
           transform="translate(503.57,472.371)"><path
             d="M 0,0 207.145,164.289"
             style="fill:none;stroke:#100f0d;stroke-width:10;stroke-linecap:butt;stroke-linejoin:miter;stroke-miterlimit:10;stroke-dasharray:none;stroke-opacity:1"
             id="path54"
             inkscape:connector-curvature="0" /></g><g
           id="g56"
           transform="translate(496.453,570.789)"><path
             d="m 0,0 c -85.855,74.762 -140.23,185.563 -140.23,309.223 0,18.418 1.203,36.539 3.543,54.316"
             style="fill:none;stroke:#100f0d;stroke-width:10;stroke-linecap:butt;stroke-linejoin:miter;stroke-miterlimit:10;stroke-dasharray:none;stroke-opacity:1"
             id="path58"
             inkscape:connector-curvature="0" /></g><g
           id="g60"
           transform="translate(475.66,635.578)"><path
             d="m 0,0 -8.883,-4.598 30.102,-58.179 -60.453,25.219 -3.848,-9.231 L 42.723,-82.578 0,0"
             style="fill:#100f0d;fill-opacity:1;fill-rule:nonzero;stroke:none"
             id="path62"
             inkscape:connector-curvature="0" /></g><g
           id="g64"
           transform="translate(386.719,871.891)"><path
             d="M 0,0 -9.715,-2.403 -25.434,61.199 -54.27,2.379 -63.242,6.769 -22.321,90.257 0,0"
             style="fill:#100f0d;fill-opacity:1;fill-rule:nonzero;stroke:none"
             id="path66"
             inkscape:connector-curvature="0" /></g><g
           id="g68"
           transform="translate(876.848,805.23)"><path
             d="M 0,0 V -90"
             style="fill:none;stroke:#100f0d;stroke-width:10;stroke-linecap:butt;stroke-linejoin:miter;stroke-miterlimit:10;stroke-dasharray:none;stroke-opacity:1"
             id="path70"
             inkscape:connector-curvature="0" /></g><g
           id="g72"
           transform="translate(928.258,760.23)"><path
             d="M 0,0 H 138.482"
             style="fill:none;stroke:#100f0d;stroke-width:10;stroke-linecap:butt;stroke-linejoin:miter;stroke-miterlimit:10;stroke-dasharray:none;stroke-opacity:1"
             id="path74"
             inkscape:connector-curvature="0" /></g><g
           id="g76"
           transform="translate(987.367,728.43)"><path
             d="M 0,0 3.418,9.398 -58.133,31.8 3.418,54.211 0,63.601 -87.367,31.8 0,0"
             style="fill:#100f0d;fill-opacity:1;fill-rule:nonzero;stroke:none"
             id="path78"
             inkscape:connector-curvature="0" /></g><g
           id="g80"
           transform="translate(1007.63,728.43)"><path
             d="M 0,0 -3.42,9.398 58.14,31.8 -3.42,54.211 0,63.601 87.37,31.8 0,0"
             style="fill:#100f0d;fill-opacity:1;fill-rule:nonzero;stroke:none"
             id="path82"
             inkscape:connector-curvature="0" /></g></g></g><text
       transform="matrix(1,0,0,-1,0,69.744)"
       style="font-variant:normal;font-weight:normal;font-size:18px;font-family:MyriadPro;-inkscape-font-specification:MyriadPro-Regular;writing-mode:lr-tb;fill:#100f0d;fill-opacity:1;fill-rule:nonzero;stroke:none"
       id="text88"><tspan
         x="0 9.3603058"
         y="0"
         sodipodi:role="line"
         id="tspan84">PM</tspan><tspan
         x="44.214001"
         y="-38.5"
         id="tspan86">-</tspan></text>
<text
       transform="matrix(1,0,0,-1,49.7401,108.2437)"
       style="font-variant:normal;font-weight:normal;font-size:18px;font-family:MyriadPro;-inkscape-font-specification:MyriadPro-Regular;writing-mode:lr-tb;fill:#100f0d;fill-opacity:1;fill-rule:nonzero;stroke:none"
       id="text92"><tspan
         x="0"
         y="0"
         id="tspan90">1</tspan></text>
<text
       transform="matrix(0.9526,0,0,-1,122.1019,84.5782)"
       style="font-variant:normal;font-weight:normal;font-size:15.06499958px;font-family:MyriadPro;-inkscape-font-specification:MyriadPro-Regular;writing-mode:lr-tb;fill:#100f0d;fill-opacity:1;fill-rule:nonzero;stroke:none"
       id="text98"><tspan
         x="0"
         y="0"
         id="tspan94">1</tspan><tspan
         x="-6.2779999 3.45399"
         y="18.830999"
         sodipodi:role="line"
         id="tspan96">GM</tspan></text>
<g
       id="g100"
       transform="scale(0.1)"><g
         id="g102"
         clip-path="url(#clipPath106)"><g
           id="g108"
           transform="translate(1161.22,806.27)"><path
             d="M 0,0 H 227.23"
             style="fill:none;stroke:#100f0d;stroke-width:10;stroke-linecap:butt;stroke-linejoin:miter;stroke-miterlimit:10;stroke-dasharray:none;stroke-opacity:1"
             id="path110"
             inkscape:connector-curvature="0" /></g><g
           id="g112"
           transform="translate(646.152,1018.12)"><path
             d="m 0,0 c 0,-13.81 -11.015,-24.999 -24.609,-24.999 -13.594,0 -24.609,11.189 -24.609,24.999 0,13.8 11.015,25 24.609,25 C -11.015,25 0,13.8 0,0"
             style="fill:#100f0d;fill-opacity:1;fill-rule:nonzero;stroke:none"
             id="path114"
             inkscape:connector-curvature="0" /></g></g></g><text
       transform="matrix(1,0,0,-1,116.122,185.064)"
       style="font-variant:normal;font-weight:normal;font-size:18px;font-family:MyriadPro;-inkscape-font-specification:MyriadPro-Regular;writing-mode:lr-tb;fill:#100f0d;fill-opacity:1;fill-rule:nonzero;stroke:none"
       id="text128"><tspan
         x="0 4.4814959 19.493496 24.605495 31.733496"
         y="0"
         sodipodi:role="line"
         id="tspan126">Im(s)</tspan></text>
</g></svg>