<?xml version="1.0" encoding="UTF-8" standalone="no"?>
<!-- Created with Inkscape (http://www.inkscape.org/) -->

<svg
   xmlns:dc="http://purl.org/dc/elements/1.1/"
   xmlns:cc="http://creativecommons.org/ns#"
   xmlns:rdf="http://www.w3.org/1999/02/22-rdf-syntax-ns#"
   xmlns:svg="http://www.w3.org/2000/svg"
   xmlns="http://www.w3.org/2000/svg"
   xmlns:sodipodi="http://sodipodi.sourceforge.net/DTD/sodipodi-0.dtd"
   xmlns:inkscape="http://www.inkscape.org/namespaces/inkscape"
   version="1.1"
   id="svg2"
   xml:space="preserve"
   width="471.09354"
   height="382.65128"
   viewBox="0 0 471.09354 382.65128"
   sodipodi:docname="n-n-plot.svg"
   inkscape:version="0.92.0 r15299"><metadata
     id="metadata8"><rdf:RDF><cc:Work
         rdf:about=""><dc:format>image/svg+xml</dc:format><dc:type
           rdf:resource="http://purl.org/dc/dcmitype/StillImage" /><dc:title></dc:title></cc:Work></rdf:RDF></metadata><defs
     id="defs6"><clipPath
       clipPathUnits="userSpaceOnUse"
       id="clipPath18"><path
         d="M 0,3150 V 0 h 4199.17 v 3150 z"
         id="path16"
         inkscape:connector-curvature="0" /></clipPath><clipPath
       clipPathUnits="userSpaceOnUse"
       id="clipPath44"><path
         d="M 0,3150 V 0 h 4199.17 v 3150 z"
         id="path42"
         inkscape:connector-curvature="0" /></clipPath><clipPath
       clipPathUnits="userSpaceOnUse"
       id="clipPath64"><path
         d="M 0,3150 V 0 h 4199.17 v 3150 z"
         id="path62"
         inkscape:connector-curvature="0" /></clipPath><clipPath
       clipPathUnits="userSpaceOnUse"
       id="clipPath80"><path
         d="M 0,3150 V 0 h 4199.17 v 3150 z"
         id="path78"
         inkscape:connector-curvature="0" /></clipPath><clipPath
       clipPathUnits="userSpaceOnUse"
       id="clipPath110"><path
         d="M 0,3150 V 0 h 4199.17 v 3150 z"
         id="path108"
         inkscape:connector-curvature="0" /></clipPath><clipPath
       clipPathUnits="userSpaceOnUse"
       id="clipPath130"><path
         d="M 0,3150 V 0 h 4199.17 v 3150 z"
         id="path128"
         inkscape:connector-curvature="0" /></clipPath><clipPath
       clipPathUnits="userSpaceOnUse"
       id="clipPath146"><path
         d="M 0,3150 V 0 h 4199.17 v 3150 z"
         id="path144"
         inkscape:connector-curvature="0" /></clipPath><clipPath
       clipPathUnits="userSpaceOnUse"
       id="clipPath162"><path
         d="M 0,3150 V 0 h 4199.17 v 3150 z"
         id="path160"
         inkscape:connector-curvature="0" /></clipPath><clipPath
       clipPathUnits="userSpaceOnUse"
       id="clipPath178"><path
         d="M 0,3150 V 0 h 4199.17 v 3150 z"
         id="path176"
         inkscape:connector-curvature="0" /></clipPath><clipPath
       clipPathUnits="userSpaceOnUse"
       id="clipPath194"><path
         d="M 0,3150 V 0 h 4199.17 v 3150 z"
         id="path192"
         inkscape:connector-curvature="0" /></clipPath><clipPath
       clipPathUnits="userSpaceOnUse"
       id="clipPath210"><path
         d="M 0,3150 V 0 h 4199.17 v 3150 z"
         id="path208"
         inkscape:connector-curvature="0" /></clipPath><clipPath
       clipPathUnits="userSpaceOnUse"
       id="clipPath246"><path
         d="M 0,3150 V 0 h 4199.17 v 3150 z"
         id="path244"
         inkscape:connector-curvature="0" /></clipPath><clipPath
       clipPathUnits="userSpaceOnUse"
       id="clipPath262"><path
         d="M 0,3150 V 0 h 4199.17 v 3150 z"
         id="path260"
         inkscape:connector-curvature="0" /></clipPath><clipPath
       clipPathUnits="userSpaceOnUse"
       id="clipPath278"><path
         d="M 0,3150 V 0 h 4199.17 v 3150 z"
         id="path276"
         inkscape:connector-curvature="0" /></clipPath><clipPath
       clipPathUnits="userSpaceOnUse"
       id="clipPath294"><path
         d="M 0,3150 V 0 h 4199.17 v 3150 z"
         id="path292"
         inkscape:connector-curvature="0" /></clipPath><clipPath
       clipPathUnits="userSpaceOnUse"
       id="clipPath310"><path
         d="M 0,3150 V 0 h 4199.17 v 3150 z"
         id="path308"
         inkscape:connector-curvature="0" /></clipPath><clipPath
       clipPathUnits="userSpaceOnUse"
       id="clipPath326"><path
         d="M 0,3150 V 0 h 4199.17 v 3150 z"
         id="path324"
         inkscape:connector-curvature="0" /></clipPath><clipPath
       clipPathUnits="userSpaceOnUse"
       id="clipPath338"><path
         d="M 635.836,345.832 H 3800.83 V 2763.34 H 635.836 Z"
         id="path336"
         inkscape:connector-curvature="0" /></clipPath><clipPath
       clipPathUnits="userSpaceOnUse"
       id="clipPath350"><path
         d="M 0,3150 V 0 h 4199.17 v 3150 z"
         id="path348"
         inkscape:connector-curvature="0" /></clipPath><clipPath
       clipPathUnits="userSpaceOnUse"
       id="clipPath362"><path
         d="m 3391.67,1462.5 h 184.16 v 184.17 h -184.16 z"
         id="path360"
         inkscape:connector-curvature="0" /></clipPath><clipPath
       clipPathUnits="userSpaceOnUse"
       id="clipPath374"><path
         d="M 635.836,345.832 H 3800.83 V 2763.34 H 635.836 Z"
         id="path372"
         inkscape:connector-curvature="0" /></clipPath><clipPath
       clipPathUnits="userSpaceOnUse"
       id="clipPath386"><path
         d="M 0,3150 V 0 h 4199.17 v 3150 z"
         id="path384"
         inkscape:connector-curvature="0" /></clipPath><clipPath
       clipPathUnits="userSpaceOnUse"
       id="clipPath404"><path
         d="M 635.836,345.832 H 3800.83 V 2763.34 H 635.836 Z"
         id="path402"
         inkscape:connector-curvature="0" /></clipPath><clipPath
       clipPathUnits="userSpaceOnUse"
       id="clipPath422"><path
         d="M 0,3150 V 0 h 4199.17 v 3150 z"
         id="path420"
         inkscape:connector-curvature="0" /></clipPath><clipPath
       clipPathUnits="userSpaceOnUse"
       id="clipPath438"><path
         d="M 0,3150 V 0 h 4199.17 v 3150 z"
         id="path436"
         inkscape:connector-curvature="0" /></clipPath><clipPath
       clipPathUnits="userSpaceOnUse"
       id="clipPath476"><path
         d="M 0,3150 V 0 h 4199.17 v 3150 z"
         id="path474"
         inkscape:connector-curvature="0" /></clipPath></defs><sodipodi:namedview
     pagecolor="#ffffff"
     bordercolor="#666666"
     borderopacity="1"
     objecttolerance="10"
     gridtolerance="10"
     guidetolerance="10"
     inkscape:pageopacity="0"
     inkscape:pageshadow="2"
     inkscape:window-width="640"
     inkscape:window-height="480"
     id="namedview4"
     showgrid="false"
     fit-margin-top="0"
     fit-margin-left="0"
     fit-margin-right="0"
     fit-margin-bottom="0"
     inkscape:zoom="0.22348485"
     inkscape:cx="291.58657"
     inkscape:cy="509.86349"
     inkscape:window-x="878"
     inkscape:window-y="148"
     inkscape:window-maximized="0"
     inkscape:current-layer="g10" /><g
     id="g10"
     inkscape:groupmode="layer"
     inkscape:label="A9R1g2q9yc_633542_2wk"
     transform="matrix(1.3333333,0,0,-1.3333333,-38.108341,400.78778)"><g
       id="g12"
       transform="scale(0.1000061)"><g
         id="g14"
         clip-path="url(#clipPath18)"><path
           d="m 635.836,346.672 h 3164.16 v 2416.66 H 635.836 Z"
           style="fill:#ffffff;fill-opacity:1;fill-rule:evenodd;stroke:none"
           id="path20"
           inkscape:connector-curvature="0" /><g
           id="g22"
           transform="translate(635.836,346.672)"><path
             d="M 0,0 V 2416.668 H 3164.164 V 0 H 0"
             style="fill:none;stroke:#ffffff;stroke-width:5;stroke-linecap:butt;stroke-linejoin:round;stroke-miterlimit:10;stroke-dasharray:none;stroke-opacity:1"
             id="path24"
             inkscape:connector-curvature="0" /><g
             id="g26"
             transform="translate(0,2416.668)"><path
               d="m 0,0 v -30.84 m 0,-2385.828 v 31.66 m 0,-31.66 V 0 M 0,-2416.668 H 3164.164 M 0,-2416.668 V 0 M 3164.164,-2416.668 V 0 M 0,-2416.668 H 3164.164 M 0,0 h 3164.164"
               style="fill:none;stroke:#7b7979;stroke-width:5;stroke-linecap:butt;stroke-linejoin:round;stroke-miterlimit:10;stroke-dasharray:none;stroke-opacity:1"
               id="path28"
               inkscape:connector-curvature="0" /><g
               id="g30"
               transform="translate(315.82797,-9.32e-5)"><path
                 d="m 0,0 v -30.84 m 0,-2385.828 v 31.66"
                 style="fill:none;stroke:#7b7979;stroke-width:5;stroke-linecap:butt;stroke-linejoin:round;stroke-miterlimit:10;stroke-dasharray:none;stroke-opacity:1"
                 id="path32"
                 inkscape:connector-curvature="0" /></g></g></g></g></g><text
       transform="matrix(1,0,0,-1,88.335,24.423)"
       style="font-variant:normal;font-weight:normal;font-size:8px;font-family:Helvetica;-inkscape-font-specification:Helvetica;writing-mode:lr-tb;fill:#7a7d82;fill-opacity:1;fill-rule:nonzero;stroke:none"
       id="text36"><tspan
         x="0 4.7680001"
         y="0"
         sodipodi:role="line"
         id="tspan34">−9</tspan></text>
<g
       id="g38"
       transform="scale(0.1000061)"><g
         id="g40"
         clip-path="url(#clipPath44)"><g
           id="g46"
           transform="translate(1268.33,2763.3399)"><path
             d="m 0,0 v -30.84 m 0,-2385.828 v 31.66"
             style="fill:none;stroke:#7b7979;stroke-width:5;stroke-linecap:butt;stroke-linejoin:round;stroke-miterlimit:10;stroke-dasharray:none;stroke-opacity:1"
             id="path48"
             inkscape:connector-curvature="0" /></g></g></g><text
       transform="matrix(1,0,0,-1,120.007,24.423)"
       style="font-variant:normal;font-weight:normal;font-size:8px;font-family:Helvetica;-inkscape-font-specification:Helvetica;writing-mode:lr-tb;fill:#7a7d82;fill-opacity:1;fill-rule:nonzero;stroke:none"
       id="text52"><tspan
         x="0"
         y="0"
         id="tspan50">−</tspan></text>
<text
       transform="matrix(1,0,0,-1,124.775,24.423)"
       style="font-variant:normal;font-weight:normal;font-size:8px;font-family:Helvetica;-inkscape-font-specification:Helvetica;writing-mode:lr-tb;fill:#7a7d82;fill-opacity:1;fill-rule:nonzero;stroke:none"
       id="text56"><tspan
         x="0"
         y="0"
         id="tspan54">8</tspan></text>
<g
       id="g58"
       transform="scale(0.1000061)"><g
         id="g60"
         clip-path="url(#clipPath64)"><g
           id="g66"
           transform="translate(1584.9999,2763.3399)"><path
             d="m 0,0 v -30.84 m 0,-2385.828 v 31.66"
             style="fill:none;stroke:#7b7979;stroke-width:5;stroke-linecap:butt;stroke-linejoin:round;stroke-miterlimit:10;stroke-dasharray:none;stroke-opacity:1"
             id="path68"
             inkscape:connector-curvature="0" /></g></g></g><text
       transform="matrix(1,0,0,-1,151.663,24.423)"
       style="font-variant:normal;font-weight:normal;font-size:8px;font-family:Helvetica;-inkscape-font-specification:Helvetica;writing-mode:lr-tb;fill:#7a7d82;fill-opacity:1;fill-rule:nonzero;stroke:none"
       id="text72"><tspan
         x="0 4.7680001"
         y="0"
         sodipodi:role="line"
         id="tspan70">−7</tspan></text>
<g
       id="g74"
       transform="scale(0.1000061)"><g
         id="g76"
         clip-path="url(#clipPath80)"><g
           id="g82"
           transform="translate(1900.8299,2763.3399)"><path
             d="m 0,0 v -30.84 m 0,-2385.828 v 31.66"
             style="fill:none;stroke:#7b7979;stroke-width:5;stroke-linecap:butt;stroke-linejoin:round;stroke-miterlimit:10;stroke-dasharray:none;stroke-opacity:1"
             id="path84"
             inkscape:connector-curvature="0" /></g></g></g><text
       transform="matrix(1,0,0,-1,51.585,128.421)"
       style="font-variant:normal;font-weight:normal;font-size:8px;font-family:Helvetica;-inkscape-font-specification:Helvetica;writing-mode:lr-tb;fill:#7a7d82;fill-opacity:1;fill-rule:nonzero;stroke:none"
       id="text98"><tspan
         x="0 4.7680001"
         y="0"
         sodipodi:role="line"
         id="tspan86">−1</tspan><tspan
         x="0 4.7680001"
         y="24.17"
         sodipodi:role="line"
         id="tspan88">−2</tspan><tspan
         x="0 4.7680001"
         y="48.334"
         sodipodi:role="line"
         id="tspan90">−3</tspan><tspan
         x="0 4.7680001"
         y="72.5"
         sodipodi:role="line"
         id="tspan92">−4</tspan><tspan
         x="0 4.7680001"
         y="96.669998"
         sodipodi:role="line"
         id="tspan94">−5</tspan><tspan
         x="2.9219999 7.6900001 11.794 131.672"
         y="103.998"
         sodipodi:role="line"
         id="tspan96">−10−</tspan></text>
<text
       transform="matrix(1,0,0,-1,188.025,24.423)"
       style="font-variant:normal;font-weight:normal;font-size:8px;font-family:Helvetica;-inkscape-font-specification:Helvetica;writing-mode:lr-tb;fill:#7a7d82;fill-opacity:1;fill-rule:nonzero;stroke:none"
       id="text102"><tspan
         x="0"
         y="0"
         id="tspan100">6</tspan></text>
<g
       id="g104"
       transform="scale(0.1000061)"><g
         id="g106"
         clip-path="url(#clipPath110)"><g
           id="g112"
           transform="translate(2217.4999,2763.3399)"><path
             d="m 0,0 v -30.84 m 0,-2385.828 v 31.66"
             style="fill:none;stroke:#7b7979;stroke-width:5;stroke-linecap:butt;stroke-linejoin:round;stroke-miterlimit:10;stroke-dasharray:none;stroke-opacity:1"
             id="path114"
             inkscape:connector-curvature="0" /></g></g></g><text
       transform="matrix(1,0,0,-1,214.923,24.423)"
       style="font-variant:normal;font-weight:normal;font-size:8px;font-family:Helvetica;-inkscape-font-specification:Helvetica;writing-mode:lr-tb;fill:#7a7d82;fill-opacity:1;fill-rule:nonzero;stroke:none"
       id="text118"><tspan
         x="0"
         y="0"
         id="tspan116">−</tspan></text>
<text
       transform="matrix(1,0,0,-1,219.691,24.423)"
       style="font-variant:normal;font-weight:normal;font-size:8px;font-family:Helvetica;-inkscape-font-specification:Helvetica;writing-mode:lr-tb;fill:#7a7d82;fill-opacity:1;fill-rule:nonzero;stroke:none"
       id="text122"><tspan
         x="0"
         y="0"
         id="tspan120">5</tspan></text>
<g
       id="g124"
       transform="scale(0.1000061)"><g
         id="g126"
         clip-path="url(#clipPath130)"><g
           id="g132"
           transform="translate(2534.1699,2763.3399)"><path
             d="m 0,0 v -30.84 m 0,-2385.828 v 31.66"
             style="fill:none;stroke:#7b7979;stroke-width:5;stroke-linecap:butt;stroke-linejoin:round;stroke-miterlimit:10;stroke-dasharray:none;stroke-opacity:1"
             id="path134"
             inkscape:connector-curvature="0" /></g></g></g><text
       transform="matrix(1,0,0,-1,246.585,24.423)"
       style="font-variant:normal;font-weight:normal;font-size:8px;font-family:Helvetica;-inkscape-font-specification:Helvetica;writing-mode:lr-tb;fill:#7a7d82;fill-opacity:1;fill-rule:nonzero;stroke:none"
       id="text138"><tspan
         x="0 4.7680001"
         y="0"
         sodipodi:role="line"
         id="tspan136">−4</tspan></text>
<g
       id="g140"
       transform="scale(0.1000061)"><g
         id="g142"
         clip-path="url(#clipPath146)"><g
           id="g148"
           transform="translate(2849.9999,2763.3399)"><path
             d="m 0,0 v -30.84 m 0,-2385.828 v 31.66"
             style="fill:none;stroke:#7b7979;stroke-width:5;stroke-linecap:butt;stroke-linejoin:round;stroke-miterlimit:10;stroke-dasharray:none;stroke-opacity:1"
             id="path150"
             inkscape:connector-curvature="0" /></g></g></g><text
       transform="matrix(1,0,0,-1,278.171,24.423)"
       style="font-variant:normal;font-weight:normal;font-size:8px;font-family:Helvetica;-inkscape-font-specification:Helvetica;writing-mode:lr-tb;fill:#7a7d82;fill-opacity:1;fill-rule:nonzero;stroke:none"
       id="text154"><tspan
         x="0 4.7680001"
         y="0"
         sodipodi:role="line"
         id="tspan152">−3</tspan></text>
<g
       id="g156"
       transform="scale(0.1000061)"><g
         id="g158"
         clip-path="url(#clipPath162)"><g
           id="g164"
           transform="translate(3166.6699,2763.3399)"><path
             d="m 0,0 v -30.84 m 0,-2385.828 v 31.66"
             style="fill:none;stroke:#7b7979;stroke-width:5;stroke-linecap:butt;stroke-linejoin:round;stroke-miterlimit:10;stroke-dasharray:none;stroke-opacity:1"
             id="path166"
             inkscape:connector-curvature="0" /></g></g></g><text
       transform="matrix(1,0,0,-1,309.829,24.423)"
       style="font-variant:normal;font-weight:normal;font-size:8px;font-family:Helvetica;-inkscape-font-specification:Helvetica;writing-mode:lr-tb;fill:#7a7d82;fill-opacity:1;fill-rule:nonzero;stroke:none"
       id="text170"><tspan
         x="0 4.7680001"
         y="0"
         sodipodi:role="line"
         id="tspan168">−2</tspan></text>
<g
       id="g172"
       transform="scale(0.1000061)"><g
         id="g174"
         clip-path="url(#clipPath178)"><g
           id="g180"
           transform="translate(3483.3299,2763.3399)"><path
             d="m 0,0 v -30.84 m 0,-2385.828 v 31.66"
             style="fill:none;stroke:#7b7979;stroke-width:5;stroke-linecap:butt;stroke-linejoin:round;stroke-miterlimit:10;stroke-dasharray:none;stroke-opacity:1"
             id="path182"
             inkscape:connector-curvature="0" /></g></g></g><text
       transform="matrix(1,0,0,-1,341.499,24.423)"
       style="font-variant:normal;font-weight:normal;font-size:8px;font-family:Helvetica;-inkscape-font-specification:Helvetica;writing-mode:lr-tb;fill:#7a7d82;fill-opacity:1;fill-rule:nonzero;stroke:none"
       id="text186"><tspan
         x="0 4.7680001"
         y="0"
         sodipodi:role="line"
         id="tspan184">−1</tspan></text>
<g
       id="g188"
       transform="scale(0.1000061)"><g
         id="g190"
         clip-path="url(#clipPath194)"><g
           id="g196"
           transform="translate(3799.9999,2763.3399)"><path
             d="m 0,0 v -30.84 m 0,-2385.828 v 31.66"
             style="fill:none;stroke:#7b7979;stroke-width:5;stroke-linecap:butt;stroke-linejoin:round;stroke-miterlimit:10;stroke-dasharray:none;stroke-opacity:1"
             id="path198"
             inkscape:connector-curvature="0" /></g></g></g><text
       transform="matrix(1,0,0,-1,377.835,24.423)"
       style="font-variant:normal;font-weight:normal;font-size:8px;font-family:Helvetica;-inkscape-font-specification:Helvetica;writing-mode:lr-tb;fill:#7a7d82;fill-opacity:1;fill-rule:nonzero;stroke:none"
       id="text202"><tspan
         x="0"
         y="0"
         id="tspan200">0</tspan></text>
<g
       id="g204"
       transform="scale(0.1000061)"><g
         id="g206"
         clip-path="url(#clipPath210)"><g
           id="g212"
           transform="translate(3799.9999,346.67199)"><path
             d="m 0,0 h -31.67 m -3132.494,0 h 30.828"
             style="fill:none;stroke:#7b7979;stroke-width:5;stroke-linecap:butt;stroke-linejoin:round;stroke-miterlimit:10;stroke-dasharray:none;stroke-opacity:1"
             id="path214"
             inkscape:connector-curvature="0" /><g
             id="g216"
             transform="translate(0,241.66)"><path
               d="m 0,0 h -31.67 m -3132.494,0 h 30.828"
               style="fill:none;stroke:#7b7979;stroke-width:5;stroke-linecap:butt;stroke-linejoin:round;stroke-miterlimit:10;stroke-dasharray:none;stroke-opacity:1"
               id="path218"
               inkscape:connector-curvature="0" /><g
               id="g220"
               transform="translate(0,241.668)"><path
                 d="m 0,0 h -31.67 m -3132.494,0 h 30.828"
                 style="fill:none;stroke:#7b7979;stroke-width:5;stroke-linecap:butt;stroke-linejoin:round;stroke-miterlimit:10;stroke-dasharray:none;stroke-opacity:1"
                 id="path222"
                 inkscape:connector-curvature="0" /><g
                 id="g224"
                 transform="translate(0,241.67)"><path
                   d="m 0,0 h -31.67 m -3132.494,0 h 30.828"
                   style="fill:none;stroke:#7b7979;stroke-width:5;stroke-linecap:butt;stroke-linejoin:round;stroke-miterlimit:10;stroke-dasharray:none;stroke-opacity:1"
                   id="path226"
                   inkscape:connector-curvature="0" /><g
                   id="g228"
                   transform="translate(0,241.66)"><path
                     d="m 0,0 h -31.67 m -3132.494,0 h 30.828"
                     style="fill:none;stroke:#7b7979;stroke-width:5;stroke-linecap:butt;stroke-linejoin:round;stroke-miterlimit:10;stroke-dasharray:none;stroke-opacity:1"
                     id="path230"
                     inkscape:connector-curvature="0" /><g
                     id="g232"
                     transform="translate(0,241.67)"><path
                       d="m 0,0 h -31.67 m -3132.494,0 h 30.828"
                       style="fill:none;stroke:#7b7979;stroke-width:5;stroke-linecap:butt;stroke-linejoin:round;stroke-miterlimit:10;stroke-dasharray:none;stroke-opacity:1"
                       id="path234"
                       inkscape:connector-curvature="0" /></g></g></g></g></g></g></g></g><text
       transform="matrix(1,0,0,-1,56.257,152.587)"
       style="font-variant:normal;font-weight:normal;font-size:8px;font-family:Helvetica;-inkscape-font-specification:Helvetica;writing-mode:lr-tb;fill:#7a7d82;fill-opacity:1;fill-rule:nonzero;stroke:none"
       id="text238"><tspan
         x="0"
         y="0"
         id="tspan236">0</tspan></text>
<g
       id="g240"
       transform="scale(0.1000061)"><g
         id="g242"
         clip-path="url(#clipPath246)"><g
           id="g248"
           transform="translate(3799.9999,1796.6699)"><path
             d="m 0,0 h -31.67 m -3132.494,0 h 30.828"
             style="fill:none;stroke:#7b7979;stroke-width:5;stroke-linecap:butt;stroke-linejoin:round;stroke-miterlimit:10;stroke-dasharray:none;stroke-opacity:1"
             id="path250"
             inkscape:connector-curvature="0" /></g></g></g><text
       transform="matrix(1,0,0,-1,56.257,176.751)"
       style="font-variant:normal;font-weight:normal;font-size:8px;font-family:Helvetica;-inkscape-font-specification:Helvetica;writing-mode:lr-tb;fill:#7a7d82;fill-opacity:1;fill-rule:nonzero;stroke:none"
       id="text254"><tspan
         x="0"
         y="0"
         id="tspan252">1</tspan></text>
<g
       id="g256"
       transform="scale(0.1000061)"><g
         id="g258"
         clip-path="url(#clipPath262)"><g
           id="g264"
           transform="translate(3799.9999,2038.3299)"><path
             d="m 0,0 h -31.67 m -3132.494,0 h 30.828"
             style="fill:none;stroke:#7b7979;stroke-width:5;stroke-linecap:butt;stroke-linejoin:round;stroke-miterlimit:10;stroke-dasharray:none;stroke-opacity:1"
             id="path266"
             inkscape:connector-curvature="0" /></g></g></g><text
       transform="matrix(1,0,0,-1,56.257,200.921)"
       style="font-variant:normal;font-weight:normal;font-size:8px;font-family:Helvetica;-inkscape-font-specification:Helvetica;writing-mode:lr-tb;fill:#7a7d82;fill-opacity:1;fill-rule:nonzero;stroke:none"
       id="text270"><tspan
         x="0"
         y="0"
         id="tspan268">2</tspan></text>
<g
       id="g272"
       transform="scale(0.1000061)"><g
         id="g274"
         clip-path="url(#clipPath278)"><g
           id="g280"
           transform="translate(3799.9999,2279.9999)"><path
             d="m 0,0 h -31.67 m -3132.494,0 h 30.828"
             style="fill:none;stroke:#7b7979;stroke-width:5;stroke-linecap:butt;stroke-linejoin:round;stroke-miterlimit:10;stroke-dasharray:none;stroke-opacity:1"
             id="path282"
             inkscape:connector-curvature="0" /></g></g></g><text
       transform="matrix(1,0,0,-1,56.257,225.087)"
       style="font-variant:normal;font-weight:normal;font-size:8px;font-family:Helvetica;-inkscape-font-specification:Helvetica;writing-mode:lr-tb;fill:#7a7d82;fill-opacity:1;fill-rule:nonzero;stroke:none"
       id="text286"><tspan
         x="0"
         y="0"
         id="tspan284">3</tspan></text>
<g
       id="g288"
       transform="scale(0.1000061)"><g
         id="g290"
         clip-path="url(#clipPath294)"><g
           id="g296"
           transform="translate(3799.9999,2521.6599)"><path
             d="m 0,0 h -31.67 m -3132.494,0 h 30.828"
             style="fill:none;stroke:#7b7979;stroke-width:5;stroke-linecap:butt;stroke-linejoin:round;stroke-miterlimit:10;stroke-dasharray:none;stroke-opacity:1"
             id="path298"
             inkscape:connector-curvature="0" /></g></g></g><text
       transform="matrix(1,0,0,-1,56.257,249.251)"
       style="font-variant:normal;font-weight:normal;font-size:8px;font-family:Helvetica;-inkscape-font-specification:Helvetica;writing-mode:lr-tb;fill:#7a7d82;fill-opacity:1;fill-rule:nonzero;stroke:none"
       id="text302"><tspan
         x="0"
         y="0"
         id="tspan300">4</tspan></text>
<g
       id="g304"
       transform="scale(0.1000061)"><g
         id="g306"
         clip-path="url(#clipPath310)"><g
           id="g312"
           transform="translate(3799.9999,2763.3399)"><path
             d="m 0,0 h -31.67 m -3132.494,0 h 30.828"
             style="fill:none;stroke:#7b7979;stroke-width:5;stroke-linecap:butt;stroke-linejoin:round;stroke-miterlimit:10;stroke-dasharray:none;stroke-opacity:1"
             id="path314"
             inkscape:connector-curvature="0" /></g></g></g><text
       transform="matrix(1,0,0,-1,56.257,273.421)"
       style="font-variant:normal;font-weight:normal;font-size:8px;font-family:Helvetica;-inkscape-font-specification:Helvetica;writing-mode:lr-tb;fill:#7a7d82;fill-opacity:1;fill-rule:nonzero;stroke:none"
       id="text318"><tspan
         x="0"
         y="0"
         id="tspan316">5</tspan></text>
<g
       id="g320"
       transform="scale(0.1000061)"><g
         id="g322"
         clip-path="url(#clipPath326)"><g
           id="g328"
           transform="translate(635.83598,346.67199)"><path
             d="M 0,0 V 2416.668 M 3164.164,0 V 2416.668 M 0,0 H 3164.164 M 0,2416.668 h 3164.164"
             style="fill:none;stroke:#7b7979;stroke-width:5;stroke-linecap:butt;stroke-linejoin:round;stroke-miterlimit:10;stroke-dasharray:none;stroke-opacity:1"
             id="path330"
             inkscape:connector-curvature="0" /></g></g></g><g
       id="g332"
       transform="scale(0.1000061)"><g
         id="g334"
         clip-path="url(#clipPath338)"><g
           id="g340"
           transform="translate(3800,345.832)"><path
             d="M 0,0 V 2417.508 M -3164.164,1209.168 H 0.83"
             style="fill:none;stroke:#7b7979;stroke-width:30;stroke-linecap:butt;stroke-linejoin:round;stroke-miterlimit:10;stroke-dasharray:5, 40;stroke-dashoffset:0;stroke-opacity:1"
             id="path342"
             inkscape:connector-curvature="0" /></g></g></g><g
       id="g344"
       transform="scale(0.1000061)"><g
         id="g346"
         clip-path="url(#clipPath350)"><g
           id="g352"
           transform="translate(3498.6,1554.8)"><path
             d="m 0,0 c 0,-8.28 -6.72,-15 -15,-15 -8.28,0 -15,6.72 -15,15 0,8.28 6.72,15 15,15 C -6.72,15 0,8.28 0,0"
             style="fill:#ed1d24;fill-opacity:1;fill-rule:nonzero;stroke:none"
             id="path354"
             inkscape:connector-curvature="0" /></g></g></g><g
       id="g356"
       transform="scale(0.1000061)"><g
         id="g358"
         clip-path="url(#clipPath362)"><g
           id="g364"
           transform="translate(3483.33,1585)"><path
             d="m 0,0 v -60 m -30,30 h 60"
             style="fill:none;stroke:#ed1d24;stroke-width:30;stroke-linecap:butt;stroke-linejoin:round;stroke-miterlimit:10;stroke-dasharray:none;stroke-opacity:1"
             id="path366"
             inkscape:connector-curvature="0" /></g></g></g><g
       id="g368"
       transform="scale(0.1000061)"><g
         id="g370"
         clip-path="url(#clipPath374)"><g
           id="g376"
           transform="translate(3325,1555)"><path
             d="m 0,0 v -25.83 l -0.83,-5 V -44.17 L -1.67,-52.5 -2.5,-63.33 -3.33,-75 l -0.84,-15 -2.5,-17.5 -2.5,-20.83 -4.16,-25 -5,-29.17 -8.34,-35 -10.83,-41.67 -15.83,-49.16 -22.5,-57.5 -31.67,-67.5 -44.17,-77.5 -61.66,-88.342 -84.17,-99.156 -62.5,-60 -52.5,-45.844 -153.33,-108.328 -197.5,-103.328 -247.5,-85 -292.5,-50 -325,3.328 -329.17,70.832 -293.33,144.168 -215.834,205.828 -101.672,243.342 25.836,242.5 146.664,207.5 238.336,146.66 295,75 318.33,10.84 102.5,-8.34 215,-30 304.17,-65.83 284.17,-71.66 257.5,-62.51 227.5,-41.66 189.16,-19.17 148.34,0.83 108.33,13.34 74.17,19.16 45.83,18.34 28.33,15 15.84,11.66 8.33,8.34 5,5 2.5,3.33 0.83,2.5 0.84,0.83 V 0 H 475 M 0,0 v 26.67 l -0.83,5 V 45 l -0.84,8.33 -0.83,10.84 -0.83,11.66 -0.84,15 -2.5,17.5 -2.5,20.84 -4.16,25 -5,29.16 -8.34,35 -10.83,41.67 -15.83,49.17 -22.5,57.5 -31.67,67.5 -44.17,77.5 -61.66,88.33 -84.17,99.16 -62.5,60 -52.5,45.84 -153.33,108.34 -197.5,103.32 -247.5,85 -292.5,50 -325,-3.32 -329.17,-70.84 -293.33,-144.16 -215.834,-205.84 -101.672,-243.33 25.836,-242.5 146.664,-207.5 238.336,-146.67 295,-75 318.33,-10.83 102.5,8.33 215,30 304.17,65.83 284.17,71.67 257.5,62.5 227.5,41.67 L 35.83,100.83 184.17,100 292.5,86.67 366.67,67.5 412.5,49.17 l 28.33,-15 15.84,-11.67 8.33,-8.33 5,-5 2.5,-3.34 0.83,-2.5 0.84,-0.83 V 0.83 L 475,0"
             style="fill:none;stroke:#3b4ba7;stroke-width:5;stroke-linecap:butt;stroke-linejoin:round;stroke-miterlimit:10;stroke-dasharray:none;stroke-opacity:1"
             id="path378"
             inkscape:connector-curvature="0" /></g></g></g><g
       id="g380"
       transform="scale(0.1000061)"><g
         id="g382"
         clip-path="url(#clipPath386)"><g
           id="g388"
           transform="translate(2094.17,2664.16)"><path
             d="M 0,0 -55,39.18 16.66,56.68 0,0"
             style="fill:#3b4ba7;fill-opacity:1;fill-rule:evenodd;stroke:none"
             id="path390"
             inkscape:connector-curvature="0" /><path
             d="M 0,0 -55,39.18 16.66,56.68 0,0"
             style="fill:none;stroke:#3b4ba7;stroke-width:5;stroke-linecap:butt;stroke-linejoin:round;stroke-miterlimit:10;stroke-dasharray:none;stroke-opacity:1"
             id="path392"
             inkscape:connector-curvature="0" /><g
             id="g394"
             transform="translate(-126.67,-2239.16)"><path
               d="M 0,0 71.67,-17.5 15.83,-56.668 0,0"
               style="fill:#3b4ba7;fill-opacity:1;fill-rule:evenodd;stroke:none"
               id="path396"
               inkscape:connector-curvature="0" /></g></g></g></g><g
       id="g398"
       transform="scale(0.1000061)"><g
         id="g400"
         clip-path="url(#clipPath404)"><g
           id="g406"
           transform="translate(1967.5,425)"><path
             d="M 0,0 71.67,-17.5 15.83,-56.668 0,0"
             style="fill:none;stroke:#3b4ba7;stroke-width:5;stroke-linecap:butt;stroke-linejoin:round;stroke-miterlimit:10;stroke-dasharray:none;stroke-opacity:1"
             id="path408"
             inkscape:connector-curvature="0" /></g></g></g><text
       transform="matrix(1,0,0,-1,188.257,292.001)"
       style="font-variant:normal;font-weight:normal;font-size:12px;font-family:Helvetica;-inkscape-font-specification:Helvetica;writing-mode:lr-tb;fill:#211c1d;fill-opacity:1;fill-rule:nonzero;stroke:none"
       id="text414"><tspan
         x="0 7.8959999 13.548 20.304001 26.916 29.724001 34.476002 38.448002 40.992001 48.984001 51.792 57.576 64.283997 68.208 73.991997"
         y="0"
         sodipodi:role="line"
         id="tspan410">Nyquist Diagram</tspan><tspan
         x="12.578 19.034 25.046 30.83 33.661999 36.206001 43.549999 49.105999 51.914001"
         y="278.258"
         sodipodi:role="line"
         id="tspan412">Real Axis</tspan></text>
<g
       id="g416"
       transform="scale(0.1000061)"><g
         id="g418"
         clip-path="url(#clipPath422)"><g
           id="g424"
           transform="translate(2114.1599,1684.1599)"><path
             d="M 0,0 -54.99,39.17 16.67,56.67 0,0"
             style="fill:#3b4ba7;fill-opacity:1;fill-rule:nonzero;stroke:none"
             id="path426"
             inkscape:connector-curvature="0" /></g></g></g><text
       transform="matrix(0,1,1,0,37.1711,112.663)"
       style="font-variant:normal;font-weight:normal;font-size:12px;font-family:Helvetica;-inkscape-font-specification:Helvetica;writing-mode:lr-tb;fill:#211c1d;fill-opacity:1;fill-rule:nonzero;stroke:none"
       id="text430"><tspan
         x="0 2.868 12.876 18.66 25.368 28.176001 34.835999 40.619999 44.543999 50.195999 52.740002 60.084 65.639999 68.639999"
         y="0"
         sodipodi:role="line"
         id="tspan428">Imaginary Axis</tspan></text>
<g
       id="g432"
       transform="scale(0.1000061)"><g
         id="g434"
         clip-path="url(#clipPath438)"><g
           id="g440"
           transform="translate(2114.1599,1684.1599)"><path
             d="M 0,0 -54.99,39.17 16.67,56.67 0,0"
             style="fill:none;stroke:#3b4ba7;stroke-width:5;stroke-linecap:butt;stroke-linejoin:round;stroke-miterlimit:10;stroke-dasharray:none;stroke-opacity:1"
             id="path442"
             inkscape:connector-curvature="0" /><g
             id="g444"
             transform="translate(-811.19,-255.48)"><path
               d="M 0,0 58.8,-33.21 -10.65,-58.1 0,0"
               style="fill:#3b4ba7;fill-opacity:1;fill-rule:nonzero;stroke:none"
               id="path446"
               inkscape:connector-curvature="0" /><path
               d="M 0,0 58.8,-33.21 -10.65,-58.1 0,0"
               style="fill:none;stroke:#3b4ba7;stroke-width:5;stroke-linecap:butt;stroke-linejoin:round;stroke-miterlimit:10;stroke-dasharray:none;stroke-opacity:1"
               id="path448"
               inkscape:connector-curvature="0" /><g
               id="g450"
               transform="translate(1833.3,222.78)"><path
                 d="M 0,0 65.39,-16.87 4.76,-58.88 0,0"
                 style="fill:#3b4ba7;fill-opacity:1;fill-rule:nonzero;stroke:none"
                 id="path452"
                 inkscape:connector-curvature="0" /><path
                 d="M 0,0 65.39,-16.87 4.76,-58.88 0,0"
                 style="fill:none;stroke:#3b4ba7;stroke-width:5;stroke-linecap:butt;stroke-linejoin:round;stroke-miterlimit:10;stroke-dasharray:none;stroke-opacity:1"
                 id="path454"
                 inkscape:connector-curvature="0" /><g
                 id="g456"
                 transform="translate(347.54,-217.4)"><path
                   d="M 0,0 -66.02,14.21 -7.13,58.65 0,0"
                   style="fill:#3b4ba7;fill-opacity:1;fill-rule:nonzero;stroke:none"
                   id="path458"
                   inkscape:connector-curvature="0" /><path
                   d="M 0,0 -66.02,14.21 -7.13,58.65 0,0"
                   style="fill:none;stroke:#3b4ba7;stroke-width:5;stroke-linecap:butt;stroke-linejoin:round;stroke-miterlimit:10;stroke-dasharray:none;stroke-opacity:1"
                   id="path460"
                   inkscape:connector-curvature="0" /></g></g></g></g></g></g><text
       transform="matrix(1,0,0,-1,154.333,160.48)"
       style="font-variant:normal;font-weight:normal;font-size:12px;font-family:MyriadPro;-inkscape-font-specification:MyriadPro-Regular;writing-mode:lr-tb;fill:#100f0d;fill-opacity:1;fill-rule:nonzero;stroke:none"
       id="text468"><tspan
         x="0 7.8959999 15.048 18.732"
         y="0"
         sodipodi:role="line"
         id="tspan462">N=-2</tspan><tspan
         x="123.838 131.73399 138.886"
         y="29.079"
         sodipodi:role="line"
         id="tspan464">N=0</tspan><tspan
         x="192.52699 200.423 207.575 214.72701"
         y="-19.250999"
         sodipodi:role="line"
         id="tspan466">N=+1</tspan></text>
<g
       id="g470"
       transform="scale(0.1000061)"><g
         id="g472"
         clip-path="url(#clipPath476)"><g
           id="g478"
           transform="translate(2909.9999,1428.68)"><path
             d="M 0,0 291.66,64.03"
             style="fill:#100f0d;fill-opacity:1;fill-rule:nonzero;stroke:none"
             id="path480"
             inkscape:connector-curvature="0" /><path
             d="M 0,0 291.66,64.03"
             style="fill:none;stroke:#100f0d;stroke-width:10;stroke-linecap:butt;stroke-linejoin:miter;stroke-miterlimit:10;stroke-dasharray:none;stroke-opacity:1"
             id="path482"
             inkscape:connector-curvature="0" /><g
             id="g484"
             transform="translate(705.27,338.83)"><path
               d="M 0,0 V -174.93"
               style="fill:none;stroke:#100f0d;stroke-width:10;stroke-linecap:butt;stroke-linejoin:miter;stroke-miterlimit:10;stroke-dasharray:none;stroke-opacity:1"
               id="path486"
               inkscape:connector-curvature="0" /></g></g></g></g></g></svg>