<?xml version="1.0" encoding="UTF-8" standalone="no"?>
<!-- Created with Inkscape (http://www.inkscape.org/) -->

<svg
   xmlns:dc="http://purl.org/dc/elements/1.1/"
   xmlns:cc="http://creativecommons.org/ns#"
   xmlns:rdf="http://www.w3.org/1999/02/22-rdf-syntax-ns#"
   xmlns:svg="http://www.w3.org/2000/svg"
   xmlns="http://www.w3.org/2000/svg"
   xmlns:sodipodi="http://sodipodi.sourceforge.net/DTD/sodipodi-0.dtd"
   xmlns:inkscape="http://www.inkscape.org/namespaces/inkscape"
   version="1.1"
   id="svg2"
   xml:space="preserve"
   width="822.98779"
   height="647.1662"
   viewBox="0 0 822.98779 647.1662"
   sodipodi:docname="n-n-plot2.svg"
   inkscape:version="0.92.0 r15299"><metadata
     id="metadata8"><rdf:RDF><cc:Work
         rdf:about=""><dc:format>image/svg+xml</dc:format><dc:type
           rdf:resource="http://purl.org/dc/dcmitype/StillImage" /><dc:title></dc:title></cc:Work></rdf:RDF></metadata><defs
     id="defs6"><clipPath
       clipPathUnits="userSpaceOnUse"
       id="clipPath18"><path
         d="M 0,5414.17 V 0 h 7348.8 v 5414.17 z"
         id="path16"
         inkscape:connector-curvature="0" /></clipPath><clipPath
       clipPathUnits="userSpaceOnUse"
       id="clipPath40"><path
         d="M 0,5414.17 V 0 h 7348.8 v 5414.17 z"
         id="path38"
         inkscape:connector-curvature="0" /></clipPath><clipPath
       clipPathUnits="userSpaceOnUse"
       id="clipPath56"><path
         d="M 0,5414.17 V 0 h 7348.8 v 5414.17 z"
         id="path54"
         inkscape:connector-curvature="0" /></clipPath><clipPath
       clipPathUnits="userSpaceOnUse"
       id="clipPath72"><path
         d="M 0,5414.17 V 0 h 7348.8 v 5414.17 z"
         id="path70"
         inkscape:connector-curvature="0" /></clipPath><clipPath
       clipPathUnits="userSpaceOnUse"
       id="clipPath92"><path
         d="M 0,5414.17 V 0 h 7348.8 v 5414.17 z"
         id="path90"
         inkscape:connector-curvature="0" /></clipPath><clipPath
       clipPathUnits="userSpaceOnUse"
       id="clipPath118"><path
         d="M 0,5414.17 V 0 h 7348.8 v 5414.17 z"
         id="path116"
         inkscape:connector-curvature="0" /></clipPath><clipPath
       clipPathUnits="userSpaceOnUse"
       id="clipPath134"><path
         d="M 0,5414.17 V 0 h 7348.8 v 5414.17 z"
         id="path132"
         inkscape:connector-curvature="0" /></clipPath><clipPath
       clipPathUnits="userSpaceOnUse"
       id="clipPath150"><path
         d="M 0,5414.17 V 0 h 7348.8 v 5414.17 z"
         id="path148"
         inkscape:connector-curvature="0" /></clipPath><clipPath
       clipPathUnits="userSpaceOnUse"
       id="clipPath166"><path
         d="M 0,5414.17 V 0 h 7348.8 v 5414.17 z"
         id="path164"
         inkscape:connector-curvature="0" /></clipPath><clipPath
       clipPathUnits="userSpaceOnUse"
       id="clipPath182"><path
         d="M 0,5414.17 V 0 h 7348.8 v 5414.17 z"
         id="path180"
         inkscape:connector-curvature="0" /></clipPath><clipPath
       clipPathUnits="userSpaceOnUse"
       id="clipPath198"><path
         d="M 0,5414.17 V 0 h 7348.8 v 5414.17 z"
         id="path196"
         inkscape:connector-curvature="0" /></clipPath><clipPath
       clipPathUnits="userSpaceOnUse"
       id="clipPath214"><path
         d="M 0,5414.17 V 0 h 7348.8 v 5414.17 z"
         id="path212"
         inkscape:connector-curvature="0" /></clipPath><clipPath
       clipPathUnits="userSpaceOnUse"
       id="clipPath226"><path
         d="M 1046.26,595 H 6657.93 V 4858.34 H 1046.26 Z"
         id="path224"
         inkscape:connector-curvature="0" /></clipPath><clipPath
       clipPathUnits="userSpaceOnUse"
       id="clipPath254"><path
         d="M 0,5414.17 V 0 h 7348.8 v 5414.17 z"
         id="path252"
         inkscape:connector-curvature="0" /></clipPath><clipPath
       clipPathUnits="userSpaceOnUse"
       id="clipPath320"><path
         d="M 0,5414.17 V 0 h 7348.8 v 5414.17 z"
         id="path318"
         inkscape:connector-curvature="0" /></clipPath></defs><sodipodi:namedview
     pagecolor="#ffffff"
     bordercolor="#666666"
     borderopacity="1"
     objecttolerance="10"
     gridtolerance="10"
     guidetolerance="10"
     inkscape:pageopacity="0"
     inkscape:pageshadow="2"
     inkscape:window-width="640"
     inkscape:window-height="480"
     id="namedview4"
     showgrid="false"
     fit-margin-top="0"
     fit-margin-left="0"
     fit-margin-right="0"
     fit-margin-bottom="0"
     inkscape:zoom="0.22348485"
     inkscape:cx="264.68188"
     inkscape:cy="491.24839"
     inkscape:window-x="0"
     inkscape:window-y="0"
     inkscape:window-maximized="0"
     inkscape:current-layer="g10" /><g
     id="g10"
     inkscape:groupmode="layer"
     inkscape:label="A9R1s32guj_633544_2wk"
     transform="matrix(1.3333333,0,0,-1.3333333,-65.01304,683.91783)"><g
       id="g12"
       transform="scale(0.1000061)"><g
         id="g14"
         clip-path="url(#clipPath18)"><path
           d="M 1046.26,595.84 H 6657.1 v 4262.5 H 1046.26 Z"
           style="fill:#ffffff;fill-opacity:1;fill-rule:evenodd;stroke:none"
           id="path20"
           inkscape:connector-curvature="0" /><g
           id="g22"
           transform="translate(1046.26,595.84)"><path
             d="M 0,0 V 4262.5 H 5610.84 V 0 H 0"
             style="fill:none;stroke:#ffffff;stroke-width:5;stroke-linecap:butt;stroke-linejoin:round;stroke-miterlimit:10;stroke-dasharray:none;stroke-opacity:1"
             id="path24"
             inkscape:connector-curvature="0" /><g
             id="g26"
             transform="translate(280,4262.5)"><path
               d="M 0,0 V -55.84 M 0,-4262.5 v 56.66 m -280,-56.66 V 0 m 0,-4262.5 h 5610.84 m -5610.84,0 V 0 M 5330.84,-4262.5 V 0 M -280,-4262.5 H 5330.84 M -280,0 h 5610.84"
               style="fill:none;stroke:#7b7979;stroke-width:5;stroke-linecap:butt;stroke-linejoin:round;stroke-miterlimit:10;stroke-dasharray:none;stroke-opacity:1"
               id="path28"
               inkscape:connector-curvature="0" /></g></g></g></g><text
       transform="matrix(1,0,0,-1,115.625,45.582)"
       style="font-variant:normal;font-weight:normal;font-size:12px;font-family:Helvetica;-inkscape-font-specification:Helvetica;writing-mode:lr-tb;fill:#7a7d82;fill-opacity:1;fill-rule:nonzero;stroke:none"
       id="text32"><tspan
         x="0 7.152 13.308 19.464001"
         y="0"
         sodipodi:role="line"
         id="tspan30">−270</tspan></text>
<g
       id="g34"
       transform="scale(0.1000061)"><g
         id="g36"
         clip-path="url(#clipPath40)"><g
           id="g42"
           transform="translate(2588.7599,4858.3398)"><path
             d="M 0,0 V -55.84 M 0,-4262.5 v 56.66"
             style="fill:none;stroke:#7b7979;stroke-width:5;stroke-linecap:butt;stroke-linejoin:round;stroke-miterlimit:10;stroke-dasharray:none;stroke-opacity:1"
             id="path44"
             inkscape:connector-curvature="0" /></g></g></g><text
       transform="matrix(1,0,0,-1,241.881,45.582)"
       style="font-variant:normal;font-weight:normal;font-size:12px;font-family:Helvetica;-inkscape-font-specification:Helvetica;writing-mode:lr-tb;fill:#7a7d82;fill-opacity:1;fill-rule:nonzero;stroke:none"
       id="text48"><tspan
         x="0 7.152 13.308 19.464001"
         y="0"
         sodipodi:role="line"
         id="tspan46">−225</tspan></text>
<g
       id="g50"
       transform="scale(0.1000061)"><g
         id="g52"
         clip-path="url(#clipPath56)"><g
           id="g58"
           transform="translate(3851.2699,4858.3398)"><path
             d="M 0,0 V -55.84 M 0,-4262.5 v 56.66"
             style="fill:none;stroke:#7b7979;stroke-width:5;stroke-linecap:butt;stroke-linejoin:round;stroke-miterlimit:10;stroke-dasharray:none;stroke-opacity:1"
             id="path60"
             inkscape:connector-curvature="0" /></g></g></g><text
       transform="matrix(1,0,0,-1,368.131,45.582)"
       style="font-variant:normal;font-weight:normal;font-size:12px;font-family:Helvetica;-inkscape-font-specification:Helvetica;writing-mode:lr-tb;fill:#7a7d82;fill-opacity:1;fill-rule:nonzero;stroke:none"
       id="text64"><tspan
         x="0 7.152 13.308 19.464001"
         y="0"
         sodipodi:role="line"
         id="tspan62">−180</tspan></text>
<g
       id="g66"
       transform="scale(0.1000061)"><g
         id="g68"
         clip-path="url(#clipPath72)"><g
           id="g74"
           transform="translate(5113.7698,4858.3398)"><path
             d="M 0,0 V -55.84 M 0,-4262.5 v 56.66"
             style="fill:none;stroke:#7b7979;stroke-width:5;stroke-linecap:butt;stroke-linejoin:round;stroke-miterlimit:10;stroke-dasharray:none;stroke-opacity:1"
             id="path76"
             inkscape:connector-curvature="0" /></g></g></g><text
       transform="matrix(1,0,0,-1,494.375,45.582)"
       style="font-variant:normal;font-weight:normal;font-size:12px;font-family:Helvetica;-inkscape-font-specification:Helvetica;writing-mode:lr-tb;fill:#7a7d82;fill-opacity:1;fill-rule:nonzero;stroke:none"
       id="text80"><tspan
         x="0"
         y="0"
         id="tspan78">−</tspan></text>
<text
       transform="matrix(1,0,0,-1,501.527,45.582)"
       style="font-variant:normal;font-weight:normal;font-size:12px;font-family:Helvetica;-inkscape-font-specification:Helvetica;writing-mode:lr-tb;fill:#7a7d82;fill-opacity:1;fill-rule:nonzero;stroke:none"
       id="text84"><tspan
         x="0 6.1560001 12.312"
         y="0"
         sodipodi:role="line"
         id="tspan82">135</tspan></text>
<g
       id="g86"
       transform="scale(0.1000061)"><g
         id="g88"
         clip-path="url(#clipPath92)"><g
           id="g94"
           transform="translate(6376.2698,4858.3398)"><path
             d="M 0,0 V -55.84 M 0,-4262.5 v 56.66"
             style="fill:none;stroke:#7b7979;stroke-width:5;stroke-linecap:butt;stroke-linejoin:round;stroke-miterlimit:10;stroke-dasharray:none;stroke-opacity:1"
             id="path96"
             inkscape:connector-curvature="0" /><g
             id="g98"
             transform="translate(280.83,-4262.5)"><path
               d="M 0,0 H -56.67 M -5610.84,0 H -5555"
               style="fill:none;stroke:#7b7979;stroke-width:5;stroke-linecap:butt;stroke-linejoin:round;stroke-miterlimit:10;stroke-dasharray:none;stroke-opacity:1"
               id="path100"
               inkscape:connector-curvature="0" /></g></g></g></g><text
       transform="matrix(1,0,0,-1,623.959,45.582)"
       style="font-variant:normal;font-weight:normal;font-size:12px;font-family:Helvetica;-inkscape-font-specification:Helvetica;writing-mode:lr-tb;fill:#7a7d82;fill-opacity:1;fill-rule:nonzero;stroke:none"
       id="text104"><tspan
         x="0"
         y="0"
         id="tspan102">−</tspan></text>
<text
       transform="matrix(1,0,0,-1,631.111,45.582)"
       style="font-variant:normal;font-weight:normal;font-size:12px;font-family:Helvetica;-inkscape-font-specification:Helvetica;writing-mode:lr-tb;fill:#7a7d82;fill-opacity:1;fill-rule:nonzero;stroke:none"
       id="text110"><tspan
         x="0 6.1560001"
         y="0"
         sodipodi:role="line"
         id="tspan106">90</tspan><tspan
         x="-556.40802 -549.25598 -543.09998 -536.94397"
         y="-9.5860004"
         sodipodi:role="line"
         id="tspan108">−100</tspan></text>
<g
       id="g112"
       transform="scale(0.1000061)"><g
         id="g114"
         clip-path="url(#clipPath118)"><g
           id="g120"
           transform="translate(6657.0998,1251.67)"><path
             d="M 0,0 H -56.67 M -5610.84,0 H -5555"
             style="fill:none;stroke:#7b7979;stroke-width:5;stroke-linecap:butt;stroke-linejoin:round;stroke-miterlimit:10;stroke-dasharray:none;stroke-opacity:1"
             id="path122"
             inkscape:connector-curvature="0" /></g></g></g><text
       transform="matrix(1,0,0,-1,81.381,120.746)"
       style="font-variant:normal;font-weight:normal;font-size:12px;font-family:Helvetica;-inkscape-font-specification:Helvetica;writing-mode:lr-tb;fill:#7a7d82;fill-opacity:1;fill-rule:nonzero;stroke:none"
       id="text126"><tspan
         x="0 7.152 13.308"
         y="0"
         sodipodi:role="line"
         id="tspan124">−80</tspan></text>
<g
       id="g128"
       transform="scale(0.1000061)"><g
         id="g130"
         clip-path="url(#clipPath134)"><g
           id="g136"
           transform="translate(6657.0998,1907.4999)"><path
             d="M 0,0 H -56.67 M -5610.84,0 H -5555"
             style="fill:none;stroke:#7b7979;stroke-width:5;stroke-linecap:butt;stroke-linejoin:round;stroke-miterlimit:10;stroke-dasharray:none;stroke-opacity:1"
             id="path138"
             inkscape:connector-curvature="0" /></g></g></g><text
       transform="matrix(1,0,0,-1,81.381,186.332)"
       style="font-variant:normal;font-weight:normal;font-size:12px;font-family:Helvetica;-inkscape-font-specification:Helvetica;writing-mode:lr-tb;fill:#7a7d82;fill-opacity:1;fill-rule:nonzero;stroke:none"
       id="text142"><tspan
         x="0 7.152 13.308"
         y="0"
         sodipodi:role="line"
         id="tspan140">−60</tspan></text>
<g
       id="g144"
       transform="scale(0.1000061)"><g
         id="g146"
         clip-path="url(#clipPath150)"><g
           id="g152"
           transform="translate(6657.0998,2563.3399)"><path
             d="M 0,0 H -56.67 M -5610.84,0 H -5555"
             style="fill:none;stroke:#7b7979;stroke-width:5;stroke-linecap:butt;stroke-linejoin:round;stroke-miterlimit:10;stroke-dasharray:none;stroke-opacity:1"
             id="path154"
             inkscape:connector-curvature="0" /></g></g></g><text
       transform="matrix(1,0,0,-1,81.381,251.918)"
       style="font-variant:normal;font-weight:normal;font-size:12px;font-family:Helvetica;-inkscape-font-specification:Helvetica;writing-mode:lr-tb;fill:#7a7d82;fill-opacity:1;fill-rule:nonzero;stroke:none"
       id="text158"><tspan
         x="0 7.152 13.308"
         y="0"
         sodipodi:role="line"
         id="tspan156">−40</tspan></text>
<g
       id="g160"
       transform="scale(0.1000061)"><g
         id="g162"
         clip-path="url(#clipPath166)"><g
           id="g168"
           transform="translate(6657.0998,3219.1699)"><path
             d="M 0,0 H -56.67 M -5610.84,0 H -5555"
             style="fill:none;stroke:#7b7979;stroke-width:5;stroke-linecap:butt;stroke-linejoin:round;stroke-miterlimit:10;stroke-dasharray:none;stroke-opacity:1"
             id="path170"
             inkscape:connector-curvature="0" /></g></g></g><text
       transform="matrix(1,0,0,-1,81.381,317.504)"
       style="font-variant:normal;font-weight:normal;font-size:12px;font-family:Helvetica;-inkscape-font-specification:Helvetica;writing-mode:lr-tb;fill:#7a7d82;fill-opacity:1;fill-rule:nonzero;stroke:none"
       id="text174"><tspan
         x="0 7.152 13.308"
         y="0"
         sodipodi:role="line"
         id="tspan172">−20</tspan></text>
<g
       id="g176"
       transform="scale(0.1000061)"><g
         id="g178"
         clip-path="url(#clipPath182)"><g
           id="g184"
           transform="translate(6657.0998,3874.9999)"><path
             d="M 0,0 H -56.67 M -5610.84,0 H -5555"
             style="fill:none;stroke:#7b7979;stroke-width:5;stroke-linecap:butt;stroke-linejoin:round;stroke-miterlimit:10;stroke-dasharray:none;stroke-opacity:1"
             id="path186"
             inkscape:connector-curvature="0" /></g></g></g><text
       transform="matrix(1,0,0,-1,95.045,383.082)"
       style="font-variant:normal;font-weight:normal;font-size:12px;font-family:Helvetica;-inkscape-font-specification:Helvetica;writing-mode:lr-tb;fill:#7a7d82;fill-opacity:1;fill-rule:nonzero;stroke:none"
       id="text190"><tspan
         x="0"
         y="0"
         id="tspan188">0</tspan></text>
<g
       id="g192"
       transform="scale(0.1000061)"><g
         id="g194"
         clip-path="url(#clipPath198)"><g
           id="g200"
           transform="translate(6657.0998,4530.8398)"><path
             d="M 0,0 H -56.67 M -5610.84,0 H -5555"
             style="fill:none;stroke:#7b7979;stroke-width:5;stroke-linecap:butt;stroke-linejoin:round;stroke-miterlimit:10;stroke-dasharray:none;stroke-opacity:1"
             id="path202"
             inkscape:connector-curvature="0" /></g></g></g><text
       transform="matrix(1,0,0,-1,88.381,448.668)"
       style="font-variant:normal;font-weight:normal;font-size:12px;font-family:Helvetica;-inkscape-font-specification:Helvetica;writing-mode:lr-tb;fill:#7a7d82;fill-opacity:1;fill-rule:nonzero;stroke:none"
       id="text206"><tspan
         x="0 6.1560001"
         y="0"
         sodipodi:role="line"
         id="tspan204">20</tspan></text>
<g
       id="g208"
       transform="scale(0.1000061)"><g
         id="g210"
         clip-path="url(#clipPath214)"><g
           id="g216"
           transform="translate(1046.26,595.83998)"><path
             d="M 0,0 V 4262.5 M 5610.84,0 V 4262.5 M 0,0 H 5610.84 M 0,4262.5 h 5610.84"
             style="fill:none;stroke:#7b7979;stroke-width:5;stroke-linecap:butt;stroke-linejoin:round;stroke-miterlimit:10;stroke-dasharray:none;stroke-opacity:1"
             id="path218"
             inkscape:connector-curvature="0" /></g></g></g><g
       id="g220"
       transform="scale(0.1000061)"><g
         id="g222"
         clip-path="url(#clipPath226)"><g
           id="g228"
           transform="translate(1046.26,3875)"><path
             d="M 0,0 H 5611.67"
             style="fill:none;stroke:#7b7979;stroke-width:30;stroke-linecap:butt;stroke-linejoin:round;stroke-miterlimit:10;stroke-dasharray:5, 40;stroke-dashoffset:0;stroke-opacity:1"
             id="path230"
             inkscape:connector-curvature="0" /><g
             id="g232"
             transform="translate(2805.01,115.84)"><path
               d="m 0,0 h -96.67 l -19.17,0.83 h -21.66 l -26.67,0.83 -31.67,0.84 -37.5,0.83 -43.33,1.67 -52.5,2.5 -60,3.33 -70,4.17 -80,6.66 -89.17,8.34 -99.17,10.83 -105.83,14.17 -109.17,18.33 -108.33,22.5 -101.67,26.67 -90.83,30.83 -73.33,34.17 -52.5,36.66 -28.34,39.17 -4.16,22.5 2.5,17.5 25,40 54.16,39.17 81.67,36.66 108.33,34.17 132.5,29.17 153.34,24.16 166.67,16.67 174.16,10 L -330,535 -167.5,528.33 -24.17,512.5 90,488.33 169.16,455 l 36.67,-40.84 2.5,-14.16 -10.83,-34.17 -55,-57.5 -100,-65.83 -140,-75 -173.34,-84.17 -197.5,-94.17 -210,-103.33 -212.5,-113.33 -206.67,-120.84 -193.33,-129.16 -175.83,-134.17 -156.67,-138.33 -136.66,-142.5 -119.17,-145 -101.67,-147.5 -85.83,-148.34 -73.34,-149.16 -61.66,-150 -52.5,-150 -44.17,-150.84 -36.67,-151.66 -30.83,-150.84 -25.83,-151.66 -21.67,-151.67 -18.33,-151.67 -15,-150.83 -12.5,-151.67 -10.84,-151.66 -5.83,-250.84"
               style="fill:none;stroke:#3b4ba7;stroke-width:30;stroke-linecap:butt;stroke-linejoin:round;stroke-miterlimit:10;stroke-dasharray:none;stroke-opacity:1"
               id="path234"
               inkscape:connector-curvature="0" /></g></g></g></g><text
       transform="matrix(1,0,0,-1,338.875,502.746)"
       style="font-variant:normal;font-weight:normal;font-size:14px;font-family:Helvetica;-inkscape-font-specification:Helvetica;writing-mode:lr-tb;fill:#211c1d;fill-opacity:1;fill-rule:nonzero;stroke:none"
       id="text238"><tspan
         x="0 9.2119999 12.488 18.76 26.530001 34.216 37.52 43.063999 46.032001 54.152 61.922001 68.669998 73.248001"
         y="0"
         sodipodi:role="line"
         id="tspan236">Nichols Chart</tspan></text>
<text
       transform="matrix(0,1,1,0,58.959,210.588)"
       style="font-variant:normal;font-weight:normal;font-size:14px;font-family:Helvetica;-inkscape-font-specification:Helvetica;writing-mode:lr-tb;fill:#211c1d;fill-opacity:1;fill-rule:nonzero;stroke:none"
       id="text242"><tspan
         x="0 9.6459999 17.612 24.625999 32.396 40.740002 47.348 55.034 62.720001 70.685997 73.653999 82.697998 89.445999 92.722 100.492 103.46 107.436 115.332 122.92"
         y="0"
         sodipodi:role="line"
         id="tspan240">Open−Loop Gain (dB)</tspan></text>
<text
       transform="matrix(1,0,0,-1,304.289,30.51)"
       style="font-variant:normal;font-weight:normal;font-size:14px;font-family:Helvetica;-inkscape-font-specification:Helvetica;writing-mode:lr-tb;fill:#211c1d;fill-opacity:1;fill-rule:nonzero;stroke:none"
       id="text246"><tspan
         x="0 9.6459999 17.612 24.625999 32.396 40.740002 47.348 55.034 62.720001 70.685997 73.653999 81.101997 88.872002 95.620003 101.164 108.178 111.146 115.122 123.018 130.032 137.87199"
         y="0"
         sodipodi:role="line"
         id="tspan244">Open−Loop Phase (deg)</tspan></text>
<g
       id="g248"
       transform="scale(0.1000061)"><g
         id="g250"
         clip-path="url(#clipPath254)"><g
           id="g256"
           transform="translate(3853.7699,3990.8399)"><path
             d="m 0,0 h 96.67 l 19.17,0.83 h 21.66 l 26.67,0.83 31.67,0.84 37.5,0.83 43.33,1.67 52.5,2.5 60,3.33 70,4.17 80,6.66 L 628.34,30 727.5,40.83 833.34,55 942.5,73.33 l 108.34,22.5 101.66,26.67 90.83,30.83 73.34,34.17 52.5,36.66 28.33,39.17 4.17,22.5 -2.5,17.5 -25,40 L 1320,382.5 1238.33,419.16 1130,453.33 997.5,482.5 844.17,506.66 677.5,523.33 503.34,533.33 330,535 167.5,528.33 24.17,512.5 -90,488.33 -169.16,455 l -36.67,-40.84 -2.5,-14.16 10.83,-34.17 55,-57.5 100,-65.83 140,-75 173.34,-84.17 197.5,-94.17 210,-103.33 212.5,-113.33 206.66,-120.84 193.33,-129.16 175.84,-134.17 156.66,-138.33 136.67,-142.5 119.17,-145 101.66,-147.5 85.84,-148.34 73.33,-149.16 61.67,-150 52.5,-150 44.16,-150.84 36.67,-151.66 30.83,-150.84 25.84,-151.66 21.66,-151.67 18.34,-151.67 15,-150.83 12.5,-151.67 10.83,-151.66 5.83,-250.84"
             style="fill:none;stroke:#3b4ba7;stroke-width:30;stroke-linecap:butt;stroke-linejoin:round;stroke-miterlimit:10;stroke-dasharray:none;stroke-opacity:1"
             id="path258"
             inkscape:connector-curvature="0" /><g
             id="g260"
             transform="translate(-2040.48,-1283.75)"><path
               d="M 0,0 26.71,130.41"
               style="fill:none;stroke:#3b4ba7;stroke-width:30;stroke-linecap:butt;stroke-linejoin:round;stroke-miterlimit:10;stroke-dasharray:none;stroke-opacity:1"
               id="path262"
               inkscape:connector-curvature="0" /><path
               d="M 0,0 86.71,65.2"
               style="fill:none;stroke:#3b4ba7;stroke-width:30;stroke-linecap:butt;stroke-linejoin:round;stroke-miterlimit:10;stroke-dasharray:none;stroke-opacity:1"
               id="path264"
               inkscape:connector-curvature="0" /><g
               id="g266"
               transform="translate(3507.15,672.08)"><path
                 d="M 0,0 59.56,-121.67"
                 style="fill:none;stroke:#3b4ba7;stroke-width:30;stroke-linecap:butt;stroke-linejoin:round;stroke-miterlimit:10;stroke-dasharray:none;stroke-opacity:1"
                 id="path268"
                 inkscape:connector-curvature="0" /><path
                 d="M 0,0 106.23,-28.33"
                 style="fill:none;stroke:#3b4ba7;stroke-width:30;stroke-linecap:butt;stroke-linejoin:round;stroke-miterlimit:10;stroke-dasharray:none;stroke-opacity:1"
                 id="path270"
                 inkscape:connector-curvature="0" /><g
                 id="g272"
                 transform="translate(-2463.49,695.76)"><path
                   d="M 0,0 96.38,-50.76"
                   style="fill:none;stroke:#3b4ba7;stroke-width:30;stroke-linecap:butt;stroke-linejoin:round;stroke-miterlimit:10;stroke-dasharray:none;stroke-opacity:1"
                   id="path274"
                   inkscape:connector-curvature="0" /><path
                   d="M 0,0 H 96.38"
                   style="fill:none;stroke:#3b4ba7;stroke-width:30;stroke-linecap:butt;stroke-linejoin:round;stroke-miterlimit:10;stroke-dasharray:none;stroke-opacity:1"
                   id="path276"
                   inkscape:connector-curvature="0" /><g
                   id="g278"
                   transform="translate(1655.65,-50.76)"><path
                     d="M 0,0 140.74,50.76"
                     style="fill:none;stroke:#3b4ba7;stroke-width:30;stroke-linecap:butt;stroke-linejoin:round;stroke-miterlimit:10;stroke-dasharray:none;stroke-opacity:1"
                     id="path280"
                     inkscape:connector-curvature="0" /><g
                     id="g282"
                     transform="translate(-30.49,-3.33)"><path
                       d="M 0,0 171.23,3.33"
                       style="fill:none;stroke:#3b4ba7;stroke-width:30;stroke-linecap:butt;stroke-linejoin:round;stroke-miterlimit:10;stroke-dasharray:none;stroke-opacity:1"
                       id="path284"
                       inkscape:connector-curvature="0" /><g
                       id="g286"
                       transform="translate(-1248.78,496.75)"><path
                         d="M 0,0 -153.33,13.25"
                         style="fill:none;stroke:#3b4ba7;stroke-width:30;stroke-linecap:butt;stroke-linejoin:round;stroke-miterlimit:10;stroke-dasharray:none;stroke-opacity:1"
                         id="path288"
                         inkscape:connector-curvature="0" /><path
                         d="M 0,0 -153.33,-30.91"
                         style="fill:none;stroke:#3b4ba7;stroke-width:30;stroke-linecap:butt;stroke-linejoin:round;stroke-miterlimit:10;stroke-dasharray:none;stroke-opacity:1"
                         id="path290"
                         inkscape:connector-curvature="0" /><g
                         id="g292"
                         transform="translate(1279.27,36.58)"><path
                           d="M 0,0 140.74,-46.58"
                           style="fill:none;stroke:#3b4ba7;stroke-width:30;stroke-linecap:butt;stroke-linejoin:round;stroke-miterlimit:10;stroke-dasharray:none;stroke-opacity:1"
                           id="path294"
                           inkscape:connector-curvature="0" /><g
                           id="g296"
                           transform="translate(0,-87.49)"><path
                             d="M 0,0 140.74,50.91"
                             style="fill:none;stroke:#3b4ba7;stroke-width:30;stroke-linecap:butt;stroke-linejoin:round;stroke-miterlimit:10;stroke-dasharray:none;stroke-opacity:1"
                             id="path298"
                             inkscape:connector-curvature="0" /></g></g></g></g></g></g></g></g></g></g></g><text
       transform="matrix(1,0,0,-1,408.047,263.637)"
       style="font-variant:normal;font-weight:normal;font-size:18px;font-family:MyriadPro;-inkscape-font-specification:MyriadPro-Regular;writing-mode:lr-tb;fill:#100f0d;fill-opacity:1;fill-rule:nonzero;stroke:none"
       id="text312"><tspan
         x="0 11.844 22.572001 33.299999"
         y="0"
         sodipodi:role="line"
         id="tspan300">N=+1</tspan><tspan
         x="-118.964 -107.12 -96.391998"
         y="-163"
         sodipodi:role="line"
         id="tspan302">N=0</tspan><tspan
         x="65.580002 77.424004 88.152 93.678001"
         y="-199.58501"
         sodipodi:role="line"
         id="tspan304">N=-2</tspan><tspan
         x="-35.542 -26.308001 -17.073999 -13.258 -3.1059999"
         y="-201"
         sodipodi:role="line"
         id="tspan306">19 dB</tspan><tspan
         x="0 9.2340002 12.96 22.194 31.427999 35.243999 45.396"
         y="-155.334"
         sodipodi:role="line"
         id="tspan308">6.27 dB</tspan><tspan
         x="-22.797001 -13.563 -9.8369999 -0.60299999 8.6309996 12.447 22.599001"
         y="-111.042"
         sodipodi:role="line"
         id="tspan310">3.52 dB</tspan></text>
<g
       id="g314"
       transform="scale(0.1000061)"><g
         id="g316"
         clip-path="url(#clipPath320)"><g
           id="g322"
           transform="translate(3273.3299,4317.4999)"><path
             d="M 0,0 500.01,-242.57"
             style="fill:none;stroke:#100f0d;stroke-width:10;stroke-linecap:butt;stroke-linejoin:miter;stroke-miterlimit:10;stroke-dasharray:none;stroke-opacity:1"
             id="path324"
             inkscape:connector-curvature="0" /><g
             id="g326"
             transform="translate(1413.8,333.34)"><path
               d="M 0,0 -753.79,-256.67"
               style="fill:none;stroke:#100f0d;stroke-width:10;stroke-linecap:butt;stroke-linejoin:miter;stroke-miterlimit:10;stroke-dasharray:none;stroke-opacity:1"
               id="path328"
               inkscape:connector-curvature="0" /><g
               id="g330"
               transform="translate(-814.63,-443.29)"><path
                 d="M 0,0 C 0,-12.42 -10.08,-22.5 -22.5,-22.5 -34.92,-22.5 -45,-12.42 -45,0 -45,12.43 -34.92,22.5 -22.5,22.5 -10.08,22.5 0,12.43 0,0"
                 style="fill:#100f0d;fill-opacity:1;fill-rule:nonzero;stroke:none"
                 id="path332"
                 inkscape:connector-curvature="0" /><g
                 id="g334"
                 transform="translate(0,290)"><path
                   d="M 0,0 C 0,-12.42 -10.08,-22.5 -22.5,-22.5 -34.92,-22.5 -45,-12.42 -45,0 -45,12.43 -34.92,22.5 -22.5,22.5 -10.08,22.5 0,12.43 0,0"
                   style="fill:#100f0d;fill-opacity:1;fill-rule:nonzero;stroke:none"
                   id="path336"
                   inkscape:connector-curvature="0" /><g
                   id="g338"
                   transform="translate(10,-510)"><path
                     d="M 0,0 C 0,-12.42 -10.08,-22.5 -22.5,-22.5 -34.92,-22.5 -45,-12.42 -45,0 -45,12.43 -34.92,22.5 -22.5,22.5 -10.08,22.5 0,12.43 0,0"
                     style="fill:#100f0d;fill-opacity:1;fill-rule:nonzero;stroke:none"
                     id="path340"
                     inkscape:connector-curvature="0" /></g></g></g></g></g></g></g></g></svg>