<?xml version="1.0" encoding="UTF-8" standalone="no"?>
<!-- Created with Inkscape (http://www.inkscape.org/) -->

<svg
   xmlns:dc="http://purl.org/dc/elements/1.1/"
   xmlns:cc="http://creativecommons.org/ns#"
   xmlns:rdf="http://www.w3.org/1999/02/22-rdf-syntax-ns#"
   xmlns:svg="http://www.w3.org/2000/svg"
   xmlns="http://www.w3.org/2000/svg"
   xmlns:sodipodi="http://sodipodi.sourceforge.net/DTD/sodipodi-0.dtd"
   xmlns:inkscape="http://www.inkscape.org/namespaces/inkscape"
   version="1.1"
   id="svg2"
   xml:space="preserve"
   width="485.81146"
   height="571.51965"
   viewBox="0 0 485.81146 571.51965"
   sodipodi:docname="nichols-chart3.svg"
   inkscape:version="0.92.0 r15299"><metadata
     id="metadata8"><rdf:RDF><cc:Work
         rdf:about=""><dc:format>image/svg+xml</dc:format><dc:type
           rdf:resource="http://purl.org/dc/dcmitype/StillImage" /><dc:title></dc:title></cc:Work></rdf:RDF></metadata><defs
     id="defs6"><clipPath
       clipPathUnits="userSpaceOnUse"
       id="clipPath30"><path
         d="M 0,4717.5 V 0 h 4020 v 4717.5 z"
         id="path28"
         inkscape:connector-curvature="0" /></clipPath><clipPath
       clipPathUnits="userSpaceOnUse"
       id="clipPath86"><path
         d="M 0,4717.5 V 0 h 4020 v 4717.5 z"
         id="path84"
         inkscape:connector-curvature="0" /></clipPath><clipPath
       clipPathUnits="userSpaceOnUse"
       id="clipPath116"><path
         d="M 0,4717.5 V 0 h 4020 v 4717.5 z"
         id="path114"
         inkscape:connector-curvature="0" /></clipPath><clipPath
       clipPathUnits="userSpaceOnUse"
       id="clipPath138"><path
         d="M 0,4717.5 V 0 h 4020 v 4717.5 z"
         id="path136"
         inkscape:connector-curvature="0" /></clipPath><clipPath
       clipPathUnits="userSpaceOnUse"
       id="clipPath154"><path
         d="M 0,4717.5 V 0 h 4020 v 4717.5 z"
         id="path152"
         inkscape:connector-curvature="0" /></clipPath><clipPath
       clipPathUnits="userSpaceOnUse"
       id="clipPath170"><path
         d="M 0,4717.5 V 0 h 4020 v 4717.5 z"
         id="path168"
         inkscape:connector-curvature="0" /></clipPath><clipPath
       clipPathUnits="userSpaceOnUse"
       id="clipPath182"><path
         d="M 612.5,518.332 H 3639.17 V 4213.34 H 612.5 Z"
         id="path180"
         inkscape:connector-curvature="0" /></clipPath><clipPath
       clipPathUnits="userSpaceOnUse"
       id="clipPath194"><path
         d="M 520.836,2890 H 3731.67 v 184.17 H 520.836 Z"
         id="path192"
         inkscape:connector-curvature="0" /></clipPath><clipPath
       clipPathUnits="userSpaceOnUse"
       id="clipPath206"><path
         d="M 612.5,518.332 H 3639.17 V 4213.34 H 612.5 Z"
         id="path204"
         inkscape:connector-curvature="0" /></clipPath><clipPath
       clipPathUnits="userSpaceOnUse"
       id="clipPath218"><path
         d="M 0,4717.5 V 0 h 4020 v 4717.5 z"
         id="path216"
         inkscape:connector-curvature="0" /></clipPath><clipPath
       clipPathUnits="userSpaceOnUse"
       id="clipPath280"><path
         d="M 0,4717.5 V 0 h 4020 v 4717.5 z"
         id="path278"
         inkscape:connector-curvature="0" /></clipPath></defs><sodipodi:namedview
     pagecolor="#ffffff"
     bordercolor="#666666"
     borderopacity="1"
     objecttolerance="10"
     gridtolerance="10"
     guidetolerance="10"
     inkscape:pageopacity="0"
     inkscape:pageshadow="2"
     inkscape:window-width="640"
     inkscape:window-height="480"
     id="namedview4"
     showgrid="false"
     fit-margin-top="0"
     fit-margin-left="0"
     fit-margin-right="0"
     fit-margin-bottom="0"
     inkscape:zoom="0.22348485"
     inkscape:cx="326.01943"
     inkscape:cy="501.48052"
     inkscape:window-x="0"
     inkscape:window-y="0"
     inkscape:window-maximized="0"
     inkscape:current-layer="g10" /><g
     id="g10"
     inkscape:groupmode="layer"
     inkscape:label="A9Rhtn3vm_633548_2wk"
     transform="matrix(1.3333333,0,0,-1.3333333,-3.6754832,598.03916)"><text
       transform="matrix(1,0,0,-1,166.165,438.337)"
       style="font-variant:normal;font-weight:normal;font-size:14px;font-family:Helvetica;-inkscape-font-specification:Helvetica;writing-mode:lr-tb;fill:#211c1d;fill-opacity:1;fill-rule:nonzero;stroke:none"
       id="text14"><tspan
         x="0 9.2119999 12.488 18.76 26.530001 34.216 37.52 43.063999 46.032001 54.152 61.922001 68.669998 73.248001"
         y="0"
         sodipodi:role="line"
         id="tspan12">Nichols Chart</tspan></text>
<text
       transform="matrix(1,0,0,-1,142.585,22.415)"
       style="font-variant:normal;font-weight:normal;font-size:12px;font-family:Helvetica;-inkscape-font-specification:Helvetica;writing-mode:lr-tb;fill:#211c1d;fill-opacity:1;fill-rule:nonzero;stroke:none"
       id="text18"><tspan
         x="0 8.2679996 15.096 21.108 27.768 34.919998 40.584 47.172001 53.759998 60.588001 63.132 69.515999 76.176003 81.959999 86.711998 92.723999 95.267998 98.676003 105.444 111.456 118.164"
         y="0"
         sodipodi:role="line"
         id="tspan16">Open−Loop Phase (deg)</tspan></text>
<text
       transform="matrix(0,1,1,0,11.4988,184.337)"
       style="font-variant:normal;font-weight:normal;font-size:12px;font-family:Helvetica;-inkscape-font-specification:Helvetica;writing-mode:lr-tb;fill:#211c1d;fill-opacity:1;fill-rule:nonzero;stroke:none"
       id="text22"><tspan
         x="0 8.2679996 15.096 21.108 27.768 34.919998 40.584 47.172001 53.759998 60.588001 63.132 70.884003 76.667999 79.475998 86.136002 88.68 92.087997 98.856003 105.36"
         y="0"
         sodipodi:role="line"
         id="tspan20">Open−Loop Gain (dB)</tspan></text>
<g
       id="g24"
       transform="scale(0.1000061)"><g
         id="g26"
         clip-path="url(#clipPath30)"><g
           id="g32"><path
             d="m 612.5,519.172 h 3025.83 v 3694.16 H 612.5 Z"
             style="fill:#ffffff;fill-opacity:1;fill-rule:evenodd;stroke:none"
             id="path34"
             inkscape:connector-curvature="0" /><g
             id="g36"
             transform="translate(612.5,519.172)"><path
               d="M 0,0 V 3694.168 H 3025.83 V 0 H 0"
               style="fill:none;stroke:#ffffff;stroke-width:5;stroke-linecap:butt;stroke-linejoin:round;stroke-miterlimit:10;stroke-dasharray:none;stroke-opacity:1"
               id="path38"
               inkscape:connector-curvature="0" /><g
               id="g40"
               transform="translate(0,3694.168)"><path
                 d="m 0,0 v -36.68 m 0,-3657.488 v 37.5 m 0,-37.5 V 0 m 0,-3694.168 h 3025.83 m -3025.83,0 V 0 M 3025.83,-3694.168 V 0 M 0,-3694.168 H 3025.83 M 0,0 h 3025.83"
                 style="fill:none;stroke:#7b7979;stroke-width:5;stroke-linecap:butt;stroke-linejoin:round;stroke-miterlimit:10;stroke-dasharray:none;stroke-opacity:1"
                 id="path42"
                 inkscape:connector-curvature="0" /><g
                 id="g44"
                 transform="translate(377.5)"><path
                   d="m 0,0 v -36.68 m 0,-3657.488 v 37.5"
                   style="fill:none;stroke:#7b7979;stroke-width:5;stroke-linecap:butt;stroke-linejoin:round;stroke-miterlimit:10;stroke-dasharray:none;stroke-opacity:1"
                   id="path46"
                   inkscape:connector-curvature="0" /><g
                   id="g48"
                   transform="translate(378.33)"><path
                     d="m 0,0 v -36.68 m 0,-3657.488 v 37.5"
                     style="fill:none;stroke:#7b7979;stroke-width:5;stroke-linecap:butt;stroke-linejoin:round;stroke-miterlimit:10;stroke-dasharray:none;stroke-opacity:1"
                     id="path50"
                     inkscape:connector-curvature="0" /><g
                     id="g52"
                     transform="translate(378.34)"><path
                       d="m 0,0 v -36.68 m 0,-3657.488 v 37.5"
                       style="fill:none;stroke:#7b7979;stroke-width:5;stroke-linecap:butt;stroke-linejoin:round;stroke-miterlimit:10;stroke-dasharray:none;stroke-opacity:1"
                       id="path54"
                       inkscape:connector-curvature="0" /><g
                       id="g56"
                       transform="translate(378.33)"><path
                         d="m 0,0 v -36.68 m 0,-3657.488 v 37.5"
                         style="fill:none;stroke:#7b7979;stroke-width:5;stroke-linecap:butt;stroke-linejoin:round;stroke-miterlimit:10;stroke-dasharray:none;stroke-opacity:1"
                         id="path58"
                         inkscape:connector-curvature="0" /><g
                         id="g60"
                         transform="translate(378.33)"><path
                           d="m 0,0 v -36.68 m 0,-3657.488 v 37.5"
                           style="fill:none;stroke:#7b7979;stroke-width:5;stroke-linecap:butt;stroke-linejoin:round;stroke-miterlimit:10;stroke-dasharray:none;stroke-opacity:1"
                           id="path62"
                           inkscape:connector-curvature="0" /><g
                           id="g64"
                           transform="translate(378.34)"><path
                             d="m 0,0 v -36.68 m 0,-3657.488 v 37.5"
                             style="fill:none;stroke:#7b7979;stroke-width:5;stroke-linecap:butt;stroke-linejoin:round;stroke-miterlimit:10;stroke-dasharray:none;stroke-opacity:1"
                             id="path66"
                             inkscape:connector-curvature="0" /><g
                             id="g68"
                             transform="translate(378.33)"><path
                               d="m 0,0 v -36.68 m 0,-3657.488 v 37.5"
                               style="fill:none;stroke:#7b7979;stroke-width:5;stroke-linecap:butt;stroke-linejoin:round;stroke-miterlimit:10;stroke-dasharray:none;stroke-opacity:1"
                               id="path70"
                               inkscape:connector-curvature="0" /><g
                               id="g72"
                               transform="translate(378.33)"><path
                                 d="m 0,0 v -36.68 m 0,-3657.488 v 37.5"
                                 style="fill:none;stroke:#7b7979;stroke-width:5;stroke-linecap:butt;stroke-linejoin:round;stroke-miterlimit:10;stroke-dasharray:none;stroke-opacity:1"
                                 id="path74"
                                 inkscape:connector-curvature="0" /></g></g></g></g></g></g></g></g></g></g></g></g></g><text
       transform="matrix(1,0,0,-1,359.999,36.079)"
       style="font-variant:normal;font-weight:normal;font-size:14px;font-family:Helvetica;-inkscape-font-specification:Helvetica;writing-mode:lr-tb;fill:#7a7d82;fill-opacity:1;fill-rule:nonzero;stroke:none"
       id="text78"><tspan
         x="0"
         y="0"
         id="tspan76">0</tspan></text>
<g
       id="g80"
       transform="scale(0.1000061)"><g
         id="g82"
         clip-path="url(#clipPath86)"><g
           id="g88"
           transform="translate(3638.3299,519.17198)"><path
             d="m 0,0 h -37.5 m -2988.33,0 h 36.664"
             style="fill:none;stroke:#7b7979;stroke-width:5;stroke-linecap:butt;stroke-linejoin:round;stroke-miterlimit:10;stroke-dasharray:none;stroke-opacity:1"
             id="path90"
             inkscape:connector-curvature="0" /><g
             id="g92"
             transform="translate(0,615.828)"><path
               d="m 0,0 h -37.5 m -2988.33,0 h 36.664"
               style="fill:none;stroke:#7b7979;stroke-width:5;stroke-linecap:butt;stroke-linejoin:round;stroke-miterlimit:10;stroke-dasharray:none;stroke-opacity:1"
               id="path94"
               inkscape:connector-curvature="0" /><g
               id="g96"
               transform="translate(0,615.83)"><path
                 d="m 0,0 h -37.5 m -2988.33,0 h 36.664"
                 style="fill:none;stroke:#7b7979;stroke-width:5;stroke-linecap:butt;stroke-linejoin:round;stroke-miterlimit:10;stroke-dasharray:none;stroke-opacity:1"
                 id="path98"
                 inkscape:connector-curvature="0" /></g></g></g></g></g><text
       transform="matrix(1,0,0,-1,26.829,108.337)"
       style="font-variant:normal;font-weight:normal;font-size:14px;font-family:Helvetica;-inkscape-font-specification:Helvetica;writing-mode:lr-tb;fill:#7a7d82;fill-opacity:1;fill-rule:nonzero;stroke:none"
       id="text108"><tspan
         x="0 8.3439999 15.526 22.708"
         y="0"
         sodipodi:role="line"
         id="tspan100">−150</tspan><tspan
         x="0 8.3439999 15.526 22.708"
         y="61.580002"
         sodipodi:role="line"
         id="tspan102">−200</tspan><tspan
         x="14.586 22.93 30.112 37.293999 52.336006 60.680004 67.862007 75.044006 90.178009 98.522003 105.704 112.87201 128.00601 136.35001 143.53201 150.714 165.83601 174.18001 181.36201 188.54401 203.67001 212.01401 219.19601 226.37802 245.42001 253.76402 260.94601 283.25003 291.59402 298.77603"
         y="72.258003"
         sodipodi:role="line"
         id="tspan104">−360−315−270−225−180−135−90−45</tspan><tspan
         x="0 8.3439999 15.526 22.708"
         y="-61.577999"
         sodipodi:role="line"
         id="tspan106">−100</tspan></text>
<g
       id="g110"
       transform="scale(0.1000061)"><g
         id="g112"
         clip-path="url(#clipPath116)"><g
           id="g118"
           transform="translate(3638.3299,2366.6699)"><path
             d="m 0,0 h -37.5 m -2988.33,0 h 36.664"
             style="fill:none;stroke:#7b7979;stroke-width:5;stroke-linecap:butt;stroke-linejoin:round;stroke-miterlimit:10;stroke-dasharray:none;stroke-opacity:1"
             id="path120"
             inkscape:connector-curvature="0" /><g
             id="g122"
             transform="translate(0,615.83)"><path
               d="m 0,0 h -37.5 m -2988.33,0 h 36.664"
               style="fill:none;stroke:#7b7979;stroke-width:5;stroke-linecap:butt;stroke-linejoin:round;stroke-miterlimit:10;stroke-dasharray:none;stroke-opacity:1"
               id="path124"
               inkscape:connector-curvature="0" /></g></g></g></g><text
       transform="matrix(1,0,0,-1,34.671,231.507)"
       style="font-variant:normal;font-weight:normal;font-size:14px;font-family:Helvetica;-inkscape-font-specification:Helvetica;writing-mode:lr-tb;fill:#7a7d82;fill-opacity:1;fill-rule:nonzero;stroke:none"
       id="text130"><tspan
         x="0 8.3439999 15.526"
         y="0"
         sodipodi:role="line"
         id="tspan126">−50</tspan><tspan
         x="15.908"
         y="-61.571999"
         id="tspan128">0</tspan></text>
<g
       id="g132"
       transform="scale(0.1000061)"><g
         id="g134"
         clip-path="url(#clipPath138)"><g
           id="g140"
           transform="translate(3638.3299,3598.3299)"><path
             d="m 0,0 h -37.5 m -2988.33,0 h 36.664"
             style="fill:none;stroke:#7b7979;stroke-width:5;stroke-linecap:butt;stroke-linejoin:round;stroke-miterlimit:10;stroke-dasharray:none;stroke-opacity:1"
             id="path142"
             inkscape:connector-curvature="0" /></g></g></g><text
       transform="matrix(1,0,0,-1,42.835,354.671)"
       style="font-variant:normal;font-weight:normal;font-size:14px;font-family:Helvetica;-inkscape-font-specification:Helvetica;writing-mode:lr-tb;fill:#7a7d82;fill-opacity:1;fill-rule:nonzero;stroke:none"
       id="text146"><tspan
         x="0 7.1820002"
         y="0"
         sodipodi:role="line"
         id="tspan144">50</tspan></text>
<g
       id="g148"
       transform="scale(0.1000061)"><g
         id="g150"
         clip-path="url(#clipPath154)"><g
           id="g156"
           transform="translate(3638.3299,4213.3399)"><path
             d="m 0,0 h -37.5 m -2988.33,0 h 36.664"
             style="fill:none;stroke:#7b7979;stroke-width:5;stroke-linecap:butt;stroke-linejoin:round;stroke-miterlimit:10;stroke-dasharray:none;stroke-opacity:1"
             id="path158"
             inkscape:connector-curvature="0" /></g></g></g><text
       transform="matrix(1,0,0,-1,35.007,416.171)"
       style="font-variant:normal;font-weight:normal;font-size:14px;font-family:Helvetica;-inkscape-font-specification:Helvetica;writing-mode:lr-tb;fill:#7a7d82;fill-opacity:1;fill-rule:nonzero;stroke:none"
       id="text162"><tspan
         x="0 7.1820002 14.364"
         y="0"
         sodipodi:role="line"
         id="tspan160">100</tspan></text>
<g
       id="g164"
       transform="scale(0.1000061)"><g
         id="g166"
         clip-path="url(#clipPath170)"><g
           id="g172"
           transform="translate(612.49998,519.17198)"><path
             d="M 0,0 V 3694.168 M 3025.83,0 V 3694.168 M 0,0 H 3025.83 M 0,3694.168 h 3025.83"
             style="fill:none;stroke:#7b7979;stroke-width:5;stroke-linecap:butt;stroke-linejoin:round;stroke-miterlimit:10;stroke-dasharray:none;stroke-opacity:1"
             id="path174"
             inkscape:connector-curvature="0" /></g></g></g><g
       id="g176"
       transform="scale(0.1000061)"><g
         id="g178"
         clip-path="url(#clipPath182)"><g
           id="g184"
           transform="translate(612.5,2982.5)"><path
             d="M 0,0 H 3026.67"
             style="fill:none;stroke:#7b7979;stroke-width:30;stroke-linecap:butt;stroke-linejoin:round;stroke-miterlimit:10;stroke-dasharray:5, 40;stroke-dashoffset:0;stroke-opacity:1"
             id="path186"
             inkscape:connector-curvature="0" /></g></g></g><g
       id="g188"
       transform="scale(0.1000061)"><g
         id="g190"
         clip-path="url(#clipPath194)"><g
           id="g196"
           transform="translate(2125,3012.5)"><path
             d="m 0,0 v -60 m -30,30 h 60"
             style="fill:none;stroke:#ed1d24;stroke-width:30;stroke-linecap:butt;stroke-linejoin:round;stroke-miterlimit:10;stroke-dasharray:none;stroke-opacity:1"
             id="path198"
             inkscape:connector-curvature="0" /></g></g></g><g
       id="g200"
       transform="scale(0.1000061)"><g
         id="g202"
         clip-path="url(#clipPath206)"><g
           id="g208"
           transform="translate(1382.5,4213.34)"><path
             d="m 0,0 5,-221.68 4.17,-57.5 4.16,-56.66 5,-56.66 6.67,-57.5 7.5,-56.67 9.17,-56.67 10,-56.67 13.33,-56.66 15,-56.67 18.33,-56.67 21.67,-56.66 25,-55.84 30,-55.83 35.83,-55 41.67,-55 48.33,-53.33 55,-52.5 63.34,-50.84 70,-48.33 76.66,-45.83 80.84,-43.34 83.33,-39.16 83.33,-36.67 80.84,-33.33 75,-30 68.33,-27.5 60,-25.84 52.5,-23.33 44.17,-22.5 35.83,-21.67 28.33,-20.83 21.67,-20.83 15,-20 9.17,-20 2.5,-19.17 -2.5,-20 -9.17,-20 -15,-20 -21.67,-20 -28.33,-20.83 -35.83,-21.67 -44.17,-22.5 -52.5,-24.17 -60,-25 -68.33,-27.5 -75,-30.83 -80.84,-32.5 -83.33,-36.67 -83.33,-40 -80.84,-43.33 -76.66,-45.83 -70,-48.34 -63.34,-50.83 -55,-51.67 -48.33,-54.16 -41.67,-54.17 -35.83,-55 -30,-55.83 -25,-56.67 -21.67,-55.83 -18.33,-56.67 -15,-56.67 -13.33,-56.66 -10,-56.67 -9.17,-57.5 -7.5,-56.67 -6.67,-56.66 -5,-56.67 -4.16,-57.5 -4.17,-56.668 -10.83,-470"
             style="fill:none;stroke:#3b4ba7;stroke-width:20;stroke-linecap:butt;stroke-linejoin:round;stroke-miterlimit:10;stroke-dasharray:none;stroke-opacity:1"
             id="path210"
             inkscape:connector-curvature="0" /></g></g></g><g
       id="g212"
       transform="scale(0.1000061)"><g
         id="g214"
         clip-path="url(#clipPath218)"><g
           id="g220"
           transform="translate(2873.34,4213.34)"><path
             d="m 0,0 -5,-221.68 -4.17,-57.5 -4.17,-56.66 -5,-56.66 -6.66,-57.5 -7.5,-56.67 -9.17,-56.67 -10,-56.67 -13.33,-56.66 -15,-56.67 -18.34,-56.67 -21.66,-56.66 -25,-55.84 -30,-55.83 -35.84,-55 -41.66,-55 -48.34,-53.33 -55,-52.5 -63.33,-50.84 -70,-48.33 -76.67,-45.83 -80.83,-43.34 -83.33,-39.16 -83.33,-36.67 -80.84,-33.33 -75,-30 -68.33,-27.5 -60,-25.84 -52.5,-23.33 -44.17,-22.5 -35.83,-21.67 -28.33,-20.83 -21.67,-20.83 -15,-20 -9.17,-20 -2.5,-19.17 2.5,-20 9.17,-20 15,-20 21.67,-20 28.33,-20.83 35.83,-21.67 44.17,-22.5 52.5,-24.17 60,-25 68.33,-27.5 75,-30.83 80.84,-32.5 83.33,-36.67 83.33,-40 80.83,-43.33 76.67,-45.83 70,-48.34 63.33,-50.83 55,-51.67 48.34,-54.16 41.66,-54.17 35.84,-55 30,-55.83 25,-56.67 21.66,-55.83 18.34,-56.67 15,-56.67 13.33,-56.66 10,-56.67 9.17,-57.5 7.5,-56.67 6.66,-56.66 5,-56.67 4.17,-57.5 4.17,-56.668 10.83,-470"
             style="fill:none;stroke:#3b4ba7;stroke-width:20;stroke-linecap:butt;stroke-linejoin:round;stroke-miterlimit:10;stroke-dasharray:none;stroke-opacity:1"
             id="path222"
             inkscape:connector-curvature="0" /><g
             id="g224"
             transform="translate(-1449.17,-2883.34)"><path
               d="M 0,0 1.68,147.5"
               style="fill:none;stroke:#3b4ba7;stroke-width:20;stroke-linecap:butt;stroke-linejoin:round;stroke-miterlimit:10;stroke-dasharray:none;stroke-opacity:1"
               id="path226"
               inkscape:connector-curvature="0" /><path
               d="M 0,0 72.5,127.5"
               style="fill:none;stroke:#3b4ba7;stroke-width:20;stroke-linecap:butt;stroke-linejoin:round;stroke-miterlimit:10;stroke-dasharray:none;stroke-opacity:1"
               id="path228"
               inkscape:connector-curvature="0" /><g
               id="g230"
               transform="translate(995.83,965.83)"><path
                 d="M 0,0 83.33,70.84"
                 style="fill:none;stroke:#3b4ba7;stroke-width:20;stroke-linecap:butt;stroke-linejoin:round;stroke-miterlimit:10;stroke-dasharray:none;stroke-opacity:1"
                 id="path232"
                 inkscape:connector-curvature="0" /><path
                 d="M 0,0 60,25"
                 style="fill:none;stroke:#3b4ba7;stroke-width:20;stroke-linecap:butt;stroke-linejoin:round;stroke-miterlimit:10;stroke-dasharray:none;stroke-opacity:1"
                 id="path234"
                 inkscape:connector-curvature="0" /><path
                 d="M 0,0 H 116.67"
                 style="fill:none;stroke:#3b4ba7;stroke-width:20;stroke-linecap:butt;stroke-linejoin:round;stroke-miterlimit:10;stroke-dasharray:none;stroke-opacity:1"
                 id="path236"
                 inkscape:connector-curvature="0" /><g
                 id="g238"
                 transform="translate(406.91,-938.88)"><path
                   d="M 0,0 -16.91,-139.44"
                   style="fill:none;stroke:#3b4ba7;stroke-width:20;stroke-linecap:butt;stroke-linejoin:round;stroke-miterlimit:10;stroke-dasharray:none;stroke-opacity:1"
                   id="path240"
                   inkscape:connector-curvature="0" /><path
                   d="M 0,0 54.76,-126.12"
                   style="fill:none;stroke:#3b4ba7;stroke-width:20;stroke-linecap:butt;stroke-linejoin:round;stroke-miterlimit:10;stroke-dasharray:none;stroke-opacity:1"
                   id="path242"
                   inkscape:connector-curvature="0" /><g
                   id="g244"
                   transform="translate(-1147.74,1010.55)"><path
                     d="M 0,0 80.05,-90.31"
                     style="fill:none;stroke:#3b4ba7;stroke-width:20;stroke-linecap:butt;stroke-linejoin:round;stroke-miterlimit:10;stroke-dasharray:none;stroke-opacity:1"
                     id="path246"
                     inkscape:connector-curvature="0" /><g
                     id="g248"
                     transform="translate(2.01)"><path
                       d="M 0,0 H 115.49"
                       style="fill:none;stroke:#3b4ba7;stroke-width:20;stroke-linecap:butt;stroke-linejoin:round;stroke-miterlimit:10;stroke-dasharray:none;stroke-opacity:1"
                       id="path250"
                       inkscape:connector-curvature="0" /><g
                       id="g252"
                       transform="translate(1150.49,1282.5)"><path
                         d="M 0,0 -75,-89.12"
                         style="fill:none;stroke:#3b4ba7;stroke-width:20;stroke-linecap:butt;stroke-linejoin:round;stroke-miterlimit:10;stroke-dasharray:none;stroke-opacity:1"
                         id="path254"
                         inkscape:connector-curvature="0" /><path
                         d="M 0,0 22.63,-103.29"
                         style="fill:none;stroke:#3b4ba7;stroke-width:20;stroke-linecap:butt;stroke-linejoin:round;stroke-miterlimit:10;stroke-dasharray:none;stroke-opacity:1"
                         id="path256"
                         inkscape:connector-curvature="0" /><g
                         id="g258"
                         transform="translate(-1369.17,-170)"><path
                           d="M 0,0 -2.08,170"
                           style="fill:none;stroke:#3b4ba7;stroke-width:20;stroke-linecap:butt;stroke-linejoin:round;stroke-miterlimit:10;stroke-dasharray:none;stroke-opacity:1"
                           id="path260"
                           inkscape:connector-curvature="0" /><path
                           d="M 0,0 -94.17,118.35"
                           style="fill:none;stroke:#3b4ba7;stroke-width:20;stroke-linecap:butt;stroke-linejoin:round;stroke-miterlimit:10;stroke-dasharray:none;stroke-opacity:1"
                           id="path262"
                           inkscape:connector-curvature="0" /></g></g></g></g></g></g></g></g></g></g><text
       transform="matrix(1,0,0,-1,226.416,244.31)"
       style="font-variant:normal;font-weight:normal;font-size:14px;font-family:MyriadPro;-inkscape-font-specification:MyriadPro-Regular;writing-mode:lr-tb;fill:#100f0d;fill-opacity:1;fill-rule:nonzero;stroke:none"
       id="text272"><tspan
         x="0 9.2119999 17.556"
         y="0"
         sodipodi:role="line"
         id="tspan264">N=0</tspan><tspan
         x="-8.6660004 0.546 8.8900003"
         y="115.167"
         sodipodi:role="line"
         id="tspan266">N=2</tspan><tspan
         x="-8.6660004 0.546 8.8900003"
         y="-120.5"
         sodipodi:role="line"
         id="tspan268">N=2</tspan><tspan
         x="107.251 116.463 124.807"
         y="-14.5"
         sodipodi:role="line"
         id="tspan270">N=1</tspan></text>
<g
       id="g274"
       transform="scale(0.1000061)"><g
         id="g276"
         clip-path="url(#clipPath280)"><g
           id="g282"
           transform="translate(2142.4999,3560.8799)"><path
             d="M 0,0 C 0,-12.43 -10.08,-22.5 -22.5,-22.5 -34.92,-22.5 -45,-12.43 -45,0 -45,12.43 -34.92,22.5 -22.5,22.5 -10.08,22.5 0,12.43 0,0"
             style="fill:#100f0d;fill-opacity:1;fill-rule:nonzero;stroke:none"
             id="path284"
             inkscape:connector-curvature="0" /><g
             id="g286"
             transform="translate(22.5,-1080.88)"><path
               d="M 0,0 C 0,-12.42 -10.08,-22.5 -22.5,-22.5 -34.92,-22.5 -45,-12.42 -45,0 -45,12.42 -34.92,22.5 -22.5,22.5 -10.08,22.5 0,12.42 0,0"
               style="fill:#100f0d;fill-opacity:1;fill-rule:nonzero;stroke:none"
               id="path288"
               inkscape:connector-curvature="0" /><g
               id="g290"
               transform="translate(22.5,-910)"><path
                 d="M 0,0 C 0,-12.42 -10.08,-22.5 -22.5,-22.5 -34.92,-22.5 -45,-12.42 -45,0 -45,12.42 -34.92,22.5 -22.5,22.5 -10.08,22.5 0,12.42 0,0"
                 style="fill:#100f0d;fill-opacity:1;fill-rule:nonzero;stroke:none"
                 id="path292"
                 inkscape:connector-curvature="0" /><g
                 id="g294"
                 transform="translate(1473.33,1192.5)"><path
                   d="M 0,0 C 0,-12.42 -10.08,-22.5 -22.5,-22.5 -34.92,-22.5 -45,-12.42 -45,0 -45,12.42 -34.92,22.5 -22.5,22.5 -10.08,22.5 0,12.42 0,0"
                   style="fill:#100f0d;fill-opacity:1;fill-rule:nonzero;stroke:none"
                   id="path296"
                   inkscape:connector-curvature="0" /></g></g></g></g></g></g></g></svg>