<?xml version="1.0" encoding="UTF-8" standalone="no"?>
<!-- Created with Inkscape (http://www.inkscape.org/) -->

<svg
   xmlns:dc="http://purl.org/dc/elements/1.1/"
   xmlns:cc="http://creativecommons.org/ns#"
   xmlns:rdf="http://www.w3.org/1999/02/22-rdf-syntax-ns#"
   xmlns:svg="http://www.w3.org/2000/svg"
   xmlns="http://www.w3.org/2000/svg"
   xmlns:sodipodi="http://sodipodi.sourceforge.net/DTD/sodipodi-0.dtd"
   xmlns:inkscape="http://www.inkscape.org/namespaces/inkscape"
   version="1.1"
   id="svg2"
   xml:space="preserve"
   width="564.65656"
   height="466.00903"
   viewBox="0 0 564.65656 466.00903"
   sodipodi:docname="step.svg"
   inkscape:version="0.92.0 r15299"><metadata
     id="metadata8"><rdf:RDF><cc:Work
         rdf:about=""><dc:format>image/svg+xml</dc:format><dc:type
           rdf:resource="http://purl.org/dc/dcmitype/StillImage" /><dc:title></dc:title></cc:Work></rdf:RDF></metadata><defs
     id="defs6"><clipPath
       clipPathUnits="userSpaceOnUse"
       id="clipPath18"><path
         d="M 0,3816.67 V 0 h 4904.17 v 3816.67 z"
         id="path16"
         inkscape:connector-curvature="0" /></clipPath><clipPath
       clipPathUnits="userSpaceOnUse"
       id="clipPath44"><path
         d="M 0,3816.67 V 0 h 4904.17 v 3816.67 z"
         id="path42"
         inkscape:connector-curvature="0" /></clipPath><clipPath
       clipPathUnits="userSpaceOnUse"
       id="clipPath60"><path
         d="M 0,3816.67 V 0 h 4904.17 v 3816.67 z"
         id="path58"
         inkscape:connector-curvature="0" /></clipPath><clipPath
       clipPathUnits="userSpaceOnUse"
       id="clipPath76"><path
         d="M 0,3816.67 V 0 h 4904.17 v 3816.67 z"
         id="path74"
         inkscape:connector-curvature="0" /></clipPath><clipPath
       clipPathUnits="userSpaceOnUse"
       id="clipPath92"><path
         d="M 0,3816.67 V 0 h 4904.17 v 3816.67 z"
         id="path90"
         inkscape:connector-curvature="0" /></clipPath><clipPath
       clipPathUnits="userSpaceOnUse"
       id="clipPath108"><path
         d="M 0,3816.67 V 0 h 4904.17 v 3816.67 z"
         id="path106"
         inkscape:connector-curvature="0" /></clipPath><clipPath
       clipPathUnits="userSpaceOnUse"
       id="clipPath124"><path
         d="M 0,3816.67 V 0 h 4904.17 v 3816.67 z"
         id="path122"
         inkscape:connector-curvature="0" /></clipPath><clipPath
       clipPathUnits="userSpaceOnUse"
       id="clipPath140"><path
         d="M 0,3816.67 V 0 h 4904.17 v 3816.67 z"
         id="path138"
         inkscape:connector-curvature="0" /></clipPath><clipPath
       clipPathUnits="userSpaceOnUse"
       id="clipPath156"><path
         d="M 0,3816.67 V 0 h 4904.17 v 3816.67 z"
         id="path154"
         inkscape:connector-curvature="0" /></clipPath><clipPath
       clipPathUnits="userSpaceOnUse"
       id="clipPath172"><path
         d="M 0,3816.67 V 0 h 4904.17 v 3816.67 z"
         id="path170"
         inkscape:connector-curvature="0" /></clipPath><clipPath
       clipPathUnits="userSpaceOnUse"
       id="clipPath188"><path
         d="M 0,3816.67 V 0 h 4904.17 v 3816.67 z"
         id="path186"
         inkscape:connector-curvature="0" /></clipPath><clipPath
       clipPathUnits="userSpaceOnUse"
       id="clipPath204"><path
         d="M 0,3816.67 V 0 h 4904.17 v 3816.67 z"
         id="path202"
         inkscape:connector-curvature="0" /></clipPath><clipPath
       clipPathUnits="userSpaceOnUse"
       id="clipPath220"><path
         d="M 0,3816.67 V 0 h 4904.17 v 3816.67 z"
         id="path218"
         inkscape:connector-curvature="0" /></clipPath><clipPath
       clipPathUnits="userSpaceOnUse"
       id="clipPath236"><path
         d="M 0,3816.67 V 0 h 4904.17 v 3816.67 z"
         id="path234"
         inkscape:connector-curvature="0" /></clipPath><clipPath
       clipPathUnits="userSpaceOnUse"
       id="clipPath252"><path
         d="M 0,3816.67 V 0 h 4904.17 v 3816.67 z"
         id="path250"
         inkscape:connector-curvature="0" /></clipPath><clipPath
       clipPathUnits="userSpaceOnUse"
       id="clipPath264"><path
         d="M 637.5,419.172 H 4439.17 V 3530 H 637.5 Z"
         id="path262"
         inkscape:connector-curvature="0" /></clipPath><clipPath
       clipPathUnits="userSpaceOnUse"
       id="clipPath316"><path
         d="M 0,3816.67 V 0 h 4904.17 v 3816.67 z"
         id="path314"
         inkscape:connector-curvature="0" /></clipPath></defs><sodipodi:namedview
     pagecolor="#ffffff"
     bordercolor="#666666"
     borderopacity="1"
     objecttolerance="10"
     gridtolerance="10"
     guidetolerance="10"
     inkscape:pageopacity="0"
     inkscape:pageshadow="2"
     inkscape:window-width="640"
     inkscape:window-height="480"
     id="namedview4"
     showgrid="false"
     fit-margin-top="0"
     fit-margin-left="0"
     fit-margin-right="0"
     fit-margin-bottom="0"
     inkscape:zoom="0.22348485"
     inkscape:cx="298.28636"
     inkscape:cy="516.80839"
     inkscape:window-x="0"
     inkscape:window-y="0"
     inkscape:window-maximized="0"
     inkscape:current-layer="g10" /><g
     id="g10"
     inkscape:groupmode="layer"
     inkscape:label="A9R1kbeqc_633540_2wk"
     transform="matrix(1.3333333,0,0,-1.3333333,-31.408555,477.20065)"><g
       id="g12"
       transform="scale(0.1000061)"><g
         id="g14"
         clip-path="url(#clipPath18)"><path
           d="M 637.5,420 H 4438.33 V 3530 H 637.5 Z"
           style="fill:#ffffff;fill-opacity:1;fill-rule:evenodd;stroke:none"
           id="path20"
           inkscape:connector-curvature="0" /><g
           id="g22"
           transform="translate(637.5,420)"><path
             d="M 0,0 V 3110 H 3800.83 V 0 H 0"
             style="fill:none;stroke:#ffffff;stroke-width:5;stroke-linecap:butt;stroke-linejoin:round;stroke-miterlimit:10;stroke-dasharray:none;stroke-opacity:1"
             id="path24"
             inkscape:connector-curvature="0" /><g
             id="g26"
             transform="translate(3800.83,3110)"><path
               d="M 0,0 V 0 M -3800.83,0 H 0 m 0,-388.33 v 0 m -3800.83,0 H 0 m 0,-388.33 v 0 m -3800.83,0 H 0 m 0,-389.17 v 0 m -3800.83,0 H 0 M 0,-1555 v 0 m -3800.83,0 H 0 m 0,-388.33 v 0 m -3800.83,0 H 0 m 0,-389.17 v 0 m -3800.83,0 H 0 m 0,-388.328 v 0 m -3800.83,0 H 0 M 0,-3110 v 0 m -3800.83,0 H 0 M 0,0 V 0 M 0,-3110 V 0 m -950.83,0 v 0 m 0,-3110 V 0 m -950,0 v 0 m 0,-3110 V 0 m -950,0 v 0 m 0,-3110 V 0 m -950,0 v 0 m 0,-3110 V 0"
               style="fill:none;stroke:#231f20;stroke-width:3.33299994;stroke-linecap:butt;stroke-linejoin:round;stroke-miterlimit:10;stroke-dasharray:5, 40;stroke-dashoffset:0;stroke-opacity:1"
               id="path28"
               inkscape:connector-curvature="0" /><g
               id="g30"
               transform="translate(-3800.83)"><path
                 d="M 0,0 V -37.5 M 0,-3110 v 38.34 M 0,-3110 V 0 M 0,-3110 H 3800.83 M 0,-3110 V 0 M 3800.83,-3110 V 0 M 0,-3110 H 3800.83 M 0,0 h 3800.83"
                 style="fill:none;stroke:#231f20;stroke-width:5;stroke-linecap:butt;stroke-linejoin:round;stroke-miterlimit:10;stroke-dasharray:none;stroke-opacity:1"
                 id="path32"
                 inkscape:connector-curvature="0" /></g></g></g></g></g><text
       transform="matrix(1,0,0,-1,59.921,26.166)"
       style="font-variant:normal;font-weight:normal;font-size:14px;font-family:Helvetica;-inkscape-font-specification:Helvetica;writing-mode:lr-tb;fill:#211c1d;fill-opacity:1;fill-rule:nonzero;stroke:none"
       id="text36"><tspan
         x="0"
         y="0"
         id="tspan34">0</tspan></text>
<g
       id="g38"
       transform="scale(0.1000061)"><g
         id="g40"
         clip-path="url(#clipPath44)"><g
           id="g46"
           transform="translate(1587.4999,3529.9999)"><path
             d="M 0,0 V -37.5 M 0,-3110 v 38.34"
             style="fill:none;stroke:#231f20;stroke-width:5;stroke-linecap:butt;stroke-linejoin:round;stroke-miterlimit:10;stroke-dasharray:none;stroke-opacity:1"
             id="path48"
             inkscape:connector-curvature="0" /></g></g></g><text
       transform="matrix(1,0,0,-1,149.085,26.166)"
       style="font-variant:normal;font-weight:normal;font-size:14px;font-family:Helvetica;-inkscape-font-specification:Helvetica;writing-mode:lr-tb;fill:#211c1d;fill-opacity:1;fill-rule:nonzero;stroke:none"
       id="text52"><tspan
         x="0 7.1820002 10.08"
         y="0"
         sodipodi:role="line"
         id="tspan50">0.5</tspan></text>
<g
       id="g54"
       transform="scale(0.1000061)"><g
         id="g56"
         clip-path="url(#clipPath60)"><g
           id="g62"
           transform="translate(2537.4999,3529.9999)"><path
             d="M 0,0 V -37.5 M 0,-3110 v 38.34"
             style="fill:none;stroke:#231f20;stroke-width:5;stroke-linecap:butt;stroke-linejoin:round;stroke-miterlimit:10;stroke-dasharray:none;stroke-opacity:1"
             id="path64"
             inkscape:connector-curvature="0" /></g></g></g><text
       transform="matrix(1,0,0,-1,249.921,26.166)"
       style="font-variant:normal;font-weight:normal;font-size:14px;font-family:Helvetica;-inkscape-font-specification:Helvetica;writing-mode:lr-tb;fill:#211c1d;fill-opacity:1;fill-rule:nonzero;stroke:none"
       id="text68"><tspan
         x="0"
         y="0"
         id="tspan66">1</tspan></text>
<g
       id="g70"
       transform="scale(0.1000061)"><g
         id="g72"
         clip-path="url(#clipPath76)"><g
           id="g78"
           transform="translate(3487.4999,3529.9999)"><path
             d="M 0,0 V -37.5 M 0,-3110 v 38.34"
             style="fill:none;stroke:#231f20;stroke-width:5;stroke-linecap:butt;stroke-linejoin:round;stroke-miterlimit:10;stroke-dasharray:none;stroke-opacity:1"
             id="path80"
             inkscape:connector-curvature="0" /></g></g></g><text
       transform="matrix(1,0,0,-1,339.085,26.166)"
       style="font-variant:normal;font-weight:normal;font-size:14px;font-family:Helvetica;-inkscape-font-specification:Helvetica;writing-mode:lr-tb;fill:#211c1d;fill-opacity:1;fill-rule:nonzero;stroke:none"
       id="text84"><tspan
         x="0 7.1820002 10.08"
         y="0"
         sodipodi:role="line"
         id="tspan82">1.5</tspan></text>
<g
       id="g86"
       transform="scale(0.1000061)"><g
         id="g88"
         clip-path="url(#clipPath92)"><g
           id="g94"
           transform="translate(4438.3299,3529.9999)"><path
             d="M 0,0 V -37.5 M 0,-3110 v 38.34"
             style="fill:none;stroke:#231f20;stroke-width:5;stroke-linecap:butt;stroke-linejoin:round;stroke-miterlimit:10;stroke-dasharray:none;stroke-opacity:1"
             id="path96"
             inkscape:connector-curvature="0" /></g></g></g><text
       transform="matrix(1,0,0,-1,440.001,26.166)"
       style="font-variant:normal;font-weight:normal;font-size:14px;font-family:Helvetica;-inkscape-font-specification:Helvetica;writing-mode:lr-tb;fill:#211c1d;fill-opacity:1;fill-rule:nonzero;stroke:none"
       id="text100"><tspan
         x="0"
         y="0"
         id="tspan98">2</tspan></text>
<g
       id="g102"
       transform="scale(0.1000061)"><g
         id="g104"
         clip-path="url(#clipPath108)"><g
           id="g110"
           transform="translate(4438.3299,419.99999)"><path
             d="m 0,0 h -38.33 m -3762.5,0 h 37.5"
             style="fill:none;stroke:#231f20;stroke-width:5;stroke-linecap:butt;stroke-linejoin:round;stroke-miterlimit:10;stroke-dasharray:none;stroke-opacity:1"
             id="path112"
             inkscape:connector-curvature="0" /></g></g></g><text
       transform="matrix(1,0,0,-1,53.085,36.824)"
       style="font-variant:normal;font-weight:normal;font-size:14px;font-family:Helvetica;-inkscape-font-specification:Helvetica;writing-mode:lr-tb;fill:#211c1d;fill-opacity:1;fill-rule:nonzero;stroke:none"
       id="text116"><tspan
         x="0"
         y="0"
         id="tspan114">0</tspan></text>
<g
       id="g118"
       transform="scale(0.1000061)"><g
         id="g120"
         clip-path="url(#clipPath124)"><g
           id="g126"
           transform="translate(4438.3299,809.17197)"><path
             d="m 0,0 h -38.33 m -3762.5,0 h 37.5"
             style="fill:none;stroke:#231f20;stroke-width:5;stroke-linecap:butt;stroke-linejoin:round;stroke-miterlimit:10;stroke-dasharray:none;stroke-opacity:1"
             id="path128"
             inkscape:connector-curvature="0" /></g></g></g><text
       transform="matrix(1,0,0,-1,41.415,75.754)"
       style="font-variant:normal;font-weight:normal;font-size:14px;font-family:Helvetica;-inkscape-font-specification:Helvetica;writing-mode:lr-tb;fill:#211c1d;fill-opacity:1;fill-rule:nonzero;stroke:none"
       id="text132"><tspan
         x="0 7.1820002 10.08"
         y="0"
         sodipodi:role="line"
         id="tspan130">0.2</tspan></text>
<g
       id="g134"
       transform="scale(0.1000061)"><g
         id="g136"
         clip-path="url(#clipPath140)"><g
           id="g142"
           transform="translate(4438.3299,1197.5)"><path
             d="m 0,0 h -38.33 m -3762.5,0 h 37.5"
             style="fill:none;stroke:#231f20;stroke-width:5;stroke-linecap:butt;stroke-linejoin:round;stroke-miterlimit:10;stroke-dasharray:none;stroke-opacity:1"
             id="path144"
             inkscape:connector-curvature="0" /></g></g></g><text
       transform="matrix(1,0,0,-1,41.415,114.582)"
       style="font-variant:normal;font-weight:normal;font-size:14px;font-family:Helvetica;-inkscape-font-specification:Helvetica;writing-mode:lr-tb;fill:#211c1d;fill-opacity:1;fill-rule:nonzero;stroke:none"
       id="text148"><tspan
         x="0 7.1820002 10.08"
         y="0"
         sodipodi:role="line"
         id="tspan146">0.4</tspan></text>
<g
       id="g150"
       transform="scale(0.1000061)"><g
         id="g152"
         clip-path="url(#clipPath156)"><g
           id="g158"
           transform="translate(4438.3299,1586.6699)"><path
             d="m 0,0 h -38.33 m -3762.5,0 h 37.5"
             style="fill:none;stroke:#231f20;stroke-width:5;stroke-linecap:butt;stroke-linejoin:round;stroke-miterlimit:10;stroke-dasharray:none;stroke-opacity:1"
             id="path160"
             inkscape:connector-curvature="0" /></g></g></g><text
       transform="matrix(1,0,0,-1,41.415,153.504)"
       style="font-variant:normal;font-weight:normal;font-size:14px;font-family:Helvetica;-inkscape-font-specification:Helvetica;writing-mode:lr-tb;fill:#211c1d;fill-opacity:1;fill-rule:nonzero;stroke:none"
       id="text164"><tspan
         x="0 7.1820002 10.08"
         y="0"
         sodipodi:role="line"
         id="tspan162">0.6</tspan></text>
<g
       id="g166"
       transform="scale(0.1000061)"><g
         id="g168"
         clip-path="url(#clipPath172)"><g
           id="g174"
           transform="translate(4438.3299,1974.9999)"><path
             d="m 0,0 h -38.33 m -3762.5,0 h 37.5"
             style="fill:none;stroke:#231f20;stroke-width:5;stroke-linecap:butt;stroke-linejoin:round;stroke-miterlimit:10;stroke-dasharray:none;stroke-opacity:1"
             id="path176"
             inkscape:connector-curvature="0" /></g></g></g><text
       transform="matrix(1,0,0,-1,41.415,192.332)"
       style="font-variant:normal;font-weight:normal;font-size:14px;font-family:Helvetica;-inkscape-font-specification:Helvetica;writing-mode:lr-tb;fill:#211c1d;fill-opacity:1;fill-rule:nonzero;stroke:none"
       id="text180"><tspan
         x="0 7.1820002 10.08"
         y="0"
         sodipodi:role="line"
         id="tspan178">0.8</tspan></text>
<g
       id="g182"
       transform="scale(0.1000061)"><g
         id="g184"
         clip-path="url(#clipPath188)"><g
           id="g190"
           transform="translate(4438.3299,2364.1699)"><path
             d="m 0,0 h -38.33 m -3762.5,0 h 37.5"
             style="fill:none;stroke:#231f20;stroke-width:5;stroke-linecap:butt;stroke-linejoin:round;stroke-miterlimit:10;stroke-dasharray:none;stroke-opacity:1"
             id="path192"
             inkscape:connector-curvature="0" /></g></g></g><text
       transform="matrix(1,0,0,-1,53.085,231.252)"
       style="font-variant:normal;font-weight:normal;font-size:14px;font-family:Helvetica;-inkscape-font-specification:Helvetica;writing-mode:lr-tb;fill:#211c1d;fill-opacity:1;fill-rule:nonzero;stroke:none"
       id="text196"><tspan
         x="0"
         y="0"
         id="tspan194">1</tspan></text>
<g
       id="g198"
       transform="scale(0.1000061)"><g
         id="g200"
         clip-path="url(#clipPath204)"><g
           id="g206"
           transform="translate(4438.3299,2753.3399)"><path
             d="m 0,0 h -38.33 m -3762.5,0 h 37.5"
             style="fill:none;stroke:#231f20;stroke-width:5;stroke-linecap:butt;stroke-linejoin:round;stroke-miterlimit:10;stroke-dasharray:none;stroke-opacity:1"
             id="path208"
             inkscape:connector-curvature="0" /></g></g></g><text
       transform="matrix(1,0,0,-1,41.415,270.174)"
       style="font-variant:normal;font-weight:normal;font-size:14px;font-family:Helvetica;-inkscape-font-specification:Helvetica;writing-mode:lr-tb;fill:#211c1d;fill-opacity:1;fill-rule:nonzero;stroke:none"
       id="text212"><tspan
         x="0 7.1820002 10.08"
         y="0"
         sodipodi:role="line"
         id="tspan210">1.2</tspan></text>
<g
       id="g214"
       transform="scale(0.1000061)"><g
         id="g216"
         clip-path="url(#clipPath220)"><g
           id="g222"
           transform="translate(4438.3299,3141.6699)"><path
             d="m 0,0 h -38.33 m -3762.5,0 h 37.5"
             style="fill:none;stroke:#231f20;stroke-width:5;stroke-linecap:butt;stroke-linejoin:round;stroke-miterlimit:10;stroke-dasharray:none;stroke-opacity:1"
             id="path224"
             inkscape:connector-curvature="0" /></g></g></g><text
       transform="matrix(1,0,0,-1,41.415,309.004)"
       style="font-variant:normal;font-weight:normal;font-size:14px;font-family:Helvetica;-inkscape-font-specification:Helvetica;writing-mode:lr-tb;fill:#211c1d;fill-opacity:1;fill-rule:nonzero;stroke:none"
       id="text228"><tspan
         x="0 7.1820002 10.08"
         y="0"
         sodipodi:role="line"
         id="tspan226">1.4</tspan></text>
<g
       id="g230"
       transform="scale(0.1000061)"><g
         id="g232"
         clip-path="url(#clipPath236)"><g
           id="g238"
           transform="translate(4438.3299,3529.9999)"><path
             d="m 0,0 h -38.33 m -3762.5,0 h 37.5"
             style="fill:none;stroke:#231f20;stroke-width:5;stroke-linecap:butt;stroke-linejoin:round;stroke-miterlimit:10;stroke-dasharray:none;stroke-opacity:1"
             id="path240"
             inkscape:connector-curvature="0" /></g></g></g><text
       transform="matrix(1,0,0,-1,41.415,347.838)"
       style="font-variant:normal;font-weight:normal;font-size:14px;font-family:Helvetica;-inkscape-font-specification:Helvetica;writing-mode:lr-tb;fill:#211c1d;fill-opacity:1;fill-rule:nonzero;stroke:none"
       id="text244"><tspan
         x="0 7.1820002 10.08"
         y="0"
         sodipodi:role="line"
         id="tspan242">1.6</tspan></text>
<g
       id="g246"
       transform="scale(0.1000061)"><g
         id="g248"
         clip-path="url(#clipPath252)"><g
           id="g254"
           transform="translate(637.49998,419.99999)"><path
             d="M 0,0 V 3110 M 3800.83,0 V 3110 M 0,0 H 3800.83 M 0,3110 h 3800.83"
             style="fill:none;stroke:#231f20;stroke-width:5;stroke-linecap:butt;stroke-linejoin:round;stroke-miterlimit:10;stroke-dasharray:none;stroke-opacity:1"
             id="path256"
             inkscape:connector-curvature="0" /></g></g></g><g
       id="g258"
       transform="scale(0.1000061)"><g
         id="g260"
         clip-path="url(#clipPath264)"><g
           id="g266"
           transform="translate(637.5,420)"><path
             d="m 0,0 18.336,13.34 19.164,38.332 19.164,60 L 75.836,190 95,285 l 18.336,108.34 19.164,118.332 19.164,126.668 19.172,132.5 19.164,135 18.336,136.66 19.164,135 19.164,133.34 L 265.836,1440 285,1563.34 303.336,1680 322.5,1789.17 341.664,1890 l 19.164,91.67 19.172,82.5 18.33,73.33 19.17,64.17 19.17,54.17 19.16,44.16 19.17,35.84 18.33,27.5 19.17,19.16 19.17,10.84 19.16,4.16 19.17,-2.5 18.33,-8.33 19.17,-13.33 19.17,-17.5 19.16,-21.67 19.17,-25 18.33,-27.5 19.17,-29.17 19.17,-30.83 19.16,-31.67 19.17,-31.66 19.17,-31.67 18.33,-30.83 19.17,-30.84 19.16,-28.33 19.17,-27.5 19.17,-25.83 18.33,-24.17 19.17,-21.67 19.16,-19.16 19.17,-17.5 19.17,-15 18.33,-13.34 19.17,-10 19.16,-9.16 19.17,-6.67 19.17,-4.17 18.33,-2.5 19.17,-1.66 19.16,0.83 19.17,1.67 19.17,2.5 18.33,4.16 19.17,5 19.16,5.84 19.17,6.66 19.17,6.67 18.33,6.67 19.17,7.5 19.16,7.5 19.17,7.5 19.17,7.5 18.33,6.66 19.17,6.67 19.16,6.67 19.17,5.83 19.17,5.83 18.33,5 19.17,5 19.16,4.17 19.17,3.33 19.17,3.34 19.16,2.5 18.34,1.66 19.16,1.67 19.17,0.83 19.17,0.84 19.16,0.83 18.34,-0.83 h 19.16 l 19.17,-0.84 19.17,-0.83 19.16,-0.83 18.34,-1.67 19.16,-1.67 19.17,-0.83 19.17,-1.67 19.16,-1.66 18.34,-2.5 19.16,-1.67 19.17,-1.67 19.17,-1.66 19.16,-1.67 18.34,-0.83 19.16,-1.67 19.17,-1.67 19.17,-0.83 19.16,-0.83 18.34,-1.67 19.16,-0.83 H 2090 l 19.17,-0.84 19.16,-0.83 h 18.34 l 19.16,-0.83 h 95 l 19.17,0.83 h 38.33 l 19.17,0.83 h 18.33 l 19.17,0.84 h 19.17 l 19.16,0.83 h 19.17 l 18.33,0.83 h 38.34 l 19.16,0.84 h 19.17 l 18.33,0.83 h 38.34 l 19.16,0.83 h 95 l 19.17,0.84 h 95 l 18.33,-0.84 h 171.67 l 18.33,-0.83 h 780"
             style="fill:none;stroke:#3b4ba7;stroke-width:30;stroke-linecap:butt;stroke-linejoin:round;stroke-miterlimit:10;stroke-dasharray:none;stroke-opacity:1"
             id="path268"
             inkscape:connector-curvature="0" /><path
             d="M 0,0 18.336,140 37.5,281.672 56.664,425.84 75.836,570 95,713.34 l 18.336,142.5 19.164,140 19.164,136.66 19.172,133.34 L 190,1395 l 18.336,123.34 19.164,118.33 19.164,111.67 19.172,105.83 19.164,99.17 18.336,92.5 19.164,85.83 19.164,78.33 19.164,70.84 19.172,64.16 18.33,56.67 19.17,50 19.17,42.5 19.16,36.67 19.17,30 18.33,23.33 19.17,17.5 19.17,12.5 19.16,5.83 19.17,1.67 18.33,-3.33 19.17,-7.5 19.17,-11.67 19.16,-15 19.17,-19.17 18.33,-21.66 19.17,-24.17 19.17,-25.83 19.16,-29.17 19.17,-30 19.17,-30.83 18.33,-32.5 19.17,-33.34 19.16,-33.33 19.17,-33.33 19.17,-33.34 18.33,-33.33 19.17,-33.33 19.16,-31.67 19.17,-31.67 19.17,-30 18.33,-29.16 19.17,-27.5 19.16,-26.67 19.17,-25 19.17,-23.33 18.33,-21.67 19.17,-20 19.16,-19.17 19.17,-16.66 19.17,-15 18.33,-13.34 19.17,-12.5 19.16,-10 19.17,-9.16 19.17,-6.67 18.33,-5.83 19.17,-4.17 19.16,-3.33 19.17,-1.67 19.17,-0.83 18.33,0.83 19.17,1.67 19.16,2.5 19.17,3.33 19.17,4.17 18.33,5 19.17,5.83 19.16,5.83 19.17,6.67 19.17,6.67 19.16,7.5 18.34,7.5 19.16,7.5 19.17,8.33 19.17,7.5 19.16,7.5 18.34,8.33 19.16,7.5 19.17,7.5 19.17,7.5 19.16,6.67 18.34,6.67 19.16,6.66 19.17,6.67 19.17,5.83 19.16,5 18.34,5.84 19.16,4.16 19.17,5 19.17,3.34 19.16,4.16 18.34,3.34 19.16,2.5 19.17,2.5 19.17,2.5 19.16,1.66 18.34,0.84 19.16,1.66 H 2090 l 19.17,0.84 h 56.66 l 19.17,-0.84 19.17,-0.83 19.16,-0.83 18.34,-0.84 19.16,-1.66 19.17,-1.67 19.17,-0.83 19.16,-1.67 19.17,-1.67 18.33,-1.66 19.17,-2.5 19.17,-1.67 19.16,-1.67 19.17,-1.66 18.33,-1.67 19.17,-1.67 19.17,-2.5 19.16,-1.66 19.17,-1.67 18.33,-1.67 19.17,-0.83 19.17,-1.67 19.16,-1.66 19.17,-0.84 18.33,-1.66 19.17,-0.84 19.17,-0.83 19.16,-1.67 19.17,-0.83 18.33,-0.83 H 2755 l 19.17,-0.84 19.16,-0.83 h 19.17 l 18.33,-0.83 h 171.67 l 18.33,0.83 h 38.34 l 19.16,0.83 h 19.17 l 19.17,0.84 H 3135 l 19.17,0.83 h 19.16 l 19.17,0.83 h 19.17 l 18.33,0.84 h 19.17 l 19.16,0.83 h 19.17 l 19.17,0.83 H 3325 l 19.17,0.84 h 38.33 l 19.16,0.83 h 37.5 l 19.17,0.83 H 3515 l 19.16,0.84 h 266.67"
             style="fill:none;stroke:#26813a;stroke-width:30;stroke-linecap:butt;stroke-linejoin:round;stroke-miterlimit:10;stroke-dasharray:none;stroke-opacity:1"
             id="path270"
             inkscape:connector-curvature="0" /></g></g></g><text
       transform="matrix(1,0,0,-1,214.921,11.34)"
       style="font-variant:normal;font-weight:normal;font-size:14px;font-family:Helvetica;-inkscape-font-specification:Helvetica;writing-mode:lr-tb;fill:#211c1d;fill-opacity:1;fill-rule:nonzero;stroke:none"
       id="text274"><tspan
         x="0 6.9580002 10.234 21.91 28.924 31.822001 34.790001 39.424 42.391998 46.368 51.911999 58.925999 65.197998"
         y="0"
         sodipodi:role="line"
         id="tspan272">Time, t (sec)</tspan></text>
<text
       transform="matrix(0,1,1,0,33.7488,149.582)"
       style="font-variant:normal;font-weight:normal;font-size:14px;font-family:Helvetica;-inkscape-font-specification:Helvetica;writing-mode:lr-tb;fill:#211c1d;fill-opacity:1;fill-rule:nonzero;stroke:none"
       id="text278"><tspan
         x="0 6.902 11.536 18.549999 26.516001 29.483999 37.015999 44.029999 49.574001 57.540001 65.225998 72.996002 78.540001"
         y="0"
         sodipodi:role="line"
         id="tspan276">Step Response</tspan></text>
<text
       transform="matrix(1,0,0,-1,168.333,288.554)"
       style="font-variant:normal;font-weight:normal;font-size:18px;font-family:MyriadPro;-inkscape-font-specification:MyriadPro-Regular;writing-mode:lr-tb;fill:#100f0d;fill-opacity:1;fill-rule:nonzero;stroke:none"
       id="text282"><tspan
         x="0"
         y="0"
         id="tspan280">y</tspan></text>
<text
       transform="matrix(1,0,0,-1,176.812,282.56)"
       style="font-variant:normal;font-weight:normal;font-size:10.49400043px;font-family:MyriadPro;-inkscape-font-specification:MyriadPro-Regular;writing-mode:lr-tb;fill:#100f0d;fill-opacity:1;fill-rule:nonzero;stroke:none"
       id="text286"><tspan
         x="0"
         y="0"
         id="tspan284">2</tspan></text>
<text
       transform="matrix(1,0,0,-1,182.195,288.554)"
       style="font-variant:normal;font-weight:normal;font-size:18px;font-family:MyriadPro;-inkscape-font-specification:MyriadPro-Regular;writing-mode:lr-tb;fill:#100f0d;fill-opacity:1;fill-rule:nonzero;stroke:none"
       id="text290"><tspan
         x="0 5.112 11.07 16.181999 31.445999"
         y="0"
         sodipodi:role="line"
         id="tspan288">(t) M</tspan></text>
<text
       transform="matrix(1,0,0,-1,228.112,282.56)"
       style="font-variant:normal;font-weight:normal;font-size:10.49400043px;font-family:MyriadPro;-inkscape-font-specification:MyriadPro-Regular;writing-mode:lr-tb;fill:#100f0d;fill-opacity:1;fill-rule:nonzero;stroke:none"
       id="text294"><tspan
         x="0"
         y="0"
         id="tspan292">p</tspan></text>
<text
       transform="matrix(1,0,0,-1,234.083,288.554)"
       style="font-variant:normal;font-weight:normal;font-size:18px;font-family:MyriadPro;-inkscape-font-specification:MyriadPro-Regular;writing-mode:lr-tb;fill:#100f0d;fill-opacity:1;fill-rule:nonzero;stroke:none"
       id="text300"><tspan
         x="0 10.728 19.962 23.688 32.922001"
         y="0"
         sodipodi:role="line"
         id="tspan296">=0.34</tspan><tspan
         x="-118.75"
         y="92"
         id="tspan298">y</tspan></text>
<text
       transform="matrix(1,0,0,-1,123.812,190.56)"
       style="font-variant:normal;font-weight:normal;font-size:10.49400043px;font-family:MyriadPro;-inkscape-font-specification:MyriadPro-Regular;writing-mode:lr-tb;fill:#100f0d;fill-opacity:1;fill-rule:nonzero;stroke:none"
       id="text304"><tspan
         x="0"
         y="0"
         id="tspan302">1</tspan></text>
<text
       transform="matrix(1,0,0,-1,129.195,196.554)"
       style="font-variant:normal;font-weight:normal;font-size:18px;font-family:MyriadPro;-inkscape-font-specification:MyriadPro-Regular;writing-mode:lr-tb;fill:#100f0d;fill-opacity:1;fill-rule:nonzero;stroke:none"
       id="text308"><tspan
         x="0 5.112 11.07"
         y="0"
         sodipodi:role="line"
         id="tspan306">(t)</tspan></text>
<g
       id="g310"
       transform="scale(0.1000061)"><g
         id="g312"
         clip-path="url(#clipPath316)"><g
           id="g318"
           transform="translate(1283.33,2139.9999)"><path
             d="M 0,0 209.17,289.17"
             style="fill:none;stroke:#100f0d;stroke-width:10;stroke-linecap:butt;stroke-linejoin:miter;stroke-miterlimit:10;stroke-dasharray:none;stroke-opacity:1"
             id="path320"
             inkscape:connector-curvature="0" /><g
             id="g322"
             transform="translate(373.34,756.67)"><path
               d="M 0,0 -221.67,-105.83"
               style="fill:none;stroke:#100f0d;stroke-width:10;stroke-linecap:butt;stroke-linejoin:miter;stroke-miterlimit:10;stroke-dasharray:none;stroke-opacity:1"
               id="path324"
               inkscape:connector-curvature="0" /></g></g></g></g><text
       transform="matrix(1,0,0,-1,160.641,196.554)"
       style="font-variant:normal;font-weight:normal;font-size:18px;font-family:MyriadPro;-inkscape-font-specification:MyriadPro-Regular;writing-mode:lr-tb;fill:#100f0d;fill-opacity:1;fill-rule:nonzero;stroke:none"
       id="text328"><tspan
         x="0"
         y="0"
         id="tspan326">M</tspan></text>
<text
       transform="matrix(1,0,0,-1,175.112,190.56)"
       style="font-variant:normal;font-weight:normal;font-size:10.49400043px;font-family:MyriadPro;-inkscape-font-specification:MyriadPro-Regular;writing-mode:lr-tb;fill:#100f0d;fill-opacity:1;fill-rule:nonzero;stroke:none"
       id="text332"><tspan
         x="0"
         y="0"
         id="tspan330">p</tspan></text>
<text
       transform="matrix(1,0,0,-1,181.083,196.554)"
       style="font-variant:normal;font-weight:normal;font-size:18px;font-family:MyriadPro;-inkscape-font-specification:MyriadPro-Regular;writing-mode:lr-tb;fill:#100f0d;fill-opacity:1;fill-rule:nonzero;stroke:none"
       id="text336"><tspan
         x="0 10.728 19.962 23.688 32.922001"
         y="0"
         sodipodi:role="line"
         id="tspan334">=0.23</tspan></text>
</g></svg>