<?xml version="1.0" encoding="UTF-8" standalone="no"?>
<!-- Created with Inkscape (http://www.inkscape.org/) -->

<svg
   xmlns:dc="http://purl.org/dc/elements/1.1/"
   xmlns:cc="http://creativecommons.org/ns#"
   xmlns:rdf="http://www.w3.org/1999/02/22-rdf-syntax-ns#"
   xmlns:svg="http://www.w3.org/2000/svg"
   xmlns="http://www.w3.org/2000/svg"
   xmlns:sodipodi="http://sodipodi.sourceforge.net/DTD/sodipodi-0.dtd"
   xmlns:inkscape="http://www.inkscape.org/namespaces/inkscape"
   version="1.1"
   id="svg2"
   xml:space="preserve"
   width="491.90515"
   height="387.48438"
   viewBox="0 0 491.90515 387.48438"
   sodipodi:docname="step.svg"
   inkscape:version="0.92.0 r15299"><metadata
     id="metadata8"><rdf:RDF><cc:Work
         rdf:about=""><dc:format>image/svg+xml</dc:format><dc:type
           rdf:resource="http://purl.org/dc/dcmitype/StillImage" /><dc:title></dc:title></cc:Work></rdf:RDF></metadata><defs
     id="defs6"><clipPath
       clipPathUnits="userSpaceOnUse"
       id="clipPath18"><path
         d="M 0,3150 V 0 h 4199.17 v 3150 z"
         id="path16"
         inkscape:connector-curvature="0" /></clipPath><clipPath
       clipPathUnits="userSpaceOnUse"
       id="clipPath44"><path
         d="M 0,3150 V 0 h 4199.17 v 3150 z"
         id="path42"
         inkscape:connector-curvature="0" /></clipPath><clipPath
       clipPathUnits="userSpaceOnUse"
       id="clipPath60"><path
         d="M 0,3150 V 0 h 4199.17 v 3150 z"
         id="path58"
         inkscape:connector-curvature="0" /></clipPath><clipPath
       clipPathUnits="userSpaceOnUse"
       id="clipPath76"><path
         d="M 0,3150 V 0 h 4199.17 v 3150 z"
         id="path74"
         inkscape:connector-curvature="0" /></clipPath><clipPath
       clipPathUnits="userSpaceOnUse"
       id="clipPath92"><path
         d="M 0,3150 V 0 h 4199.17 v 3150 z"
         id="path90"
         inkscape:connector-curvature="0" /></clipPath><clipPath
       clipPathUnits="userSpaceOnUse"
       id="clipPath108"><path
         d="M 0,3150 V 0 h 4199.17 v 3150 z"
         id="path106"
         inkscape:connector-curvature="0" /></clipPath><clipPath
       clipPathUnits="userSpaceOnUse"
       id="clipPath124"><path
         d="M 0,3150 V 0 h 4199.17 v 3150 z"
         id="path122"
         inkscape:connector-curvature="0" /></clipPath><clipPath
       clipPathUnits="userSpaceOnUse"
       id="clipPath140"><path
         d="M 0,3150 V 0 h 4199.17 v 3150 z"
         id="path138"
         inkscape:connector-curvature="0" /></clipPath><clipPath
       clipPathUnits="userSpaceOnUse"
       id="clipPath156"><path
         d="M 0,3150 V 0 h 4199.17 v 3150 z"
         id="path154"
         inkscape:connector-curvature="0" /></clipPath><clipPath
       clipPathUnits="userSpaceOnUse"
       id="clipPath172"><path
         d="M 0,3150 V 0 h 4199.17 v 3150 z"
         id="path170"
         inkscape:connector-curvature="0" /></clipPath><clipPath
       clipPathUnits="userSpaceOnUse"
       id="clipPath188"><path
         d="M 0,3150 V 0 h 4199.17 v 3150 z"
         id="path186"
         inkscape:connector-curvature="0" /></clipPath><clipPath
       clipPathUnits="userSpaceOnUse"
       id="clipPath204"><path
         d="M 0,3150 V 0 h 4199.17 v 3150 z"
         id="path202"
         inkscape:connector-curvature="0" /></clipPath><clipPath
       clipPathUnits="userSpaceOnUse"
       id="clipPath216"><path
         d="M 545.836,345.832 H 3800.83 V 2914.16 H 545.836 Z"
         id="path214"
         inkscape:connector-curvature="0" /></clipPath></defs><sodipodi:namedview
     pagecolor="#ffffff"
     bordercolor="#666666"
     borderopacity="1"
     objecttolerance="10"
     gridtolerance="10"
     guidetolerance="10"
     inkscape:pageopacity="0"
     inkscape:pageshadow="2"
     inkscape:window-width="1600"
     inkscape:window-height="847"
     id="namedview4"
     showgrid="false"
     fit-margin-top="0"
     fit-margin-left="0"
     fit-margin-right="0"
     fit-margin-bottom="0"
     inkscape:zoom="0.89393939"
     inkscape:cx="654.02258"
     inkscape:cy="147.27726"
     inkscape:window-x="-8"
     inkscape:window-y="-8"
     inkscape:window-maximized="1"
     inkscape:current-layer="g10" /><g
     id="g10"
     inkscape:groupmode="layer"
     inkscape:label="A9R1nela91_qbqhyv_a2w"
     transform="matrix(1.3333333,0,0,-1.3333333,-19.182022,388.88799)"><g
       id="g12"
       transform="scale(0.1)"><g
         id="g14"
         clip-path="url(#clipPath18)"><path
           d="m 545.836,346.672 h 3254.16 v 2567.49 H 545.836 Z"
           style="fill:#ffffff;fill-opacity:1;fill-rule:evenodd;stroke:none"
           id="path20"
           inkscape:connector-curvature="0" /><g
           id="g22"
           transform="translate(545.836,346.672)"><path
             d="M 0,0 V 2567.488 H 3254.164 V 0 H 0"
             style="fill:none;stroke:#ffffff;stroke-width:5;stroke-linecap:butt;stroke-linejoin:round;stroke-miterlimit:10;stroke-dasharray:none;stroke-opacity:1"
             id="path24"
             inkscape:connector-curvature="0" /><g
             id="g26"
             transform="translate(3254.164,2439.1681)"><path
               d="M 0,0 V 0 M -3254.164,0 H 0 m 0,-641.67 v 0 m -3254.164,0 H 0 m 0,-641.67 v 0 m -3254.164,0 H 0 m 0,-641.672 v 0 m -3254.164,0 H 0 M 0,128.32 v 0 M 0,-2439.168 V 128.32 m -542.5,0 v 0 m 0,-2567.488 V 128.32 m -542.5,0 v 0 m 0,-2567.488 V 128.32 m -542.5,0 v 0 m 0,-2567.488 V 128.32 m -542.5,0 v 0 m 0,-2567.488 V 128.32 m -542.5,0 v 0 m 0,-2567.488 V 128.32 m -541.664,0 v 0 m 0,-2567.488 V 128.32"
               style="fill:none;stroke:#231f20;stroke-width:3.33299994;stroke-linecap:butt;stroke-linejoin:round;stroke-miterlimit:10;stroke-dasharray:5, 40;stroke-dashoffset:0;stroke-opacity:1"
               id="path28"
               inkscape:connector-curvature="0" /><g
               id="g30"
               transform="translate(-3254.164,128.3198)"><path
                 d="m 0,0 v -32.5 m 0,-2534.988 v 33.328 m 0,-33.328 V 0 M 0,-2567.488 H 3254.164 M 0,-2567.488 V 0 M 3254.164,-2567.488 V 0 M 0,-2567.488 H 3254.164 M 0,0 h 3254.164"
                 style="fill:none;stroke:#231f20;stroke-width:5;stroke-linecap:butt;stroke-linejoin:round;stroke-miterlimit:10;stroke-dasharray:none;stroke-opacity:1"
                 id="path32"
                 inkscape:connector-curvature="0" /></g></g></g></g></g><text
       transform="matrix(1,0,0,-1,50.749,18.837)"
       style="font-variant:normal;font-weight:normal;font-size:14px;font-family:Helvetica;-inkscape-font-specification:Helvetica;writing-mode:lr-tb;fill:#211c1d;fill-opacity:1;fill-rule:nonzero;stroke:none"
       id="text36"><tspan
         x="0"
         y="0"
         id="tspan34">0</tspan></text>
<g
       id="g38"
       transform="scale(0.1)"><g
         id="g40"
         clip-path="url(#clipPath44)"><g
           id="g46"
           transform="translate(1087.5,2914.1599)"><path
             d="m 0,0 v -32.5 m 0,-2534.988 v 33.328"
             style="fill:none;stroke:#231f20;stroke-width:5;stroke-linecap:butt;stroke-linejoin:round;stroke-miterlimit:10;stroke-dasharray:none;stroke-opacity:1"
             id="path48"
             inkscape:connector-curvature="0" /></g></g></g><text
       transform="matrix(1,0,0,-1,99.079,18.837)"
       style="font-variant:normal;font-weight:normal;font-size:14px;font-family:Helvetica;-inkscape-font-specification:Helvetica;writing-mode:lr-tb;fill:#211c1d;fill-opacity:1;fill-rule:nonzero;stroke:none"
       id="text52"><tspan
         x="0 7.1820002 10.08"
         y="0"
         sodipodi:role="line"
         id="tspan50">0.5</tspan></text>
<g
       id="g54"
       transform="scale(0.1)"><g
         id="g56"
         clip-path="url(#clipPath60)"><g
           id="g62"
           transform="translate(1630,2914.1599)"><path
             d="m 0,0 v -32.5 m 0,-2534.988 v 33.328"
             style="fill:none;stroke:#231f20;stroke-width:5;stroke-linecap:butt;stroke-linejoin:round;stroke-miterlimit:10;stroke-dasharray:none;stroke-opacity:1"
             id="path64"
             inkscape:connector-curvature="0" /></g></g></g><text
       transform="matrix(1,0,0,-1,159.171,18.837)"
       style="font-variant:normal;font-weight:normal;font-size:14px;font-family:Helvetica;-inkscape-font-specification:Helvetica;writing-mode:lr-tb;fill:#211c1d;fill-opacity:1;fill-rule:nonzero;stroke:none"
       id="text68"><tspan
         x="0"
         y="0"
         id="tspan66">1</tspan></text>
<g
       id="g70"
       transform="scale(0.1)"><g
         id="g72"
         clip-path="url(#clipPath76)"><g
           id="g78"
           transform="translate(2172.5,2914.1599)"><path
             d="m 0,0 v -32.5 m 0,-2534.988 v 33.328"
             style="fill:none;stroke:#231f20;stroke-width:5;stroke-linecap:butt;stroke-linejoin:round;stroke-miterlimit:10;stroke-dasharray:none;stroke-opacity:1"
             id="path80"
             inkscape:connector-curvature="0" /></g></g></g><text
       transform="matrix(1,0,0,-1,207.579,18.837)"
       style="font-variant:normal;font-weight:normal;font-size:14px;font-family:Helvetica;-inkscape-font-specification:Helvetica;writing-mode:lr-tb;fill:#211c1d;fill-opacity:1;fill-rule:nonzero;stroke:none"
       id="text84"><tspan
         x="0 7.1820002 10.08"
         y="0"
         sodipodi:role="line"
         id="tspan82">1.5</tspan></text>
<g
       id="g86"
       transform="scale(0.1)"><g
         id="g88"
         clip-path="url(#clipPath92)"><g
           id="g94"
           transform="translate(2715,2914.1599)"><path
             d="m 0,0 v -32.5 m 0,-2534.988 v 33.328"
             style="fill:none;stroke:#231f20;stroke-width:5;stroke-linecap:butt;stroke-linejoin:round;stroke-miterlimit:10;stroke-dasharray:none;stroke-opacity:1"
             id="path96"
             inkscape:connector-curvature="0" /></g></g></g><text
       transform="matrix(1,0,0,-1,267.665,18.837)"
       style="font-variant:normal;font-weight:normal;font-size:14px;font-family:Helvetica;-inkscape-font-specification:Helvetica;writing-mode:lr-tb;fill:#211c1d;fill-opacity:1;fill-rule:nonzero;stroke:none"
       id="text100"><tspan
         x="0"
         y="0"
         id="tspan98">2</tspan></text>
<g
       id="g102"
       transform="scale(0.1)"><g
         id="g104"
         clip-path="url(#clipPath108)"><g
           id="g110"
           transform="translate(3257.5,2914.1599)"><path
             d="m 0,0 v -32.5 m 0,-2534.988 v 33.328"
             style="fill:none;stroke:#231f20;stroke-width:5;stroke-linecap:butt;stroke-linejoin:round;stroke-miterlimit:10;stroke-dasharray:none;stroke-opacity:1"
             id="path112"
             inkscape:connector-curvature="0" /></g></g></g><text
       transform="matrix(1,0,0,-1,316.079,18.837)"
       style="font-variant:normal;font-weight:normal;font-size:14px;font-family:Helvetica;-inkscape-font-specification:Helvetica;writing-mode:lr-tb;fill:#211c1d;fill-opacity:1;fill-rule:nonzero;stroke:none"
       id="text116"><tspan
         x="0 7.1820002 10.08"
         y="0"
         sodipodi:role="line"
         id="tspan114">2.5</tspan></text>
<g
       id="g118"
       transform="scale(0.1)"><g
         id="g120"
         clip-path="url(#clipPath124)"><g
           id="g126"
           transform="translate(3800,2914.1599)"><path
             d="m 0,0 v -32.5 m 0,-2534.988 v 33.328"
             style="fill:none;stroke:#231f20;stroke-width:5;stroke-linecap:butt;stroke-linejoin:round;stroke-miterlimit:10;stroke-dasharray:none;stroke-opacity:1"
             id="path128"
             inkscape:connector-curvature="0" /></g></g></g><text
       transform="matrix(1,0,0,-1,376.165,18.837)"
       style="font-variant:normal;font-weight:normal;font-size:14px;font-family:Helvetica;-inkscape-font-specification:Helvetica;writing-mode:lr-tb;fill:#211c1d;fill-opacity:1;fill-rule:nonzero;stroke:none"
       id="text132"><tspan
         x="0"
         y="0"
         id="tspan130">3</tspan></text>
<g
       id="g134"
       transform="scale(0.1)"><g
         id="g136"
         clip-path="url(#clipPath140)"><g
           id="g142"
           transform="translate(3800,860.828)"><path
             d="m 0,0 h -33.33 m -3220.834,0 h 32.5"
             style="fill:none;stroke:#231f20;stroke-width:5;stroke-linecap:butt;stroke-linejoin:round;stroke-miterlimit:10;stroke-dasharray:none;stroke-opacity:1"
             id="path144"
             inkscape:connector-curvature="0" /></g></g></g><text
       transform="matrix(1,0,0,-1,43.915,80.921)"
       style="font-variant:normal;font-weight:normal;font-size:14px;font-family:Helvetica;-inkscape-font-specification:Helvetica;writing-mode:lr-tb;fill:#211c1d;fill-opacity:1;fill-rule:nonzero;stroke:none"
       id="text148"><tspan
         x="0"
         y="0"
         id="tspan146">0</tspan></text>
<g
       id="g150"
       transform="scale(0.1)"><g
         id="g152"
         clip-path="url(#clipPath156)"><g
           id="g158"
           transform="translate(3800,1502.5)"><path
             d="m 0,0 h -33.33 m -3220.834,0 h 32.5"
             style="fill:none;stroke:#231f20;stroke-width:5;stroke-linecap:butt;stroke-linejoin:round;stroke-miterlimit:10;stroke-dasharray:none;stroke-opacity:1"
             id="path160"
             inkscape:connector-curvature="0" /></g></g></g><text
       transform="matrix(1,0,0,-1,32.249,145.093)"
       style="font-variant:normal;font-weight:normal;font-size:14px;font-family:Helvetica;-inkscape-font-specification:Helvetica;writing-mode:lr-tb;fill:#211c1d;fill-opacity:1;fill-rule:nonzero;stroke:none"
       id="text164"><tspan
         x="0 7.1820002 10.08"
         y="0"
         sodipodi:role="line"
         id="tspan162">0.5</tspan></text>
<g
       id="g166"
       transform="scale(0.1)"><g
         id="g168"
         clip-path="url(#clipPath172)"><g
           id="g174"
           transform="translate(3800,2144.1699)"><path
             d="m 0,0 h -33.33 m -3220.834,0 h 32.5"
             style="fill:none;stroke:#231f20;stroke-width:5;stroke-linecap:butt;stroke-linejoin:round;stroke-miterlimit:10;stroke-dasharray:none;stroke-opacity:1"
             id="path176"
             inkscape:connector-curvature="0" /></g></g></g><text
       transform="matrix(1,0,0,-1,43.915,209.251)"
       style="font-variant:normal;font-weight:normal;font-size:14px;font-family:Helvetica;-inkscape-font-specification:Helvetica;writing-mode:lr-tb;fill:#211c1d;fill-opacity:1;fill-rule:nonzero;stroke:none"
       id="text180"><tspan
         x="0"
         y="0"
         id="tspan178">1</tspan></text>
<g
       id="g182"
       transform="scale(0.1)"><g
         id="g184"
         clip-path="url(#clipPath188)"><g
           id="g190"
           transform="translate(3800,2785.8401)"><path
             d="m 0,0 h -33.33 m -3220.834,0 h 32.5"
             style="fill:none;stroke:#231f20;stroke-width:5;stroke-linecap:butt;stroke-linejoin:round;stroke-miterlimit:10;stroke-dasharray:none;stroke-opacity:1"
             id="path192"
             inkscape:connector-curvature="0" /></g></g></g><text
       transform="matrix(1,0,0,-1,32.249,273.421)"
       style="font-variant:normal;font-weight:normal;font-size:14px;font-family:Helvetica;-inkscape-font-specification:Helvetica;writing-mode:lr-tb;fill:#211c1d;fill-opacity:1;fill-rule:nonzero;stroke:none"
       id="text196"><tspan
         x="0 7.1820002 10.08"
         y="0"
         sodipodi:role="line"
         id="tspan194">1.5</tspan></text>
<g
       id="g198"
       transform="scale(0.1)"><g
         id="g200"
         clip-path="url(#clipPath204)"><g
           id="g206"
           transform="translate(545.836,346.672)"><path
             d="M 0,0 V 2567.488 M 3254.164,0 V 2567.488 M 0,0 H 3254.164 M 0,2567.488 h 3254.164"
             style="fill:none;stroke:#231f20;stroke-width:5;stroke-linecap:butt;stroke-linejoin:round;stroke-miterlimit:10;stroke-dasharray:none;stroke-opacity:1"
             id="path208"
             inkscape:connector-curvature="0" /></g></g></g><g
       id="g210"
       transform="scale(0.1)"><g
         id="g212"
         clip-path="url(#clipPath216)"><g
           id="g218"
           transform="translate(545.836,860.828)"><path
             d="m 0,0 10.828,-69.156 m 0,0 10.836,-58.344 10.836,-47.5 10.828,-38.328 10.836,-27.5 10.836,-17.5 10.828,-9.172 10.836,0.844 10.836,9.156 10.828,17.5 10.836,25.844 10.836,33.328 10.836,39.172 10.828,46.656 10.836,51.672 10.836,57.5 10.828,62.5 10.836,66.67 10.836,70 10.828,73.33 10.836,75.83 10.836,77.5 10.828,80 10.836,80.84 10.836,80.83 10.828,80.83 10.836,80.84 10.836,80 10.828,78.33 10.836,76.67 10.836,75 10.828,72.5 10.836,69.99 10.836,66.68 10.828,64.16 10.836,60 10.836,56.66 10.828,52.5 10.836,49.18 10.836,45 10.828,40 10.83,36.66 10.84,32.5 10.83,27.5 10.83,24.16 10.84,19.18 10.83,15.82 10.83,10.84 10.84,7.5 10.83,4.16 h 10.83 l 10.84,-4.16 10.83,-6.66 10.83,-10 10.84,-13.34 10.83,-15.84 10.83,-18.32 10.84,-20.84 10.83,-23.34 11.67,-25 10.83,-26.66 10.83,-28.34 10.84,-29.16 10.83,-30.84 10.83,-30.82 10.84,-32.5 10.83,-31.68 10.83,-33.32 10.84,-32.5 10.83,-32.5 10.83,-31.68 10.84,-31.66 10.83,-31.66 10.83,-30 10.84,-29.18 10.83,-28.33 10.83,-26.66 10.84,-25.84 10.83,-24.16 10.83,-23.34 10.84,-21.66 10.83,-19.17 10.83,-18.33 10.84,-16.67 10.83,-14.17 10.83,-13.33 10.84,-11.67 10.83,-9.16 10.83,-8.34 10.84,-5.83 10.83,-5 10.83,-3.33 10.84,-1.67 h 10.83 l 10.83,1.67 10.84,2.5 10.83,4.16 10.83,5 10.84,6.67 10.83,7.5 10.83,8.33 10.84,9.17 10.83,10 10.83,10.83 10.84,10.84 10.83,11.66 10.83,12.5 10.84,12.5 10.83,13.34 10.83,12.5 10.84,13.33 10.83,13.33 10.83,13.34 10.84,12.5 10.83,13.33 10.83,12.5 10.84,11.67 10.83,11.66 10.83,11.67 11.67,10.84 10.83,10.82 10.84,9.18 10.83,10 10.83,8.32 10.84,8.34 10.83,6.66 10.83,6.68 10.84,6.66 10.83,5 10.83,4.16 10.84,4.18 10.83,3.32 10.83,2.5 10.84,1.68 10.83,1.66 10.83,0.84 h 10.84 l 10.83,-0.84 10.83,-0.84 10.84,-1.66 10.83,-1.66 10.83,-2.5 10.84,-3.34 10.83,-3.34 10.83,-3.32 10.84,-4.18 10.83,-4.16 10.84,-5 10.83,-5 10.83,-5 10.83,-5 10.84,-5 10.83,-5 10.83,-5.84 10.84,-5 10.83,-5 10.84,-5 10.83,-5.82 10.83,-5 10.83,-5 10.84,-4.17 10.83,-5 10.83,-4.17 10.84,-4.17 10.83,-4.16 10.83,-3.34 10.84,-4.16 10.83,-3.34 10.83,-2.5 10.84,-2.5 10.83,-2.5 10.83,-2.5 10.84,-1.66 10.83,-1.67 10.83,-1.67 10.84,-0.83 10.83,-0.83 h 10.83 l 10.84,-0.84 h 22.5 l 10.83,0.84 10.83,0.83 10.84,0.83 10.83,0.84 10.83,0.83 10.84,1.67 10.83,1.66 10.83,1.67 10.84,1.67 10.83,1.66 10.83,1.67 10.84,2.5 10.83,1.67 10.83,2.5 10.84,1.66 10.83,2.5 10.83,1.67 10.84,2.5 10.83,1.67 10.83,2.5 10.84,1.66 10.83,2.5 10.83,1.67 10.84,1.67 10.83,1.66 10.83,1.67 10.84,1.67 10.83,1.67 10.83,1.66 10.84,0.84 10.83,1.66 10.83,0.84 10.84,0.82 10.83,0.84 10.83,0.84 10.84,0.82 10.83,0.84 h 10.83 l 10.84,0.84 h 54.16 l 10.84,-0.84 h 10.83 l 10.83,-0.84 h 10.84 l 10.83,-0.82 h 10.83 l 10.84,-0.84 10.83,-0.84 10.83,-0.82 10.84,-0.84 10.83,-0.84 10.83,-0.82 10.84,-0.84 10.83,-0.84 10.83,-0.82 11.67,-0.84 10.83,-0.83 10.84,-0.84 10.83,-0.83 10.83,-0.83 10.84,-0.84 10.83,-0.83 10.83,-0.83 10.84,-0.84 h 10.83 l 10.83,-0.83 10.84,-0.83 10.83,-0.84 h 10.83 l 10.84,-0.83 h 10.83 l 10.83,-0.83 h 10.84 l 10.83,-0.84 h 32.5 l 10.83,-0.83 h 65.01 l 10.83,0.83 h 32.5 l 10.83,0.84 h 21.67 l 10.83,0.83 h 21.67 l 10.83,0.83 h 10.84 l 10.83,0.84 h 21.67 l 10.83,0.83 h 10.83 l 10.84,0.83 h 21.66 l 10.84,0.84 h 21.66 l 10.84,0.83 h 21.66 l 10.84,0.83 h 32.5 l 11.66,0.84"
             style="fill:none;stroke:#3b4ba7;stroke-width:30;stroke-linecap:butt;stroke-linejoin:round;stroke-miterlimit:10;stroke-dasharray:none;stroke-opacity:1"
             id="path220"
             inkscape:connector-curvature="0" /></g></g></g><text
       transform="matrix(0,1,1,0,24.5789,115.171)"
       style="font-variant:normal;font-weight:normal;font-size:14px;font-family:Helvetica;-inkscape-font-specification:Helvetica;writing-mode:lr-tb;fill:#211c1d;fill-opacity:1;fill-rule:nonzero;stroke:none"
       id="text224"><tspan
         x="0 6.902 11.536 18.549999 26.516001 29.483999 37.015999 44.029999 49.574001 57.540001 65.225998 72.996002 78.540001"
         y="0"
         sodipodi:role="line"
         id="tspan222">Step Response</tspan></text>
<text
       transform="matrix(1,0,0,-1,178.415,3.999)"
       style="font-variant:normal;font-weight:normal;font-size:14px;font-family:Helvetica;-inkscape-font-specification:Helvetica;writing-mode:lr-tb;fill:#211c1d;fill-opacity:1;fill-rule:nonzero;stroke:none"
       id="text228"><tspan
         x="0 6.9580002 10.234 21.91 28.924 31.822001 34.790001 39.424 42.391998 46.368 51.911999 58.925999 65.197998"
         y="0"
         sodipodi:role="line"
         id="tspan226">Time, t (sec)</tspan></text>
</g></svg>