<?xml version="1.0" encoding="UTF-8" standalone="no"?>
<!-- Created with Inkscape (http://www.inkscape.org/) -->

<svg
   xmlns:dc="http://purl.org/dc/elements/1.1/"
   xmlns:cc="http://creativecommons.org/ns#"
   xmlns:rdf="http://www.w3.org/1999/02/22-rdf-syntax-ns#"
   xmlns:svg="http://www.w3.org/2000/svg"
   xmlns="http://www.w3.org/2000/svg"
   xmlns:sodipodi="http://sodipodi.sourceforge.net/DTD/sodipodi-0.dtd"
   xmlns:inkscape="http://www.inkscape.org/namespaces/inkscape"
   version="1.1"
   id="svg2"
   xml:space="preserve"
   width="674.07318"
   height="207.40529"
   viewBox="0 0 674.07318 207.40529"
   sodipodi:docname="2-closed-loop-disturbance.svg"
   inkscape:version="0.92.0 r15299"><metadata
     id="metadata8"><rdf:RDF><cc:Work
         rdf:about=""><dc:format>image/svg+xml</dc:format><dc:type
           rdf:resource="http://purl.org/dc/dcmitype/StillImage" /><dc:title></dc:title></cc:Work></rdf:RDF></metadata><defs
     id="defs6"><clipPath
       clipPathUnits="userSpaceOnUse"
       id="clipPath18"><path
         d="M 0,1327.14 V 0 h 5337.1 v 1327.14 z"
         id="path16"
         inkscape:connector-curvature="0" /></clipPath><clipPath
       clipPathUnits="userSpaceOnUse"
       id="clipPath72"><path
         d="M 0,1327.14 V 0 h 5337.1 v 1327.14 z"
         id="path70"
         inkscape:connector-curvature="0" /></clipPath><clipPath
       clipPathUnits="userSpaceOnUse"
       id="clipPath104"><path
         d="M 0,1327.14 V 0 h 5337.1 v 1327.14 z"
         id="path102"
         inkscape:connector-curvature="0" /></clipPath><marker
       inkscape:isstock="true"
       style="overflow:visible"
       id="marker1775"
       refX="0"
       refY="0"
       orient="auto"
       inkscape:stockid="Arrow1Mend"><path
         transform="matrix(-0.4,0,0,-0.4,-4,0)"
         style="fill:#214478;fill-opacity:1;fill-rule:evenodd;stroke:#214478;stroke-width:1.00000003pt;stroke-opacity:1"
         d="M 0,0 5,-5 -12.5,0 5,5 Z"
         id="path1773"
         inkscape:connector-curvature="0" /></marker><marker
       inkscape:stockid="Arrow1Mend"
       orient="auto"
       refY="0"
       refX="0"
       id="Arrow1Mend-8-3-4-3"
       style="overflow:visible"
       inkscape:isstock="true"><path
         id="path4554-20-3-2-5"
         d="M 0,0 5,-5 -12.5,0 5,5 Z"
         style="fill:#214478;fill-opacity:1;fill-rule:evenodd;stroke:#214478;stroke-width:1.00000003pt;stroke-opacity:1"
         transform="matrix(-0.4,0,0,-0.4,-4,0)"
         inkscape:connector-curvature="0" /></marker><marker
       inkscape:stockid="Arrow1Mend"
       orient="auto"
       refY="0"
       refX="0"
       id="Arrow1Mend-8-3-4"
       style="overflow:visible"
       inkscape:isstock="true"><path
         id="path4554-20-3-2"
         d="M 0,0 5,-5 -12.5,0 5,5 Z"
         style="fill:#214478;fill-opacity:1;fill-rule:evenodd;stroke:#214478;stroke-width:1.00000003pt;stroke-opacity:1"
         transform="matrix(-0.4,0,0,-0.4,-4,0)"
         inkscape:connector-curvature="0" /></marker><marker
       inkscape:stockid="Arrow1Mend"
       orient="auto"
       refY="0"
       refX="0"
       id="Arrow1Mend-8-3"
       style="overflow:visible"
       inkscape:isstock="true"><path
         id="path4554-20-3"
         d="M 0,0 5,-5 -12.5,0 5,5 Z"
         style="fill:#214478;fill-opacity:1;fill-rule:evenodd;stroke:#214478;stroke-width:1.00000003pt;stroke-opacity:1"
         transform="matrix(-0.4,0,0,-0.4,-4,0)"
         inkscape:connector-curvature="0" /></marker><marker
       inkscape:stockid="Arrow1Mend"
       orient="auto"
       refY="0"
       refX="0"
       id="Arrow1Mend-8"
       style="overflow:visible"
       inkscape:isstock="true"><path
         id="path4554-20"
         d="M 0,0 5,-5 -12.5,0 5,5 Z"
         style="fill:#214478;fill-opacity:1;fill-rule:evenodd;stroke:#214478;stroke-width:1.00000003pt;stroke-opacity:1"
         transform="matrix(-0.4,0,0,-0.4,-4,0)"
         inkscape:connector-curvature="0" /></marker><marker
       inkscape:stockid="Arrow1Mend"
       orient="auto"
       refY="0"
       refX="0"
       id="Arrow1Mend-2-4"
       style="overflow:visible"
       inkscape:isstock="true"><path
         id="path4554-0-5"
         d="M 0,0 5,-5 -12.5,0 5,5 Z"
         style="fill:#214478;fill-opacity:1;fill-rule:evenodd;stroke:#214478;stroke-width:1.00000003pt;stroke-opacity:1"
         transform="matrix(-0.4,0,0,-0.4,-4,0)"
         inkscape:connector-curvature="0" /></marker><marker
       inkscape:stockid="Arrow1Mend"
       orient="auto"
       refY="0"
       refX="0"
       id="Arrow1Mend-2"
       style="overflow:visible"
       inkscape:isstock="true"><path
         id="path4554-0"
         d="M 0,0 5,-5 -12.5,0 5,5 Z"
         style="fill:#214478;fill-opacity:1;fill-rule:evenodd;stroke:#214478;stroke-width:1.00000003pt;stroke-opacity:1"
         transform="matrix(-0.4,0,0,-0.4,-4,0)"
         inkscape:connector-curvature="0" /></marker></defs><sodipodi:namedview
     pagecolor="#ffffff"
     bordercolor="#666666"
     borderopacity="1"
     objecttolerance="10"
     gridtolerance="10"
     guidetolerance="10"
     inkscape:pageopacity="0"
     inkscape:pageshadow="2"
     inkscape:window-width="1600"
     inkscape:window-height="847"
     id="namedview4"
     showgrid="false"
     fit-margin-top="0"
     fit-margin-left="0"
     fit-margin-right="0"
     fit-margin-bottom="0"
     inkscape:zoom="0.63211061"
     inkscape:cx="416.42229"
     inkscape:cy="256.65269"
     inkscape:window-x="-8"
     inkscape:window-y="-8"
     inkscape:window-maximized="1"
     inkscape:current-layer="g10"
     showguides="true"
     inkscape:guide-bbox="true"
     inkscape:snap-bbox="true"
     inkscape:snap-bbox-edge-midpoints="false"
     inkscape:snap-bbox-midpoints="true"><sodipodi:guide
       position="700.7943,97.740323"
       orientation="0,1"
       id="guide5166"
       inkscape:locked="false" /></sodipodi:namedview><g
     id="g10"
     inkscape:groupmode="layer"
     inkscape:label="A9Rs682kd_1shfhtu_5oc"
     transform="matrix(1.3333333,0,0,-1.3333333,15.2922,-2.5515299)"><path
       d="m 301.32775,-104.21762 h 75.00199 v 40.000002 h -75.00199 z"
       style="fill:#d5e5ff;fill-opacity:1;stroke:#214478;stroke-width:1.5;stroke-linecap:butt;stroke-linejoin:miter;stroke-miterlimit:10;stroke-dasharray:none;stroke-opacity:1"
       id="path22-6"
       inkscape:connector-curvature="0" /><path
       d="m 156.82974,-104.21762 h 75.00081 v 40.000002 h -75.00081 z"
       style="fill:#d5e5ff;fill-opacity:1;stroke:#214478;stroke-width:1.5;stroke-linecap:butt;stroke-linejoin:miter;stroke-miterlimit:10;stroke-dasharray:none;stroke-opacity:1"
       id="path26-3"
       inkscape:connector-curvature="0" /><path
       style="fill:none;stroke:#214478;stroke-width:1.5;stroke-linecap:butt;stroke-linejoin:miter;stroke-miterlimit:4;stroke-dasharray:none;stroke-opacity:1;marker-end:url(#Arrow1Mend-8)"
       d="M -11.46915,-84.217617 H 57.746955"
       id="path4543-0"
       inkscape:connector-curvature="0"
       sodipodi:nodetypes="cc" /><path
       style="fill:none;stroke:#214478;stroke-width:1.5;stroke-linecap:butt;stroke-linejoin:miter;stroke-miterlimit:4;stroke-dasharray:none;stroke-opacity:1;marker-end:url(#Arrow1Mend-8-3)"
       d="M 84.484295,-84.21762 H 153.28089"
       id="path4543-0-0"
       inkscape:connector-curvature="0"
       sodipodi:nodetypes="cc" /><path
       style="fill:none;stroke:#214478;stroke-width:1.5;stroke-linecap:butt;stroke-linejoin:miter;stroke-miterlimit:4;stroke-dasharray:none;stroke-opacity:1;marker-end:url(#Arrow1Mend-8-3-4)"
       d="m 231.60083,-84.217617 h 66.69915"
       id="path4543-0-0-6"
       inkscape:connector-curvature="0" /><path
       style="fill:none;stroke:#214478;stroke-width:1.5;stroke-linecap:butt;stroke-linejoin:miter;stroke-miterlimit:4;stroke-dasharray:none;stroke-opacity:1;marker-end:url(#Arrow1Mend-8-3-4-3)"
       d="m 442.90769,-84.217617 h 48.22204"
       id="path4543-0-0-6-1"
       inkscape:connector-curvature="0"
       sodipodi:nodetypes="cc" /><circle
       style="opacity:1;fill:#214478;fill-opacity:1;stroke:#214478;stroke-width:1.5;stroke-linecap:round;stroke-linejoin:miter;stroke-miterlimit:4;stroke-dasharray:none;stroke-dashoffset:0;stroke-opacity:1;paint-order:stroke markers fill"
       id="path6214"
       cx="458.71152"
       cy="84.162376"
       r="1.6314392"
       transform="scale(1,-1)" /><path
       style="fill:none;stroke:#214478;stroke-width:1.5;stroke-linecap:butt;stroke-linejoin:miter;stroke-miterlimit:4;stroke-dasharray:none;stroke-opacity:1;marker-end:url(#marker1775)"
       d="M 458.71805,-84.217616 V -156.71762 H 72.581745 v 57.53056"
       id="path1765"
       inkscape:connector-curvature="0"
       sodipodi:nodetypes="cccc" /><text
       xml:space="preserve"
       style="font-style:normal;font-variant:normal;font-weight:normal;font-stretch:normal;font-size:30px;line-height:1.25;font-family:'CMU Sans Serif';-inkscape-font-specification:'CMU Sans Serif';letter-spacing:0px;word-spacing:0px;fill:#214478;fill-opacity:1;stroke:none;stroke-width:0.75"
       x="324.42126"
       y="93.877625"
       id="text5223-1-8"
       transform="scale(1,-1)"><tspan
         sodipodi:role="line"
         id="tspan5221-6-2"
         x="324.42126"
         y="93.877625"
         style="font-style:normal;font-variant:normal;font-weight:normal;font-stretch:normal;font-family:'CMU Serif';-inkscape-font-specification:'CMU Serif';letter-spacing:-2.65499997px;fill:#214478;fill-opacity:1;stroke-width:0.75">10</tspan></text>
<text
       xml:space="preserve"
       style="font-style:normal;font-variant:normal;font-weight:normal;font-stretch:normal;font-size:30px;line-height:1.25;font-family:'CMU Sans Serif';-inkscape-font-specification:'CMU Sans Serif';letter-spacing:0px;word-spacing:0px;fill:#214478;fill-opacity:1;stroke:none;stroke-width:0.75"
       x="186.84515"
       y="93.877625"
       id="text5223-1-8-3"
       transform="scale(1,-1)"><tspan
         sodipodi:role="line"
         id="tspan5221-6-2-0"
         x="186.84515"
         y="93.877625"
         style="font-style:normal;font-variant:normal;font-weight:normal;font-stretch:normal;font-family:'CMU Serif';-inkscape-font-specification:'CMU Serif';letter-spacing:-2.65499997px;fill:#214478;fill-opacity:1;stroke-width:0.75">5</tspan></text>
<text
       xml:space="preserve"
       style="font-style:normal;font-variant:normal;font-weight:normal;font-stretch:normal;font-size:30px;line-height:37.5px;font-family:'CMU Sans Serif';-inkscape-font-specification:'CMU Sans Serif';letter-spacing:0px;word-spacing:0px;fill:#214478;fill-opacity:1;stroke:none;stroke-width:0.75"
       x="7.2000279"
       y="78.163551"
       id="text5149-6"
       transform="scale(1,-1)"><tspan
         sodipodi:role="line"
         id="tspan5147-63"
         x="7.2000279"
         y="78.163551"
         style="font-style:italic;font-variant:normal;font-weight:500;font-stretch:normal;line-height:37.5px;font-family:'CMU Serif';-inkscape-font-specification:'CMU Serif Medium Italic';fill:#214478;fill-opacity:1;stroke-width:0.75">r</tspan></text>
<text
       xml:space="preserve"
       style="font-style:normal;font-variant:normal;font-weight:normal;font-stretch:normal;font-size:30px;line-height:37.5px;font-family:'CMU Sans Serif';-inkscape-font-specification:'CMU Sans Serif';letter-spacing:0px;word-spacing:0px;fill:#214478;fill-opacity:1;stroke:none;stroke-width:0.75"
       x="108.02919"
       y="78.163551"
       id="text5149-7"
       transform="scale(1,-1)"><tspan
         sodipodi:role="line"
         id="tspan5147-0"
         x="108.02919"
         y="78.163551"
         style="font-style:italic;font-variant:normal;font-weight:500;font-stretch:normal;line-height:37.5px;font-family:'CMU Serif';-inkscape-font-specification:'CMU Serif Medium Italic';fill:#214478;fill-opacity:1;stroke-width:0.75">e</tspan></text>
<text
       xml:space="preserve"
       style="font-style:normal;font-variant:normal;font-weight:normal;font-stretch:normal;font-size:30px;line-height:1.25;font-family:'CMU Sans Serif';-inkscape-font-specification:'CMU Sans Serif';letter-spacing:0px;word-spacing:0px;fill:#214478;fill-opacity:1;stroke:none;stroke-width:0.75"
       x="265.09747"
       y="78.163551"
       id="text5149-2-5"
       transform="scale(1,-1)"><tspan
         sodipodi:role="line"
         id="tspan5147-6-23"
         x="265.09747"
         y="78.163551"
         style="font-style:italic;font-variant:normal;font-weight:500;font-stretch:normal;font-family:'CMU Serif';-inkscape-font-specification:'CMU Serif Medium Italic';fill:#214478;fill-opacity:1;stroke-width:0.75">u</tspan></text>
<text
       xml:space="preserve"
       style="font-style:normal;font-variant:normal;font-weight:normal;font-stretch:normal;font-size:30px;line-height:1.25;font-family:'CMU Sans Serif';-inkscape-font-specification:'CMU Sans Serif';letter-spacing:0px;word-spacing:0px;fill:#214478;fill-opacity:1;stroke:none;stroke-width:0.75"
       x="462.02325"
       y="75.25354"
       id="text5149-2-3-5"
       transform="scale(1,-1)"><tspan
         sodipodi:role="line"
         id="tspan5147-6-4-4"
         x="462.02325"
         y="75.25354"
         style="font-style:italic;font-variant:normal;font-weight:500;font-stretch:normal;font-family:'CMU Serif';-inkscape-font-specification:'CMU Serif Medium Italic';fill:#214478;fill-opacity:1;stroke-width:0.75">y</tspan></text>
<text
       xml:space="preserve"
       style="font-style:normal;font-weight:normal;font-size:30px;line-height:16.5px;font-family:sans-serif;letter-spacing:0px;word-spacing:0px;fill:#214478;fill-opacity:1;stroke:none;stroke-width:0.75"
       x="78.307083"
       y="121.34382"
       id="text2069-4"
       transform="scale(1,-1)"><tspan
         sodipodi:role="line"
         id="tspan2067-7"
         x="78.307083"
         y="121.34382"
         style="font-style:normal;font-variant:normal;font-weight:normal;font-stretch:normal;font-size:22px;font-family:'CMU Sans Serif';-inkscape-font-specification:'CMU Sans Serif';fill:#214478;fill-opacity:1;stroke-width:0.75">–</tspan></text>
<path
       id="path2092"
       d="m 60.581835,-84.247617 c 0,-6.59995 5.39996,-11.939911 11.99991,-11.939911 6.65995,0 11.99991,5.339961 11.99991,11.939911 0,6.659947 -5.33996,11.999909 -11.99991,11.999909 -6.59995,0 -11.99991,-5.339962 -11.99991,-11.999909 z"
       style="fill:#ffffff;fill-opacity:1;fill-rule:nonzero;stroke:none;stroke-width:0.75"
       inkscape:connector-curvature="0" /><path
       id="path2094"
       d="m 60.581835,-84.247617 c 0,-6.59995 5.39996,-11.939911 11.99991,-11.939911 6.65995,0 11.99991,5.339961 11.99991,11.939911 0,6.659947 -5.33996,11.999909 -11.99991,11.999909 -6.59995,0 -11.99991,-5.339962 -11.99991,-11.999909 z"
       style="fill:#80b3ff;fill-opacity:1;fill-rule:nonzero;stroke:#214478;stroke-width:1.49998891px;stroke-linecap:butt;stroke-linejoin:miter;stroke-miterlimit:4;stroke-dasharray:none;stroke-opacity:1"
       inkscape:connector-curvature="0" /><path
       id="path2096"
       d="m 66.761785,-84.607608 c -0.06,0.119991 -0.12,0.239991 -0.12,0.419991 0,0.12 0,0.24 0.12,0.3 0.06,0.12 0.18,0.18 0.24,0.18 0.12,0.06 0.24,0.06 0.48,0.06 h 4.61996 v 4.619957 c 0,0.54 0.18,0.78 0.54,0.78 0.36,0 0.53999,-0.24 0.53999,-0.78 v -4.619957 h 4.67997 c 0.48,0 0.71999,-0.18 0.71999,-0.54 0,-0.36 -0.23999,-0.539991 -0.71999,-0.539991 h -4.67997 v -4.67997 c 0,-0.53999 -0.17999,-0.779989 -0.53999,-0.779989 -0.18,0 -0.3,0 -0.36,0.12 -0.12,0.06 -0.18,0.179989 -0.18,0.299989 0,0 0,0.18 0,0.36 v 4.67997 h -4.67996 c -0.06,-0.06 -0.06,-0.06 -0.12,-0.06 -0.24,0 -0.42,0.06 -0.54,0.18 z"
       style="fill:#214478;fill-opacity:1;fill-rule:nonzero;stroke:none;stroke-width:0.75"
       inkscape:connector-curvature="0" /><path
       id="path4679"
       d="m 418.61087,-84.192386 c 0,-6.59994 5.39996,-11.93991 11.99991,-11.93991 6.65995,0 11.99991,5.33997 11.99991,11.93991 0,6.65995 -5.33996,11.99991 -11.99991,11.99991 -6.59995,0 -11.99991,-5.33996 -11.99991,-11.99991 z"
       style="fill:#ffffff;fill-opacity:1;fill-rule:nonzero;stroke:none;stroke-width:0.75"
       inkscape:connector-curvature="0" /><path
       id="path4681"
       d="m 418.61087,-84.192386 c 0,-6.59994 5.39996,-11.93991 11.99991,-11.93991 6.65995,0 11.99991,5.33997 11.99991,11.93991 0,6.65995 -5.33996,11.99991 -11.99991,11.99991 -6.59995,0 -11.99991,-5.33996 -11.99991,-11.99991 z"
       style="fill:#80b3ff;fill-opacity:1;fill-rule:nonzero;stroke:#214478;stroke-width:1.49998891px;stroke-linecap:butt;stroke-linejoin:miter;stroke-miterlimit:4;stroke-dasharray:none;stroke-opacity:1"
       inkscape:connector-curvature="0" /><path
       id="path4683"
       d="m 424.79083,-84.552376 c -0.06,0.11999 -0.12,0.23999 -0.12,0.41999 0,0.12 0,0.24 0.12,0.3 0.06,0.12 0.17999,0.18 0.23999,0.18 0.12,0.06 0.24,0.06 0.48,0.06 h 4.61997 v 4.61997 c 0,0.54 0.17999,0.78 0.53999,0.78 0.36,0 0.54,-0.24 0.54,-0.78 v -4.61997 h 4.67996 c 0.48,0 0.72,-0.18 0.72,-0.54 0,-0.36 -0.24,-0.53999 -0.72,-0.53999 h -4.67996 v -4.67997 c 0,-0.53999 -0.18,-0.77999 -0.54,-0.77999 -0.18,0 -0.3,0 -0.36,0.12 -0.11999,0.06 -0.17999,0.18 -0.17999,0.3 0,0 0,0.18 0,0.35999 v 4.67997 h -4.67997 c -0.06,-0.06 -0.06,-0.06 -0.12,-0.06 -0.24,0 -0.42,0.06 -0.53999,0.18 z"
       style="fill:#214478;fill-opacity:1;fill-rule:nonzero;stroke:none;stroke-width:0.75"
       inkscape:connector-curvature="0" /><path
       style="fill:none;stroke:#214478;stroke-width:1.5;stroke-linecap:butt;stroke-linejoin:miter;stroke-miterlimit:4;stroke-dasharray:none;stroke-opacity:1;marker-end:url(#Arrow1Mend-2)"
       d="m 375.65605,-84.162376 h 40.00288"
       id="path4543-6-3"
       inkscape:connector-curvature="0"
       sodipodi:nodetypes="cc" /><path
       style="fill:none;stroke:#214478;stroke-width:1.5;stroke-linecap:butt;stroke-linejoin:miter;stroke-miterlimit:4;stroke-dasharray:none;stroke-opacity:1;marker-end:url(#Arrow1Mend-2-4)"
       d="M 430.78345,-1.9136475 V -68.612798"
       id="path4543-6-3-7"
       inkscape:connector-curvature="0" /><text
       xml:space="preserve"
       style="font-style:normal;font-variant:normal;font-weight:normal;font-stretch:normal;font-size:30px;line-height:37.5px;font-family:'CMU Sans Serif';-inkscape-font-specification:'CMU Sans Serif';letter-spacing:0px;word-spacing:0px;fill:#214478;fill-opacity:1;stroke:none;stroke-width:0.75"
       x="434.42377"
       y="30.040817"
       id="text5149-2-3-3"
       transform="scale(1,-1)"><tspan
         sodipodi:role="line"
         id="tspan5147-6-4-1"
         x="434.42377"
         y="30.040817"
         style="font-style:italic;font-variant:normal;font-weight:500;font-stretch:normal;line-height:37.5px;font-family:'CMU Serif';-inkscape-font-specification:'CMU Serif Medium Italic';fill:#214478;fill-opacity:1;stroke-width:0.75">d</tspan></text>
</g></svg>