<?xml version="1.0" encoding="UTF-8" standalone="no"?>
<!-- Created with Inkscape (http://www.inkscape.org/) -->

<svg
   xmlns:dc="http://purl.org/dc/elements/1.1/"
   xmlns:cc="http://creativecommons.org/ns#"
   xmlns:rdf="http://www.w3.org/1999/02/22-rdf-syntax-ns#"
   xmlns:svg="http://www.w3.org/2000/svg"
   xmlns="http://www.w3.org/2000/svg"
   xmlns:sodipodi="http://sodipodi.sourceforge.net/DTD/sodipodi-0.dtd"
   xmlns:inkscape="http://www.inkscape.org/namespaces/inkscape"
   version="1.1"
   id="svg2"
   xml:space="preserve"
   width="568.01447"
   height="160.62941"
   viewBox="0 0 568.01446 160.62941"
   sodipodi:docname="2-open-loop-disturbance.svg"
   inkscape:version="0.92.0 r15299"><metadata
     id="metadata8"><rdf:RDF><cc:Work
         rdf:about=""><dc:format>image/svg+xml</dc:format><dc:type
           rdf:resource="http://purl.org/dc/dcmitype/StillImage" /><dc:title></dc:title></cc:Work></rdf:RDF></metadata><defs
     id="defs6"><clipPath
       clipPathUnits="userSpaceOnUse"
       id="clipPath18"><path
         d="M 0,1185.48 V 0 h 5349.19 v 1185.48 z"
         id="path16"
         inkscape:connector-curvature="0" /></clipPath><clipPath
       clipPathUnits="userSpaceOnUse"
       id="clipPath68"><path
         d="M 0,1185.48 V 0 h 5349.19 v 1185.48 z"
         id="path66"
         inkscape:connector-curvature="0" /></clipPath><clipPath
       clipPathUnits="userSpaceOnUse"
       id="clipPath92"><path
         d="M 0,1185.48 V 0 h 5349.19 v 1185.48 z"
         id="path90"
         inkscape:connector-curvature="0" /></clipPath><pattern
       y="0"
       x="0"
       height="6"
       width="6"
       patternUnits="userSpaceOnUse"
       id="EMFhbasepattern" /><pattern
       y="0"
       x="0"
       height="6"
       width="6"
       patternUnits="userSpaceOnUse"
       id="EMFhbasepattern-3" /><marker
       inkscape:stockid="Arrow1Mend"
       orient="auto"
       refY="0"
       refX="0"
       id="Arrow1Mend"
       style="overflow:visible"
       inkscape:isstock="true"><path
         id="path4554"
         d="M 0,0 5,-5 -12.5,0 5,5 Z"
         style="fill:#214478;fill-opacity:1;fill-rule:evenodd;stroke:#214478;stroke-width:1.00000003pt;stroke-opacity:1"
         transform="matrix(-0.4,0,0,-0.4,-4,0)"
         inkscape:connector-curvature="0" /></marker><marker
       inkscape:stockid="Arrow1Mend"
       orient="auto"
       refY="0"
       refX="0"
       id="Arrow1Mend-3"
       style="overflow:visible"
       inkscape:isstock="true"><path
         id="path4554-3"
         d="M 0,0 5,-5 -12.5,0 5,5 Z"
         style="fill:#214478;fill-opacity:1;fill-rule:evenodd;stroke:#214478;stroke-width:1.00000003pt;stroke-opacity:1"
         transform="matrix(-0.4,0,0,-0.4,-4,0)"
         inkscape:connector-curvature="0" /></marker><marker
       inkscape:stockid="Arrow1Mend"
       orient="auto"
       refY="0"
       refX="0"
       id="Arrow1Mend-2"
       style="overflow:visible"
       inkscape:isstock="true"><path
         id="path4554-0"
         d="M 0,0 5,-5 -12.5,0 5,5 Z"
         style="fill:#214478;fill-opacity:1;fill-rule:evenodd;stroke:#214478;stroke-width:1.00000003pt;stroke-opacity:1"
         transform="matrix(-0.4,0,0,-0.4,-4,0)"
         inkscape:connector-curvature="0" /></marker><marker
       inkscape:stockid="Arrow1Mend"
       orient="auto"
       refY="0"
       refX="0"
       id="Arrow1Mend-2-4"
       style="overflow:visible"
       inkscape:isstock="true"><path
         id="path4554-0-5"
         d="M 0,0 5,-5 -12.5,0 5,5 Z"
         style="fill:#214478;fill-opacity:1;fill-rule:evenodd;stroke:#214478;stroke-width:1.00000003pt;stroke-opacity:1"
         transform="matrix(-0.4,0,0,-0.4,-4,0)"
         inkscape:connector-curvature="0" /></marker><marker
       inkscape:stockid="Arrow1Mend"
       orient="auto"
       refY="0"
       refX="0"
       id="Arrow1Mend-2-5"
       style="overflow:visible"
       inkscape:isstock="true"><path
         id="path4554-0-3"
         d="M 0,0 5,-5 -12.5,0 5,5 Z"
         style="fill:#214478;fill-opacity:1;fill-rule:evenodd;stroke:#214478;stroke-width:1.00000003pt;stroke-opacity:1"
         transform="matrix(-0.4,0,0,-0.4,-4,0)"
         inkscape:connector-curvature="0" /></marker></defs><sodipodi:namedview
     pagecolor="#ffffff"
     bordercolor="#666666"
     borderopacity="1"
     objecttolerance="10"
     gridtolerance="10"
     guidetolerance="10"
     inkscape:pageopacity="0"
     inkscape:pageshadow="2"
     inkscape:window-width="1600"
     inkscape:window-height="847"
     id="namedview4"
     showgrid="false"
     fit-margin-top="0"
     fit-margin-left="0"
     fit-margin-right="0"
     fit-margin-bottom="0"
     inkscape:zoom="1.2642212"
     inkscape:cx="250.15574"
     inkscape:cy="29.92815"
     inkscape:window-x="-8"
     inkscape:window-y="-8"
     inkscape:window-maximized="1"
     inkscape:current-layer="g10"
     showguides="true"
     inkscape:guide-bbox="true"
     inkscape:snap-bbox="true"
     inkscape:snap-bbox-midpoints="true"
     inkscape:lockguides="true"><sodipodi:guide
       position="378.93882,119.9355"
       orientation="0,1"
       id="guide4695"
       inkscape:locked="true" /><sodipodi:guide
       position="489.9661,82.77966"
       orientation="1,0"
       id="guide4697"
       inkscape:locked="true" /></sodipodi:namedview><g
     id="g10"
     inkscape:groupmode="layer"
     inkscape:label="A9R1gt4w3m_1shfhts_5oc"
     transform="matrix(1.3333333,0,0,-1.3333333,3.9251695,255.74844)"><path
       id="path4537"
       d="m 210.91237,72.08927 h 74.99944 v 40.0197 h -74.99944 z"
       style="fill:#d5e5ff;fill-opacity:1;fill-rule:nonzero;stroke:#214478;stroke-width:1.5;stroke-linecap:butt;stroke-linejoin:miter;stroke-miterlimit:4;stroke-dasharray:none;stroke-opacity:1"
       inkscape:connector-curvature="0" /><path
       id="path4541"
       d="m 66.433437,72.08927 h 74.999443 v 40.0197 H 66.433437 Z"
       style="fill:#ffffff;fill-opacity:1;fill-rule:nonzero;stroke:none;stroke-width:0.75"
       inkscape:connector-curvature="0" /><path
       id="path4543"
       d="m 66.433437,72.08927 h 74.999443 v 40.0197 H 66.433437 Z"
       style="fill:#d5e5ff;fill-opacity:1;fill-rule:nonzero;stroke:#214478;stroke-width:1.49998891px;stroke-linecap:butt;stroke-linejoin:miter;stroke-miterlimit:10;stroke-dasharray:none;stroke-opacity:1"
       inkscape:connector-curvature="0" /><path
       id="path4613"
       d="m 79.813339,101.72905 v 0.89999 c 2.399985,0 4.25997,0.66 5.459966,1.91999 0.35999,0 0.53999,0 0.59999,-0.12 0.06,-0.06 0.12,-0.3 0.12,-0.65999 V 86.96916 c 0,-0.6 0.12,-1.02 0.41999,-1.2 0.3,-0.17999 1.07999,-0.23999 2.33999,-0.23999 h 0.95999 v -0.96 c -0.65999,0.06 -2.27999,0.12 -4.859963,0.12 -2.519985,0 -4.13997,-0.06 -4.859963,-0.12 v 0.96 h 0.959993 c 1.259992,0 2.039985,0.06 2.339977,0.23999 0.3,0.18 0.48,0.6 0.48,1.2 v 15.53989 c -1.079992,-0.54 -2.339985,-0.78 -3.95997,-0.78 z"
       style="fill:#214478;fill-opacity:1;fill-rule:nonzero;stroke:none;stroke-width:0.75"
       inkscape:connector-curvature="0" /><path
       id="path4615"
       d="m 91.213255,77.48923 c 0,0.11999 0.06,0.29999 0.12,0.47999 l 10.619915,28.3198 c 0,0 0,0.06 0.06,0.18 0.06,0.11999 0.06,0.17999 0.12,0.23999 0,0.12 0.06,0.18 0.12,0.24 0.06,0.06 0.12,0.06 0.24,0.06 0.18,0 0.3,-0.12 0.3,-0.36 0,0 -0.06,-0.11999 -0.12,-0.35999 L 92.053245,77.96922 c -0.12,-0.36 -0.24,-0.53999 -0.3,-0.65999 -0.06,-0.12 -0.12,-0.18 -0.24,-0.18 -0.17999,0 -0.29999,0.12 -0.29999,0.36 z"
       style="fill:#214478;fill-opacity:1;fill-rule:nonzero;stroke:none;stroke-width:0.75"
       inkscape:connector-curvature="0" /><path
       id="path4617"
       d="m 104.53316,101.72905 v 0.89999 c 2.39998,0 4.19996,0.66 5.45995,1.91999 0.3,0 0.54,0 0.6,-0.12 0.06,-0.06 0.06,-0.3 0.06,-0.65999 V 86.96916 c 0,-0.6 0.18,-1.02 0.42,-1.2 0.3,-0.17999 1.07999,-0.23999 2.39998,-0.23999 h 0.95999 v -0.96 c -0.72,0.06 -2.33998,0.12 -4.85996,0.12 -2.57998,0 -4.19997,-0.06 -4.85997,-0.12 v 0.96 h 0.95999 c 1.26,0 2.03999,0.06 2.33999,0.23999 0.3,0.18 0.42,0.6 0.42,1.2 v 15.53989 c -1.01999,-0.54 -2.33999,-0.78 -3.89997,-0.78 z"
       style="fill:#214478;fill-opacity:1;fill-rule:nonzero;stroke:none;stroke-width:0.75"
       inkscape:connector-curvature="0" /><path
       id="path4619"
       d="m 115.39308,94.1691 c 0,2.93998 0.35999,5.21997 1.07999,6.83996 1.01999,2.39998 2.75998,3.53997 5.21996,3.53997 0.53999,0 1.07999,-0.06 1.61999,-0.18 0.53999,-0.12 1.13999,-0.48 1.79998,-1.01999 0.71999,-0.54 1.25999,-1.25999 1.67999,-2.15998 0.78,-1.67999 1.19999,-4.01998 1.19999,-7.01996 0,-2.87998 -0.35999,-5.15996 -1.07999,-6.77995 -1.08,-2.27998 -2.81998,-3.47997 -5.21996,-3.47997 -0.9,0 -1.85999,0.24 -2.75998,0.71999 -0.9,0.48 -1.61999,1.25999 -2.21999,2.33999 -0.89999,1.67998 -1.31998,4.07997 -1.31998,7.19994 z m 2.45997,0.36 c 0,-2.99998 0.12,-5.09996 0.36,-6.29995 0.24,-1.31999 0.66,-2.21999 1.32,-2.81998 0.65999,-0.54 1.37998,-0.84 2.15998,-0.84 0.77999,0 1.49999,0.3 2.15998,0.9 0.66,0.59999 1.13999,1.55999 1.31999,2.87998 0.24,1.25999 0.36,3.35997 0.36,6.17995 0,2.81998 -0.12,4.73997 -0.3,5.87996 -0.3,1.31999 -0.77999,2.21998 -1.43999,2.69998 -0.71999,0.54 -1.43999,0.77999 -2.09998,0.77999 -0.3,0 -0.54,0 -0.84,-0.11999 -0.29999,-0.06 -0.59999,-0.18 -1.01999,-0.42 -0.41999,-0.24 -0.77999,-0.6 -1.07999,-1.19999 -0.3,-0.54 -0.54,-1.25999 -0.66,-2.09999 -0.18,-1.07999 -0.24,-2.87998 -0.24,-5.51996 z"
       style="fill:#214478;fill-opacity:1;fill-rule:nonzero;stroke:none;stroke-width:0.75"
       inkscape:connector-curvature="0" /><path
       id="path4621"
       d="m 236.65218,99.56907 v 0.89999 c 2.39998,0 4.25997,0.66 5.45996,1.91999 0.35999,0 0.53999,0 0.59999,-0.12 0.06,-0.06 0.12,-0.3 0.12,-0.66 V 84.80917 c 0,-0.59999 0.12,-1.01999 0.42,-1.19999 0.3,-0.18 1.07999,-0.24 2.33998,-0.24 h 0.95999 v -0.95999 c -0.65999,0.06 -2.27998,0.12 -4.85996,0.12 -2.51998,0 -4.13997,-0.06 -4.85996,-0.12 v 0.95999 h 0.95999 c 1.25999,0 2.03999,0.06 2.33999,0.24 0.29999,0.18 0.47999,0.6 0.47999,1.19999 v 15.53989 c -1.07999,-0.54 -2.33999,-0.77999 -3.95997,-0.77999 z"
       style="fill:#214478;fill-opacity:1;fill-rule:nonzero;stroke:none;stroke-width:0.75"
       inkscape:connector-curvature="0" /><path
       id="path4623"
       d="m 247.5121,92.00912 c 0,2.93998 0.36,5.21996 1.13999,6.83995 1.01999,2.39998 2.75998,3.53998 5.21996,3.53998 0.48,0 1.01999,-0.06 1.55999,-0.18 0.54,-0.12 1.13999,-0.48 1.85999,-1.01999 0.65999,-0.54 1.25998,-1.26 1.67998,-2.15999 0.78,-1.67999 1.2,-4.01997 1.2,-7.01995 0,-2.87998 -0.42,-5.15996 -1.14,-6.77995 -1.07999,-2.27998 -2.81997,-3.47998 -5.21996,-3.47998 -0.89999,0 -1.79998,0.24 -2.69998,0.72 -0.89999,0.48 -1.67999,1.25999 -2.21998,2.33998 -0.89999,1.67999 -1.37999,4.07997 -1.37999,7.19995 z m 2.51998,0.36 c 0,-2.99998 0.06,-5.09997 0.3,-6.29996 0.23999,-1.31999 0.71999,-2.21998 1.37999,-2.81998 0.65999,-0.53999 1.37999,-0.83999 2.09998,-0.83999 0.77999,0 1.55999,0.3 2.21999,0.89999 0.65999,0.6 1.07999,1.55999 1.31999,2.87998 0.17999,1.25999 0.29999,3.35998 0.29999,6.17996 0,2.81997 -0.12,4.73996 -0.29999,5.87996 -0.24,1.31999 -0.72,2.21998 -1.43999,2.69998 -0.72,0.53999 -1.38,0.77999 -2.09999,0.77999 -0.24,0 -0.53999,0 -0.77999,-0.12 -0.3,-0.06 -0.66,-0.18 -1.01999,-0.41999 -0.42,-0.24 -0.78,-0.6 -1.08,-1.2 -0.3,-0.53999 -0.54,-1.25999 -0.65999,-2.09998 -0.18,-1.08 -0.24,-2.87998 -0.24,-5.51996 z"
       style="fill:#214478;fill-opacity:1;fill-rule:nonzero;stroke:none;stroke-width:0.75"
       inkscape:connector-curvature="0" /><path
       id="path4679"
       d="m 329.04672,92.421626 c 0,-6.599949 5.39996,-11.93991 11.99991,-11.93991 6.65995,0 11.99991,5.339961 11.99991,11.93991 0,6.65995 -5.33996,11.999904 -11.99991,11.999904 -6.59995,0 -11.99991,-5.339954 -11.99991,-11.999904 z"
       style="fill:#ffffff;fill-opacity:1;fill-rule:nonzero;stroke:none;stroke-width:0.75"
       inkscape:connector-curvature="0" /><path
       id="path4681"
       d="m 329.04672,92.421626 c 0,-6.599949 5.39996,-11.93991 11.99991,-11.93991 6.65995,0 11.99991,5.339961 11.99991,11.93991 0,6.65995 -5.33996,11.999904 -11.99991,11.999904 -6.59995,0 -11.99991,-5.339954 -11.99991,-11.999904 z"
       style="fill:#80b3ff;fill-opacity:1;fill-rule:nonzero;stroke:#214478;stroke-width:1.49998891px;stroke-linecap:butt;stroke-linejoin:miter;stroke-miterlimit:4;stroke-dasharray:none;stroke-opacity:1"
       inkscape:connector-curvature="0" /><path
       id="path4683"
       d="m 335.22668,92.061636 c -0.06,0.11999 -0.12,0.23999 -0.12,0.41999 0,0.12 0,0.24 0.12,0.3 0.06,0.12 0.17999,0.18 0.23999,0.18 0.12,0.06 0.24,0.06 0.48,0.06 h 4.61997 v 4.61996 c 0,0.54 0.17999,0.78 0.53999,0.78 0.36,0 0.54,-0.24 0.54,-0.78 v -4.61996 h 4.67996 c 0.48,0 0.72,-0.18 0.72,-0.54 0,-0.36 -0.24,-0.53999 -0.72,-0.53999 h -4.67996 v -4.67997 c 0,-0.539995 -0.18,-0.779994 -0.54,-0.779994 -0.18,0 -0.3,0 -0.36,0.119999 -0.11999,0.06 -0.17999,0.179999 -0.17999,0.299998 0,0 0,0.179999 0,0.359997 v 4.67997 h -4.67997 c -0.06,-0.06 -0.06,-0.06 -0.12,-0.06 -0.24,0 -0.42,0.06 -0.53999,0.18 z"
       style="fill:#214478;fill-opacity:1;fill-rule:nonzero;stroke:none;stroke-width:0.75"
       inkscape:connector-curvature="0" /><path
       style="fill:none;stroke:#214478;stroke-width:1.5;stroke-linecap:butt;stroke-linejoin:miter;stroke-miterlimit:4;stroke-dasharray:none;stroke-opacity:1;marker-end:url(#Arrow1Mend)"
       d="M -2.9438772,92.451625 H 63.755274"
       id="path4543-6"
       inkscape:connector-curvature="0" /><path
       style="fill:none;stroke:#214478;stroke-width:1.5;stroke-linecap:butt;stroke-linejoin:miter;stroke-miterlimit:4;stroke-dasharray:none;stroke-opacity:1;marker-end:url(#Arrow1Mend-3)"
       d="m 141.07122,92.451625 h 66.69915"
       id="path4543-6-7"
       inkscape:connector-curvature="0" /><path
       style="fill:none;stroke:#214478;stroke-width:1.5;stroke-linecap:butt;stroke-linejoin:miter;stroke-miterlimit:4;stroke-dasharray:none;stroke-opacity:1;marker-end:url(#Arrow1Mend-2)"
       d="m 286.12898,92.451625 h 40.00288"
       id="path4543-6-3"
       inkscape:connector-curvature="0"
       sodipodi:nodetypes="cc" /><text
       xml:space="preserve"
       style="font-style:normal;font-variant:normal;font-weight:normal;font-stretch:normal;font-size:30px;line-height:1.25;font-family:'CMU Sans Serif';-inkscape-font-specification:'CMU Sans Serif';letter-spacing:0px;word-spacing:0px;fill:#214478;fill-opacity:1;stroke:none;stroke-width:0.75"
       x="18.063847"
       y="-98.074112"
       id="text5149"
       transform="scale(1,-1)"><tspan
         sodipodi:role="line"
         id="tspan5147"
         x="18.063847"
         y="-98.074112"
         style="font-style:italic;font-variant:normal;font-weight:500;font-stretch:normal;font-family:'CMU Serif';-inkscape-font-specification:'CMU Serif Medium Italic';fill:#214478;fill-opacity:1;stroke-width:0.75">r</tspan></text>
<text
       xml:space="preserve"
       style="font-style:normal;font-variant:normal;font-weight:normal;font-stretch:normal;font-size:30px;line-height:1.25;font-family:'CMU Sans Serif';-inkscape-font-specification:'CMU Sans Serif';letter-spacing:0px;word-spacing:0px;fill:#214478;fill-opacity:1;stroke:none;stroke-width:0.75"
       x="160.86894"
       y="-98.074112"
       id="text5149-2"
       transform="scale(1,-1)"><tspan
         sodipodi:role="line"
         id="tspan5147-6"
         x="160.86894"
         y="-98.074112"
         style="font-style:italic;font-variant:normal;font-weight:500;font-stretch:normal;font-family:'CMU Serif';-inkscape-font-specification:'CMU Serif Medium Italic';fill:#214478;fill-opacity:1;stroke-width:0.75">u</tspan></text>
<text
       xml:space="preserve"
       style="font-style:normal;font-variant:normal;font-weight:normal;font-stretch:normal;font-size:30px;line-height:1.25;font-family:'CMU Sans Serif';-inkscape-font-specification:'CMU Sans Serif';letter-spacing:0px;word-spacing:0px;fill:#214478;fill-opacity:1;stroke:none;stroke-width:0.75"
       x="383.0694"
       y="-102.1706"
       id="text5149-2-3"
       transform="scale(1,-1)"><tspan
         sodipodi:role="line"
         id="tspan5147-6-4"
         x="383.0694"
         y="-102.1706"
         style="font-style:italic;font-variant:normal;font-weight:500;font-stretch:normal;font-family:'CMU Serif';-inkscape-font-specification:'CMU Serif Medium Italic';fill:#214478;fill-opacity:1;stroke-width:0.75">y</tspan></text>
<path
       style="fill:none;stroke:#214478;stroke-width:1.5;stroke-linecap:butt;stroke-linejoin:miter;stroke-miterlimit:4;stroke-dasharray:none;stroke-opacity:1;marker-end:url(#Arrow1Mend-2-4)"
       d="M 341.04663,174.6651 V 107.96595"
       id="path4543-6-3-7"
       inkscape:connector-curvature="0" /><path
       style="fill:none;stroke:#214478;stroke-width:1.5;stroke-linecap:butt;stroke-linejoin:miter;stroke-miterlimit:4;stroke-dasharray:none;stroke-opacity:1;marker-end:url(#Arrow1Mend-2-5)"
       d="m 353.41183,92.451625 h 66.69915"
       id="path4543-6-3-8"
       inkscape:connector-curvature="0" /><text
       xml:space="preserve"
       style="font-style:normal;font-variant:normal;font-weight:normal;font-stretch:normal;font-size:30px;line-height:1.25;font-family:'CMU Sans Serif';-inkscape-font-specification:'CMU Sans Serif';letter-spacing:0px;word-spacing:0px;fill:#214478;fill-opacity:1;stroke:none;stroke-width:0.75"
       x="344.68692"
       y="-146.53792"
       id="text5149-2-3-3"
       transform="scale(1,-1)"><tspan
         sodipodi:role="line"
         id="tspan5147-6-4-1"
         x="344.68692"
         y="-146.53792"
         style="font-style:italic;font-variant:normal;font-weight:500;font-stretch:normal;font-family:'CMU Serif';-inkscape-font-specification:'CMU Serif Medium Italic';fill:#214478;fill-opacity:1;stroke-width:0.75">d</tspan></text>
<text
       xml:space="preserve"
       style="font-style:normal;font-variant:normal;font-weight:normal;font-stretch:normal;font-size:30px;line-height:1.25;font-family:'CMU Sans Serif';-inkscape-font-specification:'CMU Sans Serif';letter-spacing:0px;word-spacing:0px;fill:#214478;fill-opacity:1;stroke:none;stroke-width:0.75"
       x="291.31601"
       y="-179.31934"
       id="text5149-2-8"
       transform="scale(1,-1)"><tspan
         sodipodi:role="line"
         id="tspan5147-6-2"
         x="291.31601"
         y="-179.31934"
         style="font-style:normal;font-variant:normal;font-weight:500;font-stretch:normal;font-size:18px;font-family:'CMU Sans Serif';-inkscape-font-specification:'CMU Sans Serif Medium';fill:#214478;fill-opacity:1;stroke-width:0.75">Возмущение</tspan></text>
</g></svg>