<?xml version="1.0" encoding="UTF-8"?>
<svg width="300.33" height="57.318" version="1.1" viewBox="0 0 300.32822 57.318104" xml:space="preserve" xmlns="http://www.w3.org/2000/svg"><defs><marker id="Arrow1Mend" style="overflow:visible" orient="auto"><path transform="matrix(-.4 0 0 -.4 -4 0)" d="m0 0 5-5-17.5 5 17.5 5z" style="fill-rule:evenodd;fill:#214478;stroke-width:1pt;stroke:#214478"/></marker><marker id="Arrow1Mend-4" style="overflow:visible" orient="auto"><path transform="matrix(-.4 0 0 -.4 -4 0)" d="m0 0 5-5-17.5 5 17.5 5z" style="fill-rule:evenodd;fill:#214478;stroke-width:1pt;stroke:#214478"/></marker></defs><g transform="matrix(1.3333 0 0 -1.3333 -4.2453 265.65)"><path d="m72.747 157h75.001v40h-75.001z" style="fill:#fff"/><path d="m72.747 157h75.001v40h-75.001z" style="fill:#d5e5ff;stroke-miterlimit:10;stroke-width:1.5;stroke:#214478"/><path d="m3.9447 177.06h65.461" style="fill:#214478;marker-end:url(#Arrow1Mend);stroke-linecap:round;stroke-width:1.5;stroke:#214478"/><path d="m147.83 177.06h77.644" style="fill:#214478;marker-end:url(#Arrow1Mend-4);stroke-linecap:round;stroke-width:1.5;stroke:#214478"/><text transform="scale(1,-1)" x="95.181511" y="-167.40039" style="fill:#214478;font-family:'CMU Sans Serif';font-size:30px;letter-spacing:0px;line-height:1.25;stroke-width:.75;word-spacing:0px" xml:space="preserve"><tspan x="95.181511" y="-167.40039" style="fill:#214478;font-family:'CMU Serif';letter-spacing:-2.655px;stroke-width:.75">10</tspan></text>
<path d="m31.5 191.68c0 0.06 0.06 0.24 0.12 0.54 0.06 0.29999 0.24 0.71999 0.42 1.14 0.24 0.47999 0.48 0.95999 0.72 1.38 0.3 0.42 0.66 0.77999 1.14 1.08 0.42 0.36 0.89999 0.48 1.44 0.48 0.66 0 1.2-0.18 1.62-0.66 0.42-0.42 0.66-1.02 0.66-1.74 0-0.41999-0.12-0.95999-0.36-1.62-1.2-3.18-1.74-5.34-1.74-6.6 0-1.5 0.54-2.28 1.62-2.28 1.02 0 1.98 0.6 2.76 1.74 0.12 0.24 0.3 0.54 0.42 0.95999l2.16 8.7599c0.18 0.77999 0.6 1.14 1.2 1.14 0.24 0 0.48-0.06 0.6-0.24s0.24-0.36 0.24-0.54c0-0.11999-0.06-0.23999-0.12-0.41999l-2.16-8.6399c-0.12-0.53999-0.18-1.08-0.18-1.56 0-0.77999 0.24-1.2 0.77999-1.2 0.72 0 1.38 1.2 1.98 3.54 0.06 0.35999 0.18 0.53999 0.24 0.59999 0.06 0.06 0.18 0.12 0.36 0.12 0.3 0 0.42-0.12 0.42-0.3 0-0.06-0.06-0.24-0.12-0.53999-0.06-0.3-0.18-0.72-0.3-1.2-0.18-0.48-0.3-0.84-0.48-1.2-0.54-1.14-1.26-1.68-2.16-1.68-1.2 0-2.04 0.59999-2.4 1.8-0.95999-1.2-2.1-1.8-3.36-1.8-0.95999 0-1.74 0.29999-2.4 0.83999s-0.95999 1.44-0.95999 2.64c0 1.14 0.54 3.06 1.56 5.88 0.48 1.32 0.72 2.22 0.72 2.7 0 0.59999-0.24 0.83999-0.66 0.83999-1.2 0-2.1-1.26-2.76-3.78-0.06-0.18-0.12-0.36-0.18-0.42-0.06 0-0.18-0.06-0.36-0.06-0.3 0-0.48 0.12-0.48 0.3z" style="fill:#214478"/><path d="m181.08 194.62c0 0.06 0 0.24 0.12 0.54 0.06 0.29999 0.18 0.65999 0.42 1.14 0.18 0.47999 0.42 0.89999 0.72 1.32 0.24 0.47999 0.59999 0.83999 1.08 1.14 0.47999 0.3 0.95999 0.47999 1.5 0.47999 0.66 0 1.2-0.23999 1.62-0.65999 0.41999-0.42 0.65999-1.02 0.65999-1.8 0-0.35999-0.18-0.89999-0.41999-1.62-1.14-3.12-1.74-5.34-1.74-6.54 0-1.56 0.54-2.34 1.62-2.34 0.77999 0 1.5 0.3 2.1 0.89999 0.59999 0.66 0.95999 1.26 1.08 1.8l2.22 8.8199c0.18 0.71999 0.54 1.08 1.14 1.08 0.3 0 0.48-0.06 0.66-0.24 0.12-0.12 0.18-0.3 0.18-0.54 0 0 0-0.06-0.06-0.18v-0.23999l-2.94-11.82c-0.41999-1.56-1.26-2.94-2.52-4.2-1.26-1.2-2.64-1.86-4.08-1.86-0.83999 0-1.56 0.24-2.1 0.71999-0.54 0.48-0.78 1.08-0.78 1.86 0 0.54 0.06 0.95999 0.3 1.26s0.42 0.48 0.66 0.54c0.18 0.06 0.35999 0.06 0.53999 0.06 0.3 0 0.54-0.06 0.72-0.24 0.17999-0.18 0.29999-0.42 0.29999-0.72 0-0.29999-0.12-0.59999-0.29999-0.89999-0.24-0.3-0.54-0.48-0.95999-0.54-0.18 0-0.24 0-0.24-0.06s0-0.23999 0.12-0.41999 0.29999-0.36 0.59999-0.6c0.3-0.18 0.65999-0.3 1.14-0.3 0.89999 0 1.8 0.54 2.7 1.5 0.89999 0.96 1.62 2.58 2.16 4.8-0.77999-0.72-1.68-1.14-2.7-1.14-0.96 0-1.74 0.29999-2.4 0.83999-0.65999 0.59999-0.95999 1.44-0.95999 2.64 0 1.14 0.48 3.12 1.56 5.88 0.47999 1.38 0.71999 2.28 0.71999 2.7 0 0.59999-0.24 0.89999-0.65999 0.89999-1.2 0-2.16-1.26-2.82-3.78-0.06-0.24-0.12-0.36-0.18-0.42s-0.18-0.06-0.36-0.06c-0.3 0-0.42 0.12-0.42 0.3z" style="fill:#214478"/></g></svg>
