<?xml version="1.0" encoding="UTF-8" standalone="no"?>
<!-- Created with Inkscape (http://www.inkscape.org/) -->

<svg
   xmlns:dc="http://purl.org/dc/elements/1.1/"
   xmlns:cc="http://creativecommons.org/ns#"
   xmlns:rdf="http://www.w3.org/1999/02/22-rdf-syntax-ns#"
   xmlns:svg="http://www.w3.org/2000/svg"
   xmlns="http://www.w3.org/2000/svg"
   xmlns:sodipodi="http://sodipodi.sourceforge.net/DTD/sodipodi-0.dtd"
   xmlns:inkscape="http://www.inkscape.org/namespaces/inkscape"
   version="1.1"
   id="svg2"
   xml:space="preserve"
   width="1067.8632"
   height="441.3284"
   viewBox="0 0 1067.8632 441.3284"
   sodipodi:docname="structual-scheme.svg"
   inkscape:version="0.92.0 r15299"><metadata
     id="metadata8"><rdf:RDF><cc:Work
         rdf:about=""><dc:format>image/svg+xml</dc:format><dc:type
           rdf:resource="http://purl.org/dc/dcmitype/StillImage" /><dc:title></dc:title></cc:Work></rdf:RDF></metadata><defs
     id="defs6"><clipPath
       clipPathUnits="userSpaceOnUse"
       id="clipPath18"><path
         d="M 0,3325.41 V 0 h 8065 v 3325.41 z"
         id="path16"
         inkscape:connector-curvature="0" /></clipPath><clipPath
       clipPathUnits="userSpaceOnUse"
       id="clipPath48"><path
         d="M 0,3325.41 V 0 h 8065 v 3325.41 z"
         id="path46"
         inkscape:connector-curvature="0" /></clipPath><clipPath
       clipPathUnits="userSpaceOnUse"
       id="clipPath64"><path
         d="M 0,3325.41 V 0 h 8065 v 3325.41 z"
         id="path62"
         inkscape:connector-curvature="0" /></clipPath><clipPath
       clipPathUnits="userSpaceOnUse"
       id="clipPath84"><path
         d="M 0,3325.41 V 0 h 8065 v 3325.41 z"
         id="path82"
         inkscape:connector-curvature="0" /></clipPath></defs><sodipodi:namedview
     pagecolor="#ffffff"
     bordercolor="#666666"
     borderopacity="1"
     objecttolerance="10"
     gridtolerance="10"
     guidetolerance="10"
     inkscape:pageopacity="0"
     inkscape:pageshadow="2"
     inkscape:window-width="1600"
     inkscape:window-height="847"
     id="namedview4"
     showgrid="false"
     fit-margin-top="0"
     fit-margin-left="0"
     fit-margin-right="0"
     fit-margin-bottom="0"
     inkscape:lockguides="false"
     inkscape:snap-nodes="false"
     inkscape:zoom="0.89393939"
     inkscape:cx="552.93272"
     inkscape:cy="190.95612"
     inkscape:window-x="-8"
     inkscape:window-y="-8"
     inkscape:window-maximized="1"
     inkscape:current-layer="g10" /><g
     id="g10"
     inkscape:groupmode="layer"
     inkscape:label="A9R77ku27_1shfhtg_5oc"
     transform="matrix(1.3333333,0,0,-1.3333333,-2.6041666,441.32841)"><rect
       style="opacity:1;fill:#ffd5d5;fill-opacity:1;stroke:#000000;stroke-width:1.6500001;stroke-linecap:round;stroke-linejoin:round;stroke-miterlimit:4;stroke-dasharray:6.60000031, 6.60000031;stroke-dashoffset:0;stroke-opacity:1"
       id="rect188"
       width="388"
       height="115.5"
       x="333"
       y="-272.03391"
       transform="scale(1,-1)" /><g
       id="g12"
       transform="scale(0.1)"><g
         id="g14"
         clip-path="url(#clipPath18)"><path
           d="m 1140,1930 h 1430 v 440.004 H 1140 Z"
           style="fill:#ffffff;fill-opacity:1;fill-rule:nonzero;stroke:none"
           id="path20"
           inkscape:connector-curvature="0" /><path
           d="m 1140,1930 h 1430 v 440.004 H 1140 Z"
           style="fill:none;stroke:#100f0d;stroke-width:20;stroke-linecap:butt;stroke-linejoin:miter;stroke-miterlimit:10;stroke-dasharray:none;stroke-opacity:1"
           id="path22"
           inkscape:connector-curvature="0" /><path
           d="m 4560,830 h 1430 v 440 H 4560 Z"
           style="fill:#ffffff;fill-opacity:1;fill-rule:nonzero;stroke:none"
           id="path24"
           inkscape:connector-curvature="0" /><path
           d="m 4560,830 h 1430 v 440 H 4560 Z"
           style="fill:none;stroke:#100f0d;stroke-width:20;stroke-linecap:butt;stroke-linejoin:miter;stroke-miterlimit:10;stroke-dasharray:none;stroke-opacity:1"
           id="path26"
           inkscape:connector-curvature="0" /><path
           d="m 3600,1930 h 1430 v 440.004 H 3600 Z"
           style="fill:#ffffff;fill-opacity:1;fill-rule:nonzero;stroke:none"
           id="path28"
           inkscape:connector-curvature="0" /><path
           d="m 3600,1930 h 1430 v 440.004 H 3600 Z"
           style="fill:none;stroke:#100f0d;stroke-width:20;stroke-linecap:butt;stroke-linejoin:miter;stroke-miterlimit:10;stroke-dasharray:none;stroke-opacity:1"
           id="path30"
           inkscape:connector-curvature="0" /><path
           d="m 5480,1930 h 1570 v 440.004 H 5480 Z"
           style="fill:#ffffff;fill-opacity:1;fill-rule:nonzero;stroke:none"
           id="path32"
           inkscape:connector-curvature="0" /><path
           d="m 5480,1930 h 1570 v 440.004 H 5480 Z"
           style="fill:none;stroke:#100f0d;stroke-width:20;stroke-linecap:butt;stroke-linejoin:miter;stroke-miterlimit:10;stroke-dasharray:none;stroke-opacity:1"
           id="path34"
           inkscape:connector-curvature="0" /></g></g><text
       transform="matrix(1,0,0,-1,138,208.801)"
       style="font-variant:normal;font-weight:normal;font-size:20px;font-family:MyriadPro;-inkscape-font-specification:MyriadPro-Regular;writing-mode:lr-tb;fill:#100f0d;fill-opacity:1;fill-rule:nonzero;stroke:none"
       id="text40"><tspan
         x="0 11.3799 22.3599 33.379902 39.999901 46.340199 57.320202 62.040199 66.760201 76.780197"
         y="0"
         sodipodi:role="line"
         id="tspan36">Controller</tspan><tspan
         x="251 263.00049 272.22021 278.84021 289.8602 299.42029 305.92029 316.9003"
         y="-1"
         sodipodi:role="line"
         id="tspan38">Actuator</tspan></text>
<g
       id="g42"
       transform="scale(0.1)"><g
         id="g44"
         clip-path="url(#clipPath48)"><g
           id="g50"
           transform="translate(330,2150)"><path
             d="M 0,0 H 668.789"
             style="fill:none;stroke:#100f0d;stroke-width:20;stroke-linecap:butt;stroke-linejoin:miter;stroke-miterlimit:10;stroke-dasharray:none;stroke-opacity:1"
             id="path52"
             inkscape:connector-curvature="0" /></g></g></g><text
       transform="matrix(1,0,0,-1,496,97.801)"
       style="font-variant:normal;font-weight:normal;font-size:20px;font-family:MyriadPro;-inkscape-font-specification:MyriadPro-Regular;writing-mode:lr-tb;fill:#100f0d;fill-opacity:1;fill-rule:nonzero;stroke:none"
       id="text56"><tspan
         x="0 9.9799995 20 31.1 39.02 50"
         y="0"
         sodipodi:role="line"
         id="tspan54">Sensor</tspan></text>
<g
       id="g58"
       transform="scale(0.1)"><g
         id="g60"
         clip-path="url(#clipPath64)"><g
           id="g66"
           transform="translate(1140,2150)"><path
             d="M 0,0 -198.984,-81.3 -151.77,0 -198.984,81.29 0,0"
             style="fill:#100f0d;fill-opacity:1;fill-rule:nonzero;stroke:none"
             id="path68"
             inkscape:connector-curvature="0" /></g><g
           id="g70"
           transform="translate(2570,2150)"><path
             d="M 0,0 H 888.79"
             style="fill:none;stroke:#100f0d;stroke-width:20;stroke-linecap:butt;stroke-linejoin:miter;stroke-miterlimit:10;stroke-dasharray:none;stroke-opacity:1"
             id="path72"
             inkscape:connector-curvature="0" /></g></g></g><text
       transform="matrix(1,0,0,-1,558,209.801)"
       style="font-variant:normal;font-weight:normal;font-size:20px;font-family:MyriadPro;-inkscape-font-specification:MyriadPro-Regular;writing-mode:lr-tb;fill:#100f0d;fill-opacity:1;fill-rule:nonzero;stroke:none"
       id="text76"><tspan
         x="0 13.5996 23.0196 34.119598 43.759602 60.439602 65.119598 74.079597 78.319603 89.6996 96.039398 107.0194 115.8592 125.8792 133.79919"
         y="0"
         sodipodi:role="line"
         id="tspan74">Dynamic process</tspan></text>
<g
       id="g78"
       transform="scale(0.1)"><g
         id="g80"
         clip-path="url(#clipPath84)"><g
           id="g86"
           transform="translate(3600,2150)"><path
             d="M 0,0 -198.98,-81.3 -151.77,0 -198.98,81.29 0,0"
             style="fill:#100f0d;fill-opacity:1;fill-rule:nonzero;stroke:none"
             id="path88"
             inkscape:connector-curvature="0" /></g><g
           id="g90"
           transform="translate(5030,2150)"><path
             d="M 0,0 H 308.79"
             style="fill:none;stroke:#100f0d;stroke-width:20;stroke-linecap:butt;stroke-linejoin:miter;stroke-miterlimit:10;stroke-dasharray:none;stroke-opacity:1"
             id="path92"
             inkscape:connector-curvature="0" /></g><g
           id="g94"
           transform="translate(5480,2150)"><path
             d="M 0,0 -198.98,-81.3 -151.77,0 -198.98,81.29 0,0"
             style="fill:#100f0d;fill-opacity:1;fill-rule:nonzero;stroke:none"
             id="path96"
             inkscape:connector-curvature="0" /></g><g
           id="g98"
           transform="translate(7050,2150)"><path
             d="M 0,0 H 668.79"
             style="fill:none;stroke:#100f0d;stroke-width:20;stroke-linecap:butt;stroke-linejoin:miter;stroke-miterlimit:10;stroke-dasharray:none;stroke-opacity:1"
             id="path100"
             inkscape:connector-curvature="0" /></g><g
           id="g102"
           transform="translate(7860,2150)"><path
             d="M 0,0 -198.98,-81.3 -151.77,0 -198.98,81.29 0,0"
             style="fill:#100f0d;fill-opacity:1;fill-rule:nonzero;stroke:none"
             id="path104"
             inkscape:connector-curvature="0" /></g><g
           id="g106"
           transform="translate(7455,2150)"><path
             d="M 0,0 V -1100 H -1323.79"
             style="fill:none;stroke:#100f0d;stroke-width:20;stroke-linecap:butt;stroke-linejoin:miter;stroke-miterlimit:10;stroke-dasharray:none;stroke-opacity:1"
             id="path108"
             inkscape:connector-curvature="0" /></g><g
           id="g110"
           transform="translate(5990,1050)"><path
             d="M 0,0 198.98,81.31 151.77,0 198.98,-81.281 0,0"
             style="fill:#100f0d;fill-opacity:1;fill-rule:nonzero;stroke:none"
             id="path112"
             inkscape:connector-curvature="0" /></g><g
           id="g114"
           transform="translate(4540,1050)"><path
             d="M 0,0 H -2685 V 738.79"
             style="fill:none;stroke:#100f0d;stroke-width:20;stroke-linecap:butt;stroke-linejoin:miter;stroke-miterlimit:10;stroke-dasharray:none;stroke-opacity:1"
             id="path116"
             inkscape:connector-curvature="0" /></g><g
           id="g118"
           transform="translate(1855,1930)"><path
             d="M 0,0 81.31,-198.98 0,-151.76 -81.29,-198.98 0,0"
             style="fill:#100f0d;fill-opacity:1;fill-rule:nonzero;stroke:none"
             id="path120"
             inkscape:connector-curvature="0" /></g><g
           id="g122"
           transform="translate(5275,688.789)"><path
             d="M 0,0 V -688.789"
             style="fill:none;stroke:#100f0d;stroke-width:20;stroke-linecap:butt;stroke-linejoin:miter;stroke-miterlimit:10;stroke-dasharray:none;stroke-opacity:1"
             id="path124"
             inkscape:connector-curvature="0" /></g><g
           id="g126"
           transform="translate(5275,830)"><path
             d="M 0,0 -81.31,-198.98 0,-151.762 81.29,-198.98 0,0"
             style="fill:#100f0d;fill-opacity:1;fill-rule:nonzero;stroke:none"
             id="path128"
             inkscape:connector-curvature="0" /></g><g
           id="g130"
           transform="translate(6265,2511.21)"><path
             d="M 0,0 V 548.79"
             style="fill:none;stroke:#100f0d;stroke-width:20;stroke-linecap:butt;stroke-linejoin:miter;stroke-miterlimit:10;stroke-dasharray:none;stroke-opacity:1"
             id="path132"
             inkscape:connector-curvature="0" /></g><g
           id="g134"
           transform="translate(6265,2370)"><path
             d="M 0,0 81.31,198.99 0,151.77 -81.29,198.99 0,0"
             style="fill:#100f0d;fill-opacity:1;fill-rule:nonzero;stroke:none"
             id="path136"
             inkscape:connector-curvature="0" /></g><g
           id="g138"
           transform="translate(7210,1620)" /><g
           id="g142"
           transform="translate(7028.71,1560)" /><g
           id="g146"
           transform="translate(3390,1560)" /><g
           id="g150"
           transform="translate(3330,1735)" /><g
           id="g154"
           transform="translate(3330,2655)" /><g
           id="g158"
           transform="translate(3511.29,2715)" /><g
           id="g162"
           transform="translate(7150,2715)" /><g
           id="g166"
           transform="translate(7210,2540)" /></g></g><text
       transform="matrix(1,0,0,-1,0,234.801)"
       style="font-variant:normal;font-weight:normal;font-size:20px;font-family:MyriadPro;-inkscape-font-specification:MyriadPro-Regular;writing-mode:lr-tb;fill:#100f0d;fill-opacity:1;fill-rule:nonzero;stroke:none"
       id="text186"><tspan
         x="0 10.8398 20.8598 26.439899 36.4599 42.799702 52.819698 63.919701 72.759598"
         y="0"
         sodipodi:role="line"
         id="tspan170">Reference</tspan><tspan
         x="532 541.97998 552 563.09998 571.02002 582 588.53998 592.78003 603.88 614.85999 619.53998 627.46002"
         y="216"
         sodipodi:role="line"
         id="tspan172">Sensor noise</tspan><tspan
         x="269 285.19971 295.2197 304.85971 312.77969 323.79971 330.13959 340.15961 356.8396 366.85959 377.87921"
         y="154"
         sodipodi:role="line"
         id="tspan174">Measurement</tspan><tspan
         x="741.5 755.33978 766.3598 772.9798 784.3598 795.37982"
         y="0"
         sodipodi:role="line"
         id="tspan176">Output</tspan><tspan
         x="270.44 278.35999 283.04001 294.1001 305.2001 314.84009"
         y="7.5"
         sodipodi:role="line"
         id="tspan178">signal</tspan><tspan
         x="263.98001 275.35989 286.3399 297.35989 303.97989 310.32019 321.3002"
         y="-16.5"
         sodipodi:role="line"
         id="tspan180">Control</tspan><tspan
         x="430.25 440.7905 445.5105 455.15051 466.17001"
         y="-57"
         sodipodi:role="line"
         id="tspan182">Plant</tspan><tspan
         x="573.5 586.82001 591.5 599.41998 606.03998 617.06 623.68011 635.06012 644.70007 655.80011 664.63989"
         y="-81"
         sodipodi:role="line"
         id="tspan184">Disturbance</tspan></text>
<circle
       style="opacity:1;fill:#100f0d;fill-opacity:1;stroke:#100f0d;stroke-width:1.6500001;stroke-linecap:round;stroke-linejoin:round;stroke-miterlimit:4;stroke-dasharray:none;stroke-dashoffset:0;stroke-opacity:1"
       id="path995"
       cx="745.44946"
       cy="-214.937"
       r="2.149894"
       transform="scale(1,-1)" /></g></svg>