<?xml version="1.0" encoding="UTF-8" standalone="no"?>
<!-- Created with Inkscape (http://www.inkscape.org/) -->

<svg
   xmlns:dc="http://purl.org/dc/elements/1.1/"
   xmlns:cc="http://creativecommons.org/ns#"
   xmlns:rdf="http://www.w3.org/1999/02/22-rdf-syntax-ns#"
   xmlns:svg="http://www.w3.org/2000/svg"
   xmlns="http://www.w3.org/2000/svg"
   xmlns:sodipodi="http://sodipodi.sourceforge.net/DTD/sodipodi-0.dtd"
   xmlns:inkscape="http://www.inkscape.org/namespaces/inkscape"
   version="1.1"
   id="svg2"
   xml:space="preserve"
   width="724.51953"
   height="200.28903"
   viewBox="0 0 724.51953 200.28903"
   sodipodi:docname="transfer-function-components.svg"
   inkscape:version="0.92.0 r15299"><metadata
     id="metadata8"><rdf:RDF><cc:Work
         rdf:about=""><dc:format>image/svg+xml</dc:format><dc:type
           rdf:resource="http://purl.org/dc/dcmitype/StillImage" /><dc:title></dc:title></cc:Work></rdf:RDF></metadata><defs
     id="defs6"><clipPath
       clipPathUnits="userSpaceOnUse"
       id="clipPath18"><path
         d="M 0,1516.08 V 0 h 5480 v 1516.08 z"
         id="path16"
         inkscape:connector-curvature="0" /></clipPath></defs><sodipodi:namedview
     pagecolor="#ffffff"
     bordercolor="#666666"
     borderopacity="1"
     objecttolerance="10"
     gridtolerance="10"
     guidetolerance="10"
     inkscape:pageopacity="0"
     inkscape:pageshadow="2"
     inkscape:window-width="1600"
     inkscape:window-height="847"
     id="namedview4"
     showgrid="false"
     fit-margin-top="0"
     fit-margin-left="0"
     fit-margin-right="0"
     fit-margin-bottom="0"
     inkscape:zoom="1.2642212"
     inkscape:cx="413.72116"
     inkscape:cy="171.49576"
     inkscape:window-x="-8"
     inkscape:window-y="-8"
     inkscape:window-maximized="1"
     inkscape:current-layer="g10" /><g
     id="g10"
     inkscape:groupmode="layer"
     inkscape:label="A9R39nycc_1shfhti_5oc"
     transform="matrix(1.3333333,0,0,-1.3333333,-2.1679687,200.28904)"><g
       id="g12"
       transform="scale(0.1)"><g
         id="g14"
         clip-path="url(#clipPath18)"><g
           id="g20"
           transform="translate(4290.0098,876.668)"><path
             d="m 0,0 c 0,-66.277 53.73,-120 120,-120 66.27,0 120,53.723 120,120 0,66.273 -53.73,120 -120,120 C 53.73,120 0,66.273 0,0"
             style="fill:#ffffff;fill-opacity:1;fill-rule:nonzero;stroke:none"
             id="path22"
             inkscape:connector-curvature="0" /></g><g
           id="g24"
           transform="translate(4290.0098,876.668)"><path
             d="m 0,0 c 0,-66.277 53.73,-120 120,-120 66.27,0 120,53.723 120,120 0,66.273 -53.73,120 -120,120 C 53.73,120 0,66.273 0,0 Z"
             style="fill:none;stroke:#211c1d;stroke-width:20;stroke-linecap:butt;stroke-linejoin:miter;stroke-miterlimit:10;stroke-dasharray:none;stroke-opacity:1"
             id="path26"
             inkscape:connector-curvature="0" /></g><g
           id="g28"
           transform="translate(643.336,876.668)"><path
             d="m 0,0 c 0,-66.277 53.73,-120 120,-120 66.269,0 120,53.723 120,120 0,66.273 -53.731,120 -120,120 C 53.73,120 0,66.273 0,0"
             style="fill:#ffffff;fill-opacity:1;fill-rule:nonzero;stroke:none"
             id="path30"
             inkscape:connector-curvature="0" /></g><g
           id="g32"
           transform="translate(643.336,876.668)"><path
             d="m 0,0 c 0,-66.277 53.73,-120 120,-120 66.269,0 120,53.723 120,120 0,66.273 -53.731,120 -120,120 C 53.73,120 0,66.273 0,0 Z"
             style="fill:none;stroke:#211c1d;stroke-width:20;stroke-linecap:butt;stroke-linejoin:miter;stroke-miterlimit:10;stroke-dasharray:none;stroke-opacity:1"
             id="path34"
             inkscape:connector-curvature="0" /></g><path
           d="m 3145,676.668 h 750 v 400 h -750 z"
           style="fill:#ffffff;fill-opacity:1;fill-rule:nonzero;stroke:none"
           id="path36"
           inkscape:connector-curvature="0" /><path
           d="m 3145,676.668 h 750 v 400 h -750 z"
           style="fill:none;stroke:#211c1d;stroke-width:20;stroke-linecap:butt;stroke-linejoin:miter;stroke-miterlimit:10;stroke-dasharray:none;stroke-opacity:1"
           id="path38"
           inkscape:connector-curvature="0" /><path
           d="m 1578.32,676.668 h 750.008 v 400 H 1578.32 Z"
           style="fill:#ffffff;fill-opacity:1;fill-rule:nonzero;stroke:none"
           id="path40"
           inkscape:connector-curvature="0" /><path
           d="m 1578.32,676.668 h 750.008 v 400 H 1578.32 Z"
           style="fill:none;stroke:#211c1d;stroke-width:20;stroke-linecap:butt;stroke-linejoin:miter;stroke-miterlimit:10;stroke-dasharray:none;stroke-opacity:1"
           id="path42"
           inkscape:connector-curvature="0" /><g
           id="g44"
           transform="translate(73.332,876.668)"><path
             d="M 0,0 H 499.398"
             style="fill:none;stroke:#211c1d;stroke-width:20;stroke-linecap:butt;stroke-linejoin:miter;stroke-miterlimit:10;stroke-dasharray:none;stroke-opacity:1"
             id="path46"
             inkscape:connector-curvature="0" /></g><g
           id="g48"
           transform="translate(643.336,876.668)"><path
             d="M 0,0 -99.492,-40.656 -75.887,0 -99.492,40.641 0,0"
             style="fill:#211c1d;fill-opacity:1;fill-rule:nonzero;stroke:none"
             id="path50"
             inkscape:connector-curvature="0" /></g><g
           id="g52"
           transform="translate(883.336,876.668)"><path
             d="M 0,0 H 624.374"
             style="fill:none;stroke:#211c1d;stroke-width:20;stroke-linecap:butt;stroke-linejoin:miter;stroke-miterlimit:10;stroke-dasharray:none;stroke-opacity:1"
             id="path54"
             inkscape:connector-curvature="0" /></g><g
           id="g56"
           transform="translate(1578.3199,876.668)"><path
             d="M 0,0 -99.5,-40.656 -75.89,0 -99.5,40.641 0,0"
             style="fill:#211c1d;fill-opacity:1;fill-rule:nonzero;stroke:none"
             id="path58"
             inkscape:connector-curvature="0" /></g><g
           id="g60"
           transform="translate(2328.3201,876.668)"><path
             d="M 0,0 H 746.07"
             style="fill:none;stroke:#211c1d;stroke-width:20;stroke-linecap:butt;stroke-linejoin:miter;stroke-miterlimit:10;stroke-dasharray:none;stroke-opacity:1"
             id="path62"
             inkscape:connector-curvature="0" /></g><g
           id="g64"
           transform="translate(3145,876.668)"><path
             d="M 0,0 -99.49,-40.656 -75.89,0 -99.49,40.641 0,0"
             style="fill:#211c1d;fill-opacity:1;fill-rule:nonzero;stroke:none"
             id="path66"
             inkscape:connector-curvature="0" /></g><g
           id="g68"
           transform="translate(3895,876.668)"><path
             d="M 0,0 H 324.4"
             style="fill:none;stroke:#211c1d;stroke-width:20;stroke-linecap:butt;stroke-linejoin:miter;stroke-miterlimit:10;stroke-dasharray:none;stroke-opacity:1"
             id="path70"
             inkscape:connector-curvature="0" /></g><g
           id="g72"
           transform="translate(4290.0098,876.668)"><path
             d="M 0,0 -99.49,-40.656 -75.88,0 -99.49,40.641 0,0"
             style="fill:#211c1d;fill-opacity:1;fill-rule:nonzero;stroke:none"
             id="path74"
             inkscape:connector-curvature="0" /></g><g
           id="g76"
           transform="translate(4530.0098,876.668)"><path
             d="M 0,0 H 566.04"
             style="fill:none;stroke:#211c1d;stroke-width:20;stroke-linecap:butt;stroke-linejoin:miter;stroke-miterlimit:10;stroke-dasharray:none;stroke-opacity:1"
             id="path78"
             inkscape:connector-curvature="0" /></g><g
           id="g80"
           transform="translate(5166.6602,876.668)"><path
             d="M 0,0 -99.49,-40.656 -75.89,0 -99.49,40.641 0,0"
             style="fill:#211c1d;fill-opacity:1;fill-rule:nonzero;stroke:none"
             id="path82"
             inkscape:connector-curvature="0" /></g><g
           id="g84"
           transform="translate(4848.3301,876.668)"><path
             d="m 0,0 v -866.668 h -4084.994 v 676.059"
             style="fill:none;stroke:#211c1d;stroke-width:20;stroke-linecap:butt;stroke-linejoin:miter;stroke-miterlimit:10;stroke-dasharray:none;stroke-opacity:1"
             id="path86"
             inkscape:connector-curvature="0" /></g><g
           id="g88"
           transform="translate(763.336,756.668)"><path
             d="M 0,0 40.652,-99.492 0,-75.887 -40.645,-99.492 0,0"
             style="fill:#211c1d;fill-opacity:1;fill-rule:nonzero;stroke:none"
             id="path90"
             inkscape:connector-curvature="0" /></g><g
           id="g92"
           transform="translate(4410.0098,1346.98)"><path
             d="M 0,0 V -279.71"
             style="fill:none;stroke:#211c1d;stroke-width:20;stroke-linecap:butt;stroke-linejoin:miter;stroke-miterlimit:10;stroke-dasharray:none;stroke-opacity:1"
             id="path94"
             inkscape:connector-curvature="0" /></g><g
           id="g96"
           transform="translate(4410.0098,996.668)"><path
             d="M 0,0 -40.65,99.492 0,75.882 40.64,99.492 0,0"
             style="fill:#211c1d;fill-opacity:1;fill-rule:nonzero;stroke:none"
             id="path98"
             inkscape:connector-curvature="0" /></g></g></g><text
       transform="scale(1,-1)"
       style="font-variant:normal;font-weight:normal;font-size:18px;font-family:MyriadPro;-inkscape-font-specification:MyriadPro-Regular;writing-mode:lr-tb;fill:#100f0d;fill-opacity:1;fill-rule:nonzero;stroke:none"
       id="text138"
       x="-0.62923729"
       y="-111.50175"><tspan
         x="-0.62923729 5.0768709 14.094871 19.116762 28.134762 33.840366 42.858364 52.848366 60.804367"
         y="-111.50175"
         sodipodi:role="line"
         id="tspan100">reference</tspan><tspan
         x="109.87077 118.88876 124.84625 130.55237 140.43436"
         y="-102.10674"
         sodipodi:role="line"
         id="tspan102">error</tspan><tspan
         x="253.30775 260.43576 264.64777 274.60144 284.59146 293.26746"
         y="-94.662743"
         sodipodi:role="line"
         id="tspan104">signal</tspan><tspan
         x="327.45477 337.69675 341.94476 350.62076 360.53796"
         y="-121.81474"
         sodipodi:role="line"
         id="tspan106">plant</tspan><tspan
         x="157.20276 165.15886 175.04086 184.95876 190.91676 196.62236 206.50436 210.75237 215.00037 224.01836"
         y="-120.62875"
         sodipodi:role="line"
         id="tspan108">controller</tspan><tspan
         x="248.63676 256.59286 266.47485 276.39276 282.35077 288.05637 297.93835"
         y="-116.26175"
         sodipodi:role="line"
         id="tspan110">control</tspan><tspan
         x="491.74475 501.62677 511.54477 517.50281 527.74481 537.66278"
         y="-103.12875"
         sodipodi:role="line"
         id="tspan112">output</tspan><tspan
         x="411.70676 421.85876 426.07077 433.19876 439.15677 449.07477 455.03174 465.27374 473.94974 483.93976 491.89465"
         y="-136.75075"
         sodipodi:role="line"
         id="tspan114">disturbance</tspan><tspan
         x="21.235762"
         y="-66.157745"
         id="tspan116">r</tspan><tspan
         x="124.69476"
         y="-67.927742"
         id="tspan118">e</tspan><tspan
         x="274.99576"
         y="-70.959747"
         id="tspan120">u</tspan><tspan
         x="451.96176"
         y="-111.94375"
         id="tspan122">d</tspan><tspan
         x="435.00775"
         y="-83.094749"
         id="tspan124">+</tspan><tspan
         x="84.940765"
         y="-62.594746"
         id="tspan126">-</tspan><tspan
         x="44.00576"
         y="-71.762749"
         id="tspan128">+</tspan><tspan
         x="70.339767"
         y="-82.428749"
         id="tspan130">+</tspan><tspan
         x="181.14876 190.90475 196.01675 203.14476"
         y="-84.094749"
         sodipodi:role="line"
         id="tspan132">K(s)</tspan><tspan
         x="336.88174 348.50977 353.62177 360.74976"
         y="-83.761749"
         sodipodi:role="line"
         id="tspan134">G(s)</tspan><tspan
         x="517.79877"
         y="-72.791748"
         id="tspan136">y</tspan></text>
</g></svg>