<?xml version="1.0" encoding="UTF-8" standalone="no"?>
<!-- Created with Inkscape (http://www.inkscape.org/) -->

<svg
   xmlns:dc="http://purl.org/dc/elements/1.1/"
   xmlns:cc="http://creativecommons.org/ns#"
   xmlns:rdf="http://www.w3.org/1999/02/22-rdf-syntax-ns#"
   xmlns:svg="http://www.w3.org/2000/svg"
   xmlns="http://www.w3.org/2000/svg"
   xmlns:sodipodi="http://sodipodi.sourceforge.net/DTD/sodipodi-0.dtd"
   xmlns:inkscape="http://www.inkscape.org/namespaces/inkscape"
   version="1.1"
   id="svg2"
   xml:space="preserve"
   width="491.69086"
   height="397.21716"
   viewBox="0 0 491.69086 397.21716"
   sodipodi:docname="roll-time.svg"
   inkscape:version="0.92.0 r15299"><metadata
     id="metadata8"><rdf:RDF><cc:Work
         rdf:about=""><dc:format>image/svg+xml</dc:format><dc:type
           rdf:resource="http://purl.org/dc/dcmitype/StillImage" /><dc:title /></cc:Work></rdf:RDF></metadata><defs
     id="defs6"><clipPath
       clipPathUnits="userSpaceOnUse"
       id="clipPath236"><path
         d="M 545.832,2914.17 H 3800.83 V 345.832 H 545.832 Z"
         id="path234"
         inkscape:connector-curvature="0" /></clipPath></defs><sodipodi:namedview
     pagecolor="#ffffff"
     bordercolor="#666666"
     borderopacity="1"
     objecttolerance="10"
     gridtolerance="10"
     guidetolerance="10"
     inkscape:pageopacity="0"
     inkscape:pageshadow="2"
     inkscape:window-width="1600"
     inkscape:window-height="847"
     id="namedview4"
     showgrid="false"
     fit-margin-top="0"
     fit-margin-left="0"
     fit-margin-right="0"
     fit-margin-bottom="0"
     inkscape:zoom="1.7878788"
     inkscape:cx="276.62391"
     inkscape:cy="205.80146"
     inkscape:window-x="-8"
     inkscape:window-y="-8"
     inkscape:window-maximized="1"
     inkscape:current-layer="g10" /><g
     id="g10"
     inkscape:groupmode="layer"
     inkscape:label="A9Rvmc875_1gws12n_37k"
     transform="matrix(1.3333333,0,0,-1.3333333,-18.246452,394.32266)"><g
       id="g12"
       transform="scale(0.1)"><path
         d="m 545.832,346.668 h 3254.17 v 2567.5 H 545.832 Z"
         style="fill:#ffffff;fill-opacity:1;fill-rule:evenodd;stroke:none"
         id="path14"
         inkscape:connector-curvature="0" /></g><g
       id="g16"
       transform="scale(0.1)"><g
         id="g18"
         transform="translate(545.832,346.668)"><path
           d="M 0,0 V 2567.502 H 3254.168 V 0 H 0"
           style="fill:none;stroke:#ffffff;stroke-width:5;stroke-linecap:butt;stroke-linejoin:round;stroke-miterlimit:10;stroke-dasharray:none;stroke-opacity:1"
           id="path20"
           inkscape:connector-curvature="0" /></g></g><g
       id="g22"
       transform="scale(0.1)"><g
         id="g24"
         transform="translate(545.832,2914.1699)"><path
           d="M 0,0 H 3254.168"
           style="fill:none;stroke:#000000;stroke-width:5;stroke-linecap:butt;stroke-linejoin:round;stroke-miterlimit:10;stroke-dasharray:none;stroke-opacity:1"
           id="path26"
           inkscape:connector-curvature="0" /></g></g><g
       id="g28"
       transform="scale(0.1)"><g
         id="g30"
         transform="translate(545.832,346.668)"><path
           d="M 0,0 H 3254.168 V 2567.502"
           style="fill:none;stroke:#000000;stroke-width:5;stroke-linecap:butt;stroke-linejoin:round;stroke-miterlimit:10;stroke-dasharray:none;stroke-opacity:1"
           id="path32"
           inkscape:connector-curvature="0" /></g></g><g
       id="g34"
       transform="scale(0.1)"><g
         id="g36"
         transform="translate(545.832,346.668)"><path
           d="M 0,0 V 2567.502"
           style="fill:none;stroke:#000000;stroke-width:5;stroke-linecap:butt;stroke-linejoin:round;stroke-miterlimit:10;stroke-dasharray:none;stroke-opacity:1"
           id="path38"
           inkscape:connector-curvature="0" /></g></g><g
       id="g40"
       transform="scale(0.1)"><g
         id="g42"
         transform="translate(545.832,346.668)"><path
           d="M 0,0 H 3254.168"
           style="fill:none;stroke:#000000;stroke-width:5;stroke-linecap:butt;stroke-linejoin:round;stroke-miterlimit:10;stroke-dasharray:none;stroke-opacity:1"
           id="path44"
           inkscape:connector-curvature="0" /></g></g><g
       id="g46"
       transform="scale(0.1)"><g
         id="g48"
         transform="translate(545.832,346.668)"><path
           d="M 0,0 V 2567.502"
           style="fill:none;stroke:#000000;stroke-width:5;stroke-linecap:butt;stroke-linejoin:round;stroke-miterlimit:10;stroke-dasharray:none;stroke-opacity:1"
           id="path50"
           inkscape:connector-curvature="0" /></g></g><g
       id="g52"
       transform="scale(0.1)"><g
         id="g54"
         transform="translate(545.832,346.668)"><path
           d="M 0,0 V 33.332"
           style="fill:none;stroke:#000000;stroke-width:5;stroke-linecap:butt;stroke-linejoin:round;stroke-miterlimit:10;stroke-dasharray:none;stroke-opacity:1"
           id="path56"
           inkscape:connector-curvature="0" /></g></g><g
       id="g58"
       transform="scale(0.1)"><g
         id="g60"
         transform="translate(545.832,2914.1699)"><path
           d="M 0,0 V -32.5"
           style="fill:none;stroke:#000000;stroke-width:5;stroke-linecap:butt;stroke-linejoin:round;stroke-miterlimit:10;stroke-dasharray:none;stroke-opacity:1"
           id="path62"
           inkscape:connector-curvature="0" /></g></g><text
       transform="matrix(1,0,0,-1,50.75,18.833)"
       style="font-style:normal;font-variant:normal;font-weight:normal;font-stretch:normal;font-size:14px;font-family:'CMU Sans Serif';-inkscape-font-specification:'CMU Sans Serif';writing-mode:lr-tb;fill:#000000;fill-opacity:1;fill-rule:nonzero;stroke:none"
       id="text66"><tspan
         x="0"
         y="0"
         id="tspan64"
         style="font-style:normal;font-variant:normal;font-weight:normal;font-stretch:normal;font-family:'CMU Sans Serif';-inkscape-font-specification:'CMU Sans Serif'">0</tspan></text>
<g
       id="g68"
       transform="scale(0.1)"><g
         id="g70"
         transform="translate(1196.67,346.668)"><path
           d="M 0,0 V 33.332"
           style="fill:none;stroke:#000000;stroke-width:5;stroke-linecap:butt;stroke-linejoin:round;stroke-miterlimit:10;stroke-dasharray:none;stroke-opacity:1"
           id="path72"
           inkscape:connector-curvature="0" /></g></g><g
       id="g74"
       transform="scale(0.1)"><g
         id="g76"
         transform="translate(1196.67,2914.1699)"><path
           d="M 0,0 V -32.5"
           style="fill:none;stroke:#000000;stroke-width:5;stroke-linecap:butt;stroke-linejoin:round;stroke-miterlimit:10;stroke-dasharray:none;stroke-opacity:1"
           id="path78"
           inkscape:connector-curvature="0" /></g></g><text
       transform="matrix(1,0,0,-1,115.833,18.833)"
       style="font-style:normal;font-variant:normal;font-weight:normal;font-stretch:normal;font-size:14px;font-family:'CMU Sans Serif';-inkscape-font-specification:'CMU Sans Serif';writing-mode:lr-tb;fill:#000000;fill-opacity:1;fill-rule:nonzero;stroke:none"
       id="text82"><tspan
         x="0"
         y="0"
         id="tspan80"
         style="font-style:normal;font-variant:normal;font-weight:normal;font-stretch:normal;font-family:'CMU Sans Serif';-inkscape-font-specification:'CMU Sans Serif'">1</tspan></text>
<g
       id="g84"
       transform="scale(0.1)"><g
         id="g86"
         transform="translate(1847.5,346.668)"><path
           d="M 0,0 V 33.332"
           style="fill:none;stroke:#000000;stroke-width:5;stroke-linecap:butt;stroke-linejoin:round;stroke-miterlimit:10;stroke-dasharray:none;stroke-opacity:1"
           id="path88"
           inkscape:connector-curvature="0" /></g></g><g
       id="g90"
       transform="scale(0.1)"><g
         id="g92"
         transform="translate(1847.5,2914.1699)"><path
           d="M 0,0 V -32.5"
           style="fill:none;stroke:#000000;stroke-width:5;stroke-linecap:butt;stroke-linejoin:round;stroke-miterlimit:10;stroke-dasharray:none;stroke-opacity:1"
           id="path94"
           inkscape:connector-curvature="0" /></g></g><text
       transform="matrix(1,0,0,-1,180.917,18.833)"
       style="font-style:normal;font-variant:normal;font-weight:normal;font-stretch:normal;font-size:14px;font-family:'CMU Sans Serif';-inkscape-font-specification:'CMU Sans Serif';writing-mode:lr-tb;fill:#000000;fill-opacity:1;fill-rule:nonzero;stroke:none"
       id="text98"><tspan
         x="0"
         y="0"
         id="tspan96"
         style="font-style:normal;font-variant:normal;font-weight:normal;font-stretch:normal;font-family:'CMU Sans Serif';-inkscape-font-specification:'CMU Sans Serif'">2</tspan></text>
<g
       id="g100"
       transform="scale(0.1)"><g
         id="g102"
         transform="translate(2498.3301,346.668)"><path
           d="M 0,0 V 33.332"
           style="fill:none;stroke:#000000;stroke-width:5;stroke-linecap:butt;stroke-linejoin:round;stroke-miterlimit:10;stroke-dasharray:none;stroke-opacity:1"
           id="path104"
           inkscape:connector-curvature="0" /></g></g><g
       id="g106"
       transform="scale(0.1)"><g
         id="g108"
         transform="translate(2498.3301,2914.1699)"><path
           d="M 0,0 V -32.5"
           style="fill:none;stroke:#000000;stroke-width:5;stroke-linecap:butt;stroke-linejoin:round;stroke-miterlimit:10;stroke-dasharray:none;stroke-opacity:1"
           id="path110"
           inkscape:connector-curvature="0" /></g></g><text
       transform="matrix(1,0,0,-1,246,18.833)"
       style="font-style:normal;font-variant:normal;font-weight:normal;font-stretch:normal;font-size:14px;font-family:'CMU Sans Serif';-inkscape-font-specification:'CMU Sans Serif';writing-mode:lr-tb;fill:#000000;fill-opacity:1;fill-rule:nonzero;stroke:none"
       id="text114"><tspan
         x="0"
         y="0"
         id="tspan112"
         style="font-style:normal;font-variant:normal;font-weight:normal;font-stretch:normal;font-family:'CMU Sans Serif';-inkscape-font-specification:'CMU Sans Serif'">3</tspan></text>
<g
       id="g116"
       transform="scale(0.1)"><g
         id="g118"
         transform="translate(3149.1699,346.668)"><path
           d="M 0,0 V 33.332"
           style="fill:none;stroke:#000000;stroke-width:5;stroke-linecap:butt;stroke-linejoin:round;stroke-miterlimit:10;stroke-dasharray:none;stroke-opacity:1"
           id="path120"
           inkscape:connector-curvature="0" /></g></g><g
       id="g122"
       transform="scale(0.1)"><g
         id="g124"
         transform="translate(3149.1699,2914.1699)"><path
           d="M 0,0 V -32.5"
           style="fill:none;stroke:#000000;stroke-width:5;stroke-linecap:butt;stroke-linejoin:round;stroke-miterlimit:10;stroke-dasharray:none;stroke-opacity:1"
           id="path126"
           inkscape:connector-curvature="0" /></g></g><text
       transform="matrix(1,0,0,-1,311.083,18.833)"
       style="font-style:normal;font-variant:normal;font-weight:normal;font-stretch:normal;font-size:14px;font-family:'CMU Sans Serif';-inkscape-font-specification:'CMU Sans Serif';writing-mode:lr-tb;fill:#000000;fill-opacity:1;fill-rule:nonzero;stroke:none"
       id="text130"><tspan
         x="0"
         y="0"
         id="tspan128"
         style="font-style:normal;font-variant:normal;font-weight:normal;font-stretch:normal;font-family:'CMU Sans Serif';-inkscape-font-specification:'CMU Sans Serif'">4</tspan></text>
<g
       id="g132"
       transform="scale(0.1)"><g
         id="g134"
         transform="translate(3800,346.668)"><path
           d="M 0,0 V 33.332"
           style="fill:none;stroke:#000000;stroke-width:5;stroke-linecap:butt;stroke-linejoin:round;stroke-miterlimit:10;stroke-dasharray:none;stroke-opacity:1"
           id="path136"
           inkscape:connector-curvature="0" /></g></g><g
       id="g138"
       transform="scale(0.1)"><g
         id="g140"
         transform="translate(3800,2914.1699)"><path
           d="M 0,0 V -32.5"
           style="fill:none;stroke:#000000;stroke-width:5;stroke-linecap:butt;stroke-linejoin:round;stroke-miterlimit:10;stroke-dasharray:none;stroke-opacity:1"
           id="path142"
           inkscape:connector-curvature="0" /></g></g><text
       transform="matrix(1,0,0,-1,376.167,18.833)"
       style="font-style:normal;font-variant:normal;font-weight:normal;font-stretch:normal;font-size:14px;font-family:'CMU Sans Serif';-inkscape-font-specification:'CMU Sans Serif';writing-mode:lr-tb;fill:#000000;fill-opacity:1;fill-rule:nonzero;stroke:none"
       id="text146"><tspan
         x="0"
         y="0"
         id="tspan144"
         style="font-style:normal;font-variant:normal;font-weight:normal;font-stretch:normal;font-family:'CMU Sans Serif';-inkscape-font-specification:'CMU Sans Serif'">5</tspan></text>
<g
       id="g148"
       transform="scale(0.1)"><g
         id="g150"
         transform="translate(545.832,346.668)"><path
           d="M 0,0 H 32.5"
           style="fill:none;stroke:#000000;stroke-width:5;stroke-linecap:butt;stroke-linejoin:round;stroke-miterlimit:10;stroke-dasharray:none;stroke-opacity:1"
           id="path152"
           inkscape:connector-curvature="0" /></g></g><g
       id="g154"
       transform="scale(0.1)"><g
         id="g156"
         transform="translate(3800,346.668)"><path
           d="M 0,0 H -33.33"
           style="fill:none;stroke:#000000;stroke-width:5;stroke-linecap:butt;stroke-linejoin:round;stroke-miterlimit:10;stroke-dasharray:none;stroke-opacity:1"
           id="path158"
           inkscape:connector-curvature="0" /></g></g><text
       transform="matrix(1,0,0,-1,43.917,29.5)"
       style="font-style:normal;font-variant:normal;font-weight:normal;font-stretch:normal;font-size:14px;font-family:'CMU Sans Serif';-inkscape-font-specification:'CMU Sans Serif';writing-mode:lr-tb;fill:#000000;fill-opacity:1;fill-rule:nonzero;stroke:none"
       id="text162"><tspan
         x="0"
         y="0"
         id="tspan160"
         style="font-style:normal;font-variant:normal;font-weight:normal;font-stretch:normal;font-family:'CMU Sans Serif';-inkscape-font-specification:'CMU Sans Serif'">0</tspan></text>
<g
       id="g164"
       transform="scale(0.1)"><g
         id="g166"
         transform="translate(545.832,1202.5)"><path
           d="M 0,0 H 32.5"
           style="fill:none;stroke:#000000;stroke-width:5;stroke-linecap:butt;stroke-linejoin:round;stroke-miterlimit:10;stroke-dasharray:none;stroke-opacity:1"
           id="path168"
           inkscape:connector-curvature="0" /></g></g><g
       id="g170"
       transform="scale(0.1)"><g
         id="g172"
         transform="translate(3800,1202.5)"><path
           d="M 0,0 H -33.33"
           style="fill:none;stroke:#000000;stroke-width:5;stroke-linecap:butt;stroke-linejoin:round;stroke-miterlimit:10;stroke-dasharray:none;stroke-opacity:1"
           id="path174"
           inkscape:connector-curvature="0" /></g></g><text
       transform="matrix(1,0,0,-1,32.25,115.083)"
       style="font-style:normal;font-variant:normal;font-weight:normal;font-stretch:normal;font-size:14px;font-family:'CMU Sans Serif';-inkscape-font-specification:'CMU Sans Serif';writing-mode:lr-tb;fill:#000000;fill-opacity:1;fill-rule:nonzero;stroke:none"
       id="text178"><tspan
         x="0 7.7839999 11.676"
         y="0"
         sodipodi:role="line"
         id="tspan176">0.5</tspan></text>
<g
       id="g180"
       transform="scale(0.1)"><g
         id="g182"
         transform="translate(545.832,2058.3301)"><path
           d="M 0,0 H 32.5"
           style="fill:none;stroke:#000000;stroke-width:5;stroke-linecap:butt;stroke-linejoin:round;stroke-miterlimit:10;stroke-dasharray:none;stroke-opacity:1"
           id="path184"
           inkscape:connector-curvature="0" /></g></g><g
       id="g186"
       transform="scale(0.1)"><g
         id="g188"
         transform="translate(3800,2058.3301)"><path
           d="M 0,0 H -33.33"
           style="fill:none;stroke:#000000;stroke-width:5;stroke-linecap:butt;stroke-linejoin:round;stroke-miterlimit:10;stroke-dasharray:none;stroke-opacity:1"
           id="path190"
           inkscape:connector-curvature="0" /></g></g><text
       transform="matrix(1,0,0,-1,43.917,200.667)"
       style="font-style:normal;font-variant:normal;font-weight:normal;font-stretch:normal;font-size:14px;font-family:'CMU Sans Serif';-inkscape-font-specification:'CMU Sans Serif';writing-mode:lr-tb;fill:#000000;fill-opacity:1;fill-rule:nonzero;stroke:none"
       id="text194"><tspan
         x="0"
         y="0"
         id="tspan192"
         style="font-style:normal;font-variant:normal;font-weight:normal;font-stretch:normal;font-family:'CMU Sans Serif';-inkscape-font-specification:'CMU Sans Serif'">1</tspan></text>
<g
       id="g196"
       transform="scale(0.1)"><g
         id="g198"
         transform="translate(545.832,2914.1699)"><path
           d="M 0,0 H 32.5"
           style="fill:none;stroke:#000000;stroke-width:5;stroke-linecap:butt;stroke-linejoin:round;stroke-miterlimit:10;stroke-dasharray:none;stroke-opacity:1"
           id="path200"
           inkscape:connector-curvature="0" /></g></g><g
       id="g202"
       transform="scale(0.1)"><g
         id="g204"
         transform="translate(3800,2914.1699)"><path
           d="M 0,0 H -33.33"
           style="fill:none;stroke:#000000;stroke-width:5;stroke-linecap:butt;stroke-linejoin:round;stroke-miterlimit:10;stroke-dasharray:none;stroke-opacity:1"
           id="path206"
           inkscape:connector-curvature="0" /></g></g><text
       transform="matrix(1,0,0,-1,32.25,286.25)"
       style="font-style:normal;font-variant:normal;font-weight:normal;font-stretch:normal;font-size:14px;font-family:'CMU Sans Serif';-inkscape-font-specification:'CMU Sans Serif';writing-mode:lr-tb;fill:#000000;fill-opacity:1;fill-rule:nonzero;stroke:none"
       id="text210"><tspan
         x="0 7.7839999 11.676"
         y="0"
         sodipodi:role="line"
         id="tspan208">1.5</tspan></text>
<g
       id="g212"
       transform="scale(0.1)"><g
         id="g214"
         transform="translate(545.832,2914.1699)"><path
           d="M 0,0 H 3254.168"
           style="fill:none;stroke:#000000;stroke-width:5;stroke-linecap:butt;stroke-linejoin:round;stroke-miterlimit:10;stroke-dasharray:none;stroke-opacity:1"
           id="path216"
           inkscape:connector-curvature="0" /></g></g><g
       id="g218"
       transform="scale(0.1)"><g
         id="g220"
         transform="translate(545.832,346.668)"><path
           d="M 0,0 H 3254.168 V 2567.502"
           style="fill:none;stroke:#000000;stroke-width:5;stroke-linecap:butt;stroke-linejoin:round;stroke-miterlimit:10;stroke-dasharray:none;stroke-opacity:1"
           id="path222"
           inkscape:connector-curvature="0" /></g></g><g
       id="g224"
       transform="scale(0.1)"><g
         id="g226"
         transform="translate(545.832,346.668)"><path
           d="M 0,0 V 2567.502"
           style="fill:none;stroke:#000000;stroke-width:5;stroke-linecap:butt;stroke-linejoin:round;stroke-miterlimit:10;stroke-dasharray:none;stroke-opacity:1"
           id="path228"
           inkscape:connector-curvature="0" /></g></g><g
       id="g230"
       transform="scale(0.1)"><g
         id="g232"
         clip-path="url(#clipPath236)"><g
           id="g238"
           transform="translate(1853.33,2206.6699)" /><g
           id="g242"
           transform="translate(545.832,346.668)"><path
             d="m 0,0 5.836,2.5 6.664,5 6.668,8.332 6.668,10.832 6.664,15 5.836,17.5 L 45,80 l 6.668,23.332 6.668,25.832 6.664,29.168 5.836,30.832 6.664,34.168 6.668,35.832 6.668,37.5 6.664,40.836 5.836,41.664 6.664,44.168 6.668,45 6.668,47.5 6.664,48.332 6.668,50 5.832,50.838 6.668,52.5 6.668,52.5 6.664,54.16 6.668,54.17 5.832,55.83 6.668,55 6.668,55.84 6.664,56.66 6.668,55.84 5.832,56.66 6.668,55.84 6.668,55.83 6.664,55 6.668,55 5.832,55 6.668,54.17 6.668,52.5 6.664,52.5 6.668,51.66 6.668,50 5.832,49.17 6.668,48.33 6.664,46.67 6.668,45.83 6.668,44.17 5.832,43.33 6.668,40.84 6.664,40 6.668,38.33 6.668,36.67 5.832,35 6.668,33.33 6.664,31.67 6.668,30 6.668,28.33 5.832,25.83 6.668,24.17 6.664,22.5 6.668,20.83 6.668,19.17 6.664,16.67 5.836,15.83 6.664,13.33 6.668,10.84 6.668,10 6.664,8.33 5.836,5.83 6.662,4.17 6.67,2.5 6.67,1.67 6.66,-0.84 5.84,-2.5 6.66,-4.16 6.67,-5 6.67,-7.5 6.66,-8.34 5.84,-10 6.66,-10.83 6.67,-13.33 6.67,-13.34 6.66,-15 6.67,-16.66 5.83,-17.5 6.67,-18.34 6.67,-19.16 6.66,-20.84 6.67,-20.83 5.83,-22.5 6.67,-22.5 6.67,-23.33 6.66,-24.17 6.67,-25 5.83,-25.83 6.67,-25.84 6.67,-25.83 6.66,-26.67 6.67,-26.66 6.67,-26.67 5.83,-27.5 6.67,-27.5 6.66,-26.67 6.67,-27.5 6.67,-27.5 5.83,-27.5 6.67,-26.66 6.66,-26.67 6.67,-26.67 6.67,-25.83 5.83,-25.83 6.67,-25.84 6.66,-25 6.67,-25 6.67,-23.33 5.83,-24.17 6.67,-22.5 6.66,-22.5 6.67,-21.66 6.67,-20.84 6.66,-20 5.84,-19.16 6.66,-19.17 6.67,-17.5 6.67,-17.5 6.66,-15.83 5.84,-15.84 6.66,-14.16 6.67,-14.17 6.67,-12.5 6.66,-11.67 5.84,-10.83 6.66,-10.83 6.67,-9.17 6.67,-8.33 6.66,-7.5 5.84,-6.67 6.66,-5 6.67,-5 6.67,-4.17 6.66,-3.33 6.67,-1.67 5.83,-1.66 h 13.34 l 6.66,0.83 6.67,1.67 5.83,3.33 6.67,3.33 6.67,3.34 6.66,5 6.67,5.83 5.83,5.83 6.67,6.67 6.67,7.5 6.66,7.5 6.67,8.33 5.83,9.17 6.67,9.17 6.67,10 6.66,10.83 6.67,10.83 6.67,10.84 5.83,11.66 6.67,11.67 6.66,11.67 6.67,12.5 6.67,12.5 5.83,12.5 6.67,13.33 6.66,12.5 6.67,13.33 6.67,13.34 5.83,13.33 6.67,13.33 6.66,13.34 6.67,13.33 6.67,12.5 5.83,13.33 6.67,13.34 6.66,12.5 6.67,13.33 6.67,12.5 6.66,12.5 5.84,11.67 6.66,12.5 6.67,11.66 6.67,10.84 6.66,11.66 5.84,10.84 6.66,10 6.67,10.83 6.67,10 6.66,9.17 5.84,9.16 6.66,8.34 6.67,8.33 6.67,8.33 6.66,7.5 6.67,6.67 5.83,6.6699 6.67,6.66 6.67,5.84 6.66,5 6.67,5 5.83,5 6.67,4.16 6.67,3.34 6.66,3.33 6.67,2.5 5.83,2.5 6.67,2.5 6.67,0.83 6.66,1.67 6.67,0.83 h 12.5 l 6.67,-0.83 6.66,-0.83 6.67,-0.84 6.67,-1.66 5.83,-2.5 6.67,-1.67 6.66,-3.33 6.67,-2.5 6.67,-3.34 5.83,-3.33 6.67,-4.17 6.66,-4.16 6.67,-4.17 6.67,-4.17 5.83,-5 6.67,-5 6.66,-5 6.67,-5.83 6.67,-5.83 5.83,-5 6.67,-5.84 6.66,-6.66 6.67,-5.84 6.67,-5.83 6.66,-6.67 5.84,-5.83 6.66,-6.67 6.67,-6.66 6.67,-5.84 6.66,-6.66 5.84,-6.67 6.66,-6.67 6.67,-5.83 6.67,-6.67 6.66,-6.66 5.84,-5.84 6.66,-6.66 6.67,-5.84 6.67,-5.83 6.66,-5.83 5.84,-5.84 6.66,-5.83 6.67,-5.83 6.67,-5.84 6.66,-5 6.67,-5 5.83,-5 6.67,-5 6.67,-4.16 6.66,-5 6.67,-4.17 5.83,-4.17 6.67,-3.33 6.67,-4.17 6.66,-3.33 6.67,-3.33 5.83,-2.5 6.67,-3.34 6.67,-2.5 6.66,-2.5 6.67,-2.5 5.83,-1.66 6.67,-1.67 6.67,-1.67 6.66,-1.66 6.67,-0.84 6.67,-0.83 5.83,-0.83 6.67,-0.84 h 32.5 l 6.66,0.84 6.67,0.83 6.67,0.83 5.83,0.84 6.67,1.66 6.66,1.67 6.67,1.67 6.67,1.66 6.66,1.67 5.84,1.67 6.66,2.5 6.67,1.66 6.67,2.5 6.66,2.5 5.84,2.5 6.66,2.5 6.67,2.5 6.67,3.34 6.66,2.5 5.84,3.33 6.66,2.5 6.67,3.33 6.67,2.5 6.66,3.34 5.84,3.33 6.66,3.33 6.67,2.5 6.67,3.34 6.66,3.33 6.67,3.33 5.83,2.5 6.67,3.34 6.67,3.33 6.66,3.33 6.67,2.5 5.83,3.34 6.67,2.5 6.67,3.33 6.66,2.5 6.67,3.33 5.83,2.5 6.67,2.5 6.67,2.5 6.66,2.5 6.67,2.5 5.83,2.5 6.67,1.67 6.67,2.5 6.66,2.5 6.67,1.67 6.67,1.66 5.83,1.67 6.67,1.67 6.66,1.66 6.67,1.67 6.67,1.67 5.83,0.83 6.67,1.67 6.66,0.83 6.67,0.83 6.67,0.84 5.83,0.83 6.67,0.83 6.66,0.84 h 6.67 l 6.67,0.83 h 45 l 6.66,-0.83 h 6.67 l 6.67,-0.84 6.66,-0.83 h 5.84 l 6.66,-0.83 6.67,-0.84 6.67,-0.83 6.66,-1.67 5.84,-0.83 6.66,-0.83 6.67,-0.84 6.67,-1.66 6.66,-0.84 5.84,-1.66 6.66,-0.84 6.67,-1.66 6.67,-1.67 6.66,-0.83 6.67,-1.67 5.83,-1.67 6.67,-1.66 6.67,-0.84 6.66,-1.66 6.67,-1.67 5.83,-1.67 6.67,-1.66 6.67,-1.67 6.66,-0.83 6.67,-1.67 5.83,-1.67 6.67,-1.66 6.67,-1.67 6.66,-0.83 6.67,-1.67 6.67,-1.67 5.83,-1.66 6.67,-0.84 6.66,-1.66 6.67,-0.84 6.67,-1.66 5.83,-0.84 6.67,-1.66 6.66,-0.84 6.67,-1.66 6.67,-0.84 5.83,-0.83 6.67,-1.67 6.66,-0.83 6.67,-0.83 6.67,-0.84 5.83,-0.83 6.67,-0.83 6.66,-0.84 h 6.67 l 6.67,-0.83 6.66,-0.83 5.84,-0.84 h 6.66 l 6.67,-0.83 h 6.67 l 6.66,-0.83 h 19.17 l 6.67,-0.84 h 32.5 l 6.66,0.84 h 19.17 l 6.67,0.83 h 6.66 l 6.67,0.83 h 5.83 l 6.67,0.84 h 6.67 l 6.66,0.83 h 6.67 l 5.83,0.83 6.67,0.84 h 6.67 l 6.66,0.83 6.67,0.83 5.83,0.84 6.67,0.83 h 6.67 l 6.66,0.83 6.67,0.84 5.83,0.83 6.67,0.83 6.67,0.84 6.66,0.83 h 6.67 l 6.67,0.83 5.83,0.84 6.67,0.83 6.66,0.83 6.67,0.84 6.67,0.83 5.83,0.83 h 6.67 l 6.66,0.84 6.67,0.83 6.67,0.83 5.83,0.84 6.67,0.83 h 6.66 l 6.67,0.83 6.67,0.84 5.83,0.83 h 6.67 l 6.66,0.83 6.67,0.84 h 6.67 l 6.66,0.83 h 5.84 l 6.66,0.83 h 6.67 l 6.67,0.84 h 6.66 l 5.84,0.83 h 6.66 l 6.67,0.83 h 19.17 l 6.66,0.84 h 26.67"
             style="fill:none;stroke:#0000ff;stroke-width:15;stroke-linecap:butt;stroke-linejoin:round;stroke-miterlimit:10;stroke-dasharray:none;stroke-opacity:1"
             id="path244"
             inkscape:connector-curvature="0"
             sodipodi:nodetypes="cccccccccccccccccccccccccccccccccccccccccccccccccccccccccccccccccccccccccccccccccccccccccccccccccccccccccccccccccccccccccccccccccccccccccccccccccccccccccccccccccccccccccccccccccccccccccccccccccccccccccccccccccccccccccccccccccccccccccccccccccccccccccccccccccccccccccccccccccccccccccccccccccccccccccccccccccccccccccccccccccccccccccccccccccccccccccccccccccccccccccccccccccccccccccccccccccccccccccccccccccccccccccccccccccccccccccccccccccccccccccccccccccccccccccccccccccccccccccccc" /></g></g></g><text
       xml:space="preserve"
       style="font-style:normal;font-weight:normal;font-size:30px;line-height:1.25;font-family:sans-serif;letter-spacing:0px;word-spacing:0px;fill:#000000;fill-opacity:1;stroke:none;stroke-width:0.75"
       x="100.13778"
       y="24.184839"
       id="text4609"
       transform="matrix(0,1,1,0,0,0)"><tspan
         sodipodi:role="line"
         id="tspan4607"
         x="100.13778"
         y="24.184839"
         style="font-style:normal;font-variant:normal;font-weight:normal;font-stretch:normal;font-size:14px;font-family:'CMU Sans Serif';-inkscape-font-specification:'CMU Sans Serif';stroke-width:0.75">Угол крена, <tspan
   style="font-style:oblique;font-variant:normal;font-weight:500;font-stretch:normal;font-family:'CMU Sans Serif';-inkscape-font-specification:'CMU Sans Serif Medium Oblique'"
   id="tspan4611">φ</tspan> (град) </tspan></text>
<text
       xml:space="preserve"
       style="font-style:normal;font-weight:normal;font-size:30px;line-height:1.25;font-family:sans-serif;letter-spacing:0px;word-spacing:0px;fill:#000000;fill-opacity:1;stroke:none;stroke-width:0.75"
       x="175.0769"
       y="-1.3291306"
       id="text4609-6"
       transform="scale(1,-1)"><tspan
         sodipodi:role="line"
         id="tspan4607-7"
         x="175.0769"
         y="-1.3291306"
         style="font-style:normal;font-variant:normal;font-weight:normal;font-stretch:normal;font-size:14px;font-family:'CMU Sans Serif';-inkscape-font-specification:'CMU Sans Serif';stroke-width:0.75">Время, <tspan
   style="font-style:oblique;font-variant:normal;font-weight:500;font-stretch:normal;font-family:'CMU Sans Serif';-inkscape-font-specification:'CMU Sans Serif Medium Oblique'"
   id="tspan4636">t</tspan> (c) </tspan></text>
</g></svg>