<?xml version="1.0" encoding="UTF-8" standalone="no"?>
<!-- Created with Inkscape (http://www.inkscape.org/) -->

<svg
   xmlns:dc="http://purl.org/dc/elements/1.1/"
   xmlns:cc="http://creativecommons.org/ns#"
   xmlns:rdf="http://www.w3.org/1999/02/22-rdf-syntax-ns#"
   xmlns:svg="http://www.w3.org/2000/svg"
   xmlns="http://www.w3.org/2000/svg"
   xmlns:sodipodi="http://sodipodi.sourceforge.net/DTD/sodipodi-0.dtd"
   xmlns:inkscape="http://www.inkscape.org/namespaces/inkscape"
   version="1.1"
   id="svg2"
   xml:space="preserve"
   width="458.88412"
   height="363.30859"
   viewBox="0 0 458.88412 363.30859"
   sodipodi:docname="step.svg"
   inkscape:version="0.92.0 r15299"><metadata
     id="metadata8"><rdf:RDF><cc:Work
         rdf:about=""><dc:format>image/svg+xml</dc:format><dc:type
           rdf:resource="http://purl.org/dc/dcmitype/StillImage" /><dc:title></dc:title></cc:Work></rdf:RDF></metadata><defs
     id="defs6"><clipPath
       clipPathUnits="userSpaceOnUse"
       id="clipPath300"><path
         d="M 545.832,2914.17 H 3800.83 V 345.832 H 545.832 Z"
         id="path298"
         inkscape:connector-curvature="0" /></clipPath></defs><sodipodi:namedview
     pagecolor="#ffffff"
     bordercolor="#666666"
     borderopacity="1"
     objecttolerance="10"
     gridtolerance="10"
     guidetolerance="10"
     inkscape:pageopacity="0"
     inkscape:pageshadow="2"
     inkscape:window-width="1259"
     inkscape:window-height="723"
     id="namedview4"
     showgrid="false"
     fit-margin-top="0"
     fit-margin-left="0"
     fit-margin-right="0"
     fit-margin-bottom="0"
     inkscape:zoom="0.22348485"
     inkscape:cx="357.00262"
     inkscape:cy="498.0586"
     inkscape:window-x="0"
     inkscape:window-y="0"
     inkscape:window-maximized="0"
     inkscape:current-layer="g10" /><g
     id="g10"
     inkscape:groupmode="layer"
     inkscape:label="A9Rkb9apt_1gws12j_37k"
     transform="matrix(1.3333333,0,0,-1.3333333,-50.997384,393.24999)"><g
       id="g12"
       transform="scale(0.1)"><path
         d="m 545.832,346.668 h 3254.17 v 2567.5 H 545.832 Z"
         style="fill:#ffffff;fill-opacity:1;fill-rule:evenodd;stroke:none"
         id="path14"
         inkscape:connector-curvature="0" /></g><g
       id="g16"
       transform="scale(0.1)"><g
         id="g18"
         transform="translate(545.832,346.668)"><path
           d="M 0,0 V 2567.502 H 3254.168 V 0 H 0"
           style="fill:none;stroke:#ffffff;stroke-width:5;stroke-linecap:butt;stroke-linejoin:round;stroke-miterlimit:10;stroke-dasharray:none;stroke-opacity:1"
           id="path20"
           inkscape:connector-curvature="0" /></g></g><g
       id="g22"
       transform="scale(0.1)"><g
         id="g24"
         transform="translate(545.832,2914.1699)"><path
           d="M 0,0 H 3254.168"
           style="fill:none;stroke:#000000;stroke-width:5;stroke-linecap:butt;stroke-linejoin:round;stroke-miterlimit:10;stroke-dasharray:none;stroke-opacity:1"
           id="path26"
           inkscape:connector-curvature="0" /></g></g><g
       id="g28"
       transform="scale(0.1)"><g
         id="g30"
         transform="translate(545.832,346.668)"><path
           d="M 0,0 H 3254.168 V 2567.502"
           style="fill:none;stroke:#000000;stroke-width:5;stroke-linecap:butt;stroke-linejoin:round;stroke-miterlimit:10;stroke-dasharray:none;stroke-opacity:1"
           id="path32"
           inkscape:connector-curvature="0" /></g></g><g
       id="g34"
       transform="scale(0.1)"><g
         id="g36"
         transform="translate(545.832,346.668)"><path
           d="M 0,0 V 2567.502"
           style="fill:none;stroke:#000000;stroke-width:5;stroke-linecap:butt;stroke-linejoin:round;stroke-miterlimit:10;stroke-dasharray:none;stroke-opacity:1"
           id="path38"
           inkscape:connector-curvature="0" /></g></g><g
       id="g40"
       transform="scale(0.1)"><g
         id="g42"
         transform="translate(545.832,346.668)"><path
           d="M 0,0 H 3254.168"
           style="fill:none;stroke:#000000;stroke-width:5;stroke-linecap:butt;stroke-linejoin:round;stroke-miterlimit:10;stroke-dasharray:none;stroke-opacity:1"
           id="path44"
           inkscape:connector-curvature="0" /></g></g><g
       id="g46"
       transform="scale(0.1)"><g
         id="g48"
         transform="translate(545.832,346.668)"><path
           d="M 0,0 V 2567.502"
           style="fill:none;stroke:#000000;stroke-width:5;stroke-linecap:butt;stroke-linejoin:round;stroke-miterlimit:10;stroke-dasharray:none;stroke-opacity:1"
           id="path50"
           inkscape:connector-curvature="0" /></g></g><g
       id="g52"
       transform="scale(0.1)"><g
         id="g54"
         transform="translate(545.832,346.668)"><path
           d="M 0,0 V 33.332"
           style="fill:none;stroke:#000000;stroke-width:5;stroke-linecap:butt;stroke-linejoin:round;stroke-miterlimit:10;stroke-dasharray:none;stroke-opacity:1"
           id="path56"
           inkscape:connector-curvature="0" /></g></g><g
       id="g58"
       transform="scale(0.1)"><g
         id="g60"
         transform="translate(545.832,2914.1699)"><path
           d="M 0,0 V -32.5"
           style="fill:none;stroke:#000000;stroke-width:5;stroke-linecap:butt;stroke-linejoin:round;stroke-miterlimit:10;stroke-dasharray:none;stroke-opacity:1"
           id="path62"
           inkscape:connector-curvature="0" /></g></g><text
       transform="matrix(1,0,0,-1,51.833,22.583)"
       style="font-variant:normal;font-weight:normal;font-size:10px;font-family:Helvetica;-inkscape-font-specification:Helvetica;writing-mode:lr-tb;fill:#000000;fill-opacity:1;fill-rule:nonzero;stroke:none"
       id="text66"><tspan
         x="0"
         y="0"
         id="tspan64">0</tspan></text>
<g
       id="g68"
       transform="scale(0.1)"><g
         id="g70"
         transform="translate(1196.67,346.668)"><path
           d="M 0,0 V 33.332"
           style="fill:none;stroke:#000000;stroke-width:5;stroke-linecap:butt;stroke-linejoin:round;stroke-miterlimit:10;stroke-dasharray:none;stroke-opacity:1"
           id="path72"
           inkscape:connector-curvature="0" /></g></g><g
       id="g74"
       transform="scale(0.1)"><g
         id="g76"
         transform="translate(1196.67,2914.1699)"><path
           d="M 0,0 V -32.5"
           style="fill:none;stroke:#000000;stroke-width:5;stroke-linecap:butt;stroke-linejoin:round;stroke-miterlimit:10;stroke-dasharray:none;stroke-opacity:1"
           id="path78"
           inkscape:connector-curvature="0" /></g></g><text
       transform="matrix(1,0,0,-1,116.917,22.583)"
       style="font-variant:normal;font-weight:normal;font-size:10px;font-family:Helvetica;-inkscape-font-specification:Helvetica;writing-mode:lr-tb;fill:#000000;fill-opacity:1;fill-rule:nonzero;stroke:none"
       id="text82"><tspan
         x="0"
         y="0"
         id="tspan80">1</tspan></text>
<g
       id="g84"
       transform="scale(0.1)"><g
         id="g86"
         transform="translate(1847.5,346.668)"><path
           d="M 0,0 V 33.332"
           style="fill:none;stroke:#000000;stroke-width:5;stroke-linecap:butt;stroke-linejoin:round;stroke-miterlimit:10;stroke-dasharray:none;stroke-opacity:1"
           id="path88"
           inkscape:connector-curvature="0" /></g></g><g
       id="g90"
       transform="scale(0.1)"><g
         id="g92"
         transform="translate(1847.5,2914.1699)"><path
           d="M 0,0 V -32.5"
           style="fill:none;stroke:#000000;stroke-width:5;stroke-linecap:butt;stroke-linejoin:round;stroke-miterlimit:10;stroke-dasharray:none;stroke-opacity:1"
           id="path94"
           inkscape:connector-curvature="0" /></g></g><text
       transform="matrix(1,0,0,-1,182,22.583)"
       style="font-variant:normal;font-weight:normal;font-size:10px;font-family:Helvetica;-inkscape-font-specification:Helvetica;writing-mode:lr-tb;fill:#000000;fill-opacity:1;fill-rule:nonzero;stroke:none"
       id="text98"><tspan
         x="0"
         y="0"
         id="tspan96">2</tspan></text>
<g
       id="g100"
       transform="scale(0.1)"><g
         id="g102"
         transform="translate(2498.3301,346.668)"><path
           d="M 0,0 V 33.332"
           style="fill:none;stroke:#000000;stroke-width:5;stroke-linecap:butt;stroke-linejoin:round;stroke-miterlimit:10;stroke-dasharray:none;stroke-opacity:1"
           id="path104"
           inkscape:connector-curvature="0" /></g></g><g
       id="g106"
       transform="scale(0.1)"><g
         id="g108"
         transform="translate(2498.3301,2914.1699)"><path
           d="M 0,0 V -32.5"
           style="fill:none;stroke:#000000;stroke-width:5;stroke-linecap:butt;stroke-linejoin:round;stroke-miterlimit:10;stroke-dasharray:none;stroke-opacity:1"
           id="path110"
           inkscape:connector-curvature="0" /></g></g><text
       transform="matrix(1,0,0,-1,247.083,22.583)"
       style="font-variant:normal;font-weight:normal;font-size:10px;font-family:Helvetica;-inkscape-font-specification:Helvetica;writing-mode:lr-tb;fill:#000000;fill-opacity:1;fill-rule:nonzero;stroke:none"
       id="text114"><tspan
         x="0"
         y="0"
         id="tspan112">3</tspan></text>
<g
       id="g116"
       transform="scale(0.1)"><g
         id="g118"
         transform="translate(3149.1699,346.668)"><path
           d="M 0,0 V 33.332"
           style="fill:none;stroke:#000000;stroke-width:5;stroke-linecap:butt;stroke-linejoin:round;stroke-miterlimit:10;stroke-dasharray:none;stroke-opacity:1"
           id="path120"
           inkscape:connector-curvature="0" /></g></g><g
       id="g122"
       transform="scale(0.1)"><g
         id="g124"
         transform="translate(3149.1699,2914.1699)"><path
           d="M 0,0 V -32.5"
           style="fill:none;stroke:#000000;stroke-width:5;stroke-linecap:butt;stroke-linejoin:round;stroke-miterlimit:10;stroke-dasharray:none;stroke-opacity:1"
           id="path126"
           inkscape:connector-curvature="0" /></g></g><text
       transform="matrix(1,0,0,-1,312.167,22.583)"
       style="font-variant:normal;font-weight:normal;font-size:10px;font-family:Helvetica;-inkscape-font-specification:Helvetica;writing-mode:lr-tb;fill:#000000;fill-opacity:1;fill-rule:nonzero;stroke:none"
       id="text130"><tspan
         x="0"
         y="0"
         id="tspan128">4</tspan></text>
<g
       id="g132"
       transform="scale(0.1)"><g
         id="g134"
         transform="translate(3800,346.668)"><path
           d="M 0,0 V 33.332"
           style="fill:none;stroke:#000000;stroke-width:5;stroke-linecap:butt;stroke-linejoin:round;stroke-miterlimit:10;stroke-dasharray:none;stroke-opacity:1"
           id="path136"
           inkscape:connector-curvature="0" /></g></g><g
       id="g138"
       transform="scale(0.1)"><g
         id="g140"
         transform="translate(3800,2914.1699)"><path
           d="M 0,0 V -32.5"
           style="fill:none;stroke:#000000;stroke-width:5;stroke-linecap:butt;stroke-linejoin:round;stroke-miterlimit:10;stroke-dasharray:none;stroke-opacity:1"
           id="path142"
           inkscape:connector-curvature="0" /></g></g><text
       transform="matrix(1,0,0,-1,377.25,22.583)"
       style="font-variant:normal;font-weight:normal;font-size:10px;font-family:Helvetica;-inkscape-font-specification:Helvetica;writing-mode:lr-tb;fill:#000000;fill-opacity:1;fill-rule:nonzero;stroke:none"
       id="text146"><tspan
         x="0"
         y="0"
         id="tspan144">5</tspan></text>
<g
       id="g148"
       transform="scale(0.1)"><g
         id="g150"
         transform="translate(545.832,346.668)"><path
           d="M 0,0 H 32.5"
           style="fill:none;stroke:#000000;stroke-width:5;stroke-linecap:butt;stroke-linejoin:round;stroke-miterlimit:10;stroke-dasharray:none;stroke-opacity:1"
           id="path152"
           inkscape:connector-curvature="0" /></g></g><g
       id="g154"
       transform="scale(0.1)"><g
         id="g156"
         transform="translate(3800,346.668)"><path
           d="M 0,0 H -33.33"
           style="fill:none;stroke:#000000;stroke-width:5;stroke-linecap:butt;stroke-linejoin:round;stroke-miterlimit:10;stroke-dasharray:none;stroke-opacity:1"
           id="path158"
           inkscape:connector-curvature="0" /></g></g><text
       transform="matrix(1,0,0,-1,46.167,31)"
       style="font-variant:normal;font-weight:normal;font-size:10px;font-family:Helvetica;-inkscape-font-specification:Helvetica;writing-mode:lr-tb;fill:#000000;fill-opacity:1;fill-rule:nonzero;stroke:none"
       id="text162"><tspan
         x="0"
         y="0"
         id="tspan160">0</tspan></text>
<g
       id="g164"
       transform="scale(0.1)"><g
         id="g166"
         transform="translate(545.832,714.168)"><path
           d="M 0,0 H 32.5"
           style="fill:none;stroke:#000000;stroke-width:5;stroke-linecap:butt;stroke-linejoin:round;stroke-miterlimit:10;stroke-dasharray:none;stroke-opacity:1"
           id="path168"
           inkscape:connector-curvature="0" /></g></g><g
       id="g170"
       transform="scale(0.1)"><g
         id="g172"
         transform="translate(3800,714.168)"><path
           d="M 0,0 H -33.33"
           style="fill:none;stroke:#000000;stroke-width:5;stroke-linecap:butt;stroke-linejoin:round;stroke-miterlimit:10;stroke-dasharray:none;stroke-opacity:1"
           id="path174"
           inkscape:connector-curvature="0" /></g></g><text
       transform="matrix(1,0,0,-1,37.833,67.75)"
       style="font-variant:normal;font-weight:normal;font-size:10px;font-family:Helvetica;-inkscape-font-specification:Helvetica;writing-mode:lr-tb;fill:#000000;fill-opacity:1;fill-rule:nonzero;stroke:none"
       id="text178"><tspan
         x="0 5.5599999 8.3400002"
         y="0"
         sodipodi:role="line"
         id="tspan176">0.2</tspan></text>
<g
       id="g180"
       transform="scale(0.1)"><g
         id="g182"
         transform="translate(545.832,1080.83)"><path
           d="M 0,0 H 32.5"
           style="fill:none;stroke:#000000;stroke-width:5;stroke-linecap:butt;stroke-linejoin:round;stroke-miterlimit:10;stroke-dasharray:none;stroke-opacity:1"
           id="path184"
           inkscape:connector-curvature="0" /></g></g><g
       id="g186"
       transform="scale(0.1)"><g
         id="g188"
         transform="translate(3800,1080.83)"><path
           d="M 0,0 H -33.33"
           style="fill:none;stroke:#000000;stroke-width:5;stroke-linecap:butt;stroke-linejoin:round;stroke-miterlimit:10;stroke-dasharray:none;stroke-opacity:1"
           id="path190"
           inkscape:connector-curvature="0" /></g></g><text
       transform="matrix(1,0,0,-1,37.833,104.417)"
       style="font-variant:normal;font-weight:normal;font-size:10px;font-family:Helvetica;-inkscape-font-specification:Helvetica;writing-mode:lr-tb;fill:#000000;fill-opacity:1;fill-rule:nonzero;stroke:none"
       id="text194"><tspan
         x="0 5.5599999 8.3400002"
         y="0"
         sodipodi:role="line"
         id="tspan192">0.4</tspan></text>
<g
       id="g196"
       transform="scale(0.1)"><g
         id="g198"
         transform="translate(545.832,1447.5)"><path
           d="M 0,0 H 32.5"
           style="fill:none;stroke:#000000;stroke-width:5;stroke-linecap:butt;stroke-linejoin:round;stroke-miterlimit:10;stroke-dasharray:none;stroke-opacity:1"
           id="path200"
           inkscape:connector-curvature="0" /></g></g><g
       id="g202"
       transform="scale(0.1)"><g
         id="g204"
         transform="translate(3800,1447.5)"><path
           d="M 0,0 H -33.33"
           style="fill:none;stroke:#000000;stroke-width:5;stroke-linecap:butt;stroke-linejoin:round;stroke-miterlimit:10;stroke-dasharray:none;stroke-opacity:1"
           id="path206"
           inkscape:connector-curvature="0" /></g></g><text
       transform="matrix(1,0,0,-1,37.833,141.083)"
       style="font-variant:normal;font-weight:normal;font-size:10px;font-family:Helvetica;-inkscape-font-specification:Helvetica;writing-mode:lr-tb;fill:#000000;fill-opacity:1;fill-rule:nonzero;stroke:none"
       id="text210"><tspan
         x="0 5.5599999 8.3400002"
         y="0"
         sodipodi:role="line"
         id="tspan208">0.6</tspan></text>
<g
       id="g212"
       transform="scale(0.1)"><g
         id="g214"
         transform="translate(545.832,1814.17)"><path
           d="M 0,0 H 32.5"
           style="fill:none;stroke:#000000;stroke-width:5;stroke-linecap:butt;stroke-linejoin:round;stroke-miterlimit:10;stroke-dasharray:none;stroke-opacity:1"
           id="path216"
           inkscape:connector-curvature="0" /></g></g><g
       id="g218"
       transform="scale(0.1)"><g
         id="g220"
         transform="translate(3800,1814.17)"><path
           d="M 0,0 H -33.33"
           style="fill:none;stroke:#000000;stroke-width:5;stroke-linecap:butt;stroke-linejoin:round;stroke-miterlimit:10;stroke-dasharray:none;stroke-opacity:1"
           id="path222"
           inkscape:connector-curvature="0" /></g></g><text
       transform="matrix(1,0,0,-1,37.833,177.75)"
       style="font-variant:normal;font-weight:normal;font-size:10px;font-family:Helvetica;-inkscape-font-specification:Helvetica;writing-mode:lr-tb;fill:#000000;fill-opacity:1;fill-rule:nonzero;stroke:none"
       id="text226"><tspan
         x="0 5.5599999 8.3400002"
         y="0"
         sodipodi:role="line"
         id="tspan224">0.8</tspan></text>
<g
       id="g228"
       transform="scale(0.1)"><g
         id="g230"
         transform="translate(545.832,2180.8301)"><path
           d="M 0,0 H 32.5"
           style="fill:none;stroke:#000000;stroke-width:5;stroke-linecap:butt;stroke-linejoin:round;stroke-miterlimit:10;stroke-dasharray:none;stroke-opacity:1"
           id="path232"
           inkscape:connector-curvature="0" /></g></g><g
       id="g234"
       transform="scale(0.1)"><g
         id="g236"
         transform="translate(3800,2180.8301)"><path
           d="M 0,0 H -33.33"
           style="fill:none;stroke:#000000;stroke-width:5;stroke-linecap:butt;stroke-linejoin:round;stroke-miterlimit:10;stroke-dasharray:none;stroke-opacity:1"
           id="path238"
           inkscape:connector-curvature="0" /></g></g><text
       transform="matrix(1,0,0,-1,46.167,214.417)"
       style="font-variant:normal;font-weight:normal;font-size:10px;font-family:Helvetica;-inkscape-font-specification:Helvetica;writing-mode:lr-tb;fill:#000000;fill-opacity:1;fill-rule:nonzero;stroke:none"
       id="text242"><tspan
         x="0"
         y="0"
         id="tspan240">1</tspan></text>
<g
       id="g244"
       transform="scale(0.1)"><g
         id="g246"
         transform="translate(545.832,2547.5)"><path
           d="M 0,0 H 32.5"
           style="fill:none;stroke:#000000;stroke-width:5;stroke-linecap:butt;stroke-linejoin:round;stroke-miterlimit:10;stroke-dasharray:none;stroke-opacity:1"
           id="path248"
           inkscape:connector-curvature="0" /></g></g><g
       id="g250"
       transform="scale(0.1)"><g
         id="g252"
         transform="translate(3800,2547.5)"><path
           d="M 0,0 H -33.33"
           style="fill:none;stroke:#000000;stroke-width:5;stroke-linecap:butt;stroke-linejoin:round;stroke-miterlimit:10;stroke-dasharray:none;stroke-opacity:1"
           id="path254"
           inkscape:connector-curvature="0" /></g></g><text
       transform="matrix(1,0,0,-1,37.833,251.083)"
       style="font-variant:normal;font-weight:normal;font-size:10px;font-family:Helvetica;-inkscape-font-specification:Helvetica;writing-mode:lr-tb;fill:#000000;fill-opacity:1;fill-rule:nonzero;stroke:none"
       id="text258"><tspan
         x="0 5.5599999 8.3400002"
         y="0"
         sodipodi:role="line"
         id="tspan256">1.2</tspan></text>
<g
       id="g260"
       transform="scale(0.1)"><g
         id="g262"
         transform="translate(545.832,2914.1699)"><path
           d="M 0,0 H 32.5"
           style="fill:none;stroke:#000000;stroke-width:5;stroke-linecap:butt;stroke-linejoin:round;stroke-miterlimit:10;stroke-dasharray:none;stroke-opacity:1"
           id="path264"
           inkscape:connector-curvature="0" /></g></g><g
       id="g266"
       transform="scale(0.1)"><g
         id="g268"
         transform="translate(3800,2914.1699)"><path
           d="M 0,0 H -33.33"
           style="fill:none;stroke:#000000;stroke-width:5;stroke-linecap:butt;stroke-linejoin:round;stroke-miterlimit:10;stroke-dasharray:none;stroke-opacity:1"
           id="path270"
           inkscape:connector-curvature="0" /></g></g><text
       transform="matrix(1,0,0,-1,37.833,287.75)"
       style="font-variant:normal;font-weight:normal;font-size:10px;font-family:Helvetica;-inkscape-font-specification:Helvetica;writing-mode:lr-tb;fill:#000000;fill-opacity:1;fill-rule:nonzero;stroke:none"
       id="text274"><tspan
         x="0 5.5599999 8.3400002"
         y="0"
         sodipodi:role="line"
         id="tspan272">1.4</tspan></text>
<g
       id="g276"
       transform="scale(0.1)"><g
         id="g278"
         transform="translate(545.832,2914.1699)"><path
           d="M 0,0 H 3254.168"
           style="fill:none;stroke:#000000;stroke-width:5;stroke-linecap:butt;stroke-linejoin:round;stroke-miterlimit:10;stroke-dasharray:none;stroke-opacity:1"
           id="path280"
           inkscape:connector-curvature="0" /></g></g><g
       id="g282"
       transform="scale(0.1)"><g
         id="g284"
         transform="translate(545.832,346.668)"><path
           d="M 0,0 H 3254.168 V 2567.502"
           style="fill:none;stroke:#000000;stroke-width:5;stroke-linecap:butt;stroke-linejoin:round;stroke-miterlimit:10;stroke-dasharray:none;stroke-opacity:1"
           id="path286"
           inkscape:connector-curvature="0" /></g></g><g
       id="g288"
       transform="scale(0.1)"><g
         id="g290"
         transform="translate(545.832,346.668)"><path
           d="M 0,0 V 2567.502"
           style="fill:none;stroke:#000000;stroke-width:5;stroke-linecap:butt;stroke-linejoin:round;stroke-miterlimit:10;stroke-dasharray:none;stroke-opacity:1"
           id="path292"
           inkscape:connector-curvature="0" /></g></g><g
       id="g294"
       transform="scale(0.1)"><g
         id="g296"
         clip-path="url(#clipPath300)"><g
           id="g302"
           transform="translate(1853.33,2162.5)"><path
             d="M 0,0 H 1946.67"
             style="fill:none;stroke:#0000ff;stroke-width:30;stroke-linecap:butt;stroke-linejoin:round;stroke-miterlimit:10;stroke-dasharray:none;stroke-opacity:1"
             id="path304"
             inkscape:connector-curvature="0" /></g><g
           id="g306"
           transform="translate(545.832,346.668)"><path
             d="M 0,0 5.836,9.164 12.5,35 19.168,75 25.836,127.5 32.5,191.664 38.336,265 45,346.664 l 6.668,87.5 6.668,92.5 6.664,95.836 5.836,98.332 6.664,99.17 6.668,99.16 6.668,98.34 6.664,96.66 5.836,94.17 6.664,90.83 6.668,86.67 6.668,83.33 6.664,78.34 6.668,72.5 5.832,68.33 6.668,63.33 6.668,56.67 6.664,52.5 6.668,46.67 5.832,40.83 6.668,35.83 6.668,30.84 6.664,26.66 6.668,20.84 5.832,17.5 6.668,12.5 6.668,9.16 6.664,5 6.668,1.67 5.832,-0.83 6.668,-3.34 6.668,-6.66 6.664,-7.5 6.668,-10 6.668,-11.67 5.832,-13.33 6.668,-14.17 6.664,-14.17 6.668,-15.83 6.668,-15.83 5.832,-15.84 6.668,-15.83 6.664,-15.83 6.668,-15.84 6.668,-15 5.832,-15 6.668,-14.16 6.664,-13.34 6.668,-12.5 6.668,-12.5 5.832,-10.83 6.668,-10 6.664,-9.17 6.668,-9.16 6.668,-7.5 6.664,-6.67 5.836,-5.83 6.664,-5 6.668,-4.17 6.668,-4.17 6.664,-2.5 5.836,-2.5 6.662,-0.83 6.67,-1.67 h 13.33 l 5.84,0.84 6.66,0.83 6.67,0.83 6.67,1.67 6.66,1.67 5.84,2.5 6.66,2.5 6.67,1.66 6.67,2.5 6.66,2.5 6.67,2.5 5.83,3.34 6.67,2.5 6.67,2.5 6.66,2.5 6.67,1.66 5.83,2.5 6.67,2.5 6.67,1.67 6.66,2.5 6.67,1.67 5.83,1.66 6.67,1.67 6.67,0.83 6.66,1.67 6.67,0.83 6.67,0.84 5.83,0.83 6.67,0.83 6.66,0.84 h 6.67 l 6.67,0.83 h 12.5 l 6.66,0.83 h 6.67 l 6.67,-0.83 h 19.16 l 6.67,-0.83 h 12.5 l 6.67,-0.84 h 6.66 l 6.67,-0.83 h 6.67 l 6.66,-0.83 h 5.84 l 6.66,-0.84 h 6.67 l 6.67,-0.83 h 6.66 l 5.84,-0.83 h 13.33 l 6.67,-0.84 h 12.5 l 6.66,-0.83 h 20 l 5.84,-0.83 h 117.5 l 6.66,0.83 h 90.84 l 6.66,0.83 h 169.17 l 6.67,-0.83 h 19.16"
             style="fill:none;stroke:#0000ff;stroke-width:30;stroke-linecap:butt;stroke-linejoin:round;stroke-miterlimit:10;stroke-dasharray:none;stroke-opacity:1"
             id="path308"
             inkscape:connector-curvature="0" /></g></g></g></g></svg>