<?xml version="1.0" encoding="UTF-8" standalone="no"?>
<!-- Created with Inkscape (http://www.inkscape.org/) -->

<svg
   xmlns:dc="http://purl.org/dc/elements/1.1/"
   xmlns:cc="http://creativecommons.org/ns#"
   xmlns:rdf="http://www.w3.org/1999/02/22-rdf-syntax-ns#"
   xmlns:svg="http://www.w3.org/2000/svg"
   xmlns="http://www.w3.org/2000/svg"
   xmlns:sodipodi="http://sodipodi.sourceforge.net/DTD/sodipodi-0.dtd"
   xmlns:inkscape="http://www.inkscape.org/namespaces/inkscape"
   version="1.1"
   id="svg2"
   xml:space="preserve"
   width="424.39694"
   height="310.15405"
   viewBox="0 0 424.39694 310.15405"
   sodipodi:docname="amplitude.svg"
   inkscape:version="0.92.0 r15299"><metadata
     id="metadata8"><rdf:RDF><cc:Work
         rdf:about=""><dc:format>image/svg+xml</dc:format><dc:type
           rdf:resource="http://purl.org/dc/dcmitype/StillImage" /><dc:title></dc:title></cc:Work></rdf:RDF></metadata><defs
     id="defs6"><clipPath
       clipPathUnits="userSpaceOnUse"
       id="clipPath18"><path
         d="M 0,2508.41 V 0 h 3680.79 v 2508.41 z"
         id="path16"
         inkscape:connector-curvature="0" /></clipPath><clipPath
       clipPathUnits="userSpaceOnUse"
       id="clipPath68"><path
         d="M 0,2508.41 V 0 h 3680.79 v 2508.41 z"
         id="path66"
         inkscape:connector-curvature="0" /></clipPath></defs><sodipodi:namedview
     pagecolor="#ffffff"
     bordercolor="#666666"
     borderopacity="1"
     objecttolerance="10"
     gridtolerance="10"
     guidetolerance="10"
     inkscape:pageopacity="0"
     inkscape:pageshadow="2"
     inkscape:window-width="640"
     inkscape:window-height="480"
     id="namedview4"
     showgrid="false"
     fit-margin-top="0"
     fit-margin-left="0"
     fit-margin-right="0"
     fit-margin-bottom="0"
     inkscape:zoom="0.22348485"
     inkscape:cx="325.26521"
     inkscape:cy="505.55305"
     inkscape:window-x="0"
     inkscape:window-y="0"
     inkscape:window-maximized="0"
     inkscape:current-layer="g10" /><g
     id="g10"
     inkscape:groupmode="layer"
     inkscape:label="A9Re8j78a_1j3254z_68s"
     transform="matrix(1.3333333,0,0,-1.3333333,-4.4297046,332.60103)"><g
       id="g12"
       transform="scale(0.1)"><g
         id="g14"
         clip-path="url(#clipPath18)"><g
           id="g20"
           transform="translate(295.559,2388.8899)"><path
             d="M 0,0 V -2142.859"
             style="fill:none;stroke:#211c1d;stroke-width:10;stroke-linecap:butt;stroke-linejoin:miter;stroke-miterlimit:10;stroke-dasharray:none;stroke-opacity:1"
             id="path22"
             inkscape:connector-curvature="0" /></g><g
           id="g24"
           transform="translate(160.637,1182.54)"><path
             d="M 0,0 H 3055.563"
             style="fill:none;stroke:#211c1d;stroke-width:10;stroke-linecap:butt;stroke-linejoin:miter;stroke-miterlimit:10;stroke-dasharray:none;stroke-opacity:1"
             id="path26"
             inkscape:connector-curvature="0" /></g><g
           id="g28"
           transform="translate(160.637,2198.4099)"><path
             d="M 0,0 1968.253,-1817.461"
             style="fill:none;stroke:#211c1d;stroke-width:10;stroke-linecap:butt;stroke-linejoin:miter;stroke-miterlimit:10;stroke-dasharray:none;stroke-opacity:1"
             id="path30"
             inkscape:connector-curvature="0" /></g><g
           id="g32"
           transform="translate(912.078,1504.54)"><path
             d="M 0,0 1677.122,-623.591"
             style="fill:none;stroke:#211c1d;stroke-width:10;stroke-linecap:butt;stroke-linejoin:miter;stroke-miterlimit:10;stroke-dasharray:none;stroke-opacity:1"
             id="path34"
             inkscape:connector-curvature="0" /></g><g
           id="g36"
           transform="translate(979.543,1182.54)"><path
             d="m 0,0 c 0,-17.53 -14.211,-31.74 -31.738,-31.74 -17.539,0 -31.75,14.21 -31.75,31.74 0,17.54 14.211,31.75 31.75,31.75 C -14.211,31.75 0,17.54 0,0 Z"
             style="fill:none;stroke:#211c1d;stroke-width:10;stroke-linecap:butt;stroke-linejoin:miter;stroke-miterlimit:10;stroke-dasharray:none;stroke-opacity:1"
             id="path38"
             inkscape:connector-curvature="0" /></g><g
           id="g40"
           transform="translate(983.516,1476.76)"><path
             d="m 0,0 c 0,-15.34 -15.996,-27.77 -35.723,-27.77 -19.719,0 -35.715,12.43 -35.715,27.77 0,15.35 15.996,27.78 35.715,27.78 C -15.996,27.78 0,15.35 0,0"
             style="fill:#211c1d;fill-opacity:1;fill-rule:nonzero;stroke:none"
             id="path42"
             inkscape:connector-curvature="0" /></g><g
           id="g44"
           transform="translate(983.516,1476.76)"><path
             d="m 0,0 c 0,-15.34 -15.996,-27.77 -35.723,-27.77 -19.719,0 -35.715,12.43 -35.715,27.77 0,15.35 15.996,27.78 35.715,27.78 C -15.996,27.78 0,15.35 0,0 Z"
             style="fill:none;stroke:#211c1d;stroke-width:10;stroke-linecap:butt;stroke-linejoin:miter;stroke-miterlimit:10;stroke-dasharray:none;stroke-opacity:1"
             id="path46"
             inkscape:connector-curvature="0" /></g></g></g><text
       transform="matrix(1,0,0,-1,306.968,122.368)"
       style="font-variant:normal;font-weight:normal;font-size:18px;font-family:MyriadPro;-inkscape-font-specification:MyriadPro-Regular;writing-mode:lr-tb;fill:#100f0d;fill-opacity:1;fill-rule:nonzero;stroke:none"
       id="text60"><tspan
         x="0"
         y="0"
         id="tspan48">ω</tspan><tspan
         x="-306.96799 -302.66599 -298.85001 -293.77399 -289.95801"
         y="-113.407"
         sodipodi:role="line"
         id="tspan50">| • |</tspan><tspan
         x="-215.75999"
         y="23.809999"
         id="tspan52">a</tspan><tspan
         x="-268.285 -258.70901 -246.72099 -242.905 -235.3268 -226.30881 -220.6028"
         y="59.750999"
         sodipodi:role="line"
         id="tspan54">PD zero</tspan><tspan
         x="-192.49001 -182.608 -176.64999 -172.438 -162.48479 -158.2728 -148.28279 -139.6068 -135.3588 -131.54279 -119.91479 -114.8028 -107.67479"
         y="101.815"
         sodipodi:role="line"
         id="tspan56">original G(s)</tspan><tspan
         x="-305.586"
         y="3.402"
         id="tspan58">1</tspan></text>
<g
       id="g62"
       transform="scale(0.1)"><g
         id="g64"
         clip-path="url(#clipPath68)"><g
           id="g70"
           transform="translate(1747.9399,619.051)"><path
             d="M 0,0 C -62.17,-41.153 -93.94,-120.77 -134.92,-182.539"
             style="fill:none;stroke:#100f0d;stroke-width:10;stroke-linecap:butt;stroke-linejoin:miter;stroke-miterlimit:10;stroke-dasharray:none;stroke-opacity:1"
             id="path72"
             inkscape:connector-curvature="0" /></g><g
           id="g74"
           transform="translate(1668.5699,1500)"><path
             d="M 0,0 C 3.09,-64.94 -20.5,-143.67 -55.55,-198.41"
             style="fill:none;stroke:#100f0d;stroke-width:10;stroke-linecap:butt;stroke-linejoin:miter;stroke-miterlimit:10;stroke-dasharray:none;stroke-opacity:1"
             id="path76"
             inkscape:connector-curvature="0" /></g><g
           id="g78"
           transform="translate(668.574,841.27)"><path
             d="M 0,0 206.348,192.75"
             style="fill:none;stroke:#100f0d;stroke-width:10;stroke-linecap:butt;stroke-linejoin:miter;stroke-miterlimit:10;stroke-dasharray:none;stroke-opacity:1"
             id="path80"
             inkscape:connector-curvature="0" /></g></g></g><text
       transform="matrix(1,0,0,-1,147.81,176.903)"
       style="font-variant:normal;font-weight:normal;font-size:18px;font-family:MyriadPro;-inkscape-font-specification:MyriadPro-Regular;writing-mode:lr-tb;fill:#100f0d;fill-opacity:1;fill-rule:nonzero;stroke:none"
       id="text86"><tspan
         x="0 13.248 17.459999 23.417999 33.408001 37.223999 46.799999"
         y="0"
         sodipodi:role="line"
         id="tspan82">with PD</tspan><tspan
         x="0 5.112 14.346 18.162001 25.740108 34.758106 40.464214 50.292324 55.404324 59.220325 67.176323 77.058327 86.977333 92.935333 98.640434 108.52243 112.77043 117.01843 126.03643"
         y="21.6"
         sodipodi:role="line"
         id="tspan84">(1 zero) controller</tspan></text>
</g></svg>