<?xml version="1.0" encoding="UTF-8" standalone="no"?>
<!-- Created with Inkscape (http://www.inkscape.org/) -->

<svg
   xmlns:dc="http://purl.org/dc/elements/1.1/"
   xmlns:cc="http://creativecommons.org/ns#"
   xmlns:rdf="http://www.w3.org/1999/02/22-rdf-syntax-ns#"
   xmlns:svg="http://www.w3.org/2000/svg"
   xmlns="http://www.w3.org/2000/svg"
   xmlns:sodipodi="http://sodipodi.sourceforge.net/DTD/sodipodi-0.dtd"
   xmlns:inkscape="http://www.inkscape.org/namespaces/inkscape"
   version="1.1"
   id="svg2"
   xml:space="preserve"
   width="656.46631"
   height="212.03661"
   viewBox="0 0 656.46631 212.03661"
   sodipodi:docname="example-control-system.svg"
   inkscape:version="0.92.0 r15299"><metadata
     id="metadata8"><rdf:RDF><cc:Work
         rdf:about=""><dc:format>image/svg+xml</dc:format><dc:type
           rdf:resource="http://purl.org/dc/dcmitype/StillImage" /><dc:title></dc:title></cc:Work></rdf:RDF></metadata><defs
     id="defs6"><clipPath
       clipPathUnits="userSpaceOnUse"
       id="clipPath18"><path
         d="M 0,1853.09 V 0 h 5411.13 v 1853.09 z"
         id="path16"
         inkscape:connector-curvature="0" /></clipPath><clipPath
       clipPathUnits="userSpaceOnUse"
       id="clipPath66"><path
         d="M 0,1853.09 V 0 h 5411.13 v 1853.09 z"
         id="path64"
         inkscape:connector-curvature="0" /></clipPath><clipPath
       clipPathUnits="userSpaceOnUse"
       id="clipPath110"><path
         d="M 0,1853.09 V 0 h 5411.13 v 1853.09 z"
         id="path108"
         inkscape:connector-curvature="0" /></clipPath><clipPath
       clipPathUnits="userSpaceOnUse"
       id="clipPath130"><path
         d="M 0,1853.09 V 0 h 5411.13 v 1853.09 z"
         id="path128"
         inkscape:connector-curvature="0" /></clipPath><clipPath
       clipPathUnits="userSpaceOnUse"
       id="clipPath150"><path
         d="M 0,1853.09 V 0 h 5411.13 v 1853.09 z"
         id="path148"
         inkscape:connector-curvature="0" /></clipPath><clipPath
       clipPathUnits="userSpaceOnUse"
       id="clipPath170"><path
         d="M 0,1853.09 V 0 h 5411.13 v 1853.09 z"
         id="path168"
         inkscape:connector-curvature="0" /></clipPath><clipPath
       clipPathUnits="userSpaceOnUse"
       id="clipPath222"><path
         d="M 0,1853.09 V 0 h 5411.13 v 1853.09 z"
         id="path220"
         inkscape:connector-curvature="0" /></clipPath></defs><sodipodi:namedview
     pagecolor="#ffffff"
     bordercolor="#666666"
     borderopacity="1"
     objecttolerance="10"
     gridtolerance="10"
     guidetolerance="10"
     inkscape:pageopacity="0"
     inkscape:pageshadow="2"
     inkscape:window-width="1600"
     inkscape:window-height="847"
     id="namedview4"
     showgrid="false"
     fit-margin-top="0"
     fit-margin-left="0"
     fit-margin-right="0"
     fit-margin-bottom="0"
     inkscape:zoom="0.22348485"
     inkscape:cx="-149.08475"
     inkscape:cy="492.95795"
     inkscape:window-x="-8"
     inkscape:window-y="-8"
     inkscape:window-maximized="1"
     inkscape:current-layer="g10" /><g
     id="g10"
     inkscape:groupmode="layer"
     inkscape:label="A9Ri0r3ck_w548vr_bs"
     transform="matrix(1.3333333,0,0,-1.3333333,0,247.07866)"><g
       id="g12"
       transform="scale(0.1)"><g
         id="g14"
         clip-path="url(#clipPath18)"><g
           id="g20"
           transform="translate(660,1101.4301)"><path
             d="M 0,0 C 0,71.8 58.203,130 130,130 201.797,130 260,71.8 260,0 260,-71.8 201.797,-130 130,-130 58.203,-130 0,-71.8 0,0"
             style="fill:#ffffff;fill-opacity:1;fill-rule:nonzero;stroke:none"
             id="path22"
             inkscape:connector-curvature="0" /></g><g
           id="g24"
           transform="translate(660,1101.4301)"><path
             d="M 0,0 C 0,71.8 58.203,130 130,130 201.797,130 260,71.8 260,0 260,-71.8 201.797,-130 130,-130 58.203,-130 0,-71.8 0,0 Z"
             style="fill:none;stroke:#211c1d;stroke-width:20;stroke-linecap:butt;stroke-linejoin:miter;stroke-miterlimit:10;stroke-dasharray:none;stroke-opacity:1"
             id="path26"
             inkscape:connector-curvature="0" /></g><g
           id="g28"
           transform="translate(0,1101.4301)"><path
             d="M 0,0 H 589.395"
             style="fill:none;stroke:#211c1d;stroke-width:20;stroke-linecap:butt;stroke-linejoin:miter;stroke-miterlimit:10;stroke-dasharray:none;stroke-opacity:1"
             id="path30"
             inkscape:connector-curvature="0" /></g><g
           id="g32"
           transform="translate(660,1101.4301)"><path
             d="M 0,0 -99.492,-40.65 -75.879,0 -99.492,40.64 0,0"
             style="fill:#211c1d;fill-opacity:1;fill-rule:nonzero;stroke:none"
             id="path34"
             inkscape:connector-curvature="0" /></g><g
           id="g36"
           transform="translate(920,1101.4301)"><path
             d="M 0,0 H 398.76"
             style="fill:none;stroke:#211c1d;stroke-width:20;stroke-linecap:butt;stroke-linejoin:miter;stroke-miterlimit:10;stroke-dasharray:none;stroke-opacity:1"
             id="path38"
             inkscape:connector-curvature="0" /></g><g
           id="g40"
           transform="translate(1389.37,1101.4301)"><path
             d="M 0,0 -99.5,-40.65 -75.88,0 -99.5,40.64 0,0"
             style="fill:#211c1d;fill-opacity:1;fill-rule:nonzero;stroke:none"
             id="path42"
             inkscape:connector-curvature="0" /></g><g
           id="g44"
           transform="translate(3469.4399,453.379)"><path
             d="M 0,0 H -2679.44"
             style="fill:none;stroke:#211c1d;stroke-width:20;stroke-linecap:butt;stroke-linejoin:miter;stroke-miterlimit:10;stroke-dasharray:none;stroke-opacity:1"
             id="path46"
             inkscape:connector-curvature="0" /></g><g
           id="g48"
           transform="translate(790,451.43)"><path
             d="M 0,0 V 449.394"
             style="fill:none;stroke:#211c1d;stroke-width:20;stroke-linecap:butt;stroke-linejoin:miter;stroke-miterlimit:10;stroke-dasharray:none;stroke-opacity:1"
             id="path50"
             inkscape:connector-curvature="0" /></g><g
           id="g52"
           transform="translate(790,971.43)"><path
             d="M 0,0 40.652,-99.492 0,-75.879 -40.645,-99.492 0,0"
             style="fill:#211c1d;fill-opacity:1;fill-rule:nonzero;stroke:none"
             id="path54"
             inkscape:connector-curvature="0" /></g></g></g><text
       transform="matrix(1,0,0,-1,89.75,81.853)"
       style="font-variant:normal;font-weight:normal;font-size:24px;font-family:MyriadPro;-inkscape-font-specification:MyriadPro-Regular;writing-mode:lr-tb;fill:#100f0d;fill-opacity:1;fill-rule:nonzero;stroke:none"
       id="text58"><tspan
         x="0"
         y="0"
         id="tspan56">-</tspan></text>
<g
       id="g60"
       transform="scale(0.1)"><g
         id="g62"
         clip-path="url(#clipPath66)"><g
           id="g68"
           transform="translate(4134.48,1120.41)"><path
             d="M 0,0 H 539.29"
             style="fill:none;stroke:#211c1d;stroke-width:20;stroke-linecap:butt;stroke-linejoin:miter;stroke-miterlimit:10;stroke-dasharray:none;stroke-opacity:1"
             id="path70"
             inkscape:connector-curvature="0" /></g><g
           id="g72"
           transform="translate(4744.3799,1120.41)"><path
             d="M 0,0 -99.5,-40.65 -75.89,0 -99.5,40.65 0,0"
             style="fill:#211c1d;fill-opacity:1;fill-rule:nonzero;stroke:none"
             id="path74"
             inkscape:connector-curvature="0" /></g><path
           d="m 1389.37,912.68 h 452.77 v 388.891 h -452.77 z"
           style="fill:none;stroke:#211c1d;stroke-width:20;stroke-linecap:butt;stroke-linejoin:miter;stroke-miterlimit:10;stroke-dasharray:none;stroke-opacity:1"
           id="path76"
           inkscape:connector-curvature="0" /><g
           id="g78"
           transform="translate(1837.16,1101.4301)"><path
             d="M 0,0 H 400.18"
             style="fill:none;stroke:#211c1d;stroke-width:20;stroke-linecap:butt;stroke-linejoin:miter;stroke-miterlimit:10;stroke-dasharray:none;stroke-opacity:1"
             id="path80"
             inkscape:connector-curvature="0" /></g><g
           id="g82"
           transform="translate(2307.9399,1101.4301)"><path
             d="M 0,0 -99.49,-40.65 -75.87,0 -99.49,40.64 0,0"
             style="fill:#211c1d;fill-opacity:1;fill-rule:nonzero;stroke:none"
             id="path84"
             inkscape:connector-curvature="0" /></g><path
           d="m 2307.94,912.68 h 482.059 v 388.891 H 2307.94 Z"
           style="fill:none;stroke:#211c1d;stroke-width:20;stroke-linecap:butt;stroke-linejoin:miter;stroke-miterlimit:10;stroke-dasharray:none;stroke-opacity:1"
           id="path86"
           inkscape:connector-curvature="0" /></g></g><text
       transform="matrix(1,0,0,-1,238.152,105.723)"
       style="font-variant:normal;font-weight:normal;font-size:21px;font-family:MyriadPro;-inkscape-font-specification:MyriadPro-Regular;writing-mode:lr-tb;fill:#100f0d;fill-opacity:1;fill-rule:nonzero;stroke:none"
       id="text90"><tspan
         x="0 13.566 19.530001 27.846001"
         y="0"
         sodipodi:role="line"
         id="tspan88">G(s)</tspan></text>
<text
       transform="matrix(1,0,0,-1,71.75,103.73)"
       style="font-variant:normal;font-weight:normal;font-size:24px;font-family:MyriadPro;-inkscape-font-specification:MyriadPro-Regular;writing-mode:lr-tb;fill:#100f0d;fill-opacity:1;fill-rule:nonzero;stroke:none"
       id="text94"><tspan
         x="0"
         y="0"
         id="tspan92">+</tspan></text>
<text
       transform="matrix(1,0,0,-1,145.788,105.23)"
       style="font-variant:normal;font-weight:normal;font-size:21px;font-family:MyriadPro;-inkscape-font-specification:MyriadPro-Regular;writing-mode:lr-tb;fill:#100f0d;fill-opacity:1;fill-rule:nonzero;stroke:none"
       id="text102"><tspan
         x="0 11.382 17.346001 25.662001"
         y="0"
         sodipodi:role="line"
         id="tspan96">K(s)</tspan><tspan
         x="222.912"
         y="-13.186"
         id="tspan98">y</tspan><tspan
         x="-145.78799"
         y="-14.376"
         id="tspan100">r</tspan></text>
<g
       id="g104"
       transform="scale(0.1)"><g
         id="g106"
         clip-path="url(#clipPath110)"><g
           id="g112"
           transform="translate(3927.48,1120.41)"><path
             d="M 0,0 C 0,71.8 58.2,130 130,130 201.8,130 260,71.8 260,0 260,-71.8 201.8,-130 130,-130 58.2,-130 0,-71.8 0,0"
             style="fill:#ffffff;fill-opacity:1;fill-rule:nonzero;stroke:none"
             id="path114"
             inkscape:connector-curvature="0" /></g><g
           id="g116"
           transform="translate(3927.48,1120.41)"><path
             d="M 0,0 C 0,71.8 58.2,130 130,130 201.8,130 260,71.8 260,0 260,-71.8 201.8,-130 130,-130 58.2,-130 0,-71.8 0,0 Z"
             style="fill:none;stroke:#211c1d;stroke-width:20;stroke-linecap:butt;stroke-linejoin:miter;stroke-miterlimit:10;stroke-dasharray:none;stroke-opacity:1"
             id="path118"
             inkscape:connector-curvature="0" /></g></g></g><text
       transform="matrix(1,0,0,-1,398.448,106.422)"
       style="font-variant:normal;font-weight:normal;font-size:24px;font-family:MyriadPro;-inkscape-font-specification:MyriadPro-Regular;writing-mode:lr-tb;fill:#100f0d;fill-opacity:1;fill-rule:nonzero;stroke:none"
       id="text122"><tspan
         x="0"
         y="0"
         id="tspan120">+</tspan></text>
<g
       id="g124"
       transform="scale(0.1)"><g
         id="g126"
         clip-path="url(#clipPath130)"><g
           id="g132"
           transform="translate(3055.1001,1104.63)"><path
             d="M 0,0 C 0,71.8 58.2,130 130,130 201.79,130 260,71.8 260,0 260,-71.8 201.79,-130.001 130,-130.001 58.2,-130.001 0,-71.8 0,0"
             style="fill:#ffffff;fill-opacity:1;fill-rule:nonzero;stroke:none"
             id="path134"
             inkscape:connector-curvature="0" /></g><g
           id="g136"
           transform="translate(3055.1001,1104.63)"><path
             d="M 0,0 C 0,71.8 58.2,130 130,130 201.79,130 260,71.8 260,0 260,-71.8 201.79,-130.001 130,-130.001 58.2,-130.001 0,-71.8 0,0 Z"
             style="fill:none;stroke:#211c1d;stroke-width:20;stroke-linecap:butt;stroke-linejoin:miter;stroke-miterlimit:10;stroke-dasharray:none;stroke-opacity:1"
             id="path138"
             inkscape:connector-curvature="0" /></g></g></g><text
       transform="matrix(1,0,0,-1,311.21,104.844)"
       style="font-variant:normal;font-weight:normal;font-size:24px;font-family:MyriadPro;-inkscape-font-specification:MyriadPro-Regular;writing-mode:lr-tb;fill:#100f0d;fill-opacity:1;fill-rule:nonzero;stroke:none"
       id="text142"><tspan
         x="0"
         y="0"
         id="tspan140">+</tspan></text>
<g
       id="g144"
       transform="scale(0.1)"><g
         id="g146"
         clip-path="url(#clipPath150)"><g
           id="g152"
           transform="translate(3469.4399,442.461)"><path
             d="M 0,0 C 0,71.801 58.21,130 130,130 201.8,130 260,71.801 260,0 260,-71.801 201.8,-130 130,-130 58.21,-130 0,-71.801 0,0"
             style="fill:#ffffff;fill-opacity:1;fill-rule:nonzero;stroke:none"
             id="path154"
             inkscape:connector-curvature="0" /></g><g
           id="g156"
           transform="translate(3469.4399,442.461)"><path
             d="M 0,0 C 0,71.801 58.21,130 130,130 201.8,130 260,71.801 260,0 260,-71.801 201.8,-130 130,-130 58.21,-130 0,-71.801 0,0 Z"
             style="fill:none;stroke:#211c1d;stroke-width:20;stroke-linecap:butt;stroke-linejoin:miter;stroke-miterlimit:10;stroke-dasharray:none;stroke-opacity:1"
             id="path158"
             inkscape:connector-curvature="0" /></g></g></g><text
       transform="matrix(1,0,0,-1,352.645,38.627)"
       style="font-variant:normal;font-weight:normal;font-size:24px;font-family:MyriadPro;-inkscape-font-specification:MyriadPro-Regular;writing-mode:lr-tb;fill:#100f0d;fill-opacity:1;fill-rule:nonzero;stroke:none"
       id="text162"><tspan
         x="0"
         y="0"
         id="tspan160">+</tspan></text>
<g
       id="g164"
       transform="scale(0.1)"><g
         id="g166"
         clip-path="url(#clipPath170)"><g
           id="g172"
           transform="translate(2790,1101.4301)"><path
             d="M 0,0 H 195.76"
             style="fill:none;stroke:#211c1d;stroke-width:20;stroke-linecap:butt;stroke-linejoin:miter;stroke-miterlimit:10;stroke-dasharray:none;stroke-opacity:1"
             id="path174"
             inkscape:connector-curvature="0" /></g><g
           id="g176"
           transform="translate(3056.3701,1101.4301)"><path
             d="M 0,0 -99.49,-40.65 -75.88,0 -99.49,40.64 0,0"
             style="fill:#211c1d;fill-opacity:1;fill-rule:nonzero;stroke:none"
             id="path178"
             inkscape:connector-curvature="0" /></g><g
           id="g180"
           transform="translate(3315.1001,1101.4301)"><path
             d="M 0,0 H 541.78"
             style="fill:none;stroke:#211c1d;stroke-width:20;stroke-linecap:butt;stroke-linejoin:miter;stroke-miterlimit:10;stroke-dasharray:none;stroke-opacity:1"
             id="path182"
             inkscape:connector-curvature="0" /></g><g
           id="g184"
           transform="translate(3927.48,1101.4301)"><path
             d="M 0,0 -99.49,-40.65 -75.88,0 -99.49,40.64 0,0"
             style="fill:#211c1d;fill-opacity:1;fill-rule:nonzero;stroke:none"
             id="path186"
             inkscape:connector-curvature="0" /></g><g
           id="g188"
           transform="translate(3599.4399,1107.13)"><path
             d="M 0,0 V -462.989"
             style="fill:none;stroke:#211c1d;stroke-width:20;stroke-linecap:butt;stroke-linejoin:miter;stroke-miterlimit:10;stroke-dasharray:none;stroke-opacity:1"
             id="path190"
             inkscape:connector-curvature="0" /></g><g
           id="g192"
           transform="translate(3599.4399,573.531)"><path
             d="M 0,0 -40.65,99.5 0,75.891 40.65,99.5 0,0"
             style="fill:#211c1d;fill-opacity:1;fill-rule:nonzero;stroke:none"
             id="path194"
             inkscape:connector-curvature="0" /></g><g
           id="g196"
           transform="translate(3185.1001,1474.76)"><path
             d="M 0,0 V -153.74"
             style="fill:none;stroke:#211c1d;stroke-width:20;stroke-linecap:butt;stroke-linejoin:miter;stroke-miterlimit:10;stroke-dasharray:none;stroke-opacity:1"
             id="path198"
             inkscape:connector-curvature="0" /></g><g
           id="g200"
           transform="translate(3185.1001,1250.41)"><path
             d="M 0,0 -40.66,99.5 0,75.89 40.64,99.5 0,0"
             style="fill:#211c1d;fill-opacity:1;fill-rule:nonzero;stroke:none"
             id="path202"
             inkscape:connector-curvature="0" /></g><g
           id="g204"
           transform="translate(4339.3398,442.461)"><path
             d="M 0,0 H -539.29"
             style="fill:none;stroke:#211c1d;stroke-width:20;stroke-linecap:butt;stroke-linejoin:miter;stroke-miterlimit:10;stroke-dasharray:none;stroke-opacity:1"
             id="path206"
             inkscape:connector-curvature="0" /></g><g
           id="g208"
           transform="translate(3729.4399,442.461)"><path
             d="M 0,0 99.5,40.648 75.88,0 99.5,-40.641 0,0"
             style="fill:#211c1d;fill-opacity:1;fill-rule:nonzero;stroke:none"
             id="path210"
             inkscape:connector-curvature="0" /></g></g></g><text
       transform="matrix(1,0,0,-1,103.167,119.606)"
       style="font-variant:normal;font-weight:normal;font-size:21px;font-family:MyriadPro;-inkscape-font-specification:MyriadPro-Regular;writing-mode:lr-tb;fill:#100f0d;fill-opacity:1;fill-rule:nonzero;stroke:none"
       id="text214"><tspan
         x="0 9.9961052 366.612"
         y="0"
         sodipodi:role="line"
         id="tspan212">e’e</tspan></text>
<g
       id="g216"
       transform="scale(0.1)"><g
         id="g218"
         clip-path="url(#clipPath222)"><g
           id="g224"
           transform="translate(367.477,1101.4301)"><path
             d="M 0,0 V 746.66"
             style="fill:none;stroke:#100f0d;stroke-width:10;stroke-linecap:butt;stroke-linejoin:miter;stroke-miterlimit:10;stroke-dasharray:80, 80;stroke-dashoffset:0;stroke-opacity:1"
             id="path226"
             inkscape:connector-curvature="0" /></g><g
           id="g228"
           transform="translate(367.477,1848.09)"><path
             d="M 0,0 H 3690.003"
             style="fill:none;stroke:#100f0d;stroke-width:10;stroke-linecap:butt;stroke-linejoin:miter;stroke-miterlimit:10;stroke-dasharray:80, 80;stroke-dashoffset:0;stroke-opacity:1"
             id="path230"
             inkscape:connector-curvature="0" /></g><g
           id="g232"
           transform="translate(4057.48,1848.09)"><path
             d="M 0,0 V -553.77"
             style="fill:none;stroke:#100f0d;stroke-width:10;stroke-linecap:butt;stroke-linejoin:miter;stroke-miterlimit:10;stroke-dasharray:80, 80;stroke-dashoffset:0;stroke-opacity:1"
             id="path234"
             inkscape:connector-curvature="0" /></g><g
           id="g236"
           transform="translate(4020.45,1322.41)"><path
             d="M 0,0 37.03,-15.73 74.06,0 37.03,-87.78 0,0"
             style="fill:#100f0d;fill-opacity:1;fill-rule:nonzero;stroke:none"
             id="path238"
             inkscape:connector-curvature="0" /></g></g></g><text
       transform="matrix(1,0,0,-1,409.331,51.106)"
       style="font-variant:normal;font-weight:normal;font-size:21px;font-family:MyriadPro;-inkscape-font-specification:MyriadPro-Regular;writing-mode:lr-tb;fill:#100f0d;fill-opacity:1;fill-rule:nonzero;stroke:none"
       id="text242"><tspan
         x="0"
         y="0"
         id="tspan240">v</tspan></text>
<text
       transform="matrix(1,0,0,-1,235.231,137.044)"
       style="font-variant:normal;font-weight:normal;font-size:18px;font-family:MyriadPro;-inkscape-font-specification:MyriadPro-Regular;writing-mode:lr-tb;fill:#100f0d;fill-opacity:1;fill-rule:nonzero;stroke:none"
       id="text252"><tspan
         x="0 10.242 14.49 23.166 33.084"
         y="0"
         sodipodi:role="line"
         id="tspan244">plant</tspan><tspan
         x="-107.461 -99.50489 -89.622894 -79.705002 -73.747002 -68.041397 -58.159397 -53.911396 -49.663395 -40.645397"
         y="-0.169"
         sodipodi:role="line"
         id="tspan246">controller</tspan><tspan
         x="163.215 170.343 179.36099 189.351 196.479 206.36099 212.24699 216.063 226.05299 235.935 240.147 247.27499"
         y="110.49"
         sodipodi:role="line"
         id="tspan248">sensor noise</tspan><tspan
         x="76.414001 86.566002 90.778 97.905998 103.864 113.782 119.74 129.98199 138.658 148.64799 156.604"
         y="-18.986"
         sodipodi:role="line"
         id="tspan250">disturbance</tspan></text>
<text
       transform="matrix(1,0,0,-1,290.446,156.106)"
       style="font-variant:normal;font-weight:normal;font-size:21px;font-family:MyriadPro;-inkscape-font-specification:MyriadPro-Regular;writing-mode:lr-tb;fill:#100f0d;fill-opacity:1;fill-rule:nonzero;stroke:none"
       id="text256"><tspan
         x="0 11.63379"
         y="0"
         sodipodi:role="line"
         id="tspan254">d,</tspan></text>
<text
       transform="matrix(1,0,0,-1,388.439,86.843)"
       style="font-variant:normal;font-weight:normal;font-size:24px;font-family:MyriadPro;-inkscape-font-specification:MyriadPro-Regular;writing-mode:lr-tb;fill:#100f0d;fill-opacity:1;fill-rule:nonzero;stroke:none"
       id="text260"><tspan
         x="0"
         y="0"
         id="tspan258">-</tspan></text>
</g></svg>