<?xml version="1.0" encoding="UTF-8" standalone="no"?>
<!-- Created with Inkscape (http://www.inkscape.org/) -->

<svg
   xmlns:dc="http://purl.org/dc/elements/1.1/"
   xmlns:cc="http://creativecommons.org/ns#"
   xmlns:rdf="http://www.w3.org/1999/02/22-rdf-syntax-ns#"
   xmlns:svg="http://www.w3.org/2000/svg"
   xmlns="http://www.w3.org/2000/svg"
   xmlns:sodipodi="http://sodipodi.sourceforge.net/DTD/sodipodi-0.dtd"
   xmlns:inkscape="http://www.inkscape.org/namespaces/inkscape"
   version="1.1"
   id="svg2"
   xml:space="preserve"
   width="489.44"
   height="408.68933"
   viewBox="0 0 489.44 408.68933"
   sodipodi:docname="7.svg"
   inkscape:version="0.92.1 r15371"><metadata
     id="metadata8"><rdf:RDF><cc:Work
         rdf:about=""><dc:format>image/svg+xml</dc:format><dc:type
           rdf:resource="http://purl.org/dc/dcmitype/StillImage" /><dc:title></dc:title></cc:Work></rdf:RDF></metadata><defs
     id="defs6"><clipPath
       clipPathUnits="userSpaceOnUse"
       id="clipPath320"><path
         d="M 545.832,2914.17 H 3800.83 V 345.832 H 545.832 Z"
         id="path318"
         inkscape:connector-curvature="0" /></clipPath><clipPath
       clipPathUnits="userSpaceOnUse"
       id="clipPath3244"><path
         d="m 2950.83,2864.17 h 800.84 v -430.84 h -800.84 z"
         id="path3242"
         inkscape:connector-curvature="0" /></clipPath><clipPath
       clipPathUnits="userSpaceOnUse"
       id="clipPath3256"><path
         d="m 2950.83,2864.17 h 800.84 v -430.84 h -800.84 z"
         id="path3254"
         inkscape:connector-curvature="0" /></clipPath><clipPath
       clipPathUnits="userSpaceOnUse"
       id="clipPath3280"><path
         d="m 2950.83,2864.17 h 800.84 v -430.84 h -800.84 z"
         id="path3278"
         inkscape:connector-curvature="0" /></clipPath></defs><sodipodi:namedview
     pagecolor="#ffffff"
     bordercolor="#666666"
     borderopacity="1"
     objecttolerance="10"
     gridtolerance="10"
     guidetolerance="10"
     inkscape:pageopacity="0"
     inkscape:pageshadow="2"
     inkscape:window-width="845"
     inkscape:window-height="498"
     id="namedview4"
     showgrid="false"
     inkscape:zoom="0.82575012"
     inkscape:cx="246.25913"
     inkscape:cy="196.54797"
     inkscape:window-x="36"
     inkscape:window-y="92"
     inkscape:window-maximized="0"
     inkscape:current-layer="g10"
     fit-margin-top="15"
     fit-margin-left="10"
     fit-margin-right="10"
     fit-margin-bottom="15" /><g
     id="g10"
     inkscape:groupmode="layer"
     inkscape:label="A9R1jh337x_1k63nj2_6cc"
     transform="matrix(1.3333333,0,0,-1.3333333,-33.413332,407.70666)"><rect
       style="opacity:1;fill:#ffffff;fill-opacity:1;stroke:none;stroke-width:0.75;stroke-linecap:round;stroke-linejoin:miter;stroke-miterlimit:4;stroke-dasharray:none;stroke-dashoffset:0;stroke-opacity:1;paint-order:stroke markers fill"
       id="rect10633"
       width="325.41681"
       height="256.75018"
       x="54.583199"
       y="-291.41699"
       transform="scale(1,-1)" /><path
       style="fill:none;stroke:#b3b3b3;stroke-width:0.52500004;stroke-linecap:butt;stroke-linejoin:miter;stroke-miterlimit:4;stroke-dasharray:none;stroke-opacity:1"
       d="M 57.8332,227.25 H 376.667"
       id="path10631"
       inkscape:connector-curvature="0" /><g
       id="g16"
       transform="scale(0.1)"><g
         id="g18"
         transform="translate(545.832,346.668)"><path
           d="M 0,0 V 2567.502 H 3254.168 V 0 H 0"
           style="fill:none;stroke:#ffffff;stroke-width:5;stroke-linecap:butt;stroke-linejoin:round;stroke-miterlimit:10;stroke-dasharray:none;stroke-opacity:1"
           id="path20"
           inkscape:connector-curvature="0" /></g></g><g
       id="g22"
       transform="scale(0.1)"><g
         id="g24"
         transform="translate(545.832,2914.1699)"><path
           d="M 0,0 H 3254.168"
           style="fill:none;stroke:#000000;stroke-width:5;stroke-linecap:butt;stroke-linejoin:round;stroke-miterlimit:10;stroke-dasharray:none;stroke-opacity:1"
           id="path26"
           inkscape:connector-curvature="0" /></g></g><g
       id="g28"
       transform="scale(0.1)"><g
         id="g30"
         transform="translate(545.832,346.668)"><path
           d="M 0,0 H 3254.168 V 2567.502"
           style="fill:none;stroke:#000000;stroke-width:5;stroke-linecap:butt;stroke-linejoin:round;stroke-miterlimit:10;stroke-dasharray:none;stroke-opacity:1"
           id="path32"
           inkscape:connector-curvature="0" /></g></g><g
       id="g34"
       transform="scale(0.1)"><g
         id="g36"
         transform="translate(545.832,346.668)"><path
           d="M 0,0 V 2567.502"
           style="fill:none;stroke:#000000;stroke-width:5;stroke-linecap:butt;stroke-linejoin:round;stroke-miterlimit:10;stroke-dasharray:none;stroke-opacity:1"
           id="path38"
           inkscape:connector-curvature="0" /></g></g><g
       id="g40"
       transform="scale(0.1)"><g
         id="g42"
         transform="translate(545.832,346.668)"><path
           d="M 0,0 H 3254.168"
           style="fill:none;stroke:#000000;stroke-width:5;stroke-linecap:butt;stroke-linejoin:round;stroke-miterlimit:10;stroke-dasharray:none;stroke-opacity:1"
           id="path44"
           inkscape:connector-curvature="0" /></g></g><g
       id="g46"
       transform="scale(0.1)"><g
         id="g48"
         transform="translate(545.832,346.668)"><path
           d="M 0,0 V 2567.502"
           style="fill:none;stroke:#000000;stroke-width:5;stroke-linecap:butt;stroke-linejoin:round;stroke-miterlimit:10;stroke-dasharray:none;stroke-opacity:1"
           id="path50"
           inkscape:connector-curvature="0" /></g></g><g
       id="g52"
       transform="scale(0.1)"><g
         id="g54"
         transform="translate(545.832,346.668)"><path
           d="M 0,0 V 33.332"
           style="fill:none;stroke:#000000;stroke-width:5;stroke-linecap:butt;stroke-linejoin:round;stroke-miterlimit:10;stroke-dasharray:none;stroke-opacity:1"
           id="path56"
           inkscape:connector-curvature="0" /></g></g><g
       id="g58"
       transform="scale(0.1)"><g
         id="g60"
         transform="translate(545.832,2914.1699)"><path
           d="M 0,0 V -32.5"
           style="fill:none;stroke:#000000;stroke-width:5;stroke-linecap:butt;stroke-linejoin:round;stroke-miterlimit:10;stroke-dasharray:none;stroke-opacity:1"
           id="path62"
           inkscape:connector-curvature="0" /></g></g><text
       transform="matrix(1,0,0,-1,51.833,22.583)"
       style="font-style:normal;font-variant:normal;font-weight:normal;font-stretch:normal;font-size:10px;font-family:'CMU Sans Serif';-inkscape-font-specification:'CMU Sans Serif';writing-mode:lr-tb;fill:#000000;fill-opacity:1;fill-rule:nonzero;stroke:none"
       id="text66"><tspan
         x="0"
         y="0"
         id="tspan64"
         style="font-style:normal;font-variant:normal;font-weight:normal;font-stretch:normal;font-family:'CMU Sans Serif';-inkscape-font-specification:'CMU Sans Serif'">0</tspan></text>
<g
       id="g68"
       transform="scale(0.1)"><g
         id="g70"
         transform="translate(1196.67,346.668)"><path
           d="M 0,0 V 33.332"
           style="fill:none;stroke:#000000;stroke-width:5;stroke-linecap:butt;stroke-linejoin:round;stroke-miterlimit:10;stroke-dasharray:none;stroke-opacity:1"
           id="path72"
           inkscape:connector-curvature="0" /></g></g><g
       id="g74"
       transform="scale(0.1)"><g
         id="g76"
         transform="translate(1196.67,2914.1699)"><path
           d="M 0,0 V -32.5"
           style="fill:none;stroke:#000000;stroke-width:5;stroke-linecap:butt;stroke-linejoin:round;stroke-miterlimit:10;stroke-dasharray:none;stroke-opacity:1"
           id="path78"
           inkscape:connector-curvature="0" /></g></g><text
       transform="matrix(1,0,0,-1,116.917,22.583)"
       style="font-style:normal;font-variant:normal;font-weight:normal;font-stretch:normal;font-size:10px;font-family:'CMU Sans Serif';-inkscape-font-specification:'CMU Sans Serif';writing-mode:lr-tb;fill:#000000;fill-opacity:1;fill-rule:nonzero;stroke:none"
       id="text82"><tspan
         x="0"
         y="0"
         id="tspan80"
         style="font-style:normal;font-variant:normal;font-weight:normal;font-stretch:normal;font-family:'CMU Sans Serif';-inkscape-font-specification:'CMU Sans Serif'">2</tspan></text>
<g
       id="g84"
       transform="scale(0.1)"><g
         id="g86"
         transform="translate(1847.5,346.668)"><path
           d="M 0,0 V 33.332"
           style="fill:none;stroke:#000000;stroke-width:5;stroke-linecap:butt;stroke-linejoin:round;stroke-miterlimit:10;stroke-dasharray:none;stroke-opacity:1"
           id="path88"
           inkscape:connector-curvature="0" /></g></g><g
       id="g90"
       transform="scale(0.1)"><g
         id="g92"
         transform="translate(1847.5,2914.1699)"><path
           d="M 0,0 V -32.5"
           style="fill:none;stroke:#000000;stroke-width:5;stroke-linecap:butt;stroke-linejoin:round;stroke-miterlimit:10;stroke-dasharray:none;stroke-opacity:1"
           id="path94"
           inkscape:connector-curvature="0" /></g></g><text
       transform="matrix(1,0,0,-1,182,22.583)"
       style="font-style:normal;font-variant:normal;font-weight:normal;font-stretch:normal;font-size:10px;font-family:'CMU Sans Serif';-inkscape-font-specification:'CMU Sans Serif';writing-mode:lr-tb;fill:#000000;fill-opacity:1;fill-rule:nonzero;stroke:none"
       id="text98"><tspan
         x="0"
         y="0"
         id="tspan96"
         style="font-style:normal;font-variant:normal;font-weight:normal;font-stretch:normal;font-family:'CMU Sans Serif';-inkscape-font-specification:'CMU Sans Serif'">4</tspan></text>
<g
       id="g100"
       transform="scale(0.1)"><g
         id="g102"
         transform="translate(2498.3301,346.668)"><path
           d="M 0,0 V 33.332"
           style="fill:none;stroke:#000000;stroke-width:5;stroke-linecap:butt;stroke-linejoin:round;stroke-miterlimit:10;stroke-dasharray:none;stroke-opacity:1"
           id="path104"
           inkscape:connector-curvature="0" /></g></g><g
       id="g106"
       transform="scale(0.1)"><g
         id="g108"
         transform="translate(2498.3301,2914.1699)"><path
           d="M 0,0 V -32.5"
           style="fill:none;stroke:#000000;stroke-width:5;stroke-linecap:butt;stroke-linejoin:round;stroke-miterlimit:10;stroke-dasharray:none;stroke-opacity:1"
           id="path110"
           inkscape:connector-curvature="0" /></g></g><text
       transform="matrix(1,0,0,-1,247.083,22.583)"
       style="font-style:normal;font-variant:normal;font-weight:normal;font-stretch:normal;font-size:10px;font-family:'CMU Sans Serif';-inkscape-font-specification:'CMU Sans Serif';writing-mode:lr-tb;fill:#000000;fill-opacity:1;fill-rule:nonzero;stroke:none"
       id="text114"><tspan
         x="0"
         y="0"
         id="tspan112"
         style="font-style:normal;font-variant:normal;font-weight:normal;font-stretch:normal;font-family:'CMU Sans Serif';-inkscape-font-specification:'CMU Sans Serif'">6</tspan></text>
<g
       id="g116"
       transform="scale(0.1)"><g
         id="g118"
         transform="translate(3149.1699,346.668)"><path
           d="M 0,0 V 33.332"
           style="fill:none;stroke:#000000;stroke-width:5;stroke-linecap:butt;stroke-linejoin:round;stroke-miterlimit:10;stroke-dasharray:none;stroke-opacity:1"
           id="path120"
           inkscape:connector-curvature="0" /></g></g><g
       id="g122"
       transform="scale(0.1)"><g
         id="g124"
         transform="translate(3149.1699,2914.1699)"><path
           d="M 0,0 V -32.5"
           style="fill:none;stroke:#000000;stroke-width:5;stroke-linecap:butt;stroke-linejoin:round;stroke-miterlimit:10;stroke-dasharray:none;stroke-opacity:1"
           id="path126"
           inkscape:connector-curvature="0" /></g></g><text
       transform="matrix(1,0,0,-1,312.167,22.583)"
       style="font-style:normal;font-variant:normal;font-weight:normal;font-stretch:normal;font-size:10px;font-family:'CMU Sans Serif';-inkscape-font-specification:'CMU Sans Serif';writing-mode:lr-tb;fill:#000000;fill-opacity:1;fill-rule:nonzero;stroke:none"
       id="text130"><tspan
         x="0"
         y="0"
         id="tspan128"
         style="font-style:normal;font-variant:normal;font-weight:normal;font-stretch:normal;font-family:'CMU Sans Serif';-inkscape-font-specification:'CMU Sans Serif'">8</tspan></text>
<g
       id="g132"
       transform="scale(0.1)"><g
         id="g134"
         transform="translate(3800,346.668)"><path
           d="M 0,0 V 33.332"
           style="fill:none;stroke:#000000;stroke-width:5;stroke-linecap:butt;stroke-linejoin:round;stroke-miterlimit:10;stroke-dasharray:none;stroke-opacity:1"
           id="path136"
           inkscape:connector-curvature="0" /></g></g><g
       id="g138"
       transform="scale(0.1)"><g
         id="g140"
         transform="translate(3800,2914.1699)"><path
           d="M 0,0 V -32.5"
           style="fill:none;stroke:#000000;stroke-width:5;stroke-linecap:butt;stroke-linejoin:round;stroke-miterlimit:10;stroke-dasharray:none;stroke-opacity:1"
           id="path142"
           inkscape:connector-curvature="0" /></g></g><text
       transform="matrix(1,0,0,-1,374.5,22.583)"
       style="font-style:normal;font-variant:normal;font-weight:normal;font-stretch:normal;font-size:10px;font-family:'CMU Sans Serif';-inkscape-font-specification:'CMU Sans Serif';writing-mode:lr-tb;fill:#000000;fill-opacity:1;fill-rule:nonzero;stroke:none"
       id="text146"><tspan
         x="0 5.5599999"
         y="0"
         sodipodi:role="line"
         id="tspan144">10</tspan></text>
<g
       id="g148"
       transform="scale(0.1)"><g
         id="g150"
         transform="translate(545.832,346.668)"><path
           d="M 0,0 H 32.5"
           style="fill:none;stroke:#000000;stroke-width:5;stroke-linecap:butt;stroke-linejoin:round;stroke-miterlimit:10;stroke-dasharray:none;stroke-opacity:1"
           id="path152"
           inkscape:connector-curvature="0" /></g></g><g
       id="g154"
       transform="scale(0.1)"><g
         id="g156"
         transform="translate(3800,346.668)"><path
           d="M 0,0 H -33.33"
           style="fill:none;stroke:#000000;stroke-width:5;stroke-linecap:butt;stroke-linejoin:round;stroke-miterlimit:10;stroke-dasharray:none;stroke-opacity:1"
           id="path158"
           inkscape:connector-curvature="0" /></g></g><text
       transform="matrix(1,0,0,-1,32,31)"
       style="font-style:normal;font-variant:normal;font-weight:normal;font-stretch:normal;font-size:10px;font-family:'CMU Sans Serif';-inkscape-font-specification:'CMU Sans Serif';writing-mode:lr-tb;fill:#000000;fill-opacity:1;fill-rule:nonzero;stroke:none"
       id="text162"><tspan
         x="0"
         y="0"
         id="tspan160"
         style="font-style:normal;font-variant:normal;font-weight:normal;font-stretch:normal;font-family:'CMU Sans Serif';-inkscape-font-specification:'CMU Sans Serif'">−</tspan></text>
<text
       transform="matrix(1,0,0,-1,37.84,31)"
       style="font-style:normal;font-variant:normal;font-weight:normal;font-stretch:normal;font-size:10px;font-family:'CMU Sans Serif';-inkscape-font-specification:'CMU Sans Serif';writing-mode:lr-tb;fill:#000000;fill-opacity:1;fill-rule:nonzero;stroke:none"
       id="text166"><tspan
         x="0 5.5599999 8.3400002"
         y="0"
         sodipodi:role="line"
         id="tspan164">0.2</tspan></text>
<g
       id="g168"
       transform="scale(0.1)"><g
         id="g170"
         transform="translate(545.832,668.332)"><path
           d="M 0,0 H 32.5"
           style="fill:none;stroke:#000000;stroke-width:5;stroke-linecap:butt;stroke-linejoin:round;stroke-miterlimit:10;stroke-dasharray:none;stroke-opacity:1"
           id="path172"
           inkscape:connector-curvature="0" /></g></g><g
       id="g174"
       transform="scale(0.1)"><g
         id="g176"
         transform="translate(3800,668.332)"><path
           d="M 0,0 H -33.33"
           style="fill:none;stroke:#000000;stroke-width:5;stroke-linecap:butt;stroke-linejoin:round;stroke-miterlimit:10;stroke-dasharray:none;stroke-opacity:1"
           id="path178"
           inkscape:connector-curvature="0" /></g></g><text
       transform="matrix(1,0,0,-1,46.167,63.167)"
       style="font-style:normal;font-variant:normal;font-weight:normal;font-stretch:normal;font-size:10px;font-family:'CMU Sans Serif';-inkscape-font-specification:'CMU Sans Serif';writing-mode:lr-tb;fill:#000000;fill-opacity:1;fill-rule:nonzero;stroke:none"
       id="text182"><tspan
         x="0"
         y="0"
         id="tspan180"
         style="font-style:normal;font-variant:normal;font-weight:normal;font-stretch:normal;font-family:'CMU Sans Serif';-inkscape-font-specification:'CMU Sans Serif'">0</tspan></text>
<g
       id="g184"
       transform="scale(0.1)"><g
         id="g186"
         transform="translate(545.832,989.168)"><path
           d="M 0,0 H 32.5"
           style="fill:none;stroke:#000000;stroke-width:5;stroke-linecap:butt;stroke-linejoin:round;stroke-miterlimit:10;stroke-dasharray:none;stroke-opacity:1"
           id="path188"
           inkscape:connector-curvature="0" /></g></g><g
       id="g190"
       transform="scale(0.1)"><g
         id="g192"
         transform="translate(3800,989.168)"><path
           d="M 0,0 H -33.33"
           style="fill:none;stroke:#000000;stroke-width:5;stroke-linecap:butt;stroke-linejoin:round;stroke-miterlimit:10;stroke-dasharray:none;stroke-opacity:1"
           id="path194"
           inkscape:connector-curvature="0" /></g></g><text
       transform="matrix(1,0,0,-1,37.833,95.25)"
       style="font-style:normal;font-variant:normal;font-weight:normal;font-stretch:normal;font-size:10px;font-family:'CMU Sans Serif';-inkscape-font-specification:'CMU Sans Serif';writing-mode:lr-tb;fill:#000000;fill-opacity:1;fill-rule:nonzero;stroke:none"
       id="text198"><tspan
         x="0 5.5599999 8.3400002"
         y="0"
         sodipodi:role="line"
         id="tspan196">0.2</tspan></text>
<g
       id="g200"
       transform="scale(0.1)"><g
         id="g202"
         transform="translate(545.832,1310)"><path
           d="M 0,0 H 32.5"
           style="fill:none;stroke:#000000;stroke-width:5;stroke-linecap:butt;stroke-linejoin:round;stroke-miterlimit:10;stroke-dasharray:none;stroke-opacity:1"
           id="path204"
           inkscape:connector-curvature="0" /></g></g><g
       id="g206"
       transform="scale(0.1)"><g
         id="g208"
         transform="translate(3800,1310)"><path
           d="M 0,0 H -33.33"
           style="fill:none;stroke:#000000;stroke-width:5;stroke-linecap:butt;stroke-linejoin:round;stroke-miterlimit:10;stroke-dasharray:none;stroke-opacity:1"
           id="path210"
           inkscape:connector-curvature="0" /></g></g><text
       transform="matrix(1,0,0,-1,37.833,127.333)"
       style="font-style:normal;font-variant:normal;font-weight:normal;font-stretch:normal;font-size:10px;font-family:'CMU Sans Serif';-inkscape-font-specification:'CMU Sans Serif';writing-mode:lr-tb;fill:#000000;fill-opacity:1;fill-rule:nonzero;stroke:none"
       id="text214"><tspan
         x="0 5.5599999 8.3400002"
         y="0"
         sodipodi:role="line"
         id="tspan212">0.4</tspan></text>
<g
       id="g216"
       transform="scale(0.1)"><g
         id="g218"
         transform="translate(545.832,1630.83)"><path
           d="M 0,0 H 32.5"
           style="fill:none;stroke:#000000;stroke-width:5;stroke-linecap:butt;stroke-linejoin:round;stroke-miterlimit:10;stroke-dasharray:none;stroke-opacity:1"
           id="path220"
           inkscape:connector-curvature="0" /></g></g><g
       id="g222"
       transform="scale(0.1)"><g
         id="g224"
         transform="translate(3800,1630.83)"><path
           d="M 0,0 H -33.33"
           style="fill:none;stroke:#000000;stroke-width:5;stroke-linecap:butt;stroke-linejoin:round;stroke-miterlimit:10;stroke-dasharray:none;stroke-opacity:1"
           id="path226"
           inkscape:connector-curvature="0" /></g></g><text
       transform="matrix(1,0,0,-1,37.833,159.417)"
       style="font-style:normal;font-variant:normal;font-weight:normal;font-stretch:normal;font-size:10px;font-family:'CMU Sans Serif';-inkscape-font-specification:'CMU Sans Serif';writing-mode:lr-tb;fill:#000000;fill-opacity:1;fill-rule:nonzero;stroke:none"
       id="text230"><tspan
         x="0 5.5599999 8.3400002"
         y="0"
         sodipodi:role="line"
         id="tspan228">0.6</tspan></text>
<g
       id="g232"
       transform="scale(0.1)"><g
         id="g234"
         transform="translate(545.832,1951.67)"><path
           d="M 0,0 H 32.5"
           style="fill:none;stroke:#000000;stroke-width:5;stroke-linecap:butt;stroke-linejoin:round;stroke-miterlimit:10;stroke-dasharray:none;stroke-opacity:1"
           id="path236"
           inkscape:connector-curvature="0" /></g></g><g
       id="g238"
       transform="scale(0.1)"><g
         id="g240"
         transform="translate(3800,1951.67)"><path
           d="M 0,0 H -33.33"
           style="fill:none;stroke:#000000;stroke-width:5;stroke-linecap:butt;stroke-linejoin:round;stroke-miterlimit:10;stroke-dasharray:none;stroke-opacity:1"
           id="path242"
           inkscape:connector-curvature="0" /></g></g><text
       transform="matrix(1,0,0,-1,37.833,191.5)"
       style="font-style:normal;font-variant:normal;font-weight:normal;font-stretch:normal;font-size:10px;font-family:'CMU Sans Serif';-inkscape-font-specification:'CMU Sans Serif';writing-mode:lr-tb;fill:#000000;fill-opacity:1;fill-rule:nonzero;stroke:none"
       id="text246"><tspan
         x="0 5.5599999 8.3400002"
         y="0"
         sodipodi:role="line"
         id="tspan244">0.8</tspan></text>
<g
       id="g248"
       transform="scale(0.1)"><g
         id="g250"
         transform="translate(545.832,2272.5)"><path
           d="M 0,0 H 32.5"
           style="fill:none;stroke:#000000;stroke-width:5;stroke-linecap:butt;stroke-linejoin:round;stroke-miterlimit:10;stroke-dasharray:none;stroke-opacity:1"
           id="path252"
           inkscape:connector-curvature="0" /></g></g><g
       id="g254"
       transform="scale(0.1)"><g
         id="g256"
         transform="translate(3800,2272.5)"><path
           d="M 0,0 H -33.33"
           style="fill:none;stroke:#000000;stroke-width:5;stroke-linecap:butt;stroke-linejoin:round;stroke-miterlimit:10;stroke-dasharray:none;stroke-opacity:1"
           id="path258"
           inkscape:connector-curvature="0" /></g></g><text
       transform="matrix(1,0,0,-1,46.167,223.583)"
       style="font-style:normal;font-variant:normal;font-weight:normal;font-stretch:normal;font-size:10px;font-family:'CMU Sans Serif';-inkscape-font-specification:'CMU Sans Serif';writing-mode:lr-tb;fill:#000000;fill-opacity:1;fill-rule:nonzero;stroke:none"
       id="text262"><tspan
         x="0"
         y="0"
         id="tspan260"
         style="font-style:normal;font-variant:normal;font-weight:normal;font-stretch:normal;font-family:'CMU Sans Serif';-inkscape-font-specification:'CMU Sans Serif'">1</tspan></text>
<g
       id="g264"
       transform="scale(0.1)"><g
         id="g266"
         transform="translate(545.832,2593.3301)"><path
           d="M 0,0 H 32.5"
           style="fill:none;stroke:#000000;stroke-width:5;stroke-linecap:butt;stroke-linejoin:round;stroke-miterlimit:10;stroke-dasharray:none;stroke-opacity:1"
           id="path268"
           inkscape:connector-curvature="0" /></g></g><g
       id="g270"
       transform="scale(0.1)"><g
         id="g272"
         transform="translate(3800,2593.3301)"><path
           d="M 0,0 H -33.33"
           style="fill:none;stroke:#000000;stroke-width:5;stroke-linecap:butt;stroke-linejoin:round;stroke-miterlimit:10;stroke-dasharray:none;stroke-opacity:1"
           id="path274"
           inkscape:connector-curvature="0" /></g></g><text
       transform="matrix(1,0,0,-1,37.833,255.667)"
       style="font-style:normal;font-variant:normal;font-weight:normal;font-stretch:normal;font-size:10px;font-family:'CMU Sans Serif';-inkscape-font-specification:'CMU Sans Serif';writing-mode:lr-tb;fill:#000000;fill-opacity:1;fill-rule:nonzero;stroke:none"
       id="text278"><tspan
         x="0 5.5599999 8.3400002"
         y="0"
         sodipodi:role="line"
         id="tspan276">1.2</tspan></text>
<g
       id="g280"
       transform="scale(0.1)"><g
         id="g282"
         transform="translate(545.832,2914.1699)"><path
           d="M 0,0 H 32.5"
           style="fill:none;stroke:#000000;stroke-width:5;stroke-linecap:butt;stroke-linejoin:round;stroke-miterlimit:10;stroke-dasharray:none;stroke-opacity:1"
           id="path284"
           inkscape:connector-curvature="0" /></g></g><g
       id="g286"
       transform="scale(0.1)"><g
         id="g288"
         transform="translate(3800,2914.1699)"><path
           d="M 0,0 H -33.33"
           style="fill:none;stroke:#000000;stroke-width:5;stroke-linecap:butt;stroke-linejoin:round;stroke-miterlimit:10;stroke-dasharray:none;stroke-opacity:1"
           id="path290"
           inkscape:connector-curvature="0" /></g></g><text
       transform="matrix(1,0,0,-1,37.833,287.75)"
       style="font-style:normal;font-variant:normal;font-weight:normal;font-stretch:normal;font-size:10px;font-family:'CMU Sans Serif';-inkscape-font-specification:'CMU Sans Serif';writing-mode:lr-tb;fill:#000000;fill-opacity:1;fill-rule:nonzero;stroke:none"
       id="text294"><tspan
         x="0 5.5599999 8.3400002"
         y="0"
         sodipodi:role="line"
         id="tspan292">1.4</tspan></text>
<g
       id="g296"
       transform="scale(0.1)"><g
         id="g298"
         transform="translate(545.832,2914.1699)"><path
           d="M 0,0 H 3254.168"
           style="fill:none;stroke:#000000;stroke-width:5;stroke-linecap:butt;stroke-linejoin:round;stroke-miterlimit:10;stroke-dasharray:none;stroke-opacity:1"
           id="path300"
           inkscape:connector-curvature="0" /></g></g><g
       id="g302"
       transform="scale(0.1)"><g
         id="g304"
         transform="translate(545.832,346.668)"><path
           d="M 0,0 H 3254.168 V 2567.502"
           style="fill:none;stroke:#000000;stroke-width:5;stroke-linecap:butt;stroke-linejoin:round;stroke-miterlimit:10;stroke-dasharray:none;stroke-opacity:1"
           id="path306"
           inkscape:connector-curvature="0" /></g></g><g
       id="g308"
       transform="scale(0.1)"><g
         id="g310"
         transform="translate(545.832,346.668)"><path
           d="M 0,0 V 2567.502"
           style="fill:none;stroke:#000000;stroke-width:5;stroke-linecap:butt;stroke-linejoin:round;stroke-miterlimit:10;stroke-dasharray:none;stroke-opacity:1"
           id="path312"
           inkscape:connector-curvature="0" /></g></g><g
       id="g322"
       transform="matrix(0.1,0,0,0.1,282.33301,223.16699)" /><g
       id="g326"
       transform="matrix(0.1,0,0,0.1,185,251.75)" /><g
       id="g330"
       transform="matrix(0.1,0,0,0.1,87.75,123.167)" /><g
       id="g334"
       transform="matrix(0.1,0,0,0.1,54.5832,66.8332)"><path
         d="M 0,0 H 9.168 L 12.5,0.836 15.836,1.668 19.168,2.5 22.5,3.336 25.836,5 29.168,5.836 32.5,7.5 35,9.168 38.336,10.836 41.668,12.5 45,15 l 3.336,1.668 3.332,2.5 3.332,2.5 3.336,2.5 3.332,2.5 L 65,30 l 3.336,2.5 2.5,3.336 3.332,3.332 3.332,3.332 3.336,3.336 3.332,3.332 3.332,4.168 3.336,3.332 3.332,4.168 3.332,4.164 3.336,4.168 2.5,4.168 3.332,4.164 3.332,4.168 3.336,5 3.332,5 3.332,4.168 3.336,5 3.332,5 3.332,5 3.336,5.832 3.332,5 2.5,5 3.332,5.832 3.336,5.836 3.332,5 3.332,5.832 3.336,5.832 3.332,5.836 3.332,6.664 3.336,5.836 3.332,5.832 2.5,6.668 3.332,6.664 3.336,5.836 3.332,6.664 3.332,6.668 3.336,6.668 3.332,6.664 3.332,6.668 3.336,6.668 3.332,7.5 3.332,6.664 2.5,6.668 3.336,7.5 3.332,7.5 3.332,6.668 3.336,7.5 3.332,7.5 3.332,7.5 3.336,7.5 3.332,7.5 3.332,7.5 2.5,7.502 3.336,7.5 3.332,7.5 3.332,8.33 3.336,7.5 3.332,8.33 3.332,7.5 3.336,8.34 3.332,7.5 3.332,8.33 3.336,8.33 2.5,7.5 3.332,8.34 3.332,8.33 3.336,8.33 3.332,8.34 3.332,8.33 3.336,8.33 3.332,8.34 3.332,8.33 3.336,8.33 2.5,8.34 3.332,8.33 3.332,8.33 3.336,8.34 3.332,9.16 3.332,8.34 3.336,8.33 3.332,9.17 3.332,8.33 3.336,8.33 3.332,9.17 2.5,8.33 3.332,8.34 3.336,9.16 3.332,8.34 3.332,9.16 3.336,8.34 3.332,9.16 3.332,8.34 3.336,9.16 3.332,8.34 2.5,9.16 3.332,8.34 3.336,9.16 3.332,8.34 3.332,9.16 3.336,8.34 3.332,9.16 3.332,8.34 3.336,9.16 3.332,8.34 3.332,9.16 2.5,8.34 3.336,9.16 3.332,8.34 3.332,9.16 3.336,8.34 3.332,9.16 3.332,8.34 3.336,9.16 3.332,8.34 3.332,8.33 2.5,9.17 3.336,8.33 3.332,8.33 3.33,9.17 3.34,8.33 3.33,8.34 3.33,9.16 3.34,8.34 3.33,8.33 3.33,9.17 3.34,8.33 2.5,8.33 3.33,8.34 3.33,8.33 3.34,8.33 3.33,8.34 3.33,8.33 3.34,8.33 3.33,8.34 3.33,8.33 3.34,8.33 2.5,8.34 3.33,8.33 3.33,8.33 3.34,8.34 3.33,8.33 3.33,7.5 3.34,8.33 3.33,8.34 3.33,7.5 3.34,8.33 3.33,7.5 2.5,8.33 3.33,7.5 3.34,8.34 3.33,7.5 3.33,8.33 3.34,7.5 3.33,7.5 3.33,7.5 3.34,8.33 3.33,7.5 2.5,7.5 3.33,7.5 3.34,7.5 3.33,7.5 3.33,7.5 3.34,7.5 3.33,7.5 3.33,6.67 3.34,7.5 3.33,7.5 3.33,6.67 2.5,7.5 3.34,7.5 3.33,6.66 3.33,7.5 3.34,6.67 3.33,6.67 3.33,7.5 3.34,6.66 3.33,6.67 3.33,6.67 3.34,6.66 2.5,6.67 3.33,6.67 3.33,6.66 3.34,6.67 3.33,6.67 3.33,6.66 3.34,6.67 3.33,5.83 3.33,6.67 3.34,5.83 2.5,6.67 3.33,5.83 3.33,6.67 3.34,5.83 3.33,5.84 3.33,6.66 3.34,5.84 3.33,5.83 3.33,5.83 3.34,5.84 3.33,5.83 2.5,5.83 3.33,5.84 3.34,5.83 3.33,5 3.33,5.83 3.34,5.84 3.33,5 3.33,5.83 3.34,5 3.33,5.83 2.5,5 3.33,5 3.34,5 3.33,5.84 3.33,5 3.34,5 3.33,5 3.33,5 3.34,5 3.33,4.16 3.33,5 2.5,5 3.34,5 3.33,4.17 3.33,5 3.34,4.17 3.33,5 3.33,4.16 3.34,4.17 3.33,4.17 3.33,5 2.5,4.16 3.34,4.17 3.33,4.17 3.33,4.16 3.34,4.17 3.33,4.17 3.33,3.33 3.34,4.17 3.33,4.16 3.33,3.34 3.34,4.16 2.5,4.17 3.33,3.33 3.33,3.34 3.34,4.16 3.33,3.34 3.33,3.33 3.34,3.33 3.33,4.17 3.33,3.33 3.34,3.34 2.5,3.33 3.33,2.5 3.33,3.33 3.34,3.34 3.33,3.33 3.33,3.33 3.34,2.5 3.33,3.34 3.33,2.5 3.34,3.33 3.33,2.5 2.5,3.33 3.33,2.5 3.34,2.5 3.33,2.5 3.33,2.5 3.34,3.34 3.33,2.5 3.33,2.5 3.34,2.5 3.33,1.66 2.5,2.5 3.33,2.5 3.34,2.5 3.33,1.67 3.33,2.5 3.34,2.5 3.33,1.67 3.33,2.5 3.34,1.66 3.33,2.5 3.33,1.67 2.5,1.67 3.34,1.66 3.33,2.5 3.33,1.67 3.34,1.67 3.33,1.66 3.33,1.67 3.34,1.67 3.33,1.66 3.33,1.67 2.5,1.67 3.34,0.83 3.33,1.67 3.33,1.66 3.34,0.84 3.33,1.66 3.33,1.67 3.34,0.83 3.33,1.67 3.33,0.83 3.34,0.84 2.5,1.66 3.33,0.84 3.33,0.83 3.34,1.67 3.33,0.83 3.33,0.83 3.34,0.84 3.33,0.83 3.33,0.83 3.34,0.84 2.5,0.83 3.33,0.83 3.33,0.84 h 3.34 l 3.33,0.83 3.33,0.83 3.34,0.84 h 3.33 l 3.33,0.83 3.34,0.83 h 3.33 l 2.5,0.84 h 3.33 l 3.34,0.83 h 6.66 l 3.34,0.83 h 10 l 3.33,0.84 h 38.33 l 3.34,-0.84 h 10 l 3.33,-0.83 h 6.67 l 3.33,-0.83 h 3.33 l 2.5,-0.84 h 3.34 l 3.33,-0.83 h 3.33 l 3.34,-0.83 h 3.33 l 3.33,-0.84 3.34,-0.83 h 3.33 l 3.33,-0.83 3.34,-0.84 h 2.5 l 3.33,-0.83 3.33,-0.83 3.34,-0.84 3.33,-0.83 h 3.33 l 3.34,-0.83 3.33,-0.84 3.33,-0.83 3.34,-0.83 3.33,-0.84 2.5,-0.83 3.33,-0.83 3.34,-0.84 3.33,-0.83 3.33,-0.83 3.34,-0.84 3.33,-0.83 3.33,-0.83 3.34,-0.84 3.33,-0.83 2.5,-1.67 3.33,-0.83 3.34,-0.83 3.33,-0.84 3.33,-0.83 3.34,-1.67 3.33,-0.83 3.33,-0.83 3.34,-0.84 3.33,-1.66 3.33,-0.84 2.5,-0.83 3.34,-1.67 3.33,-0.83 3.33,-0.83 3.34,-1.67 3.33,-0.83 3.33,-0.84 3.34,-1.66 3.33,-0.84 3.33,-1.66 2.5,-0.84 3.34,-1.66 3.33,-0.84 3.33,-0.83 3.34,-1.67 3.33,-0.83 3.33,-1.67 3.34,-0.83 3.33,-1.67 3.33,-1.66 3.34,-0.84 2.5,-1.66 3.33,-0.84 3.33,-1.66 3.34,-0.84 3.33,-1.66 3.33,-0.84 3.34,-1.66 3.33,-1.67 3.33,-0.83 3.34,-1.67 2.5,-1.67 3.33,-0.83 3.33,-1.67 3.34,-0.83 3.33,-1.67 3.33,-1.66 3.34,-0.84 3.33,-1.66 3.33,-1.67 3.34,-0.83 3.33,-1.67 2.5,-1.67 3.33,-0.83 3.34,-1.67 3.33,-1.66 3.33,-0.84 3.34,-1.66 3.33,-1.67 3.33,-1.67 3.34,-0.83 3.33,-1.67 2.5,-1.66 3.33,-0.84 3.34,-1.66 3.33,-1.67 3.33,-1.67 3.34,-0.83 3.33,-1.67 3.33,-1.66 3.34,-0.84 3.33,-1.66 3.33,-1.67 2.5,-1.67 3.34,-0.83 3.33,-1.67 3.33,-1.66 3.34,-0.84 3.33,-1.66 3.33,-1.67 3.34,-0.83 3.33,-1.67 3.33,-1.67 2.5,-1.66 3.34,-0.84 3.33,-1.66 3.33,-1.67 3.34,-0.83 3.33,-1.67 3.33,-1.67 3.34,-0.83 3.33,-1.67 3.33,-1.66 3.34,-1.67 2.5,-0.83 3.33,-1.67 3.33,-1.67 3.34,-0.83 3.33,-1.67 3.33,-1.66 3.34,-0.84 3.33,-1.66 3.33,-1.67 3.34,-0.83 2.5,-1.67 3.33,-0.83 3.33,-1.67 3.34,-1.67 3.33,-0.83 3.33,-1.67 3.34,-1.66 3.33,-0.84 3.33,-1.66 3.34,-0.84 3.33,-1.66 2.5,-0.84 3.33,-1.66 3.34,-1.67 3.33,-0.83 3.33,-1.67 3.34,-0.83 3.33,-1.67 3.33,-0.83 3.34,-1.67 3.33,-0.83 2.5,-1.67 3.33,-0.83 3.34,-1.67 3.33,-0.83 3.33,-1.67 3.34,-0.83 3.33,-1.67 3.33,-0.83 3.34,-1.67 3.33,-0.83 3.33,-1.67 2.5,-0.83 3.34,-1.67 3.33,-0.83 3.33,-0.84 3.34,-1.66 3.33,-0.84 3.33,-1.66 3.34,-0.84 3.33,-0.83 3.33,-1.67 2.5,-0.83 3.34,-0.83 3.33,-1.67 3.33,-0.83 3.34,-0.84 3.33,-1.66 3.33,-0.84 3.34,-0.83 3.33,-1.67 3.33,-0.83 3.34,-0.83 2.5,-1.67 3.33,-0.83 3.33,-0.84 3.34,-0.83 3.33,-1.67 3.33,-0.83 3.34,-0.83 3.33,-0.84 3.33,-0.83 3.34,-1.67 2.5,-0.83 3.33,-0.83 3.33,-0.84 3.34,-0.83 3.33,-0.83 3.33,-0.84 3.34,-1.66 3.33,-0.84 3.33,-0.83 3.34,-0.83 3.33,-0.84 2.5,-0.83 3.33,-0.83 3.34,-0.84 3.33,-0.83 3.33,-0.83 3.34,-0.84 3.33,-0.83 3.33,-0.83 3.34,-0.84 3.33,-0.83 3.33,-0.83 2.5,-0.84 3.34,-0.83 3.33,-0.83 3.33,-0.84 3.34,-0.83 3.33,-0.83 3.33,-0.84 3.34,-0.83 3.33,-0.83 3.33,-0.84 2.5,-0.83 h 3.34 l 3.33,-0.83 3.33,-0.84 3.34,-0.83 3.33,-0.83 3.33,-0.84 h 3.34 l 3.33,-0.83 3.33,-0.83 3.34,-0.84 2.5,-0.83 h 3.33 l 3.33,-0.83 3.34,-0.84 3.33,-0.83 h 3.33 l 3.34,-0.83 3.33,-0.84 3.33,-0.83 h 3.34 l 2.5,-0.83 3.33,-0.84 h 3.33 l 3.34,-0.83 3.33,-0.83 h 3.33 l 3.34,-0.84 h 3.33 l 3.33,-0.83 3.34,-0.83 h 3.33 l 2.5,-0.84 h 3.33 l 3.34,-0.83 3.33,-0.83 h 3.33 l 3.34,-0.84 h 3.33 l 3.33,-0.83 h 3.34 l 3.33,-0.83 h 2.5 l 3.33,-0.84 h 3.34 l 3.33,-0.83 h 3.33 l 3.34,-0.83 h 3.33 l 3.33,-0.84 h 6.67 l 3.33,-0.83 h 2.5 l 3.34,-0.83 h 6.66 l 3.34,-0.84 h 3.33 l 3.33,-0.83 h 6.67 l 3.33,-0.83 h 5.84 l 3.33,-0.84 h 6.67 l 3.33,-0.83 h 10 l 3.33,-0.83 h 9.17 l 3.33,-0.84 h 10 l 3.34,-0.83 h 15.83 l 3.33,-0.83 h 10 l 6.6701,-10e-5 3.33,-0.84 h 29.17 l 3.33,-0.83 h 80.84 l 3.33,0.83 h 35.83 l 3.34,0.84 h 22.5 l 3.33,0.83 h 16.67 l 3.33,0.83 h 15.83 l 3.34,0.84 h 13.33 l 3.33,0.83 h 12.5 l 3.34,0.83 h 13.33 l 3.33,0.84 h 12.5 l 3.34,0.83 h 10 l 3.33,0.83 h 10 l 3.33,0.84 h 9.17 l 3.33,0.83 h 10 l 3.34,0.83 h 10 l 2.5,0.84 h 10 l 3.33,0.83 h 10 l 3.33,0.83 h 6.67 l 2.5,0.84 h 10 l 3.33,0.83 h 10 l 3.34,0.83 h 5.83 l 3.33,0.84 h 10 l 3.34,0.83 h 10 l 3.33,0.83 h 5.83 l 3.34,0.84 h 10 l 3.33,0.83 h 6.67 l 3.33,0.83 h 9.17 l 3.33,0.84 h 6.67 l 3.33,0.83 h 10 l 3.33,0.83 h 9.17 l 3.33,0.84 h 6.67 l 3.33,0.83 h 10 l 3.34,0.83 h 9.16 l 3.34,0.84 h 6.66 l 3.34,0.83 h 10 l 3.33,0.83 h 9.17 l 3.33,0.84 h 10 l 3.33,0.83 h 9.17 l 3.33,0.83 h 10 l 3.34,0.84 h 10 l 3.33,0.83 h 9.17 l 3.33,0.83 h 10 l 3.33,0.84 h 12.5 l 3.34,0.83 h 10 l 3.33,0.83 h 13.33 l 3.34,0.84 h 12.5 l 3.33,0.83 h 10 l 3.33,0.83 h 12.5 l 3.34,0.84 h 16.66 l 3.34,0.83 h 12.5 l 3.33,0.83 h 16.67 l 3.33,0.84 h 15.83 l 3.34,0.83 h 19.16 l 3.34,0.83 h 16.66 l 3.34,0.84 h 22.5 l 3.33,0.83 h 22.5 l 3.33,0.83 h 23.34"
         style="fill:none;stroke:#0000ff;stroke-width:7.5;stroke-linecap:butt;stroke-linejoin:round;stroke-miterlimit:10;stroke-dasharray:none;stroke-opacity:1"
         id="path336"
         inkscape:connector-curvature="0"
         sodipodi:nodetypes="cccccccccccccccccccccccccccccccccccccccccccccccccccccccccccccccccccccccccccccccccccccccccccccccccccccccccccccccccccccccccccccccccccccccccccccccccccccccccccccccccccccccccccccccccccccccccccccccccccccccccccccccccccccccccccccccccccccccccccccccccccccccccccccccccccccccccccccccccccccccccccccccccccccccccccccccccccccccccccccccccccccccccccccccccccccccccccccccccccccccccccccccccccccccccccccccccccccccccccccccccccccccccccccccccccccccccccccccccccccccccccccccccccccccccccccccccccccccccccccccccccccccccccccccccccccccccccccccccccccccccccccccccccccccccccccccccccccccccccccccccccccccccccccccccccccccccccccccccccccccccccccccccccccccccccccccccccccccccccccccccccccccccccccccccccccccccccccccccccccccccccccccccccccccccccccccccccccccccccccccccccccccccccccccccccccccccccccccccccccccccccccccccccccccccccc" /></g><g
       id="g338"
       transform="matrix(0.1,0,0,0.1,282.33301,66.0832)" /><g
       id="g342"
       transform="matrix(0.1,0,0,0.1,185,61.9168)" /><g
       id="g346"
       transform="matrix(0.1,0,0,0.1,87.75,118.417)" /><g
       id="g350"
       transform="matrix(0.1,0,0,0.1,54.5832,67.25)"><path
         d="m 0,0 2.5,10 3.336,9.168 3.332,9.164 3.332,9.168 3.336,9.168 3.332,9.164 L 22.5,65 25.836,74.168 29.168,82.5 32.5,91.668 35,100 l 3.336,8.332 3.332,8.336 L 45,125 l 3.336,8.332 3.332,8.336 3.332,7.5 3.336,8.332 3.332,7.5 3.332,7.5 3.336,7.5 2.5,7.5 3.332,7.5 3.332,7.5 3.336,7.5 3.332,6.668 3.332,7.5 3.336,6.664 3.332,7.5 3.332,6.668 3.336,6.668 2.5,6.664 3.332,5.836 3.332,6.664 3.336,6.668 3.332,5.832 3.332,6.668 3.336,5.832 3.332,5.836 3.332,5.832 3.336,5.832 3.332,5.836 2.5,5 3.332,5.832 3.336,5.83 3.332,5 3.332,5 3.336,5 3.332,5.84 3.332,5 3.336,4.16 3.332,5 2.5,5 3.332,4.17 3.336,5 3.332,4.17 3.332,5 3.336,4.16 3.332,4.17 3.332,4.17 3.336,4.16 3.332,4.17 3.332,3.33 2.5,4.17 3.336,3.33 3.332,4.17 3.332,3.33 3.336,3.34 3.332,3.33 3.332,3.33 3.336,3.34 3.332,3.33 3.332,3.33 2.5,2.5 3.336,3.34 3.332,2.5 3.332,3.33 3.336,2.5 3.332,2.5 3.332,2.5 3.336,2.5 3.332,2.5 3.332,2.5 3.336,2.5 2.5,2.5 3.332,1.67 3.332,2.5 3.336,1.66 3.332,1.67 3.332,2.5 3.336,1.67 3.332,1.66 3.332,1.67 3.336,1.67 2.5,1.66 3.332,0.84 3.332,1.66 3.336,1.67 3.332,0.83 3.332,1.67 3.336,0.83 3.332,0.84 3.332,1.66 3.336,0.84 3.332,0.83 2.5,0.83 3.332,0.84 3.336,0.83 3.332,0.83 h 3.332 l 3.336,0.84 h 3.332 L 367.5,520 h 3.336 l 3.332,0.83 H 380 l 3.336,0.84 H 400 l 3.336,-0.84 H 410 l 2.5,-0.83 h 6.668 l 3.332,-0.83 3.336,-0.84 h 3.332 l 3.332,-0.83 3.336,-0.83 3.332,-0.84 h 3.332 l 2.5,-0.83 3.336,-0.83 3.332,-0.84 3.33,-1.66 3.34,-0.84 3.33,-0.83 3.33,-0.83 3.34,-0.84 3.33,-1.66 3.33,-0.84 3.34,-1.66 2.5,-0.84 3.33,-1.66 3.33,-0.84 3.34,-1.66 3.33,-0.84 3.33,-1.66 3.34,-1.67 3.33,-1.67 3.33,-0.83 3.34,-1.67 2.5,-1.66 3.33,-1.67 3.33,-1.67 3.34,-1.66 3.33,-1.67 3.33,-1.67 3.34,-2.5 3.33,-1.66 3.33,-1.67 3.34,-1.67 3.33,-1.66 2.5,-2.5 3.33,-1.67 3.34,-1.67 3.33,-2.5 3.33,-1.66 3.34,-2.5 3.33,-1.67 3.33,-2.5 3.34,-1.67 3.33,-2.5 2.5,-2.5 3.33,-1.66 3.34,-2.5 3.33,-2.5 3.33,-1.67 3.34,-2.5 3.33,-2.5 3.33,-2.5 3.34,-2.5 3.33,-2.5 3.33,-1.67 2.5,-2.5 3.34,-2.5 3.33,-2.5 3.33,-2.5 3.34,-2.5 3.33,-2.5 3.33,-2.5 3.34,-2.5 3.33,-2.5 3.33,-2.5 3.34,-3.33 2.5,-2.5 3.33,-2.5 3.33,-2.5 3.34,-2.5 3.33,-2.5 3.33,-2.5 3.34,-3.33 3.33,-2.5 3.33,-2.5 3.34,-2.5 2.5,-3.34 3.33,-2.5 3.33,-2.5 3.34,-3.33 3.33,-2.5 3.33,-2.5 3.34,-3.33 3.33,-2.5 3.33,-2.5 3.34,-3.34 3.33,-2.5 2.5,-2.5 3.33,-3.33 3.34,-2.5 3.33,-2.5 3.33,-3.332 3.34,-2.5 3.33,-3.336 3.33,-2.5 3.34,-3.332 3.33,-2.5 2.5,-2.5 3.33,-3.332 3.34,-2.5 3.33,-3.336 3.33,-2.5 3.34,-3.332 3.33,-2.5 3.33,-3.332 3.34,-2.5 3.33,-2.5 3.33,-3.336 2.5,-2.5 3.34,-3.332 3.33,-2.5 3.33,-3.332 3.34,-2.5 3.33,-3.336 3.33,-2.5 3.34,-2.5 3.33,-3.332 3.33,-2.5 2.5,-3.332 3.34,-2.5 3.33,-3.336 3.33,-2.5 3.34,-2.5 3.33,-3.332 3.33,-2.5 3.34,-3.332 3.33,-2.5 3.33,-2.5 3.34,-3.336 2.5,-2.5 3.33,-2.5 3.33,-3.332 3.34,-2.5 3.33,-2.5 3.33,-3.332 3.34,-2.5 3.33,-2.5 3.33,-3.336 3.34,-2.5 2.5,-2.5 3.33,-3.332 3.33,-2.5 3.34,-2.5 3.33,-2.5 3.33,-3.332 3.34,-2.5 3.33,-2.5 3.33,-2.5 3.34,-2.5 3.33,-3.336 2.5,-2.5 3.33,-2.5 3.34,-2.5 3.33,-2.5 3.33,-2.5 3.34,-3.332 3.33,-2.5 3.33,-2.5 3.34,-2.5 3.33,-2.5 2.5,-2.5 3.33,-2.5 3.34,-2.5 3.33,-2.5 3.33,-2.5 3.34,-2.5 3.33,-2.5 3.33,-2.5 3.34,-2.5 3.33,-2.5 3.33,-2.5 2.5,-1.668 3.34,-2.5 3.33,-2.5 3.33,-2.5 3.34,-2.5 3.33,-2.5 3.33,-1.664 3.34,-2.5 3.33,-2.5 3.33,-2.5 2.5,-1.668 3.34,-2.5 3.33,-2.5 3.33,-2.5 3.34,-1.668 3.33,-2.5 3.33,-1.664 3.34,-2.5 3.33,-2.5 3.33,-1.668 3.34,-2.5 2.5,-1.668 3.33,-2.5 3.33,-1.664 3.34,-2.5 3.33,-1.668 3.33,-2.5 3.34,-1.668 3.33,-2.5 3.33,-1.664 3.34,-1.668 2.5,-2.5 3.33,-1.668 3.33,-1.664 3.34,-2.5 3.33,-1.668 3.33,-1.668 3.34,-2.5 3.33,-1.664 3.33,-1.668 3.34,-1.668 3.33,-1.664 2.5,-2.5 3.33,-1.668 3.34,-1.668 3.33,-1.664 3.33,-1.668 3.34,-1.668 3.33,-1.664 3.33,-1.668 3.34,-1.668 3.33,-1.664 2.5,-1.668 3.33,-1.668 3.34,-1.664 3.33,-1.668 3.33,-1.668 3.34,-1.664 3.33,-1.668 3.33,-0.832 3.34,-1.668 3.33,-1.668 3.33,-1.664 2.5,-1.668 3.34,-0.832 3.33,-1.668 3.33,-1.668 3.34,-1.664 3.33,-0.836 3.33,-1.664 3.34,-0.836 3.33,-1.664 3.33,-1.668 2.5,-0.832 3.34,-1.668 3.33,-0.832 3.33,-1.668 3.34,-0.832 3.33,-1.668 3.33,-0.832 3.34,-1.668 3.33,-0.832 3.33,-1.668 3.34,-0.832 2.5,-0.836 3.33,-1.664 3.33,-0.836 3.34,-0.832 3.33,-1.668 3.33,-0.832 3.34,-0.832 3.33,-1.668 3.33,-0.832 3.34,-0.836 3.33,-0.832 2.5,-0.832 3.33,-1.668 3.34,-0.832 3.33,-0.836 3.33,-0.832 3.34,-0.832 3.33,-0.836 3.33,-0.832 3.34,-0.832 3.33,-0.836 2.5,-0.832 3.33,-0.832 3.34,-0.836 3.33,-0.832 3.33,-0.832 3.34,-0.836 3.33,-0.832 3.33,-0.832 3.34,-0.836 3.33,-0.832 h 3.33 l 2.5,-0.832 3.34,-0.836 3.33,-0.832 3.33,-0.832 h 3.34 l 3.33,-0.836 3.33,-0.832 h 3.34 l 3.33,-0.832 3.33,-0.836 2.5,-0.832 h 3.34 l 3.33,-0.832 h 3.33 l 3.34,-0.836 3.33,-0.832 h 3.33 l 3.34,-0.832 h 3.33 l 3.33,-0.836 h 3.34 l 2.5,-0.832 h 3.33 l 3.33,-0.832 h 3.34 l 3.33,-0.836 h 3.33 l 3.34,-0.832 h 6.66 l 3.34,-0.832 h 5.83 l 3.33,-0.836 h 6.67 l 3.33,-0.832 h 6.67 l 3.33,-0.832 h 12.5 l 3.34,-0.836 h 16.66 l 3.34,-0.832 h 74.16 l 3.34,0.832 h 20 l 3.33,0.836 h 12.5 l 3.33,0.832 h 10 l 3.34,0.832 h 10 l 2.5,0.836 h 6.66 l 3.34,0.832 h 10 l 3.33,0.832 h 6.67 l 3.33,0.836 h 2.5 l 3.33,0.832 h 6.67 l 3.33,0.832 h 6.67 l 3.33,0.836 h 3.34 l 3.33,0.832 h 5.83 l 3.34,0.832 h 3.33 l 3.33,0.836 h 3.34 l 3.33,0.832 h 6.67 l 3.33,0.832 h 3.33 l 2.5,0.836 h 3.34 l 3.33,0.832 h 3.33 l 3.34,0.832 h 3.33 l 3.33,0.836 h 3.34 l 3.33,0.832 h 3.33 l 2.5,0.832 h 3.34 l 3.33,0.836 h 3.33 l 3.34,0.832 h 3.33 l 3.33,0.832 h 3.34 l 3.33,0.836 h 3.33 l 3.34,0.832 h 2.5 l 3.33,0.832 h 3.33 l 3.34,0.836 h 3.33 l 3.33,0.832 h 3.34 l 3.33,0.832 h 3.33 l 3.34,0.836 h 2.5 l 3.33,0.832 3.33,0.832 h 3.34 l 3.33,0.836 h 3.33 l 3.34,0.832 h 3.33 l 3.33,0.832 h 3.34 l 3.33,0.836 2.5,0.832 h 3.33 l 3.34,0.832 h 3.33 l 3.33,0.836 h 3.34 l 3.33,0.832 h 3.33 l 3.34,0.832 3.33,0.836 h 3.33 l 2.5,0.832 h 3.34 l 3.33,0.832 h 3.33 l 3.34,0.836 h 3.33 l 3.33,0.832 3.34,0.832 h 3.33 l 3.33,0.836 h 2.5 l 3.34,0.832 h 3.33 l 3.33,0.832 3.34,0.836 h 3.33 l 3.33,0.832 h 3.34 l 3.33,0.832 h 3.33 l 3.34,0.836 h 2.5 l 3.33,0.832 3.33,0.832 h 3.34 l 3.33,0.836 h 3.33 l 3.34,0.832 h 3.33 l 3.33,0.832 h 3.34 l 2.5,0.836 h 3.33 l 3.33,0.832 3.34,0.832 h 3.33 l 3.33,0.836 h 3.34 l 3.33,0.832 h 3.33 l 3.34,0.832 h 3.33 l 2.5,0.836 h 3.33 l 3.34,0.832 h 3.33 l 3.33,0.832 h 3.34 l 3.33,0.836 h 3.33 l 3.34,0.832 h 3.33 l 2.5,0.832 h 3.33 l 3.34,0.836 h 3.33 l 3.33,0.832 h 3.34 l 3.33,0.832 h 3.33 l 3.34,0.836 h 3.33 l 3.33,0.832 h 2.5 l 3.34,0.832 h 3.33 l 3.33,0.836 h 3.34 l 3.33,0.832 h 3.33 l 3.34,0.832 h 3.33 l 3.33,0.836 h 2.5 l 3.34,0.832 h 6.66 l 3.34,0.832 h 3.33 l 3.33,0.836 h 3.34 l 3.33,0.832 h 6.67 l 2.5,0.832 h 3.33 l 3.33,0.836 h 3.34 l 3.33,0.832 h 6.67 l 3.33,0.832 h 3.33 l 3.34,0.836 h 5.83 l 3.33,0.832 h 3.34 l 3.33,0.832 h 3.33 3.3401 l 3.33,0.836 h 6.67 l 3.33,0.832 h 2.5 l 3.33,0.832 h 6.67 l 3.33,0.836 h 6.67 l 3.33,0.832 h 6.67 l 2.5,0.832 h 6.67 l 3.33,0.836 h 6.67 l 3.33,0.832 h 6.67 l 3.33,0.832 h 5.83 l 3.34,0.836 h 10 l 3.33,0.832 h 6.67 l 3.33,0.832 h 9.17 l 3.33,0.836 h 10 l 3.33,0.832 h 10 l 3.34,0.832 h 9.16 l 3.34,0.836 h 13.33 l 3.33,0.832 h 9.17 l 3.33,0.832 h 16.67 l 3.33,0.836 h 12.5 l 3.34,0.832 h 16.66 l 3.34,0.832 h 19.16 l 3.34,0.836 h 22.5 l 3.33,0.832 h 29.17 l 3.33,0.832 h 39.17 l 3.33,0.836 h 211.67 l 3.33,-0.836 h 55 l 3.33,-0.832 h 42.5 l 3.34,-0.832 h 39.16 l 3.34,-0.836 h 32.5 l 2.5,-0.832 h 35.83 l 3.33,-0.832 h 32.5 l 3.34,-0.836 h 32.5 l 3.33,-0.832 h 29.17 l 3.33,-0.832 h 35.83 l 3.34,-0.836 h 20"
         style="fill:none;stroke:#ff0000;stroke-width:7.5;stroke-linecap:butt;stroke-linejoin:round;stroke-miterlimit:10;stroke-dasharray:none;stroke-dashoffset:0;stroke-opacity:1"
         id="path352"
         inkscape:connector-curvature="0"
         sodipodi:nodetypes="cccccccccccccccccccccccccccccccccccccccccccccccccccccccccccccccccccccccccccccccccccccccccccccccccccccccccccccccccccccccccccccccccccccccccccccccccccccccccccccccccccccccccccccccccccccccccccccccccccccccccccccccccccccccccccccccccccccccccccccccccccccccccccccccccccccccccccccccccccccccccccccccccccccccccccccccccccccccccccccccccccccccccccccccccccccccccccccccccccccccccccccccccccccccccccccccccccccccccccccccccccccccccccccccccccccccccccccccccccccccccccccccccccccccccccccccccccccccccccccccccccccccccccccccccccccccccccccccccccccccccccccccccccccccccccccccccccccccccccccccccccccccccccccccccccccccccccccccccccccccccccccccccccccccccccccccccccccccccccccccccccccccccccccccccccccccccccccccccccccccccccccccccccccccccccccccccccc" /></g><g
       id="g354"
       transform="matrix(0.1,0,0,0.1,282.33301,222.41699)" /><g
       id="g358"
       transform="matrix(0.1,0,0,0.1,185,246.83301)" /><g
       id="g362"
       transform="matrix(0.1,0,0,0.1,87.75,174.75)" /><g
       id="g366"
       transform="matrix(0.1,0,0,0.1,54.5832,67.25)"><path
         d="m 0,0 2.5,10 3.336,10 3.332,9.168 3.332,10 3.336,10 3.332,10 3.332,10 3.336,10 3.332,10 3.332,10 2.5,10 3.336,10 3.332,10.832 3.332,10 3.336,10 3.332,10.832 3.332,10 3.336,10.836 3.332,10.832 3.332,10 3.336,10.832 2.5,10.836 3.332,10 3.332,10.832 3.336,10.832 3.332,10.836 3.332,10.832 3.336,10.832 3.332,10.836 3.332,10.832 3.336,10.832 2.5,10.838 3.332,10.83 3.332,10.83 3.336,10.84 3.332,10.83 3.332,10.83 3.336,10.84 3.332,10.83 3.332,11.67 3.336,10.83 3.332,10.83 2.5,10.84 3.332,10.83 3.336,11.67 3.332,10.83 3.332,10.83 3.336,10.84 3.332,10.83 3.332,11.67 3.336,10.83 3.332,10.83 2.5,10.84 3.332,10.83 3.336,11.67 3.332,10.83 3.332,10.83 3.336,10.84 3.332,10.83 3.332,10.83 3.336,10.84 3.332,10.83 3.332,11.67 2.5,10.83 3.336,10.83 3.332,10.84 3.332,10.83 3.336,10.83 3.332,10 3.332,10.84 3.336,10.83 3.332,10.83 3.332,10.84 2.5,10.83 3.336,10 3.332,10.83 3.332,10.84 3.336,10.83 3.332,10 3.332,10.83 3.336,10 3.332,10.84 3.332,10 3.336,10.83 2.5,10 3.332,10.83 3.332,10 3.336,10 3.332,10 3.332,10.84 3.336,10 3.332,10 3.332,10 3.336,10 2.5,10 3.332,10 3.332,10 3.336,10 3.332,9.16 3.332,10 3.336,10 3.332,9.17 3.332,10 3.336,9.17 3.332,10 2.5,9.16 3.332,10 3.336,9.17 3.332,9.17 3.332,9.16 3.336,9.17 3.332,9.17 3.332,9.16 3.336,9.17 3.332,9.17 2.5,9.16 3.332,9.17 3.336,9.17 3.332,8.33 3.332,9.17 3.336,8.33 3.332,9.17 3.332,8.33 3.336,8.33 3.332,9.17 3.332,8.33 2.5,8.34 3.336,8.33 3.332,8.33 3.332,8.34 3.336,8.33 3.332,8.33 3.332,7.5 3.336,8.34 3.332,8.33 3.332,7.5 2.5,8.33 3.336,7.5 3.332,7.5 3.33,8.34 3.34,7.5 3.33,7.5 3.33,7.5 3.34,7.5 3.33,7.5 3.33,7.5 3.34,7.5 2.5,6.66 3.33,7.5 3.33,6.67 3.34,7.5 3.33,6.67 3.33,7.5 3.34,6.66 3.33,6.67 3.33,6.67 3.34,6.66 2.5,6.67 3.33,6.67 3.33,6.66 3.34,6.67 3.33,6.67 3.33,5.83 3.34,6.67 3.33,5.83 3.33,6.67 3.34,5.83 3.33,5.83 2.5,6.67 3.33,5.83 3.34,5.84 3.33,5.83 3.33,5.83 3.34,5 3.33,5.84 3.33,5.83 3.34,5.83 3.33,5 2.5,5.84 3.33,5 3.34,5 3.33,5.83 3.33,5 3.34,5 3.33,5 3.33,5 3.34,5 3.33,5 3.33,4.17 2.5,5 3.34,5 3.33,4.16 3.33,5 3.34,4.17 3.33,5 3.33,4.17 3.34,4.16 3.33,4.17 3.33,4.17 3.34,4.16 2.5,4.17 3.33,4.17 3.33,4.16 3.34,3.34 3.33,4.16 3.33,4.17 3.34,3.33 3.33,4.17 3.33,3.33 3.34,3.34 2.5,4.16 3.33,3.34 3.33,3.33 3.34,3.33 3.33,3.34 3.33,3.33 3.34,3.33 3.33,3.34 3.33,2.5 3.34,3.33 3.33,2.5 2.5,3.33 3.33,2.5 3.34,3.34 3.33,2.5 3.33,3.33 3.34,2.5 3.33,2.5 3.33,2.5 3.34,2.5 3.33,2.5 2.5,2.5 3.33,2.5 3.34,2.5 3.33,1.67 3.33,2.5 3.34,2.5 3.33,1.66 3.33,2.5 3.34,1.67 3.33,1.67 3.33,2.5 2.5,1.66 3.34,1.67 3.33,1.67 3.33,1.66 3.34,1.67 3.33,1.67 3.33,1.66 3.34,1.67 3.33,1.67 3.33,1.66 2.5,0.84 3.34,1.66 3.33,1.67 3.33,0.83 3.34,1.67 3.33,0.83 3.33,1.67 3.34,0.83 3.33,0.84 3.33,1.66 3.34,0.84 2.5,0.83 3.33,0.83 3.33,0.84 3.34,0.83 3.33,0.83 3.33,0.84 3.34,0.83 h 3.33 l 3.33,0.83 3.34,0.84 2.5,0.83 h 3.33 l 3.33,0.83 h 3.34 l 3.33,0.84 h 3.33 l 3.34,0.83 h 6.66 l 3.34,0.83 h 38.33 l 3.33,-0.83 h 10 l 3.34,-0.83 h 3.33 l 3.33,-0.84 h 3.34 l 3.33,-0.83 h 3.33 l 2.5,-0.83 h 3.34 l 3.33,-0.84 3.33,-0.83 3.34,-0.83 h 3.33 l 3.33,-0.84 3.34,-0.83 3.33,-0.83 3.33,-0.84 2.5,-0.83 h 3.34 l 3.33,-0.83 3.33,-0.84 3.34,-0.83 3.33,-0.83 3.33,-1.67 3.34,-0.83 3.33,-0.84 3.33,-0.83 3.34,-0.83 2.5,-0.84 3.33,-0.83 3.33,-1.67 3.34,-0.83 3.33,-0.83 3.33,-1.67 3.34,-0.83 3.33,-0.84 3.33,-1.66 3.34,-0.84 2.5,-1.66 3.33,-0.84 3.33,-0.83 3.34,-1.67 3.33,-0.83 3.33,-1.67 3.34,-1.66 3.33,-0.84 3.33,-1.66 3.34,-0.84 3.33,-1.66 2.5,-1.67 3.33,-0.83 3.34,-1.67 3.33,-1.67 3.33,-0.83 3.34,-1.67 3.33,-1.66 3.33,-1.67 3.34,-0.83 3.33,-1.67 2.5,-1.67 3.33,-1.66 3.34,-1.67 3.33,-0.83 3.33,-1.67 3.34,-1.67 3.33,-1.66 3.33,-1.67 3.34,-1.67 3.33,-1.66 3.33,-1.67 2.5,-1.67 3.34,-1.66 3.33,-1.67 3.33,-1.67 3.34,-1.66 3.33,-1.67 3.33,-1.67 3.34,-1.66 3.33,-1.67 3.33,-1.67 2.5,-1.66 3.34,-1.67 3.33,-1.67 3.33,-1.66 3.34,-1.67 3.33,-1.67 3.33,-1.66 3.34,-1.67 3.33,-1.67 3.33,-1.66 3.34,-1.67 2.5,-1.67 3.33,-2.5 3.33,-1.66 3.34,-1.67 3.33,-1.67 3.33,-1.66 3.34,-1.67 3.33,-1.67 3.33,-1.66 3.34,-2.5 3.33,-1.67 2.5,-1.67 3.33,-1.6599 3.34,-1.67 3.33,-1.67 3.33,-1.66 3.34,-2.5 3.33,-1.67 3.33,-1.67 3.34,-1.66 3.33,-1.67 2.5,-1.67 3.33,-2.5 3.34,-1.66 3.33,-1.67 3.33,-1.67 3.34,-1.66 3.33,-1.67 3.33,-1.67 3.34,-2.5 3.33,-1.66 3.33,-1.67 2.5,-1.67 3.34,-1.66 3.33,-1.67 3.33,-1.67 3.34,-2.5 3.33,-1.66 3.33,-1.67 3.34,-1.67 3.33,-1.66 3.33,-1.67 2.5,-1.67 3.34,-1.66 3.33,-1.67 3.33,-2.5 3.34,-1.67 3.33,-1.66 3.33,-1.67 3.34,-1.67 3.33,-1.66 3.33,-1.67 3.34,-1.67 2.5,-1.66 3.33,-1.67 3.33,-1.67 3.34,-1.66 3.33,-1.67 3.33,-1.67 3.34,-1.66 3.33,-1.67 3.33,-1.67 3.34,-1.66 2.5,-1.67 3.33,-1.67 3.33,-1.66 3.34,-1.67 3.33,-1.67 3.33,-1.66 3.34,-1.67 3.33,-1.67 3.33,-1.66 3.34,-1.67 3.33,-1.67 2.5,-1.66 3.33,-1.67 3.34,-0.83 3.33,-1.67 3.33,-1.67 3.34,-1.66 3.33,-1.67 3.33,-1.67 3.34,-0.83 3.33,-1.67 2.5,-1.66 3.33,-1.67 3.34,-1.67 3.33,-0.83 3.33,-1.67 3.34,-1.66 3.33,-1.67 3.33,-1.67 3.34,-0.83 3.33,-1.67 3.33,-1.66 2.5,-0.84 3.34,-1.66 3.33,-1.67 3.33,-0.83 3.34,-1.67 3.33,-1.67 3.33,-0.83 3.34,-1.67 3.33,-1.66 3.33,-0.84 2.5,-1.66 3.34,-0.84 3.33,-1.66 3.33,-1.67 3.34,-0.83 3.33,-1.67 3.33,-0.83 3.34,-1.67 3.33,-0.83 3.33,-1.67 3.34,-0.83 2.5,-1.67 3.33,-0.83 3.33,-1.67 3.34,-0.83 3.33,-0.84 3.33,-1.66 3.34,-0.84 3.33,-1.66 3.33,-0.84 3.34,-0.83 2.5,-1.67 3.33,-0.83 3.33,-0.83 3.34,-1.67 3.33,-0.83 3.33,-0.84 3.34,-1.66 3.33,-0.84 3.33,-0.83 3.34,-0.83 3.33,-1.67 2.5,-0.83 3.33,-0.84 3.34,-0.83 3.33,-1.67 3.33,-0.83 3.34,-0.83 3.33,-0.84 3.33,-0.83 3.34,-0.83 3.33,-0.84 2.5,-1.66 3.33,-0.84 3.34,-0.83 3.33,-0.83 3.33,-0.84 3.34,-0.83 3.33,-0.83 3.33,-0.84 3.34,-0.83 3.33,-0.83 3.33,-0.84 2.5,-0.83 3.34,-0.83 3.33,-0.84 3.33,-0.83 3.34,-0.83 3.33,-0.84 3.33,-0.83 3.34,-0.83 h 3.33 l 3.33,-0.84 2.5,-0.83 3.34,-0.83 3.33,-0.84 3.33,-0.83 3.34,-0.83 h 3.33 l 3.33,-0.84 3.34,-0.83 3.33,-0.83 3.33,-0.84 h 3.34 l 2.5,-0.83 3.33,-0.83 h 3.33 l 3.34,-0.84 3.33,-0.83 3.33,-0.83 h 3.34 l 3.33,-0.84 3.33,-0.83 h 3.34 l 2.5,-0.83 3.33,-0.84 h 3.33 l 3.34,-0.83 h 3.33 l 3.33,-0.83 h 3.34 l 3.33,-0.84 3.33,-0.83 h 3.34 l 3.33,-0.83 h 2.5 l 3.33,-0.84 h 3.34 l 3.33,-0.83 h 3.33 l 3.34,-0.83 h 3.33 l 3.33,-0.84 h 6.67 l 3.33,-0.83 h 2.5 l 3.34,-0.83 h 6.66 l 3.34,-0.84 h 3.33 l 3.33,-0.83 h 6.67 l 3.33,-0.83 h 5.84 l 3.33,-0.84 h 10 l 3.33,-0.83 h 10 l 3.34,-0.83 h 12.5 l 3.33,-0.84 h 13.33 l 3.34,-0.83 h 25.83 l 3.33,-0.83 h 77.5 l 3.34,0.83 h 29.16 l 3.34,0.83 h 20 l 3.33,0.84 h 15.83 l 3.34,0.83 h 13.33 l 3.33,0.83 h 9.17 l 3.33,0.84 10,-10e-5 3.3401,-10e-5 3.33,0.83 h 10 l 2.5,0.83 h 10 l 3.33,0.84 h 6.67 l 3.33,0.83 h 9.17 l 3.33,0.83 h 6.67 l 3.33,0.84 h 10 l 3.34,0.83 h 6.66 l 2.5,0.83 h 6.67 l 3.33,0.84 h 6.67 l 3.33,0.83 h 6.67 l 3.33,0.83 h 5.84 l 3.33,0.84 h 10 l 3.33,0.83 h 6.67 l 3.33,0.83 h 3.34 l 2.5,0.84 h 6.66 l 3.34,0.83 h 6.66 l 3.34,0.83 h 6.66 l 3.34,0.84 h 5.83 l 3.33,0.83 h 6.67 l 3.33,0.83 h 6.67 l 3.33,0.84 h 6.67 l 2.5,0.83 h 6.67 l 3.33,0.83 h 3.33 l 3.34,0.84 h 6.66 l 3.34,0.83 h 5.83 l 3.33,0.83 h 6.67 l 3.33,0.84 h 6.67 l 3.33,0.83 h 6.67 l 3.33,0.83 h 5.84 l 3.33,0.84 h 3.33 l 3.34,0.83 h 6.66 l 3.34,0.83 h 6.66 l 3.34,0.84 h 5.83 l 3.33,0.83 h 6.67 l 3.33,0.83 h 6.67 l 3.33,0.84 h 5.84 l 3.33,0.83 h 6.67 l 3.33,0.83 h 6.67 l 3.33,0.84 h 10 l 2.5,0.83 h 6.67 l 3.33,0.83 h 6.67 l 3.33,0.84 h 6.67 l 3.33,0.83 h 9.17 l 3.33,0.83 h 6.67 l 3.33,0.84 h 6.67 l 3.33,0.83 h 9.17 l 3.33,0.83 h 10 l 3.33,0.84 h 6.67 l 3.33,0.83 h 9.17 l 3.33,0.83 h 10 l 3.34,0.84 h 10 l 2.5,0.83 h 10 l 3.33,0.83 h 10 l 3.33,0.84 h 9.17 l 3.33,0.83 h 13.34 l 3.33,0.83 h 12.5 l 3.33,0.84 h 10 l 3.34,0.83 h 15.83 l 3.33,0.83 h 13.34 l 3.33,0.84 h 15.83 l 3.34,0.83 h 16.66 l 3.34,0.83 h 19.16 l 3.34,0.84 h 20 l 2.5,0.83 h 23.33 l 3.33,0.83 h 25.84 l 3.33,0.84 h 35.83 l 3.34,0.83 h 41.66 l 3.34,0.83 h 78.33 l 3.33,0.84 h 13.34"
         style="fill:none;stroke:#00ff66;stroke-width:7.5;stroke-linecap:butt;stroke-linejoin:round;stroke-miterlimit:10;stroke-dasharray:none;stroke-dashoffset:0;stroke-opacity:1"
         id="path368"
         inkscape:connector-curvature="0"
         sodipodi:nodetypes="cccccccccccccccccccccccccccccccccccccccccccccccccccccccccccccccccccccccccccccccccccccccccccccccccccccccccccccccccccccccccccccccccccccccccccccccccccccccccccccccccccccccccccccccccccccccccccccccccccccccccccccccccccccccccccccccccccccccccccccccccccccccccccccccccccccccccccccccccccccccccccccccccccccccccccccccccccccccccccccccccccccccccccccccccccccccccccccccccccccccccccccccccccccccccccccccccccccccccccccccccccccccccccccccccccccccccccccccccccccccccccccccccccccccccccccccccccccccccccccccccccccccccccccccccccccccccccccccccccccccccccccccccccccccccccccccccccccccccccccccccccccccccccccccccccccccccccccccccccccccccccccccccccccccccccccccccccccccccccccccccccccccccccccccccccccccccccccccccccccccccccccccccccccccccccccccccccccccccccccccccccccccccccccccccccccccccccccccccccccc" /></g><text
       transform="matrix(1,0,0,-1,215.75,10.667)"
       style="font-style:normal;font-variant:normal;font-weight:normal;font-stretch:normal;font-size:10px;font-family:'CMU Sans Serif';-inkscape-font-specification:'CMU Sans Serif';writing-mode:lr-tb;fill:#000000;fill-opacity:1;fill-rule:nonzero;stroke:none"
       id="text3180"><tspan
         x="0"
         y="0"
         id="tspan3178"
         style="font-style:italic;font-variant:normal;font-weight:500;font-stretch:normal;font-size:14px;font-family:'CMU Serif';-inkscape-font-specification:'CMU Serif Medium Italic'">t</tspan></text>
<g
       id="g3182"
       transform="scale(0.1)"><path
         d="m 2950.83,2434.17 h 800 v 430 h -800 z"
         style="fill:#ffffff;fill-opacity:1;fill-rule:evenodd;stroke:none"
         id="path3184"
         inkscape:connector-curvature="0" /></g><g
       id="g3186"
       transform="scale(0.1)"><g
         id="g3188"
         transform="translate(2950.8301,2434.1699)"><path
           d="M 0,0 V 430 H 800 V 0 H 0"
           style="fill:none;stroke:#ffffff;stroke-width:5;stroke-linecap:butt;stroke-linejoin:round;stroke-miterlimit:10;stroke-dasharray:none;stroke-opacity:1"
           id="path3190"
           inkscape:connector-curvature="0" /></g></g><g
       id="g3192"
       transform="scale(0.1)"><g
         id="g3194"
         transform="translate(2950.8301,2864.1699)"><path
           d="M 0,0 H 800"
           style="fill:none;stroke:#000000;stroke-width:5;stroke-linecap:butt;stroke-linejoin:round;stroke-miterlimit:10;stroke-dasharray:none;stroke-opacity:1"
           id="path3196"
           inkscape:connector-curvature="0" /></g></g><g
       id="g3198"
       transform="scale(0.1)"><g
         id="g3200"
         transform="translate(2950.8301,2434.1699)"><path
           d="M 0,0 H 811.92098 V 430"
           style="fill:none;stroke:#000000;stroke-width:5;stroke-linecap:butt;stroke-linejoin:round;stroke-miterlimit:10;stroke-dasharray:none;stroke-opacity:1"
           id="path3202"
           inkscape:connector-curvature="0"
           sodipodi:nodetypes="ccc" /></g></g><g
       id="g3204"
       transform="scale(0.1)"><g
         id="g3206"
         transform="translate(2950.8301,2434.1699)"><path
           d="M 0,0 V 430"
           style="fill:none;stroke:#000000;stroke-width:5;stroke-linecap:butt;stroke-linejoin:round;stroke-miterlimit:10;stroke-dasharray:none;stroke-opacity:1"
           id="path3208"
           inkscape:connector-curvature="0" /></g></g><g
       id="g3210"
       transform="scale(0.1)"><g
         id="g3212"
         transform="translate(2950.8301,2434.1699)"><path
           d="M 0,0 H 800"
           style="fill:none;stroke:#000000;stroke-width:5;stroke-linecap:butt;stroke-linejoin:round;stroke-miterlimit:10;stroke-dasharray:none;stroke-opacity:1"
           id="path3214"
           inkscape:connector-curvature="0" /></g></g><g
       id="g3216"
       transform="scale(0.1)"><g
         id="g3218"
         transform="translate(2950.8301,2434.1699)"><path
           d="M 0,0 V 430 H 811.92098"
           style="fill:none;stroke:#000000;stroke-width:5;stroke-linecap:butt;stroke-linejoin:round;stroke-miterlimit:10;stroke-dasharray:none;stroke-opacity:1"
           id="path3220"
           inkscape:connector-curvature="0"
           sodipodi:nodetypes="ccc" /></g></g><g
       id="g3222"
       transform="scale(0.1)"><g
         id="g3224"
         transform="translate(2950.8301,2434.1699)"><path
           d="M 11.920979,0 H 811.92098 v 430"
           style="fill:none;stroke:#000000;stroke-width:5;stroke-linecap:butt;stroke-linejoin:round;stroke-miterlimit:10;stroke-dasharray:none;stroke-opacity:1"
           id="path3226"
           inkscape:connector-curvature="0"
           sodipodi:nodetypes="ccc" /></g></g><g
       id="g3228"
       transform="scale(0.1)"><g
         id="g3230"
         transform="translate(2950.8301,2434.1699)"><path
           d="M 0,0 V 430"
           style="fill:none;stroke:#000000;stroke-width:5;stroke-linecap:butt;stroke-linejoin:round;stroke-miterlimit:10;stroke-dasharray:none;stroke-opacity:1"
           id="path3232"
           inkscape:connector-curvature="0" /></g></g><text
       transform="matrix(1,0,0,-1,333.667,274.917)"
       style="font-style:normal;font-variant:normal;font-weight:normal;font-stretch:normal;font-size:10px;font-family:'CMU Sans Serif';-inkscape-font-specification:'CMU Sans Serif';writing-mode:lr-tb;fill:#000000;fill-opacity:1;fill-rule:nonzero;stroke:none"
       id="text3236"><tspan
         x="0 5.5599999 8.8900003 11.67"
         y="0"
         sodipodi:role="line"
         id="tspan3234"
         style="font-style:italic;font-variant:normal;font-weight:500;font-stretch:normal;font-family:'CMU Serif';-inkscape-font-specification:'CMU Serif Medium Italic'">h(t)</tspan></text>
<g
       id="g3238"
       transform="scale(0.1)"
       style="stroke-width:7.5;stroke-miterlimit:4;stroke-dasharray:none"><g
         id="g3240"
         clip-path="url(#clipPath3244)"
         style="stroke-width:7.5;stroke-miterlimit:4;stroke-dasharray:none"><g
           id="g3246"
           transform="translate(3010,2784.1699)"
           style="stroke-width:7.5;stroke-miterlimit:4;stroke-dasharray:none"><path
             d="M 0,0 H 295.83"
             style="fill:none;stroke:#0000ff;stroke-width:7.5;stroke-linecap:butt;stroke-linejoin:round;stroke-miterlimit:4;stroke-dasharray:none;stroke-opacity:1"
             id="path3248"
             inkscape:connector-curvature="0" /></g></g></g><g
       id="g3250"
       transform="scale(0.1)"
       style="stroke-width:7.5;stroke-miterlimit:4;stroke-dasharray:none"><g
         id="g3252"
         clip-path="url(#clipPath3256)"
         style="stroke-width:7.5;stroke-miterlimit:4;stroke-dasharray:none"><g
           id="g3258"
           transform="translate(3010,2653.3301)"
           style="stroke-width:7.5;stroke-miterlimit:4;stroke-dasharray:none"><path
             d="M 0,0 H 295.83"
             style="fill:none;stroke:#ff0000;stroke-width:7.5;stroke-linecap:butt;stroke-linejoin:round;stroke-miterlimit:4;stroke-dasharray:none;stroke-dashoffset:0;stroke-opacity:1"
             id="path3260"
             inkscape:connector-curvature="0" /></g></g></g><text
       transform="matrix(1,0,0,-1,333.667,261.667)"
       style="font-style:normal;font-variant:normal;font-weight:normal;font-stretch:normal;font-size:10px;font-family:'CMU Sans Serif';-inkscape-font-specification:'CMU Sans Serif';writing-mode:lr-tb;fill:#000000;fill-opacity:1;fill-rule:nonzero;stroke:none"
       id="text3264"><tspan
         x="0"
         y="0"
         id="tspan3262"
         style="font-style:italic;font-variant:normal;font-weight:500;font-stretch:normal;font-family:'CMU Serif';-inkscape-font-specification:'CMU Serif Medium Italic'">h'(t)</tspan></text>
<g
       id="g3274"
       transform="scale(0.1)"
       style="stroke-width:7.5;stroke-miterlimit:4;stroke-dasharray:none"><g
         id="g3276"
         clip-path="url(#clipPath3280)"
         style="stroke-width:7.5;stroke-miterlimit:4;stroke-dasharray:none"><g
           id="g3282"
           transform="translate(3010,2518.3301)"
           style="stroke-width:7.5;stroke-miterlimit:4;stroke-dasharray:none"><path
             d="M 0,0 H 295.83"
             style="fill:none;stroke:#00ff66;stroke-width:7.5;stroke-linecap:butt;stroke-linejoin:round;stroke-miterlimit:4;stroke-dasharray:none;stroke-dashoffset:0;stroke-opacity:1"
             id="path3284"
             inkscape:connector-curvature="0" /></g></g></g><text
       transform="matrix(1,0,0,-1,333.667,248.083)"
       style="font-style:normal;font-variant:normal;font-weight:normal;font-stretch:normal;font-size:10px;font-family:'CMU Sans Serif';-inkscape-font-specification:'CMU Sans Serif';writing-mode:lr-tb;fill:#000000;fill-opacity:1;fill-rule:nonzero;stroke:none"
       id="text3288"><tspan
         x="0 5.5599999 8.8900003 11.67 15 20.84"
         y="0"
         sodipodi:role="line"
         id="tspan3286"
         style="font-style:italic;font-variant:normal;font-weight:500;font-stretch:normal;font-family:'CMU Serif';-inkscape-font-specification:'CMU Serif Medium Italic'">h(t)+h'(t)</tspan></text>
</g></svg>