<?xml version="1.0" encoding="UTF-8" standalone="no"?>
<!-- Created with Inkscape (http://www.inkscape.org/) -->

<svg
   xmlns:dc="http://purl.org/dc/elements/1.1/"
   xmlns:cc="http://creativecommons.org/ns#"
   xmlns:rdf="http://www.w3.org/1999/02/22-rdf-syntax-ns#"
   xmlns:svg="http://www.w3.org/2000/svg"
   xmlns="http://www.w3.org/2000/svg"
   xmlns:sodipodi="http://sodipodi.sourceforge.net/DTD/sodipodi-0.dtd"
   xmlns:inkscape="http://www.inkscape.org/namespaces/inkscape"
   version="1.1"
   id="svg2"
   xml:space="preserve"
   width="470.11514"
   height="379.11847"
   viewBox="0 0 470.11514 379.11847"
   sodipodi:docname="non-min-step.svg"
   inkscape:version="0.92.0 r15299"><metadata
     id="metadata8"><rdf:RDF><cc:Work
         rdf:about=""><dc:format>image/svg+xml</dc:format><dc:type
           rdf:resource="http://purl.org/dc/dcmitype/StillImage" /><dc:title></dc:title></cc:Work></rdf:RDF></metadata><defs
     id="defs6"><clipPath
       clipPathUnits="userSpaceOnUse"
       id="clipPath472"><path
         d="M 545.832,2914.17 H 3800.83 V 345.832 H 545.832 Z"
         id="path470"
         inkscape:connector-curvature="0" /></clipPath></defs><sodipodi:namedview
     pagecolor="#ffffff"
     bordercolor="#666666"
     borderopacity="1"
     objecttolerance="10"
     gridtolerance="10"
     guidetolerance="10"
     inkscape:pageopacity="0"
     inkscape:pageshadow="2"
     inkscape:window-width="751"
     inkscape:window-height="480"
     id="namedview4"
     showgrid="false"
     fit-margin-top="0"
     fit-margin-left="0"
     fit-margin-right="0"
     fit-margin-bottom="0"
     inkscape:zoom="0.22348485"
     inkscape:cx="364.59115"
     inkscape:cy="513.86848"
     inkscape:window-x="0"
     inkscape:window-y="0"
     inkscape:window-maximized="0"
     inkscape:current-layer="g10" /><g
     id="g10"
     inkscape:groupmode="layer"
     inkscape:label="A9Rmz2fl4_8znv43_83w"
     transform="matrix(1.3333333,0,0,-1.3333333,-43.408853,393.24999)"><g
       id="g12"
       transform="scale(0.1)"><path
         d="m 545.832,346.668 h 3254.17 v 2567.5 H 545.832 Z"
         style="fill:#ffffff;fill-opacity:1;fill-rule:evenodd;stroke:none"
         id="path14"
         inkscape:connector-curvature="0" /></g><g
       id="g16"
       transform="scale(0.1)"><g
         id="g18"
         transform="translate(545.832,346.668)"><path
           d="M 0,0 V 2567.502 H 3254.168 V 0 H 0"
           style="fill:none;stroke:#ffffff;stroke-width:5;stroke-linecap:butt;stroke-linejoin:round;stroke-miterlimit:10;stroke-dasharray:none;stroke-opacity:1"
           id="path20"
           inkscape:connector-curvature="0" /></g></g><g
       id="g22"
       transform="scale(0.1)"><g
         id="g24"
         transform="translate(545.832,346.668)"><path
           d="M 0,0 V 2567.502"
           style="fill:none;stroke:#000000;stroke-width:3.33299994;stroke-linecap:butt;stroke-linejoin:round;stroke-miterlimit:10;stroke-dasharray:5, 40;stroke-dashoffset:0;stroke-opacity:1"
           id="path26"
           inkscape:connector-curvature="0" /></g></g><g
       id="g28"
       transform="scale(0.1)"><g
         id="g30"
         transform="translate(545.832,2914.1699)"><path
           d="M 0,0 V 0"
           style="fill:none;stroke:#000000;stroke-width:3.33299994;stroke-linecap:butt;stroke-linejoin:round;stroke-miterlimit:10;stroke-dasharray:5, 40;stroke-dashoffset:0;stroke-opacity:1"
           id="path32"
           inkscape:connector-curvature="0" /></g></g><g
       id="g34"
       transform="scale(0.1)"><g
         id="g36"
         transform="translate(1196.67,346.668)"><path
           d="M 0,0 V 2567.502"
           style="fill:none;stroke:#000000;stroke-width:3.33299994;stroke-linecap:butt;stroke-linejoin:round;stroke-miterlimit:10;stroke-dasharray:5, 40;stroke-dashoffset:0;stroke-opacity:1"
           id="path38"
           inkscape:connector-curvature="0" /></g></g><g
       id="g40"
       transform="scale(0.1)"><g
         id="g42"
         transform="translate(1196.67,2914.1699)"><path
           d="M 0,0 V 0"
           style="fill:none;stroke:#000000;stroke-width:3.33299994;stroke-linecap:butt;stroke-linejoin:round;stroke-miterlimit:10;stroke-dasharray:5, 40;stroke-dashoffset:0;stroke-opacity:1"
           id="path44"
           inkscape:connector-curvature="0" /></g></g><g
       id="g46"
       transform="scale(0.1)"><g
         id="g48"
         transform="translate(1847.5,346.668)"><path
           d="M 0,0 V 2567.502"
           style="fill:none;stroke:#000000;stroke-width:3.33299994;stroke-linecap:butt;stroke-linejoin:round;stroke-miterlimit:10;stroke-dasharray:5, 40;stroke-dashoffset:0;stroke-opacity:1"
           id="path50"
           inkscape:connector-curvature="0" /></g></g><g
       id="g52"
       transform="scale(0.1)"><g
         id="g54"
         transform="translate(1847.5,2914.1699)"><path
           d="M 0,0 V 0"
           style="fill:none;stroke:#000000;stroke-width:3.33299994;stroke-linecap:butt;stroke-linejoin:round;stroke-miterlimit:10;stroke-dasharray:5, 40;stroke-dashoffset:0;stroke-opacity:1"
           id="path56"
           inkscape:connector-curvature="0" /></g></g><g
       id="g58"
       transform="scale(0.1)"><g
         id="g60"
         transform="translate(2498.3301,346.668)"><path
           d="M 0,0 V 2567.502"
           style="fill:none;stroke:#000000;stroke-width:3.33299994;stroke-linecap:butt;stroke-linejoin:round;stroke-miterlimit:10;stroke-dasharray:5, 40;stroke-dashoffset:0;stroke-opacity:1"
           id="path62"
           inkscape:connector-curvature="0" /></g></g><g
       id="g64"
       transform="scale(0.1)"><g
         id="g66"
         transform="translate(2498.3301,2914.1699)"><path
           d="M 0,0 V 0"
           style="fill:none;stroke:#000000;stroke-width:3.33299994;stroke-linecap:butt;stroke-linejoin:round;stroke-miterlimit:10;stroke-dasharray:5, 40;stroke-dashoffset:0;stroke-opacity:1"
           id="path68"
           inkscape:connector-curvature="0" /></g></g><g
       id="g70"
       transform="scale(0.1)"><g
         id="g72"
         transform="translate(3149.1699,346.668)"><path
           d="M 0,0 V 2567.502"
           style="fill:none;stroke:#000000;stroke-width:3.33299994;stroke-linecap:butt;stroke-linejoin:round;stroke-miterlimit:10;stroke-dasharray:5, 40;stroke-dashoffset:0;stroke-opacity:1"
           id="path74"
           inkscape:connector-curvature="0" /></g></g><g
       id="g76"
       transform="scale(0.1)"><g
         id="g78"
         transform="translate(3149.1699,2914.1699)"><path
           d="M 0,0 V 0"
           style="fill:none;stroke:#000000;stroke-width:3.33299994;stroke-linecap:butt;stroke-linejoin:round;stroke-miterlimit:10;stroke-dasharray:5, 40;stroke-dashoffset:0;stroke-opacity:1"
           id="path80"
           inkscape:connector-curvature="0" /></g></g><g
       id="g82"
       transform="scale(0.1)"><g
         id="g84"
         transform="translate(3800,346.668)"><path
           d="M 0,0 V 2567.502"
           style="fill:none;stroke:#000000;stroke-width:3.33299994;stroke-linecap:butt;stroke-linejoin:round;stroke-miterlimit:10;stroke-dasharray:5, 40;stroke-dashoffset:0;stroke-opacity:1"
           id="path86"
           inkscape:connector-curvature="0" /></g></g><g
       id="g88"
       transform="scale(0.1)"><g
         id="g90"
         transform="translate(3800,2914.1699)"><path
           d="M 0,0 V 0"
           style="fill:none;stroke:#000000;stroke-width:3.33299994;stroke-linecap:butt;stroke-linejoin:round;stroke-miterlimit:10;stroke-dasharray:5, 40;stroke-dashoffset:0;stroke-opacity:1"
           id="path92"
           inkscape:connector-curvature="0" /></g></g><g
       id="g94"
       transform="scale(0.1)"><g
         id="g96"
         transform="translate(545.832,346.668)"><path
           d="M 0,0 H 3254.168"
           style="fill:none;stroke:#000000;stroke-width:3.33299994;stroke-linecap:butt;stroke-linejoin:round;stroke-miterlimit:10;stroke-dasharray:5, 40;stroke-dashoffset:0;stroke-opacity:1"
           id="path98"
           inkscape:connector-curvature="0" /></g></g><g
       id="g100"
       transform="scale(0.1)"><g
         id="g102"
         transform="translate(3800,346.668)"><path
           d="M 0,0 V 0"
           style="fill:none;stroke:#000000;stroke-width:3.33299994;stroke-linecap:butt;stroke-linejoin:round;stroke-miterlimit:10;stroke-dasharray:5, 40;stroke-dashoffset:0;stroke-opacity:1"
           id="path104"
           inkscape:connector-curvature="0" /></g></g><g
       id="g106"
       transform="scale(0.1)"><g
         id="g108"
         transform="translate(545.832,714.168)"><path
           d="M 0,0 H 3254.168"
           style="fill:none;stroke:#000000;stroke-width:3.33299994;stroke-linecap:butt;stroke-linejoin:round;stroke-miterlimit:10;stroke-dasharray:5, 40;stroke-dashoffset:0;stroke-opacity:1"
           id="path110"
           inkscape:connector-curvature="0" /></g></g><g
       id="g112"
       transform="scale(0.1)"><g
         id="g114"
         transform="translate(3800,714.168)"><path
           d="M 0,0 V 0"
           style="fill:none;stroke:#000000;stroke-width:3.33299994;stroke-linecap:butt;stroke-linejoin:round;stroke-miterlimit:10;stroke-dasharray:5, 40;stroke-dashoffset:0;stroke-opacity:1"
           id="path116"
           inkscape:connector-curvature="0" /></g></g><g
       id="g118"
       transform="scale(0.1)"><g
         id="g120"
         transform="translate(545.832,1080.83)"><path
           d="M 0,0 H 3254.168"
           style="fill:none;stroke:#000000;stroke-width:3.33299994;stroke-linecap:butt;stroke-linejoin:round;stroke-miterlimit:10;stroke-dasharray:5, 40;stroke-dashoffset:0;stroke-opacity:1"
           id="path122"
           inkscape:connector-curvature="0" /></g></g><g
       id="g124"
       transform="scale(0.1)"><g
         id="g126"
         transform="translate(3800,1080.83)"><path
           d="M 0,0 V 0"
           style="fill:none;stroke:#000000;stroke-width:3.33299994;stroke-linecap:butt;stroke-linejoin:round;stroke-miterlimit:10;stroke-dasharray:5, 40;stroke-dashoffset:0;stroke-opacity:1"
           id="path128"
           inkscape:connector-curvature="0" /></g></g><g
       id="g130"
       transform="scale(0.1)"><g
         id="g132"
         transform="translate(545.832,1447.5)"><path
           d="M 0,0 H 3254.168"
           style="fill:none;stroke:#000000;stroke-width:3.33299994;stroke-linecap:butt;stroke-linejoin:round;stroke-miterlimit:10;stroke-dasharray:5, 40;stroke-dashoffset:0;stroke-opacity:1"
           id="path134"
           inkscape:connector-curvature="0" /></g></g><g
       id="g136"
       transform="scale(0.1)"><g
         id="g138"
         transform="translate(3800,1447.5)"><path
           d="M 0,0 V 0"
           style="fill:none;stroke:#000000;stroke-width:3.33299994;stroke-linecap:butt;stroke-linejoin:round;stroke-miterlimit:10;stroke-dasharray:5, 40;stroke-dashoffset:0;stroke-opacity:1"
           id="path140"
           inkscape:connector-curvature="0" /></g></g><g
       id="g142"
       transform="scale(0.1)"><g
         id="g144"
         transform="translate(545.832,1814.17)"><path
           d="M 0,0 H 3254.168"
           style="fill:none;stroke:#000000;stroke-width:3.33299994;stroke-linecap:butt;stroke-linejoin:round;stroke-miterlimit:10;stroke-dasharray:5, 40;stroke-dashoffset:0;stroke-opacity:1"
           id="path146"
           inkscape:connector-curvature="0" /></g></g><g
       id="g148"
       transform="scale(0.1)"><g
         id="g150"
         transform="translate(3800,1814.17)"><path
           d="M 0,0 V 0"
           style="fill:none;stroke:#000000;stroke-width:3.33299994;stroke-linecap:butt;stroke-linejoin:round;stroke-miterlimit:10;stroke-dasharray:5, 40;stroke-dashoffset:0;stroke-opacity:1"
           id="path152"
           inkscape:connector-curvature="0" /></g></g><g
       id="g154"
       transform="scale(0.1)"><g
         id="g156"
         transform="translate(545.832,2180.8301)"><path
           d="M 0,0 H 3254.168"
           style="fill:none;stroke:#000000;stroke-width:3.33299994;stroke-linecap:butt;stroke-linejoin:round;stroke-miterlimit:10;stroke-dasharray:5, 40;stroke-dashoffset:0;stroke-opacity:1"
           id="path158"
           inkscape:connector-curvature="0" /></g></g><g
       id="g160"
       transform="scale(0.1)"><g
         id="g162"
         transform="translate(3800,2180.8301)"><path
           d="M 0,0 V 0"
           style="fill:none;stroke:#000000;stroke-width:3.33299994;stroke-linecap:butt;stroke-linejoin:round;stroke-miterlimit:10;stroke-dasharray:5, 40;stroke-dashoffset:0;stroke-opacity:1"
           id="path164"
           inkscape:connector-curvature="0" /></g></g><g
       id="g166"
       transform="scale(0.1)"><g
         id="g168"
         transform="translate(545.832,2547.5)"><path
           d="M 0,0 H 3254.168"
           style="fill:none;stroke:#000000;stroke-width:3.33299994;stroke-linecap:butt;stroke-linejoin:round;stroke-miterlimit:10;stroke-dasharray:5, 40;stroke-dashoffset:0;stroke-opacity:1"
           id="path170"
           inkscape:connector-curvature="0" /></g></g><g
       id="g172"
       transform="scale(0.1)"><g
         id="g174"
         transform="translate(3800,2547.5)"><path
           d="M 0,0 V 0"
           style="fill:none;stroke:#000000;stroke-width:3.33299994;stroke-linecap:butt;stroke-linejoin:round;stroke-miterlimit:10;stroke-dasharray:5, 40;stroke-dashoffset:0;stroke-opacity:1"
           id="path176"
           inkscape:connector-curvature="0" /></g></g><g
       id="g178"
       transform="scale(0.1)"><g
         id="g180"
         transform="translate(545.832,2914.1699)"><path
           d="M 0,0 H 3254.168"
           style="fill:none;stroke:#000000;stroke-width:3.33299994;stroke-linecap:butt;stroke-linejoin:round;stroke-miterlimit:10;stroke-dasharray:5, 40;stroke-dashoffset:0;stroke-opacity:1"
           id="path182"
           inkscape:connector-curvature="0" /></g></g><g
       id="g184"
       transform="scale(0.1)"><g
         id="g186"
         transform="translate(3800,2914.1699)"><path
           d="M 0,0 V 0"
           style="fill:none;stroke:#000000;stroke-width:3.33299994;stroke-linecap:butt;stroke-linejoin:round;stroke-miterlimit:10;stroke-dasharray:5, 40;stroke-dashoffset:0;stroke-opacity:1"
           id="path188"
           inkscape:connector-curvature="0" /></g></g><g
       id="g190"
       transform="scale(0.1)"><g
         id="g192"
         transform="translate(545.832,2914.1699)"><path
           d="M 0,0 H 3254.168"
           style="fill:none;stroke:#000000;stroke-width:5;stroke-linecap:butt;stroke-linejoin:round;stroke-miterlimit:10;stroke-dasharray:none;stroke-opacity:1"
           id="path194"
           inkscape:connector-curvature="0" /></g></g><g
       id="g196"
       transform="scale(0.1)"><g
         id="g198"
         transform="translate(545.832,346.668)"><path
           d="M 0,0 H 3254.168 V 2567.502"
           style="fill:none;stroke:#000000;stroke-width:5;stroke-linecap:butt;stroke-linejoin:round;stroke-miterlimit:10;stroke-dasharray:none;stroke-opacity:1"
           id="path200"
           inkscape:connector-curvature="0" /></g></g><g
       id="g202"
       transform="scale(0.1)"><g
         id="g204"
         transform="translate(545.832,346.668)"><path
           d="M 0,0 V 2567.502"
           style="fill:none;stroke:#000000;stroke-width:5;stroke-linecap:butt;stroke-linejoin:round;stroke-miterlimit:10;stroke-dasharray:none;stroke-opacity:1"
           id="path206"
           inkscape:connector-curvature="0" /></g></g><g
       id="g208"
       transform="scale(0.1)"><g
         id="g210"
         transform="translate(545.832,346.668)"><path
           d="M 0,0 H 3254.168"
           style="fill:none;stroke:#000000;stroke-width:5;stroke-linecap:butt;stroke-linejoin:round;stroke-miterlimit:10;stroke-dasharray:none;stroke-opacity:1"
           id="path212"
           inkscape:connector-curvature="0" /></g></g><g
       id="g214"
       transform="scale(0.1)"><g
         id="g216"
         transform="translate(545.832,346.668)"><path
           d="M 0,0 V 2567.502"
           style="fill:none;stroke:#000000;stroke-width:5;stroke-linecap:butt;stroke-linejoin:round;stroke-miterlimit:10;stroke-dasharray:none;stroke-opacity:1"
           id="path218"
           inkscape:connector-curvature="0" /></g></g><g
       id="g220"
       transform="scale(0.1)"><g
         id="g222"
         transform="translate(545.832,346.668)"><path
           d="M 0,0 V 33.332"
           style="fill:none;stroke:#000000;stroke-width:5;stroke-linecap:butt;stroke-linejoin:round;stroke-miterlimit:10;stroke-dasharray:none;stroke-opacity:1"
           id="path224"
           inkscape:connector-curvature="0" /></g></g><g
       id="g226"
       transform="scale(0.1)"><g
         id="g228"
         transform="translate(545.832,2914.1699)"><path
           d="M 0,0 V -32.5"
           style="fill:none;stroke:#000000;stroke-width:5;stroke-linecap:butt;stroke-linejoin:round;stroke-miterlimit:10;stroke-dasharray:none;stroke-opacity:1"
           id="path230"
           inkscape:connector-curvature="0" /></g></g><text
       transform="matrix(1,0,0,-1,51.833,22.583)"
       style="font-variant:normal;font-weight:normal;font-size:10px;font-family:Helvetica;-inkscape-font-specification:Helvetica;writing-mode:lr-tb;fill:#000000;fill-opacity:1;fill-rule:nonzero;stroke:none"
       id="text234"><tspan
         x="0"
         y="0"
         id="tspan232">0</tspan></text>
<g
       id="g236"
       transform="scale(0.1)"><g
         id="g238"
         transform="translate(1196.67,346.668)"><path
           d="M 0,0 V 33.332"
           style="fill:none;stroke:#000000;stroke-width:5;stroke-linecap:butt;stroke-linejoin:round;stroke-miterlimit:10;stroke-dasharray:none;stroke-opacity:1"
           id="path240"
           inkscape:connector-curvature="0" /></g></g><g
       id="g242"
       transform="scale(0.1)"><g
         id="g244"
         transform="translate(1196.67,2914.1699)"><path
           d="M 0,0 V -32.5"
           style="fill:none;stroke:#000000;stroke-width:5;stroke-linecap:butt;stroke-linejoin:round;stroke-miterlimit:10;stroke-dasharray:none;stroke-opacity:1"
           id="path246"
           inkscape:connector-curvature="0" /></g></g><text
       transform="matrix(1,0,0,-1,116.917,22.583)"
       style="font-variant:normal;font-weight:normal;font-size:10px;font-family:Helvetica;-inkscape-font-specification:Helvetica;writing-mode:lr-tb;fill:#000000;fill-opacity:1;fill-rule:nonzero;stroke:none"
       id="text250"><tspan
         x="0"
         y="0"
         id="tspan248">2</tspan></text>
<g
       id="g252"
       transform="scale(0.1)"><g
         id="g254"
         transform="translate(1847.5,346.668)"><path
           d="M 0,0 V 33.332"
           style="fill:none;stroke:#000000;stroke-width:5;stroke-linecap:butt;stroke-linejoin:round;stroke-miterlimit:10;stroke-dasharray:none;stroke-opacity:1"
           id="path256"
           inkscape:connector-curvature="0" /></g></g><g
       id="g258"
       transform="scale(0.1)"><g
         id="g260"
         transform="translate(1847.5,2914.1699)"><path
           d="M 0,0 V -32.5"
           style="fill:none;stroke:#000000;stroke-width:5;stroke-linecap:butt;stroke-linejoin:round;stroke-miterlimit:10;stroke-dasharray:none;stroke-opacity:1"
           id="path262"
           inkscape:connector-curvature="0" /></g></g><text
       transform="matrix(1,0,0,-1,182,22.583)"
       style="font-variant:normal;font-weight:normal;font-size:10px;font-family:Helvetica;-inkscape-font-specification:Helvetica;writing-mode:lr-tb;fill:#000000;fill-opacity:1;fill-rule:nonzero;stroke:none"
       id="text266"><tspan
         x="0"
         y="0"
         id="tspan264">4</tspan></text>
<g
       id="g268"
       transform="scale(0.1)"><g
         id="g270"
         transform="translate(2498.3301,346.668)"><path
           d="M 0,0 V 33.332"
           style="fill:none;stroke:#000000;stroke-width:5;stroke-linecap:butt;stroke-linejoin:round;stroke-miterlimit:10;stroke-dasharray:none;stroke-opacity:1"
           id="path272"
           inkscape:connector-curvature="0" /></g></g><g
       id="g274"
       transform="scale(0.1)"><g
         id="g276"
         transform="translate(2498.3301,2914.1699)"><path
           d="M 0,0 V -32.5"
           style="fill:none;stroke:#000000;stroke-width:5;stroke-linecap:butt;stroke-linejoin:round;stroke-miterlimit:10;stroke-dasharray:none;stroke-opacity:1"
           id="path278"
           inkscape:connector-curvature="0" /></g></g><text
       transform="matrix(1,0,0,-1,247.083,22.583)"
       style="font-variant:normal;font-weight:normal;font-size:10px;font-family:Helvetica;-inkscape-font-specification:Helvetica;writing-mode:lr-tb;fill:#000000;fill-opacity:1;fill-rule:nonzero;stroke:none"
       id="text282"><tspan
         x="0"
         y="0"
         id="tspan280">6</tspan></text>
<g
       id="g284"
       transform="scale(0.1)"><g
         id="g286"
         transform="translate(3149.1699,346.668)"><path
           d="M 0,0 V 33.332"
           style="fill:none;stroke:#000000;stroke-width:5;stroke-linecap:butt;stroke-linejoin:round;stroke-miterlimit:10;stroke-dasharray:none;stroke-opacity:1"
           id="path288"
           inkscape:connector-curvature="0" /></g></g><g
       id="g290"
       transform="scale(0.1)"><g
         id="g292"
         transform="translate(3149.1699,2914.1699)"><path
           d="M 0,0 V -32.5"
           style="fill:none;stroke:#000000;stroke-width:5;stroke-linecap:butt;stroke-linejoin:round;stroke-miterlimit:10;stroke-dasharray:none;stroke-opacity:1"
           id="path294"
           inkscape:connector-curvature="0" /></g></g><text
       transform="matrix(1,0,0,-1,312.167,22.583)"
       style="font-variant:normal;font-weight:normal;font-size:10px;font-family:Helvetica;-inkscape-font-specification:Helvetica;writing-mode:lr-tb;fill:#000000;fill-opacity:1;fill-rule:nonzero;stroke:none"
       id="text298"><tspan
         x="0"
         y="0"
         id="tspan296">8</tspan></text>
<g
       id="g300"
       transform="scale(0.1)"><g
         id="g302"
         transform="translate(3800,346.668)"><path
           d="M 0,0 V 33.332"
           style="fill:none;stroke:#000000;stroke-width:5;stroke-linecap:butt;stroke-linejoin:round;stroke-miterlimit:10;stroke-dasharray:none;stroke-opacity:1"
           id="path304"
           inkscape:connector-curvature="0" /></g></g><g
       id="g306"
       transform="scale(0.1)"><g
         id="g308"
         transform="translate(3800,2914.1699)"><path
           d="M 0,0 V -32.5"
           style="fill:none;stroke:#000000;stroke-width:5;stroke-linecap:butt;stroke-linejoin:round;stroke-miterlimit:10;stroke-dasharray:none;stroke-opacity:1"
           id="path310"
           inkscape:connector-curvature="0" /></g></g><text
       transform="matrix(1,0,0,-1,374.5,22.583)"
       style="font-variant:normal;font-weight:normal;font-size:10px;font-family:Helvetica;-inkscape-font-specification:Helvetica;writing-mode:lr-tb;fill:#000000;fill-opacity:1;fill-rule:nonzero;stroke:none"
       id="text314"><tspan
         x="0 5.5599999"
         y="0"
         sodipodi:role="line"
         id="tspan312">10</tspan></text>
<g
       id="g316"
       transform="scale(0.1)"><g
         id="g318"
         transform="translate(545.832,346.668)"><path
           d="M 0,0 H 32.5"
           style="fill:none;stroke:#000000;stroke-width:5;stroke-linecap:butt;stroke-linejoin:round;stroke-miterlimit:10;stroke-dasharray:none;stroke-opacity:1"
           id="path320"
           inkscape:connector-curvature="0" /></g></g><g
       id="g322"
       transform="scale(0.1)"><g
         id="g324"
         transform="translate(3800,346.668)"><path
           d="M 0,0 H -33.33"
           style="fill:none;stroke:#000000;stroke-width:5;stroke-linecap:butt;stroke-linejoin:round;stroke-miterlimit:10;stroke-dasharray:none;stroke-opacity:1"
           id="path326"
           inkscape:connector-curvature="0" /></g></g><g
       id="g328"
       transform="scale(0.1)"><g
         id="g330"
         transform="translate(545.832,714.168)"><path
           d="M 0,0 H 32.5"
           style="fill:none;stroke:#000000;stroke-width:5;stroke-linecap:butt;stroke-linejoin:round;stroke-miterlimit:10;stroke-dasharray:none;stroke-opacity:1"
           id="path332"
           inkscape:connector-curvature="0" /></g></g><text
       transform="matrix(1,0,0,-1,32,31)"
       style="font-variant:normal;font-weight:normal;font-size:10px;font-family:Helvetica;-inkscape-font-specification:Helvetica;writing-mode:lr-tb;fill:#000000;fill-opacity:1;fill-rule:nonzero;stroke:none"
       id="text336"><tspan
         x="0"
         y="0"
         id="tspan334">−</tspan></text>
<text
       transform="matrix(1,0,0,-1,37.84,31)"
       style="font-variant:normal;font-weight:normal;font-size:10px;font-family:Helvetica;-inkscape-font-specification:Helvetica;writing-mode:lr-tb;fill:#000000;fill-opacity:1;fill-rule:nonzero;stroke:none"
       id="text340"><tspan
         x="0 5.5599999 8.3400002"
         y="0"
         sodipodi:role="line"
         id="tspan338">0.2</tspan></text>
<g
       id="g342"
       transform="scale(0.1)"><g
         id="g344"
         transform="translate(3800,714.168)"><path
           d="M 0,0 H -33.33"
           style="fill:none;stroke:#000000;stroke-width:5;stroke-linecap:butt;stroke-linejoin:round;stroke-miterlimit:10;stroke-dasharray:none;stroke-opacity:1"
           id="path346"
           inkscape:connector-curvature="0" /></g></g><text
       transform="matrix(1,0,0,-1,46.167,67.75)"
       style="font-variant:normal;font-weight:normal;font-size:10px;font-family:Helvetica;-inkscape-font-specification:Helvetica;writing-mode:lr-tb;fill:#000000;fill-opacity:1;fill-rule:nonzero;stroke:none"
       id="text350"><tspan
         x="0"
         y="0"
         id="tspan348">0</tspan></text>
<g
       id="g352"
       transform="scale(0.1)"><g
         id="g354"
         transform="translate(545.832,1080.83)"><path
           d="M 0,0 H 32.5"
           style="fill:none;stroke:#000000;stroke-width:5;stroke-linecap:butt;stroke-linejoin:round;stroke-miterlimit:10;stroke-dasharray:none;stroke-opacity:1"
           id="path356"
           inkscape:connector-curvature="0" /></g></g><g
       id="g358"
       transform="scale(0.1)"><g
         id="g360"
         transform="translate(3800,1080.83)"><path
           d="M 0,0 H -33.33"
           style="fill:none;stroke:#000000;stroke-width:5;stroke-linecap:butt;stroke-linejoin:round;stroke-miterlimit:10;stroke-dasharray:none;stroke-opacity:1"
           id="path362"
           inkscape:connector-curvature="0" /></g></g><text
       transform="matrix(1,0,0,-1,37.833,104.417)"
       style="font-variant:normal;font-weight:normal;font-size:10px;font-family:Helvetica;-inkscape-font-specification:Helvetica;writing-mode:lr-tb;fill:#000000;fill-opacity:1;fill-rule:nonzero;stroke:none"
       id="text366"><tspan
         x="0 5.5599999 8.3400002"
         y="0"
         sodipodi:role="line"
         id="tspan364">0.2</tspan></text>
<g
       id="g368"
       transform="scale(0.1)"><g
         id="g370"
         transform="translate(545.832,1447.5)"><path
           d="M 0,0 H 32.5"
           style="fill:none;stroke:#000000;stroke-width:5;stroke-linecap:butt;stroke-linejoin:round;stroke-miterlimit:10;stroke-dasharray:none;stroke-opacity:1"
           id="path372"
           inkscape:connector-curvature="0" /></g></g><g
       id="g374"
       transform="scale(0.1)"><g
         id="g376"
         transform="translate(3800,1447.5)"><path
           d="M 0,0 H -33.33"
           style="fill:none;stroke:#000000;stroke-width:5;stroke-linecap:butt;stroke-linejoin:round;stroke-miterlimit:10;stroke-dasharray:none;stroke-opacity:1"
           id="path378"
           inkscape:connector-curvature="0" /></g></g><text
       transform="matrix(1,0,0,-1,37.833,141.083)"
       style="font-variant:normal;font-weight:normal;font-size:10px;font-family:Helvetica;-inkscape-font-specification:Helvetica;writing-mode:lr-tb;fill:#000000;fill-opacity:1;fill-rule:nonzero;stroke:none"
       id="text382"><tspan
         x="0 5.5599999 8.3400002"
         y="0"
         sodipodi:role="line"
         id="tspan380">0.4</tspan></text>
<g
       id="g384"
       transform="scale(0.1)"><g
         id="g386"
         transform="translate(545.832,1814.17)"><path
           d="M 0,0 H 32.5"
           style="fill:none;stroke:#000000;stroke-width:5;stroke-linecap:butt;stroke-linejoin:round;stroke-miterlimit:10;stroke-dasharray:none;stroke-opacity:1"
           id="path388"
           inkscape:connector-curvature="0" /></g></g><g
       id="g390"
       transform="scale(0.1)"><g
         id="g392"
         transform="translate(3800,1814.17)"><path
           d="M 0,0 H -33.33"
           style="fill:none;stroke:#000000;stroke-width:5;stroke-linecap:butt;stroke-linejoin:round;stroke-miterlimit:10;stroke-dasharray:none;stroke-opacity:1"
           id="path394"
           inkscape:connector-curvature="0" /></g></g><text
       transform="matrix(1,0,0,-1,37.833,177.75)"
       style="font-variant:normal;font-weight:normal;font-size:10px;font-family:Helvetica;-inkscape-font-specification:Helvetica;writing-mode:lr-tb;fill:#000000;fill-opacity:1;fill-rule:nonzero;stroke:none"
       id="text398"><tspan
         x="0 5.5599999 8.3400002"
         y="0"
         sodipodi:role="line"
         id="tspan396">0.6</tspan></text>
<g
       id="g400"
       transform="scale(0.1)"><g
         id="g402"
         transform="translate(545.832,2180.8301)"><path
           d="M 0,0 H 32.5"
           style="fill:none;stroke:#000000;stroke-width:5;stroke-linecap:butt;stroke-linejoin:round;stroke-miterlimit:10;stroke-dasharray:none;stroke-opacity:1"
           id="path404"
           inkscape:connector-curvature="0" /></g></g><g
       id="g406"
       transform="scale(0.1)"><g
         id="g408"
         transform="translate(3800,2180.8301)"><path
           d="M 0,0 H -33.33"
           style="fill:none;stroke:#000000;stroke-width:5;stroke-linecap:butt;stroke-linejoin:round;stroke-miterlimit:10;stroke-dasharray:none;stroke-opacity:1"
           id="path410"
           inkscape:connector-curvature="0" /></g></g><text
       transform="matrix(1,0,0,-1,37.833,214.417)"
       style="font-variant:normal;font-weight:normal;font-size:10px;font-family:Helvetica;-inkscape-font-specification:Helvetica;writing-mode:lr-tb;fill:#000000;fill-opacity:1;fill-rule:nonzero;stroke:none"
       id="text414"><tspan
         x="0 5.5599999 8.3400002"
         y="0"
         sodipodi:role="line"
         id="tspan412">0.8</tspan></text>
<g
       id="g416"
       transform="scale(0.1)"><g
         id="g418"
         transform="translate(545.832,2547.5)"><path
           d="M 0,0 H 32.5"
           style="fill:none;stroke:#000000;stroke-width:5;stroke-linecap:butt;stroke-linejoin:round;stroke-miterlimit:10;stroke-dasharray:none;stroke-opacity:1"
           id="path420"
           inkscape:connector-curvature="0" /></g></g><g
       id="g422"
       transform="scale(0.1)"><g
         id="g424"
         transform="translate(3800,2547.5)"><path
           d="M 0,0 H -33.33"
           style="fill:none;stroke:#000000;stroke-width:5;stroke-linecap:butt;stroke-linejoin:round;stroke-miterlimit:10;stroke-dasharray:none;stroke-opacity:1"
           id="path426"
           inkscape:connector-curvature="0" /></g></g><text
       transform="matrix(1,0,0,-1,46.167,251.083)"
       style="font-variant:normal;font-weight:normal;font-size:10px;font-family:Helvetica;-inkscape-font-specification:Helvetica;writing-mode:lr-tb;fill:#000000;fill-opacity:1;fill-rule:nonzero;stroke:none"
       id="text430"><tspan
         x="0"
         y="0"
         id="tspan428">1</tspan></text>
<g
       id="g432"
       transform="scale(0.1)"><g
         id="g434"
         transform="translate(545.832,2914.1699)"><path
           d="M 0,0 H 32.5"
           style="fill:none;stroke:#000000;stroke-width:5;stroke-linecap:butt;stroke-linejoin:round;stroke-miterlimit:10;stroke-dasharray:none;stroke-opacity:1"
           id="path436"
           inkscape:connector-curvature="0" /></g></g><g
       id="g438"
       transform="scale(0.1)"><g
         id="g440"
         transform="translate(3800,2914.1699)"><path
           d="M 0,0 H -33.33"
           style="fill:none;stroke:#000000;stroke-width:5;stroke-linecap:butt;stroke-linejoin:round;stroke-miterlimit:10;stroke-dasharray:none;stroke-opacity:1"
           id="path442"
           inkscape:connector-curvature="0" /></g></g><text
       transform="matrix(1,0,0,-1,37.833,287.75)"
       style="font-variant:normal;font-weight:normal;font-size:10px;font-family:Helvetica;-inkscape-font-specification:Helvetica;writing-mode:lr-tb;fill:#000000;fill-opacity:1;fill-rule:nonzero;stroke:none"
       id="text446"><tspan
         x="0 5.5599999 8.3400002"
         y="0"
         sodipodi:role="line"
         id="tspan444">1.2</tspan></text>
<g
       id="g448"
       transform="scale(0.1)"><g
         id="g450"
         transform="translate(545.832,2914.1699)"><path
           d="M 0,0 H 3254.168"
           style="fill:none;stroke:#000000;stroke-width:5;stroke-linecap:butt;stroke-linejoin:round;stroke-miterlimit:10;stroke-dasharray:none;stroke-opacity:1"
           id="path452"
           inkscape:connector-curvature="0" /></g></g><g
       id="g454"
       transform="scale(0.1)"><g
         id="g456"
         transform="translate(545.832,346.668)"><path
           d="M 0,0 H 3254.168 V 2567.502"
           style="fill:none;stroke:#000000;stroke-width:5;stroke-linecap:butt;stroke-linejoin:round;stroke-miterlimit:10;stroke-dasharray:none;stroke-opacity:1"
           id="path458"
           inkscape:connector-curvature="0" /></g></g><g
       id="g460"
       transform="scale(0.1)"><g
         id="g462"
         transform="translate(545.832,346.668)"><path
           d="M 0,0 V 2567.502"
           style="fill:none;stroke:#000000;stroke-width:5;stroke-linecap:butt;stroke-linejoin:round;stroke-miterlimit:10;stroke-dasharray:none;stroke-opacity:1"
           id="path464"
           inkscape:connector-curvature="0" /></g></g><g
       id="g466"
       transform="scale(0.1)"><g
         id="g468"
         clip-path="url(#clipPath472)"><g
           id="g474"
           transform="translate(2823.3301,2509.1699)"><path
             d="M 0,0 3.34,-0.84 H 6.67 L 10,-1.67 13.34,-2.5 h 3.33 l 2.5,-0.84 h 3.33 l 3.34,-0.83 h 3.33 L 32.5,-5 h 3.34 l 3.33,-0.84 h 3.33 l 3.34,-0.83 h 3.33 l 2.5,-0.83 h 6.67 l 3.33,-0.84 H 65 l 3.34,-0.83 H 75 L 78.34,-10 H 85 l 2.5,-0.84 h 6.67 l 3.33,-0.83 h 6.67 l 3.33,-0.83 h 10 l 2.5,-0.84 h 10 l 3.34,-0.83 h 13.33 L 150,-15 h 19.17 l 3.33,-0.84 h 110.84 l 3.33,0.84 h 19.17 l 3.33,0.83 h 19.17 l 3.33,0.83 H 345 l 3.34,0.84 h 12.5 l 3.33,0.83 h 10 l 3.33,0.83 h 10 l 3.34,0.84 H 400 l 3.34,0.83 h 10 l 3.33,0.83 h 6.67 l 3.33,0.84 h 9.17 l 3.33,0.83 h 6.67 l 3.33,0.83 h 6.67 l 3.33,0.84 h 9.17 l 3.33,0.83 h 6.67 l 3.33,0.83 h 6.67 l 3.33,0.84 h 5.83 l 3.34,0.83 h 6.66 l 3.34,0.83 h 6.66 L 520.84,0 h 6.66 l 3.34,0.83 h 5.83 L 540,1.66 h 3.34 l 3.33,0.84 h 6.67 l 3.33,0.83 h 6.67 l 2.5,0.83 h 6.66 L 575.84,5 h 6.66 l 3.34,0.83 h 6.66 l 3.34,0.83 h 3.33 l 2.5,0.84 h 6.67 l 3.33,0.83 h 6.67 l 3.33,0.83 h 6.67 l 3.33,0.84 h 2.5 l 3.33,0.83 h 6.67 l 3.33,0.83 h 6.67 l 3.33,0.84 h 6.67 l 3.33,0.83 h 5.84 l 3.33,0.83 h 6.67 L 686.67,15 H 690 l 3.34,0.83 H 700 l 2.5,0.83 h 6.67 l 3.33,0.84 h 6.67 l 3.33,0.83 h 6.67 l 3.33,0.83 h 5.84 l 3.33,0.84 h 6.67 l 3.33,0.83 h 6.67 l 3.33,0.83 h 6.67 l 2.5,0.84 h 6.66 l 3.34,0.83 h 6.66 l 3.34,0.83 h 6.66 l 3.34,0.84 h 5.83 l 3.33,0.83 h 10 l 3.34,0.83 H 830 l 3.34,0.84 h 5.83 l 3.33,0.83 h 10 l 3.34,0.83 h 6.66 L 865.84,30 H 875 l 3.34,0.83 h 10 l 3.33,0.83 h 6.67 l 3.33,0.84 h 9.17 l 3.33,0.83 h 10 l 3.33,0.83 h 10 l 3.34,0.84 h 12.5 l 3.33,0.83 h 10 l 3.33,0.83 h 3.34"
             style="fill:none;stroke:#000000;stroke-width:30;stroke-linecap:butt;stroke-linejoin:round;stroke-miterlimit:10;stroke-dasharray:none;stroke-opacity:1"
             id="path476"
             inkscape:connector-curvature="0" /></g><g
           id="g478"
           transform="translate(1850,2884.1699)"><path
             d="m 0,0 h 35.83 l 3.34,-0.84 h 6.66 l 3.34,-0.83 h 6.66 l 3.34,-0.83 h 3.33 l 3.33,-0.84 h 2.5 L 71.67,-4.17 75,-5 h 3.33 L 81.67,-5.84 85,-6.67 h 3.33 l 3.34,-0.83 3.33,-0.84 3.33,-0.83 2.5,-0.83 3.34,-0.84 3.33,-0.83 3.33,-0.83 3.34,-0.84 3.33,-0.83 3.33,-0.83 3.34,-0.84 3.33,-0.83 3.33,-0.83 3.34,-0.84 2.5,-0.83 3.33,-1.67 3.33,-0.83 3.34,-0.83 3.33,-1.67 3.33,-0.83 3.34,-0.84 3.33,-1.66 3.33,-0.84 3.34,-0.83 2.5,-1.67 3.33,-0.83 3.33,-1.67 3.34,-0.83 3.33,-1.67 3.33,-0.83 3.34,-1.67 3.33,-0.83 3.33,-1.67 3.34,-1.66 3.33,-0.84 2.5,-1.66 3.33,-1.67 3.34,-0.83 3.33,-1.67 3.33,-1.67 3.34,-1.66 3.33,-0.84 3.33,-1.66 3.34,-1.67 3.33,-1.67 2.5,-1.66 3.33,-0.84 3.34,-1.66 3.33,-1.67 3.33,-1.67 3.34,-1.66 3.33,-1.67 3.33,-1.67 3.34,-1.66 3.33,-1.67 3.33,-1.67 2.5,-1.66 3.34,-1.67 3.33,-1.67 3.33,-1.66 3.34,-1.67 3.33,-1.67 3.33,-1.66 3.34,-1.67 3.33,-1.67 3.33,-1.66 2.5,-1.67 3.34,-1.67 3.33,-1.66 3.33,-1.67 3.34,-1.67 3.33,-1.66 3.33,-2.5 3.34,-1.67 3.33,-1.67 3.33,-1.66 3.34,-1.67 2.5,-1.67 3.33,-1.66 3.33,-2.5 3.34,-1.67 3.33,-1.67 3.33,-1.66 3.34,-1.67 3.33,-1.67 3.33,-2.5 3.34,-1.66 2.5,-1.67 3.33,-1.67 3.33,-1.66 3.34,-2.5 3.33,-1.67 3.33,-1.67 3.34,-1.66 3.33,-1.67 3.33,-2.5 3.34,-1.67 3.33,-1.66 2.5,-1.67 3.33,-1.67 3.34,-2.5 3.33,-1.66 3.33,-1.67 3.34,-1.67 3.33,-1.66 3.33,-2.5 3.34,-1.67 3.33,-1.67 2.5,-1.66 3.33,-1.67 3.34,-2.5 3.33,-1.67 3.33,-1.66 3.34,-1.67 3.33,-1.67 3.33,-2.5 3.34,-1.66 3.33,-1.67 3.33,-1.67 2.5,-1.66 3.34,-1.67 3.33,-2.5 3.33,-1.67 3.34,-1.66 3.33,-1.67 3.33,-1.67 3.34,-1.66 3.33,-1.67 3.33,-2.5 2.5,-1.67 3.34,-1.66 3.33,-1.67 3.33,-1.67 3.34,-1.66 3.33,-1.67 3.33,-1.67 3.34,-1.66 3.33,-1.67 3.33,-1.67 3.34,-1.66 2.5,-2.5 3.33,-1.67 3.33,-1.67 3.34,-1.66 3.33,-1.67 3.33,-1.67 3.34,-1.66 3.33,-1.67 3.33,-1.67 3.34,-1.66 2.5,-1.67 3.33,-1.67 3.33,-0.83 3.34,-1.67 3.33,-1.66 3.33,-1.67 3.34,-1.67 3.33,-1.66 3.33,-1.67 3.34,-1.67 3.33,-1.66 2.5,-1.67 3.33,-0.83 3.34,-1.67 3.33,-1.67 3.33,-1.66 3.34,-1.67 3.33,-1.67 3.33,-0.83 3.34,-1.67 3.33,-1.66 3.33,-1.67 2.5,-0.83 3.34,-1.67 3.33,-1.67 3.33,-1.66 3.34,-0.84 3.33,-1.66 3.33,-1.67 3.34,-0.83 3.33,-1.67 3.33,-1.67 2.5,-0.83 3.34,-1.67 3.33,-1.66 3.33,-0.84 3.34,-1.66 3.33,-1.67 3.33,-0.83 3.34,-1.67 3.33,-0.83 3.33,-1.67 3.34,-0.83 2.5,-1.67 3.33,-0.83 3.33,-1.67 3.34,-0.83 3.33,-1.67 3.33,-0.83 3.34,-1.67 3.33,-0.83 3.33,-1.67 3.34,-0.83 2.5,-0.84 3.33,-1.66 3.33,-0.84 3.34,-1.66 3.33,-0.84 3.33,-0.83 3.34,-1.67 3.33,-0.83 3.33,-0.83 3.34,-1.67 3.33,-0.83 2.5,-0.84 3.33,-0.83 3.34,-1.67 3.33,-0.83 3.33,-0.83 3.34,-0.84 3.33,-1.66 3.33,-0.84 3.34,-0.83 3.33,-0.83 2.5,-0.84 3.33,-0.83 3.34,-0.83 3.33,-1.67 3.33,-0.83 3.34,-0.84 3.33,-0.83 3.33,-0.83 3.34,-0.84 3.33,-0.83 3.33,-0.83 2.5,-0.84 3.34,-0.83 3.33,-0.83 3.33,-0.84 3.34,-0.83 3.33,-0.83 3.33,-0.84 3.34,-0.83 3.33,-0.83 3.33,-0.84 2.5,-0.83 3.34,-0.83 H 895 l 3.33,-0.84 3.34,-0.83 3.33,-0.83 3.33,-0.84 3.34,-0.83 3.33,-0.83 h 3.33 l 3.34,-0.84 2.5,-0.83 3.33,-0.83 h 3.33 l 3.34,-0.84 3.33,-0.83 3.33,-0.83 h 3.34 l 3.33,-0.84 3.33,-0.83 h 3.34 l 2.5,-0.83 3.33,-0.84 h 3.33 l 3.34,-0.83 3.33,-0.83 h 3.33"
             style="fill:none;stroke:#000000;stroke-width:30;stroke-linecap:butt;stroke-linejoin:round;stroke-miterlimit:10;stroke-dasharray:none;stroke-opacity:1"
             id="path480"
             inkscape:connector-curvature="0" /></g><g
           id="g482"
           transform="translate(877.5,767.5)"><path
             d="M 0,0 3.332,8.332 6.668,17.5 10,25.832 12.5,35 l 3.332,9.168 3.336,9.164 3.332,9.168 3.332,9.168 3.336,9.164 3.332,9.168 3.332,10 3.336,9.168 3.332,10 2.5,9.164 3.332,10 3.336,10 3.332,10 3.332,10 3.336,10 3.332,10 3.332,10 3.336,10 3.332,10.836 3.332,10 2.5,10.002 3.336,10.83 3.332,10 3.332,10.83 3.336,10.84 3.332,10 3.332,10.83 3.336,10.83 3.332,10.84 3.332,10.83 2.5,10.83 3.336,10.84 3.332,10.83 3.33,10.83 3.34,10.84 3.33,10.83 3.33,10.83 3.34,10.84 3.33,11.66 3.33,10.84 3.34,10.83 2.5,11.67 3.33,10.83 3.33,10.83 3.34,11.67 3.33,10.83 3.33,11.67 3.34,10.83 3.33,10.84 3.33,11.66 3.34,10.84 2.5,11.66 3.33,10.84 3.33,11.66 3.34,10.84 3.33,11.66 3.33,11.67 3.34,10.83 3.33,11.67 3.33,10.83 3.34,11.67 3.33,10.83 2.5,11.67 3.33,10.83 3.34,11.67 3.33,10.83 3.33,11.67 3.34,10.83 3.33,11.67 3.33,10.83 3.34,11.67 3.33,10.83 2.5,10.84 3.33,11.66 3.34,10.84 3.33,11.66 3.33,10.84 3.34,10.83 3.33,10.83 3.33,11.67 3.34,10.83 3.33,10.84 3.33,10.83 2.5,10.83 3.34,11.67 3.33,10.83 3.33,10.84 3.34,10.83 3.33,10.83 3.33,10.84 3.34,10.83 3.33,10 3.33,10.83 3.34,10.84 2.5,10.83 3.33,10.83 3.33,10 3.34,10.84 3.33,10.83 3.33,10 3.34,10.83 3.33,10 3.33,10 3.34,10.84 2.5,10 3.33,10 3.33,10.83 3.34,10 3.33,10 3.33,10 3.34,10 3.33,10 3.33,10 3.34,10 3.33,10 2.5,9.17 3.33,10 3.34,10 3.33,9.16 3.33,10 3.34,9.17 3.33,10 3.33,9.17 3.34,9.16 3.33,10 2.5,9.17 3.33,9.17 3.34,9.16 3.33,9.17 3.33,9.17 3.34,9.16 3.33,8.34 3.33,9.16 3.34,9.17 3.33,8.33 3.33,9.17 2.5,8.33 3.34,9.17 3.33,8.33 3.33,8.34 3.34,9.16 3.33,8.34 3.33,8.33 3.34,8.33 3.33,8.34 3.33,8.33 2.5,7.5 3.34,8.33 3.33,8.34 3.33,7.5 3.34,8.33 3.33,7.5 3.33,8.33 3.34,7.5 3.33,7.5 3.33,7.5 3.34,7.5 2.5,7.5 3.33,7.5 3.33,7.5 3.34,7.5 3.33,7.5 3.33,6.67 3.34,7.5 3.33,6.67 3.33,7.5 3.34,6.66 2.5,6.67 3.33,7.5 3.33,6.67 3.34,6.66 3.33,6.67 3.33,6.67 3.34,6.66 3.33,5.84 3.33,6.66 3.34,6.67 3.33,5.83 2.5,6.67 3.33,5.83 3.34,5.84 3.33,6.66 3.33,5.84 3.34,5.83 3.33,5.83 3.33,5.84 3.34,5.83 3.33,5.83 2.5,5 3.33,5.84 3.34,5 3.33,5.83 3.33,5 3.34,5.83 3.33,5 3.33,5 3.34,5 3.33,5.84 3.33,5 2.5,4.16 3.34,5 3.33,5 3.33,5 3.34,4.17 3.33,5 3.33,4.17 3.34,5 3.33,4.16 3.33,5 2.5,4.17 3.34,4.17 3.33,4.16 3.33,4.17 3.34,4.17 3.33,4.16 3.33,3.34 3.34,4.16 3.33,4.17 3.33,3.33 3.34,4.17 2.5,3.33 3.33,4.17 3.33,3.33 3.34,3.34 3.33,3.33 3.33,4.17 3.34,3.33 3.33,3.33 3.33,2.5 3.34,3.34 2.5,3.33 3.33,3.33 3.33,2.5 3.34,3.34 3.33,2.5 3.33,3.33 3.34,2.5 3.33,3.33 3.33,2.5 3.34,2.5 3.33,2.5 2.5,2.5 3.33,2.5 3.34,2.5 3.33,2.5 3.33,2.5 3.34,2.5 3.33,1.67 3.33,2.5 3.34,1.67 3.33,2.5 2.5,1.66 3.33,2.5 3.34,1.67 3.33,1.67 3.33,2.5 3.34,1.66 3.33,1.67 3.33,1.67 3.34,1.66 3.33,1.67 3.33,1.67 2.5,0.83 3.34,1.67 3.33,1.66 3.33,1.67 3.34,0.83 3.33,1.67 3.33,0.83 3.34,1.67 3.33,0.83 3.33,0.84 2.5,1.66 3.34,0.84 3.33,0.83 3.33,0.83 3.34,0.84 3.33,0.83 3.33,0.83 3.34,0.84 3.33,0.83 3.33,0.83 3.34,0.84 2.5,0.83 H 940 l 3.33,0.83 h 3.34 l 3.33,0.84 3.33,0.83 H 960 l 3.33,0.83 H 970 l 2.5,0.84"
             style="fill:none;stroke:#000000;stroke-width:30;stroke-linecap:butt;stroke-linejoin:round;stroke-miterlimit:10;stroke-dasharray:none;stroke-opacity:1"
             id="path484"
             inkscape:connector-curvature="0" /></g><g
           id="g486"
           transform="translate(545.832,708.332)"><path
             d="m 0,0 2.5,-10.832 3.336,-10.832 3.332,-10 3.332,-10 3.336,-9.168 3.332,-10 3.332,-8.332 3.336,-9.168 3.332,-8.332 3.332,-8.336 2.5,-8.332 3.336,-7.5 3.332,-7.5 L 45,-125 l 3.336,-7.5 3.332,-6.664 L 55,-145 l 3.336,-6.664 3.332,-5.836 3.332,-5 3.336,-5.832 2.5,-5 3.332,-5 3.332,-4.168 3.336,-4.164 3.332,-4.168 3.332,-4.168 3.336,-3.332 3.332,-3.332 3.332,-3.336 3.336,-2.5 2.5,-3.332 3.332,-2.5 3.332,-1.668 3.336,-2.5 3.332,-1.664 3.332,-0.836 3.336,-1.664 3.332,-0.836 3.332,-0.832 3.336,-0.832 3.332,-0.836 h 9.168 l 3.332,0.836 h 3.332 l 3.336,0.832 3.332,0.832 3.332,1.668 3.336,0.832 3.332,1.668 2.5,1.668 3.332,2.5 3.336,1.664 3.332,2.5 3.332,2.5 3.336,2.5 3.332,3.336 3.332,2.5 3.336,3.332 3.332,3.332 3.332,3.336 2.5,4.164 3.336,3.336 3.332,4.164 3.332,4.168 3.336,4.168 3.332,5 3.332,4.164 3.336,5 3.332,5 3.332,5 2.5,5 3.336,5.836 3.332,5.832 3.332,5 3.336,5.832 3.332,5.836 3.332,6.664 3.336,5.836 3.332,6.664 3.332,6.668 3.336,6.668 2.5,6.664 3.332,6.668 3.332,6.668 3.336,7.5 3.332,6.664 3.332,7.5 3.336,7.5 3.332,7.5 3.332,7.5 3.336,8.336 2.5,7.5 3.332,8.332 3.332,7.5 3.336,8.332 3.332,8.336 3.332,8.332 3.336,8.332 3.332,9.168"
             style="fill:none;stroke:#000000;stroke-width:30;stroke-linecap:butt;stroke-linejoin:round;stroke-miterlimit:10;stroke-dasharray:none;stroke-opacity:1"
             id="path488"
             inkscape:connector-curvature="0" /></g></g></g><text
       transform="matrix(1,0,0,-1,215.75,10.667)"
       style="font-variant:normal;font-weight:normal;font-size:10px;font-family:Helvetica;-inkscape-font-specification:Helvetica;writing-mode:lr-tb;fill:#000000;fill-opacity:1;fill-rule:nonzero;stroke:none"
       id="text492"><tspan
         x="0"
         y="0"
         id="tspan490">t</tspan></text>
</g></svg>