<?xml version="1.0" encoding="UTF-8" standalone="no"?>
<!-- Created with Inkscape (http://www.inkscape.org/) -->

<svg
   xmlns:dc="http://purl.org/dc/elements/1.1/"
   xmlns:cc="http://creativecommons.org/ns#"
   xmlns:rdf="http://www.w3.org/1999/02/22-rdf-syntax-ns#"
   xmlns:svg="http://www.w3.org/2000/svg"
   xmlns="http://www.w3.org/2000/svg"
   xmlns:sodipodi="http://sodipodi.sourceforge.net/DTD/sodipodi-0.dtd"
   xmlns:inkscape="http://www.inkscape.org/namespaces/inkscape"
   version="1.1"
   id="svg2"
   xml:space="preserve"
   width="419.80447"
   height="252.36072"
   viewBox="0 0 419.80447 252.36072"
   sodipodi:docname="zeros.svg"
   inkscape:version="0.92.0 r15299"><metadata
     id="metadata8"><rdf:RDF><cc:Work
         rdf:about=""><dc:format>image/svg+xml</dc:format><dc:type
           rdf:resource="http://purl.org/dc/dcmitype/StillImage" /><dc:title></dc:title></cc:Work></rdf:RDF></metadata><defs
     id="defs6"><clipPath
       clipPathUnits="userSpaceOnUse"
       id="clipPath18"><path
         d="M 0,2062.4 V 0 h 3593.33 v 2062.4 z"
         id="path16"
         inkscape:connector-curvature="0" /></clipPath><clipPath
       clipPathUnits="userSpaceOnUse"
       id="clipPath46"><path
         d="M 0,2062.4 V 0 h 3593.33 v 2062.4 z"
         id="path44"
         inkscape:connector-curvature="0" /></clipPath><clipPath
       clipPathUnits="userSpaceOnUse"
       id="clipPath70"><path
         d="M 0,2062.4 V 0 h 3593.33 v 2062.4 z"
         id="path68"
         inkscape:connector-curvature="0" /></clipPath></defs><sodipodi:namedview
     pagecolor="#ffffff"
     bordercolor="#666666"
     borderopacity="1"
     objecttolerance="10"
     gridtolerance="10"
     guidetolerance="10"
     inkscape:pageopacity="0"
     inkscape:pageshadow="2"
     inkscape:window-width="751"
     inkscape:window-height="480"
     id="namedview4"
     showgrid="false"
     fit-margin-top="0"
     fit-margin-left="0"
     fit-margin-right="0"
     fit-margin-bottom="0"
     inkscape:zoom="0.22348485"
     inkscape:cx="408"
     inkscape:cy="507.53662"
     inkscape:window-x="0"
     inkscape:window-y="0"
     inkscape:window-maximized="0"
     inkscape:current-layer="g10" /><g
     id="g10"
     inkscape:groupmode="layer"
     inkscape:label="A9Rv83g9v_8znv41_83w"
     transform="matrix(1.3333333,0,0,-1.3333333,0,272.8241)"><g
       id="g12"
       transform="scale(0.1)"><g
         id="g14"
         clip-path="url(#clipPath18)"><g
           id="g20"
           transform="translate(1547.62,1900.8)"><path
             d="M 0,0 V -1650.8"
             style="fill:none;stroke:#211c1d;stroke-width:10;stroke-linecap:butt;stroke-linejoin:miter;stroke-miterlimit:10;stroke-dasharray:none;stroke-opacity:1"
             id="path22"
             inkscape:connector-curvature="0" /></g><g
           id="g24"
           transform="translate(0,1075.4)"><path
             d="M 0,0 H 2444.44"
             style="fill:none;stroke:#211c1d;stroke-width:10;stroke-linecap:butt;stroke-linejoin:miter;stroke-miterlimit:10;stroke-dasharray:none;stroke-opacity:1"
             id="path26"
             inkscape:connector-curvature="0" /></g><g
           id="g28"
           transform="translate(1116.16,1552.89)"><path
             d="M 0,0 101.02,-101.01"
             style="fill:none;stroke:#211c1d;stroke-width:20;stroke-linecap:butt;stroke-linejoin:miter;stroke-miterlimit:10;stroke-dasharray:none;stroke-opacity:1"
             id="path30"
             inkscape:connector-curvature="0" /></g><g
           id="g32"
           transform="translate(1116.16,1451.88)"><path
             d="M 0,0 101.02,101.01"
             style="fill:none;stroke:#211c1d;stroke-width:20;stroke-linecap:butt;stroke-linejoin:miter;stroke-miterlimit:10;stroke-dasharray:none;stroke-opacity:1"
             id="path34"
             inkscape:connector-curvature="0" /></g></g></g><text
       transform="matrix(1,0,0,-1,158.73,188.663)"
       style="font-variant:normal;font-weight:normal;font-size:21px;font-family:MyriadPro;-inkscape-font-specification:MyriadPro-Regular;writing-mode:lr-tb;fill:#100f0d;fill-opacity:1;fill-rule:nonzero;stroke:none"
       id="text38"><tspan
         x="0 5.2284961 22.742496 28.706495 37.022495"
         y="0"
         sodipodi:role="line"
         id="tspan36">Im(s)</tspan></text>
<g
       id="g40"
       transform="scale(0.1)"><g
         id="g42"
         clip-path="url(#clipPath46)"><g
           id="g48"
           transform="translate(1547.62,503.969)"><path
             d="m 0,0 c -315.59,0 -571.429,255.84 -571.429,571.441 0,315.59 255.839,571.43 571.429,571.43"
             style="fill:none;stroke:#211c1d;stroke-width:10;stroke-linecap:butt;stroke-linejoin:miter;stroke-miterlimit:10;stroke-dasharray:80, 80;stroke-dashoffset:0;stroke-opacity:1"
             id="path50"
             inkscape:connector-curvature="0" /></g><g
           id="g52"
           transform="translate(1116.16,692.891)"><path
             d="M 0,0 101.02,-101.012"
             style="fill:none;stroke:#211c1d;stroke-width:20;stroke-linecap:butt;stroke-linejoin:miter;stroke-miterlimit:10;stroke-dasharray:none;stroke-opacity:1"
             id="path54"
             inkscape:connector-curvature="0" /></g><g
           id="g56"
           transform="translate(1116.16,591.879)"><path
             d="M 0,0 101.02,101.012"
             style="fill:none;stroke:#211c1d;stroke-width:20;stroke-linecap:butt;stroke-linejoin:miter;stroke-miterlimit:10;stroke-dasharray:none;stroke-opacity:1"
             id="path58"
             inkscape:connector-curvature="0" /></g></g></g><text
       transform="matrix(1,0,0,-1,237.698,113.158)"
       style="font-variant:normal;font-weight:normal;font-size:21px;font-family:MyriadPro;-inkscape-font-specification:MyriadPro-Regular;writing-mode:lr-tb;fill:#100f0d;fill-opacity:1;fill-rule:nonzero;stroke:none"
       id="text62"><tspan
         x="0 11.38179 21.90279 27.866791 36.182789"
         y="0"
         sodipodi:role="line"
         id="tspan60">Re(s)</tspan></text>
<g
       id="g64"
       transform="scale(0.1)"><g
         id="g66"
         clip-path="url(#clipPath70)"><g
           id="g72"
           transform="translate(156.672,1075.4)"><path
             d="m 0,0 c 0,-31.3 -25.371,-56.67 -56.672,-56.67 -31.293,0 -56.664,25.37 -56.664,56.67 0,31.3 25.371,56.67 56.664,56.67 C -25.371,56.67 0,31.3 0,0 Z"
             style="fill:none;stroke:#211c1d;stroke-width:10;stroke-linecap:butt;stroke-linejoin:miter;stroke-miterlimit:10;stroke-dasharray:none;stroke-opacity:1"
             id="path74"
             inkscape:connector-curvature="0" /></g><g
           id="g76"
           transform="translate(1375.23,1075.4)"><path
             d="m 0,0 c 0,-31.3 -25.37,-56.67 -56.67,-56.67 -31.28,0 -56.66,25.37 -56.66,56.67 0,31.3 25.38,56.67 56.66,56.67 C -25.37,56.67 0,31.3 0,0 Z"
             style="fill:none;stroke:#211c1d;stroke-width:10;stroke-linecap:butt;stroke-linejoin:miter;stroke-miterlimit:10;stroke-dasharray:none;stroke-opacity:1"
             id="path78"
             inkscape:connector-curvature="0" /></g><g
           id="g80"
           transform="translate(1470.7,1190.58)"><path
             d="M 0,0 585.97,362.31"
             style="fill:none;stroke:#211c1d;stroke-width:10;stroke-linecap:butt;stroke-linejoin:miter;stroke-miterlimit:10;stroke-dasharray:none;stroke-opacity:1"
             id="path82"
             inkscape:connector-curvature="0" /></g><g
           id="g84"
           transform="translate(1537.71,1194.62)"><path
             d="M 0,0 -2.05,9.79 -66.18,-3.52 -25.61,47.9 -33.46,54.09 -91.04,-18.9 0,0"
             style="fill:#211c1d;fill-opacity:1;fill-rule:nonzero;stroke:none"
             id="path86"
             inkscape:connector-curvature="0" /></g><g
           id="g88"
           transform="translate(168.109,945.32)"><path
             d="M 0,0 195.219,-440.832"
             style="fill:none;stroke:#211c1d;stroke-width:10;stroke-linecap:butt;stroke-linejoin:miter;stroke-miterlimit:10;stroke-dasharray:none;stroke-opacity:1"
             id="path90"
             inkscape:connector-curvature="0" /></g><g
           id="g92"
           transform="translate(162.965,878.391)"><path
             d="M 0,0 9.984,0.679 5.543,66.039 50.949,18.82 58.152,25.75 -6.293,92.757 0,0"
             style="fill:#211c1d;fill-opacity:1;fill-rule:nonzero;stroke:none"
             id="path94"
             inkscape:connector-curvature="0" /></g></g></g><text
       transform="matrix(1,0,0,-1,6.667,37.22)"
       style="font-variant:normal;font-weight:normal;font-size:18px;font-family:MyriadPro;-inkscape-font-specification:MyriadPro-Regular;writing-mode:lr-tb;fill:#100f0d;fill-opacity:1;fill-rule:nonzero;stroke:none"
       id="text104"><tspan
         x="0 7.5781078 16.596107 22.302216 32.184216 36.000217 45.990215 55.008217 60.713821 69.731819 73.547821 83.537819 92.213821"
         y="0"
         sodipodi:role="line"
         id="tspan96">zero here has</tspan><tspan
         x="0 7.1279998 22.139999 30.816 35.063999 39.312 43.127998 52.146 62.405804 71.423805 79.721695"
         y="21.6"
         sodipodi:role="line"
         id="tspan98">small efect</tspan><tspan
         x="207.33299 214.9111 223.92911 229.63522 239.51721 243.33322 253.32321 262.34122 268.04672 277.0647 280.88071 290.8707 299.54672"
         y="-130.289"
         sodipodi:role="line"
         id="tspan100">zero here has</tspan><tspan
         x="207.33299 217.575 221.787 231.849 235.66499 244.683 254.94279 263.96082 272.25861"
         y="-108.689"
         sodipodi:role="line"
         id="tspan102">big efect</tspan></text>
</g></svg>