<?xml version="1.0" encoding="UTF-8" standalone="no"?>
<!-- Created with Inkscape (http://www.inkscape.org/) -->

<svg
   xmlns:dc="http://purl.org/dc/elements/1.1/"
   xmlns:cc="http://creativecommons.org/ns#"
   xmlns:rdf="http://www.w3.org/1999/02/22-rdf-syntax-ns#"
   xmlns:svg="http://www.w3.org/2000/svg"
   xmlns="http://www.w3.org/2000/svg"
   xmlns:sodipodi="http://sodipodi.sourceforge.net/DTD/sodipodi-0.dtd"
   xmlns:inkscape="http://www.inkscape.org/namespaces/inkscape"
   version="1.1"
   id="svg2"
   xml:space="preserve"
   width="696.96039"
   height="149.20056"
   viewBox="0 0 696.96038 149.20056"
   sodipodi:docname="4-example.svg"
   inkscape:version="0.92.0 r15299"><metadata
     id="metadata8"><rdf:RDF><cc:Work
         rdf:about=""><dc:format>image/svg+xml</dc:format><dc:type
           rdf:resource="http://purl.org/dc/dcmitype/StillImage" /><dc:title></dc:title></cc:Work></rdf:RDF></metadata><defs
     id="defs6"><marker
       inkscape:isstock="true"
       style="overflow:visible"
       id="marker6713"
       refX="0"
       refY="0"
       orient="auto"
       inkscape:stockid="Arrow1Mend"><path
         transform="matrix(-0.4,0,0,-0.4,-4,0)"
         style="fill:#214478;fill-opacity:1;fill-rule:evenodd;stroke:#214478;stroke-width:1.00000003pt;stroke-opacity:1"
         d="M 0,0 5,-5 -12.5,0 5,5 Z"
         id="path6711"
         inkscape:connector-curvature="0" /></marker><marker
       inkscape:stockid="Arrow1Mend"
       orient="auto"
       refY="0"
       refX="0"
       id="marker6535"
       style="overflow:visible"
       inkscape:isstock="true"
       inkscape:collect="always"><path
         inkscape:connector-curvature="0"
         id="path6533"
         d="M 0,0 5,-5 -12.5,0 5,5 Z"
         style="fill:#214478;fill-opacity:1;fill-rule:evenodd;stroke:#214478;stroke-width:1.00000003pt;stroke-opacity:1"
         transform="matrix(-0.4,0,0,-0.4,-4,0)" /></marker><clipPath
       clipPathUnits="userSpaceOnUse"
       id="clipPath18"><path
         d="M 0,955.48 V 0 h 4937.5 v 955.48 z"
         id="path16"
         inkscape:connector-curvature="0" /></clipPath><clipPath
       clipPathUnits="userSpaceOnUse"
       id="clipPath90"><path
         d="M 0,955.48 V 0 h 4937.5 v 955.48 z"
         id="path88"
         inkscape:connector-curvature="0" /></clipPath><clipPath
       clipPathUnits="userSpaceOnUse"
       id="clipPath112"><path
         d="M 0,955.48 V 0 h 4937.5 v 955.48 z"
         id="path110"
         inkscape:connector-curvature="0" /></clipPath><clipPath
       clipPathUnits="userSpaceOnUse"
       id="clipPath136"><path
         d="M 0,955.48 V 0 h 4937.5 v 955.48 z"
         id="path134"
         inkscape:connector-curvature="0" /></clipPath><clipPath
       clipPathUnits="userSpaceOnUse"
       id="clipPath154"><path
         d="M 0,955.48 V 0 h 4937.5 v 955.48 z"
         id="path152"
         inkscape:connector-curvature="0" /></clipPath><marker
       inkscape:stockid="Arrow1Mend"
       orient="auto"
       refY="0"
       refX="0"
       id="Arrow1Mend-2-4"
       style="overflow:visible"
       inkscape:isstock="true"><path
         id="path4554-0-5"
         d="M 0,0 5,-5 -12.5,0 5,5 Z"
         style="fill:#214478;fill-opacity:1;fill-rule:evenodd;stroke:#214478;stroke-width:1.00000003pt;stroke-opacity:1"
         transform="matrix(-0.4,0,0,-0.4,-4,0)"
         inkscape:connector-curvature="0" /></marker><marker
       inkscape:stockid="Arrow1Mend"
       orient="auto"
       refY="0"
       refX="0"
       id="Arrow1Mend-2"
       style="overflow:visible"
       inkscape:isstock="true"><path
         id="path4554-0"
         d="M 0,0 5,-5 -12.5,0 5,5 Z"
         style="fill:#214478;fill-opacity:1;fill-rule:evenodd;stroke:#214478;stroke-width:1.00000003pt;stroke-opacity:1"
         transform="matrix(-0.4,0,0,-0.4,-4,0)"
         inkscape:connector-curvature="0" /></marker><marker
       inkscape:stockid="Arrow1Mend"
       orient="auto"
       refY="0"
       refX="0"
       id="Arrow1Mend-8-3-4-3"
       style="overflow:visible"
       inkscape:isstock="true"><path
         id="path4554-20-3-2-5"
         d="M 0,0 5,-5 -12.5,0 5,5 Z"
         style="fill:#214478;fill-opacity:1;fill-rule:evenodd;stroke:#214478;stroke-width:1.00000003pt;stroke-opacity:1"
         transform="matrix(-0.4,0,0,-0.4,-4,0)"
         inkscape:connector-curvature="0" /></marker><marker
       inkscape:stockid="Arrow1Mend"
       orient="auto"
       refY="0"
       refX="0"
       id="Arrow1Mend-8-3-4"
       style="overflow:visible"
       inkscape:isstock="true"><path
         id="path4554-20-3-2"
         d="M 0,0 5,-5 -12.5,0 5,5 Z"
         style="fill:#214478;fill-opacity:1;fill-rule:evenodd;stroke:#214478;stroke-width:1.00000003pt;stroke-opacity:1"
         transform="matrix(-0.4,0,0,-0.4,-4,0)"
         inkscape:connector-curvature="0" /></marker><marker
       inkscape:stockid="Arrow1Mend"
       orient="auto"
       refY="0"
       refX="0"
       id="Arrow1Mend-8-3"
       style="overflow:visible"
       inkscape:isstock="true"><path
         id="path4554-20-3"
         d="M 0,0 5,-5 -12.5,0 5,5 Z"
         style="fill:#214478;fill-opacity:1;fill-rule:evenodd;stroke:#214478;stroke-width:1.00000003pt;stroke-opacity:1"
         transform="matrix(-0.4,0,0,-0.4,-4,0)"
         inkscape:connector-curvature="0" /></marker><marker
       inkscape:stockid="Arrow1Mend"
       orient="auto"
       refY="0"
       refX="0"
       id="Arrow1Mend-8"
       style="overflow:visible"
       inkscape:isstock="true"><path
         id="path4554-20"
         d="M 0,0 5,-5 -12.5,0 5,5 Z"
         style="fill:#214478;fill-opacity:1;fill-rule:evenodd;stroke:#214478;stroke-width:1.00000003pt;stroke-opacity:1"
         transform="matrix(-0.4,0,0,-0.4,-4,0)"
         inkscape:connector-curvature="0" /></marker><marker
       inkscape:stockid="Arrow1Mend"
       orient="auto"
       refY="0"
       refX="0"
       id="Arrow1Mend-8-6"
       style="overflow:visible"
       inkscape:isstock="true"><path
         id="path4554-20-1"
         d="M 0,0 5,-5 -12.5,0 5,5 Z"
         style="fill:#214478;fill-opacity:1;fill-rule:evenodd;stroke:#214478;stroke-width:1.00000003pt;stroke-opacity:1"
         transform="matrix(-0.4,0,0,-0.4,-4,0)"
         inkscape:connector-curvature="0" /></marker><marker
       inkscape:stockid="Arrow1Mend"
       orient="auto"
       refY="0"
       refX="0"
       id="Arrow1Mend-8-6-9"
       style="overflow:visible"
       inkscape:isstock="true"><path
         id="path4554-20-1-9"
         d="M 0,0 5,-5 -12.5,0 5,5 Z"
         style="fill:#214478;fill-opacity:1;fill-rule:evenodd;stroke:#214478;stroke-width:1.00000003pt;stroke-opacity:1"
         transform="matrix(-0.4,0,0,-0.4,-4,0)"
         inkscape:connector-curvature="0" /></marker><marker
       inkscape:stockid="Arrow1Mend"
       orient="auto"
       refY="0"
       refX="0"
       id="Arrow1Mend-8-6-9-5"
       style="overflow:visible"
       inkscape:isstock="true"><path
         id="path4554-20-1-9-5"
         d="M 0,0 5,-5 -12.5,0 5,5 Z"
         style="fill:#214478;fill-opacity:1;fill-rule:evenodd;stroke:#214478;stroke-width:1.00000003pt;stroke-opacity:1"
         transform="matrix(-0.4,0,0,-0.4,-4,0)"
         inkscape:connector-curvature="0" /></marker><marker
       inkscape:stockid="Arrow1Mend"
       orient="auto"
       refY="0"
       refX="0"
       id="Arrow1Mend-8-6-9-5-4"
       style="overflow:visible"
       inkscape:isstock="true"><path
         id="path4554-20-1-9-5-9"
         d="M 0,0 5,-5 -12.5,0 5,5 Z"
         style="fill:#214478;fill-opacity:1;fill-rule:evenodd;stroke:#214478;stroke-width:1.00000003pt;stroke-opacity:1"
         transform="matrix(-0.4,0,0,-0.4,-4,0)"
         inkscape:connector-curvature="0" /></marker><marker
       inkscape:stockid="Arrow1Mend"
       orient="auto"
       refY="0"
       refX="0"
       id="Arrow1Mend-8-6-9-5-7"
       style="overflow:visible"
       inkscape:isstock="true"><path
         id="path4554-20-1-9-5-6"
         d="M 0,0 5,-5 -12.5,0 5,5 Z"
         style="fill:#214478;fill-opacity:1;fill-rule:evenodd;stroke:#214478;stroke-width:1.00000003pt;stroke-opacity:1"
         transform="matrix(-0.4,0,0,-0.4,-4,0)"
         inkscape:connector-curvature="0" /></marker><marker
       inkscape:stockid="Arrow1Mend"
       orient="auto"
       refY="0"
       refX="0"
       id="Arrow1Mend-8-6-90"
       style="overflow:visible"
       inkscape:isstock="true"><path
         id="path4554-20-1-8"
         d="M 0,0 5,-5 -12.5,0 5,5 Z"
         style="fill:#214478;fill-opacity:1;fill-rule:evenodd;stroke:#214478;stroke-width:1.00000003pt;stroke-opacity:1"
         transform="matrix(-0.4,0,0,-0.4,-4,0)"
         inkscape:connector-curvature="0" /></marker></defs><sodipodi:namedview
     pagecolor="#ffffff"
     bordercolor="#666666"
     borderopacity="1"
     objecttolerance="10"
     gridtolerance="10"
     guidetolerance="10"
     inkscape:pageopacity="0"
     inkscape:pageshadow="2"
     inkscape:window-width="1600"
     inkscape:window-height="847"
     id="namedview4"
     showgrid="false"
     fit-margin-top="15"
     fit-margin-left="10"
     fit-margin-right="10"
     fit-margin-bottom="15"
     inkscape:zoom="0.8939394"
     inkscape:cx="383.28228"
     inkscape:cy="193.25985"
     inkscape:window-x="-8"
     inkscape:window-y="-8"
     inkscape:window-maximized="1"
     inkscape:current-layer="g10"
     showguides="true"
     inkscape:guide-bbox="true"
     inkscape:snap-bbox="true"
     inkscape:snap-bbox-midpoints="true"
     inkscape:snap-page="true"><sodipodi:guide
       position="312.71912,104.00489"
       orientation="0,1"
       id="guide4718"
       inkscape:locked="false" /><sodipodi:guide
       position="115.33976,77.256391"
       orientation="1,0"
       id="guide4720"
       inkscape:locked="false" /><sodipodi:guide
       position="485.69565,104.00535"
       orientation="1,0"
       id="guide4722"
       inkscape:locked="false" /><sodipodi:guide
       position="624.8054,104.00489"
       orientation="1,0"
       id="guide4724"
       inkscape:locked="false" /><sodipodi:guide
       position="222.49739,112.06384"
       orientation="1,0"
       id="guide4994"
       inkscape:locked="false" /><sodipodi:guide
       position="327.19132,175.78216"
       orientation="1,0"
       id="guide4996"
       inkscape:locked="false" /><sodipodi:guide
       position="416.35811,108.17228"
       orientation="1,0"
       id="guide4998"
       inkscape:locked="false" /><sodipodi:guide
       position="554.03317,108.17228"
       orientation="1,0"
       id="guide5000"
       inkscape:locked="false" /><sodipodi:guide
       position="231.08472,66.228548"
       orientation="0,1"
       id="guide6921"
       inkscape:locked="false" /><sodipodi:guide
       position="56.908375,121.26056"
       orientation="0,1"
       id="guide6931"
       inkscape:locked="false" /></sodipodi:namedview><g
     id="g10"
     inkscape:groupmode="layer"
     inkscape:label="A9R1v21821_16j7tc8_4vo"
     transform="matrix(1.3333333,0,0,-1.3333333,10,133.20057)"><text
       xml:space="preserve"
       style="font-style:normal;font-variant:normal;font-weight:normal;font-stretch:normal;font-size:30px;line-height:1.25;font-family:'CMU Sans Serif';-inkscape-font-specification:'CMU Sans Serif';letter-spacing:0px;word-spacing:0px;fill:#214478;fill-opacity:1;stroke:none;stroke-width:0.75"
       x="11.134954"
       y="-72.480431"
       id="text5149-2-5"
       transform="scale(1,-1)"><tspan
         sodipodi:role="line"
         id="tspan5147-6-23"
         x="11.134954"
         y="-72.480431"
         style="font-style:italic;font-variant:normal;font-weight:500;font-stretch:normal;font-family:'CMU Serif';-inkscape-font-specification:'CMU Serif Medium Italic';fill:#214478;fill-opacity:1;stroke-width:0.75">u</tspan></text>
<text
       xml:space="preserve"
       style="font-style:normal;font-variant:normal;font-weight:normal;font-stretch:normal;font-size:30px;line-height:1.25;font-family:'CMU Sans Serif';-inkscape-font-specification:'CMU Sans Serif';letter-spacing:0px;word-spacing:0px;fill:#214478;fill-opacity:1;stroke:none;stroke-width:0.75"
       x="474.142"
       y="-75.390427"
       id="text5149-2-3-5"
       transform="scale(1,-1)"><tspan
         sodipodi:role="line"
         id="tspan5147-6-4-4"
         x="474.142"
         y="-75.390427"
         style="font-style:italic;font-variant:normal;font-weight:500;font-stretch:normal;font-family:'CMU Serif';-inkscape-font-specification:'CMU Serif Medium Italic';fill:#214478;fill-opacity:1;stroke-width:0.75">y</tspan></text>
<path
       style="fill:none;stroke:#214478;stroke-width:1.5;stroke-linecap:butt;stroke-linejoin:miter;stroke-miterlimit:4;stroke-dasharray:none;stroke-opacity:1;marker-end:url(#Arrow1Mend-8-6)"
       d="M 0,66.003676 H 63.568083"
       id="path4543-0-3"
       inkscape:connector-curvature="0"
       sodipodi:nodetypes="cc" /><path
       id="path2092-8"
       d="m 67.004912,65.973681 c 0,-6.59996 5.399958,-11.93991 11.999913,-11.93991 6.659947,0 11.999909,5.33995 11.999909,11.93991 0,6.65994 -5.339962,11.9999 -11.999909,11.9999 -6.599955,0 -11.999913,-5.33996 -11.999913,-11.9999 z"
       style="fill:#ffffff;fill-opacity:1;fill-rule:nonzero;stroke:none;stroke-width:0.75"
       inkscape:connector-curvature="0" /><path
       id="path2094-6"
       d="m 67.004912,65.973681 c 0,-6.59996 5.399958,-11.93991 11.999913,-11.93991 6.659947,0 11.999909,5.33995 11.999909,11.93991 0,6.65994 -5.339962,11.9999 -11.999909,11.9999 -6.599955,0 -11.999913,-5.33996 -11.999913,-11.9999 z"
       style="fill:#80b3ff;fill-opacity:1;fill-rule:nonzero;stroke:#214478;stroke-width:1.49998891px;stroke-linecap:butt;stroke-linejoin:miter;stroke-miterlimit:4;stroke-dasharray:none;stroke-opacity:1"
       inkscape:connector-curvature="0" /><path
       id="path2096-9"
       d="m 73.184862,65.613681 c -0.06,0.12 -0.12,0.24 -0.12,0.42 0,0.12 0,0.24 0.12,0.3 0.06,0.12 0.18,0.18 0.24,0.18 0.12,0.06 0.24,0.06 0.479999,0.06 h 4.619964 v 4.61995 c 0,0.54 0.18,0.78 0.54,0.78 0.36,0 0.539985,-0.24 0.539985,-0.78 v -4.61995 h 4.67997 c 0.48,0 0.719992,-0.18 0.719992,-0.54 0,-0.36 -0.239992,-0.54 -0.719992,-0.54 h -4.67997 v -4.67997 c 0,-0.53999 -0.179985,-0.77999 -0.539985,-0.77999 -0.18,0 -0.3,0 -0.36,0.12 -0.12,0.06 -0.18,0.17999 -0.18,0.29999 0,0 0,0.18 0,0.36 v 4.67997 h -4.679964 c -0.06,-0.06 -0.06,-0.06 -0.119999,-0.06 -0.24,0 -0.42,0.06 -0.54,0.18 z"
       style="fill:#214478;fill-opacity:1;fill-rule:nonzero;stroke:none;stroke-width:0.75"
       inkscape:connector-curvature="0" /><path
       style="fill:none;stroke:#214478;stroke-width:1.5;stroke-linecap:butt;stroke-linejoin:miter;stroke-miterlimit:4;stroke-dasharray:none;stroke-opacity:1;marker-end:url(#Arrow1Mend-8-6-9)"
       d="M 90.156945,66.003676 H 128.52402"
       id="path4543-0-3-7"
       inkscape:connector-curvature="0"
       sodipodi:nodetypes="cc" /><path
       d="m 131.55885,45.901245 h 55.6284 v 40.204862 h -55.6284 z"
       style="fill:#d5e5ff;fill-opacity:1;stroke:#214478;stroke-width:1.5;stroke-linecap:butt;stroke-linejoin:miter;stroke-miterlimit:10;stroke-dasharray:none;stroke-opacity:1"
       id="path26-3-8"
       inkscape:connector-curvature="0" /><path
       style="fill:none;stroke:#214478;stroke-width:1.5;stroke-linecap:butt;stroke-linejoin:miter;stroke-miterlimit:4;stroke-dasharray:none;stroke-opacity:1;marker-end:url(#Arrow1Mend-8-6-9-5-7)"
       d="m 241.14743,66.003676 h 36.16474"
       id="path4543-0-3-7-6-3"
       inkscape:connector-curvature="0"
       sodipodi:nodetypes="cc" /><path
       id="path2092-8-2"
       d="m 226.37359,66.483676 c 0,-6.59996 5.39996,-11.93991 11.99991,-11.93991 6.65995,0 11.99991,5.33995 11.99991,11.93991 0,6.65994 -5.33996,11.9999 -11.99991,11.9999 -6.59995,0 -11.99991,-5.33996 -11.99991,-11.9999 z"
       style="fill:#ffffff;fill-opacity:1;fill-rule:nonzero;stroke:none;stroke-width:0.75"
       inkscape:connector-curvature="0" /><path
       id="path2094-6-7"
       d="m 226.37359,66.483676 c 0,-6.59996 5.39996,-11.93991 11.99991,-11.93991 6.65995,0 11.99991,5.33995 11.99991,11.93991 0,6.65994 -5.33996,11.9999 -11.99991,11.9999 -6.59995,0 -11.99991,-5.33996 -11.99991,-11.9999 z"
       style="fill:#80b3ff;fill-opacity:1;fill-rule:nonzero;stroke:#214478;stroke-width:1.49998891px;stroke-linecap:butt;stroke-linejoin:miter;stroke-miterlimit:4;stroke-dasharray:none;stroke-opacity:1"
       inkscape:connector-curvature="0" /><path
       id="path2096-9-0"
       d="m 232.04354,65.613681 c -0.06,0.12 -0.12,0.24 -0.12,0.42 0,0.12 0,0.24 0.12,0.3 0.06,0.12 0.18,0.18 0.24,0.18 0.12,0.06 0.24,0.06 0.48,0.06 h 4.61996 v 4.61995 c 0,0.54 0.18,0.78 0.54,0.78 0.36,0 0.53999,-0.24 0.53999,-0.78 v -4.61995 h 4.67997 c 0.48,0 0.71999,-0.18 0.71999,-0.54 0,-0.36 -0.23999,-0.54 -0.71999,-0.54 h -4.67997 v -4.67997 c 0,-0.53999 -0.17999,-0.77999 -0.53999,-0.77999 -0.18,0 -0.3,0 -0.36,0.12 -0.12,0.06 -0.18,0.17999 -0.18,0.29999 0,0 0,0.18 0,0.36 v 4.67997 h -4.67996 c -0.06,-0.06 -0.06,-0.06 -0.12,-0.06 -0.24,0 -0.42,0.06 -0.54,0.18 z"
       style="fill:#214478;fill-opacity:1;fill-rule:nonzero;stroke:none;stroke-width:0.75"
       inkscape:connector-curvature="0" /><path
       style="fill:none;stroke:#214478;stroke-width:1.5;stroke-linecap:butt;stroke-linejoin:miter;stroke-miterlimit:4;stroke-dasharray:none;stroke-opacity:1;marker-end:url(#Arrow1Mend-8-6-9-5)"
       d="m 187.19651,66.003676 h 36.16474"
       id="path4543-0-3-7-6"
       inkscape:connector-curvature="0"
       sodipodi:nodetypes="cc" /><path
       style="fill:none;stroke:#214478;stroke-width:1.5;stroke-linecap:butt;stroke-linejoin:miter;stroke-miterlimit:4;stroke-dasharray:none;stroke-opacity:1;marker-end:url(#Arrow1Mend-8-6-9-5-4)"
       d="M 333.90787,66.003676 H 376.6796"
       id="path4543-0-3-7-6-7"
       inkscape:connector-curvature="0"
       sodipodi:nodetypes="cc" /><path
       d="m 279.8425,45.901245 h 55.6284 v 40.204862 h -55.6284 z"
       style="fill:#d5e5ff;fill-opacity:1;stroke:#214478;stroke-width:1.5;stroke-linecap:butt;stroke-linejoin:miter;stroke-miterlimit:10;stroke-dasharray:none;stroke-opacity:1"
       id="path26-3-8-3"
       inkscape:connector-curvature="0" /><path
       d="m 380.21069,45.901245 h 55.6284 v 40.204862 h -55.6284 z"
       style="fill:#d5e5ff;fill-opacity:1;stroke:#214478;stroke-width:1.5;stroke-linecap:butt;stroke-linejoin:miter;stroke-miterlimit:10;stroke-dasharray:none;stroke-opacity:1"
       id="path26-3-8-3-2"
       inkscape:connector-curvature="0" /><path
       style="fill:none;stroke:#214478;stroke-width:1.5;stroke-linecap:butt;stroke-linejoin:miter;stroke-miterlimit:4;stroke-dasharray:none;stroke-opacity:1;marker-end:url(#Arrow1Mend-8-6-90)"
       d="m 435.54818,66.003676 h 69.2161"
       id="path4543-0-3-0"
       inkscape:connector-curvature="0"
       sodipodi:nodetypes="cc" /><circle
       style="opacity:1;fill:#214478;fill-opacity:1;stroke:#214478;stroke-width:1.5;stroke-linecap:round;stroke-linejoin:miter;stroke-miterlimit:4;stroke-dasharray:none;stroke-dashoffset:0;stroke-opacity:1;paint-order:stroke markers fill"
       id="path6214-2"
       cx="356.77176"
       cy="-66.003677"
       r="1.6314392"
       transform="scale(1,-1)" /><circle
       style="opacity:1;fill:#214478;fill-opacity:1;stroke:#214478;stroke-width:1.5;stroke-linecap:round;stroke-linejoin:miter;stroke-miterlimit:4;stroke-dasharray:none;stroke-dashoffset:0;stroke-opacity:1;paint-order:stroke markers fill"
       id="path6214-1"
       cx="461.10406"
       cy="-66.003677"
       r="1.6314392"
       transform="scale(1,-1)" /><path
       style="fill:none;stroke:#214478;stroke-width:1.5;stroke-linecap:butt;stroke-linejoin:miter;stroke-miterlimit:4;stroke-dasharray:none;stroke-opacity:1;marker-end:url(#marker6713)"
       d="M 356.77175,66.003676 V 7.088671e-6 H 79.004822 V 53.392561"
       id="path6523"
       inkscape:connector-curvature="0" /><path
       style="fill:none;stroke:#214478;stroke-width:1.5;stroke-linecap:butt;stroke-linejoin:miter;stroke-miterlimit:4;stroke-dasharray:none;stroke-opacity:1;marker-end:url(#marker6535)"
       d="M 461.10407,66.003676 V 30.255787 H 237.8935 v 21.060397"
       id="path6525"
       inkscape:connector-curvature="0"
       sodipodi:nodetypes="cccc" /><text
       xml:space="preserve"
       style="font-style:normal;font-variant:normal;font-weight:normal;font-stretch:normal;font-size:30px;line-height:1.25;font-family:'CMU Sans Serif';-inkscape-font-specification:'CMU Sans Serif';letter-spacing:0px;word-spacing:0px;fill:#214478;fill-opacity:1;stroke:none;stroke-width:0.75"
       x="144.6261"
       y="-58.933678"
       id="text5223-1-8-3-3"
       transform="scale(1,-1)"><tspan
         sodipodi:role="line"
         id="tspan5221-6-2-0-6"
         x="144.6261"
         y="-58.933678"
         style="font-style:italic;font-variant:normal;font-weight:500;font-stretch:normal;font-size:28px;font-family:'CMU Serif';-inkscape-font-specification:'CMU Serif Medium Italic';letter-spacing:-2.65499997px;fill:#214478;fill-opacity:1;stroke-width:0.75">G<tspan
   style="font-size:48.75000119%;baseline-shift:sub"
   id="tspan6855">1</tspan></tspan></text>
<text
       xml:space="preserve"
       style="font-style:normal;font-variant:normal;font-weight:normal;font-stretch:normal;font-size:30px;line-height:1.25;font-family:'CMU Sans Serif';-inkscape-font-specification:'CMU Sans Serif';letter-spacing:0px;word-spacing:0px;fill:#214478;fill-opacity:1;stroke:none;stroke-width:0.75"
       x="292.2955"
       y="-59.083824"
       id="text5223-1-8-3-3-1"
       transform="scale(1,-1)"><tspan
         sodipodi:role="line"
         id="tspan5221-6-2-0-6-8"
         x="292.2955"
         y="-59.083824"
         style="font-style:italic;font-variant:normal;font-weight:500;font-stretch:normal;font-size:28px;font-family:'CMU Serif';-inkscape-font-specification:'CMU Serif Medium Italic';letter-spacing:-2.65499997px;fill:#214478;fill-opacity:1;stroke-width:0.75">G<tspan
   style="font-size:48.75000119%;baseline-shift:sub"
   id="tspan6878">2</tspan></tspan></text>
<text
       xml:space="preserve"
       style="font-style:normal;font-variant:normal;font-weight:normal;font-stretch:normal;font-size:30px;line-height:1.25;font-family:'CMU Sans Serif';-inkscape-font-specification:'CMU Sans Serif';letter-spacing:0px;word-spacing:0px;fill:#214478;fill-opacity:1;stroke:none;stroke-width:0.75"
       x="392.58862"
       y="-59.083824"
       id="text5223-1-8-3-3-1-6"
       transform="scale(1,-1)"><tspan
         sodipodi:role="line"
         id="tspan5221-6-2-0-6-8-3"
         x="392.58862"
         y="-59.083824"
         style="font-style:italic;font-variant:normal;font-weight:500;font-stretch:normal;font-size:28px;font-family:'CMU Serif';-inkscape-font-specification:'CMU Serif Medium Italic';letter-spacing:-2.65499997px;fill:#214478;fill-opacity:1;stroke-width:0.75">G<tspan
   style="font-size:48.75000119%;baseline-shift:sub"
   id="tspan6901">3</tspan></tspan></text>
<text
       xml:space="preserve"
       style="font-style:normal;font-weight:normal;font-size:30px;line-height:37.5px;font-family:sans-serif;letter-spacing:0px;word-spacing:0px;fill:#214478;fill-opacity:1;stroke:none;stroke-width:0.75"
       x="85.319916"
       y="-31.63242"
       id="text2069-4-2"
       transform="scale(1,-1)"><tspan
         sodipodi:role="line"
         id="tspan2067-7-1"
         x="85.319916"
         y="-31.63242"
         style="font-style:normal;font-variant:normal;font-weight:normal;font-stretch:normal;font-size:22px;line-height:37.5px;font-family:'CMU Sans Serif';-inkscape-font-specification:'CMU Sans Serif';fill:#214478;fill-opacity:1;stroke-width:0.75">–</tspan></text>
<text
       xml:space="preserve"
       style="font-style:normal;font-weight:normal;font-size:30px;line-height:16.5px;font-family:sans-serif;letter-spacing:0px;word-spacing:0px;fill:#214478;fill-opacity:1;stroke:none;stroke-width:0.75"
       x="246.70567"
       y="-31.63242"
       id="text2069-4-21"
       transform="scale(1,-1)"><tspan
         sodipodi:role="line"
         id="tspan2067-7-3"
         x="246.70567"
         y="-31.63242"
         style="font-style:normal;font-variant:normal;font-weight:normal;font-stretch:normal;font-size:22px;font-family:'CMU Sans Serif';-inkscape-font-specification:'CMU Sans Serif';fill:#214478;fill-opacity:1;stroke-width:0.75">–</tspan></text>
<path
       id="path2096-9-9"
       d="m 41.610094,77.985429 c -0.06,0.12 -0.12,0.24 -0.12,0.42 0,0.12 0,0.24 0.12,0.3 0.06,0.12 0.18,0.18 0.24,0.18 0.12,0.06 0.24,0.06 0.479999,0.06 h 4.619964 v 4.61995 c 0,0.54 0.18,0.78 0.54,0.78 0.36,0 0.539985,-0.24 0.539985,-0.78 v -4.61995 h 4.67997 c 0.48,0 0.719992,-0.18 0.719992,-0.54 0,-0.36 -0.239992,-0.54 -0.719992,-0.54 h -4.67997 v -4.67997 c 0,-0.53999 -0.179985,-0.77999 -0.539985,-0.77999 -0.18,0 -0.3,0 -0.36,0.12 -0.12,0.06 -0.18,0.17999 -0.18,0.29999 0,0 0,0.18 0,0.36 v 4.67997 h -4.679964 c -0.06,-0.06 -0.06,-0.06 -0.119999,-0.06 -0.24,0 -0.42,0.06 -0.54,0.18 z"
       style="fill:#214478;fill-opacity:1;fill-rule:nonzero;stroke:none;stroke-width:0.75"
       inkscape:connector-curvature="0" /><path
       id="path2096-9-9-4"
       d="m 201.63945,77.985429 c -0.06,0.12 -0.12,0.24 -0.12,0.42 0,0.12 0,0.24 0.12,0.3 0.06,0.12 0.18,0.18 0.24,0.18 0.12,0.06 0.24,0.06 0.48,0.06 h 4.61996 v 4.61995 c 0,0.54 0.18,0.78 0.54,0.78 0.36,0 0.53999,-0.24 0.53999,-0.78 v -4.61995 h 4.67997 c 0.48,0 0.71999,-0.18 0.71999,-0.54 0,-0.36 -0.23999,-0.54 -0.71999,-0.54 h -4.67997 v -4.67997 c 0,-0.53999 -0.17999,-0.77999 -0.53999,-0.77999 -0.18,0 -0.3,0 -0.36,0.12 -0.12,0.06 -0.18,0.17999 -0.18,0.29999 0,0 0,0.18 0,0.36 v 4.67997 h -4.67996 c -0.06,-0.06 -0.06,-0.06 -0.12,-0.06 -0.24,0 -0.42,0.06 -0.54,0.18 z"
       style="fill:#214478;fill-opacity:1;fill-rule:nonzero;stroke:none;stroke-width:0.75"
       inkscape:connector-curvature="0" /></g></svg>