<?xml version="1.0" encoding="UTF-8" standalone="no"?>
<!-- Created with Inkscape (http://www.inkscape.org/) -->

<svg
   xmlns:dc="http://purl.org/dc/elements/1.1/"
   xmlns:cc="http://creativecommons.org/ns#"
   xmlns:rdf="http://www.w3.org/1999/02/22-rdf-syntax-ns#"
   xmlns:svg="http://www.w3.org/2000/svg"
   xmlns="http://www.w3.org/2000/svg"
   xmlns:sodipodi="http://sodipodi.sourceforge.net/DTD/sodipodi-0.dtd"
   xmlns:inkscape="http://www.inkscape.org/namespaces/inkscape"
   version="1.1"
   id="svg2"
   xml:space="preserve"
   width="658.37347"
   height="120.56645"
   viewBox="0 0 658.37347 120.56645"
   sodipodi:docname="example.svg"
   inkscape:version="0.92.0 r15299"><metadata
     id="metadata8"><rdf:RDF><cc:Work
         rdf:about=""><dc:format>image/svg+xml</dc:format><dc:type
           rdf:resource="http://purl.org/dc/dcmitype/StillImage" /><dc:title></dc:title></cc:Work></rdf:RDF></metadata><defs
     id="defs6"><clipPath
       clipPathUnits="userSpaceOnUse"
       id="clipPath18"><path
         d="M 0,955.48 V 0 h 4937.5 v 955.48 z"
         id="path16"
         inkscape:connector-curvature="0" /></clipPath><clipPath
       clipPathUnits="userSpaceOnUse"
       id="clipPath90"><path
         d="M 0,955.48 V 0 h 4937.5 v 955.48 z"
         id="path88"
         inkscape:connector-curvature="0" /></clipPath><clipPath
       clipPathUnits="userSpaceOnUse"
       id="clipPath112"><path
         d="M 0,955.48 V 0 h 4937.5 v 955.48 z"
         id="path110"
         inkscape:connector-curvature="0" /></clipPath><clipPath
       clipPathUnits="userSpaceOnUse"
       id="clipPath136"><path
         d="M 0,955.48 V 0 h 4937.5 v 955.48 z"
         id="path134"
         inkscape:connector-curvature="0" /></clipPath><clipPath
       clipPathUnits="userSpaceOnUse"
       id="clipPath154"><path
         d="M 0,955.48 V 0 h 4937.5 v 955.48 z"
         id="path152"
         inkscape:connector-curvature="0" /></clipPath></defs><sodipodi:namedview
     pagecolor="#ffffff"
     bordercolor="#666666"
     borderopacity="1"
     objecttolerance="10"
     gridtolerance="10"
     guidetolerance="10"
     inkscape:pageopacity="0"
     inkscape:pageshadow="2"
     inkscape:window-width="751"
     inkscape:window-height="480"
     id="namedview4"
     showgrid="false"
     fit-margin-top="0"
     fit-margin-left="0"
     fit-margin-right="0"
     fit-margin-bottom="0"
     inkscape:zoom="0.22348485"
     inkscape:cx="408"
     inkscape:cy="528"
     inkscape:window-x="0"
     inkscape:window-y="0"
     inkscape:window-maximized="0"
     inkscape:current-layer="g10" /><g
     id="g10"
     inkscape:groupmode="layer"
     inkscape:label="A9R1v21821_16j7tc8_4vo"
     transform="matrix(1.3333333,0,0,-1.3333333,0,120.56646)"><g
       id="g12"
       transform="scale(0.1000061)"><g
         id="g14"
         clip-path="url(#clipPath18)"><g
           id="g20"
           transform="translate(660,660)"><path
             d="M 0,0 C 0,71.797 58.203,130 130,130 201.797,130 260,71.797 260,0 260,-71.797 201.797,-130 130,-130 58.203,-130 0,-71.797 0,0"
             style="fill:#ffffff;fill-opacity:1;fill-rule:nonzero;stroke:none"
             id="path22"
             inkscape:connector-curvature="0" /><path
             d="M 0,0 C 0,71.797 58.203,130 130,130 201.797,130 260,71.797 260,0 260,-71.797 201.797,-130 130,-130 58.203,-130 0,-71.797 0,0 Z"
             style="fill:none;stroke:#211c1d;stroke-width:20;stroke-linecap:butt;stroke-linejoin:miter;stroke-miterlimit:10;stroke-dasharray:none;stroke-opacity:1"
             id="path24"
             inkscape:connector-curvature="0" /><g
             id="g26"
             transform="translate(-660,-660)"><path
               d="m 1407.5,541.25 h 400 v 300 h -400 z"
               style="fill:#ffffff;fill-opacity:1;fill-rule:nonzero;stroke:none"
               id="path28"
               inkscape:connector-curvature="0" /><path
               d="m 1407.5,541.25 h 400 v 300 h -400 z"
               style="fill:none;stroke:#211c1d;stroke-width:20;stroke-linecap:butt;stroke-linejoin:miter;stroke-miterlimit:10;stroke-dasharray:none;stroke-opacity:1"
               id="path30"
               inkscape:connector-curvature="0" /><g
               id="g32"
               transform="translate(0,660)"><path
                 d="M 0,0 H 589.395"
                 style="fill:none;stroke:#211c1d;stroke-width:20;stroke-linecap:butt;stroke-linejoin:miter;stroke-miterlimit:10;stroke-dasharray:none;stroke-opacity:1"
                 id="path34"
                 inkscape:connector-curvature="0" /><g
                 id="g36"
                 transform="translate(660)"><path
                   d="M 0,0 -99.492,-40.652 -75.883,0 -99.492,40.645 0,0"
                   style="fill:#211c1d;fill-opacity:1;fill-rule:nonzero;stroke:none"
                   id="path38"
                   inkscape:connector-curvature="0" /><g
                   id="g40"
                   transform="translate(260)"><path
                     d="M 0,0 H 416.89"
                     style="fill:none;stroke:#211c1d;stroke-width:20;stroke-linecap:butt;stroke-linejoin:miter;stroke-miterlimit:10;stroke-dasharray:none;stroke-opacity:1"
                     id="path42"
                     inkscape:connector-curvature="0" /><g
                     id="g44"
                     transform="translate(487.5)"><path
                       d="M 0,0 -99.49,-40.652 -75.88,0 -99.49,40.645 0,0"
                       style="fill:#211c1d;fill-opacity:1;fill-rule:nonzero;stroke:none"
                       id="path46"
                       inkscape:connector-curvature="0" /><g
                       id="g48"
                       transform="translate(400)"><path
                         d="M 0,0 H 441.89"
                         style="fill:none;stroke:#211c1d;stroke-width:20;stroke-linecap:butt;stroke-linejoin:miter;stroke-miterlimit:10;stroke-dasharray:none;stroke-opacity:1"
                         id="path50"
                         inkscape:connector-curvature="0" /><g
                         id="g52"
                         transform="translate(512.5)"><path
                           d="M 0,0 -99.49,-40.652 -75.88,0 -99.49,40.645 0,0"
                           style="fill:#211c1d;fill-opacity:1;fill-rule:nonzero;stroke:none"
                           id="path54"
                           inkscape:connector-curvature="0" /><g
                           id="g56"
                           transform="translate(925,3.75)"><path
                             d="M 0,0 H 574.39"
                             style="fill:none;stroke:#211c1d;stroke-width:20;stroke-linecap:butt;stroke-linejoin:miter;stroke-miterlimit:10;stroke-dasharray:none;stroke-opacity:1"
                             id="path58"
                             inkscape:connector-curvature="0" /><g
                             id="g60"
                             transform="translate(645)"><path
                               d="M 0,0 -99.49,-40.652 -75.88,0 -99.49,40.645 0,0"
                               style="fill:#211c1d;fill-opacity:1;fill-rule:nonzero;stroke:none"
                               id="path62"
                               inkscape:connector-curvature="0" /><g
                               id="g64"
                               transform="translate(-322.5,-653.75)"><path
                                 d="M 0,0 H -2777.5 V 449.395"
                                 style="fill:none;stroke:#211c1d;stroke-width:20;stroke-linecap:butt;stroke-linejoin:miter;stroke-miterlimit:10;stroke-dasharray:none;stroke-opacity:1"
                                 id="path66"
                                 inkscape:connector-curvature="0" /><g
                                 id="g68"
                                 transform="translate(-2777.5,520)"><path
                                   d="M 0,0 40.652,-99.492 0,-75.883 -40.645,-99.492 0,0"
                                   style="fill:#211c1d;fill-opacity:1;fill-rule:nonzero;stroke:none"
                                   id="path70"
                                   inkscape:connector-curvature="0" /><g
                                   id="g72"
                                   transform="translate(-790,-530)"><path
                                   d="m 3890,541.25 h 380 v 300 h -380 z"
                                   style="fill:#ffffff;fill-opacity:1;fill-rule:nonzero;stroke:none"
                                   id="path74"
                                   inkscape:connector-curvature="0" /></g></g></g></g></g></g></g></g></g></g></g></g></g></g></g><text
       transform="matrix(1,0,0,-1,150.25,63.335)"
       style="font-variant:normal;font-weight:normal;font-size:24px;font-family:MyriadPro;-inkscape-font-specification:MyriadPro-Regular;writing-mode:lr-tb;fill:#100f0d;fill-opacity:1;fill-rule:nonzero;stroke:none"
       id="text78"><tspan
         x="0"
         y="0"
         id="tspan76">G</tspan></text>
<text
       transform="matrix(1,0,0,-1,165.754,55.343)"
       style="font-variant:normal;font-weight:normal;font-size:13.99199963px;font-family:MyriadPro;-inkscape-font-specification:MyriadPro-Regular;writing-mode:lr-tb;fill:#100f0d;fill-opacity:1;fill-rule:nonzero;stroke:none"
       id="text82"><tspan
         x="0"
         y="0"
         id="tspan80">1</tspan></text>
<g
       id="g84"
       transform="scale(0.1000061)"><g
         id="g86"
         clip-path="url(#clipPath90)"><g
           id="g92"><path
             d="m 3890,541.25 h 380 v 300 h -380 z"
             style="fill:none;stroke:#211c1d;stroke-width:20;stroke-linecap:butt;stroke-linejoin:miter;stroke-miterlimit:10;stroke-dasharray:none;stroke-opacity:1"
             id="path94"
             inkscape:connector-curvature="0" /><path
             d="m 2857.5,541.25 h 380 v 300 h -380 z"
             style="fill:#ffffff;fill-opacity:1;fill-rule:nonzero;stroke:none"
             id="path96"
             inkscape:connector-curvature="0" /></g></g></g><text
       transform="matrix(1,0,0,-1,395.375,62)"
       style="font-variant:normal;font-weight:normal;font-size:24px;font-family:MyriadPro;-inkscape-font-specification:MyriadPro-Regular;writing-mode:lr-tb;fill:#100f0d;fill-opacity:1;fill-rule:nonzero;stroke:none"
       id="text100"><tspan
         x="0"
         y="0"
         id="tspan98">G</tspan></text>
<text
       transform="matrix(1,0,0,-1,410.879,54.008)"
       style="font-variant:normal;font-weight:normal;font-size:13.99199963px;font-family:MyriadPro;-inkscape-font-specification:MyriadPro-Regular;writing-mode:lr-tb;fill:#100f0d;fill-opacity:1;fill-rule:nonzero;stroke:none"
       id="text104"><tspan
         x="0"
         y="0"
         id="tspan102">3</tspan></text>
<g
       id="g106"
       transform="scale(0.1000061)"><g
         id="g108"
         clip-path="url(#clipPath112)"><g
           id="g114"><path
             d="m 2857.5,541.25 h 380 v 300 h -380 z"
             style="fill:none;stroke:#211c1d;stroke-width:20;stroke-linecap:butt;stroke-linejoin:miter;stroke-miterlimit:10;stroke-dasharray:none;stroke-opacity:1"
             id="path116"
             inkscape:connector-curvature="0" /></g></g></g><text
       transform="matrix(1,0,0,-1,292.75,62.96)"
       style="font-variant:normal;font-weight:normal;font-size:24px;font-family:MyriadPro;-inkscape-font-specification:MyriadPro-Regular;writing-mode:lr-tb;fill:#100f0d;fill-opacity:1;fill-rule:nonzero;stroke:none"
       id="text120"><tspan
         x="0"
         y="0"
         id="tspan118">G</tspan></text>
<text
       transform="matrix(1,0,0,-1,308.254,54.968)"
       style="font-variant:normal;font-weight:normal;font-size:13.99199963px;font-family:MyriadPro;-inkscape-font-specification:MyriadPro-Regular;writing-mode:lr-tb;fill:#100f0d;fill-opacity:1;fill-rule:nonzero;stroke:none"
       id="text124"><tspan
         x="0"
         y="0"
         id="tspan122">2</tspan></text>
<text
       transform="matrix(1,0,0,-1,89.75,37.71)"
       style="font-variant:normal;font-weight:normal;font-size:24px;font-family:MyriadPro;-inkscape-font-specification:MyriadPro-Regular;writing-mode:lr-tb;fill:#100f0d;fill-opacity:1;fill-rule:nonzero;stroke:none"
       id="text128"><tspan
         x="0"
         y="0"
         id="tspan126">-</tspan></text>
<g
       id="g130"
       transform="scale(0.1000061)"><g
         id="g132"
         clip-path="url(#clipPath136)"><g
           id="g138"
           transform="translate(2319.9999,663.74998)"><path
             d="M 0,0 C 0,71.797 58.2,130 130,130 201.8,130 260,71.797 260,0 260,-71.797 201.8,-130 130,-130 58.2,-130 0,-71.797 0,0"
             style="fill:#ffffff;fill-opacity:1;fill-rule:nonzero;stroke:none"
             id="path140"
             inkscape:connector-curvature="0" /><path
             d="M 0,0 C 0,71.797 58.2,130 130,130 201.8,130 260,71.797 260,0 260,-71.797 201.8,-130 130,-130 58.2,-130 0,-71.797 0,0 Z"
             style="fill:none;stroke:#211c1d;stroke-width:20;stroke-linecap:butt;stroke-linejoin:miter;stroke-miterlimit:10;stroke-dasharray:none;stroke-opacity:1"
             id="path142"
             inkscape:connector-curvature="0" /></g></g></g><text
       transform="matrix(1,0,0,-1,255.75,38.086)"
       style="font-variant:normal;font-weight:normal;font-size:24px;font-family:MyriadPro;-inkscape-font-specification:MyriadPro-Regular;writing-mode:lr-tb;fill:#100f0d;fill-opacity:1;fill-rule:nonzero;stroke:none"
       id="text146"><tspan
         x="0"
         y="0"
         id="tspan144">-</tspan></text>
<g
       id="g148"
       transform="scale(0.1000061)"><g
         id="g150"
         clip-path="url(#clipPath154)"><g
           id="g156"
           transform="translate(2579.9999,663.74998)"><path
             d="M 0,0 H 277.5"
             style="fill:none;stroke:#211c1d;stroke-width:20;stroke-linecap:butt;stroke-linejoin:miter;stroke-miterlimit:10;stroke-dasharray:none;stroke-opacity:1"
             id="path158"
             inkscape:connector-curvature="0" /><g
             id="g160"
             transform="translate(987.5,-653.75)"><path
               d="M 0,0 V 653.75"
               style="fill:none;stroke:#211c1d;stroke-width:20;stroke-linecap:butt;stroke-linejoin:miter;stroke-miterlimit:10;stroke-dasharray:none;stroke-opacity:1"
               id="path162"
               inkscape:connector-curvature="0" /><g
               id="g164"
               transform="translate(702.5,650)"><path
                 d="M 0,0 H 596.89"
                 style="fill:none;stroke:#211c1d;stroke-width:20;stroke-linecap:butt;stroke-linejoin:miter;stroke-miterlimit:10;stroke-dasharray:none;stroke-opacity:1"
                 id="path166"
                 inkscape:connector-curvature="0" /><g
                 id="g168"
                 transform="translate(667.5)"><path
                   d="M 0,0 -99.49,-40.652 -75.88,0 -99.49,40.645 0,0"
                   style="fill:#211c1d;fill-opacity:1;fill-rule:nonzero;stroke:none"
                   id="path170"
                   inkscape:connector-curvature="0" /><g
                   id="g172"
                   transform="translate(-450)"><path
                     d="m 0,0 v -390 h -2037.5 v 193.145"
                     style="fill:none;stroke:#211c1d;stroke-width:20;stroke-linecap:butt;stroke-linejoin:miter;stroke-miterlimit:10;stroke-dasharray:none;stroke-opacity:1"
                     id="path174"
                     inkscape:connector-curvature="0" /><g
                     id="g176"
                     transform="translate(-2037.5,-126.25)"><path
                       d="M 0,0 40.65,-99.492 0,-75.883 -40.64,-99.492 0,0"
                       style="fill:#211c1d;fill-opacity:1;fill-rule:nonzero;stroke:none"
                       id="path178"
                       inkscape:connector-curvature="0" /><g
                       id="g180"
                       transform="translate(2077.5,126.25)"><path
                         d="m 0,0 c 0,-22.09 -17.91,-40 -40,-40 -22.09,0 -40,17.91 -40,40 0,22.09 17.91,40 40,40 C -17.91,40 0,22.09 0,0"
                         style="fill:#100f0d;fill-opacity:1;fill-rule:nonzero;stroke:none"
                         id="path182"
                         inkscape:connector-curvature="0" /><path
                         d="m 0,0 c 0,-22.09 -17.91,-40 -40,-40 -22.09,0 -40,17.91 -40,40 0,22.09 17.91,40 40,40 C -17.91,40 0,22.09 0,0 Z"
                         style="fill:none;stroke:#211c1d;stroke-width:20;stroke-linecap:butt;stroke-linejoin:miter;stroke-miterlimit:10;stroke-dasharray:none;stroke-opacity:1"
                         id="path184"
                         inkscape:connector-curvature="0" /><g
                         id="g186"
                         transform="translate(-920)"><path
                           d="m 0,0 c 0,-22.09 -17.91,-40 -40,-40 -22.09,0 -40,17.91 -40,40 0,22.09 17.91,40 40,40 C -17.91,40 0,22.09 0,0"
                           style="fill:#100f0d;fill-opacity:1;fill-rule:nonzero;stroke:none"
                           id="path188"
                           inkscape:connector-curvature="0" /><path
                           d="m 0,0 c 0,-22.09 -17.91,-40 -40,-40 -22.09,0 -40,17.91 -40,40 0,22.09 17.91,40 40,40 C -17.91,40 0,22.09 0,0 Z"
                           style="fill:none;stroke:#211c1d;stroke-width:20;stroke-linecap:butt;stroke-linejoin:miter;stroke-miterlimit:10;stroke-dasharray:none;stroke-opacity:1"
                           id="path190"
                           inkscape:connector-curvature="0" /></g></g></g></g></g></g></g></g></g></g><text
       transform="matrix(1,0,0,-1,212.75,75.46)"
       style="font-variant:normal;font-weight:normal;font-size:24px;font-family:MyriadPro;-inkscape-font-specification:MyriadPro-Regular;writing-mode:lr-tb;fill:#100f0d;fill-opacity:1;fill-rule:nonzero;stroke:none"
       id="text194"><tspan
         x="0"
         y="0"
         id="tspan192">+</tspan></text>
<text
       transform="matrix(1,0,0,-1,466.75,78.999)"
       style="font-variant:normal;font-weight:normal;font-size:18px;font-family:MyriadPro;-inkscape-font-specification:MyriadPro-Regular;writing-mode:lr-tb;fill:#100f0d;fill-opacity:1;fill-rule:nonzero;stroke:none"
       id="text200"><tspan
         x="0"
         y="0"
         id="tspan196">y</tspan><tspan
         x="-466"
         y="5.1550002"
         id="tspan198">u</tspan></text>
<text
       transform="matrix(1,0,0,-1,41.75,75.46)"
       style="font-variant:normal;font-weight:normal;font-size:24px;font-family:MyriadPro;-inkscape-font-specification:MyriadPro-Regular;writing-mode:lr-tb;fill:#100f0d;fill-opacity:1;fill-rule:nonzero;stroke:none"
       id="text204"><tspan
         x="0"
         y="0"
         id="tspan202">+</tspan></text>
</g></svg>