<?xml version="1.0" encoding="UTF-8" standalone="no"?>
<!-- Created with Inkscape (http://www.inkscape.org/) -->

<svg
   xmlns:dc="http://purl.org/dc/elements/1.1/"
   xmlns:cc="http://creativecommons.org/ns#"
   xmlns:rdf="http://www.w3.org/1999/02/22-rdf-syntax-ns#"
   xmlns:svg="http://www.w3.org/2000/svg"
   xmlns="http://www.w3.org/2000/svg"
   xmlns:sodipodi="http://sodipodi.sourceforge.net/DTD/sodipodi-0.dtd"
   xmlns:inkscape="http://www.inkscape.org/namespaces/inkscape"
   version="1.1"
   id="svg2"
   xml:space="preserve"
   width="474.7243"
   height="353.99567"
   viewBox="0 0 474.7243 353.99567"
   sodipodi:docname="root-locus2.svg"
   inkscape:version="0.92.0 r15299"><metadata
     id="metadata8"><rdf:RDF><cc:Work
         rdf:about=""><dc:format>image/svg+xml</dc:format><dc:type
           rdf:resource="http://purl.org/dc/dcmitype/StillImage" /><dc:title></dc:title></cc:Work></rdf:RDF></metadata><defs
     id="defs6"><clipPath
       clipPathUnits="userSpaceOnUse"
       id="clipPath18"><path
         d="M 0,3150 V 0 h 4199.17 v 3150 z"
         id="path16"
         inkscape:connector-curvature="0" /></clipPath><clipPath
       clipPathUnits="userSpaceOnUse"
       id="clipPath40"><path
         d="M 0,3150 V 0 h 4199.17 v 3150 z"
         id="path38"
         inkscape:connector-curvature="0" /></clipPath><clipPath
       clipPathUnits="userSpaceOnUse"
       id="clipPath60"><path
         d="M 0,3150 V 0 h 4199.17 v 3150 z"
         id="path58"
         inkscape:connector-curvature="0" /></clipPath><clipPath
       clipPathUnits="userSpaceOnUse"
       id="clipPath76"><path
         d="M 0,3150 V 0 h 4199.17 v 3150 z"
         id="path74"
         inkscape:connector-curvature="0" /></clipPath><clipPath
       clipPathUnits="userSpaceOnUse"
       id="clipPath92"><path
         d="M 0,3150 V 0 h 4199.17 v 3150 z"
         id="path90"
         inkscape:connector-curvature="0" /></clipPath><clipPath
       clipPathUnits="userSpaceOnUse"
       id="clipPath108"><path
         d="M 0,3150 V 0 h 4199.17 v 3150 z"
         id="path106"
         inkscape:connector-curvature="0" /></clipPath><clipPath
       clipPathUnits="userSpaceOnUse"
       id="clipPath124"><path
         d="M 0,3150 V 0 h 4199.17 v 3150 z"
         id="path122"
         inkscape:connector-curvature="0" /></clipPath><clipPath
       clipPathUnits="userSpaceOnUse"
       id="clipPath140"><path
         d="M 0,3150 V 0 h 4199.17 v 3150 z"
         id="path138"
         inkscape:connector-curvature="0" /></clipPath><clipPath
       clipPathUnits="userSpaceOnUse"
       id="clipPath156"><path
         d="M 0,3150 V 0 h 4199.17 v 3150 z"
         id="path154"
         inkscape:connector-curvature="0" /></clipPath><clipPath
       clipPathUnits="userSpaceOnUse"
       id="clipPath172"><path
         d="M 0,3150 V 0 h 4199.17 v 3150 z"
         id="path170"
         inkscape:connector-curvature="0" /></clipPath><clipPath
       clipPathUnits="userSpaceOnUse"
       id="clipPath188"><path
         d="M 0,3150 V 0 h 4199.17 v 3150 z"
         id="path186"
         inkscape:connector-curvature="0" /></clipPath><clipPath
       clipPathUnits="userSpaceOnUse"
       id="clipPath208"><path
         d="M 0,3150 V 0 h 4199.17 v 3150 z"
         id="path206"
         inkscape:connector-curvature="0" /></clipPath><clipPath
       clipPathUnits="userSpaceOnUse"
       id="clipPath224"><path
         d="M 0,3150 V 0 h 4199.17 v 3150 z"
         id="path222"
         inkscape:connector-curvature="0" /></clipPath><clipPath
       clipPathUnits="userSpaceOnUse"
       id="clipPath240"><path
         d="M 0,3150 V 0 h 4199.17 v 3150 z"
         id="path238"
         inkscape:connector-curvature="0" /></clipPath><clipPath
       clipPathUnits="userSpaceOnUse"
       id="clipPath258"><path
         d="M 0,3150 V 0 h 4199.17 v 3150 z"
         id="path256"
         inkscape:connector-curvature="0" /></clipPath><clipPath
       clipPathUnits="userSpaceOnUse"
       id="clipPath274"><path
         d="M 0,3150 V 0 h 4199.17 v 3150 z"
         id="path272"
         inkscape:connector-curvature="0" /></clipPath><clipPath
       clipPathUnits="userSpaceOnUse"
       id="clipPath290"><path
         d="M 0,3150 V 0 h 4199.17 v 3150 z"
         id="path288"
         inkscape:connector-curvature="0" /></clipPath><clipPath
       clipPathUnits="userSpaceOnUse"
       id="clipPath306"><path
         d="M 0,3150 V 0 h 4199.17 v 3150 z"
         id="path304"
         inkscape:connector-curvature="0" /></clipPath><clipPath
       clipPathUnits="userSpaceOnUse"
       id="clipPath326"><path
         d="M 635.836,345.832 H 3800.83 V 2763.34 H 635.836 Z"
         id="path324"
         inkscape:connector-curvature="0" /></clipPath><clipPath
       clipPathUnits="userSpaceOnUse"
       id="clipPath342"><path
         d="m 544.164,1462.5 h 184.172 v 184.17 H 544.164 Z"
         id="path340"
         inkscape:connector-curvature="0" /></clipPath><clipPath
       clipPathUnits="userSpaceOnUse"
       id="clipPath354"><path
         d="M 635.836,345.832 H 3800.83 V 2763.34 H 635.836 Z"
         id="path352"
         inkscape:connector-curvature="0" /></clipPath><clipPath
       clipPathUnits="userSpaceOnUse"
       id="clipPath366"><path
         d="M 0,3150 V 0 h 4199.17 v 3150 z"
         id="path364"
         inkscape:connector-curvature="0" /></clipPath><clipPath
       clipPathUnits="userSpaceOnUse"
       id="clipPath398"><path
         d="M 0,3150 V 0 h 4199.17 v 3150 z"
         id="path396"
         inkscape:connector-curvature="0" /></clipPath><clipPath
       clipPathUnits="userSpaceOnUse"
       id="clipPath420"><path
         d="M 0,3150 V 0 h 4199.17 v 3150 z"
         id="path418"
         inkscape:connector-curvature="0" /></clipPath><clipPath
       clipPathUnits="userSpaceOnUse"
       id="clipPath438"><path
         d="M 0,3150 V 0 h 4199.17 v 3150 z"
         id="path436"
         inkscape:connector-curvature="0" /></clipPath></defs><sodipodi:namedview
     pagecolor="#ffffff"
     bordercolor="#666666"
     borderopacity="1"
     objecttolerance="10"
     gridtolerance="10"
     guidetolerance="10"
     inkscape:pageopacity="0"
     inkscape:pageshadow="2"
     inkscape:window-width="640"
     inkscape:window-height="480"
     id="namedview4"
     showgrid="false"
     fit-margin-top="0"
     fit-margin-left="0"
     fit-margin-right="0"
     fit-margin-bottom="0"
     inkscape:zoom="0.22348485"
     inkscape:cx="296.66527"
     inkscape:cy="509.77967"
     inkscape:window-x="0"
     inkscape:window-y="0"
     inkscape:window-maximized="0"
     inkscape:current-layer="g10" /><g
     id="g10"
     inkscape:groupmode="layer"
     inkscape:label="A9Rh10a11_sikaxn_a6w"
     transform="matrix(1.3333333,0,0,-1.3333333,-33.029649,372.21599)"><g
       id="g12"
       transform="scale(0.1)"><g
         id="g14"
         clip-path="url(#clipPath18)"><path
           d="m 635.836,346.672 h 3164.16 v 2416.66 H 635.836 Z"
           style="fill:#ffffff;fill-opacity:1;fill-rule:evenodd;stroke:none"
           id="path20"
           inkscape:connector-curvature="0" /><g
           id="g22"
           transform="translate(635.836,346.672)"><path
             d="M 0,0 V 2416.668 H 3164.164 V 0 H 0"
             style="fill:none;stroke:#ffffff;stroke-width:10;stroke-linecap:butt;stroke-linejoin:round;stroke-miterlimit:10;stroke-dasharray:none;stroke-opacity:1"
             id="path24"
             inkscape:connector-curvature="0" /></g><g
           id="g26"
           transform="translate(635.836,2763.3401)"><path
             d="m 0,0 v -30.84 m 0,-2385.828 v 31.66 m 0,-31.66 V 0 M 0,-2416.668 H 3164.164 M 0,-2416.668 V 0 M 3164.164,-2416.668 V 0 M 0,-2416.668 H 3164.164 M 0,0 h 3164.164"
             style="fill:none;stroke:#7b7979;stroke-width:10;stroke-linecap:butt;stroke-linejoin:round;stroke-miterlimit:10;stroke-dasharray:none;stroke-opacity:1"
             id="path28"
             inkscape:connector-curvature="0" /></g></g></g><text
       transform="matrix(1,0,0,-1,56.749,24.42)"
       style="font-variant:normal;font-weight:normal;font-size:8px;font-family:Helvetica;-inkscape-font-specification:Helvetica;writing-mode:lr-tb;fill:#7a7d82;fill-opacity:1;fill-rule:nonzero;stroke:none"
       id="text32"><tspan
         x="0 4.7680001"
         y="0"
         sodipodi:role="line"
         id="tspan30">−1</tspan></text>
<g
       id="g34"
       transform="scale(0.1)"><g
         id="g36"
         clip-path="url(#clipPath40)"><g
           id="g42"
           transform="translate(951.664,2763.3401)"><path
             d="m 0,0 v -30.84 m 0,-2385.828 v 31.66"
             style="fill:none;stroke:#7b7979;stroke-width:10;stroke-linecap:butt;stroke-linejoin:round;stroke-miterlimit:10;stroke-dasharray:none;stroke-opacity:1"
             id="path44"
             inkscape:connector-curvature="0" /></g><g
           id="g46"
           transform="translate(1268.33,2763.3401)"><path
             d="m 0,0 v -30.84 m 0,-2385.828 v 31.66"
             style="fill:none;stroke:#7b7979;stroke-width:10;stroke-linecap:butt;stroke-linejoin:round;stroke-miterlimit:10;stroke-dasharray:none;stroke-opacity:1"
             id="path48"
             inkscape:connector-curvature="0" /></g></g></g><text
       transform="matrix(1,0,0,-1,85.007,24.42)"
       style="font-variant:normal;font-weight:normal;font-size:8px;font-family:Helvetica;-inkscape-font-specification:Helvetica;writing-mode:lr-tb;fill:#7a7d82;fill-opacity:1;fill-rule:nonzero;stroke:none"
       id="text52"><tspan
         x="0 4.7680001 8.8719997 10.5238"
         y="0"
         sodipodi:role="line"
         id="tspan50">−0.8</tspan></text>
<g
       id="g54"
       transform="scale(0.1)"><g
         id="g56"
         clip-path="url(#clipPath60)"><g
           id="g62"
           transform="translate(1585,2763.3401)"><path
             d="m 0,0 v -30.84 m 0,-2385.828 v 31.66"
             style="fill:none;stroke:#7b7979;stroke-width:10;stroke-linecap:butt;stroke-linejoin:round;stroke-miterlimit:10;stroke-dasharray:none;stroke-opacity:1"
             id="path64"
             inkscape:connector-curvature="0" /></g></g></g><text
       transform="matrix(1,0,0,-1,116.663,24.42)"
       style="font-variant:normal;font-weight:normal;font-size:8px;font-family:Helvetica;-inkscape-font-specification:Helvetica;writing-mode:lr-tb;fill:#7a7d82;fill-opacity:1;fill-rule:nonzero;stroke:none"
       id="text68"><tspan
         x="0 4.7680001 8.8719997 10.5332"
         y="0"
         sodipodi:role="line"
         id="tspan66">−0.6</tspan></text>
<g
       id="g70"
       transform="scale(0.1)"><g
         id="g72"
         clip-path="url(#clipPath76)"><g
           id="g78"
           transform="translate(1900.83,2763.3401)"><path
             d="m 0,0 v -30.84 m 0,-2385.828 v 31.66"
             style="fill:none;stroke:#7b7979;stroke-width:10;stroke-linecap:butt;stroke-linejoin:round;stroke-miterlimit:10;stroke-dasharray:none;stroke-opacity:1"
             id="path80"
             inkscape:connector-curvature="0" /></g></g></g><text
       transform="matrix(1,0,0,-1,148.335,24.42)"
       style="font-variant:normal;font-weight:normal;font-size:8px;font-family:Helvetica;-inkscape-font-specification:Helvetica;writing-mode:lr-tb;fill:#7a7d82;fill-opacity:1;fill-rule:nonzero;stroke:none"
       id="text84"><tspan
         x="0 4.7680001 8.8719997 10.5328"
         y="0"
         sodipodi:role="line"
         id="tspan82">−0.4</tspan></text>
<g
       id="g86"
       transform="scale(0.1)"><g
         id="g88"
         clip-path="url(#clipPath92)"><g
           id="g94"
           transform="translate(2217.5,2763.3401)"><path
             d="m 0,0 v -30.84 m 0,-2385.828 v 31.66"
             style="fill:none;stroke:#7b7979;stroke-width:10;stroke-linecap:butt;stroke-linejoin:round;stroke-miterlimit:10;stroke-dasharray:none;stroke-opacity:1"
             id="path96"
             inkscape:connector-curvature="0" /></g></g></g><text
       transform="matrix(1,0,0,-1,179.923,24.42)"
       style="font-variant:normal;font-weight:normal;font-size:8px;font-family:Helvetica;-inkscape-font-specification:Helvetica;writing-mode:lr-tb;fill:#7a7d82;fill-opacity:1;fill-rule:nonzero;stroke:none"
       id="text100"><tspan
         x="0 4.7680001 8.8719997 10.521096 39.661999"
         y="0"
         sodipodi:role="line"
         id="tspan98">−0.20</tspan></text>
<g
       id="g102"
       transform="scale(0.1)"><g
         id="g104"
         clip-path="url(#clipPath108)"><g
           id="g110"
           transform="translate(2534.1699,2763.3401)"><path
             d="m 0,0 v -30.84 m 0,-2385.828 v 31.66"
             style="fill:none;stroke:#7b7979;stroke-width:10;stroke-linecap:butt;stroke-linejoin:round;stroke-miterlimit:10;stroke-dasharray:none;stroke-opacity:1"
             id="path112"
             inkscape:connector-curvature="0" /></g></g></g><text
       transform="matrix(1,0,0,-1,247.913,24.42)"
       style="font-variant:normal;font-weight:normal;font-size:8px;font-family:Helvetica;-inkscape-font-specification:Helvetica;writing-mode:lr-tb;fill:#7a7d82;fill-opacity:1;fill-rule:nonzero;stroke:none"
       id="text116"><tspan
         x="0 4.1040001 5.7685041"
         y="0"
         sodipodi:role="line"
         id="tspan114">0.2</tspan></text>
<g
       id="g118"
       transform="scale(0.1)"><g
         id="g120"
         clip-path="url(#clipPath124)"><g
           id="g126"
           transform="translate(2850,2763.3401)"><path
             d="m 0,0 v -30.84 m 0,-2385.828 v 31.66"
             style="fill:none;stroke:#7b7979;stroke-width:10;stroke-linecap:butt;stroke-linejoin:round;stroke-miterlimit:10;stroke-dasharray:none;stroke-opacity:1"
             id="path128"
             inkscape:connector-curvature="0" /></g></g></g><text
       transform="matrix(1,0,0,-1,279.507,24.42)"
       style="font-variant:normal;font-weight:normal;font-size:8px;font-family:Helvetica;-inkscape-font-specification:Helvetica;writing-mode:lr-tb;fill:#7a7d82;fill-opacity:1;fill-rule:nonzero;stroke:none"
       id="text132"><tspan
         x="0 4.1040001 5.7523999"
         y="0"
         sodipodi:role="line"
         id="tspan130">0.4</tspan></text>
<g
       id="g134"
       transform="scale(0.1)"><g
         id="g136"
         clip-path="url(#clipPath140)"><g
           id="g142"
           transform="translate(3166.6699,2763.3401)"><path
             d="m 0,0 v -30.84 m 0,-2385.828 v 31.66"
             style="fill:none;stroke:#7b7979;stroke-width:10;stroke-linecap:butt;stroke-linejoin:round;stroke-miterlimit:10;stroke-dasharray:none;stroke-opacity:1"
             id="path144"
             inkscape:connector-curvature="0" /></g></g></g><text
       transform="matrix(1,0,0,-1,311.173,24.42)"
       style="font-variant:normal;font-weight:normal;font-size:8px;font-family:Helvetica;-inkscape-font-specification:Helvetica;writing-mode:lr-tb;fill:#7a7d82;fill-opacity:1;fill-rule:nonzero;stroke:none"
       id="text148"><tspan
         x="0 4.1040001 5.7600002"
         y="0"
         sodipodi:role="line"
         id="tspan146">0.6</tspan></text>
<g
       id="g150"
       transform="scale(0.1)"><g
         id="g152"
         clip-path="url(#clipPath156)"><g
           id="g158"
           transform="translate(3483.3301,2763.3401)"><path
             d="m 0,0 v -30.84 m 0,-2385.828 v 31.66"
             style="fill:none;stroke:#7b7979;stroke-width:10;stroke-linecap:butt;stroke-linejoin:round;stroke-miterlimit:10;stroke-dasharray:none;stroke-opacity:1"
             id="path160"
             inkscape:connector-curvature="0" /></g></g></g><text
       transform="matrix(1,0,0,-1,342.835,24.42)"
       style="font-variant:normal;font-weight:normal;font-size:8px;font-family:Helvetica;-inkscape-font-specification:Helvetica;writing-mode:lr-tb;fill:#7a7d82;fill-opacity:1;fill-rule:nonzero;stroke:none"
       id="text164"><tspan
         x="0 4.1040001 5.7665038"
         y="0"
         sodipodi:role="line"
         id="tspan162">0.8</tspan></text>
<g
       id="g166"
       transform="scale(0.1)"><g
         id="g168"
         clip-path="url(#clipPath172)"><g
           id="g174"
           transform="translate(3800,2763.3401)"><path
             d="m 0,0 v -30.84 m 0,-2385.828 v 31.66"
             style="fill:none;stroke:#7b7979;stroke-width:10;stroke-linecap:butt;stroke-linejoin:round;stroke-miterlimit:10;stroke-dasharray:none;stroke-opacity:1"
             id="path176"
             inkscape:connector-curvature="0" /></g></g></g><text
       transform="matrix(1,0,0,-1,377.835,24.42)"
       style="font-variant:normal;font-weight:normal;font-size:8px;font-family:Helvetica;-inkscape-font-specification:Helvetica;writing-mode:lr-tb;fill:#7a7d82;fill-opacity:1;fill-rule:nonzero;stroke:none"
       id="text180"><tspan
         x="0"
         y="0"
         id="tspan178">1</tspan></text>
<g
       id="g182"
       transform="scale(0.1)"><g
         id="g184"
         clip-path="url(#clipPath188)"><g
           id="g190"
           transform="translate(3800,346.672)"><path
             d="m 0,0 h -31.67 m -3132.494,0 h 30.828"
             style="fill:none;stroke:#7b7979;stroke-width:10;stroke-linecap:butt;stroke-linejoin:round;stroke-miterlimit:10;stroke-dasharray:none;stroke-opacity:1"
             id="path192"
             inkscape:connector-curvature="0" /></g><g
           id="g194"
           transform="translate(3800,649.172)"><path
             d="m 0,0 h -31.67 m -3132.494,0 h 30.828"
             style="fill:none;stroke:#7b7979;stroke-width:10;stroke-linecap:butt;stroke-linejoin:round;stroke-miterlimit:10;stroke-dasharray:none;stroke-opacity:1"
             id="path196"
             inkscape:connector-curvature="0" /></g></g></g><text
       transform="matrix(1,0,0,-1,44.923,31.756)"
       style="font-variant:normal;font-weight:normal;font-size:8px;font-family:Helvetica;-inkscape-font-specification:Helvetica;writing-mode:lr-tb;fill:#7a7d82;fill-opacity:1;fill-rule:nonzero;stroke:none"
       id="text200"><tspan
         x="0 4.7680001 8.8719997 10.521096"
         y="0"
         sodipodi:role="line"
         id="tspan198">−0.8</tspan></text>
<g
       id="g202"
       transform="scale(0.1)"><g
         id="g204"
         clip-path="url(#clipPath208)"><g
           id="g210"
           transform="translate(3800,950.828)"><path
             d="m 0,0 h -31.67 m -3132.494,0 h 30.828"
             style="fill:none;stroke:#7b7979;stroke-width:10;stroke-linecap:butt;stroke-linejoin:round;stroke-miterlimit:10;stroke-dasharray:none;stroke-opacity:1"
             id="path212"
             inkscape:connector-curvature="0" /></g></g></g><text
       transform="matrix(1,0,0,-1,44.923,61.998)"
       style="font-variant:normal;font-weight:normal;font-size:8px;font-family:Helvetica;-inkscape-font-specification:Helvetica;writing-mode:lr-tb;fill:#7a7d82;fill-opacity:1;fill-rule:nonzero;stroke:none"
       id="text216"><tspan
         x="0 4.7680001 8.8719997 10.521096"
         y="0"
         sodipodi:role="line"
         id="tspan214">−0.6</tspan></text>
<g
       id="g218"
       transform="scale(0.1)"><g
         id="g220"
         clip-path="url(#clipPath224)"><g
           id="g226"
           transform="translate(3800,1253.33)"><path
             d="m 0,0 h -31.67 m -3132.494,0 h 30.828"
             style="fill:none;stroke:#7b7979;stroke-width:10;stroke-linecap:butt;stroke-linejoin:round;stroke-miterlimit:10;stroke-dasharray:none;stroke-opacity:1"
             id="path228"
             inkscape:connector-curvature="0" /></g></g></g><text
       transform="matrix(1,0,0,-1,44.923,92.162)"
       style="font-variant:normal;font-weight:normal;font-size:8px;font-family:Helvetica;-inkscape-font-specification:Helvetica;writing-mode:lr-tb;fill:#7a7d82;fill-opacity:1;fill-rule:nonzero;stroke:none"
       id="text232"><tspan
         x="0 4.7680001 8.8719997 10.521096"
         y="0"
         sodipodi:role="line"
         id="tspan230">−0.4</tspan></text>
<g
       id="g234"
       transform="scale(0.1)"><g
         id="g236"
         clip-path="url(#clipPath240)"><g
           id="g242"
           transform="translate(3800,1555)"><path
             d="m 0,0 h -31.67 m -3132.494,0 h 30.828"
             style="fill:none;stroke:#7b7979;stroke-width:10;stroke-linecap:butt;stroke-linejoin:round;stroke-miterlimit:10;stroke-dasharray:none;stroke-opacity:1"
             id="path244"
             inkscape:connector-curvature="0" /></g></g></g><text
       transform="matrix(1,0,0,-1,44.923,122.431)"
       style="font-variant:normal;font-weight:normal;font-size:8px;font-family:Helvetica;-inkscape-font-specification:Helvetica;writing-mode:lr-tb;fill:#7a7d82;fill-opacity:1;fill-rule:nonzero;stroke:none"
       id="text250"><tspan
         x="0 4.7680001 8.8719997 10.521096"
         y="0"
         sodipodi:role="line"
         id="tspan246">−0.2</tspan><tspan
         x="11.334"
         y="-30.164"
         id="tspan248">0</tspan></text>
<g
       id="g252"
       transform="scale(0.1)"><g
         id="g254"
         clip-path="url(#clipPath258)"><g
           id="g260"
           transform="translate(3800,1857.5)"><path
             d="m 0,0 h -31.67 m -3132.494,0 h 30.828"
             style="fill:none;stroke:#7b7979;stroke-width:10;stroke-linecap:butt;stroke-linejoin:round;stroke-miterlimit:10;stroke-dasharray:none;stroke-opacity:1"
             id="path262"
             inkscape:connector-curvature="0" /></g></g></g><text
       transform="matrix(1,0,0,-1,49.585,182.826)"
       style="font-variant:normal;font-weight:normal;font-size:8px;font-family:Helvetica;-inkscape-font-specification:Helvetica;writing-mode:lr-tb;fill:#7a7d82;fill-opacity:1;fill-rule:nonzero;stroke:none"
       id="text266"><tspan
         x="0 4.1040001 5.7515998"
         y="0"
         sodipodi:role="line"
         id="tspan264">0.2</tspan></text>
<g
       id="g268"
       transform="scale(0.1)"><g
         id="g270"
         clip-path="url(#clipPath274)"><g
           id="g276"
           transform="translate(3800,2160)"><path
             d="m 0,0 h -31.67 m -3132.494,0 h 30.828"
             style="fill:none;stroke:#7b7979;stroke-width:10;stroke-linecap:butt;stroke-linejoin:round;stroke-miterlimit:10;stroke-dasharray:none;stroke-opacity:1"
             id="path278"
             inkscape:connector-curvature="0" /></g></g></g><text
       transform="matrix(1,0,0,-1,49.585,213.084)"
       style="font-variant:normal;font-weight:normal;font-size:8px;font-family:Helvetica;-inkscape-font-specification:Helvetica;writing-mode:lr-tb;fill:#7a7d82;fill-opacity:1;fill-rule:nonzero;stroke:none"
       id="text282"><tspan
         x="0 4.1040001 5.7515998"
         y="0"
         sodipodi:role="line"
         id="tspan280">0.4</tspan></text>
<g
       id="g284"
       transform="scale(0.1)"><g
         id="g286"
         clip-path="url(#clipPath290)"><g
           id="g292"
           transform="translate(3800,2461.6599)"><path
             d="m 0,0 h -31.67 m -3132.494,0 h 30.828"
             style="fill:none;stroke:#7b7979;stroke-width:10;stroke-linecap:butt;stroke-linejoin:round;stroke-miterlimit:10;stroke-dasharray:none;stroke-opacity:1"
             id="path294"
             inkscape:connector-curvature="0" /></g></g></g><text
       transform="matrix(1,0,0,-1,49.585,243.248)"
       style="font-variant:normal;font-weight:normal;font-size:8px;font-family:Helvetica;-inkscape-font-specification:Helvetica;writing-mode:lr-tb;fill:#7a7d82;fill-opacity:1;fill-rule:nonzero;stroke:none"
       id="text298"><tspan
         x="0 4.1040001 5.7515998"
         y="0"
         sodipodi:role="line"
         id="tspan296">0.6</tspan></text>
<g
       id="g300"
       transform="scale(0.1)"><g
         id="g302"
         clip-path="url(#clipPath306)"><g
           id="g308"
           transform="translate(3800,2763.3401)"><path
             d="m 0,0 h -31.67 m -3132.494,0 h 30.828"
             style="fill:none;stroke:#7b7979;stroke-width:10;stroke-linecap:butt;stroke-linejoin:round;stroke-miterlimit:10;stroke-dasharray:none;stroke-opacity:1"
             id="path310"
             inkscape:connector-curvature="0" /></g><g
           id="g312"
           transform="translate(635.836,346.672)"><path
             d="M 0,0 V 2416.668 M 3164.164,0 V 2416.668 M 0,0 H 3164.164 M 0,2416.668 h 3164.164"
             style="fill:none;stroke:#7b7979;stroke-width:10;stroke-linecap:butt;stroke-linejoin:round;stroke-miterlimit:10;stroke-dasharray:none;stroke-opacity:1"
             id="path314"
             inkscape:connector-curvature="0" /></g></g></g><text
       transform="matrix(1,0,0,-1,49.585,273.412)"
       style="font-variant:normal;font-weight:normal;font-size:8px;font-family:Helvetica;-inkscape-font-specification:Helvetica;writing-mode:lr-tb;fill:#7a7d82;fill-opacity:1;fill-rule:nonzero;stroke:none"
       id="text318"><tspan
         x="0 4.1040001 5.7515998"
         y="0"
         sodipodi:role="line"
         id="tspan316">0.8</tspan></text>
<g
       id="g320"
       transform="scale(0.1)"><g
         id="g322"
         clip-path="url(#clipPath326)"><g
           id="g328"
           transform="translate(2217.5,345.832)"><path
             d="M 0,0 V 2417.508 M -1581.664,1209.168 H 1583.33"
             style="fill:none;stroke:#7b7979;stroke-width:30;stroke-linecap:butt;stroke-linejoin:round;stroke-miterlimit:10;stroke-dasharray:5, 40;stroke-dashoffset:0;stroke-opacity:1"
             id="path330"
             inkscape:connector-curvature="0" /></g><g
           id="g332"
           transform="translate(651,1554.8)"><path
             d="m 0,0 c 0,-8.28 -6.719,-15 -15,-15 -8.281,0 -15,6.72 -15,15 0,8.28 6.719,15 15,15 C -6.719,15 0,8.28 0,0"
             style="fill:#ed1d24;fill-opacity:1;fill-rule:nonzero;stroke:none"
             id="path334"
             inkscape:connector-curvature="0" /></g></g></g><g
       id="g336"
       transform="scale(0.1)"><g
         id="g338"
         clip-path="url(#clipPath342)"><g
           id="g344"
           transform="translate(635.836,1585)"><path
             d="m 0,0 v -60 m -30,30 h 60"
             style="fill:none;stroke:#ed1d24;stroke-width:30;stroke-linecap:butt;stroke-linejoin:round;stroke-miterlimit:10;stroke-dasharray:none;stroke-opacity:1"
             id="path346"
             inkscape:connector-curvature="0" /></g></g></g><g
       id="g348"
       transform="scale(0.1)"><g
         id="g350"
         clip-path="url(#clipPath354)"><g
           id="g356"
           transform="translate(3799.1699,1555.83)"><path
             d="M 0,0 V 8.34 L -3.34,90 -4.17,102.5 -5.84,116.67 -7.5,132.5 -10,150 l -3.34,20.84 -4.16,23.33 -5,25.83 -6.67,30 -8.33,33.34 -10.84,37.5 -14.16,41.66 -17.5,47.5 -23.34,52.5 -29.16,57.5 -36.67,62.5 -47.5,68.33 -58.33,72.5 -72.5,75 -90,75 -108.34,72.5 -128.33,65 -149.17,51.68 -167.5,31.66 -182.5,3.34 -187.5,-30 -183.33,-67.5 -163.33,-104.18 -131.67,-134.16 -90,-153.34 -43.33,-156.66 V 307.5 l 32.5,-121.66 53.33,-92.5 60.83,-62.5 58.34,-37.5 50.83,-19.17 40.83,-6.67 30,0.84 21.67,3.33 15,5.83 10,5 6.67,4.17 4.16,3.33 2.5,2.5 1.67,2.5 0.83,0.84 0.84,1.66 0.83,0.84 v 0.83 m 1582.5,0 V 0 -0.83 H 0 v -8.33 l -3.34,-81.67 -0.83,-12.5 -1.67,-14.17 -1.66,-15.83 -2.5,-17.5 -3.34,-20.83 -4.16,-23.34 -5,-25.83 -6.67,-30 -8.33,-33.33 -10.84,-37.5 -14.16,-41.67 -17.5,-47.5 -23.34,-52.5 -29.16,-57.5 -36.67,-62.5 -47.5,-68.328 -58.33,-72.5 -72.5,-75 -90,-75 -108.34,-72.5 -128.33,-65 -149.17,-51.672 -167.5,-31.668 -182.5,-3.332 -187.5,30 -183.33,67.5 -163.33,104.172 -131.67,134.156 -90,153.344 -43.33,156.658 v 144.17 l 32.5,121.67 53.33,92.5 60.83,62.5 58.34,37.5 50.83,19.16 40.83,6.67 30,-0.83 21.67,-3.34 15,-5.83 10,-5 6.67,-4.17 4.16,-3.33 2.5,-2.5 1.67,-2.5 0.83,-0.83 0.84,-1.67 0.83,-0.83 v -1.67"
             style="fill:none;stroke:#3b4ba7;stroke-width:5;stroke-linecap:butt;stroke-linejoin:round;stroke-miterlimit:10;stroke-dasharray:none;stroke-opacity:1"
             id="path358"
             inkscape:connector-curvature="0" /></g></g></g><g
       id="g360"
       transform="scale(0.1)"><g
         id="g362"
         clip-path="url(#clipPath366)"><g
           id="g368"
           transform="translate(2692.5,430)"><path
             d="M 0,0 -66.67,27.5 -2.5,57.5 0,0"
             style="fill:#3b4ba7;fill-opacity:1;fill-rule:evenodd;stroke:none"
             id="path370"
             inkscape:connector-curvature="0" /></g><g
           id="g372"
           transform="translate(2692.5,430)"><path
             d="M 0,0 -66.67,27.5 -2.5,57.5 0,0"
             style="fill:none;stroke:#3b4ba7;stroke-width:5;stroke-linecap:butt;stroke-linejoin:round;stroke-miterlimit:10;stroke-dasharray:none;stroke-opacity:1"
             id="path374"
             inkscape:connector-curvature="0" /></g><g
           id="g376"
           transform="translate(2561.6699,2683.3401)"><path
             d="M 0,0 64.16,-30 -1.67,-57.5 0,0"
             style="fill:#3b4ba7;fill-opacity:1;fill-rule:evenodd;stroke:none"
             id="path378"
             inkscape:connector-curvature="0" /></g><g
           id="g380"
           transform="translate(2561.6699,2683.3401)"><path
             d="M 0,0 64.16,-30 -1.67,-57.5 0,0"
             style="fill:none;stroke:#3b4ba7;stroke-width:5;stroke-linecap:butt;stroke-linejoin:round;stroke-miterlimit:10;stroke-dasharray:none;stroke-opacity:1"
             id="path382"
             inkscape:connector-curvature="0" /></g></g></g><text
       transform="matrix(1,0,0,-1,200.835,13.759)"
       style="font-variant:normal;font-weight:normal;font-size:8px;font-family:Helvetica;-inkscape-font-specification:Helvetica;writing-mode:lr-tb;fill:#211c1d;fill-opacity:1;fill-rule:nonzero;stroke:none"
       id="text386"><tspan
         x="0 4.3039999 8.3120003 12.168 14.056 15.752 20.648001 24.351999 26.224001"
         y="0"
         sodipodi:role="line"
         id="tspan384">Real Axis</tspan></text>
<text
       transform="matrix(1,0,0,-0.97943193,122.054,123.988)"
       style="font-variant:normal;font-weight:normal;font-size:14.10613632px;font-family:MyriadPro;-inkscape-font-specification:MyriadPro-Regular;writing-mode:lr-tb;fill:#100f0d;fill-opacity:1;fill-rule:nonzero;stroke:none"
       id="text390"><tspan
         x="0 9.7896585 18.196915 26.124563"
         y="0"
         sodipodi:role="line"
         id="tspan388">ω=√3</tspan></text>
<g
       id="g392"
       transform="scale(0.1)"><g
         id="g394"
         clip-path="url(#clipPath398)"><g
           id="g400"
           transform="translate(1477.05,1354.3101)"><path
             d="M 0,0 H 117.55"
             style="fill:none;stroke:#100f0d;stroke-width:10;stroke-linecap:butt;stroke-linejoin:miter;stroke-miterlimit:10;stroke-dasharray:none;stroke-opacity:1"
             id="path402"
             inkscape:connector-curvature="0" /></g></g></g><text
       transform="matrix(0,1,1,0,30.4988,135.657)"
       style="font-variant:normal;font-weight:normal;font-size:8px;font-family:Helvetica;-inkscape-font-specification:Helvetica;writing-mode:lr-tb;fill:#211c1d;fill-opacity:1;fill-rule:nonzero;stroke:none"
       id="text406"><tspan
         x="0 1.9119999 8.5839996 12.44 16.912001 18.784 23.224001 27.08 29.695999 33.464001 35.16 40.056 43.759998 45.646305"
         y="0"
         sodipodi:role="line"
         id="tspan404">Imaginary Axis</tspan></text>
<text
       transform="matrix(1,0,0,-0.93379401,193.206,184.651)"
       style="font-variant:normal;font-weight:normal;font-size:14.79448318px;font-family:MyriadPro;-inkscape-font-specification:MyriadPro-Regular;writing-mode:lr-tb;fill:#100f0d;fill-opacity:1;fill-rule:nonzero;stroke:none"
       id="text412"><tspan
         x="0 4.5419064"
         y="0"
         sodipodi:role="line"
         id="tspan408">-1</tspan><tspan
         x="4.1090431"
         y="17.533846"
         id="tspan410">8</tspan></text>
<g
       id="g414"
       transform="scale(0.1)"><g
         id="g416"
         clip-path="url(#clipPath420)"><g
           id="g422"
           transform="translate(1932.0601,1811.5601)"><path
             d="M 0,0 H 147.94 V 0"
             style="fill:none;stroke:#100f0d;stroke-width:10;stroke-linecap:butt;stroke-linejoin:miter;stroke-miterlimit:10;stroke-dasharray:none;stroke-opacity:1"
             id="path424"
             inkscape:connector-curvature="0" /></g></g></g><text
       transform="matrix(1,0,0,-1,342.835,136.806)"
       style="font-variant:normal;font-weight:normal;font-size:14px;font-family:MyriadPro;-inkscape-font-specification:MyriadPro-Regular;writing-mode:lr-tb;fill:#100f0d;fill-opacity:1;fill-rule:nonzero;stroke:none"
       id="text430"><tspan
         x="0 9.7159996 18.059999"
         y="0"
         sodipodi:role="line"
         id="tspan426">ω=0</tspan><tspan
         x="22.941999"
         y="-27.665001"
         id="tspan428">1</tspan></text>
<g
       id="g432"
       transform="scale(0.1)"><g
         id="g434"
         clip-path="url(#clipPath438)"><g
           id="g440"
           transform="translate(1594.6,1290)"><path
             d="M 0,0 337.46,235.95"
             style="fill:none;stroke:#211c1d;stroke-width:10;stroke-linecap:butt;stroke-linejoin:miter;stroke-miterlimit:10;stroke-dasharray:none;stroke-opacity:1"
             id="path442"
             inkscape:connector-curvature="0" /></g></g></g></g></svg>