<?xml version="1.0" encoding="UTF-8" standalone="no"?>
<!-- Created with Inkscape (http://www.inkscape.org/) -->

<svg
   xmlns:dc="http://purl.org/dc/elements/1.1/"
   xmlns:cc="http://creativecommons.org/ns#"
   xmlns:rdf="http://www.w3.org/1999/02/22-rdf-syntax-ns#"
   xmlns:svg="http://www.w3.org/2000/svg"
   xmlns="http://www.w3.org/2000/svg"
   xmlns:sodipodi="http://sodipodi.sourceforge.net/DTD/sodipodi-0.dtd"
   xmlns:inkscape="http://www.inkscape.org/namespaces/inkscape"
   version="1.1"
   id="svg2"
   xml:space="preserve"
   width="478.69165"
   height="372.03168"
   viewBox="0 0 478.69165 372.03167"
   sodipodi:docname="root-locus.svg"
   inkscape:version="0.92.0 r15299"><metadata
     id="metadata8"><rdf:RDF><cc:Work
         rdf:about=""><dc:format>image/svg+xml</dc:format><dc:type
           rdf:resource="http://purl.org/dc/dcmitype/StillImage" /><dc:title></dc:title></cc:Work></rdf:RDF></metadata><defs
     id="defs6"><clipPath
       clipPathUnits="userSpaceOnUse"
       id="clipPath18"><path
         d="M 0,3150 V 0 h 4199.17 v 3150 z"
         id="path16"
         inkscape:connector-curvature="0" /></clipPath><clipPath
       clipPathUnits="userSpaceOnUse"
       id="clipPath40"><path
         d="M 0,3150 V 0 h 4199.17 v 3150 z"
         id="path38"
         inkscape:connector-curvature="0" /></clipPath><clipPath
       clipPathUnits="userSpaceOnUse"
       id="clipPath60"><path
         d="M 0,3150 V 0 h 4199.17 v 3150 z"
         id="path58"
         inkscape:connector-curvature="0" /></clipPath><clipPath
       clipPathUnits="userSpaceOnUse"
       id="clipPath76"><path
         d="M 0,3150 V 0 h 4199.17 v 3150 z"
         id="path74"
         inkscape:connector-curvature="0" /></clipPath><clipPath
       clipPathUnits="userSpaceOnUse"
       id="clipPath92"><path
         d="M 0,3150 V 0 h 4199.17 v 3150 z"
         id="path90"
         inkscape:connector-curvature="0" /></clipPath><clipPath
       clipPathUnits="userSpaceOnUse"
       id="clipPath108"><path
         d="M 0,3150 V 0 h 4199.17 v 3150 z"
         id="path106"
         inkscape:connector-curvature="0" /></clipPath><clipPath
       clipPathUnits="userSpaceOnUse"
       id="clipPath124"><path
         d="M 0,3150 V 0 h 4199.17 v 3150 z"
         id="path122"
         inkscape:connector-curvature="0" /></clipPath><clipPath
       clipPathUnits="userSpaceOnUse"
       id="clipPath140"><path
         d="M 0,3150 V 0 h 4199.17 v 3150 z"
         id="path138"
         inkscape:connector-curvature="0" /></clipPath><clipPath
       clipPathUnits="userSpaceOnUse"
       id="clipPath156"><path
         d="M 0,3150 V 0 h 4199.17 v 3150 z"
         id="path154"
         inkscape:connector-curvature="0" /></clipPath><clipPath
       clipPathUnits="userSpaceOnUse"
       id="clipPath176"><path
         d="M 0,3150 V 0 h 4199.17 v 3150 z"
         id="path174"
         inkscape:connector-curvature="0" /></clipPath><clipPath
       clipPathUnits="userSpaceOnUse"
       id="clipPath196"><path
         d="M 0,3150 V 0 h 4199.17 v 3150 z"
         id="path194"
         inkscape:connector-curvature="0" /></clipPath><clipPath
       clipPathUnits="userSpaceOnUse"
       id="clipPath212"><path
         d="M 0,3150 V 0 h 4199.17 v 3150 z"
         id="path210"
         inkscape:connector-curvature="0" /></clipPath><clipPath
       clipPathUnits="userSpaceOnUse"
       id="clipPath228"><path
         d="M 0,3150 V 0 h 4199.17 v 3150 z"
         id="path226"
         inkscape:connector-curvature="0" /></clipPath><clipPath
       clipPathUnits="userSpaceOnUse"
       id="clipPath246"><path
         d="M 0,3150 V 0 h 4199.17 v 3150 z"
         id="path244"
         inkscape:connector-curvature="0" /></clipPath><clipPath
       clipPathUnits="userSpaceOnUse"
       id="clipPath268"><path
         d="M 0,3150 V 0 h 4199.17 v 3150 z"
         id="path266"
         inkscape:connector-curvature="0" /></clipPath><clipPath
       clipPathUnits="userSpaceOnUse"
       id="clipPath284"><path
         d="M 0,3150 V 0 h 4199.17 v 3150 z"
         id="path282"
         inkscape:connector-curvature="0" /></clipPath><clipPath
       clipPathUnits="userSpaceOnUse"
       id="clipPath300"><path
         d="M 0,3150 V 0 h 4199.17 v 3150 z"
         id="path298"
         inkscape:connector-curvature="0" /></clipPath><clipPath
       clipPathUnits="userSpaceOnUse"
       id="clipPath312"><path
         d="M 635.836,345.832 H 3800.83 V 2763.34 H 635.836 Z"
         id="path310"
         inkscape:connector-curvature="0" /></clipPath><clipPath
       clipPathUnits="userSpaceOnUse"
       id="clipPath328"><path
         d="m 544.164,1462.5 h 184.172 v 184.17 H 544.164 Z"
         id="path326"
         inkscape:connector-curvature="0" /></clipPath><clipPath
       clipPathUnits="userSpaceOnUse"
       id="clipPath340"><path
         d="M 635.836,345.832 H 3800.83 V 2763.34 H 635.836 Z"
         id="path338"
         inkscape:connector-curvature="0" /></clipPath><clipPath
       clipPathUnits="userSpaceOnUse"
       id="clipPath352"><path
         d="M 0,3150 V 0 h 4199.17 v 3150 z"
         id="path350"
         inkscape:connector-curvature="0" /></clipPath><clipPath
       clipPathUnits="userSpaceOnUse"
       id="clipPath390"><path
         d="M 0,3150 V 0 h 4199.17 v 3150 z"
         id="path388"
         inkscape:connector-curvature="0" /></clipPath></defs><sodipodi:namedview
     pagecolor="#ffffff"
     bordercolor="#666666"
     borderopacity="1"
     objecttolerance="10"
     gridtolerance="10"
     guidetolerance="10"
     inkscape:pageopacity="0"
     inkscape:pageshadow="2"
     inkscape:window-width="1600"
     inkscape:window-height="847"
     id="namedview4"
     showgrid="false"
     fit-margin-top="0"
     fit-margin-left="0"
     fit-margin-right="0"
     fit-margin-bottom="0"
     inkscape:zoom="1.2642212"
     inkscape:cx="162.52511"
     inkscape:cy="64.902937"
     inkscape:window-x="-8"
     inkscape:window-y="-8"
     inkscape:window-maximized="1"
     inkscape:current-layer="g10" /><g
     id="g10"
     inkscape:groupmode="layer"
     inkscape:label="A9Ryel4d7_sikaxj_a6w"
     transform="matrix(1.3333333,0,0,-1.3333333,-33.029649,372.21599)"><g
       id="g12"
       transform="scale(0.1)"><g
         id="g14"
         clip-path="url(#clipPath18)"><path
           d="m 635.836,346.672 h 3164.16 v 2416.66 H 635.836 Z"
           style="fill:#ffffff;fill-opacity:1;fill-rule:evenodd;stroke:none"
           id="path20"
           inkscape:connector-curvature="0" /><g
           id="g22"
           transform="translate(635.836,346.672)"><path
             d="M 0,0 V 2416.668 H 3164.164 V 0 H 0"
             style="fill:none;stroke:#ffffff;stroke-width:10;stroke-linecap:butt;stroke-linejoin:round;stroke-miterlimit:10;stroke-dasharray:none;stroke-opacity:1"
             id="path24"
             inkscape:connector-curvature="0" /><g
             id="g26"
             transform="translate(0,2416.6681)"><path
               d="m 0,0 v -30.84 m 0,-2385.828 v 31.66 m 0,-31.66 V 0 M 0,-2416.668 H 3164.164 M 0,-2416.668 V 0 M 3164.164,-2416.668 V 0 M 0,-2416.668 H 3164.164 M 0,0 h 3164.164"
               style="fill:none;stroke:#7b7979;stroke-width:10;stroke-linecap:butt;stroke-linejoin:round;stroke-miterlimit:10;stroke-dasharray:none;stroke-opacity:1"
               id="path28"
               inkscape:connector-curvature="0" /></g></g></g></g><text
       transform="matrix(1,0,0,-1,56.749,24.42)"
       style="font-variant:normal;font-weight:normal;font-size:8px;font-family:Helvetica;-inkscape-font-specification:Helvetica;writing-mode:lr-tb;fill:#7a7d82;fill-opacity:1;fill-rule:nonzero;stroke:none"
       id="text32"><tspan
         x="0 4.7680001"
         y="0"
         sodipodi:role="line"
         id="tspan30">−1</tspan></text>
<g
       id="g34"
       transform="scale(0.1)"><g
         id="g36"
         clip-path="url(#clipPath40)"><g
           id="g42"
           transform="translate(951.664,2763.3401)"><path
             d="m 0,0 v -30.84 m 0,-2385.828 v 31.66"
             style="fill:none;stroke:#7b7979;stroke-width:10;stroke-linecap:butt;stroke-linejoin:round;stroke-miterlimit:10;stroke-dasharray:none;stroke-opacity:1"
             id="path44"
             inkscape:connector-curvature="0" /><g
             id="g46"
             transform="translate(316.666)"><path
               d="m 0,0 v -30.84 m 0,-2385.828 v 31.66"
               style="fill:none;stroke:#7b7979;stroke-width:10;stroke-linecap:butt;stroke-linejoin:round;stroke-miterlimit:10;stroke-dasharray:none;stroke-opacity:1"
               id="path48"
               inkscape:connector-curvature="0" /></g></g></g></g><text
       transform="matrix(1,0,0,-1,85.007,24.42)"
       style="font-variant:normal;font-weight:normal;font-size:8px;font-family:Helvetica;-inkscape-font-specification:Helvetica;writing-mode:lr-tb;fill:#7a7d82;fill-opacity:1;fill-rule:nonzero;stroke:none"
       id="text52"><tspan
         x="0 4.7680001 8.8719997 10.5238"
         y="0"
         sodipodi:role="line"
         id="tspan50">−0.8</tspan></text>
<g
       id="g54"
       transform="scale(0.1)"><g
         id="g56"
         clip-path="url(#clipPath60)"><g
           id="g62"
           transform="translate(1585,2763.3401)"><path
             d="m 0,0 v -30.84 m 0,-2385.828 v 31.66"
             style="fill:none;stroke:#7b7979;stroke-width:10;stroke-linecap:butt;stroke-linejoin:round;stroke-miterlimit:10;stroke-dasharray:none;stroke-opacity:1"
             id="path64"
             inkscape:connector-curvature="0" /></g></g></g><text
       transform="matrix(1,0,0,-1,116.663,24.42)"
       style="font-variant:normal;font-weight:normal;font-size:8px;font-family:Helvetica;-inkscape-font-specification:Helvetica;writing-mode:lr-tb;fill:#7a7d82;fill-opacity:1;fill-rule:nonzero;stroke:none"
       id="text68"><tspan
         x="0 4.7680001 8.8719997 10.5332"
         y="0"
         sodipodi:role="line"
         id="tspan66">−0.6</tspan></text>
<g
       id="g70"
       transform="scale(0.1)"><g
         id="g72"
         clip-path="url(#clipPath76)"><g
           id="g78"
           transform="translate(1900.83,2763.3401)"><path
             d="m 0,0 v -30.84 m 0,-2385.828 v 31.66"
             style="fill:none;stroke:#7b7979;stroke-width:10;stroke-linecap:butt;stroke-linejoin:round;stroke-miterlimit:10;stroke-dasharray:none;stroke-opacity:1"
             id="path80"
             inkscape:connector-curvature="0" /></g></g></g><text
       transform="matrix(1,0,0,-1,148.335,24.42)"
       style="font-variant:normal;font-weight:normal;font-size:8px;font-family:Helvetica;-inkscape-font-specification:Helvetica;writing-mode:lr-tb;fill:#7a7d82;fill-opacity:1;fill-rule:nonzero;stroke:none"
       id="text84"><tspan
         x="0 4.7680001 8.8719997 10.5328"
         y="0"
         sodipodi:role="line"
         id="tspan82">−0.4</tspan></text>
<g
       id="g86"
       transform="scale(0.1)"><g
         id="g88"
         clip-path="url(#clipPath92)"><g
           id="g94"
           transform="translate(2217.5,2763.3401)"><path
             d="m 0,0 v -30.84 m 0,-2385.828 v 31.66"
             style="fill:none;stroke:#7b7979;stroke-width:10;stroke-linecap:butt;stroke-linejoin:round;stroke-miterlimit:10;stroke-dasharray:none;stroke-opacity:1"
             id="path96"
             inkscape:connector-curvature="0" /></g></g></g><text
       transform="matrix(1,0,0,-1,179.923,24.42)"
       style="font-variant:normal;font-weight:normal;font-size:8px;font-family:Helvetica;-inkscape-font-specification:Helvetica;writing-mode:lr-tb;fill:#7a7d82;fill-opacity:1;fill-rule:nonzero;stroke:none"
       id="text100"><tspan
         x="0 4.7680001 8.8719997 10.521096 39.661999"
         y="0"
         sodipodi:role="line"
         id="tspan98">−0.20</tspan></text>
<g
       id="g102"
       transform="scale(0.1)"><g
         id="g104"
         clip-path="url(#clipPath108)"><g
           id="g110"
           transform="translate(2534.1699,2763.3401)"><path
             d="m 0,0 v -30.84 m 0,-2385.828 v 31.66"
             style="fill:none;stroke:#7b7979;stroke-width:10;stroke-linecap:butt;stroke-linejoin:round;stroke-miterlimit:10;stroke-dasharray:none;stroke-opacity:1"
             id="path112"
             inkscape:connector-curvature="0" /></g></g></g><text
       transform="matrix(1,0,0,-1,247.913,24.42)"
       style="font-variant:normal;font-weight:normal;font-size:8px;font-family:Helvetica;-inkscape-font-specification:Helvetica;writing-mode:lr-tb;fill:#7a7d82;fill-opacity:1;fill-rule:nonzero;stroke:none"
       id="text116"><tspan
         x="0 4.1040001 5.7684002"
         y="0"
         sodipodi:role="line"
         id="tspan114">0.2</tspan></text>
<g
       id="g118"
       transform="scale(0.1)"><g
         id="g120"
         clip-path="url(#clipPath124)"><g
           id="g126"
           transform="translate(2850,2763.3401)"><path
             d="m 0,0 v -30.84 m 0,-2385.828 v 31.66"
             style="fill:none;stroke:#7b7979;stroke-width:10;stroke-linecap:butt;stroke-linejoin:round;stroke-miterlimit:10;stroke-dasharray:none;stroke-opacity:1"
             id="path128"
             inkscape:connector-curvature="0" /></g></g></g><text
       transform="matrix(1,0,0,-1,279.507,24.42)"
       style="font-variant:normal;font-weight:normal;font-size:8px;font-family:Helvetica;-inkscape-font-specification:Helvetica;writing-mode:lr-tb;fill:#7a7d82;fill-opacity:1;fill-rule:nonzero;stroke:none"
       id="text132"><tspan
         x="0 4.1040001 5.7523999"
         y="0"
         sodipodi:role="line"
         id="tspan130">0.4</tspan></text>
<g
       id="g134"
       transform="scale(0.1)"><g
         id="g136"
         clip-path="url(#clipPath140)"><g
           id="g142"
           transform="translate(3166.6699,2763.3401)"><path
             d="m 0,0 v -30.84 m 0,-2385.828 v 31.66"
             style="fill:none;stroke:#7b7979;stroke-width:10;stroke-linecap:butt;stroke-linejoin:round;stroke-miterlimit:10;stroke-dasharray:none;stroke-opacity:1"
             id="path144"
             inkscape:connector-curvature="0" /></g></g></g><text
       transform="matrix(1,0,0,-1,311.173,24.42)"
       style="font-variant:normal;font-weight:normal;font-size:8px;font-family:Helvetica;-inkscape-font-specification:Helvetica;writing-mode:lr-tb;fill:#7a7d82;fill-opacity:1;fill-rule:nonzero;stroke:none"
       id="text148"><tspan
         x="0 4.1040001 5.7600002"
         y="0"
         sodipodi:role="line"
         id="tspan146">0.6</tspan></text>
<g
       id="g150"
       transform="scale(0.1)"><g
         id="g152"
         clip-path="url(#clipPath156)"><g
           id="g158"
           transform="translate(3483.3301,2763.3401)"><path
             d="m 0,0 v -30.84 m 0,-2385.828 v 31.66"
             style="fill:none;stroke:#7b7979;stroke-width:10;stroke-linecap:butt;stroke-linejoin:round;stroke-miterlimit:10;stroke-dasharray:none;stroke-opacity:1"
             id="path160"
             inkscape:connector-curvature="0" /><g
             id="g162"
             transform="translate(316.6699)"><path
               d="m 0,0 v -30.84 m 0,-2385.828 v 31.66"
               style="fill:none;stroke:#7b7979;stroke-width:10;stroke-linecap:butt;stroke-linejoin:round;stroke-miterlimit:10;stroke-dasharray:none;stroke-opacity:1"
               id="path164"
               inkscape:connector-curvature="0" /></g></g></g></g><text
       transform="matrix(1,0,0,-1,342.835,24.42)"
       style="font-variant:normal;font-weight:normal;font-size:8px;font-family:Helvetica;-inkscape-font-specification:Helvetica;writing-mode:lr-tb;fill:#7a7d82;fill-opacity:1;fill-rule:nonzero;stroke:none"
       id="text168"><tspan
         x="0 4.1040001 5.7665038 35"
         y="0"
         sodipodi:role="line"
         id="tspan166">0.81</tspan></text>
<g
       id="g170"
       transform="scale(0.1)"><g
         id="g172"
         clip-path="url(#clipPath176)"><g
           id="g178"
           transform="translate(3800,346.672)"><path
             d="m 0,0 h -31.67 m -3132.494,0 h 30.828"
             style="fill:none;stroke:#7b7979;stroke-width:10;stroke-linecap:butt;stroke-linejoin:round;stroke-miterlimit:10;stroke-dasharray:none;stroke-opacity:1"
             id="path180"
             inkscape:connector-curvature="0" /><g
             id="g182"
             transform="translate(0,302.5)"><path
               d="m 0,0 h -31.67 m -3132.494,0 h 30.828"
               style="fill:none;stroke:#7b7979;stroke-width:10;stroke-linecap:butt;stroke-linejoin:round;stroke-miterlimit:10;stroke-dasharray:none;stroke-opacity:1"
               id="path184"
               inkscape:connector-curvature="0" /></g></g></g></g><text
       transform="matrix(1,0,0,-1,44.923,31.756)"
       style="font-variant:normal;font-weight:normal;font-size:8px;font-family:Helvetica;-inkscape-font-specification:Helvetica;writing-mode:lr-tb;fill:#7a7d82;fill-opacity:1;fill-rule:nonzero;stroke:none"
       id="text188"><tspan
         x="0 4.7680001 8.8719997 10.521096"
         y="0"
         sodipodi:role="line"
         id="tspan186">−0.8</tspan></text>
<g
       id="g190"
       transform="scale(0.1)"><g
         id="g192"
         clip-path="url(#clipPath196)"><g
           id="g198"
           transform="translate(3800,950.828)"><path
             d="m 0,0 h -31.67 m -3132.494,0 h 30.828"
             style="fill:none;stroke:#7b7979;stroke-width:10;stroke-linecap:butt;stroke-linejoin:round;stroke-miterlimit:10;stroke-dasharray:none;stroke-opacity:1"
             id="path200"
             inkscape:connector-curvature="0" /></g></g></g><text
       transform="matrix(1,0,0,-1,44.923,61.998)"
       style="font-variant:normal;font-weight:normal;font-size:8px;font-family:Helvetica;-inkscape-font-specification:Helvetica;writing-mode:lr-tb;fill:#7a7d82;fill-opacity:1;fill-rule:nonzero;stroke:none"
       id="text204"><tspan
         x="0 4.7680001 8.8719997 10.521096"
         y="0"
         sodipodi:role="line"
         id="tspan202">−0.6</tspan></text>
<g
       id="g206"
       transform="scale(0.1)"><g
         id="g208"
         clip-path="url(#clipPath212)"><g
           id="g214"
           transform="translate(3800,1253.33)"><path
             d="m 0,0 h -31.67 m -3132.494,0 h 30.828"
             style="fill:none;stroke:#7b7979;stroke-width:10;stroke-linecap:butt;stroke-linejoin:round;stroke-miterlimit:10;stroke-dasharray:none;stroke-opacity:1"
             id="path216"
             inkscape:connector-curvature="0" /></g></g></g><text
       transform="matrix(1,0,0,-1,44.923,92.162)"
       style="font-variant:normal;font-weight:normal;font-size:8px;font-family:Helvetica;-inkscape-font-specification:Helvetica;writing-mode:lr-tb;fill:#7a7d82;fill-opacity:1;fill-rule:nonzero;stroke:none"
       id="text220"><tspan
         x="0 4.7680001 8.8719997 10.521096"
         y="0"
         sodipodi:role="line"
         id="tspan218">−0.4</tspan></text>
<g
       id="g222"
       transform="scale(0.1)"><g
         id="g224"
         clip-path="url(#clipPath228)"><g
           id="g230"
           transform="translate(3800,1555)"><path
             d="m 0,0 h -31.67 m -3132.494,0 h 30.828"
             style="fill:none;stroke:#7b7979;stroke-width:10;stroke-linecap:butt;stroke-linejoin:round;stroke-miterlimit:10;stroke-dasharray:none;stroke-opacity:1"
             id="path232"
             inkscape:connector-curvature="0" /></g></g></g><text
       transform="matrix(1,0,0,-1,44.923,122.431)"
       style="font-variant:normal;font-weight:normal;font-size:8px;font-family:Helvetica;-inkscape-font-specification:Helvetica;writing-mode:lr-tb;fill:#7a7d82;fill-opacity:1;fill-rule:nonzero;stroke:none"
       id="text238"><tspan
         x="0 4.7680001 8.8719997 10.521096"
         y="0"
         sodipodi:role="line"
         id="tspan234">−0.2</tspan><tspan
         x="11.334"
         y="-30.164"
         id="tspan236">0</tspan></text>
<g
       id="g240"
       transform="scale(0.1)"><g
         id="g242"
         clip-path="url(#clipPath246)"><g
           id="g248"
           transform="translate(3800,1857.5)"><path
             d="m 0,0 h -31.67 m -3132.494,0 h 30.828"
             style="fill:none;stroke:#7b7979;stroke-width:10;stroke-linecap:butt;stroke-linejoin:round;stroke-miterlimit:10;stroke-dasharray:none;stroke-opacity:1"
             id="path250"
             inkscape:connector-curvature="0" /><g
             id="g252"
             transform="translate(0,302.5)"><path
               d="m 0,0 h -31.67 m -3132.494,0 h 30.828"
               style="fill:none;stroke:#7b7979;stroke-width:10;stroke-linecap:butt;stroke-linejoin:round;stroke-miterlimit:10;stroke-dasharray:none;stroke-opacity:1"
               id="path254"
               inkscape:connector-curvature="0" /></g></g></g></g><text
       transform="matrix(1,0,0,-1,49.585,182.826)"
       style="font-variant:normal;font-weight:normal;font-size:8px;font-family:Helvetica;-inkscape-font-specification:Helvetica;writing-mode:lr-tb;fill:#7a7d82;fill-opacity:1;fill-rule:nonzero;stroke:none"
       id="text260"><tspan
         x="0 4.1040001 5.7515998"
         y="0"
         sodipodi:role="line"
         id="tspan256">0.2</tspan><tspan
         x="0 4.1040001 5.7515998"
         y="-30.257999"
         sodipodi:role="line"
         id="tspan258">0.4</tspan></text>
<g
       id="g262"
       transform="scale(0.1)"><g
         id="g264"
         clip-path="url(#clipPath268)"><g
           id="g270"
           transform="translate(3800,2461.6599)"><path
             d="m 0,0 h -31.67 m -3132.494,0 h 30.828"
             style="fill:none;stroke:#7b7979;stroke-width:10;stroke-linecap:butt;stroke-linejoin:round;stroke-miterlimit:10;stroke-dasharray:none;stroke-opacity:1"
             id="path272"
             inkscape:connector-curvature="0" /></g></g></g><text
       transform="matrix(1,0,0,-1,49.585,243.248)"
       style="font-variant:normal;font-weight:normal;font-size:8px;font-family:Helvetica;-inkscape-font-specification:Helvetica;writing-mode:lr-tb;fill:#7a7d82;fill-opacity:1;fill-rule:nonzero;stroke:none"
       id="text276"><tspan
         x="0 4.1040001 5.7515998"
         y="0"
         sodipodi:role="line"
         id="tspan274">0.6</tspan></text>
<g
       id="g278"
       transform="scale(0.1)"><g
         id="g280"
         clip-path="url(#clipPath284)"><g
           id="g286"
           transform="translate(3800,2763.3401)"><path
             d="m 0,0 h -31.67 m -3132.494,0 h 30.828"
             style="fill:none;stroke:#7b7979;stroke-width:10;stroke-linecap:butt;stroke-linejoin:round;stroke-miterlimit:10;stroke-dasharray:none;stroke-opacity:1"
             id="path288"
             inkscape:connector-curvature="0" /></g></g></g><text
       transform="matrix(1,0,0,-1,49.585,273.412)"
       style="font-variant:normal;font-weight:normal;font-size:8px;font-family:Helvetica;-inkscape-font-specification:Helvetica;writing-mode:lr-tb;fill:#7a7d82;fill-opacity:1;fill-rule:nonzero;stroke:none"
       id="text292"><tspan
         x="0 4.1040001 5.7515998"
         y="0"
         sodipodi:role="line"
         id="tspan290">0.8</tspan></text>
<g
       id="g294"
       transform="scale(0.1)"><g
         id="g296"
         clip-path="url(#clipPath300)"><g
           id="g302"
           transform="translate(635.836,346.672)"><path
             d="M 0,0 V 2416.668 M 3164.164,0 V 2416.668 M 0,0 H 3164.164 M 0,2416.668 h 3164.164"
             style="fill:none;stroke:#7b7979;stroke-width:10;stroke-linecap:butt;stroke-linejoin:round;stroke-miterlimit:10;stroke-dasharray:none;stroke-opacity:1"
             id="path304"
             inkscape:connector-curvature="0" /></g></g></g><g
       id="g306"
       transform="scale(0.1)"><g
         id="g308"
         clip-path="url(#clipPath312)"><g
           id="g314"
           transform="translate(2217.5,345.832)"><path
             d="M 0,0 V 2417.508 M -1581.664,1209.168 H 1583.33"
             style="fill:none;stroke:#7b7979;stroke-width:30;stroke-linecap:butt;stroke-linejoin:round;stroke-miterlimit:10;stroke-dasharray:5, 40;stroke-dashoffset:0;stroke-opacity:1"
             id="path316"
             inkscape:connector-curvature="0" /><g
             id="g318"
             transform="translate(-1566.5,1208.968)"><path
               d="m 0,0 c 0,-8.28 -6.719,-15 -15,-15 -8.281,0 -15,6.72 -15,15 0,8.28 6.719,15 15,15 C -6.719,15 0,8.28 0,0"
               style="fill:#ed1d24;fill-opacity:1;fill-rule:nonzero;stroke:none"
               id="path320"
               inkscape:connector-curvature="0" /></g></g></g></g><g
       id="g322"
       transform="scale(0.1)"><g
         id="g324"
         clip-path="url(#clipPath328)"><g
           id="g330"
           transform="translate(635.836,1585)"><path
             d="m 0,0 v -60 m -30,30 h 60"
             style="fill:none;stroke:#ed1d24;stroke-width:30;stroke-linecap:butt;stroke-linejoin:round;stroke-miterlimit:10;stroke-dasharray:none;stroke-opacity:1"
             id="path332"
             inkscape:connector-curvature="0" /></g></g></g><g
       id="g334"
       transform="scale(0.1)"><g
         id="g336"
         clip-path="url(#clipPath340)"><g
           id="g342"
           transform="translate(3799.1699,1555.83)"><path
             d="M 0,0 V 5.84 L -1.67,60 v 8.34 L -2.5,77.5 -3.34,88.34 -5,100 l -1.67,14.17 -1.67,15 -2.5,18.33 -3.33,20 -4.17,22.5 -5.83,25 -6.67,29.17 -9.16,32.5 -11.67,35.83 -15,40.84 -19.17,45 -24.16,50 -30.84,54.16 -38.33,58.34 -48.33,62.49 -60,65.84 -73.34,65.84 -88.33,64.16 -104.17,59.16 -120,50 -135,35.84 -147.5,15.84 -152.5,-6.68 -151.66,-33.32 -142.5,-58.34 -125,-80 -101.67,-96.66 -74.17,-105 -47.5,-105.01 -23.33,-99.16 -5,-87.5 9.17,-73.34 16.66,-60 21.67,-46.66 21.67,-35.84 21.66,-26.66 19.17,-20 16.67,-13.34 14.16,-9.99 11.67,-7.51 9.17,-4.16 7.5,-4.17 6.66,-1.67 4.17,-1.66 4.17,-1.67 2.5,-0.83 h 2.5 l 1.66,-0.84 h 5.84 l 0.83,-0.83 m 1582.5,0 H 0 v -5.83 l -1.67,-54.17 v -8.33 L -2.5,-78.33 -3.34,-89.16 -5,-100.83 -6.67,-115 l -1.67,-15 -2.5,-18.33 -3.33,-20 -4.17,-22.5 -5.83,-25 -6.67,-29.17 -9.16,-32.5 -11.67,-35.83 -15,-40.83 -19.17,-45 -24.16,-50 -30.84,-54.17 -38.33,-58.328 -48.33,-62.5 -60,-65.844 -73.34,-65.828 -88.33,-64.172 -104.17,-59.156 -120,-50 -135,-35.844 -147.5,-15.828 -152.5,6.672 -151.66,33.328 -142.5,58.328 -125,80 -101.67,96.672 -74.17,105 -47.5,105 -23.33,99.17 -5,87.5 9.17,73.33 16.66,60 21.67,46.67 21.67,35.83 21.66,26.67 19.17,20 16.67,13.33 14.16,10 11.67,7.5 9.17,4.17 7.5,4.16 6.66,1.67 4.17,1.67 4.17,1.66 2.5,0.84 h 2.5 l 1.66,0.83 h 6.67"
             style="fill:none;stroke:#3b4ba7;stroke-width:5;stroke-linecap:butt;stroke-linejoin:round;stroke-miterlimit:10;stroke-dasharray:none;stroke-opacity:1"
             id="path344"
             inkscape:connector-curvature="0" /></g></g></g><g
       id="g346"
       transform="scale(0.1)"><g
         id="g348"
         clip-path="url(#clipPath352)"><g
           id="g354"
           transform="translate(2913.3301,553.332)"><path
             d="M 0,0 -70,21.668 -10.83,57.496 0,0"
             style="fill:#3b4ba7;fill-opacity:1;fill-rule:evenodd;stroke:none"
             id="path356"
             inkscape:connector-curvature="0" /><path
             d="M 0,0 -70,21.668 -10.83,57.496 0,0"
             style="fill:none;stroke:#3b4ba7;stroke-width:5;stroke-linecap:butt;stroke-linejoin:round;stroke-miterlimit:10;stroke-dasharray:none;stroke-opacity:1"
             id="path358"
             inkscape:connector-curvature="0" /><g
             id="g360"
             transform="translate(-128.3301,2018.3279)"><path
               d="M 0,0 58.33,-35.82 -10.83,-56.66 0,0"
               style="fill:#3b4ba7;fill-opacity:1;fill-rule:evenodd;stroke:none"
               id="path362"
               inkscape:connector-curvature="0" /><path
               d="M 0,0 58.33,-35.82 -10.83,-56.66 0,0"
               style="fill:none;stroke:#3b4ba7;stroke-width:5;stroke-linecap:butt;stroke-linejoin:round;stroke-miterlimit:10;stroke-dasharray:none;stroke-opacity:1"
               id="path364"
               inkscape:connector-curvature="0" /></g></g></g></g><text
       transform="matrix(0,1,1,0,30.4988,135.657)"
       style="font-variant:normal;font-weight:normal;font-size:8px;font-family:Helvetica;-inkscape-font-specification:Helvetica;writing-mode:lr-tb;fill:#211c1d;fill-opacity:1;fill-rule:nonzero;stroke:none"
       id="text368"><tspan
         x="0 1.9119999 8.5839996 12.44 16.912001 18.784 23.224001 27.08 29.695999 33.464001 35.16 40.056 43.759998 45.646305"
         y="0"
         sodipodi:role="line"
         id="tspan366">Imaginary Axis</tspan></text>
<text
       transform="matrix(1,0,0,-1,227.062,161.093)"
       style="font-variant:normal;font-weight:normal;font-size:18px;font-family:MyriadPro;-inkscape-font-specification:MyriadPro-Regular;writing-mode:lr-tb;fill:#100f0d;fill-opacity:1;fill-rule:nonzero;stroke:none"
       id="text382"><tspan
         x="0 12.492 23.219999 28.746 120.218 132.71001 143.438"
         y="0"
         sodipodi:role="line"
         id="tspan370">ω=-∞ω=0</tspan><tspan
         x="0 12.492 23.219999 33.948002"
         y="22.343"
         sodipodi:role="line"
         id="tspan372">ω=+∞</tspan><tspan
         x="0 12.492 23.219999 28.746"
         y="-58"
         sodipodi:role="line"
         id="tspan374">ω=-1</tspan><tspan
         x="0 12.492 23.219999"
         y="81.709999"
         sodipodi:role="line"
         id="tspan376">ω=1</tspan><tspan
         x="140.048"
         y="22.343"
         id="tspan378">1</tspan><tspan
         x="-156.79201 -151.26601"
         y="24.603001"
         sodipodi:role="line"
         id="tspan380">-1</tspan></text>
<g
       id="g384"
       transform="scale(0.1)"><g
         id="g386"
         clip-path="url(#clipPath390)"><g
           id="g392"
           transform="translate(2261.24,1555)"><path
             d="m 0,0 c 0,-18.17 -14.74,-32.91 -32.91,-32.91 -18.17,0 -32.91,14.74 -32.91,32.91 0,18.18 14.74,32.91 32.91,32.91 C -14.74,32.91 0,18.18 0,0"
             style="fill:#757475;fill-opacity:1;fill-rule:nonzero;stroke:none"
             id="path394"
             inkscape:connector-curvature="0" /><path
             d="m 0,0 c 0,-18.17 -14.74,-32.91 -32.91,-32.91 -18.17,0 -32.91,14.74 -32.91,32.91 0,18.18 14.74,32.91 32.91,32.91 C -14.74,32.91 0,18.18 0,0 Z"
             style="fill:none;stroke:#959595;stroke-width:10;stroke-linecap:butt;stroke-linejoin:miter;stroke-miterlimit:10;stroke-dasharray:none;stroke-opacity:1"
             id="path396"
             inkscape:connector-curvature="0" /><g
             id="g398"
             transform="translate(1571.6699)"><path
               d="m 0,0 c 0,-18.17 -14.74,-32.91 -32.91,-32.91 -18.17,0 -32.91,14.74 -32.91,32.91 0,18.18 14.74,32.91 32.91,32.91 C -14.74,32.91 0,18.18 0,0"
               style="fill:#757475;fill-opacity:1;fill-rule:nonzero;stroke:none"
               id="path400"
               inkscape:connector-curvature="0" /><path
               d="m 0,0 c 0,-18.17 -14.74,-32.91 -32.91,-32.91 -18.17,0 -32.91,14.74 -32.91,32.91 0,18.18 14.74,32.91 32.91,32.91 C -14.74,32.91 0,18.18 0,0 Z"
               style="fill:none;stroke:#959595;stroke-width:10;stroke-linecap:butt;stroke-linejoin:miter;stroke-miterlimit:10;stroke-dasharray:none;stroke-opacity:1"
               id="path402"
               inkscape:connector-curvature="0" /><g
               id="g404"
               transform="translate(-1582.5,753.73)"><path
                 d="m 0,0 c 0,-18.18 -14.74,-32.91 -32.91,-32.91 -18.17,0 -32.91,14.73 -32.91,32.91 0,18.18 14.74,32.91 32.91,32.91 C -14.74,32.91 0,18.18 0,0"
                 style="fill:#757475;fill-opacity:1;fill-rule:nonzero;stroke:none"
                 id="path406"
                 inkscape:connector-curvature="0" /><path
                 d="m 0,0 c 0,-18.18 -14.74,-32.91 -32.91,-32.91 -18.17,0 -32.91,14.73 -32.91,32.91 0,18.18 14.74,32.91 32.91,32.91 C -14.74,32.91 0,18.18 0,0 Z"
                 style="fill:none;stroke:#959595;stroke-width:10;stroke-linecap:butt;stroke-linejoin:miter;stroke-miterlimit:10;stroke-dasharray:none;stroke-opacity:1"
                 id="path408"
                 inkscape:connector-curvature="0" /><g
                 id="g410"
                 transform="translate(0.8301,-1502.929)"><path
                   d="m 0,0 c 0,-18.172 -14.74,-32.91 -32.91,-32.91 -18.17,0 -32.91,14.738 -32.91,32.91 0,18.179 14.74,32.91 32.91,32.91 C -14.74,32.91 0,18.179 0,0"
                   style="fill:#757475;fill-opacity:1;fill-rule:nonzero;stroke:none"
                   id="path412"
                   inkscape:connector-curvature="0" /><path
                   d="m 0,0 c 0,-18.172 -14.74,-32.91 -32.91,-32.91 -18.17,0 -32.91,14.738 -32.91,32.91 0,18.179 14.74,32.91 32.91,32.91 C -14.74,32.91 0,18.179 0,0 Z"
                   style="fill:none;stroke:#959595;stroke-width:10;stroke-linecap:butt;stroke-linejoin:miter;stroke-miterlimit:10;stroke-dasharray:none;stroke-opacity:1"
                   id="path414"
                   inkscape:connector-curvature="0" /></g></g></g></g></g></g><text
       xml:space="preserve"
       style="font-style:normal;font-weight:normal;font-size:30px;line-height:18.75px;font-family:sans-serif;letter-spacing:0px;word-spacing:0px;fill:#000000;fill-opacity:1;stroke:none;stroke-width:0.75"
       x="155.88063"
       y="-0.59232903"
       id="text4098"
       transform="scale(1,-1)"><tspan
         sodipodi:role="line"
         id="tspan4096"
         x="155.88063"
         y="-0.59232903"
         style="stroke-width:0.75">Real axis</tspan></text>
</g></svg>