<?xml version="1.0" encoding="UTF-8" standalone="no"?>
<!-- Created with Inkscape (http://www.inkscape.org/) -->

<svg
   xmlns:dc="http://purl.org/dc/elements/1.1/"
   xmlns:cc="http://creativecommons.org/ns#"
   xmlns:rdf="http://www.w3.org/1999/02/22-rdf-syntax-ns#"
   xmlns:svg="http://www.w3.org/2000/svg"
   xmlns="http://www.w3.org/2000/svg"
   xmlns:sodipodi="http://sodipodi.sourceforge.net/DTD/sodipodi-0.dtd"
   xmlns:inkscape="http://www.inkscape.org/namespaces/inkscape"
   version="1.1"
   id="svg2"
   xml:space="preserve"
   width="469.53195"
   height="393.02203"
   viewBox="0 0 469.53195 393.02203"
   sodipodi:docname="root-locus.svg"
   inkscape:version="0.92.0 r15299"><metadata
     id="metadata8"><rdf:RDF><cc:Work
         rdf:about=""><dc:format>image/svg+xml</dc:format><dc:type
           rdf:resource="http://purl.org/dc/dcmitype/StillImage" /><dc:title></dc:title></cc:Work></rdf:RDF></metadata><defs
     id="defs6"><clipPath
       clipPathUnits="userSpaceOnUse"
       id="clipPath18"><path
         d="M 0,3064.7 V 0 h 3602.86 v 3064.7 z"
         id="path16"
         inkscape:connector-curvature="0" /></clipPath><clipPath
       clipPathUnits="userSpaceOnUse"
       id="clipPath98"><path
         d="M 0,3064.7 V 0 h 3602.86 v 3064.7 z"
         id="path96"
         inkscape:connector-curvature="0" /></clipPath></defs><sodipodi:namedview
     pagecolor="#ffffff"
     bordercolor="#666666"
     borderopacity="1"
     objecttolerance="10"
     gridtolerance="10"
     guidetolerance="10"
     inkscape:pageopacity="0"
     inkscape:pageshadow="2"
     inkscape:window-width="640"
     inkscape:window-height="480"
     id="namedview4"
     showgrid="false"
     fit-margin-top="0"
     fit-margin-left="0"
     fit-margin-right="0"
     fit-margin-bottom="0"
     inkscape:zoom="0.22348485"
     inkscape:cx="329.69492"
     inkscape:cy="514.55795"
     inkscape:window-x="0"
     inkscape:window-y="0"
     inkscape:window-maximized="0"
     inkscape:current-layer="g10" /><g
     id="g10"
     inkscape:groupmode="layer"
     inkscape:label="A9Rcpgeo8_fhu21x_3g0"
     transform="matrix(1.3333333,0,0,-1.3333333,0,406.46409)"><g
       id="g12"
       transform="scale(0.1)"><g
         id="g14"
         clip-path="url(#clipPath18)"><g
           id="g20"
           transform="translate(2079.3701,2818.02)"><path
             d="M 0,0 V -1603.17"
             style="fill:none;stroke:#211c1d;stroke-width:20;stroke-linecap:butt;stroke-linejoin:miter;stroke-miterlimit:10;stroke-dasharray:none;stroke-opacity:1"
             id="path22"
             inkscape:connector-curvature="0" /></g><g
           id="g24"
           transform="translate(0,1992.62)"><path
             d="M 0,0 H 2960.32"
             style="fill:none;stroke:#211c1d;stroke-width:20;stroke-linecap:butt;stroke-linejoin:miter;stroke-miterlimit:10;stroke-dasharray:none;stroke-opacity:1"
             id="path26"
             inkscape:connector-curvature="0" /></g><g
           id="g28"
           transform="translate(1936.5,1992.63)"><path
             d="m 0,0 c 0,-227.93 -184.76,-412.7 -412.69,-412.7 -227.93,0 -412.7,184.77 -412.7,412.7 0,227.92 184.77,412.69 412.7,412.69 C -184.76,412.69 0,227.92 0,0 Z"
             style="fill:none;stroke:#211c1d;stroke-width:20;stroke-linecap:butt;stroke-linejoin:miter;stroke-miterlimit:10;stroke-dasharray:none;stroke-opacity:1"
             id="path30"
             inkscape:connector-curvature="0" /></g><g
           id="g32"
           transform="translate(476.191,1214.85)"><path
             d="M 0,0 V 1603.17"
             style="fill:none;stroke:#211c1d;stroke-width:10;stroke-linecap:butt;stroke-linejoin:miter;stroke-miterlimit:10;stroke-dasharray:120, 120;stroke-dashoffset:0;stroke-opacity:1"
             id="path34"
             inkscape:connector-curvature="0" /></g><g
           id="g36"
           transform="translate(542.043,2984.8501)"><path
             d="M 0,0 C 0,0 265.418,-683.82 209.871,-1112.39"
             style="fill:none;stroke:#211c1d;stroke-width:10;stroke-linecap:butt;stroke-linejoin:miter;stroke-miterlimit:10;stroke-dasharray:none;stroke-opacity:1"
             id="path38"
             inkscape:connector-curvature="0" /></g><g
           id="g40"
           transform="translate(542.043,2838.49)"><path
             d="M 0,0 V 146.36 L 108.758,73.18"
             style="fill:none;stroke:#211c1d;stroke-width:10;stroke-linecap:butt;stroke-linejoin:miter;stroke-miterlimit:10;stroke-dasharray:none;stroke-opacity:1"
             id="path42"
             inkscape:connector-curvature="0" /></g><g
           id="g44"
           transform="translate(751.914,1872.46)"><path
             d="m 0,0 c -15.351,-395.39 -209.871,-850.79 -209.871,-850.79 l 104.934,56.67"
             style="fill:none;stroke:#211c1d;stroke-width:10;stroke-linecap:butt;stroke-linejoin:miter;stroke-miterlimit:10;stroke-dasharray:none;stroke-opacity:1"
             id="path46"
             inkscape:connector-curvature="0" /></g><g
           id="g48"
           transform="translate(542.043,1131.67)"><path
             d="M 0,0 V -110"
             style="fill:none;stroke:#211c1d;stroke-width:10;stroke-linecap:butt;stroke-linejoin:miter;stroke-miterlimit:10;stroke-dasharray:none;stroke-opacity:1"
             id="path50"
             inkscape:connector-curvature="0" /></g><g
           id="g52"
           transform="translate(52.3516,2043.14)"><path
             d="M 0,0 101.015,-101.02"
             style="fill:none;stroke:#211c1d;stroke-width:10;stroke-linecap:butt;stroke-linejoin:miter;stroke-miterlimit:10;stroke-dasharray:none;stroke-opacity:1"
             id="path54"
             inkscape:connector-curvature="0" /></g><g
           id="g56"
           transform="translate(52.3516,1942.12)"><path
             d="M 0,0 101.015,101.02"
             style="fill:none;stroke:#211c1d;stroke-width:10;stroke-linecap:butt;stroke-linejoin:miter;stroke-miterlimit:10;stroke-dasharray:none;stroke-opacity:1"
             id="path58"
             inkscape:connector-curvature="0" /></g><g
           id="g60"
           transform="translate(2028.86,2043.13)"><path
             d="M 0,0 101.01,-101.01"
             style="fill:none;stroke:#211c1d;stroke-width:10;stroke-linecap:butt;stroke-linejoin:miter;stroke-miterlimit:10;stroke-dasharray:none;stroke-opacity:1"
             id="path62"
             inkscape:connector-curvature="0" /></g><g
           id="g64"
           transform="translate(2028.86,1942.12)"><path
             d="M 0,0 101.01,101.01"
             style="fill:none;stroke:#211c1d;stroke-width:10;stroke-linecap:butt;stroke-linejoin:miter;stroke-miterlimit:10;stroke-dasharray:none;stroke-opacity:1"
             id="path66"
             inkscape:connector-curvature="0" /></g><g
           id="g68"
           transform="translate(1835.49,2043.13)"><path
             d="M 0,0 101.01,-101.01"
             style="fill:none;stroke:#211c1d;stroke-width:10;stroke-linecap:butt;stroke-linejoin:miter;stroke-miterlimit:10;stroke-dasharray:none;stroke-opacity:1"
             id="path70"
             inkscape:connector-curvature="0" /></g><g
           id="g72"
           transform="translate(1835.49,1942.12)"><path
             d="M 0,0 101.01,101.01"
             style="fill:none;stroke:#211c1d;stroke-width:10;stroke-linecap:butt;stroke-linejoin:miter;stroke-miterlimit:10;stroke-dasharray:none;stroke-opacity:1"
             id="path74"
             inkscape:connector-curvature="0" /></g><g
           id="g76"
           transform="translate(1567.14,1992.62)"><path
             d="m 0,0 c 0,-23.93 -19.4,-43.33 -43.33,-43.33 -23.93,0 -43.33,19.4 -43.33,43.33 0,23.94 19.4,43.33 43.33,43.33 C -19.4,43.33 0,23.94 0,0 Z"
             style="fill:none;stroke:#211c1d;stroke-width:10;stroke-linecap:butt;stroke-linejoin:miter;stroke-miterlimit:10;stroke-dasharray:none;stroke-opacity:1"
             id="path78"
             inkscape:connector-curvature="0" /></g><path
           d="m 513.09,1171.52 h 166.668 v 86.66 H 513.09 Z"
           style="fill:none;stroke:#211c1d;stroke-width:10;stroke-linecap:butt;stroke-linejoin:miter;stroke-miterlimit:10;stroke-dasharray:none;stroke-opacity:1"
           id="path80"
           inkscape:connector-curvature="0" /><path
           d="m 1296.2,1932.62 h 120 v 120 h -120 z"
           style="fill:none;stroke:#211c1d;stroke-width:10;stroke-linecap:butt;stroke-linejoin:miter;stroke-miterlimit:10;stroke-dasharray:none;stroke-opacity:1"
           id="path82"
           inkscape:connector-curvature="0" /><path
           d="m 513.086,2731.36 h 166.672 v 86.664 H 513.086 Z"
           style="fill:none;stroke:#211c1d;stroke-width:10;stroke-linecap:butt;stroke-linejoin:miter;stroke-miterlimit:10;stroke-dasharray:none;stroke-opacity:1"
           id="path84"
           inkscape:connector-curvature="0" /></g></g><text
       transform="matrix(1,0,0,-1,188.6,288.893)"
       style="font-variant:normal;font-weight:normal;font-size:21px;font-family:MyriadPro;-inkscape-font-specification:MyriadPro-Regular;writing-mode:lr-tb;fill:#100f0d;fill-opacity:1;fill-rule:nonzero;stroke:none"
       id="text90"><tspan
         x="0 5.2290001 22.743 28.707001 37.022999"
         y="0"
         sodipodi:role="line"
         id="tspan86">Im(s)</tspan><tspan
         x="119.686 131.06779 141.58879 147.5528 155.86879"
         y="89.207001"
         sodipodi:role="line"
         id="tspan88">Re(s)</tspan></text>
<g
       id="g92"
       transform="scale(0.1)"><g
         id="g94"
         clip-path="url(#clipPath98)"><g
           id="g100"
           transform="translate(1189.53,838.34)"><path
             d="M 0,0 156.86,942.06"
             style="fill:none;stroke:#211c1d;stroke-width:10;stroke-linecap:butt;stroke-linejoin:miter;stroke-miterlimit:10;stroke-dasharray:none;stroke-opacity:1"
             id="path102"
             inkscape:connector-curvature="0" /></g><g
           id="g104"
           transform="translate(1378.3101,1746.61)"><path
             d="M 0,0 -33.95,21.61 -73.06,12.17 -22.11,92.68 0,0"
             style="fill:#211c1d;fill-opacity:1;fill-rule:nonzero;stroke:none"
             id="path106"
             inkscape:connector-curvature="0" /></g></g></g><text
       transform="matrix(1,0,0,-1,42.952,53.554)"
       style="font-variant:normal;font-weight:normal;font-size:18px;font-family:MyriadPro;-inkscape-font-specification:MyriadPro-Regular;writing-mode:lr-tb;fill:#100f0d;fill-opacity:1;fill-rule:nonzero;stroke:none"
       id="text114"><tspan
         x="0 8.2436943 18.125694 28.115694 38.177692 41.993694 47.951694 52.163692 67.175697 76.193695 80.009697 87.965691 97.847694 107.83769 114.96569 120.92369 129.5997 139.5177 145.47569 149.29169 159.53369 169.4157 173.6637 182.68169 186.4977 196.4877 205.50569 214.18169 220.06769 223.8837 231.46181 240.4798 246.18591 255.63602 259.36203"
         y="0"
         sodipodi:role="line"
         id="tspan108">Long time constant pole near zero. </tspan><tspan
         x="0 9.1265039 19.008505 23.256504 32.274506 36.090504 46.080505 54.756504 61.884502 65.7005 72.828506 87.840508 96.516502 100.7645 105.0125 108.82851 114.53461 123.55261 130.68062 134.89261 145.04462 154.96262 163.76431 167.49031 171.3063 181.54831 191.46631 197.4243 201.24031 209.91631 213.7323 217.9803 227.8623 237.85231 247.91431"
         y="21.6"
         sodipodi:role="line"
         id="tspan110">Pole has small residue, but a long </tspan><tspan
         x="0 5.9580002 10.17 25.181999 34.200001 38.015999 45.972 55.854 65.844002 72.972 78.93 87.606003 97.525009 103.42931"
         y="43.200001"
         sodipodi:role="line"
         id="tspan112">time constant.</tspan></text>
</g></svg>