<?xml version="1.0" encoding="UTF-8" standalone="no"?>
<!-- Created with Inkscape (http://www.inkscape.org/) -->

<svg
   xmlns:dc="http://purl.org/dc/elements/1.1/"
   xmlns:cc="http://creativecommons.org/ns#"
   xmlns:rdf="http://www.w3.org/1999/02/22-rdf-syntax-ns#"
   xmlns:svg="http://www.w3.org/2000/svg"
   xmlns="http://www.w3.org/2000/svg"
   xmlns:sodipodi="http://sodipodi.sourceforge.net/DTD/sodipodi-0.dtd"
   xmlns:inkscape="http://www.inkscape.org/namespaces/inkscape"
   version="1.1"
   id="svg2"
   xml:space="preserve"
   width="658.85791"
   height="540.5036"
   viewBox="0 0 658.85791 540.5036"
   sodipodi:docname="step2.svg"
   inkscape:version="0.92.0 r15299"><metadata
     id="metadata8"><rdf:RDF><cc:Work
         rdf:about=""><dc:format>image/svg+xml</dc:format><dc:type
           rdf:resource="http://purl.org/dc/dcmitype/StillImage" /><dc:title></dc:title></cc:Work></rdf:RDF></metadata><defs
     id="defs6"><clipPath
       clipPathUnits="userSpaceOnUse"
       id="clipPath18"><path
         d="M 0,4116.39 V 0 h 5002.02 v 4116.39 z"
         id="path16"
         inkscape:connector-curvature="0" /></clipPath><clipPath
       clipPathUnits="userSpaceOnUse"
       id="clipPath428"><path
         d="M 0,4116.39 V 0 h 5002.02 v 4116.39 z"
         id="path426"
         inkscape:connector-curvature="0" /></clipPath></defs><sodipodi:namedview
     pagecolor="#ffffff"
     bordercolor="#666666"
     borderopacity="1"
     objecttolerance="10"
     gridtolerance="10"
     guidetolerance="10"
     inkscape:pageopacity="0"
     inkscape:pageshadow="2"
     inkscape:window-width="640"
     inkscape:window-height="480"
     id="namedview4"
     showgrid="false"
     fit-margin-top="0"
     fit-margin-left="0"
     fit-margin-right="0"
     fit-margin-bottom="0"
     inkscape:zoom="0.22348485"
     inkscape:cx="327.17332"
     inkscape:cy="521.42146"
     inkscape:window-x="0"
     inkscape:window-y="0"
     inkscape:window-maximized="0"
     inkscape:current-layer="g10" /><g
     id="g10"
     inkscape:groupmode="layer"
     inkscape:label="A9Rvr10d0_fhu21v_3g0"
     transform="matrix(1.3333333,0,0,-1.3333333,-2.5215937,547.08215)"><g
       id="g12"
       transform="scale(0.1)"><g
         id="g14"
         clip-path="url(#clipPath18)"><g
           id="g20"
           transform="translate(2416.1599,2571.5901)"><path
             d="m 0,0 c -4.42,28.78 13.08,28.47 32.18,28.27 95.8,-1.07 191.59,-2.95 287.38,-2.91 104.12,0.03 208.24,2.85 312.37,2.73 627.85,-0.72 1255.7,-1.92 1883.56,-2.96"
             style="fill:none;stroke:#231f20;stroke-width:20;stroke-linecap:round;stroke-linejoin:round;stroke-miterlimit:10;stroke-dasharray:none;stroke-opacity:1"
             id="path22"
             inkscape:connector-curvature="0" /></g><g
           id="g24"
           transform="translate(499.184,928.68)"><path
             d="m 0,0 c -3.543,-6.129 -7.082,-12.258 -10.629,-18.391 -2.184,0.922 -4.367,1.852 -6.547,2.781 0,1043.3 0,2086.6 0,3129.9 1483.212,0 2967.982,0 4455.882,0 0,-11.45 0,-22.9 0,-34.36 0,-460.22 0,-920.43 0,-1380.65 0,-497.71 0,-995.41 0,-1493.11 0,-199.92 0.15,-399.83 -0.51,-599.741 -0.03,-8.418 11.17,-26.16 -11.98,-24.988"
             style="fill:none;stroke:#231f20;stroke-width:20;stroke-linecap:round;stroke-linejoin:round;stroke-miterlimit:10;stroke-dasharray:none;stroke-opacity:1"
             id="path26"
             inkscape:connector-curvature="0" /></g><g
           id="g28"
           transform="translate(2417.1101,2593.6001)"><path
             d="m 0,0 c -15.62,1.04 -31.23,2.72 -46.86,3.01 -119.74,2.28 -239.49,6.36 -359.21,5.65 -84.37,-0.5 -168.65,-9.44 -253.04,-11.16 -58.24,-1.18 -116.69,2.18 -174.87,6.16 -31.45,2.16 -62.51,9.87 -93.75,15.08"
             style="fill:none;stroke:#231f20;stroke-width:20;stroke-linecap:round;stroke-linejoin:round;stroke-miterlimit:10;stroke-dasharray:none;stroke-opacity:1"
             id="path30"
             inkscape:connector-curvature="0" /></g><g
           id="g32"
           transform="translate(586.648,2865.3501)"><path
             d="m 0,0 c -3.125,-41.65 -7.019,-83.26 -9.175,-124.96 -2.864,-55.13 -4.493,-110.35 -6.41,-165.54 -2.235,-64.55 2.164,-130.16 -8.29,-193.33 -8.386,-50.67 -3.472,-100.34 -7.546,-150.26 -0.774,-9.47 -3.977,-18.75 -6.063,-28.12"
             style="fill:none;stroke:#231f20;stroke-width:20;stroke-linecap:round;stroke-linejoin:round;stroke-miterlimit:10;stroke-dasharray:none;stroke-opacity:1"
             id="path34"
             inkscape:connector-curvature="0" /></g><g
           id="g36"
           transform="translate(789.688,2915.3301)"><path
             d="m 0,0 c 6.246,-63.52 12.476,-127.03 18.746,-190.54 3.086,-31.24 5.445,-62.58 9.55,-93.69 6.606,-50.07 14.516,-99.96 21.61,-149.97 2.508,-17.64 4.562,-35.36 6.246,-53.09 3.359,-35.39 6.316,-70.8 9.441,-106.2"
             style="fill:none;stroke:#231f20;stroke-width:20;stroke-linecap:round;stroke-linejoin:round;stroke-miterlimit:10;stroke-dasharray:none;stroke-opacity:1"
             id="path38"
             inkscape:connector-curvature="0" /></g><g
           id="g40"
           transform="translate(3857.1101,513.25)"><path
             d="M 0,0 C 11.45,-1.051 22.91,-2.988 34.36,-2.988 374.83,-3.16 715.31,-3.129 1055.79,-3.129"
             style="fill:none;stroke:#231f20;stroke-width:20;stroke-linecap:round;stroke-linejoin:round;stroke-miterlimit:10;stroke-dasharray:none;stroke-opacity:1"
             id="path42"
             inkscape:connector-curvature="0" /></g><g
           id="g44"
           transform="translate(3363.5701,922.441)"><path
             d="m 0,0 c -32.27,6.239 -64.44,13.168 -96.87,18.5 -20.62,3.391 -41.61,4.411 -62.43,6.489 -41.65,4.172 -83.5,6.98 -124.89,12.902 -37.76,5.398 -74.89,15.027 -112.55,21.227 -38.34,6.293 -77.02,10.652 -115.53,15.851"
             style="fill:none;stroke:#231f20;stroke-width:20;stroke-linecap:round;stroke-linejoin:round;stroke-miterlimit:10;stroke-dasharray:none;stroke-opacity:1"
             id="path46"
             inkscape:connector-curvature="0" /></g><g
           id="g48"
           transform="translate(711.594,3424.48)"><path
             d="M 0,0 C 25.285,-140.94 51.379,-281.78 62.472,-424.81"
             style="fill:none;stroke:#231f20;stroke-width:20;stroke-linecap:round;stroke-linejoin:round;stroke-miterlimit:10;stroke-dasharray:none;stroke-opacity:1"
             id="path50"
             inkscape:connector-curvature="0" /></g><g
           id="g52"
           transform="translate(4169.4702,863.09)"><path
             d="m 0,0 c -4.16,1.039 -8.29,2.789 -12.5,3.031 -115.56,6.359 -231.14,12.57 -346.72,18.848 -17.7,0.961 -35.4,2.062 -53.09,3.113"
             style="fill:none;stroke:#231f20;stroke-width:20;stroke-linecap:round;stroke-linejoin:round;stroke-miterlimit:10;stroke-dasharray:none;stroke-opacity:1"
             id="path54"
             inkscape:connector-curvature="0" /></g><g
           id="g56"
           transform="translate(870.898,2246.8701)"><path
             d="m 0,0 c 7.29,-56.23 14.043,-112.53 22.012,-168.66 8.735,-61.52 18.453,-122.9 28.07,-184.29 2.461,-15.72 6.145,-31.26 9.27,-46.88"
             style="fill:none;stroke:#231f20;stroke-width:20;stroke-linecap:round;stroke-linejoin:round;stroke-miterlimit:10;stroke-dasharray:none;stroke-opacity:1"
             id="path58"
             inkscape:connector-curvature="0" /></g><g
           id="g60"
           transform="translate(2713.8601,560.102)"><path
             d="m 0,0 c 0,-12.5 0,-24.993 0,-43.731 -733.02,0 -1466.04,0 -2199.055,0"
             style="fill:none;stroke:#231f20;stroke-width:20;stroke-linecap:round;stroke-linejoin:round;stroke-miterlimit:10;stroke-dasharray:none;stroke-opacity:1"
             id="path62"
             inkscape:connector-curvature="0" /></g><g
           id="g64"
           transform="translate(549.164,2190.6399)"><path
             d="m 0,0 c -1.039,-2.08 -2.949,-4.14 -2.996,-6.24 -2.227,-91.63 -3.688,-183.27 -6.578,-274.88 -2.074,-65.63 -6.098,-131.2 -9.141,-196.79 -1.207,-26.03 -2.242,-52.06 -3.125,-78.1 -3.183,-93.71 -6.273,-187.41 -9.394,-281.12"
             style="fill:none;stroke:#231f20;stroke-width:20;stroke-linecap:round;stroke-linejoin:round;stroke-miterlimit:10;stroke-dasharray:none;stroke-opacity:1"
             id="path66"
             inkscape:connector-curvature="0" /></g><g
           id="g68"
           transform="translate(624.133,3315.1599)"><path
             d="m 0,0 c -7.285,-101 -14.559,-202 -21.899,-302.99 -0.828,-11.47 -2.054,-22.91 -3.093,-34.36"
             style="fill:none;stroke:#231f20;stroke-width:20;stroke-linecap:round;stroke-linejoin:round;stroke-miterlimit:10;stroke-dasharray:none;stroke-opacity:1"
             id="path70"
             inkscape:connector-curvature="0" /></g><g
           id="g72"
           transform="translate(855.281,2809.1201)"><path
             d="m 0,0 c 5.207,-36.43 7.934,-73.45 16.149,-109.2 15.89,-69.14 34.871,-137.56 52.574,-206.28"
             style="fill:none;stroke:#231f20;stroke-width:20;stroke-linecap:round;stroke-linejoin:round;stroke-miterlimit:10;stroke-dasharray:none;stroke-opacity:1"
             id="path74"
             inkscape:connector-curvature="0" /></g><g
           id="g76"
           transform="translate(4681.7598,838.102)"><path
             d="m 0,0 c -2.08,1.039 -4.15,2.957 -6.25,3.007 -105.17,2.211 -210.36,3.27 -315.48,6.75 -61.5,2.051 -122.88,7.942 -184.31,12.102"
             style="fill:none;stroke:#231f20;stroke-width:20;stroke-linecap:round;stroke-linejoin:round;stroke-miterlimit:10;stroke-dasharray:none;stroke-opacity:1"
             id="path78"
             inkscape:connector-curvature="0" /></g><g
           id="g80"
           transform="translate(742.832,3452.6001)"><path
             d="m 0,0 c 6.246,-35.4 13.176,-70.7 18.57,-106.23 6.95,-45.71 12.664,-91.6 18.911,-137.42"
             style="fill:none;stroke:#231f20;stroke-width:20;stroke-linecap:round;stroke-linejoin:round;stroke-miterlimit:10;stroke-dasharray:none;stroke-opacity:1"
             id="path82"
             inkscape:connector-curvature="0" /></g><g
           id="g84"
           transform="translate(511.68,1350.38)"><path
             d="m 0,0 c -1.039,-44.77 -2.078,-89.54 -3.125,-134.31 -2.078,-89.54 -4.16,-179.09 -6.246,-268.64"
             style="fill:none;stroke:#231f20;stroke-width:20;stroke-linecap:round;stroke-linejoin:round;stroke-miterlimit:10;stroke-dasharray:none;stroke-opacity:1"
             id="path86"
             inkscape:connector-curvature="0" /></g><g
           id="g88"
           transform="translate(4931.6499,834.98)"><path
             d="m 0,0 c -59.36,0 -118.7,-0.23 -178.06,0.149 -17.7,0.113 -35.4,1.93 -53.09,2.973"
             style="fill:none;stroke:#231f20;stroke-width:20;stroke-linecap:round;stroke-linejoin:round;stroke-miterlimit:10;stroke-dasharray:none;stroke-opacity:1"
             id="path90"
             inkscape:connector-curvature="0" /></g><g
           id="g92"
           transform="translate(1448.77,1587.78)"><path
             d="m 0,0 c -35.9,49.03 -79.08,90.94 -131.75,120.83 -18.33,10.4 -43.17,9.32 -65.03,13.48"
             style="fill:none;stroke:#231f20;stroke-width:20;stroke-linecap:round;stroke-linejoin:round;stroke-miterlimit:10;stroke-dasharray:none;stroke-opacity:1"
             id="path94"
             inkscape:connector-curvature="0" /></g><g
           id="g96"
           transform="translate(786.563,3205.8301)"><path
             d="m 0,0 c 7.285,-53.1 14.5,-106.22 21.898,-159.3 2.906,-20.86 6.211,-41.66 9.336,-62.48"
             style="fill:none;stroke:#231f20;stroke-width:20;stroke-linecap:round;stroke-linejoin:round;stroke-miterlimit:10;stroke-dasharray:none;stroke-opacity:1"
             id="path98"
             inkscape:connector-curvature="0" /></g><g
           id="g100"
           transform="translate(2626.3999,1053.64)"><path
             d="m 0,0 c -35.29,2.96 -69.42,8.49 -103.5,20.73 -34.59,12.42 -72.47,15.7 -108.92,23"
             style="fill:none;stroke:#231f20;stroke-width:20;stroke-linecap:round;stroke-linejoin:round;stroke-miterlimit:10;stroke-dasharray:none;stroke-opacity:1"
             id="path102"
             inkscape:connector-curvature="0" /></g><g
           id="g104"
           transform="translate(3625.96,903.699)"><path
             d="M 0,0 C -70.8,4.16 -141.6,8.321 -212.41,12.492"
             style="fill:none;stroke:#231f20;stroke-width:20;stroke-linecap:round;stroke-linejoin:round;stroke-miterlimit:10;stroke-dasharray:none;stroke-opacity:1"
             id="path106"
             inkscape:connector-curvature="0" /></g><g
           id="g108"
           transform="translate(1455.02,1581.54)"><path
             d="m 0,0 c 30.2,-34.37 59.02,-70.07 91.04,-102.64 23.73,-24.13 51.61,-44.18 77.64,-66.05"
             style="fill:none;stroke:#231f20;stroke-width:20;stroke-linecap:round;stroke-linejoin:round;stroke-miterlimit:10;stroke-dasharray:none;stroke-opacity:1"
             id="path110"
             inkscape:connector-curvature="0" /></g><g
           id="g112"
           transform="translate(1486.26,2618.5801)"><path
             d="m 0,0 c -34.36,10.42 -68.15,24.04 -103.26,30.23 -28.27,4.99 -58.13,1.01 -87.28,1.01"
             style="fill:none;stroke:#231f20;stroke-width:20;stroke-linecap:round;stroke-linejoin:round;stroke-miterlimit:10;stroke-dasharray:none;stroke-opacity:1"
             id="path114"
             inkscape:connector-curvature="0" /></g><g
           id="g116"
           transform="translate(667.859,3558.8)"><path
             d="M 0,0 C -10.41,-58.3 -20.824,-116.61 -31.234,-174.92"
             style="fill:none;stroke:#231f20;stroke-width:20;stroke-linecap:round;stroke-linejoin:round;stroke-miterlimit:10;stroke-dasharray:none;stroke-opacity:1"
             id="path118"
             inkscape:connector-curvature="0" /></g><g
           id="g120"
           transform="translate(824.043,2980.9299)"><path
             d="M 0,0 C 8.336,-56.23 16.66,-112.46 24.988,-168.68"
             style="fill:none;stroke:#231f20;stroke-width:20;stroke-linecap:round;stroke-linejoin:round;stroke-miterlimit:10;stroke-dasharray:none;stroke-opacity:1"
             id="path122"
             inkscape:connector-curvature="0" /></g><g
           id="g124"
           transform="translate(958.363,1740.84)"><path
             d="M 0,0 C 16.422,-49.39 26.242,-101.87 65.597,-140.56"
             style="fill:none;stroke:#231f20;stroke-width:20;stroke-linecap:round;stroke-linejoin:round;stroke-miterlimit:10;stroke-dasharray:none;stroke-opacity:1"
             id="path126"
             inkscape:connector-curvature="0" /></g><g
           id="g128"
           transform="translate(736.582,3455.72)"><path
             d="m 0,0 c -7.285,29.16 -13.398,58.67 -22.223,87.35 -7.621,24.79 -22.347,30.55 -40.25,18.86"
             style="fill:none;stroke:#231f20;stroke-width:20;stroke-linecap:round;stroke-linejoin:round;stroke-miterlimit:10;stroke-dasharray:none;stroke-opacity:1"
             id="path130"
             inkscape:connector-curvature="0" /></g><g
           id="g132"
           transform="translate(2804.4399,1013.03)"><path
             d="M 0,0 C -46.85,8.32 -93.71,16.66 -140.56,24.99"
             style="fill:none;stroke:#231f20;stroke-width:20;stroke-linecap:round;stroke-linejoin:round;stroke-miterlimit:10;stroke-dasharray:none;stroke-opacity:1"
             id="path134"
             inkscape:connector-curvature="0" /></g><g
           id="g136"
           transform="translate(1239.49,1712.73)"><path
             d="m 0,0 c -43.54,-17.86 -75.16,-50.7 -106.37,-84.18 -3.98,-4.28 -10.24,-6.41 -15.45,-9.53"
             style="fill:none;stroke:#231f20;stroke-width:20;stroke-linecap:round;stroke-linejoin:round;stroke-miterlimit:10;stroke-dasharray:none;stroke-opacity:1"
             id="path138"
             inkscape:connector-curvature="0" /></g><g
           id="g140"
           transform="translate(2716.98,519.5)"><path
             d="m 0,0 c 184.29,0 368.59,0 552.88,0 0,13.531 0,27.07 0,40.602"
             style="fill:none;stroke:#231f20;stroke-width:20;stroke-linecap:round;stroke-linejoin:round;stroke-miterlimit:10;stroke-dasharray:none;stroke-opacity:1"
             id="path142"
             inkscape:connector-curvature="0" /></g><g
           id="g144"
           transform="translate(2376.5,1112.98)"><path
             d="M 0,0 C -43.73,12.5 -87.46,24.99 -131.19,37.49"
             style="fill:none;stroke:#231f20;stroke-width:20;stroke-linecap:round;stroke-linejoin:round;stroke-miterlimit:10;stroke-dasharray:none;stroke-opacity:1"
             id="path146"
             inkscape:connector-curvature="0" /></g><g
           id="g148"
           transform="translate(2029.78,1244.1801)"><path
             d="M 0,0 C 33.28,-26.12 73.49,-36.64 112.45,-49.98"
             style="fill:none;stroke:#231f20;stroke-width:20;stroke-linecap:round;stroke-linejoin:round;stroke-miterlimit:10;stroke-dasharray:none;stroke-opacity:1"
             id="path150"
             inkscape:connector-curvature="0" /></g><g
           id="g152"
           transform="translate(3750.9099,891.199)"><path
             d="M 0,0 C -37.49,1.051 -74.97,2.082 -112.45,3.133"
             style="fill:none;stroke:#231f20;stroke-width:20;stroke-linecap:round;stroke-linejoin:round;stroke-miterlimit:10;stroke-dasharray:none;stroke-opacity:1"
             id="path154"
             inkscape:connector-curvature="0" /></g><g
           id="g156"
           transform="translate(3272.99,516.371)"><path
             d="M 0,0 C 98.91,0 197.83,0 296.75,0"
             style="fill:none;stroke:#231f20;stroke-width:20;stroke-linecap:round;stroke-linejoin:round;stroke-miterlimit:10;stroke-dasharray:none;stroke-opacity:1"
             id="path158"
             inkscape:connector-curvature="0" /></g><g
           id="g160"
           transform="translate(596.02,2971.5601)"><path
             d="M 0,0 C -2.082,-33.32 -4.165,-66.64 -6.25,-99.96"
             style="fill:none;stroke:#231f20;stroke-width:20;stroke-linecap:round;stroke-linejoin:round;stroke-miterlimit:10;stroke-dasharray:none;stroke-opacity:1"
             id="path162"
             inkscape:connector-curvature="0" /></g><g
           id="g164"
           transform="translate(1770.51,1337.88)"><path
             d="M 0,0 C -31.23,12.5 -62.47,24.99 -93.71,37.49"
             style="fill:none;stroke:#231f20;stroke-width:20;stroke-linecap:round;stroke-linejoin:round;stroke-miterlimit:10;stroke-dasharray:none;stroke-opacity:1"
             id="path166"
             inkscape:connector-curvature="0" /></g><g
           id="g168"
           transform="translate(2242.1799,1156.71)"><path
             d="M 0,0 C -32.27,10.42 -64.55,20.83 -96.83,31.24"
             style="fill:none;stroke:#231f20;stroke-width:20;stroke-linecap:round;stroke-linejoin:round;stroke-miterlimit:10;stroke-dasharray:none;stroke-opacity:1"
             id="path170"
             inkscape:connector-curvature="0" /></g><g
           id="g172"
           transform="translate(1186.39,2562.3601)"><path
             d="M 0,0 C -20.83,-29.16 -41.65,-58.31 -62.47,-87.46"
             style="fill:none;stroke:#231f20;stroke-width:20;stroke-linecap:round;stroke-linejoin:round;stroke-miterlimit:10;stroke-dasharray:none;stroke-opacity:1"
             id="path174"
             inkscape:connector-curvature="0" /></g><g
           id="g176"
           transform="translate(483.57,909.941)"><path
             d="m 0,0 c -8.789,-17.132 -3.316,-26.359 12.493,-27.812 0,-24.34 0,-48.297 0,-69.649 -7.875,-3.171 -12.192,-4.91 -17.793,-7.148 5.066,-36.133 10.191,-70.363 14.296,-104.711 0.586,-4.879 -3.793,-10.371 -5.878,-15.582"
             style="fill:none;stroke:#231f20;stroke-width:20;stroke-linecap:round;stroke-linejoin:round;stroke-miterlimit:10;stroke-dasharray:none;stroke-opacity:1"
             id="path178"
             inkscape:connector-curvature="0" /></g><g
           id="g180"
           transform="translate(1117.67,2471.77)"><path
             d="M 0,0 C -15.33,-32.18 -39.44,-57.87 -62.47,-84.34"
             style="fill:none;stroke:#231f20;stroke-width:20;stroke-linecap:round;stroke-linejoin:round;stroke-miterlimit:10;stroke-dasharray:none;stroke-opacity:1"
             id="path182"
             inkscape:connector-curvature="0" /></g><g
           id="g184"
           transform="translate(705.348,3427.6101)"><path
             d="m 0,0 c -6.321,21.46 -12.645,42.92 -18.961,64.37 -3.379,0.3 -6.762,0.59 -10.149,0.88 -6.957,-10.29 -13.914,-20.59 -20.871,-30.89"
             style="fill:none;stroke:#231f20;stroke-width:20;stroke-linecap:round;stroke-linejoin:round;stroke-miterlimit:10;stroke-dasharray:none;stroke-opacity:1"
             id="path186"
             inkscape:connector-curvature="0" /></g><g
           id="g188"
           transform="translate(936.5,1843.92)"><path
             d="M 0,0 C 5.203,-28.12 10.41,-56.23 15.613,-84.34"
             style="fill:none;stroke:#231f20;stroke-width:20;stroke-linecap:round;stroke-linejoin:round;stroke-miterlimit:10;stroke-dasharray:none;stroke-opacity:1"
             id="path190"
             inkscape:connector-curvature="0" /></g><g
           id="g192"
           transform="translate(1848.6,1306.65)"><path
             d="M 0,0 C -24.99,8.33 -49.98,16.66 -74.97,24.99"
             style="fill:none;stroke:#231f20;stroke-width:20;stroke-linecap:round;stroke-linejoin:round;stroke-miterlimit:10;stroke-dasharray:none;stroke-opacity:1"
             id="path194"
             inkscape:connector-curvature="0" /></g><g
           id="g196"
           transform="translate(480.445,881.84)"><path
             d="M 0,0 C 1.039,-23.961 2.082,-47.899 3.125,-71.852"
             style="fill:none;stroke:#231f20;stroke-width:20;stroke-linecap:round;stroke-linejoin:round;stroke-miterlimit:10;stroke-dasharray:none;stroke-opacity:1"
             id="path198"
             inkscape:connector-curvature="0" /></g><g
           id="g200"
           transform="translate(489.813,638.191)"><path
             d="m 0,0 c 0,-19.793 0.746,-39.609 -0.567,-59.312 -0.297,-4.418 -7.762,-8.367 -11.926,-12.527"
             style="fill:none;stroke:#231f20;stroke-width:20;stroke-linecap:round;stroke-linejoin:round;stroke-miterlimit:10;stroke-dasharray:none;stroke-opacity:1"
             id="path202"
             inkscape:connector-curvature="0" /></g><g
           id="g204"
           transform="translate(936.5,2474.8999)"><path
             d="M 0,0 C 8.328,-22.91 16.652,-45.81 24.984,-68.72"
             style="fill:none;stroke:#231f20;stroke-width:20;stroke-linecap:round;stroke-linejoin:round;stroke-miterlimit:10;stroke-dasharray:none;stroke-opacity:1"
             id="path206"
             inkscape:connector-curvature="0" /></g><g
           id="g208"
           transform="translate(780.313,2996.55)"><path
             d="M 0,0 C 0,-22.91 0,-45.81 0,-68.72"
             style="fill:none;stroke:#231f20;stroke-width:20;stroke-linecap:round;stroke-linejoin:round;stroke-miterlimit:10;stroke-dasharray:none;stroke-opacity:1"
             id="path210"
             inkscape:connector-curvature="0" /></g><g
           id="g212"
           transform="translate(1092.6801,1594.03)"><path
             d="M 0,0 C -20.82,-5.86 -41.65,-17.83 -62.47,0"
             style="fill:none;stroke:#231f20;stroke-width:20;stroke-linecap:round;stroke-linejoin:round;stroke-miterlimit:10;stroke-dasharray:none;stroke-opacity:1"
             id="path214"
             inkscape:connector-curvature="0" /></g><g
           id="g216"
           transform="translate(986.477,2381.1799)"><path
             d="M 0,0 C 20.823,-19.53 41.653,-7.8 62.473,0"
             style="fill:none;stroke:#231f20;stroke-width:20;stroke-linecap:round;stroke-linejoin:round;stroke-miterlimit:10;stroke-dasharray:none;stroke-opacity:1"
             id="path218"
             inkscape:connector-curvature="0" /></g><g
           id="g220"
           transform="translate(861.527,2318.71)"><path
             d="M 0,0 C 1.039,-19.78 2.086,-39.56 3.125,-59.35"
             style="fill:none;stroke:#231f20;stroke-width:20;stroke-linecap:round;stroke-linejoin:round;stroke-miterlimit:10;stroke-dasharray:none;stroke-opacity:1"
             id="path222"
             inkscape:connector-curvature="0" /></g><g
           id="g224"
           transform="translate(633.5,3377.6299)"><path
             d="M 0,0 C -2.078,-18.74 -4.16,-37.48 -6.242,-56.22"
             style="fill:none;stroke:#231f20;stroke-width:20;stroke-linecap:round;stroke-linejoin:round;stroke-miterlimit:10;stroke-dasharray:none;stroke-opacity:1"
             id="path226"
             inkscape:connector-curvature="0" /></g><g
           id="g228"
           transform="translate(1239.49,2612.3401)"><path
             d="M 0,0 C -15.62,-15.62 -31.24,-31.24 -46.85,-46.86"
             style="fill:none;stroke:#231f20;stroke-width:20;stroke-linecap:round;stroke-linejoin:round;stroke-miterlimit:10;stroke-dasharray:none;stroke-opacity:1"
             id="path230"
             inkscape:connector-curvature="0" /></g><g
           id="g232"
           transform="translate(489.813,563.23)"><path
             d="M 0,0 C 0,-17.71 0,-35.41 0,-53.109"
             style="fill:none;stroke:#231f20;stroke-width:20;stroke-linecap:round;stroke-linejoin:round;stroke-miterlimit:10;stroke-dasharray:none;stroke-opacity:1"
             id="path234"
             inkscape:connector-curvature="0" /></g><g
           id="g236"
           transform="translate(1292.59,2643.5701)"><path
             d="M 0,0 C -16.66,-8.32 -33.32,-16.66 -49.97,-24.99"
             style="fill:none;stroke:#231f20;stroke-width:20;stroke-linecap:round;stroke-linejoin:round;stroke-miterlimit:10;stroke-dasharray:none;stroke-opacity:1"
             id="path238"
             inkscape:connector-curvature="0" /></g><g
           id="g240"
           transform="translate(1629.95,1406.6)"><path
             d="M 0,0 C 14.58,-8.32 29.15,-16.66 43.73,-24.99"
             style="fill:none;stroke:#231f20;stroke-width:20;stroke-linecap:round;stroke-linejoin:round;stroke-miterlimit:10;stroke-dasharray:none;stroke-opacity:1"
             id="path242"
             inkscape:connector-curvature="0" /></g><g
           id="g244"
           transform="translate(527.301,2274.98)"><path
             d="M 0,0 C -13.535,0 -27.074,0 -40.613,0"
             style="fill:none;stroke:#231f20;stroke-width:20;stroke-linecap:round;stroke-linejoin:round;stroke-miterlimit:10;stroke-dasharray:none;stroke-opacity:1"
             id="path246"
             inkscape:connector-curvature="0" /></g><g
           id="g248"
           transform="translate(1595.59,560.102)"><path
             d="M 0,0 C 0,-12.5 0,-24.993 0,-37.493"
             style="fill:none;stroke:#231f20;stroke-width:20;stroke-linecap:round;stroke-linejoin:round;stroke-miterlimit:10;stroke-dasharray:none;stroke-opacity:1"
             id="path250"
             inkscape:connector-curvature="0" /></g><g
           id="g252"
           transform="translate(3269.8601,4039.8501)"><path
             d="M 0,0 C 0,-12.5 0,-24.99 0,-37.49"
             style="fill:none;stroke:#231f20;stroke-width:20;stroke-linecap:round;stroke-linejoin:round;stroke-miterlimit:10;stroke-dasharray:none;stroke-opacity:1"
             id="path254"
             inkscape:connector-curvature="0" /></g><g
           id="g256"
           transform="translate(2713.8601,4039.8501)"><path
             d="M 0,0 C 0,-12.5 0,-24.99 0,-37.49"
             style="fill:none;stroke:#231f20;stroke-width:20;stroke-linecap:round;stroke-linejoin:round;stroke-miterlimit:10;stroke-dasharray:none;stroke-opacity:1"
             id="path258"
             inkscape:connector-curvature="0" /></g><g
           id="g260"
           transform="translate(1595.59,4039.8501)"><path
             d="M 0,0 C 0,-12.5 0,-24.99 0,-37.49"
             style="fill:none;stroke:#231f20;stroke-width:20;stroke-linecap:round;stroke-linejoin:round;stroke-miterlimit:10;stroke-dasharray:none;stroke-opacity:1"
             id="path262"
             inkscape:connector-curvature="0" /></g><g
           id="g264"
           transform="translate(1033.33,4039.8501)"><path
             d="M 0,0 C 0,-12.5 0,-24.99 0,-37.49"
             style="fill:none;stroke:#231f20;stroke-width:20;stroke-linecap:round;stroke-linejoin:round;stroke-miterlimit:10;stroke-dasharray:none;stroke-opacity:1"
             id="path266"
             inkscape:connector-curvature="0" /></g><g
           id="g268"
           transform="translate(1042.7,560.102)"><path
             d="M 0,0 C 0,-11.45 0,-22.911 0,-34.36"
             style="fill:none;stroke:#231f20;stroke-width:20;stroke-linecap:round;stroke-linejoin:round;stroke-miterlimit:10;stroke-dasharray:none;stroke-opacity:1"
             id="path270"
             inkscape:connector-curvature="0" /></g><g
           id="g272"
           transform="translate(4381.8799,547.602)"><path
             d="M 0,0 C 0,-11.442 0,-22.911 0,-34.352"
             style="fill:none;stroke:#231f20;stroke-width:20;stroke-linecap:round;stroke-linejoin:round;stroke-miterlimit:10;stroke-dasharray:none;stroke-opacity:1"
             id="path274"
             inkscape:connector-curvature="0" /></g><g
           id="g276"
           transform="translate(521.051,2859.1001)"><path
             d="M 0,0 C -11.449,1.05 -22.906,2.08 -34.363,3.13"
             style="fill:none;stroke:#231f20;stroke-width:20;stroke-linecap:round;stroke-linejoin:round;stroke-miterlimit:10;stroke-dasharray:none;stroke-opacity:1"
             id="path278"
             inkscape:connector-curvature="0" /></g><g
           id="g280"
           transform="translate(486.688,3452.6001)"><path
             d="M 0,0 C 11.457,0 22.914,0 34.363,0"
             style="fill:none;stroke:#231f20;stroke-width:20;stroke-linecap:round;stroke-linejoin:round;stroke-miterlimit:10;stroke-dasharray:none;stroke-opacity:1"
             id="path282"
             inkscape:connector-curvature="0" /></g><g
           id="g284"
           transform="translate(4381.8799,4036.72)"><path
             d="M 0,0 C 0,-11.45 0,-22.91 0,-34.36"
             style="fill:none;stroke:#231f20;stroke-width:20;stroke-linecap:round;stroke-linejoin:round;stroke-miterlimit:10;stroke-dasharray:none;stroke-opacity:1"
             id="path286"
             inkscape:connector-curvature="0" /></g><g
           id="g288"
           transform="translate(486.688,1690.86)"><path
             d="M 0,0 C 11.457,0 22.914,0 34.363,0"
             style="fill:none;stroke:#231f20;stroke-width:20;stroke-linecap:round;stroke-linejoin:round;stroke-miterlimit:10;stroke-dasharray:none;stroke-opacity:1"
             id="path290"
             inkscape:connector-curvature="0" /></g><g
           id="g292"
           transform="translate(3825.8701,547.602)"><path
             d="M 0,0 C 0,-10.411 0,-20.821 0,-31.231"
             style="fill:none;stroke:#231f20;stroke-width:20;stroke-linecap:round;stroke-linejoin:round;stroke-miterlimit:10;stroke-dasharray:none;stroke-opacity:1"
             id="path294"
             inkscape:connector-curvature="0" /></g><g
           id="g296"
           transform="translate(2151.6001,4039.8501)"><path
             d="M 0,0 C 0,-10.42 0,-20.83 0,-31.24"
             style="fill:none;stroke:#231f20;stroke-width:20;stroke-linecap:round;stroke-linejoin:round;stroke-miterlimit:10;stroke-dasharray:none;stroke-opacity:1"
             id="path298"
             inkscape:connector-curvature="0" /></g><g
           id="g300"
           transform="translate(4931.6499,1690.86)"><path
             d="M 0,0 C -10.42,0 -20.83,0 -31.24,0"
             style="fill:none;stroke:#231f20;stroke-width:20;stroke-linecap:round;stroke-linejoin:round;stroke-miterlimit:10;stroke-dasharray:none;stroke-opacity:1"
             id="path302"
             inkscape:connector-curvature="0" /></g><g
           id="g304"
           transform="translate(4931.6499,1100.49)"><path
             d="M 0,0 C -10.42,1.05 -20.83,2.08 -31.24,3.13"
             style="fill:none;stroke:#231f20;stroke-width:20;stroke-linecap:round;stroke-linejoin:round;stroke-miterlimit:10;stroke-dasharray:none;stroke-opacity:1"
             id="path306"
             inkscape:connector-curvature="0" /></g><g
           id="g308"
           transform="translate(3825.8701,4036.72)"><path
             d="M 0,0 C 0,-9.37 0,-18.74 0,-28.11"
             style="fill:none;stroke:#231f20;stroke-width:20;stroke-linecap:round;stroke-linejoin:round;stroke-miterlimit:10;stroke-dasharray:none;stroke-opacity:1"
             id="path310"
             inkscape:connector-curvature="0" /></g><g
           id="g312"
           transform="translate(477.32,685.039)"><path
             d="M 0,0 C 17.282,2.5 13.289,-10.527 11.883,-18.629 11.063,-23.379 4.164,-27.07 0,-31.23"
             style="fill:none;stroke:#231f20;stroke-width:20;stroke-linecap:round;stroke-linejoin:round;stroke-miterlimit:10;stroke-dasharray:none;stroke-opacity:1"
             id="path314"
             inkscape:connector-curvature="0" /></g><g
           id="g316"
           transform="translate(4931.6499,3446.3501)"><path
             d="M 0,0 C -8.33,1.04 -16.67,2.08 -24.99,3.13"
             style="fill:none;stroke:#231f20;stroke-width:20;stroke-linecap:round;stroke-linejoin:round;stroke-miterlimit:10;stroke-dasharray:none;stroke-opacity:1"
             id="path318"
             inkscape:connector-curvature="0" /></g><g
           id="g320"
           transform="translate(4931.6499,2859.1001)"><path
             d="M 0,0 C -8.33,0 -16.67,0 -24.99,0"
             style="fill:none;stroke:#231f20;stroke-width:20;stroke-linecap:round;stroke-linejoin:round;stroke-miterlimit:10;stroke-dasharray:none;stroke-opacity:1"
             id="path322"
             inkscape:connector-curvature="0" /></g><g
           id="g324"
           transform="translate(3397.9299,919.32)"><path
             d="M 0,0 C -7.29,1.039 -14.57,2.078 -21.87,3.121"
             style="fill:none;stroke:#231f20;stroke-width:20;stroke-linecap:round;stroke-linejoin:round;stroke-miterlimit:10;stroke-dasharray:none;stroke-opacity:1"
             id="path326"
             inkscape:connector-curvature="0" /></g><g
           id="g328"
           transform="translate(2401.49,1103.62)"><path
             d="M 0,0 C -7.29,1.04 -14.58,2.08 -21.87,3.12"
             style="fill:none;stroke:#231f20;stroke-width:20;stroke-linecap:round;stroke-linejoin:round;stroke-miterlimit:10;stroke-dasharray:none;stroke-opacity:1"
             id="path330"
             inkscape:connector-curvature="0" /></g><g
           id="g332"
           transform="translate(2660.75,1044.26)"><path
             d="M 0,0 C -7.28,1.05 -14.58,2.08 -21.86,3.13"
             style="fill:none;stroke:#231f20;stroke-width:20;stroke-linecap:round;stroke-linejoin:round;stroke-miterlimit:10;stroke-dasharray:none;stroke-opacity:1"
             id="path334"
             inkscape:connector-curvature="0" /></g><g
           id="g336"
           transform="translate(496.063,806.871)"><path
             d="M 0,0 C -1.043,-7.301 -2.083,-14.582 -3.125,-21.871"
             style="fill:none;stroke:#231f20;stroke-width:20;stroke-linecap:round;stroke-linejoin:round;stroke-miterlimit:10;stroke-dasharray:none;stroke-opacity:1"
             id="path338"
             inkscape:connector-curvature="0" /></g><g
           id="g340"
           transform="translate(527.301,1103.62)"><path
             d="M 0,0 C -13.535,0 -27.074,0 -40.613,0"
             style="fill:none;stroke:#231f20;stroke-width:20;stroke-linecap:round;stroke-linejoin:round;stroke-miterlimit:10;stroke-dasharray:none;stroke-opacity:1"
             id="path342"
             inkscape:connector-curvature="0" /></g><g
           id="g344"
           transform="translate(2154.72,550.73)"><path
             d="M 0,0 C -1.04,-2.078 -2.44,-4.089 -2.93,-6.289 -3.1,-7.058 -1.04,-8.328 0,-9.371"
             style="fill:none;stroke:#231f20;stroke-width:20;stroke-linecap:round;stroke-linejoin:round;stroke-miterlimit:10;stroke-dasharray:none;stroke-opacity:1"
             id="path346"
             inkscape:connector-curvature="0" /></g><g
           id="g348"
           transform="translate(2444.52,2576.6599)"><path
             d="M 0,0 C -10.76,1.9 -20.53,3.79 -31.35,2.37 -26.26,-5.68 -19.1,-19.03 -20,-30"
             style="fill:none;stroke:#ffffff;stroke-width:20;stroke-linecap:round;stroke-linejoin:round;stroke-miterlimit:10;stroke-dasharray:none;stroke-opacity:1"
             id="path350"
             inkscape:connector-curvature="0" /></g><g
           id="g352"
           transform="translate(1094.52,1601.66)"><path
             d="M 0,0 C 9.17,8.27 20.08,17.38 30,25"
             style="fill:none;stroke:#231f20;stroke-width:20;stroke-linecap:round;stroke-linejoin:round;stroke-miterlimit:10;stroke-dasharray:none;stroke-opacity:1"
             id="path354"
             inkscape:connector-curvature="0" /></g><g
           id="g356"
           transform="translate(959.52,2416.6599)"><path
             d="M 0,0 C 11.789,-8.91 21.609,-24.23 25,-40"
             style="fill:none;stroke:#231f20;stroke-width:20;stroke-linecap:round;stroke-linejoin:round;stroke-miterlimit:10;stroke-dasharray:none;stroke-opacity:1"
             id="path358"
             inkscape:connector-curvature="0" /></g><g
           id="g360"
           transform="translate(929.52,2501.6599)"><path
             d="M 0,0 C 0,-8.33 0,-16.66 0,-25"
             style="fill:none;stroke:#231f20;stroke-width:20;stroke-linecap:round;stroke-linejoin:round;stroke-miterlimit:10;stroke-dasharray:none;stroke-opacity:1"
             id="path362"
             inkscape:connector-curvature="0" /></g><g
           id="g364"
           transform="translate(2039.52,1226.66)"><path
             d="M 0,0 C -62.2,34.89 -138.19,57.07 -205,85"
             style="fill:none;stroke:#231f20;stroke-width:20;stroke-linecap:round;stroke-linejoin:round;stroke-miterlimit:10;stroke-dasharray:none;stroke-opacity:1"
             id="path366"
             inkscape:connector-curvature="0" /></g><g
           id="g368"
           transform="translate(2839.52,1001.66)"><path
             d="M 0,0 C -9.61,2.14 -35.39,7.86 -45,10"
             style="fill:none;stroke:#231f20;stroke-width:20;stroke-linecap:round;stroke-linejoin:round;stroke-miterlimit:10;stroke-dasharray:none;stroke-opacity:1"
             id="path370"
             inkscape:connector-curvature="0" /></g><g
           id="g372"
           transform="translate(3519.76,519.5)"><path
             d="M 0,0 371.71,-9.238"
             style="fill:none;stroke:#231f20;stroke-width:20;stroke-linecap:round;stroke-linejoin:round;stroke-miterlimit:10;stroke-dasharray:none;stroke-opacity:1"
             id="path374"
             inkscape:connector-curvature="0" /></g></g></g><text
       transform="matrix(1,0,0,-1,20.506,106.61)"
       style="font-variant:normal;font-weight:normal;font-size:14px;font-family:MyriadPro;-inkscape-font-specification:MyriadPro-Regular;writing-mode:lr-tb;fill:#100f0d;fill-opacity:1;fill-rule:nonzero;stroke:none"
       id="text378"><tspan
         x="0 7.1820002 10.08 17.261999"
         y="0"
         sodipodi:role="line"
         id="tspan376">0.02</tspan></text>
<text
       transform="matrix(1,0,0,-1,235.111,8.555)"
       style="font-variant:normal;font-weight:normal;font-size:18px;font-family:MyriadPro;-inkscape-font-specification:MyriadPro-Regular;writing-mode:lr-tb;fill:#100f0d;fill-opacity:1;fill-rule:nonzero;stroke:none"
       id="text382"><tspan
         x="0 8.7299995 12.942 27.954 36.756306 40.482307 44.298306 50.256306 54.072308 59.184307 66.312309 75.330307 83.394302"
         y="0"
         sodipodi:role="line"
         id="tspan380">Time, t (sec)</tspan></text>
<text
       transform="matrix(1,0,0,-1,20.506,164.554)"
       style="font-variant:normal;font-weight:normal;font-size:14px;font-family:MyriadPro;-inkscape-font-specification:MyriadPro-Regular;writing-mode:lr-tb;fill:#100f0d;fill-opacity:1;fill-rule:nonzero;stroke:none"
       id="text386"><tspan
         x="0 7.1820002 10.08 17.261999"
         y="0"
         sodipodi:role="line"
         id="tspan384">0.04</tspan></text>
<text
       transform="matrix(0,1,1,0,15.066,143.688)"
       style="font-variant:normal;font-weight:normal;font-size:18px;font-family:MyriadPro;-inkscape-font-specification:MyriadPro-Regular;writing-mode:lr-tb;fill:#100f0d;fill-opacity:1;fill-rule:nonzero;stroke:none"
       id="text390"><tspan
         x="0 8.8559999 14.813496 20.519604 30.401604 36.287605 40.103603 45.953712 55.835712 59.651711 71.297714 81.287712 85.49971 91.45771 95.273712 105.17312 113.84912 128.86111 139.10312 142.91911 147.40062 157.39061 167.63261 177.55061"
         y="0"
         sodipodi:role="line"
         id="tspan388">Error to Unit Ramp Input</tspan></text>
<text
       transform="matrix(1,0,0,-1,20.506,223.747)"
       style="font-variant:normal;font-weight:normal;font-size:14px;font-family:MyriadPro;-inkscape-font-specification:MyriadPro-Regular;writing-mode:lr-tb;fill:#100f0d;fill-opacity:1;fill-rule:nonzero;stroke:none"
       id="text412"><tspan
         x="0 7.1820002 10.08 17.261999"
         y="0"
         sodipodi:role="line"
         id="tspan392">0.06</tspan><tspan
         x="0.0020000001 7.184 10.082 17.264"
         y="-58.471001"
         sodipodi:role="line"
         id="tspan394">0.08</tspan><tspan
         x="8.934 16.115999 19.014"
         y="-118.074"
         sodipodi:role="line"
         id="tspan396">0.1</tspan><tspan
         x="0.001 7.1830001 10.081 17.263"
         y="-176.174"
         sodipodi:role="line"
         id="tspan398">0.12</tspan><tspan
         x="14.252"
         y="172.737"
         id="tspan400">0</tspan><tspan
         x="24.466999"
         y="186.687"
         id="tspan402">0</tspan><tspan
         x="75.282997 82.464996 85.362999 185.235 192.41701 195.315 299.82401 307.00601 309.90399 408.26401 415.44601 418.34399 135.731 246.714 359.009 467.30499"
         y="185.687"
         sodipodi:role="line"
         id="tspan404">0.51.52.53.51234</tspan><tspan
         x="261.98099 272.285 275.561 280.19501 287.965 295.651 303.36499 307.99899 310.96701 314.271 321.01901"
         y="-2.645"
         sodipodi:role="line"
         id="tspan406">without lag</tspan><tspan
         x="193.67 203.974 207.25 211.884 219.65401 225.59 228.894 235.642"
         y="81.167"
         sodipodi:role="line"
         id="tspan408">with lag</tspan><tspan
         x="384.172"
         y="-47.224998"
         id="tspan410">e</tspan></text>
<text
       transform="matrix(1,0,0,-1,411.692,266.31)"
       style="font-variant:normal;font-weight:normal;font-size:8.1619997px;font-family:MyriadPro;-inkscape-font-specification:MyriadPro-Regular;writing-mode:lr-tb;fill:#100f0d;fill-opacity:1;fill-rule:nonzero;stroke:none"
       id="text416"><tspan
         x="0 3.232152"
         y="0"
         sodipodi:role="line"
         id="tspan414">ss</tspan></text>
<text
       transform="matrix(1,0,0,-1,418.156,270.972)"
       style="font-variant:normal;font-weight:normal;font-size:14px;font-family:MyriadPro;-inkscape-font-specification:MyriadPro-Regular;writing-mode:lr-tb;fill:#100f0d;fill-opacity:1;fill-rule:nonzero;stroke:none"
       id="text420"><tspan
         x="0 8.3439999 15.526 18.424 25.606001"
         y="0"
         sodipodi:role="line"
         id="tspan418">=0.07</tspan></text>
<g
       id="g422"
       transform="scale(0.1)"><g
         id="g424"
         clip-path="url(#clipPath428)"><g
           id="g430"
           transform="translate(3107.4299,2396.6599)"><path
             d="M 0,0 -177.9,203.24"
             style="fill:none;stroke:#231f20;stroke-width:10;stroke-linecap:butt;stroke-linejoin:miter;stroke-miterlimit:10;stroke-dasharray:none;stroke-opacity:1"
             id="path432"
             inkscape:connector-curvature="0" /></g><g
           id="g434"
           transform="translate(2351.1101,1381.61)"><path
             d="M 0,0 -468.46,-88.83"
             style="fill:none;stroke:#231f20;stroke-width:10;stroke-linecap:butt;stroke-linejoin:miter;stroke-miterlimit:10;stroke-dasharray:none;stroke-opacity:1"
             id="path436"
             inkscape:connector-curvature="0" /></g></g></g><text
       transform="matrix(1,0,0,-1,414.721,93.992)"
       style="font-variant:normal;font-weight:normal;font-size:14px;font-family:MyriadPro;-inkscape-font-specification:MyriadPro-Regular;writing-mode:lr-tb;fill:#100f0d;fill-opacity:1;fill-rule:nonzero;stroke:none"
       id="text440"><tspan
         x="0"
         y="0"
         id="tspan438">e</tspan></text>
<text
       transform="matrix(1,0,0,-1,421.735,89.33)"
       style="font-variant:normal;font-weight:normal;font-size:8.1619997px;font-family:MyriadPro;-inkscape-font-specification:MyriadPro-Regular;writing-mode:lr-tb;fill:#100f0d;fill-opacity:1;fill-rule:nonzero;stroke:none"
       id="text444"><tspan
         x="0 3.232152"
         y="0"
         sodipodi:role="line"
         id="tspan442">ss</tspan></text>
<text
       transform="matrix(1,0,0,-1,428.199,93.992)"
       style="font-variant:normal;font-weight:normal;font-size:14px;font-family:MyriadPro;-inkscape-font-specification:MyriadPro-Regular;writing-mode:lr-tb;fill:#100f0d;fill-opacity:1;fill-rule:nonzero;stroke:none"
       id="text448"><tspan
         x="0 8.3439999 15.526 18.424 25.606001"
         y="0"
         sodipodi:role="line"
         id="tspan446">=0.01</tspan></text>
</g></svg>