<?xml version="1.0" encoding="UTF-8" standalone="no"?>
<!-- Created with Inkscape (http://www.inkscape.org/) -->

<svg
   xmlns:dc="http://purl.org/dc/elements/1.1/"
   xmlns:cc="http://creativecommons.org/ns#"
   xmlns:rdf="http://www.w3.org/1999/02/22-rdf-syntax-ns#"
   xmlns:svg="http://www.w3.org/2000/svg"
   xmlns="http://www.w3.org/2000/svg"
   xmlns:sodipodi="http://sodipodi.sourceforge.net/DTD/sodipodi-0.dtd"
   xmlns:inkscape="http://www.inkscape.org/namespaces/inkscape"
   version="1.1"
   id="svg2"
   xml:space="preserve"
   width="559.88934"
   height="420"
   viewBox="0 0 559.88934 420"
   sodipodi:docname="step.svg"
   inkscape:version="0.92.0 r15299"><metadata
     id="metadata8"><rdf:RDF><cc:Work
         rdf:about=""><dc:format>image/svg+xml</dc:format><dc:type
           rdf:resource="http://purl.org/dc/dcmitype/StillImage" /><dc:title></dc:title></cc:Work></rdf:RDF></metadata><defs
     id="defs6"><clipPath
       clipPathUnits="userSpaceOnUse"
       id="clipPath18"><path
         d="M 0,0 H 4199.17 V 3150 H 0 Z"
         id="path16"
         inkscape:connector-curvature="0" /></clipPath><clipPath
       clipPathUnits="userSpaceOnUse"
       id="clipPath28"><path
         d="M 0,3150 V 0 h 4199.17 v 3150 z"
         id="path26"
         inkscape:connector-curvature="0" /></clipPath><clipPath
       clipPathUnits="userSpaceOnUse"
       id="clipPath54"><path
         d="M 0,3150 V 0 h 4199.17 v 3150 z"
         id="path52"
         inkscape:connector-curvature="0" /></clipPath><clipPath
       clipPathUnits="userSpaceOnUse"
       id="clipPath70"><path
         d="M 0,3150 V 0 h 4199.17 v 3150 z"
         id="path68"
         inkscape:connector-curvature="0" /></clipPath><clipPath
       clipPathUnits="userSpaceOnUse"
       id="clipPath86"><path
         d="M 0,3150 V 0 h 4199.17 v 3150 z"
         id="path84"
         inkscape:connector-curvature="0" /></clipPath><clipPath
       clipPathUnits="userSpaceOnUse"
       id="clipPath102"><path
         d="M 0,3150 V 0 h 4199.17 v 3150 z"
         id="path100"
         inkscape:connector-curvature="0" /></clipPath><clipPath
       clipPathUnits="userSpaceOnUse"
       id="clipPath118"><path
         d="M 0,3150 V 0 h 4199.17 v 3150 z"
         id="path116"
         inkscape:connector-curvature="0" /></clipPath><clipPath
       clipPathUnits="userSpaceOnUse"
       id="clipPath134"><path
         d="M 0,3150 V 0 h 4199.17 v 3150 z"
         id="path132"
         inkscape:connector-curvature="0" /></clipPath><clipPath
       clipPathUnits="userSpaceOnUse"
       id="clipPath150"><path
         d="M 0,3150 V 0 h 4199.17 v 3150 z"
         id="path148"
         inkscape:connector-curvature="0" /></clipPath><clipPath
       clipPathUnits="userSpaceOnUse"
       id="clipPath166"><path
         d="M 0,3150 V 0 h 4199.17 v 3150 z"
         id="path164"
         inkscape:connector-curvature="0" /></clipPath><clipPath
       clipPathUnits="userSpaceOnUse"
       id="clipPath182"><path
         d="M 0,3150 V 0 h 4199.17 v 3150 z"
         id="path180"
         inkscape:connector-curvature="0" /></clipPath><clipPath
       clipPathUnits="userSpaceOnUse"
       id="clipPath198"><path
         d="M 0,3150 V 0 h 4199.17 v 3150 z"
         id="path196"
         inkscape:connector-curvature="0" /></clipPath><clipPath
       clipPathUnits="userSpaceOnUse"
       id="clipPath214"><path
         d="M 0,3150 V 0 h 4199.17 v 3150 z"
         id="path212"
         inkscape:connector-curvature="0" /></clipPath><clipPath
       clipPathUnits="userSpaceOnUse"
       id="clipPath230"><path
         d="M 0,3150 V 0 h 4199.17 v 3150 z"
         id="path228"
         inkscape:connector-curvature="0" /></clipPath><clipPath
       clipPathUnits="userSpaceOnUse"
       id="clipPath246"><path
         d="M 0,3150 V 0 h 4199.17 v 3150 z"
         id="path244"
         inkscape:connector-curvature="0" /></clipPath><clipPath
       clipPathUnits="userSpaceOnUse"
       id="clipPath258"><path
         d="M 545.836,345.832 H 3800.83 V 2914.16 H 545.836 Z"
         id="path256"
         inkscape:connector-curvature="0" /></clipPath><clipPath
       clipPathUnits="userSpaceOnUse"
       id="clipPath286"><path
         d="M 0,3150 V 0 h 4199.17 v 3150 z"
         id="path284"
         inkscape:connector-curvature="0" /></clipPath><clipPath
       clipPathUnits="userSpaceOnUse"
       id="clipPath302"><path
         d="M 0,3150 V 0 h 4199.17 v 3150 z"
         id="path300"
         inkscape:connector-curvature="0" /></clipPath></defs><sodipodi:namedview
     pagecolor="#ffffff"
     bordercolor="#666666"
     borderopacity="1"
     objecttolerance="10"
     gridtolerance="10"
     guidetolerance="10"
     inkscape:pageopacity="0"
     inkscape:pageshadow="2"
     inkscape:window-width="640"
     inkscape:window-height="480"
     id="namedview4"
     showgrid="false"
     fit-margin-top="0"
     fit-margin-left="0"
     fit-margin-right="0"
     fit-margin-bottom="0"
     inkscape:zoom="0.22348485"
     inkscape:cx="329.69492"
     inkscape:cy="528"
     inkscape:window-x="0"
     inkscape:window-y="0"
     inkscape:window-maximized="0"
     inkscape:current-layer="g10" /><g
     id="g10"
     inkscape:groupmode="layer"
     inkscape:label="A9R6dlui_fhu21t_3g0"
     transform="matrix(1.3333333,0,0,-1.3333333,0,419.99999)"><g
       id="g12"
       transform="scale(0.1)"><g
         id="g14"
         clip-path="url(#clipPath18)"><path
           d="M 0,0 H 4200 V 3150 H 0 Z"
           style="fill:#ffffff;fill-opacity:1;fill-rule:nonzero;stroke:none"
           id="path20"
           inkscape:connector-curvature="0" /></g></g><g
       id="g22"
       transform="scale(0.1)"><g
         id="g24"
         clip-path="url(#clipPath28)"><path
           d="m 545.836,346.672 h 3254.16 v 2567.49 H 545.836 Z"
           style="fill:#ffffff;fill-opacity:1;fill-rule:evenodd;stroke:none"
           id="path30"
           inkscape:connector-curvature="0" /><g
           id="g32"
           transform="translate(545.836,346.672)"><path
             d="M 0,0 V 2567.488 H 3254.164 V 0 H 0"
             style="fill:none;stroke:#ffffff;stroke-width:5;stroke-linecap:butt;stroke-linejoin:round;stroke-miterlimit:10;stroke-dasharray:none;stroke-opacity:1"
             id="path34"
             inkscape:connector-curvature="0" /></g><g
           id="g36"
           transform="translate(3800,2914.1599)"><path
             d="M 0,0 V 0 M -3254.164,0 H 0 m 0,-366.66 v 0 m -3254.164,0 H 0 m 0,-366.66 v 0 m -3254.164,0 H 0 m 0,-366.67 v 0 m -3254.164,0 H 0 m 0,-366.67 v 0 m -3254.164,0 H 0 m 0,-366.67 v 0 m -3254.164,0 H 0 m 0,-366.658 v 0 m -3254.164,0 H 0 m 0,-367.5 v 0 m -3254.164,0 H 0 M 0,0 V 0 M 0,-2567.488 V 0 m -814.17,0 v 0 m 0,-2567.488 V 0 m -813.33,0 v 0 m 0,-2567.488 V 0 m -813.33,0 v 0 m 0,-2567.488 V 0 m -813.334,0 v 0 m 0,-2567.488 V 0"
             style="fill:none;stroke:#231f20;stroke-width:3.33299994;stroke-linecap:butt;stroke-linejoin:round;stroke-miterlimit:10;stroke-dasharray:5, 40;stroke-dashoffset:0;stroke-opacity:1"
             id="path38"
             inkscape:connector-curvature="0" /></g><g
           id="g40"
           transform="translate(545.836,2914.1599)"><path
             d="m 0,0 v -32.5 m 0,-2534.988 v 33.328 m 0,-33.328 V 0 M 0,-2567.488 H 3254.164 M 0,-2567.488 V 0 M 3254.164,-2567.488 V 0 M 0,-2567.488 H 3254.164 M 0,0 h 3254.164"
             style="fill:none;stroke:#231f20;stroke-width:5;stroke-linecap:butt;stroke-linejoin:round;stroke-miterlimit:10;stroke-dasharray:none;stroke-opacity:1"
             id="path42"
             inkscape:connector-curvature="0" /></g></g></g><text
       transform="matrix(1,0,0,-1,50.749,18.837)"
       style="font-variant:normal;font-weight:normal;font-size:14px;font-family:Helvetica;-inkscape-font-specification:Helvetica;writing-mode:lr-tb;fill:#211c1d;fill-opacity:1;fill-rule:nonzero;stroke:none"
       id="text46"><tspan
         x="0"
         y="0"
         id="tspan44">0</tspan></text>
<g
       id="g48"
       transform="scale(0.1)"><g
         id="g50"
         clip-path="url(#clipPath54)"><g
           id="g56"
           transform="translate(1359.17,2914.1599)"><path
             d="m 0,0 v -32.5 m 0,-2534.988 v 33.328"
             style="fill:none;stroke:#231f20;stroke-width:5;stroke-linecap:butt;stroke-linejoin:round;stroke-miterlimit:10;stroke-dasharray:none;stroke-opacity:1"
             id="path58"
             inkscape:connector-curvature="0" /></g></g></g><text
       transform="matrix(1,0,0,-1,126.249,18.837)"
       style="font-variant:normal;font-weight:normal;font-size:14px;font-family:Helvetica;-inkscape-font-specification:Helvetica;writing-mode:lr-tb;fill:#211c1d;fill-opacity:1;fill-rule:nonzero;stroke:none"
       id="text62"><tspan
         x="0 7.1820002 10.08"
         y="0"
         sodipodi:role="line"
         id="tspan60">0.5</tspan></text>
<g
       id="g64"
       transform="scale(0.1)"><g
         id="g66"
         clip-path="url(#clipPath70)"><g
           id="g72"
           transform="translate(2172.5,2914.1599)"><path
             d="m 0,0 v -32.5 m 0,-2534.988 v 33.328"
             style="fill:none;stroke:#231f20;stroke-width:5;stroke-linecap:butt;stroke-linejoin:round;stroke-miterlimit:10;stroke-dasharray:none;stroke-opacity:1"
             id="path74"
             inkscape:connector-curvature="0" /></g></g></g><text
       transform="matrix(1,0,0,-1,213.415,18.837)"
       style="font-variant:normal;font-weight:normal;font-size:14px;font-family:Helvetica;-inkscape-font-specification:Helvetica;writing-mode:lr-tb;fill:#211c1d;fill-opacity:1;fill-rule:nonzero;stroke:none"
       id="text78"><tspan
         x="0"
         y="0"
         id="tspan76">1</tspan></text>
<g
       id="g80"
       transform="scale(0.1)"><g
         id="g82"
         clip-path="url(#clipPath86)"><g
           id="g88"
           transform="translate(2985.8301,2914.1599)"><path
             d="m 0,0 v -32.5 m 0,-2534.988 v 33.328"
             style="fill:none;stroke:#231f20;stroke-width:5;stroke-linecap:butt;stroke-linejoin:round;stroke-miterlimit:10;stroke-dasharray:none;stroke-opacity:1"
             id="path90"
             inkscape:connector-curvature="0" /></g></g></g><text
       transform="matrix(1,0,0,-1,288.915,18.837)"
       style="font-variant:normal;font-weight:normal;font-size:14px;font-family:Helvetica;-inkscape-font-specification:Helvetica;writing-mode:lr-tb;fill:#211c1d;fill-opacity:1;fill-rule:nonzero;stroke:none"
       id="text94"><tspan
         x="0 7.1820002 10.08"
         y="0"
         sodipodi:role="line"
         id="tspan92">1.5</tspan></text>
<g
       id="g96"
       transform="scale(0.1)"><g
         id="g98"
         clip-path="url(#clipPath102)"><g
           id="g104"
           transform="translate(3800,2914.1599)"><path
             d="m 0,0 v -32.5 m 0,-2534.988 v 33.328"
             style="fill:none;stroke:#231f20;stroke-width:5;stroke-linecap:butt;stroke-linejoin:round;stroke-miterlimit:10;stroke-dasharray:none;stroke-opacity:1"
             id="path106"
             inkscape:connector-curvature="0" /></g></g></g><text
       transform="matrix(1,0,0,-1,376.165,18.837)"
       style="font-variant:normal;font-weight:normal;font-size:14px;font-family:Helvetica;-inkscape-font-specification:Helvetica;writing-mode:lr-tb;fill:#211c1d;fill-opacity:1;fill-rule:nonzero;stroke:none"
       id="text110"><tspan
         x="0"
         y="0"
         id="tspan108">2</tspan></text>
<g
       id="g112"
       transform="scale(0.1)"><g
         id="g114"
         clip-path="url(#clipPath118)"><g
           id="g120"
           transform="translate(3800,346.672)"><path
             d="m 0,0 h -33.33 m -3220.834,0 h 32.5"
             style="fill:none;stroke:#231f20;stroke-width:5;stroke-linecap:butt;stroke-linejoin:round;stroke-miterlimit:10;stroke-dasharray:none;stroke-opacity:1"
             id="path122"
             inkscape:connector-curvature="0" /></g></g></g><text
       transform="matrix(1,0,0,-1,43.915,29.501)"
       style="font-variant:normal;font-weight:normal;font-size:14px;font-family:Helvetica;-inkscape-font-specification:Helvetica;writing-mode:lr-tb;fill:#211c1d;fill-opacity:1;fill-rule:nonzero;stroke:none"
       id="text126"><tspan
         x="0"
         y="0"
         id="tspan124">0</tspan></text>
<g
       id="g128"
       transform="scale(0.1)"><g
         id="g130"
         clip-path="url(#clipPath134)"><g
           id="g136"
           transform="translate(3800,714.172)"><path
             d="m 0,0 h -33.33 m -3220.834,0 h 32.5"
             style="fill:none;stroke:#231f20;stroke-width:5;stroke-linecap:butt;stroke-linejoin:round;stroke-miterlimit:10;stroke-dasharray:none;stroke-opacity:1"
             id="path138"
             inkscape:connector-curvature="0" /></g></g></g><text
       transform="matrix(1,0,0,-1,32.249,66.259)"
       style="font-variant:normal;font-weight:normal;font-size:14px;font-family:Helvetica;-inkscape-font-specification:Helvetica;writing-mode:lr-tb;fill:#211c1d;fill-opacity:1;fill-rule:nonzero;stroke:none"
       id="text142"><tspan
         x="0 7.1820002 10.08"
         y="0"
         sodipodi:role="line"
         id="tspan140">0.2</tspan></text>
<g
       id="g144"
       transform="scale(0.1)"><g
         id="g146"
         clip-path="url(#clipPath150)"><g
           id="g152"
           transform="translate(3800,1080.83)"><path
             d="m 0,0 h -33.33 m -3220.834,0 h 32.5"
             style="fill:none;stroke:#231f20;stroke-width:5;stroke-linecap:butt;stroke-linejoin:round;stroke-miterlimit:10;stroke-dasharray:none;stroke-opacity:1"
             id="path154"
             inkscape:connector-curvature="0" /></g></g></g><text
       transform="matrix(1,0,0,-1,32.249,102.915)"
       style="font-variant:normal;font-weight:normal;font-size:14px;font-family:Helvetica;-inkscape-font-specification:Helvetica;writing-mode:lr-tb;fill:#211c1d;fill-opacity:1;fill-rule:nonzero;stroke:none"
       id="text158"><tspan
         x="0 7.1820002 10.08"
         y="0"
         sodipodi:role="line"
         id="tspan156">0.4</tspan></text>
<g
       id="g160"
       transform="scale(0.1)"><g
         id="g162"
         clip-path="url(#clipPath166)"><g
           id="g168"
           transform="translate(3800,1447.5)"><path
             d="m 0,0 h -33.33 m -3220.834,0 h 32.5"
             style="fill:none;stroke:#231f20;stroke-width:5;stroke-linecap:butt;stroke-linejoin:round;stroke-miterlimit:10;stroke-dasharray:none;stroke-opacity:1"
             id="path170"
             inkscape:connector-curvature="0" /></g></g></g><text
       transform="matrix(1,0,0,-1,32.249,139.585)"
       style="font-variant:normal;font-weight:normal;font-size:14px;font-family:Helvetica;-inkscape-font-specification:Helvetica;writing-mode:lr-tb;fill:#211c1d;fill-opacity:1;fill-rule:nonzero;stroke:none"
       id="text174"><tspan
         x="0 7.1820002 10.08"
         y="0"
         sodipodi:role="line"
         id="tspan172">0.6</tspan></text>
<g
       id="g176"
       transform="scale(0.1)"><g
         id="g178"
         clip-path="url(#clipPath182)"><g
           id="g184"
           transform="translate(3800,1814.17)"><path
             d="m 0,0 h -33.33 m -3220.834,0 h 32.5"
             style="fill:none;stroke:#231f20;stroke-width:5;stroke-linecap:butt;stroke-linejoin:round;stroke-miterlimit:10;stroke-dasharray:none;stroke-opacity:1"
             id="path186"
             inkscape:connector-curvature="0" /></g></g></g><text
       transform="matrix(1,0,0,-1,32.249,176.249)"
       style="font-variant:normal;font-weight:normal;font-size:14px;font-family:Helvetica;-inkscape-font-specification:Helvetica;writing-mode:lr-tb;fill:#211c1d;fill-opacity:1;fill-rule:nonzero;stroke:none"
       id="text190"><tspan
         x="0 7.1820002 10.08"
         y="0"
         sodipodi:role="line"
         id="tspan188">0.8</tspan></text>
<g
       id="g192"
       transform="scale(0.1)"><g
         id="g194"
         clip-path="url(#clipPath198)"><g
           id="g200"
           transform="translate(3800,2180.8401)"><path
             d="m 0,0 h -33.33 m -3220.834,0 h 32.5"
             style="fill:none;stroke:#231f20;stroke-width:5;stroke-linecap:butt;stroke-linejoin:round;stroke-miterlimit:10;stroke-dasharray:none;stroke-opacity:1"
             id="path202"
             inkscape:connector-curvature="0" /></g></g></g><text
       transform="matrix(1,0,0,-1,43.915,212.921)"
       style="font-variant:normal;font-weight:normal;font-size:14px;font-family:Helvetica;-inkscape-font-specification:Helvetica;writing-mode:lr-tb;fill:#211c1d;fill-opacity:1;fill-rule:nonzero;stroke:none"
       id="text206"><tspan
         x="0"
         y="0"
         id="tspan204">1</tspan></text>
<g
       id="g208"
       transform="scale(0.1)"><g
         id="g210"
         clip-path="url(#clipPath214)"><g
           id="g216"
           transform="translate(3800,2547.5)"><path
             d="m 0,0 h -33.33 m -3220.834,0 h 32.5"
             style="fill:none;stroke:#231f20;stroke-width:5;stroke-linecap:butt;stroke-linejoin:round;stroke-miterlimit:10;stroke-dasharray:none;stroke-opacity:1"
             id="path218"
             inkscape:connector-curvature="0" /></g></g></g><text
       transform="matrix(1,0,0,-1,32.249,249.587)"
       style="font-variant:normal;font-weight:normal;font-size:14px;font-family:Helvetica;-inkscape-font-specification:Helvetica;writing-mode:lr-tb;fill:#211c1d;fill-opacity:1;fill-rule:nonzero;stroke:none"
       id="text222"><tspan
         x="0 7.1820002 10.08"
         y="0"
         sodipodi:role="line"
         id="tspan220">1.2</tspan></text>
<g
       id="g224"
       transform="scale(0.1)"><g
         id="g226"
         clip-path="url(#clipPath230)"><g
           id="g232"
           transform="translate(3800,2914.1599)"><path
             d="m 0,0 h -33.33 m -3220.834,0 h 32.5"
             style="fill:none;stroke:#231f20;stroke-width:5;stroke-linecap:butt;stroke-linejoin:round;stroke-miterlimit:10;stroke-dasharray:none;stroke-opacity:1"
             id="path234"
             inkscape:connector-curvature="0" /></g></g></g><text
       transform="matrix(1,0,0,-1,32.249,286.249)"
       style="font-variant:normal;font-weight:normal;font-size:14px;font-family:Helvetica;-inkscape-font-specification:Helvetica;writing-mode:lr-tb;fill:#211c1d;fill-opacity:1;fill-rule:nonzero;stroke:none"
       id="text238"><tspan
         x="0 7.1820002 10.08"
         y="0"
         sodipodi:role="line"
         id="tspan236">1.4</tspan></text>
<g
       id="g240"
       transform="scale(0.1)"><g
         id="g242"
         clip-path="url(#clipPath246)"><g
           id="g248"
           transform="translate(545.836,346.672)"><path
             d="M 0,0 V 2567.488 M 3254.164,0 V 2567.488 M 0,0 H 3254.164 M 0,2567.488 h 3254.164"
             style="fill:none;stroke:#231f20;stroke-width:5;stroke-linecap:butt;stroke-linejoin:round;stroke-miterlimit:10;stroke-dasharray:none;stroke-opacity:1"
             id="path250"
             inkscape:connector-curvature="0" /></g></g></g><g
       id="g252"
       transform="scale(0.1)"><g
         id="g254"
         clip-path="url(#clipPath258)"><g
           id="g260"
           transform="translate(545.836,346.672)"><path
             d="M 0,0 2.5,0.828 5.828,2.5 9.164,5 12.5,8.328 l 3.328,4.172 3.336,5.828 3.336,5.832 3.328,7.5 3.336,8.34 3.336,8.328 2.5,10 L 38.336,69.16 41.664,80 45,92.5 48.336,105 51.664,118.328 55,132.5 l 3.336,15 3.328,15 3.336,16.66 3.336,16.668 2.5,17.5 3.328,17.5 3.336,18.328 3.336,19.172 3.328,19.172 3.336,20 3.336,20 3.328,20.828 3.336,21.672 3.336,21.656 2.5,21.672 3.328,22.5 3.336,22.5 3.336,23.328 3.328,23.344 3.336,23.328 3.336,24.172 3.328,24.156 3.336,24.172 3.336,24.172 3.328,25 2.5,24.998 3.336,25 3.336,25 3.332,25 3.332,25.83 3.336,25.83 3.332,25 3.332,25.84 3.336,25.83 3.332,25.83 2.5,25 3.332,25.84 3.336,25.83 3.332,25.83 3.332,25.84 3.336,25 3.332,25.83 3.332,25 3.336,25.83 3.332,25 3.336,25 2.5,25 3.332,25 3.332,24.17 3.336,24.17 3.332,25 3.332,23.33 3.336,24.17 3.332,24.16 3.332,23.34 3.336,23.33 2.5,22.5 3.332,23.33 3.332,22.5 3.336,21.67 3.332,22.5 3.332,21.67 3.336,21.66 3.332,20.84 3.332,20.83 3.336,20.83 3.332,20 2.5,20 3.332,20 3.336,19.17 3.332,19.17 3.332,18.33 3.336,18.33 3.332,18.34 3.332,17.49 3.336,17.5 3.336,17.5 2.5,16.68 3.328,15.82 3.336,15.84 3.336,15.84 3.328,15 3.336,15 3.336,15 3.328,14.16 3.336,14.16 m -0.004,0 3.328,13.34 3.336,12.5 2.5,13.34 3.336,12.5 3.328,11.66 3.336,11.66 3.336,11.68 3.328,10.82 3.336,10.84 3.336,10 3.328,10 3.336,9.16 2.5,9.18 3.336,9.16 3.328,8.34 3.336,8.32 3.336,7.5 3.328,7.5 3.336,7.5 3.336,6.68 3.328,6.66 3.336,5.84 3.336,5.82 2.5,5.84 3.328,5 3.336,5 3.336,4.16 3.328,4.18 3.336,4.16 3.336,3.34 3.328,3.32 3.336,3.34 3.336,2.5 2.5,2.5 3.328,2.5 3.336,1.66 3.33,1.68 3.34,1.66 3.33,0.84 3.33,0.82 3.34,0.84 h 10 l 2.5,-0.84 h 3.33 l 3.33,-0.82 3.34,-1.68 3.33,-0.82 3.33,-1.68 3.34,-1.66 3.33,-1.66 3.33,-2.5 3.34,-2.5 2.5,-1.68 3.33,-3.32 3.33,-2.5 3.34,-3.34 3.33,-2.5 3.33,-3.34 3.34,-4.16 3.33,-3.34 3.33,-3.32 3.34,-4.18 3.33,-4.16 2.5,-4.16 3.33,-4.18 3.34,-4.16 3.33,-5 3.33,-4.16 3.34,-5 3.33,-5 3.33,-5 3.34,-5 3.33,-5 2.5,-5 3.33,-5.84 3.34,-5 3.33,-5.84 3.33,-5 3.34,-5.82 3.33,-5.84 3.33,-5.84 3.34,-5 3.33,-5.82 3.33,-5.84 2.5,-5.84 3.34,-5.82 3.33,-5.84 3.33,-5.84 3.34,-6.66 3.33,-5.84 3.33,-5.82 3.34,-5.84 3.33,-5.84 3.33,-5.82 3.34,-6.68 2.5,-5.82 3.33,-5.84 3.33,-5.84 3.34,-5.82 3.33,-5.84 3.33,-5.84 3.34,-5.82 3.33,-5.84 3.33,-5.84 3.34,-5.82 2.5,-5.84 3.33,-5.84 3.33,-5.82 3.34,-5.84 3.33,-5 3.33,-5.83 3.34,-5.83 3.33,-5 3.33,-5.84 3.34,-5 3.33,-5 2.5,-5.83 3.33,-5 3.34,-5 3.33,-5 3.33,-5.01 3.34,-5 3.33,-5 3.33,-5 3.34,-4.16 3.33,-5 2.5,-4.16 3.33,-5 3.34,-4.18 3.33,-4.16 3.33,-4.16 3.34,-4.18 3.33,-4.16 3.33,-4.16 3.34,-4.18 3.33,-3.32 3.33,-4.18 2.5,-3.32 3.34,-4.18 3.33,-3.32 3.33,-3.34 3.34,-3.34 3.33,-3.33 3.33,-3.33 3.34,-3.33 3.33,-2.5 3.33,-3.34 2.5,-2.5 3.34,-3.33 3.33,-2.5 3.33,-2.5 3.34,-2.5 3.33,-2.5 3.33,-2.5 3.34,-2.5 3.33,-1.67 3.33,-2.5 3.34,-1.66 2.5,-2.5 3.33,-1.67 3.33,-1.67 3.34,-1.66 3.33,-1.67 3.33,-1.67 3.34,-1.66 3.33,-1.67 3.33,-0.83 3.34,-1.67 2.5,-0.83 3.33,-1.67 3.33,-0.83 3.34,-0.84 3.33,-0.83 3.33,-0.83 3.34,-0.84 3.33,-0.83 h 3.33 l 3.34,-0.83 3.33,-0.84 h 2.5 l 3.33,-0.83 h 6.67 l 3.33,-0.83 h 16.67 l 2.5,0.83 h 10 l 3.33,0.83 h 3.34 l 3.33,0.84 h 3.33 l 3.34,0.83 3.33,0.83 3.33,0.84 h 2.5 l 3.34,0.83 3.33,0.83 3.33,0.84 3.34,0.83 3.33,0.83 3.33,0.84 3.34,0.83 3.33,0.83 3.33,0.84 2.5,1.66 3.34,0.84 3.33,0.83 3.33,0.83 3.34,1.67 3.33,0.83 3.33,1.67 3.34,0.83 3.33,0.84 3.33,1.66 3.34,0.84 2.5,1.66 3.33,0.84 3.33,1.66 3.34,0.84 3.33,1.66 3.33,1.67 3.34,0.83 3.33,1.67 3.33,0.83 3.34,1.67 2.5,1.67 3.33,0.83 3.33,1.67 3.34,1.66 3.33,0.84 3.33,1.66 3.34,1.67 3.33,0.83 3.33,1.67 3.34,1.67 3.33,0.83 2.5,1.67 3.33,1.66 3.34,0.84 3.33,1.66 3.33,1.67 3.34,0.83 3.33,1.67 3.33,0.83 3.34,1.67 3.33,1.67 2.5,0.83 3.33,1.67 3.34,0.83 3.33,1.67 3.33,1.67 3.34,0.83 3.33,1.67 3.33,0.83 3.34,1.67 3.33,0.83 3.33,1.67 2.5,0.83 3.34,0.83 3.33,1.67 3.33,0.83 3.34,1.67 3.33,0.83 3.33,0.84 3.34,1.66 3.33,0.84 3.33,0.83 2.5,0.83 3.34,1.67 3.33,0.83 3.33,0.84 3.34,0.83 3.33,0.83 3.33,0.84 3.34,1.66 3.33,0.84 3.33,0.83 3.34,0.83 2.5,0.84 3.33,0.83 3.33,0.83 3.34,0.84 3.33,0.83 h 3.33 l 3.34,0.83 3.33,0.84 3.33,0.83 3.34,0.83 3.33,0.84 h 2.5 l 3.33,0.83 m 0,-0.01 3.34,0.84 h 3.33 l 3.33,0.84 3.34,0.82 h 3.33 l 3.33,0.84 h 3.34 l 3.33,0.84 2.5,0.82 h 6.67 l 3.33,0.84 h 3.33 l 3.34,0.84 h 3.33 l 3.33,0.82 h 6.67 l 3.33,0.84 h 9.17 l 3.33,0.84 h 16.67 l 3.33,0.82 h 41.67 l 3.33,-0.82 h 20 l 3.34,-0.84 h 12.5 l 3.33,-0.84 h 10 l 3.33,-0.82 h 6.67 l 2.5,-0.84 h 10 l 3.33,-0.84 h 6.67 l 3.33,-0.82 h 3.34 l 3.33,-0.84 h 5.83 l 3.34,-0.84 h 6.66 l 3.34,-0.82 h 6.66 l 3.34,-0.84 h 3.33 l 3.33,-0.84 h 5.84 l 3.33,-0.82 h 3.33 l 3.34,-0.84 h 6.66 l 3.34,-0.84 h 6.66 l 2.5,-0.82 h 3.34 l 3.33,-0.84 h 6.67 l 3.33,-0.84 h 3.33 l 3.34,-0.82 h 6.66 l 3.34,-0.84 h 5.83 l 3.33,-0.84 h 6.67 l 3.33,-0.82 h 6.67 l 3.33,-0.84 h 5.84 l 3.33,-0.84 h 6.67 l 3.33,-0.82 h 6.67 l 3.33,-0.84 h 6.67 l 3.33,-0.84 h 9.17 l 3.33,-0.82 h 10 l 3.33,-0.84 h 9.17 l 3.33,-0.84 h 13.34 l 3.33,-0.82 h 15.83 l 3.34,-0.84 h 16.66 l 3.34,-0.84 h 29.16 l 3.34,-0.82 h 130 l 3.33,0.82 h 39.17 l 3.33,0.84 h 35.83 l 3.34,0.84 h 32.5 l 3.33,0.82 h 35 l 3.33,0.84 h 35.84 l 3.33,0.84 h 49.16 l 3.34,0.82 h 61.66 m 0.01,0 h 22.5 l 3.33,0.84 h 143.33 l 3.34,-0.84 h 162.5 l 3.33,-0.82 h 635.01"
             style="fill:none;stroke:#3b4ba7;stroke-width:30;stroke-linecap:butt;stroke-linejoin:round;stroke-miterlimit:10;stroke-dasharray:none;stroke-opacity:1"
             id="path262"
             inkscape:connector-curvature="0" /></g><g
           id="g264"
           transform="translate(545.836,346.672)"><path
             d="M 0,0 2.5,0.828 5.828,2.5 9.164,5 12.5,8.328 l 3.328,5 3.336,5 L 22.5,25 25.828,31.66 29.164,40 32.5,49.16 35,58.328 38.336,69.16 41.664,80.828 45,92.5 l 3.336,13.328 3.328,13.332 3.336,15 3.336,15 3.328,15.84 3.336,15.828 3.336,17.5 2.5,17.5 3.328,18.332 3.336,18.34 3.336,20 3.328,19.156 3.336,20.844 3.336,20.828 3.328,21.672 3.336,21.656 3.336,21.672 2.5,23.328 3.328,22.5 3.336,23.344 3.336,24.156 3.328,24.172 L 120,540 l 3.336,25 3.328,25 3.336,25 3.336,25.828 3.328,25.83 2.5,25.84 3.336,25.83 3.336,26.67 3.332,25.83 3.332,26.67 3.336,26.66 3.332,26.67 3.332,27.5 3.336,26.67 3.332,27.5 2.5,26.66 3.332,27.5 3.336,26.67 3.332,27.5 3.332,26.67 3.336,27.5 3.332,26.66 3.332,26.67 3.336,27.5 3.332,26.67 3.336,26.67 2.5,26.66 3.332,25.83 3.332,26.67 3.336,26.67 3.332,25.83 3.332,25.83 3.336,25.84 3.332,25 3.332,25.83 3.336,25 2.5,25 3.332,24.17 3.332,24.16 3.336,24.17 3.332,24.17 3.332,24.16 3.336,23.34 3.332,22.5 3.332,23.33 3.336,22.5 3.332,21.67 2.5,22.5 3.332,21.66 3.336,20.83 3.332,20.84 3.332,20.84 3.336,20.82 3.332,20 3.332,19.18 3.336,19.16 3.336,19.16 2.5,18.34 3.328,18.34 3.336,18.32 3.336,17.5 3.328,16.68 3.336,16.66 3.336,16.66 3.328,15.84 3.336,15.84 m -0.004,0 3.328,15 3.336,15 2.5,15 3.336,14.16 3.328,13.34 3.336,13.32 3.336,13.34 3.328,12.5 3.336,12.5 3.336,11.66 3.328,11.68 3.336,10.82 2.5,10.84 3.336,10 3.328,10 3.336,10 3.336,9.16 3.328,8.34 3.336,9.16 3.336,7.5 3.328,7.5 3.336,7.5 3.336,7.5 2.5,6.68 3.328,5.82 3.336,5.84 3.336,5.84 3.328,5 3.336,5 3.336,5 3.328,4.16 3.336,4.16 3.336,3.34 2.5,3.34 3.328,2.5 3.336,2.5 3.33,2.5 3.34,1.66 3.33,2.5 3.33,0.84 3.34,0.82 3.33,0.84 3.33,0.84 h 9.17 l 3.33,-0.84 3.34,-0.84 3.33,-0.82 3.33,-1.68 3.34,-0.82 3.33,-2.5 3.33,-1.68 3.34,-2.5 2.5,-2.5 3.33,-2.5 3.33,-3.32 3.34,-2.5 3.33,-3.34 3.33,-4.16 3.34,-3.34 3.33,-4.16 3.33,-4.18 3.34,-4.16 3.33,-4.16 2.5,-5 3.33,-5 3.34,-5 3.33,-5 3.33,-5 3.34,-5 3.33,-5.84 3.33,-5.84 3.34,-5.82 3.33,-5.84 2.5,-5.84 3.33,-5.82 3.34,-6.68 3.33,-5.82 3.33,-6.68 3.34,-6.66 3.33,-6.66 3.33,-6.68 3.34,-6.66 3.33,-6.66 3.33,-6.68 2.5,-6.66 3.34,-7.5 3.33,-6.66 3.33,-7.5 3.34,-6.68 3.33,-7.5 3.33,-6.66 3.34,-7.5 3.33,-7.5 3.33,-6.66 3.34,-7.5 2.5,-7.5 3.33,-6.68 3.33,-7.5 3.34,-7.5 3.33,-7.5 3.33,-6.66 3.34,-7.5 3.33,-7.5 3.33,-6.66 3.34,-7.5 2.5,-7.5 3.33,-6.68 3.33,-7.5 3.34,-6.66 3.33,-7.5 3.33,-6.66 3.34,-6.68 3.33,-7.5 3.33,-6.66 3.34,-6.66 3.33,-6.68 2.5,-6.66 3.33,-6.66 3.34,-6.68 3.33,-6.66 3.33,-6.66 3.34,-6.68 3.33,-5.82 3.33,-6.68 3.34,-5.82 3.33,-5.84 2.5,-6.66 3.33,-5.84 3.34,-5.84 3.33,-5.82 3.33,-5.84 3.34,-5 3.33,-5.83 3.33,-5 3.34,-5.83 3.33,-5 3.33,-5 2.5,-5 3.34,-5 3.33,-5 3.33,-5 3.34,-5 3.33,-4.18 3.33,-5 3.34,-4.16 3.33,-4.16 3.33,-4.18 2.5,-4.16 3.34,-4.16 3.33,-4.18 3.33,-3.32 3.34,-4.18 3.33,-3.32 3.33,-3.34 3.34,-3.34 3.33,-3.32 3.33,-3.34 3.34,-3.34 2.5,-2.5 3.33,-3.32 3.33,-2.5 3.34,-3.34 3.33,-2.5 3.33,-2.5 3.34,-2.5 3.33,-2.5 3.33,-1.67 3.34,-2.5 2.5,-1.66 3.33,-2.5 3.33,-1.67 3.34,-1.67 3.33,-1.66 3.33,-1.67 3.34,-1.67 3.33,-0.83 3.33,-1.67 3.34,-0.83 3.33,-1.67 2.5,-0.83 3.33,-0.83 3.34,-0.84 3.33,-0.83 3.33,-0.83 3.34,-0.84 3.33,-0.83 h 3.33 l 3.34,-0.83 h 3.33 l 2.5,-0.84 h 20 l 3.33,0.84 h 6.67 l 3.33,0.83 h 2.5 l 3.34,0.83 3.33,0.84 h 3.33 l 3.34,0.83 3.33,0.83 3.33,0.84 3.34,0.83 3.33,0.83 3.33,0.84 2.5,0.83 3.34,0.83 3.33,1.67 3.33,0.83 3.34,0.84 3.33,1.66 3.33,0.84 3.34,1.66 3.33,0.84 3.33,1.66 3.34,0.84 2.5,1.66 3.33,1.67 3.33,0.83 3.34,1.67 3.33,1.67 3.33,1.66 3.34,1.67 3.33,0.83 3.33,1.67 3.34,1.67 2.5,1.67 3.33,1.66 3.33,1.66 3.34,1.68 3.33,1.66 3.33,1.66 3.34,1.68 3.33,1.66 3.33,1.66 3.34,1.68 3.33,1.66 2.5,1.66 3.33,1.68 3.34,1.66 3.33,2.5 3.33,1.66 3.34,1.68 3.33,1.66 3.33,1.66 3.34,1.68 3.33,1.66 2.5,1.66 3.33,1.68 3.34,1.66 3.33,1.66 3.33,1.68 3.34,1.66 3.33,1.66 3.33,1.68 3.34,1.66 3.33,1.66 3.33,1.68 2.5,1.66 3.34,1.66 3.33,1.68 3.33,1.66 3.34,0.84 3.33,1.66 3.33,1.67 3.34,1.67 3.33,1.66 3.33,0.84 2.5,1.66 3.34,1.67 3.33,1.67 3.33,0.83 3.34,1.67 3.33,0.83 3.33,1.67 3.34,1.66 3.33,0.84 3.33,1.66 3.34,0.84 2.5,0.83 3.33,1.67 3.33,0.83 3.34,1.67 3.33,0.83 3.33,0.83 3.34,1.67 3.33,0.83 3.33,0.84 3.34,0.83 3.33,0.83 2.5,0.84 3.33,0.83 m 0,-0.01 3.34,1.68 3.33,0.82 3.33,0.84 h 3.34 l 3.33,0.84 3.33,0.82 3.34,0.84 3.33,0.84 2.5,0.82 3.33,0.84 h 3.34 l 3.33,0.84 3.33,0.82 h 3.34 l 3.33,0.84 3.33,0.84 h 3.34 l 3.33,0.82 h 3.33 l 2.5,0.84 h 3.34 l 3.33,0.84 h 6.67 l 3.33,0.82 h 6.67 l 3.33,0.84 h 19.17 l 3.33,0.84 h 16.67 l 2.5,-0.84 h 20 l 3.33,-0.84 h 9.17 l 3.33,-0.82 h 6.67 l 3.33,-0.84 h 6.67 l 3.33,-0.84 h 3.33 l 3.34,-0.82 h 3.33 l 2.5,-0.84 h 3.33 l 3.34,-0.84 h 3.33 l 3.33,-0.82 h 3.34 l 3.33,-0.84 h 3.33 l 3.34,-0.84 h 3.33 l 2.5,-0.82 h 3.33 l 3.34,-0.84 3.33,-0.84 h 3.33 l 3.34,-0.82 h 3.33 l 3.33,-0.84 3.34,-0.84 h 3.33 l 3.33,-0.82 2.5,-0.84 h 3.34 l 3.33,-0.84 3.33,-0.82 h 3.34 l 3.33,-0.84 3.33,-0.84 h 3.34 l 3.33,-0.82 3.33,-0.84 h 2.5 l 3.34,-0.84 3.33,-0.82 h 3.33 l 3.34,-0.84 3.33,-0.84 h 3.33 l 3.34,-0.82 3.33,-0.84 h 3.33 l 3.34,-0.84 2.5,-0.82 h 3.33 l 3.33,-0.84 3.34,-0.84 h 3.33 l 3.33,-0.82 3.34,-0.84 h 3.33 l 3.33,-0.84 3.34,-0.82 h 2.5 l 3.33,-0.84 3.33,-0.84 h 3.34 l 3.33,-0.82 3.33,-0.84 h 3.34 l 3.33,-0.84 h 3.33 l 3.34,-0.82 3.33,-0.84 h 2.5 l 3.33,-0.84 h 3.34 l 3.33,-0.82 h 3.33 l 3.34,-0.84 3.33,-0.84 h 3.33 l 3.34,-0.82 h 3.33 l 2.5,-0.84 h 3.33 l 3.34,-0.84 h 3.33 l 3.33,-0.82 h 3.34 l 3.33,-0.84 h 3.33 l 3.34,-0.84 h 6.66 l 2.5,-0.83 h 3.34 l 3.33,-0.83 h 3.33 l 3.34,-0.84 h 6.66 l 3.34,-0.83 h 6.66 l 2.5,-0.83 h 6.67 l 3.33,-0.84 h 6.67 l 3.33,-0.83 h 6.67 l 3.33,-0.83 h 9.17 l 3.33,-0.84 h 13.34 l 3.33,-0.83 h 12.5 l 3.33,-0.83 h 20 l 3.34,-0.84 h 32.5 l 3.33,-0.83 h 84.17 l 3.33,0.83 h 52.5 l 2.5,0.84 h 42.5 l 3.33,0.83 h 45.83 l 3.34,0.83 h 94.16 m 0.01,0 h 116.66 l 3.34,-0.82 h 42.5 l 3.33,-0.84 h 35.83 l 3.34,-0.84 h 32.5 l 3.33,-0.82 h 32.5 l 3.33,-0.84 h 29.17 l 3.33,-0.84 h 32.5 l 3.34,-0.82 h 32.49 l 3.34,-0.84 h 32.5 l 3.33,-0.84 h 39.17 l 3.33,-0.82 h 41.67 l 3.33,-0.84 h 49.17 l 3.33,-0.84 h 58.34 l 3.33,-0.82 h 75 l 3.34,-0.84 h 94.16 l 3.34,-0.84 h 100.83 l 3.34,-0.82 h 75"
             style="fill:none;stroke:#26813a;stroke-width:30;stroke-linecap:butt;stroke-linejoin:round;stroke-miterlimit:10;stroke-dasharray:none;stroke-opacity:1"
             id="path266"
             inkscape:connector-curvature="0" /></g></g></g><text
       transform="matrix(0,1,1,0,24.5789,117.837)"
       style="font-variant:normal;font-weight:normal;font-size:14px;font-family:Helvetica;-inkscape-font-specification:Helvetica;writing-mode:lr-tb;fill:#211c1d;fill-opacity:1;fill-rule:nonzero;stroke:none"
       id="text270"><tspan
         x="0 6.902 11.536 18.549999 26.516001 29.483999 34.062 41.076 46.619999 54.585999 62.271999 70.042 75.585999"
         y="0"
         sodipodi:role="line"
         id="tspan268">Step response</tspan></text>
<text
       transform="matrix(1,0,0,-1,178.415,3.9988)"
       style="font-variant:normal;font-weight:normal;font-size:14px;font-family:Helvetica;-inkscape-font-specification:Helvetica;writing-mode:lr-tb;fill:#211c1d;fill-opacity:1;fill-rule:nonzero;stroke:none"
       id="text274"><tspan
         x="0 6.9580002 10.234 21.91 28.924 31.822001 34.790001 39.424 42.391998 46.368 51.911999 58.925999 65.197998"
         y="0"
         sodipodi:role="line"
         id="tspan272">Time, t (sec)</tspan></text>
<text
       transform="matrix(1,0,0,-1,217.988,255.2298)"
       style="font-variant:normal;font-weight:normal;font-size:12px;font-family:MyriadPro;-inkscape-font-specification:MyriadPro-Regular;writing-mode:lr-tb;fill:#100f0d;fill-opacity:1;fill-rule:nonzero;stroke:none"
       id="text278"><tspan
         x="0 8.8319998 11.64 15.612 22.271999 24.816 27.648001 33.431999 -71.987999 -67.236 -63.335606 -57.323605 -50.495605 -47.951603 -44.147903 -38.135902 -33.383904 -26.555904 -19.967903 -13.307904 -8.5559044"
         y="0"
         sodipodi:role="line"
         id="tspan276">with lagstep response</tspan></text>
<g
       id="g280"
       transform="scale(0.1)"><g
         id="g282"
         clip-path="url(#clipPath286)"><g
           id="g288"
           transform="translate(1073.33,1994.17)"><path
             d="M 0,0 123.34,389.99"
             style="fill:none;stroke:#100f0d;stroke-width:10;stroke-linecap:butt;stroke-linejoin:miter;stroke-miterlimit:10;stroke-dasharray:none;stroke-opacity:1"
             id="path290"
             inkscape:connector-curvature="0" /></g></g></g><text
       transform="matrix(1,0,0,-1,98.333,190.896)"
       style="font-variant:normal;font-weight:normal;font-size:12px;font-family:MyriadPro;-inkscape-font-specification:MyriadPro-Regular;writing-mode:lr-tb;fill:#100f0d;fill-opacity:1;fill-rule:nonzero;stroke:none"
       id="text294"><tspan
         x="0 4.7519999 8.6523962 14.664396 21.492395 24.036396 27.840096 33.852097 38.604095 45.432095 52.020096 58.680096 63.432095 69.444099 71.988098 80.820099 83.628098 87.600098 94.260094 100.8481 107.4601 111.4321 113.9761 116.8081 122.59209"
         y="0"
         sodipodi:role="line"
         id="tspan292">step response without lag</tspan></text>
<g
       id="g296"
       transform="scale(0.1)"><g
         id="g298"
         clip-path="url(#clipPath302)"><g
           id="g304"
           transform="translate(1406.67,2593.3401)"><path
             d="M 0,0 -255.84,30.82"
             style="fill:none;stroke:#100f0d;stroke-width:10;stroke-linecap:butt;stroke-linejoin:miter;stroke-miterlimit:10;stroke-dasharray:none;stroke-opacity:1"
             id="path306"
             inkscape:connector-curvature="0" /></g></g></g><text
       transform="matrix(1,0,0,-1,98.333,142.396)"
       style="font-variant:normal;font-weight:normal;font-size:12px;font-family:MyriadPro;-inkscape-font-specification:MyriadPro-Regular;writing-mode:lr-tb;fill:#100f0d;fill-opacity:1;fill-rule:nonzero;stroke:none"
       id="text314"><tspan
         x="0 7.8959999 14.484 18.384396 24.396397 26.940395 30.912395 37.572395 43.584396 46.128395 50.880398 53.712395 56.520397 63.228397 69.839798 73.811798 76.643799 82.295799 84.839798 91.499794 94.307793 101.01579 107.6758 113.6878 117.61179 120.15579 126.9838 132.99579 138.7798 144.40779 146.9518 153.45619 159.10799 165.12 169.04399 173.79599 180.45599 187.04399 193.63199 197.60399 200.14799 208.97998 211.78799 215.75999 222.41998 224.96399 228.93599 235.59599 241.60799 244.15199 246.98399 252.76799 259.47598"
         y="0"
         sodipodi:role="line"
         id="tspan308">Note the slightly higher peak overshoot with the lag </tspan><tspan
         x="0 6.276 9.1079998 13.008204 19.020205 22.944204 25.488203 32.256203 38.868202 44.880203 47.424206 51.322308 57.910309 60.454308 63.286308 69.791 78.502907 84.514908 88.438911 90.98291 97.810905 104.47091 110.25491 115.0069 121.01891 123.5629 133.57091 139.3549 143.1826 149.81882 152.62682 159.28682 161.83081 165.23882 171.02281 177.68282 184.45081 186.99481 192.77881 195.61081 200.36281 206.95081 209.49481 219.50281 226.09081 229.89452 235.90651 238.45052 241.28252 247.06651"
         y="14.4"
         sodipodi:role="line"
         id="tspan310">flter due to lower phase margin (and also more lag</tspan><tspan
         x="0 6.8280001 12.84 15.672 22.1754 31.007401 33.551399 38.927399 42.731304 49.319305 54.071304 58.823303 65.3274 70.979195 76.991196 80.915199 84.323196"
         y="28.799999"
         sodipodi:role="line"
         id="tspan312">below crossover).</tspan></text>
</g></svg>