<?xml version="1.0" encoding="UTF-8" standalone="no"?>
<!-- Created with Inkscape (http://www.inkscape.org/) -->

<svg
   xmlns:dc="http://purl.org/dc/elements/1.1/"
   xmlns:cc="http://creativecommons.org/ns#"
   xmlns:rdf="http://www.w3.org/1999/02/22-rdf-syntax-ns#"
   xmlns:svg="http://www.w3.org/2000/svg"
   xmlns="http://www.w3.org/2000/svg"
   xmlns:sodipodi="http://sodipodi.sourceforge.net/DTD/sodipodi-0.dtd"
   xmlns:inkscape="http://www.inkscape.org/namespaces/inkscape"
   version="1.1"
   id="svg2"
   xml:space="preserve"
   width="647.26526"
   height="398.97482"
   viewBox="0 0 647.26526 398.97482"
   sodipodi:docname="amplitude.svg"
   inkscape:version="0.92.0 r15299"><metadata
     id="metadata8"><rdf:RDF><cc:Work
         rdf:about=""><dc:format>image/svg+xml</dc:format><dc:type
           rdf:resource="http://purl.org/dc/dcmitype/StillImage" /><dc:title></dc:title></cc:Work></rdf:RDF></metadata><defs
     id="defs6"><clipPath
       clipPathUnits="userSpaceOnUse"
       id="clipPath18"><path
         d="M 0,4173.5 V 0 h 5068.89 v 4173.5 z"
         id="path16"
         inkscape:connector-curvature="0" /></clipPath><clipPath
       clipPathUnits="userSpaceOnUse"
       id="clipPath170"><path
         d="M 0,4173.5 V 0 h 5068.89 v 4173.5 z"
         id="path168"
         inkscape:connector-curvature="0" /></clipPath><clipPath
       clipPathUnits="userSpaceOnUse"
       id="clipPath216"><path
         d="M 0,4173.5 V 0 h 5068.89 v 4173.5 z"
         id="path214"
         inkscape:connector-curvature="0" /></clipPath></defs><sodipodi:namedview
     pagecolor="#ffffff"
     bordercolor="#666666"
     borderopacity="1"
     objecttolerance="10"
     gridtolerance="10"
     guidetolerance="10"
     inkscape:pageopacity="0"
     inkscape:pageshadow="2"
     inkscape:window-width="1600"
     inkscape:window-height="847"
     id="namedview4"
     showgrid="false"
     fit-margin-top="0"
     fit-margin-left="0"
     fit-margin-right="0"
     fit-margin-bottom="0"
     inkscape:zoom="0.4469697"
     inkscape:cx="-178.1985"
     inkscape:cy="33.056752"
     inkscape:window-x="-8"
     inkscape:window-y="-8"
     inkscape:window-maximized="1"
     inkscape:current-layer="g10" /><g
     id="g10"
     inkscape:groupmode="layer"
     inkscape:label="A9R1hv6y14_1yivlpp_57k"
     transform="matrix(1.3333333,0,0,-1.3333333,-3.2578124,554.30409)"><g
       id="g12"
       transform="scale(0.1)"><g
         id="g14"
         clip-path="url(#clipPath18)"><g
           id="g20"
           transform="translate(785.719,4146.8301)"><path
             d="M 0,0 V -2297.63"
             style="fill:#100f0d;fill-opacity:1;fill-rule:nonzero;stroke:none"
             id="path22"
             inkscape:connector-curvature="0" /></g><g
           id="g24"
           transform="translate(785.719,4146.8301)"><path
             d="M 0,0 V -2297.63"
             style="fill:none;stroke:#211c1d;stroke-width:10;stroke-linecap:butt;stroke-linejoin:miter;stroke-miterlimit:10;stroke-dasharray:none;stroke-opacity:1"
             id="path26"
             inkscape:connector-curvature="0" /></g><g
           id="g28"
           transform="translate(206.348,2531.74)"><path
             d="M 0,0 H 4460.322"
             style="fill:#100f0d;fill-opacity:1;fill-rule:nonzero;stroke:none"
             id="path30"
             inkscape:connector-curvature="0" /></g><g
           id="g32"
           transform="translate(206.348,2531.74)"><path
             d="M 0,0 H 4460.322"
             style="fill:none;stroke:#211c1d;stroke-width:10;stroke-linecap:butt;stroke-linejoin:miter;stroke-miterlimit:10;stroke-dasharray:none;stroke-opacity:1"
             id="path34"
             inkscape:connector-curvature="0" /></g><g
           id="g36"
           transform="translate(341.27,3817.45)"><path
             d="M 0,0 H 1309.53"
             style="fill:#100f0d;fill-opacity:1;fill-rule:nonzero;stroke:none"
             id="path38"
             inkscape:connector-curvature="0" /></g><g
           id="g40"
           transform="translate(341.27,3817.45)"><path
             d="M 0,0 H 1309.53"
             style="fill:none;stroke:#211c1d;stroke-width:10;stroke-linecap:butt;stroke-linejoin:miter;stroke-miterlimit:10;stroke-dasharray:none;stroke-opacity:1"
             id="path42"
             inkscape:connector-curvature="0" /></g><g
           id="g44"
           transform="translate(1650.8,3817.45)"><path
             d="M 0,0 555.55,-428.56"
             style="fill:#100f0d;fill-opacity:1;fill-rule:nonzero;stroke:none"
             id="path46"
             inkscape:connector-curvature="0" /></g><g
           id="g48"
           transform="translate(1650.8,3817.45)"><path
             d="M 0,0 555.55,-428.56"
             style="fill:none;stroke:#211c1d;stroke-width:10;stroke-linecap:butt;stroke-linejoin:miter;stroke-miterlimit:10;stroke-dasharray:none;stroke-opacity:1"
             id="path50"
             inkscape:connector-curvature="0" /></g><g
           id="g52"
           transform="translate(2206.3501,3388.8899)"><path
             d="M 0,0 555.55,-428.58"
             style="fill:#100f0d;fill-opacity:1;fill-rule:nonzero;stroke:none"
             id="path54"
             inkscape:connector-curvature="0" /></g><g
           id="g56"
           transform="translate(2206.3501,3388.8899)"><path
             d="M 0,0 555.55,-428.58"
             style="fill:none;stroke:#211c1d;stroke-width:10;stroke-linecap:butt;stroke-linejoin:miter;stroke-miterlimit:10;stroke-dasharray:120, 120;stroke-dashoffset:0;stroke-opacity:1"
             id="path58"
             inkscape:connector-curvature="0" /></g><g
           id="g60"
           transform="translate(2761.8999,2960.3101)"><path
             d="M 0,0 753.98,-976.19"
             style="fill:#100f0d;fill-opacity:1;fill-rule:nonzero;stroke:none"
             id="path62"
             inkscape:connector-curvature="0" /></g><g
           id="g64"
           transform="translate(2761.8999,2960.3101)"><path
             d="M 0,0 753.98,-976.19"
             style="fill:none;stroke:#211c1d;stroke-width:10;stroke-linecap:butt;stroke-linejoin:miter;stroke-miterlimit:10;stroke-dasharray:120, 120;stroke-dashoffset:0;stroke-opacity:1"
             id="path66"
             inkscape:connector-curvature="0" /></g><g
           id="g68"
           transform="translate(3515.8799,1984.12)"><path
             d="M 0,0 293.65,-817.46"
             style="fill:#100f0d;fill-opacity:1;fill-rule:nonzero;stroke:none"
             id="path70"
             inkscape:connector-curvature="0" /></g><g
           id="g72"
           transform="translate(3515.8799,1984.12)"><path
             d="M 0,0 293.65,-817.46"
             style="fill:none;stroke:#211c1d;stroke-width:10;stroke-linecap:butt;stroke-linejoin:miter;stroke-miterlimit:10;stroke-dasharray:120, 120;stroke-dashoffset:0;stroke-opacity:1"
             id="path74"
             inkscape:connector-curvature="0" /></g><g
           id="g76"
           transform="translate(2206.3501,3388.8899)"><path
             d="M 0,0 555.56,-753.97"
             style="fill:#100f0d;fill-opacity:1;fill-rule:nonzero;stroke:none"
             id="path78"
             inkscape:connector-curvature="0" /></g><g
           id="g80"
           transform="translate(2206.3501,3388.8899)"><path
             d="M 0,0 555.56,-753.97"
             style="fill:none;stroke:#211c1d;stroke-width:10;stroke-linecap:butt;stroke-linejoin:miter;stroke-miterlimit:10;stroke-dasharray:none;stroke-opacity:1"
             id="path82"
             inkscape:connector-curvature="0" /></g><g
           id="g84"
           transform="translate(2777.77,2611.1101)"><path
             d="M 0,0 539.68,-1341.27"
             style="fill:#100f0d;fill-opacity:1;fill-rule:nonzero;stroke:none"
             id="path86"
             inkscape:connector-curvature="0" /></g><g
           id="g88"
           transform="translate(2777.77,2611.1101)"><path
             d="M 0,0 539.68,-1341.27"
             style="fill:none;stroke:#211c1d;stroke-width:10;stroke-linecap:butt;stroke-linejoin:miter;stroke-miterlimit:10;stroke-dasharray:none;stroke-opacity:1"
             id="path90"
             inkscape:connector-curvature="0" /></g><g
           id="g92"
           transform="translate(2785.72,2634.9199)"><path
             d="m 0,0 c 0,-13.15 -10.66,-23.81 -23.81,-23.81 -13.15,0 -23.81,10.66 -23.81,23.81 0,13.15 10.66,23.8 23.81,23.8 C -10.66,23.8 0,13.15 0,0"
             style="fill:#100f0d;fill-opacity:1;fill-rule:nonzero;stroke:none"
             id="path94"
             inkscape:connector-curvature="0" /></g><g
           id="g96"
           transform="translate(2785.72,2634.9199)"><path
             d="m 0,0 c 0,-13.15 -10.66,-23.81 -23.81,-23.81 -13.15,0 -23.81,10.66 -23.81,23.81 0,13.15 10.66,23.8 23.81,23.8 C -10.66,23.8 0,13.15 0,0 Z"
             style="fill:none;stroke:#211c1d;stroke-width:10;stroke-linecap:butt;stroke-linejoin:miter;stroke-miterlimit:10;stroke-dasharray:none;stroke-opacity:1"
             id="path98"
             inkscape:connector-curvature="0" /></g><g
           id="g100"
           transform="translate(1674.6,3817.45)"><path
             d="m 0,0 c 0,-13.14 -10.65,-23.81 -23.8,-23.81 -13.15,0 -23.81,10.67 -23.81,23.81 0,13.15 10.66,23.82 23.81,23.82 C -10.65,23.82 0,13.15 0,0"
             style="fill:#100f0d;fill-opacity:1;fill-rule:nonzero;stroke:none"
             id="path102"
             inkscape:connector-curvature="0" /></g><g
           id="g104"
           transform="translate(1674.6,3817.45)"><path
             d="m 0,0 c 0,-13.14 -10.65,-23.81 -23.8,-23.81 -13.15,0 -23.81,10.67 -23.81,23.81 0,13.15 10.66,23.82 23.81,23.82 C -10.65,23.82 0,13.15 0,0 Z"
             style="fill:none;stroke:#211c1d;stroke-width:10;stroke-linecap:butt;stroke-linejoin:miter;stroke-miterlimit:10;stroke-dasharray:none;stroke-opacity:1"
             id="path106"
             inkscape:connector-curvature="0" /></g><g
           id="g108"
           transform="translate(2253.97,3365.0801)"><path
             d="m 0,0 c 0,-13.15 -10.65,-23.81 -23.8,-23.81 -13.15,0 -23.81,10.66 -23.81,23.81 0,13.14 10.66,23.81 23.81,23.81 C -10.65,23.81 0,13.14 0,0"
             style="fill:#100f0d;fill-opacity:1;fill-rule:nonzero;stroke:none"
             id="path110"
             inkscape:connector-curvature="0" /></g><g
           id="g112"
           transform="translate(2253.97,3365.0801)"><path
             d="m 0,0 c 0,-13.15 -10.65,-23.81 -23.8,-23.81 -13.15,0 -23.81,10.66 -23.81,23.81 0,13.14 10.66,23.81 23.81,23.81 C -10.65,23.81 0,13.14 0,0 Z"
             style="fill:none;stroke:#211c1d;stroke-width:10;stroke-linecap:butt;stroke-linejoin:miter;stroke-miterlimit:10;stroke-dasharray:none;stroke-opacity:1"
             id="path114"
             inkscape:connector-curvature="0" /></g><g
           id="g116"
           transform="translate(2785.71,2960.3101)"><path
             d="m 0,0 c 0,-13.14 -10.65,-23.81 -23.81,-23.81 -13.14,0 -23.8,10.67 -23.8,23.81 0,13.15 10.66,23.81 23.8,23.81 C -10.65,23.81 0,13.15 0,0"
             style="fill:#100f0d;fill-opacity:1;fill-rule:nonzero;stroke:none"
             id="path118"
             inkscape:connector-curvature="0" /></g><g
           id="g120"
           transform="translate(2785.71,2960.3101)"><path
             d="m 0,0 c 0,-13.14 -10.65,-23.81 -23.81,-23.81 -13.14,0 -23.8,10.67 -23.8,23.81 0,13.15 10.66,23.81 23.8,23.81 C -10.65,23.81 0,13.15 0,0 Z"
             style="fill:none;stroke:#211c1d;stroke-width:10;stroke-linecap:butt;stroke-linejoin:miter;stroke-miterlimit:10;stroke-dasharray:none;stroke-opacity:1"
             id="path122"
             inkscape:connector-curvature="0" /></g><g
           id="g124"
           transform="translate(3087.3,2476.1899)"><path
             d="M 0,0 V 134.92"
             style="fill:none;stroke:#211c1d;stroke-width:10;stroke-linecap:butt;stroke-linejoin:miter;stroke-miterlimit:10;stroke-dasharray:none;stroke-opacity:1"
             id="path126"
             inkscape:connector-curvature="0" /></g><path
           d="m 484.125,3730.16 h 603.176 v 63.488 H 484.125 Z"
           style="fill:#8f9295;fill-opacity:1;fill-rule:nonzero;stroke:none"
           id="path128"
           inkscape:connector-curvature="0" /><g
           id="g130"
           transform="translate(484.125,3793.6399)"><path
             d="M 0,0 H 603.175"
             style="fill:none;stroke:#100f0d;stroke-width:10;stroke-linecap:butt;stroke-linejoin:miter;stroke-miterlimit:10;stroke-dasharray:none;stroke-opacity:1"
             id="path132"
             inkscape:connector-curvature="0" /></g><g
           id="g134"
           transform="translate(1750.12,3659.76)"><path
             d="M 0,0 V -113.17 H 146.7"
             style="fill:none;stroke:#100f0d;stroke-width:10;stroke-linecap:butt;stroke-linejoin:miter;stroke-miterlimit:10;stroke-dasharray:none;stroke-opacity:1"
             id="path136"
             inkscape:connector-curvature="0" /></g><g
           id="g138"
           transform="translate(2341.27,3071.4199)"><path
             d="M 0,0 V -134.92 H 142.86"
             style="fill:none;stroke:#100f0d;stroke-width:10;stroke-linecap:butt;stroke-linejoin:miter;stroke-miterlimit:10;stroke-dasharray:none;stroke-opacity:1"
             id="path140"
             inkscape:connector-curvature="0" /></g><g
           id="g142"
           transform="translate(3753.5601,2582.25)"><path
             d="M 0,0 101.02,-101.02"
             style="fill:none;stroke:#211c1d;stroke-width:10;stroke-linecap:butt;stroke-linejoin:miter;stroke-miterlimit:10;stroke-dasharray:none;stroke-opacity:1"
             id="path144"
             inkscape:connector-curvature="0" /></g><g
           id="g146"
           transform="translate(3753.5601,2481.23)"><path
             d="M 0,0 101.02,101.02"
             style="fill:none;stroke:#211c1d;stroke-width:10;stroke-linecap:butt;stroke-linejoin:miter;stroke-miterlimit:10;stroke-dasharray:none;stroke-opacity:1"
             id="path148"
             inkscape:connector-curvature="0" /></g><g
           id="g150"
           transform="translate(1863.15,2531.74)"><path
             d="m 0,0 c 0,-21.91 -17.77,-39.68 -39.68,-39.68 -21.92,0 -39.69,17.77 -39.69,39.68 0,21.92 17.77,39.68 39.69,39.68 C -17.77,39.68 0,21.92 0,0 Z"
             style="fill:none;stroke:#211c1d;stroke-width:10;stroke-linecap:butt;stroke-linejoin:miter;stroke-miterlimit:10;stroke-dasharray:none;stroke-opacity:1"
             id="path152"
             inkscape:connector-curvature="0" /></g></g></g><text
       transform="matrix(1,0,0,-1,4.763,379.284)"
       style="font-variant:normal;font-weight:normal;font-size:18px;font-family:MyriadPro;-inkscape-font-specification:MyriadPro-Regular;writing-mode:lr-tb;fill:#100f0d;fill-opacity:1;fill-rule:nonzero;stroke:none"
       id="text158"><tspan
         x="0"
         y="0"
         id="tspan154">9</tspan><tspan
         x="-4.763"
         y="130.159"
         id="tspan156">1</tspan></text>
<text
       transform="matrix(1,0,0,-1,38.889,399.773)"
       style="font-variant:normal;font-weight:normal;font-size:21px;font-family:MyriadPro;-inkscape-font-specification:MyriadPro-Regular;writing-mode:lr-tb;fill:#100f0d;fill-opacity:1;fill-rule:nonzero;stroke:none"
       id="text162"><tspan
         x="0 5.0190001 18.375"
         y="0"
         sodipodi:role="line"
         id="tspan160">| |</tspan></text>
<g
       id="g164"
       transform="scale(0.1)"><g
         id="g166"
         clip-path="url(#clipPath170)"><g
           id="g172"
           transform="translate(510,4035.72)"><path
             d="m 0,0 c 0,-5.52 -4.473,-10 -10,-10 -5.527,0 -10,4.48 -10,10 0,5.52 4.473,10 10,10 C -4.473,10 0,5.52 0,0"
             style="fill:#100f0d;fill-opacity:1;fill-rule:nonzero;stroke:none"
             id="path174"
             inkscape:connector-curvature="0" /></g></g></g><text
       transform="matrix(1,0,0,-1,155.953,338.807)"
       style="font-variant:normal;font-weight:normal;font-size:18px;font-family:MyriadPro;-inkscape-font-specification:MyriadPro-Regular;writing-mode:lr-tb;fill:#100f0d;fill-opacity:1;fill-rule:nonzero;stroke:none"
       id="text180"><tspan
         x="0 5.526"
         y="0"
         sodipodi:role="line"
         id="tspan176">-1</tspan><tspan
         x="-151.19"
         y="37.698002"
         id="tspan178">K</tspan></text>
<text
       transform="matrix(1,0,0,-1,14.519,295.115)"
       style="font-variant:normal;font-weight:normal;font-size:10.49400043px;font-family:MyriadPro;-inkscape-font-specification:MyriadPro-Regular;writing-mode:lr-tb;fill:#100f0d;fill-opacity:1;fill-rule:nonzero;stroke:none"
       id="text184"><tspan
         x="0"
         y="0"
         id="tspan182">p</tspan></text>
<text
       transform="matrix(1,0,0,-1,24.306,301.109)"
       style="font-variant:normal;font-weight:normal;font-size:18px;font-family:MyriadPro;-inkscape-font-specification:MyriadPro-Regular;writing-mode:lr-tb;fill:#100f0d;fill-opacity:1;fill-rule:nonzero;stroke:none"
       id="text208"><tspan
         x="0 7.9559999 17.837999 27.827999 34.956001 40.914001 46.709999 55.386002 59.598 69.515892"
         y="0"
         sodipodi:role="line"
         id="tspan186">constraint</tspan><tspan
         x="192.757 198.283"
         y="20.239"
         sodipodi:role="line"
         id="tspan188">-2</tspan><tspan
         x="143.948 152.62399 163.35201 355.99301"
         y="71.825996"
         sodipodi:role="line"
         id="tspan190">a=1b</tspan><tspan
         x="133.636 142.87 146.59599"
         y="-88.683998"
         sodipodi:role="line"
         id="tspan192">0.5</tspan><tspan
         x="201.092"
         y="-42.542"
         id="tspan194">1</tspan><tspan
         x="251.88499"
         y="-7.1420002"
         id="tspan196">2</tspan><tspan
         x="291.16901"
         y="40.873001"
         id="tspan198">3</tspan><tspan
         x="174.509"
         y="-71.429001"
         id="tspan200">9</tspan><tspan
         x="225.694 234.92799 238.65401"
         y="-29.761999"
         sodipodi:role="line"
         id="tspan202">4.5</tspan><tspan
         x="275.298 284.53201 290.70599"
         y="17.857"
         sodipodi:role="line"
         id="tspan204">9/4</tspan><tspan
         x="368.948 380.57599"
         y="132.937"
         sodipodi:role="line"
         id="tspan206">GK</tspan></text>
<g
       id="g210"
       transform="scale(0.1)"><g
         id="g212"
         clip-path="url(#clipPath216)"><g
           id="g218"
           transform="translate(309.527,3261.8999)"><path
             d="M 0,0 250.895,349.37"
             style="fill:none;stroke:#211c1d;stroke-width:10;stroke-linecap:butt;stroke-linejoin:miter;stroke-miterlimit:10;stroke-dasharray:none;stroke-opacity:1"
             id="path220"
             inkscape:connector-curvature="0" /></g><g
           id="g222"
           transform="translate(574.109,3566.8601)"><path
             d="M 0,0 -20.894,34.37 -60.156,43.2 21.129,92.9 0,0"
             style="fill:#211c1d;fill-opacity:1;fill-rule:nonzero;stroke:none"
             id="path224"
             inkscape:connector-curvature="0" /></g><g
           id="g226"
           transform="translate(2611.1101,1480.16)"><path
             d="M 0,0 344.43,372.81"
             style="fill:none;stroke:#211c1d;stroke-width:10;stroke-linecap:butt;stroke-linejoin:miter;stroke-miterlimit:10;stroke-dasharray:none;stroke-opacity:1"
             id="path228"
             inkscape:connector-curvature="0" /></g><g
           id="g230"
           transform="translate(2963.6699,1807.21)"><path
             d="M 0,0 -16.52,36.69 -54.39,50.26 32.37,89.61 0,0"
             style="fill:#211c1d;fill-opacity:1;fill-rule:nonzero;stroke:none"
             id="path232"
             inkscape:connector-curvature="0" /></g><g
           id="g234"
           transform="translate(3896.8301,1809.52)"><path
             d="M 0,0 -369.19,281.28"
             style="fill:none;stroke:#211c1d;stroke-width:10;stroke-linecap:butt;stroke-linejoin:miter;stroke-miterlimit:10;stroke-dasharray:none;stroke-opacity:1"
             id="path236"
             inkscape:connector-curvature="0" /></g><g
           id="g238"
           transform="translate(3572.4099,2103.23)"><path
             d="M 0,0 -34.95,-19.92 -44.88,-58.91 -92.26,23.75 0,0"
             style="fill:#211c1d;fill-opacity:1;fill-rule:nonzero;stroke:none"
             id="path240"
             inkscape:connector-curvature="0" /></g></g></g><text
       transform="matrix(1,0,0,-1,471.968,252.948)"
       style="font-variant:normal;font-weight:normal;font-size:21px;font-family:MyriadPro;-inkscape-font-specification:MyriadPro-Regular;writing-mode:lr-tb;fill:#100f0d;fill-opacity:1;fill-rule:nonzero;stroke:none"
       id="text244"><tspan
         x="0"
         y="0"
         id="tspan242">ω</tspan></text>
<text
       xml:space="preserve"
       style="font-style:normal;font-weight:normal;font-size:30px;line-height:18.75px;font-family:sans-serif;letter-spacing:0px;word-spacing:0px;fill:#000000;fill-opacity:1;stroke:none;stroke-width:0.75"
       x="243.30507"
       y="-124.58897"
       id="text248"
       transform="scale(1,-1)"><tspan
         sodipodi:role="line"
         id="tspan246"
         x="243.30507"
         y="-124.58897"
         style="stroke-width:0.75">G</tspan></text>
</g></svg>