<?xml version="1.0" encoding="UTF-8" standalone="no"?>
<!-- Created with Inkscape (http://www.inkscape.org/) -->

<svg
   xmlns:dc="http://purl.org/dc/elements/1.1/"
   xmlns:cc="http://creativecommons.org/ns#"
   xmlns:rdf="http://www.w3.org/1999/02/22-rdf-syntax-ns#"
   xmlns:svg="http://www.w3.org/2000/svg"
   xmlns="http://www.w3.org/2000/svg"
   xmlns:sodipodi="http://sodipodi.sourceforge.net/DTD/sodipodi-0.dtd"
   xmlns:inkscape="http://www.inkscape.org/namespaces/inkscape"
   version="1.1"
   id="svg2"
   xml:space="preserve"
   width="667.0816"
   height="542.7735"
   viewBox="0 0 667.0816 542.7735"
   sodipodi:docname="step.svg"
   inkscape:version="0.92.0 r15299"><metadata
     id="metadata8"><rdf:RDF><cc:Work
         rdf:about=""><dc:format>image/svg+xml</dc:format><dc:type
           rdf:resource="http://purl.org/dc/dcmitype/StillImage" /><dc:title></dc:title></cc:Work></rdf:RDF></metadata><defs
     id="defs6"><clipPath
       clipPathUnits="userSpaceOnUse"
       id="clipPath18"><path
         d="M 0,4089.05 V 0 h 5037.04 v 4089.05 z"
         id="path16"
         inkscape:connector-curvature="0" /></clipPath><clipPath
       clipPathUnits="userSpaceOnUse"
       id="clipPath440"><path
         d="M 0,4089.05 V 0 h 5037.04 v 4089.05 z"
         id="path438"
         inkscape:connector-curvature="0" /></clipPath><clipPath
       clipPathUnits="userSpaceOnUse"
       id="clipPath476"><path
         d="M 0,4089.05 V 0 h 5037.04 v 4089.05 z"
         id="path474"
         inkscape:connector-curvature="0" /></clipPath></defs><sodipodi:namedview
     pagecolor="#ffffff"
     bordercolor="#666666"
     borderopacity="1"
     objecttolerance="10"
     gridtolerance="10"
     guidetolerance="10"
     inkscape:pageopacity="0"
     inkscape:pageshadow="2"
     inkscape:window-width="640"
     inkscape:window-height="480"
     id="namedview4"
     showgrid="false"
     fit-margin-top="0"
     fit-margin-left="0"
     fit-margin-right="0"
     fit-margin-bottom="0"
     inkscape:zoom="0.22348485"
     inkscape:cx="325.17119"
     inkscape:cy="525.56687"
     inkscape:window-x="0"
     inkscape:window-y="0"
     inkscape:window-maximized="0"
     inkscape:current-layer="g10" /><g
     id="g10"
     inkscape:groupmode="layer"
     inkscape:label="A9R1d9zmch_1yivlpr_57k"
     transform="matrix(1.3333333,0,0,-1.3333333,-4.5237287,545.2066)"><g
       id="g12"
       transform="scale(0.1)"><g
         id="g14"
         clip-path="url(#clipPath18)"><g
           id="g20"
           transform="translate(870.777,2539.26)"><path
             d="m 0,0 c 0.321,-49.1 -7.636,-96.89 -19.066,-144.61 -5.816,-24.3 -5.367,-50.16 -7.133,-75.36 -4.582,-65.64 -8.656,-131.32 -13.25,-196.97 -4.14,-59.11 -6.918,-118.4 -13.598,-177.23 -6.363,-56.08 -17.574,-111.6 -25.488,-167.52 -3.691,-26.06 -4.824,-52.48 -6.789,-78.75 -4.496,-60.19 -8.496,-120.4 -13.285,-180.57 -2.621,-32.88 -6.449,-65.66 -9.73,-98.5"
             style="fill:none;stroke:#231f20;stroke-width:20;stroke-linecap:round;stroke-linejoin:round;stroke-miterlimit:10;stroke-dasharray:none;stroke-opacity:1"
             id="path22"
             inkscape:connector-curvature="0" /></g><g
           id="g24"
           transform="translate(2348.1201,4072.4099)"><path
             d="m 0,0 c -10.94,1.1 -21.89,3.14 -32.83,3.15 -581.09,0.15 -1162.18,0.14 -1743.27,0.13 0,-337.06 0,-674.12 0,-1014.44 16.332,0 29.503,0 42.683,0"
             style="fill:none;stroke:#231f20;stroke-width:20;stroke-linecap:round;stroke-linejoin:round;stroke-miterlimit:10;stroke-dasharray:none;stroke-opacity:1"
             id="path26"
             inkscape:connector-curvature="0" /></g><g
           id="g28"
           transform="translate(4449.23,2795.3301)"><path
             d="m 0,0 c -9.85,1.1 -19.67,2.76 -29.55,3.19 -77.69,3.45 -155.36,7.35 -233.09,9.77 C -356.73,15.89 -450.9,20 -544.96,18.67 -593.19,17.99 -641.28,6.57 -689.43,0"
             style="fill:none;stroke:#231f20;stroke-width:20;stroke-linecap:round;stroke-linejoin:round;stroke-miterlimit:10;stroke-dasharray:none;stroke-opacity:1"
             id="path30"
             inkscape:connector-curvature="0" /></g><g
           id="g32"
           transform="translate(2965.3201,4069.1299)"><path
             d="m 0,0 c 70.04,0 140.08,0.35 210.11,-0.15 35.03,-0.25 70.04,-2.98 105.06,-2.99 566.86,-0.2 1133.73,-0.14 1700.58,-0.14 13.13,0 26.24,0 45.97,0 0,-38.24 0,-73.3 0,-108.34"
             style="fill:none;stroke:#231f20;stroke-width:20;stroke-linecap:round;stroke-linejoin:round;stroke-miterlimit:10;stroke-dasharray:none;stroke-opacity:1"
             id="path34"
             inkscape:connector-curvature="0" /></g><g
           id="g36"
           transform="translate(5027.04,3931.24)"><path
             d="m 0,0 c 0,-1131.54 0,-2263.07 0,-3394.599 -656.6,0 -1306.63,0 -1956.66,0"
             style="fill:none;stroke:#231f20;stroke-width:20;stroke-linecap:round;stroke-linejoin:round;stroke-miterlimit:10;stroke-dasharray:none;stroke-opacity:1"
             id="path38"
             inkscape:connector-curvature="0" /></g><g
           id="g40"
           transform="translate(575.309,2801.8999)"><path
             d="M 0,0 C -2.196,-14.23 -6.282,-28.46 -6.293,-42.68 -6.641,-434.46 -6.571,-826.22 -6.571,-1218 c 0,-167.43 0,-334.86 0,-502.29 0,-166.34 -0.191,-332.68 0.422,-499.02 0.039,-11.391 -9.156,-28.871 12.711,-32.828"
             style="fill:none;stroke:#231f20;stroke-width:20;stroke-linecap:round;stroke-linejoin:round;stroke-miterlimit:10;stroke-dasharray:none;stroke-opacity:1"
             id="path42"
             inkscape:connector-curvature="0" /></g><g
           id="g44"
           transform="translate(588.438,546.48)"><path
             d="m 0,0 c 10.941,-1.089 21.894,-3.199 32.832,-3.121 131.32,0.86 262.636,2.903 393.95,2.891 136.8,-0.02 273.59,-2.762 410.38,-2.891 402.72,-0.429 805.43,-0.039 1208.14,-0.949 9,-0.019 29.63,14.379 29.55,-12.34"
             style="fill:none;stroke:#231f20;stroke-width:20;stroke-linecap:round;stroke-linejoin:round;stroke-miterlimit:10;stroke-dasharray:none;stroke-opacity:1"
             id="path46"
             inkscape:connector-curvature="0" /></g><g
           id="g48"
           transform="translate(949.566,3281.21)"><path
             d="m 0,0 c -6.57,-62.37 -13.261,-124.74 -19.632,-187.14 -2.571,-25.12 -4.106,-50.36 -6.707,-75.49 -4.086,-39.42 -8.68,-78.8 -13.055,-118.19"
             style="fill:none;stroke:#231f20;stroke-width:20;stroke-linecap:round;stroke-linejoin:round;stroke-miterlimit:10;stroke-dasharray:none;stroke-opacity:1"
             id="path50"
             inkscape:connector-curvature="0" /></g><g
           id="g52"
           transform="translate(755.867,1416.47)"><path
             d="m 0,0 c -7.652,-62.37 -15.863,-124.7 -22.754,-187.16 -3.484,-31.59 -3.929,-63.5 -6.945,-95.16 -4.898,-51.49 -10.785,-102.88 -16.262,-154.31"
             style="fill:none;stroke:#231f20;stroke-width:20;stroke-linecap:round;stroke-linejoin:round;stroke-miterlimit:10;stroke-dasharray:none;stroke-opacity:1"
             id="path54"
             inkscape:connector-curvature="0" /></g><g
           id="g56"
           transform="translate(1011.94,3625.9299)"><path
             d="m 0,0 c -12.038,-79.89 -23.557,-159.86 -36.374,-239.62 -4.961,-30.9 -12.867,-61.32 -19.433,-91.97"
             style="fill:none;stroke:#231f20;stroke-width:20;stroke-linecap:round;stroke-linejoin:round;stroke-miterlimit:10;stroke-dasharray:none;stroke-opacity:1"
             id="path58"
             inkscape:connector-curvature="0" /></g><g
           id="g60"
           transform="translate(3753.24,2792.05)"><path
             d="M 0,0 C -109.28,-9.3 -218.38,-28.91 -328.3,-6.57"
             style="fill:none;stroke:#231f20;stroke-width:20;stroke-linecap:round;stroke-linejoin:round;stroke-miterlimit:10;stroke-dasharray:none;stroke-opacity:1"
             id="path62"
             inkscape:connector-curvature="0" /></g><g
           id="g64"
           transform="translate(3149.1699,2851.1399)"><path
             d="m 0,0 c -40.49,3.28 -81,9.39 -121.47,9.19 -63.47,-0.3 -119.63,-29.48 -177.2,-52.06 -1.7,-0.67 -2.27,-4.19 -3.36,-6.37"
             style="fill:none;stroke:#231f20;stroke-width:20;stroke-linecap:round;stroke-linejoin:round;stroke-miterlimit:10;stroke-dasharray:none;stroke-opacity:1"
             id="path66"
             inkscape:connector-curvature="0" /></g><g
           id="g68"
           transform="translate(1287.71,3297.6299)"><path
             d="m 0,0 c 12.04,-72.23 23.94,-144.48 36.24,-216.66 2.45,-14.37 6.44,-28.47 9.73,-42.7"
             style="fill:none;stroke:#231f20;stroke-width:20;stroke-linecap:round;stroke-linejoin:round;stroke-miterlimit:10;stroke-dasharray:none;stroke-opacity:1"
             id="path70"
             inkscape:connector-curvature="0" /></g><g
           id="g72"
           transform="translate(696.777,933.871)"><path
             d="M 0,0 C -13.132,-83.172 -26.265,-166.332 -39.398,-249.5"
             style="fill:none;stroke:#231f20;stroke-width:20;stroke-linecap:round;stroke-linejoin:round;stroke-miterlimit:10;stroke-dasharray:none;stroke-opacity:1"
             id="path74"
             inkscape:connector-curvature="0" /></g><g
           id="g76"
           transform="translate(572.02,3057.97)"><path
             d="M 0,0 C 0,-83.17 0,-166.34 0,-249.51"
             style="fill:none;stroke:#231f20;stroke-width:20;stroke-linecap:round;stroke-linejoin:round;stroke-miterlimit:10;stroke-dasharray:none;stroke-opacity:1"
             id="path78"
             inkscape:connector-curvature="0" /></g><g
           id="g80"
           transform="translate(877.34,2611.48)"><path
             d="m 0,0 c 2.191,5.47 5.801,10.81 6.348,16.44 4.757,49.21 9.21,98.45 13.058,147.74 0.512,6.54 -2.918,13.39 -5.207,22.95 -18.437,0 -36.016,0 -53.594,0"
             style="fill:none;stroke:#231f20;stroke-width:20;stroke-linecap:round;stroke-linejoin:round;stroke-miterlimit:10;stroke-dasharray:none;stroke-opacity:1"
             id="path82"
             inkscape:connector-curvature="0" /></g><g
           id="g84"
           transform="translate(1340.24,3034.99)"><path
             d="M 0,0 C 13.13,-72.23 26.26,-144.46 39.4,-216.68"
             style="fill:none;stroke:#231f20;stroke-width:20;stroke-linecap:round;stroke-linejoin:round;stroke-miterlimit:10;stroke-dasharray:none;stroke-opacity:1"
             id="path86"
             inkscape:connector-curvature="0" /></g><g
           id="g88"
           transform="translate(1996.84,3008.72)"><path
             d="m 0,0 c -30.64,-42.67 -62.88,-84.33 -91.24,-128.47 -13.82,-21.53 -20.38,-47.71 -30.23,-71.79"
             style="fill:none;stroke:#231f20;stroke-width:20;stroke-linecap:round;stroke-linejoin:round;stroke-miterlimit:10;stroke-dasharray:none;stroke-opacity:1"
             id="path90"
             inkscape:connector-curvature="0" /></g><g
           id="g92"
           transform="translate(1235.1899,3547.1399)"><path
             d="M 0,0 C 13.13,-70.04 26.26,-140.08 39.39,-210.12"
             style="fill:none;stroke:#231f20;stroke-width:20;stroke-linecap:round;stroke-linejoin:round;stroke-miterlimit:10;stroke-dasharray:none;stroke-opacity:1"
             id="path94"
             inkscape:connector-curvature="0" /></g><g
           id="g96"
           transform="translate(1753.9,2542.54)"><path
             d="M 0,0 C -14.23,-32.83 -26.76,-66.54 -43.16,-98.25 -59.59,-130 -79.89,-159.77 -98.49,-190.41"
             style="fill:none;stroke:#231f20;stroke-width:20;stroke-linecap:round;stroke-linejoin:round;stroke-miterlimit:10;stroke-dasharray:none;stroke-opacity:1"
             id="path98"
             inkscape:connector-curvature="0" /></g><g
           id="g100"
           transform="translate(1438.73,2604.9099)"><path
             d="m 0,0 c 14.94,-54.07 22.29,-110.44 49.06,-160.96 2.5,-4.72 2.38,-10.85 3.47,-16.32"
             style="fill:none;stroke:#231f20;stroke-width:20;stroke-linecap:round;stroke-linejoin:round;stroke-miterlimit:10;stroke-dasharray:none;stroke-opacity:1"
             id="path102"
             inkscape:connector-curvature="0" /></g><g
           id="g104"
           transform="translate(1497.83,2424.3501)"><path
             d="m 0,0 c 12.82,-40.68 34.73,-75.69 70.97,-101.73 -1.42,-3.48 -2.83,-6.96 -4.25,-10.44 19.34,4.57 38.69,9.13 58.03,13.68"
             style="fill:none;stroke:#231f20;stroke-width:20;stroke-linecap:round;stroke-linejoin:round;stroke-miterlimit:10;stroke-dasharray:none;stroke-opacity:1"
             id="path106"
             inkscape:connector-curvature="0" /></g><g
           id="g108"
           transform="translate(1176.09,3737.55)"><path
             d="m 0,0 c -7.66,17.51 -17.75,34.39 -22.44,52.67 -8.22,32 -27.52,47.58 -62.86,49.26 -4.07,-9.18 -8.63,-19.44 -13.19,-29.71"
             style="fill:none;stroke:#231f20;stroke-width:20;stroke-linecap:round;stroke-linejoin:round;stroke-miterlimit:10;stroke-dasharray:none;stroke-opacity:1"
             id="path110"
             inkscape:connector-curvature="0" /></g><g
           id="g112"
           transform="translate(1064.47,3790.0701)"><path
             d="M 0,0 C -28.92,-49.73 -34.07,-106.27 -45.96,-160.86"
             style="fill:none;stroke:#231f20;stroke-width:20;stroke-linecap:round;stroke-linejoin:round;stroke-miterlimit:10;stroke-dasharray:none;stroke-opacity:1"
             id="path114"
             inkscape:connector-curvature="0" /></g><g
           id="g116"
           transform="translate(4738.1299,2798.6101)"><path
             d="M 0,0 C -54.71,-1.09 -109.43,-2.18 -164.15,-3.28"
             style="fill:none;stroke:#231f20;stroke-width:20;stroke-linecap:round;stroke-linejoin:round;stroke-miterlimit:10;stroke-dasharray:none;stroke-opacity:1"
             id="path118"
             inkscape:connector-curvature="0" /></g><g
           id="g120"
           transform="translate(3310.04,2805.1799)"><path
             d="m 0,0 c -21.89,7.66 -43.34,17.14 -65.77,22.53 -30.21,7.27 -61.17,11.39 -91.82,16.86"
             style="fill:none;stroke:#231f20;stroke-width:20;stroke-linecap:round;stroke-linejoin:round;stroke-miterlimit:10;stroke-dasharray:none;stroke-opacity:1"
             id="path122"
             inkscape:connector-curvature="0" /></g><g
           id="g124"
           transform="translate(2160.99,3015.29)"><path
             d="M 0,0 C -52.53,33.6 -105.06,41.23 -157.58,0"
             style="fill:none;stroke:#231f20;stroke-width:20;stroke-linecap:round;stroke-linejoin:round;stroke-miterlimit:10;stroke-dasharray:none;stroke-opacity:1"
             id="path126"
             inkscape:connector-curvature="0" /></g><g
           id="g128"
           transform="translate(2233.21,2943.0601)"><path
             d="m 0,0 c 29.55,-32.82 58.96,-65.78 88.77,-98.38 5.72,-6.24 14.56,-10 19.19,-16.78 5.96,-8.77 9.14,-19.44 13.52,-29.29"
             style="fill:none;stroke:#231f20;stroke-width:20;stroke-linecap:round;stroke-linejoin:round;stroke-miterlimit:10;stroke-dasharray:none;stroke-opacity:1"
             id="path130"
             inkscape:connector-curvature="0" /></g><g
           id="g132"
           transform="translate(2669.8501,2716.54)"><path
             d="M 0,0 C -46.46,-18.24 -94.33,-27.68 -144.45,-22.98"
             style="fill:none;stroke:#231f20;stroke-width:20;stroke-linecap:round;stroke-linejoin:round;stroke-miterlimit:10;stroke-dasharray:none;stroke-opacity:1"
             id="path134"
             inkscape:connector-curvature="0" /></g><g
           id="g136"
           transform="translate(1392.77,2785.48)"><path
             d="M 0,0 C 9.85,-49.24 19.7,-98.49 29.54,-147.73"
             style="fill:none;stroke:#231f20;stroke-width:20;stroke-linecap:round;stroke-linejoin:round;stroke-miterlimit:10;stroke-dasharray:none;stroke-opacity:1"
             id="path138"
             inkscape:connector-curvature="0" /></g><g
           id="g140"
           transform="translate(3418.3701,2788.76)"><path
             d="m 0,0 c -37.21,2.19 -74.41,4.47 -111.62,6.5 -8.73,0.47 -17.51,0.07 -26.26,0.07"
             style="fill:none;stroke:#231f20;stroke-width:20;stroke-linecap:round;stroke-linejoin:round;stroke-miterlimit:10;stroke-dasharray:none;stroke-opacity:1"
             id="path142"
             inkscape:connector-curvature="0" /></g><g
           id="g144"
           transform="translate(1192.51,3708)"><path
             d="m 0,0 c 6.56,-33.93 12.86,-67.91 19.85,-101.74 2.3,-11.15 6.41,-21.92 9.7,-32.87"
             style="fill:none;stroke:#231f20;stroke-width:20;stroke-linecap:round;stroke-linejoin:round;stroke-miterlimit:10;stroke-dasharray:none;stroke-opacity:1"
             id="path146"
             inkscape:connector-curvature="0" /></g><g
           id="g148"
           transform="translate(1812.99,2677.1399)"><path
             d="M 0,0 C -15.32,-40.49 -30.64,-80.98 -45.96,-121.47"
             style="fill:none;stroke:#231f20;stroke-width:20;stroke-linecap:round;stroke-linejoin:round;stroke-miterlimit:10;stroke-dasharray:none;stroke-opacity:1"
             id="path150"
             inkscape:connector-curvature="0" /></g><g
           id="g152"
           transform="translate(644.246,671.238)"><path
             d="m 0,0 c -7.66,-28.457 -13.426,-57.636 -23.914,-85 -4.18,-10.929 -18.766,-17.867 -28.613,-26.617"
             style="fill:none;stroke:#231f20;stroke-width:20;stroke-linecap:round;stroke-linejoin:round;stroke-miterlimit:10;stroke-dasharray:none;stroke-opacity:1"
             id="path154"
             inkscape:connector-curvature="0" /></g><g
           id="g156"
           transform="translate(1858.96,2785.48)"><path
             d="M 0,0 C -13.14,-35.01 -26.27,-70.04 -39.4,-105.05"
             style="fill:none;stroke:#231f20;stroke-width:20;stroke-linecap:round;stroke-linejoin:round;stroke-miterlimit:10;stroke-dasharray:none;stroke-opacity:1"
             id="path158"
             inkscape:connector-curvature="0" /></g><g
           id="g160"
           transform="translate(2666.5701,543.199)"><path
             d="M 0,0 C 33.93,-1.09 67.84,-2.187 101.77,-3.277"
             style="fill:none;stroke:#231f20;stroke-width:20;stroke-linecap:round;stroke-linejoin:round;stroke-miterlimit:10;stroke-dasharray:none;stroke-opacity:1"
             id="path162"
             inkscape:connector-curvature="0" /></g><g
           id="g164"
           transform="translate(906.891,2893.8201)"><path
             d="M 0,0 C -4.379,-30.64 -8.762,-61.28 -13.137,-91.92"
             style="fill:none;stroke:#231f20;stroke-width:20;stroke-linecap:round;stroke-linejoin:round;stroke-miterlimit:10;stroke-dasharray:none;stroke-opacity:1"
             id="path166"
             inkscape:connector-curvature="0" /></g><g
           id="g168"
           transform="translate(2522.1201,2700.1201)"><path
             d="M 0,0 C -30.65,13.13 -61.28,26.27 -91.92,39.4"
             style="fill:none;stroke:#231f20;stroke-width:20;stroke-linecap:round;stroke-linejoin:round;stroke-miterlimit:10;stroke-dasharray:none;stroke-opacity:1"
             id="path170"
             inkscape:connector-curvature="0" /></g><g
           id="g172"
           transform="translate(4455.7998,2792.05)"><path
             d="M 0,0 C 37.21,0 74.41,0 111.62,0"
             style="fill:none;stroke:#231f20;stroke-width:20;stroke-linecap:round;stroke-linejoin:round;stroke-miterlimit:10;stroke-dasharray:none;stroke-opacity:1"
             id="path174"
             inkscape:connector-curvature="0" /></g><g
           id="g176"
           transform="translate(2459.74,4062.5701)"><path
             d="M 0,0 C -4.38,4.37 -8.74,12.5 -13.13,12.52 -41.58,12.61 -70.04,10.94 -98.49,9.84"
             style="fill:none;stroke:#231f20;stroke-width:20;stroke-linecap:round;stroke-linejoin:round;stroke-miterlimit:10;stroke-dasharray:none;stroke-opacity:1"
             id="path178"
             inkscape:connector-curvature="0" /></g><g
           id="g180"
           transform="translate(2742.0801,2798.6101)"><path
             d="M 0,0 C 50.34,0 100.67,0 151.02,0"
             style="fill:none;stroke:#231f20;stroke-width:20;stroke-linecap:round;stroke-linejoin:round;stroke-miterlimit:10;stroke-dasharray:none;stroke-opacity:1"
             id="path182"
             inkscape:connector-curvature="0" /></g><g
           id="g184"
           transform="translate(2167.55,3008.72)"><path
             d="M 0,0 C 19.7,-19.69 39.4,-39.39 59.1,-59.09"
             style="fill:none;stroke:#231f20;stroke-width:20;stroke-linecap:round;stroke-linejoin:round;stroke-miterlimit:10;stroke-dasharray:none;stroke-opacity:1"
             id="path186"
             inkscape:connector-curvature="0" /></g><g
           id="g188"
           transform="translate(2797.8899,2782.2)"><path
             d="M 0,0 C -19.7,-9.85 -39.39,-19.7 -59.09,-29.55"
             style="fill:none;stroke:#231f20;stroke-width:20;stroke-linecap:round;stroke-linejoin:round;stroke-miterlimit:10;stroke-dasharray:none;stroke-opacity:1"
             id="path190"
             inkscape:connector-curvature="0" /></g><g
           id="g192"
           transform="translate(2377.6699,2785.48)"><path
             d="M 0,0 C 15.31,-13.13 30.64,-26.26 45.96,-39.39"
             style="fill:none;stroke:#231f20;stroke-width:20;stroke-linecap:round;stroke-linejoin:round;stroke-miterlimit:10;stroke-dasharray:none;stroke-opacity:1"
             id="path194"
             inkscape:connector-curvature="0" /></g><g
           id="g196"
           transform="translate(2426.9099,2798.6101)"><path
             d="M 0,0 C -21.88,1.1 -43.78,2.19 -65.66,3.29"
             style="fill:none;stroke:#231f20;stroke-width:20;stroke-linecap:round;stroke-linejoin:round;stroke-miterlimit:10;stroke-dasharray:none;stroke-opacity:1"
             id="path198"
             inkscape:connector-curvature="0" /></g><g
           id="g200"
           transform="translate(877.34,2598.3501)"><path
             d="M 0,0 C -2.188,-15.32 -4.375,-30.64 -6.563,-45.96"
             style="fill:none;stroke:#231f20;stroke-width:20;stroke-linecap:round;stroke-linejoin:round;stroke-miterlimit:10;stroke-dasharray:none;stroke-opacity:1"
             id="path202"
             inkscape:connector-curvature="0" /></g><g
           id="g204"
           transform="translate(3687.5801,4059.28)"><path
             d="M 0,0 C 0,-16.41 0,-32.83 0,-49.24"
             style="fill:none;stroke:#231f20;stroke-width:20;stroke-linecap:round;stroke-linejoin:round;stroke-miterlimit:10;stroke-dasharray:none;stroke-opacity:1"
             id="path206"
             inkscape:connector-curvature="0" /></g><g
           id="g208"
           transform="translate(4580.5601,4059.28)"><path
             d="M 0,0 C 0,-16.41 0,-32.83 0,-49.24"
             style="fill:none;stroke:#231f20;stroke-width:20;stroke-linecap:round;stroke-linejoin:round;stroke-miterlimit:10;stroke-dasharray:none;stroke-opacity:1"
             id="path210"
             inkscape:connector-curvature="0" /></g><g
           id="g212"
           transform="translate(3687.5801,589.16)"><path
             d="M 0,0 C -1.1,-16.422 -2.19,-32.82 -3.28,-49.238"
             style="fill:none;stroke:#231f20;stroke-width:20;stroke-linecap:round;stroke-linejoin:round;stroke-miterlimit:10;stroke-dasharray:none;stroke-opacity:1"
             id="path214"
             inkscape:connector-curvature="0" /></g><g
           id="g216"
           transform="translate(1008.66,595.73)"><path
             d="M 0,0 C 1.09,-15.32 2.19,-30.64 3.28,-45.968"
             style="fill:none;stroke:#231f20;stroke-width:20;stroke-linecap:round;stroke-linejoin:round;stroke-miterlimit:10;stroke-dasharray:none;stroke-opacity:1"
             id="path218"
             inkscape:connector-curvature="0" /></g><g
           id="g220"
           transform="translate(1904.92,4069.1299)"><path
             d="M 0,0 C -1.1,-15.32 -2.2,-30.65 -3.29,-45.96"
             style="fill:none;stroke:#231f20;stroke-width:20;stroke-linecap:round;stroke-linejoin:round;stroke-miterlimit:10;stroke-dasharray:none;stroke-opacity:1"
             id="path222"
             inkscape:connector-curvature="0" /></g><g
           id="g224"
           transform="translate(2794.6101,589.16)"><path
             d="M 0,0 C 0,-15.32 0,-30.648 0,-45.961"
             style="fill:none;stroke:#231f20;stroke-width:20;stroke-linecap:round;stroke-linejoin:round;stroke-miterlimit:10;stroke-dasharray:none;stroke-opacity:1"
             id="path226"
             inkscape:connector-curvature="0" /></g><g
           id="g228"
           transform="translate(1901.63,589.16)"><path
             d="M 0,0 C 0,-14.23 0,-28.449 0,-42.68"
             style="fill:none;stroke:#231f20;stroke-width:20;stroke-linecap:round;stroke-linejoin:round;stroke-miterlimit:10;stroke-dasharray:none;stroke-opacity:1"
             id="path230"
             inkscape:connector-curvature="0" /></g><g
           id="g232"
           transform="translate(2354.6899,589.16)"><path
             d="M 0,0 C 0,-14.23 0,-28.449 0,-42.68"
             style="fill:none;stroke:#231f20;stroke-width:20;stroke-linecap:round;stroke-linejoin:round;stroke-miterlimit:10;stroke-dasharray:none;stroke-opacity:1"
             id="path234"
             inkscape:connector-curvature="0" /></g><g
           id="g236"
           transform="translate(2725.6599,2739.52)"><path
             d="M 0,0 C -14.22,-5.47 -28.44,-10.95 -42.67,-16.42"
             style="fill:none;stroke:#231f20;stroke-width:20;stroke-linecap:round;stroke-linejoin:round;stroke-miterlimit:10;stroke-dasharray:none;stroke-opacity:1"
             id="path238"
             inkscape:connector-curvature="0" /></g><g
           id="g240"
           transform="translate(575.309,2558.95)"><path
             d="M 0,0 C 13.129,0 26.257,0 39.394,0"
             style="fill:none;stroke:#231f20;stroke-width:20;stroke-linecap:round;stroke-linejoin:round;stroke-miterlimit:10;stroke-dasharray:none;stroke-opacity:1"
             id="path242"
             inkscape:connector-curvature="0" /></g><g
           id="g244"
           transform="translate(4580.5601,576.031)"><path
             d="M 0,0 C 0,-13.133 0,-26.269 0,-39.39"
             style="fill:none;stroke:#231f20;stroke-width:20;stroke-linecap:round;stroke-linejoin:round;stroke-miterlimit:10;stroke-dasharray:none;stroke-opacity:1"
             id="path246"
             inkscape:connector-curvature="0" /></g><g
           id="g248"
           transform="translate(1461.71,589.16)"><path
             d="M 0,0 C -1.09,-13.129 -2.19,-26.262 -3.28,-39.398"
             style="fill:none;stroke:#231f20;stroke-width:20;stroke-linecap:round;stroke-linejoin:round;stroke-miterlimit:10;stroke-dasharray:none;stroke-opacity:1"
             id="path250"
             inkscape:connector-curvature="0" /></g><g
           id="g252"
           transform="translate(703.34,976.551)"><path
             d="M 0,0 C 0,-13.129 0,-26.262 0,-39.391"
             style="fill:none;stroke:#231f20;stroke-width:20;stroke-linecap:round;stroke-linejoin:round;stroke-miterlimit:10;stroke-dasharray:none;stroke-opacity:1"
             id="path254"
             inkscape:connector-curvature="0" /></g><g
           id="g256"
           transform="translate(614.703,1045.5)"><path
             d="M 0,0 C -13.137,0 -26.265,0 -39.394,0"
             style="fill:none;stroke:#231f20;stroke-width:20;stroke-linecap:round;stroke-linejoin:round;stroke-miterlimit:10;stroke-dasharray:none;stroke-opacity:1"
             id="path258"
             inkscape:connector-curvature="0" /></g><g
           id="g260"
           transform="translate(614.703,1554.36)"><path
             d="M 0,0 C -13.137,-1.1 -26.265,-2.19 -39.394,-3.28"
             style="fill:none;stroke:#231f20;stroke-width:20;stroke-linecap:round;stroke-linejoin:round;stroke-miterlimit:10;stroke-dasharray:none;stroke-opacity:1"
             id="path262"
             inkscape:connector-curvature="0" /></g><g
           id="g264"
           transform="translate(614.703,3566.8301)"><path
             d="M 0,0 C -13.137,0 -26.265,0 -39.394,0"
             style="fill:none;stroke:#231f20;stroke-width:20;stroke-linecap:round;stroke-linejoin:round;stroke-miterlimit:10;stroke-dasharray:none;stroke-opacity:1"
             id="path266"
             inkscape:connector-curvature="0" /></g><g
           id="g268"
           transform="translate(575.309,2053.3799)"><path
             d="M 0,0 C 13.129,0 26.257,0 39.394,0"
             style="fill:none;stroke:#231f20;stroke-width:20;stroke-linecap:round;stroke-linejoin:round;stroke-miterlimit:10;stroke-dasharray:none;stroke-opacity:1"
             id="path270"
             inkscape:connector-curvature="0" /></g><g
           id="g272"
           transform="translate(3247.6599,576.031)"><path
             d="M 0,0 C -1.1,-12.043 -2.19,-24.082 -3.28,-36.109"
             style="fill:none;stroke:#231f20;stroke-width:20;stroke-linecap:round;stroke-linejoin:round;stroke-miterlimit:10;stroke-dasharray:none;stroke-opacity:1"
             id="path274"
             inkscape:connector-curvature="0" /></g><g
           id="g276"
           transform="translate(1881.9301,2798.6101)"><path
             d="M 0,0 C 19.7,0 39.4,0 59.1,0"
             style="fill:none;stroke:#231f20;stroke-width:20;stroke-linecap:round;stroke-linejoin:round;stroke-miterlimit:10;stroke-dasharray:none;stroke-opacity:1"
             id="path278"
             inkscape:connector-curvature="0" /></g><g
           id="g280"
           transform="translate(4130.7798,576.031)"><path
             d="M 0,0 C 0,-12.043 0,-24.082 0,-36.109"
             style="fill:none;stroke:#231f20;stroke-width:20;stroke-linecap:round;stroke-linejoin:round;stroke-miterlimit:10;stroke-dasharray:none;stroke-opacity:1"
             id="path282"
             inkscape:connector-curvature="0" /></g><g
           id="g284"
           transform="translate(4140.6299,4059.28)"><path
             d="M 0,0 C 0,-12.04 0,-24.08 0,-36.11"
             style="fill:none;stroke:#231f20;stroke-width:20;stroke-linecap:round;stroke-linejoin:round;stroke-miterlimit:10;stroke-dasharray:none;stroke-opacity:1"
             id="path286"
             inkscape:connector-curvature="0" /></g><g
           id="g288"
           transform="translate(1461.71,4069.1299)"><path
             d="M 0,0 C 0,-10.94 0,-21.89 0,-32.83"
             style="fill:none;stroke:#231f20;stroke-width:20;stroke-linecap:round;stroke-linejoin:round;stroke-miterlimit:10;stroke-dasharray:none;stroke-opacity:1"
             id="path290"
             inkscape:connector-curvature="0" /></g><g
           id="g292"
           transform="translate(2354.6899,4069.1299)"><path
             d="M 0,0 C 0,-10.94 0,-21.89 0,-32.83"
             style="fill:none;stroke:#231f20;stroke-width:20;stroke-linecap:round;stroke-linejoin:round;stroke-miterlimit:10;stroke-dasharray:none;stroke-opacity:1"
             id="path294"
             inkscape:connector-curvature="0" /></g><g
           id="g296"
           transform="translate(5020.4702,3556.98)"><path
             d="M 0,0 C -10.94,0 -21.89,0 -32.82,0"
             style="fill:none;stroke:#231f20;stroke-width:20;stroke-linecap:round;stroke-linejoin:round;stroke-miterlimit:10;stroke-dasharray:none;stroke-opacity:1"
             id="path298"
             inkscape:connector-curvature="0" /></g><g
           id="g300"
           transform="translate(5017.1899,2549.1001)"><path
             d="M 0,0 C -9.85,1.1 -19.7,2.19 -29.54,3.29"
             style="fill:none;stroke:#231f20;stroke-width:20;stroke-linecap:round;stroke-linejoin:round;stroke-miterlimit:10;stroke-dasharray:none;stroke-opacity:1"
             id="path302"
             inkscape:connector-curvature="0" /></g><g
           id="g304"
           transform="translate(3247.6599,4059.28)"><path
             d="M 0,0 C 0,-9.85 0,-19.7 0,-29.55"
             style="fill:none;stroke:#231f20;stroke-width:20;stroke-linecap:round;stroke-linejoin:round;stroke-miterlimit:10;stroke-dasharray:none;stroke-opacity:1"
             id="path306"
             inkscape:connector-curvature="0" /></g><g
           id="g308"
           transform="translate(5017.1899,1035.65)"><path
             d="M 0,0 C -9.85,0 -19.7,0 -29.54,0"
             style="fill:none;stroke:#231f20;stroke-width:20;stroke-linecap:round;stroke-linejoin:round;stroke-miterlimit:10;stroke-dasharray:none;stroke-opacity:1"
             id="path310"
             inkscape:connector-curvature="0" /></g><g
           id="g312"
           transform="translate(5017.1899,3051.3999)"><path
             d="M 0,0 C -9.85,0 -19.7,0 -29.54,0"
             style="fill:none;stroke:#231f20;stroke-width:20;stroke-linecap:round;stroke-linejoin:round;stroke-miterlimit:10;stroke-dasharray:none;stroke-opacity:1"
             id="path314"
             inkscape:connector-curvature="0" /></g><g
           id="g316"
           transform="translate(4990.9302,2043.52)"><path
             d="M 0,0 C 8.75,0 17.51,0 26.26,0"
             style="fill:none;stroke:#231f20;stroke-width:20;stroke-linecap:round;stroke-linejoin:round;stroke-miterlimit:10;stroke-dasharray:none;stroke-opacity:1"
             id="path318"
             inkscape:connector-curvature="0" /></g><g
           id="g320"
           transform="translate(1008.66,4069.1299)"><path
             d="M 0,0 C 1.09,-7.66 2.19,-15.32 3.28,-22.98"
             style="fill:none;stroke:#231f20;stroke-width:20;stroke-linecap:round;stroke-linejoin:round;stroke-miterlimit:10;stroke-dasharray:none;stroke-opacity:1"
             id="path322"
             inkscape:connector-curvature="0" /></g><g
           id="g324"
           transform="translate(2768.3401,530.07)"><path
             d="M 0,0 C 7.15,27.231 26.98,3.719 39.39,9.852"
             style="fill:none;stroke:#231f20;stroke-width:20;stroke-linecap:round;stroke-linejoin:round;stroke-miterlimit:10;stroke-dasharray:none;stroke-opacity:1"
             id="path326"
             inkscape:connector-curvature="0" /></g><g
           id="g328"
           transform="translate(1648.84,2345.5601)"><path
             d="M 0,0 C -6.56,-4.38 -13.13,-8.75 -19.69,-13.13"
             style="fill:none;stroke:#231f20;stroke-width:20;stroke-linecap:round;stroke-linejoin:round;stroke-miterlimit:10;stroke-dasharray:none;stroke-opacity:1"
             id="path330"
             inkscape:connector-curvature="0" /></g><g
           id="g332"
           transform="translate(1428.88,2624.6201)"><path
             d="M 0,0 C 1.1,-5.48 2.19,-10.95 3.29,-16.42"
             style="fill:none;stroke:#231f20;stroke-width:20;stroke-linecap:round;stroke-linejoin:round;stroke-miterlimit:10;stroke-dasharray:none;stroke-opacity:1"
             id="path334"
             inkscape:connector-curvature="0" /></g><g
           id="g336"
           transform="translate(1182.66,3730.98)"><path
             d="M 0,0 C 1.09,-3.28 2.19,-6.56 3.28,-9.84"
             style="fill:none;stroke:#231f20;stroke-width:20;stroke-linecap:round;stroke-linejoin:round;stroke-miterlimit:10;stroke-dasharray:none;stroke-opacity:1"
             id="path338"
             inkscape:connector-curvature="0" /></g><g
           id="g340"
           transform="translate(1223.84,3577.6101)"><path
             d="M 0,0 C 9.07,-3.71 12.37,-10.48 10,-20"
             style="fill:none;stroke:#231f20;stroke-width:20;stroke-linecap:round;stroke-linejoin:round;stroke-miterlimit:10;stroke-dasharray:none;stroke-opacity:1"
             id="path342"
             inkscape:connector-curvature="0" /></g><g
           id="g344"
           transform="translate(1283.84,3302.6101)"><path
             d="M 0,0 C 3.74,14.43 0.97,27.36 -10,35"
             style="fill:none;stroke:#231f20;stroke-width:20;stroke-linecap:round;stroke-linejoin:round;stroke-miterlimit:10;stroke-dasharray:none;stroke-opacity:1"
             id="path346"
             inkscape:connector-curvature="0" /></g><g
           id="g348"
           transform="translate(1378.84,2812.6101)"><path
             d="M 0,0 C 2.28,-7.81 6.04,-15.44 10,-20"
             style="fill:#ffffff;fill-opacity:1;fill-rule:evenodd;stroke:none"
             id="path350"
             inkscape:connector-curvature="0" /></g><g
           id="g352"
           transform="translate(1378.84,2812.6101)"><path
             d="M 0,0 C 2.28,-7.81 6.04,-15.44 10,-20"
             style="fill:none;stroke:#ffffff;stroke-width:20;stroke-linecap:round;stroke-linejoin:round;stroke-miterlimit:10;stroke-dasharray:none;stroke-opacity:1"
             id="path354"
             inkscape:connector-curvature="0" /></g><g
           id="g356"
           transform="translate(1378.84,2837.6101)"><path
             d="M 0,0 C 0.59,-20.04 5.27,-37.48 15,-55"
             style="fill:none;stroke:#231f20;stroke-width:20;stroke-linecap:round;stroke-linejoin:round;stroke-miterlimit:10;stroke-dasharray:none;stroke-opacity:1"
             id="path358"
             inkscape:connector-curvature="0" /></g><g
           id="g360"
           transform="translate(1058.84,3797.6101)"><path
             d="M 0,0 C 6.71,11.81 14.7,21.28 25,30"
             style="fill:none;stroke:#231f20;stroke-width:20;stroke-linecap:round;stroke-linejoin:round;stroke-miterlimit:10;stroke-dasharray:none;stroke-opacity:1"
             id="path362"
             inkscape:connector-curvature="0" /></g><g
           id="g364"
           transform="translate(868.84,2812.6101)"><path
             d="m 0,0 c -7,1.56 -16.031,0 -23.25,0.24 14.902,-13.99 7.012,-17.75 12.512,-34.46 -3.407,-0.23 -10.715,0.68 -13.411,0.11 -2.753,8.12 -7.089,11.85 -10.851,19.11"
             style="fill:none;stroke:#ffffff;stroke-width:20;stroke-linecap:round;stroke-linejoin:round;stroke-miterlimit:10;stroke-dasharray:none;stroke-opacity:1"
             id="path366"
             inkscape:connector-curvature="0" /></g><g
           id="g368"
           transform="translate(1893.84,2802.6101)"><path
             d="M 0,0 C 12.97,8.03 32.18,9.86 45.71,5 35.92,-0.25 19.33,-2.3 5,0"
             style="fill:none;stroke:#ffffff;stroke-width:20;stroke-linecap:round;stroke-linejoin:round;stroke-miterlimit:10;stroke-dasharray:none;stroke-opacity:1"
             id="path370"
             inkscape:connector-curvature="0" /></g><g
           id="g372"
           transform="translate(878.84,2797.6101)"><path
             d="M 0,0 C 0,3.34 0,6.67 0,10"
             style="fill:none;stroke:#ffffff;stroke-width:20;stroke-linecap:round;stroke-linejoin:round;stroke-miterlimit:10;stroke-dasharray:none;stroke-opacity:1"
             id="path374"
             inkscape:connector-curvature="0" /></g><g
           id="g376"
           transform="translate(1943.84,2802.6101)"><path
             d="M 0,0 C -8.85,-12.87 -29.07,-12.54 -50,-10"
             style="fill:none;stroke:#ffffff;stroke-width:20;stroke-linecap:round;stroke-linejoin:round;stroke-miterlimit:10;stroke-dasharray:none;stroke-opacity:1"
             id="path378"
             inkscape:connector-curvature="0" /></g><g
           id="g380"
           transform="translate(2378.8401,2812.6101)"><path
             d="M 0,0 C 16.82,1.15 29.13,2.25 39.48,-9 32.97,-10.35 26.46,-8.8 20,-10"
             style="fill:none;stroke:#ffffff;stroke-width:20;stroke-linecap:round;stroke-linejoin:round;stroke-miterlimit:10;stroke-dasharray:none;stroke-opacity:1"
             id="path382"
             inkscape:connector-curvature="0" /></g><g
           id="g384"
           transform="translate(2793.8401,2807.6101)"><path
             d="M 0,0 C -21.55,6.64 -45.96,4.86 -70,5"
             style="fill:none;stroke:#ffffff;stroke-width:20;stroke-linecap:round;stroke-linejoin:round;stroke-miterlimit:10;stroke-dasharray:none;stroke-opacity:1"
             id="path386"
             inkscape:connector-curvature="0" /></g><g
           id="g388"
           transform="translate(2393.8401,2797.6101)"><path
             d="M 0,0 C 18.33,0 36.66,0 55,0"
             style="fill:none;stroke:#ffffff;stroke-width:20;stroke-linecap:round;stroke-linejoin:round;stroke-miterlimit:10;stroke-dasharray:none;stroke-opacity:1"
             id="path390"
             inkscape:connector-curvature="0" /></g><g
           id="g392"
           transform="translate(2778.8401,2797.6101)"><path
             d="M 0,0 C -15,0 -30,0 -45,0"
             style="fill:none;stroke:#ffffff;stroke-width:20;stroke-linecap:round;stroke-linejoin:round;stroke-miterlimit:10;stroke-dasharray:none;stroke-opacity:1"
             id="path394"
             inkscape:connector-curvature="0" /></g><g
           id="g396"
           transform="translate(2903.8401,2787.6101)"><path
             d="M 0,0 C -20,0 -40,0 -60,0"
             style="fill:none;stroke:#ffffff;stroke-width:20;stroke-linecap:round;stroke-linejoin:round;stroke-miterlimit:10;stroke-dasharray:none;stroke-opacity:1"
             id="path398"
             inkscape:connector-curvature="0" /></g><g
           id="g400"
           transform="translate(2898.8401,2802.6101)"><path
             d="M 0,0 C -5.13,4.56 -9.52,7.99 -19.15,4.15 -18.52,-2.99 -23.01,-1.72 -25,-5"
             style="fill:none;stroke:#ffffff;stroke-width:20;stroke-linecap:round;stroke-linejoin:round;stroke-miterlimit:10;stroke-dasharray:none;stroke-opacity:1"
             id="path402"
             inkscape:connector-curvature="0" /></g><g
           id="g404"
           transform="translate(575.309,2801.8999)"><path
             d="M 0,0 H 4451.731"
             style="fill:none;stroke:#231f20;stroke-width:15;stroke-linecap:round;stroke-linejoin:round;stroke-miterlimit:10;stroke-dasharray:100, 50;stroke-dashoffset:0;stroke-opacity:1"
             id="path406"
             inkscape:connector-curvature="0" /></g></g></g><text
       transform="matrix(1,0,0,-1,27.53,99.37)"
       style="font-variant:normal;font-weight:normal;font-size:18px;font-family:MyriadPro;-inkscape-font-specification:MyriadPro-Regular;writing-mode:lr-tb;fill:#100f0d;fill-opacity:1;fill-rule:nonzero;stroke:none"
       id="text420"><tspan
         x="0 9.2340002 12.96"
         y="0"
         sodipodi:role="line"
         id="tspan408">0.2</tspan><tspan
         x="0 9.2340002 12.96"
         y="-50.581001"
         sodipodi:role="line"
         id="tspan410">0.4</tspan><tspan
         x="0 9.2340002 12.96"
         y="-100.26"
         sodipodi:role="line"
         id="tspan412">0.6</tspan><tspan
         x="1.571 10.805 14.531"
         y="-150.43401"
         sodipodi:role="line"
         id="tspan414">0.8</tspan><tspan
         x="1 10.234 13.96"
         y="-199.74001"
         sodipodi:role="line"
         id="tspan416">1.0</tspan><tspan
         x="1 10.234 13.96"
         y="-251.408"
         sodipodi:role="line"
         id="tspan418">1.2</tspan></text>
<text
       transform="matrix(-0.0175,0.9998,0.9998,0.0175,16.9109,185.709)"
       style="font-variant:normal;font-weight:normal;font-size:17.99915695px;font-family:MyriadPro;-inkscape-font-specification:MyriadPro-Regular;writing-mode:lr-tb;fill:#100f0d;fill-opacity:1;fill-rule:nonzero;stroke:none"
       id="text424"><tspan
         x="0 8.8198929 14.669312 23.68689 33.92841 37.744232 43.449963 52.467541 59.595207 69.836731 79.718262 89.707794 96.835464"
         y="0"
         sodipodi:role="line"
         id="tspan422">Step response</tspan></text>
<text
       transform="matrix(1,0,0,-1,96.841,37.4308)"
       style="font-variant:normal;font-weight:normal;font-size:18px;font-family:MyriadPro;-inkscape-font-specification:MyriadPro-Regular;writing-mode:lr-tb;fill:#100f0d;fill-opacity:1;fill-rule:nonzero;stroke:none"
       id="text432"><tspan
         x="0 44.064999"
         y="0"
         sodipodi:role="line"
         id="tspan426">12</tspan><tspan
         x="164.866 173.59599 177.808 192.82001 201.6223 205.34831 209.16431"
         y="32.354"
         sodipodi:role="line"
         id="tspan428">Time, t</tspan><tspan
         x="-49.157001 131.99899 88.499001 178.49899 223.118 313.60901 266.66599 357.319"
         y="0"
         sodipodi:role="line"
         id="tspan430">04356879</tspan></text>
<g
       id="g434"
       transform="scale(0.1)"><g
         id="g436"
         clip-path="url(#clipPath440)"><g
           id="g442"
           transform="translate(1149.27,3839.48)"><path
             d="M 0,0 H 380.93"
             style="fill:none;stroke:#231f20;stroke-width:10;stroke-linecap:butt;stroke-linejoin:miter;stroke-miterlimit:10;stroke-dasharray:none;stroke-opacity:1"
             id="path444"
             inkscape:connector-curvature="0" /></g><g
           id="g446"
           transform="translate(1491.26,2808.46)"><path
             d="M 0,0 V 975.9"
             style="fill:none;stroke:#231f20;stroke-width:10;stroke-linecap:butt;stroke-linejoin:miter;stroke-miterlimit:10;stroke-dasharray:none;stroke-opacity:1"
             id="path448"
             inkscape:connector-curvature="0" /></g><g
           id="g450"
           transform="translate(1523.0699,3725.25)"><path
             d="M 0,0 -9.41,-3.42 -31.81,58.13 -54.21,-3.42 -63.61,0 -31.81,87.36 0,0"
             style="fill:#231f20;fill-opacity:1;fill-rule:nonzero;stroke:none"
             id="path452"
             inkscape:connector-curvature="0" /></g><g
           id="g454"
           transform="translate(2410.3799,4079.05)"><path
             d="M 0,0 781.59,-6.71"
             style="fill:none;stroke:#231f20;stroke-width:20;stroke-linecap:butt;stroke-linejoin:miter;stroke-miterlimit:10;stroke-dasharray:none;stroke-opacity:1"
             id="path456"
             inkscape:connector-curvature="0" /></g></g></g><text
       transform="matrix(1,0,0,-1,156.426,345.761)"
       style="font-variant:normal;font-weight:normal;font-size:18px;font-family:MyriadPro;-inkscape-font-specification:MyriadPro-Regular;writing-mode:lr-tb;fill:#100f0d;fill-opacity:1;fill-rule:nonzero;stroke:none"
       id="text460"><tspan
         x="0"
         y="0"
         id="tspan458">M</tspan></text>
<text
       transform="matrix(1,0,0,-1,170.898,339.767)"
       style="font-variant:normal;font-weight:normal;font-size:10.49400043px;font-family:MyriadPro;-inkscape-font-specification:MyriadPro-Regular;writing-mode:lr-tb;fill:#100f0d;fill-opacity:1;fill-rule:nonzero;stroke:none"
       id="text464"><tspan
         x="0"
         y="0"
         id="tspan462">p</tspan></text>
<text
       transform="matrix(1,0,0,-1,176.869,345.761)"
       style="font-variant:normal;font-weight:normal;font-size:18px;font-family:MyriadPro;-inkscape-font-specification:MyriadPro-Regular;writing-mode:lr-tb;fill:#100f0d;fill-opacity:1;fill-rule:nonzero;stroke:none"
       id="text468"><tspan
         x="0 10.728 19.962 29.195999 33.012001"
         y="0"
         sodipodi:role="line"
         id="tspan466">=45 %</tspan></text>
<g
       id="g470"
       transform="scale(0.1)"><g
         id="g472"
         clip-path="url(#clipPath476)"><g
           id="g478"
           transform="translate(2749.1101,544.18)"><path
             d="M 0,0 781.59,-6.719"
             style="fill:none;stroke:#231f20;stroke-width:20;stroke-linecap:butt;stroke-linejoin:miter;stroke-miterlimit:10;stroke-dasharray:none;stroke-opacity:1"
             id="path480"
             inkscape:connector-curvature="0" /></g><g
           id="g482"
           transform="translate(2807.73,4068.98)"><path
             d="M 0,0 C 0,-10.94 0,-21.89 0,-32.82"
             style="fill:none;stroke:#231f20;stroke-width:20;stroke-linecap:round;stroke-linejoin:round;stroke-miterlimit:10;stroke-dasharray:none;stroke-opacity:1"
             id="path484"
             inkscape:connector-curvature="0" /></g></g></g></g></svg>