<?xml version="1.0" encoding="UTF-8" standalone="no"?>
<!-- Created with Inkscape (http://www.inkscape.org/) -->

<svg
   xmlns:dc="http://purl.org/dc/elements/1.1/"
   xmlns:cc="http://creativecommons.org/ns#"
   xmlns:rdf="http://www.w3.org/1999/02/22-rdf-syntax-ns#"
   xmlns:svg="http://www.w3.org/2000/svg"
   xmlns="http://www.w3.org/2000/svg"
   xmlns:sodipodi="http://sodipodi.sourceforge.net/DTD/sodipodi-0.dtd"
   xmlns:inkscape="http://www.inkscape.org/namespaces/inkscape"
   version="1.1"
   id="svg2"
   xml:space="preserve"
   width="559.88934"
   height="420"
   viewBox="0 0 559.88934 420"
   sodipodi:docname="root-locus.svg"
   inkscape:version="0.92.0 r15299"><metadata
     id="metadata8"><rdf:RDF><cc:Work
         rdf:about=""><dc:format>image/svg+xml</dc:format><dc:type
           rdf:resource="http://purl.org/dc/dcmitype/StillImage" /><dc:title></dc:title></cc:Work></rdf:RDF></metadata><defs
     id="defs6"><clipPath
       clipPathUnits="userSpaceOnUse"
       id="clipPath18"><path
         d="M 0,0 H 4199.17 V 3150 H 0 Z"
         id="path16"
         inkscape:connector-curvature="0" /></clipPath><clipPath
       clipPathUnits="userSpaceOnUse"
       id="clipPath28"><path
         d="M 0,3150 V 0 h 4199.17 v 3150 z"
         id="path26"
         inkscape:connector-curvature="0" /></clipPath><clipPath
       clipPathUnits="userSpaceOnUse"
       id="clipPath58"><path
         d="M 0,3150 V 0 h 4199.17 v 3150 z"
         id="path56"
         inkscape:connector-curvature="0" /></clipPath><clipPath
       clipPathUnits="userSpaceOnUse"
       id="clipPath74"><path
         d="M 0,3150 V 0 h 4199.17 v 3150 z"
         id="path72"
         inkscape:connector-curvature="0" /></clipPath><clipPath
       clipPathUnits="userSpaceOnUse"
       id="clipPath90"><path
         d="M 0,3150 V 0 h 4199.17 v 3150 z"
         id="path88"
         inkscape:connector-curvature="0" /></clipPath><clipPath
       clipPathUnits="userSpaceOnUse"
       id="clipPath106"><path
         d="M 0,3150 V 0 h 4199.17 v 3150 z"
         id="path104"
         inkscape:connector-curvature="0" /></clipPath><clipPath
       clipPathUnits="userSpaceOnUse"
       id="clipPath134"><path
         d="M 0,3150 V 0 h 4199.17 v 3150 z"
         id="path132"
         inkscape:connector-curvature="0" /></clipPath><clipPath
       clipPathUnits="userSpaceOnUse"
       id="clipPath150"><path
         d="M 0,3150 V 0 h 4199.17 v 3150 z"
         id="path148"
         inkscape:connector-curvature="0" /></clipPath><clipPath
       clipPathUnits="userSpaceOnUse"
       id="clipPath166"><path
         d="M 0,3150 V 0 h 4199.17 v 3150 z"
         id="path164"
         inkscape:connector-curvature="0" /></clipPath><clipPath
       clipPathUnits="userSpaceOnUse"
       id="clipPath182"><path
         d="M 0,3150 V 0 h 4199.17 v 3150 z"
         id="path180"
         inkscape:connector-curvature="0" /></clipPath><clipPath
       clipPathUnits="userSpaceOnUse"
       id="clipPath198"><path
         d="M 0,3150 V 0 h 4199.17 v 3150 z"
         id="path196"
         inkscape:connector-curvature="0" /></clipPath><clipPath
       clipPathUnits="userSpaceOnUse"
       id="clipPath210"><path
         d="M 545.836,346.672 H 3800.83 V 2913.34 H 545.836 Z"
         id="path208"
         inkscape:connector-curvature="0" /></clipPath><clipPath
       clipPathUnits="userSpaceOnUse"
       id="clipPath222"><path
         d="M 0,3150 V 0 h 4199.17 v 3150 z"
         id="path220"
         inkscape:connector-curvature="0" /></clipPath><clipPath
       clipPathUnits="userSpaceOnUse"
       id="clipPath254"><path
         d="M 0,3150 V 0 h 4199.17 v 3150 z"
         id="path252"
         inkscape:connector-curvature="0" /></clipPath><clipPath
       clipPathUnits="userSpaceOnUse"
       id="clipPath270"><path
         d="M 0,3150 V 0 h 4199.17 v 3150 z"
         id="path268"
         inkscape:connector-curvature="0" /></clipPath><clipPath
       clipPathUnits="userSpaceOnUse"
       id="clipPath298"><path
         d="M 0,3150 V 0 h 4199.17 v 3150 z"
         id="path296"
         inkscape:connector-curvature="0" /></clipPath></defs><sodipodi:namedview
     pagecolor="#ffffff"
     bordercolor="#666666"
     borderopacity="1"
     objecttolerance="10"
     gridtolerance="10"
     guidetolerance="10"
     inkscape:pageopacity="0"
     inkscape:pageshadow="2"
     inkscape:window-width="640"
     inkscape:window-height="480"
     id="namedview4"
     showgrid="false"
     fit-margin-top="0"
     fit-margin-left="0"
     fit-margin-right="0"
     fit-margin-bottom="0"
     inkscape:zoom="0.22348485"
     inkscape:cx="329.69492"
     inkscape:cy="528"
     inkscape:window-x="0"
     inkscape:window-y="0"
     inkscape:window-maximized="0"
     inkscape:current-layer="g10" /><g
     id="g10"
     inkscape:groupmode="layer"
     inkscape:label="A9R1egyn5f_fwqwzc_7g4"
     transform="matrix(1.3333333,0,0,-1.3333333,0,419.99999)"><g
       id="g12"
       transform="scale(0.1)"><g
         id="g14"
         clip-path="url(#clipPath18)"><path
           d="M 0,0 H 4200 V 3150 H 0 Z"
           style="fill:#ffffff;fill-opacity:1;fill-rule:nonzero;stroke:none"
           id="path20"
           inkscape:connector-curvature="0" /></g></g><g
       id="g22"
       transform="scale(0.1)"><g
         id="g24"
         clip-path="url(#clipPath28)"><path
           d="m 545.836,347.5 h 3254.16 V 2913.34 H 545.836 Z"
           style="fill:#ffffff;fill-opacity:1;fill-rule:evenodd;stroke:none"
           id="path30"
           inkscape:connector-curvature="0" /><g
           id="g32"
           transform="translate(545.836,347.5)"><path
             d="M 0,0 V 2565.84 H 3254.164 V 0 H 0"
             style="fill:none;stroke:#ffffff;stroke-width:10;stroke-linecap:butt;stroke-linejoin:round;stroke-miterlimit:10;stroke-dasharray:none;stroke-opacity:1"
             id="path34"
             inkscape:connector-curvature="0" /></g><g
           id="g36"
           transform="translate(3800,2778.3401)"><path
             d="M 0,0 V 0 M -3254.164,0 H 0 m 0,-382.5 v 0 m -3254.164,0 H 0 m 0,-382.51 v 0 m -3254.164,0 H 0 m 0,-382.5 v 0 m -3254.164,0 H 0 m 0,-383.33 v 0 m -3254.164,0 H 0 m 0,-382.5 v 0 m -3254.164,0 H 0 m 0,-382.5 v 0 m -3254.164,0 H 0 M -15.83,135 v 0 m 0,-2565.84 V 135 m -765.84,0 v 0 m 0,-2565.84 V 135 m -765,0 v 0 m 0,-2565.84 V 135 m -765.83,0 v 0 m 0,-2565.84 V 135 m -765,0 v 0 m 0,-2565.84 V 135"
             style="fill:none;stroke:#231f20;stroke-width:6.66699982;stroke-linecap:butt;stroke-linejoin:round;stroke-miterlimit:10;stroke-dasharray:5, 40;stroke-dashoffset:0;stroke-opacity:1"
             id="path38"
             inkscape:connector-curvature="0" /></g><g
           id="g40"
           transform="translate(722.5,2913.3401)"><path
             d="m 0,0 v -32.5 m 0,-2533.34 v 32.5 m -176.664,-32.5 V 0 m 0,-2565.84 H 3077.5 m -3254.164,0 V 0 M 3077.5,-2565.84 V 0 M -176.664,-2565.84 H 3077.5 M -176.664,0 H 3077.5"
             style="fill:none;stroke:#231f20;stroke-width:10;stroke-linecap:butt;stroke-linejoin:round;stroke-miterlimit:10;stroke-dasharray:none;stroke-opacity:1"
             id="path42"
             inkscape:connector-curvature="0" /></g><g
           id="g44"
           transform="translate(1487.5,2913.3401)"><path
             d="m 0,0 v -32.5 m 0,-2533.34 v 32.5"
             style="fill:none;stroke:#231f20;stroke-width:10;stroke-linecap:butt;stroke-linejoin:round;stroke-miterlimit:10;stroke-dasharray:none;stroke-opacity:1"
             id="path46"
             inkscape:connector-curvature="0" /></g></g></g><text
       transform="matrix(1,0,0,-1,60.243,18.826)"
       style="font-variant:normal;font-weight:normal;font-size:14px;font-family:Helvetica;-inkscape-font-specification:Helvetica;writing-mode:lr-tb;fill:#211c1d;fill-opacity:1;fill-rule:nonzero;stroke:none"
       id="text50"><tspan
         x="0 8.3439999 76.5 84.844002"
         y="0"
         sodipodi:role="line"
         id="tspan48">−2−1</tspan></text>
<g
       id="g52"
       transform="scale(0.1)"><g
         id="g54"
         clip-path="url(#clipPath58)"><g
           id="g60"
           transform="translate(2253.3301,2913.3401)"><path
             d="m 0,0 v -32.5 m 0,-2533.34 v 32.5"
             style="fill:none;stroke:#231f20;stroke-width:10;stroke-linecap:butt;stroke-linejoin:round;stroke-miterlimit:10;stroke-dasharray:none;stroke-opacity:1"
             id="path62"
             inkscape:connector-curvature="0" /></g></g></g><text
       transform="matrix(1,0,0,-1,221.493,18.826)"
       style="font-variant:normal;font-weight:normal;font-size:14px;font-family:Helvetica;-inkscape-font-specification:Helvetica;writing-mode:lr-tb;fill:#211c1d;fill-opacity:1;fill-rule:nonzero;stroke:none"
       id="text66"><tspan
         x="0"
         y="0"
         id="tspan64">0</tspan></text>
<g
       id="g68"
       transform="scale(0.1)"><g
         id="g70"
         clip-path="url(#clipPath74)"><g
           id="g76"
           transform="translate(3018.3301,2913.3401)"><path
             d="m 0,0 v -32.5 m 0,-2533.34 v 32.5"
             style="fill:none;stroke:#231f20;stroke-width:10;stroke-linecap:butt;stroke-linejoin:round;stroke-miterlimit:10;stroke-dasharray:none;stroke-opacity:1"
             id="path78"
             inkscape:connector-curvature="0" /></g></g></g><text
       transform="matrix(1,0,0,-1,297.999,18.826)"
       style="font-variant:normal;font-weight:normal;font-size:14px;font-family:Helvetica;-inkscape-font-specification:Helvetica;writing-mode:lr-tb;fill:#211c1d;fill-opacity:1;fill-rule:nonzero;stroke:none"
       id="text82"><tspan
         x="0"
         y="0"
         id="tspan80">1</tspan></text>
<g
       id="g84"
       transform="scale(0.1)"><g
         id="g86"
         clip-path="url(#clipPath90)"><g
           id="g92"
           transform="translate(3784.1699,2913.3401)"><path
             d="m 0,0 v -32.5 m 0,-2533.34 v 32.5"
             style="fill:none;stroke:#231f20;stroke-width:10;stroke-linecap:butt;stroke-linejoin:round;stroke-miterlimit:10;stroke-dasharray:none;stroke-opacity:1"
             id="path94"
             inkscape:connector-curvature="0" /></g></g></g><text
       transform="matrix(1,0,0,-1,374.579,18.826)"
       style="font-variant:normal;font-weight:normal;font-size:14px;font-family:Helvetica;-inkscape-font-specification:Helvetica;writing-mode:lr-tb;fill:#211c1d;fill-opacity:1;fill-rule:nonzero;stroke:none"
       id="text98"><tspan
         x="0"
         y="0"
         id="tspan96">2</tspan></text>
<g
       id="g100"
       transform="scale(0.1)"><g
         id="g102"
         clip-path="url(#clipPath106)"><g
           id="g108"
           transform="translate(3800,482.5)"><path
             d="m 0,0 h -33.33 m -3220.834,0 h 32.5"
             style="fill:none;stroke:#231f20;stroke-width:10;stroke-linecap:butt;stroke-linejoin:round;stroke-miterlimit:10;stroke-dasharray:none;stroke-opacity:1"
             id="path110"
             inkscape:connector-curvature="0" /></g><g
           id="g112"
           transform="translate(3800,865)"><path
             d="m 0,0 h -33.33 m -3220.834,0 h 32.5"
             style="fill:none;stroke:#231f20;stroke-width:10;stroke-linecap:butt;stroke-linejoin:round;stroke-miterlimit:10;stroke-dasharray:none;stroke-opacity:1"
             id="path114"
             inkscape:connector-curvature="0" /></g><g
           id="g116"
           transform="translate(3800,1247.5)"><path
             d="m 0,0 h -33.33 m -3220.834,0 h 32.5"
             style="fill:none;stroke:#231f20;stroke-width:10;stroke-linecap:butt;stroke-linejoin:round;stroke-miterlimit:10;stroke-dasharray:none;stroke-opacity:1"
             id="path118"
             inkscape:connector-curvature="0" /></g></g></g><text
       transform="matrix(1,0,0,-1,24.077,119.587)"
       style="font-variant:normal;font-weight:normal;font-size:14px;font-family:Helvetica;-inkscape-font-specification:Helvetica;writing-mode:lr-tb;fill:#211c1d;fill-opacity:1;fill-rule:nonzero;stroke:none"
       id="text126"><tspan
         x="0 8.3439999 15.526 18.424"
         y="0"
         sodipodi:role="line"
         id="tspan120">−0.5</tspan><tspan
         x="11.672 20.016001"
         y="38.25"
         sodipodi:role="line"
         id="tspan122">−1</tspan><tspan
         x="0 8.3439999 15.526 18.424"
         y="76.491997"
         sodipodi:role="line"
         id="tspan124">−1.5</tspan></text>
<g
       id="g128"
       transform="scale(0.1)"><g
         id="g130"
         clip-path="url(#clipPath134)"><g
           id="g136"
           transform="translate(3800,1630.83)"><path
             d="m 0,0 h -33.33 m -3220.834,0 h 32.5"
             style="fill:none;stroke:#231f20;stroke-width:10;stroke-linecap:butt;stroke-linejoin:round;stroke-miterlimit:10;stroke-dasharray:none;stroke-opacity:1"
             id="path138"
             inkscape:connector-curvature="0" /></g></g></g><text
       transform="matrix(1,0,0,-1,43.915,157.915)"
       style="font-variant:normal;font-weight:normal;font-size:14px;font-family:Helvetica;-inkscape-font-specification:Helvetica;writing-mode:lr-tb;fill:#211c1d;fill-opacity:1;fill-rule:nonzero;stroke:none"
       id="text142"><tspan
         x="0"
         y="0"
         id="tspan140">0</tspan></text>
<g
       id="g144"
       transform="scale(0.1)"><g
         id="g146"
         clip-path="url(#clipPath150)"><g
           id="g152"
           transform="translate(3800,2013.33)"><path
             d="m 0,0 h -33.33 m -3220.834,0 h 32.5"
             style="fill:none;stroke:#231f20;stroke-width:10;stroke-linecap:butt;stroke-linejoin:round;stroke-miterlimit:10;stroke-dasharray:none;stroke-opacity:1"
             id="path154"
             inkscape:connector-curvature="0" /></g></g></g><text
       transform="matrix(1,0,0,-1,32.251,196.165)"
       style="font-variant:normal;font-weight:normal;font-size:14px;font-family:Helvetica;-inkscape-font-specification:Helvetica;writing-mode:lr-tb;fill:#211c1d;fill-opacity:1;fill-rule:nonzero;stroke:none"
       id="text158"><tspan
         x="0 7.1820002 10.08"
         y="0"
         sodipodi:role="line"
         id="tspan156">0.5</tspan></text>
<g
       id="g160"
       transform="scale(0.1)"><g
         id="g162"
         clip-path="url(#clipPath166)"><g
           id="g168"
           transform="translate(3800,2395.8401)"><path
             d="m 0,0 h -33.33 m -3220.834,0 h 32.5"
             style="fill:none;stroke:#231f20;stroke-width:10;stroke-linecap:butt;stroke-linejoin:round;stroke-miterlimit:10;stroke-dasharray:none;stroke-opacity:1"
             id="path170"
             inkscape:connector-curvature="0" /></g></g></g><text
       transform="matrix(1,0,0,-1,43.915,234.412)"
       style="font-variant:normal;font-weight:normal;font-size:14px;font-family:Helvetica;-inkscape-font-specification:Helvetica;writing-mode:lr-tb;fill:#211c1d;fill-opacity:1;fill-rule:nonzero;stroke:none"
       id="text174"><tspan
         x="0"
         y="0"
         id="tspan172">1</tspan></text>
<g
       id="g176"
       transform="scale(0.1)"><g
         id="g178"
         clip-path="url(#clipPath182)"><g
           id="g184"
           transform="translate(3800,2778.3401)"><path
             d="m 0,0 h -33.33 m -3220.834,0 h 32.5"
             style="fill:none;stroke:#231f20;stroke-width:10;stroke-linecap:butt;stroke-linejoin:round;stroke-miterlimit:10;stroke-dasharray:none;stroke-opacity:1"
             id="path186"
             inkscape:connector-curvature="0" /></g></g></g><text
       transform="matrix(1,0,0,-1,32.251,272.673)"
       style="font-variant:normal;font-weight:normal;font-size:14px;font-family:Helvetica;-inkscape-font-specification:Helvetica;writing-mode:lr-tb;fill:#211c1d;fill-opacity:1;fill-rule:nonzero;stroke:none"
       id="text190"><tspan
         x="0 7.1820002 10.08"
         y="0"
         sodipodi:role="line"
         id="tspan188">1.5</tspan></text>
<g
       id="g192"
       transform="scale(0.1)"><g
         id="g194"
         clip-path="url(#clipPath198)"><g
           id="g200"
           transform="translate(545.836,347.5)"><path
             d="M 0,0 V 2565.84 M 3254.164,0 V 2565.84 M 0,0 H 3254.164 M 0,2565.84 h 3254.164"
             style="fill:none;stroke:#231f20;stroke-width:10;stroke-linecap:butt;stroke-linejoin:round;stroke-miterlimit:10;stroke-dasharray:none;stroke-opacity:1"
             id="path202"
             inkscape:connector-curvature="0" /></g></g></g><g
       id="g204"
       transform="scale(0.1)"><g
         id="g206"
         clip-path="url(#clipPath210)"><g
           id="g212"
           transform="translate(2253.3301,1630.83)"><path
             d="M 0,0 V -1.66 L -1.66,-3.33 V -5 L -3.33,-6.66 V -7.5 L -4.16,-8.33 -5.83,-10 v -0.83 l -0.83,-0.83 -0.84,-0.84 v -0.83 l -0.83,-0.83 -0.83,-0.84 -0.84,-0.83 -0.83,-0.83 -0.83,-0.84 -1.67,-0.83 -0.83,-1.67 -1.67,-0.83 -0.83,-1.67 -1.67,-0.83 -1.67,-1.67 -1.66,-0.83 -1.67,-1.67 -2.5,-0.83 -2.5,-1.67 -2.5,-1.66 -2.5,-1.67 -2.5,-1.67 -3.33,-1.66 -2.5,-1.67 -4.17,-1.67 -3.33,-1.66 -4.17,-1.67 -4.17,-1.67 -5,-1.66 -4.16,-1.67 -5.84,-1.67 -5,-1.67 -6.66,-1.66 -5.84,-0.84 -6.66,-1.66 -7.5,-1.67 -7.5,-0.83 -8.34,-0.83 -8.33,-0.84 -9.17,-0.83 h -29.16 l -10.84,0.83 -11.66,0.84 -12.5,0.83 -12.5,2.5 -13.34,1.66 -13.33,2.5 -14.17,3.34 -15,4.17 -15,4.16 -15.83,5 -15.83,5.84 -17.5,6.66 -16.67,7.5 -18.33,7.5 -18.34,9.17 -18.33,10 -19.17,10.83 -19.16,11.67 -20,12.5 -20,14.17 L -505,75 l -20.83,15.84 -20.83,17.5 -20.84,17.5 -21.66,20 -21.67,20 -21.67,21.66 -21.66,22.5 -21.67,24.17 -21.67,25.83 -21.66,26.67 -21.67,27.5 -21.67,29.17 -20.83,30 -21.67,31.66 -20.83,33.34 -20.83,34.16 -20.84,35.84 -20.83,36.67 -20,37.5 -20,40 -19.17,40 -19.16,42.5 -19.17,42.5 -18.33,45 -18.34,45.82 -17.5,46.68 -17.5,48.32 -16.66,50 -16.67,50.84 -15.83,51.66 -15.84,53.34 -15,55 6.67,1.66 7.5,2.5 7.5,1.68 6.67,1.66 7.5,1.66 7.5,2.5 6.66,1.68 7.5,1.66 7.5,1.66 6.67,1.68 7.5,1.66 7.5,1.67 6.67,1.67 7.5,1.66 6.66,1.67 7.5,1.67 6.67,1.66 7.5,1.67 6.67,1.67 7.5,1.66 7.5,1.67 6.66,1.67 7.5,0.83 6.67,1.67 7.5,1.66 6.67,0.84 6.66,1.66 7.5,1.67 6.67,0.83 7.5,1.67 6.67,0.83 7.5,1.67 6.66,1.67 6.67,0.83 7.5,0.83 6.67,1.67 7.5,0.83 6.66,1.67 6.67,0.83 7.5,0.84 6.67,1.66 6.66,0.84 7.5,0.83 6.67,0.83 6.67,1.67 7.5,0.83 6.66,0.84 6.67,0.83 6.67,0.83 7.5,0.84 6.66,0.83 6.67,0.83 6.67,0.84 6.66,0.83 7.5,0.83 6.67,0.84 6.67,0.83 6.66,0.83 h 6.67 l 6.67,0.84 7.5,0.83 6.66,0.83 6.67,0.84 h 6.67 l 6.66,0.83 6.67,0.83 h 6.67 l 6.66,0.84 h 6.67 l 6.67,0.83 h 6.66 l 6.67,0.83 h 6.67 l 6.66,0.84 h 6.67 l 6.67,0.83 h 13.33 l 6.67,0.83 h 20 l 6.66,0.84 h 104.17 l 6.67,-0.84 h 19.16 l 5.84,-0.83 h 13.33 l 5.83,-0.83 h 6.67 l 5.83,-0.84 h 6.67 l 6.67,-0.83 h 5.83 l 6.67,-0.83 h 5.83 l 6.67,-0.84 h 5.83 l 6.67,-0.83 5.83,-0.83 h 6.67 l 5.83,-0.84 6.67,-0.83 h 5.83 l 6.67,-0.83 5.83,-0.84 5.83,-0.83 6.67,-0.83 5.83,-0.84 h 6.67 l 5.83,-0.83 5.84,-0.83 6.66,-0.84 5.84,-0.83 5.83,-0.83 6.67,-0.84 5.83,-0.83 5.83,-0.83 5.84,-0.84 6.66,-1.66 5.84,-0.84 5.83,-0.83 5.83,-0.83 5.84,-0.84 6.66,-1.66 5.84,-0.84 5.83,-0.83 5.83,-0.83 5.84,-1.67 5.83,-0.83 5.83,-1.67 5.84,-0.83 5.83,-0.84 5.83,-1.66 5.84,-0.84 6.66,-1.66 5.84,-0.84 5.83,-1.66 5,-0.84 5.83,-1.66 5.84,-1.67 5.83,-0.83 5.83,-1.67 5.84,-1.67 5.83,-0.83 5.83,-1.67 5.84,-1.66 5.83,-1.67 5,-0.83 5.83,-1.67 5.84,-1.67 5.83,-1.66 5.83,-1.67 5,-1.67 5.84,-1.66 5.83,-0.84 5.83,-1.66 5,-1.68 5.84,-1.66 5.83,-1.66 5,-1.68 5.83,-2.5 5.84,-1.66 5,-1.66 m 0,0 5.83,-1.68 5,-1.66 5.83,-1.66 5.84,-1.68 5,-2.5 5.83,-1.66 5,-1.66 5.83,-1.68 5,-2.5 5,-1.66 5.84,-1.66 5,-2.5 5.83,-1.68 5,-2.5 5.83,-1.66 5,-2.5 5,-1.66 5.84,-1.68 5,-2.5 5,-2.5 5,-1.66 5.83,-2.5 5,-1.66 5,-2.5 5,-2.5 5.83,-1.68 5,-2.5 5,-2.5 5,-1.66 5,-2.5 5,-2.5 5.84,-2.5 5,-1.66 5,-2.5 5,-2.5 5,-2.5 5,-2.5 5,-2.5 5,-2.5 5,-1.68 5,-2.5 5,-2.5 5,-2.5 4.16,-2.5 5,-2.5 5,-2.5 5,-3.32 5,-2.5 5,-2.5 4.17,-2.5 5,-2.5 5,-2.5 5,-2.5 4.17,-3.34 5,-2.5 5,-2.5 5,-2.5 4.16,-3.34 5,-2.5 4.17,-2.5 5,-2.5 5,-3.32 4.17,-2.5 5,-3.34 4.16,-2.5 5,-2.5 4.17,-3.34 5,-2.5 4.17,-3.32 5,-2.5 4.16,-3.34 5,-2.5 4.17,-3.34 4.17,-2.5 5,-3.32 4.16,-3.34 4.17,-2.5 5,-3.34 4.17,-2.5 4.16,-3.32 4.17,-3.34 5,-2.5 4.17,-3.34 4.16,-3.32 4.17,-3.34 4.17,-2.5 4.16,-3.34 4.17,-3.32 5,-3.34 4.17,-3.33 4.16,-2.5 4.17,-3.33 4.17,-3.34 4.16,-3.33 4.17,-3.33 4.17,-3.34 4.16,-3.33 3.34,-3.33 4.16,-3.34 4.17,-3.33 4.17,-3.33 4.16,-3.34 4.17,-3.33 4.17,-3.33 3.33,-3.34 4.17,-3.33 4.16,-3.33 4.17,-3.34 3.33,-4.16 4.17,-3.34 4.17,-3.33 3.33,-3.33 4.17,-3.34 3.33,-3.33 4.17,-4.17 4.16,-3.33 3.34,-3.33 4.16,-3.34 3.34,-4.16 4.16,-3.34 3.34,-3.33 3.33,-4.17 4.17,-3.33 3.33,-3.33 4.17,-4.17 3.33,-3.33 3.33,-3.34 4.17,-4.16 3.33,-3.34 3.34,-4.16 4.16,-3.34 3.34,-4.16 3.33,-3.34 3.33,-4.16 3.34,-3.34 4.16,-4.16 3.34,-3.34 3.33,-4.16 3.33,-3.34 3.34,-4.16 3.33,-3.34 3.33,-4.16 3.34,-4.17 3.33,-3.33 3.33,-4.17 3.34,-4.17 3.33,-3.33 3.33,-4.17 3.34,-4.16 2.5,-3.34 3.33,-4.16 3.33,-4.17 3.34,-4.17 3.33,-3.33 2.5,-4.17 3.33,-4.16 3.34,-4.17 3.33,-3.33 2.5,-4.17 3.33,-4.17 3.34,-4.16 2.5,-4.17 3.33,-4.17 2.5,-4.16 3.33,-3.34 2.5,-4.16 3.34,-4.17 2.5,-4.17 3.33,-4.16 2.5,-4.17 3.33,-4.17 2.5,-4.16 2.5,-4.17 3.34,-4.17 2.5,-4.16 2.5,-4.17 3.33,-4.17 2.5,-4.16 2.5,-4.17 2.5,-4.17 3.33,-4.16 2.5,-4.17 2.5,-4.17 2.5,-4.16 2.5,-4.18 2.5,-5 2.5,-4.16 2.5,-4.16 2.5,-4.18 2.5,-4.16 2.5,-4.16 2.5,-4.18 2.5,-5 2.5,-4.16 2.5,-4.16 2.5,-4.18 2.5,-4.16 1.67,-5 2.5,-4.16 2.5,-4.18 2.5,-4.16 1.67,-5 2.5,-4.16 2.5,-4.18 1.66,-4.16 2.5,-5 2.5,-4.16 1.67,-4.17 2.5,-5 1.67,-4.17 2.5,-4.17 1.66,-5 2.5,-4.16 1.67,-4.17 2.5,-5 1.67,-4.17 2.5,-5 1.66,-4.16 1.67,-4.17 2.5,-5 1.67,-4.17 1.66,-5 1.67,-4.16 2.5,-5 1.67,-4.17 1.66,-4.17 1.67,-5 1.67,-4.16 1.66,-5 2.5,-4.17 1.67,-5 1.67,-4.17 1.66,-5 1.67,-4.16 1.67,-5 1.66,-4.17 0.84,-5 1.66,-4.17 1.67,-5 1.67,-5 1.66,-4.16 1.67,-5 1.67,-4.17 0.83,-5 1.67,-4.17 1.66,-5 0.84,-4.16 1.66,-5 1.67,-5 0.83,-4.17 1.67,-5 1.67,-4.17 0.83,-5 1.67,-5 0.83,-4.16 1.67,-5 0.83,-5 1.67,-4.17 0.83,-5 0.83,-5 1.67,-4.17 0.83,-5 0.84,-5 1.66,-4.16 0.84,-5 0.83,-5 0.83,-4.17 1.67,-5 0.83,-5 0.84,-4.17 0.83,-5 0.83,-5 0.84,-4.16 0.83,-5 0.83,-5 0.84,-5 0.83,-4.17 0.83,-5 0.84,-5 0.83,-4.17 0.83,-5 0.84,-5 0.83,-5 0.83,-4.16 v -5 l 0.84,-5 0.83,-5 0.83,-4.17 v -5 l 0.84,-5 0.83,-5 V 125 l 0.83,-5 v -5 l 0.84,-5 0.83,-4.16 v -5 l 0.83,-5 v -9.17 m 0,0 0.84,-5 v -5 l 0.83,-5 V 62.5 l 0.83,-5 V 43.34 l 0.84,-5 v -77.5 l -0.84,-5 v -14.17 l -0.83,-5 v -9.17 l -0.83,-5 v -5 l -0.84,-5 v -9.16 l -0.83,-5 v -5 l -0.83,-4.17 -0.84,-5 v -5 l -0.83,-5 V -130 l -0.83,-5 -0.84,-5 v -5 l -0.83,-4.16 -0.83,-5 -0.84,-5 v -5 l -0.83,-4.17 -0.83,-5 -0.84,-5 -0.83,-5 -0.83,-4.17 -0.84,-5 -0.83,-5 -0.83,-4.16 -0.84,-5 -0.83,-5 -0.83,-5 -0.84,-4.17 -0.83,-5 -0.83,-5 -0.84,-4.17 -0.83,-5 -1.67,-5 -0.83,-4.16 -0.83,-5 -0.84,-5 -1.66,-4.17 -0.84,-5 -0.83,-5 -1.67,-4.17 -0.83,-5 -0.83,-5 -1.67,-4.16 -0.83,-5 -1.67,-5 -0.83,-4.17 -1.67,-5 -0.83,-5 -1.67,-4.17 -1.67,-5 -0.83,-4.16 -1.67,-5 -1.66,-5 -0.84,-4.17 -1.66,-5 -1.67,-4.17 -0.83,-5 -1.67,-4.16 -1.67,-5 -1.66,-4.17 -1.67,-5 -1.67,-5 -1.66,-4.17 -0.84,-5 -1.66,-4.16 -1.67,-5 -1.67,-4.17 -1.67,-5 -1.66,-4.17 -1.67,-5 -2.5,-4.16 -1.67,-5 -1.66,-4.17 -1.67,-5 -1.67,-4.17 -1.66,-4.16 -2.5,-5 -1.67,-4.17 -1.67,-5 -1.66,-4.17 -2.5,-5 -1.67,-4.16 -1.67,-4.17 -2.5,-5 -1.66,-4.17 -2.5,-5 -1.67,-4.16 -2.5,-4.17 -1.67,-5 -2.5,-4.17 -1.66,-4.16 -2.5,-5 -1.67,-4.17 -2.5,-4.17 -2.5,-5 -1.67,-4.16 -2.5,-4.17 -2.5,-4.17 -1.66,-5 -2.5,-4.16 -2.5,-4.17 -2.5,-4.17 -1.67,-5 -2.5,-4.16 -2.5,-4.17 -2.5,-4.17 -2.5,-4.16 -2.5,-5 -2.5,-4.17 -2.5,-4.17 -2.5,-4.16 -2.5,-4.17 -2.5,-4.17 -2.5,-4.16 -2.5,-5 -2.5,-4.17 -2.5,-4.17 -2.5,-4.16 -2.5,-4.17 -3.33,-4.172 -2.5,-4.156 -2.5,-4.172 -2.5,-4.172 -3.33,-4.156 -2.5,-4.172 -2.5,-4.172 -3.34,-4.156 -2.5,-4.172 -2.5,-4.172 -3.33,-4.156 -2.5,-4.172 -3.33,-4.172 -2.5,-4.156 -3.34,-4.172 -2.5,-4.172 -3.33,-3.328 -2.5,-4.172 -3.33,-4.156 -2.5,-4.172 -3.34,-4.172 -3.33,-4.156 -2.5,-4.172 -3.33,-3.328 -3.34,-4.172 -3.33,-4.172 -2.5,-4.156 -3.33,-3.344 -3.34,-4.156 -3.33,-4.172 -3.33,-4.172 -2.5,-3.328 -3.34,-4.172 -3.33,-4.156 -3.33,-3.344 -3.34,-4.156 -3.33,-4.172 -3.33,-3.328 -3.34,-4.172 -3.33,-4.172 -3.33,-3.328 -3.34,-4.172 -3.33,-3.328 -3.33,-4.172 -3.34,-3.328 -4.16,-4.172 -3.34,-3.328 -3.33,-4.172 -3.33,-3.328 -3.34,-4.172 -4.16,-3.328 -3.34,-4.172 -3.33,-3.328 -4.17,-4.172 -3.33,-3.328 -3.33,-3.328 -4.17,-4.172 -3.33,-3.328 -4.17,-3.344 -3.33,-4.156 -3.34,-3.344 -4.16,-3.328 -3.34,-4.172 -4.16,-3.328 -3.34,-3.328 -4.16,-3.344 -4.17,-4.156 -3.33,-3.344 -4.17,-3.328 -3.33,-3.328 -4.17,-3.344 -4.17,-3.328 -3.33,-4.172 -4.17,-3.328 -4.16,-3.328 -4.17,-3.344 -3.33,-3.328 -4.17,-3.328 -4.17,-3.344 -4.16,-3.328 -4.17,-3.328 -4.17,-3.344 -4.16,-3.328 -3.34,-3.328 -4.16,-3.344 -4.17,-3.328 -4.17,-3.328 -4.16,-3.344 -4.17,-3.328 -4.17,-3.328 -4.16,-2.5 -4.17,-3.344 -5,-3.328 -4.17,-3.328 -4.16,-3.344 -4.17,-2.5 -4.17,-3.328 -4.16,-3.328 -4.17,-3.344 -5,-2.5 -4.17,-3.328 -4.16,-3.328 -4.17,-2.5 -5,-3.344 -4.17,-2.5 -4.16,-3.328 -5,-3.328 -4.17,-2.5 -4.17,-3.344 -5,-2.5 -4.16,-3.328 -5,-2.5 -4.17,-3.328 -5,-2.5 -4.17,-3.34 -5,-2.5 -4.16,-2.5 -5,-3.332 -4.17,-2.5 -5,-3.328 -5,-2.5 -4.17,-2.5 -5,-2.5 -4.16,-3.34 -5,-2.5 -5,-2.5 -5,-2.5 -4.17,-3.332 -5,-2.5 -5,-2.5 -5,-2.5 -4.17,-2.5 -5,-2.5 -5,-2.5 -5,-3.328 -5,-2.5 -5,-2.5 -4.16,-2.5 -5,-2.5 -5,-2.5 -5,-2.5 -5,-1.672 -5,-2.5 -5,-2.5 -5,-2.5 -5,-2.5 -5,-2.5 -5,-2.5 -5,-1.668 -5.84,-2.5 -5,-2.5 -5,-2.5 -5,-1.66 -5,-2.5 -5,-2.5 -5.83,-1.672 -5,-2.5 -5,-2.5 -5,-1.668 -5.83,-2.5 -5,-1.66 -5,-2.5 -5,-2.5 -5.84,-1.672 -5,-1.668 -5,-2.5 m 0,0 -5.83,-1.66 -5,-2.5 -5.83,-1.672 -5,-2.5 -5.84,-1.668 -5,-1.66 -5,-2.5 -5.83,-1.672 -5,-1.668 -5.83,-1.66 -5,-2.5 -5.84,-1.672 -5.83,-1.668 -5,-1.66 -5.83,-1.672 -5,-1.668 -5.84,-1.66 -5.83,-2.5 -5,-1.672 -5.83,-1.668 -5.84,-1.66 -5,-1.672 -5.83,-1.668 -5.83,-0.832 -5.84,-1.668 -5,-1.66 -5.83,-1.672 -5.83,-1.668 -5.84,-1.66 -5.83,-1.672 -5,-0.828 -5.83,-1.672 -5.84,-1.668 -5.83,-1.66 -5.83,-0.84 -5.84,-1.66 -5.83,-1.672 -5.83,-0.828 -5.84,-1.672 -5.83,-1.668 -5,-0.832 -5.83,-1.668 -5.84,-0.832 -6.66,-1.668 -5.84,-0.832 -5.83,-1.668 -5.83,-0.832 -5.84,-0.828 -5.83,-1.672 -5.83,-0.828 -5.84,-1.672 -5.83,-0.828 -5.83,-0.84 -5.84,-0.832 -6.66,-1.668 -5.84,-0.832 -5.83,-0.828 -5.83,-0.84 -5.84,-0.832 -6.66,-1.668 -5.84,-0.832 -5.83,-0.828 -5.83,-0.84 -6.67,-0.832 -5.83,-0.84 -5.84,-0.828 -6.66,-0.832 -5.84,-0.84 -5.83,-0.828 h -6.67 l -5.83,-0.832 -6.67,-0.84 -5.83,-0.828 -5.83,-0.832 -6.67,-0.84 h -5.83 l -6.67,-0.828 -5.83,-0.832 h -6.67 l -5.83,-0.84 -6.67,-0.828 h -5.83 l -6.67,-0.832 h -5.83 l -6.67,-0.84 h -5.83 l -6.67,-0.828 H -395 l -5.83,-0.832 h -6.67 l -5.83,-0.84 h -13.33 l -5.84,-0.828 h -19.16 l -6.67,-0.832 H -562.5 l -6.66,0.832 h -20 l -6.67,0.828 h -13.33 l -6.67,0.84 h -6.67 l -6.66,0.832 h -6.67 l -6.67,0.828 h -6.66 l -6.67,0.84 h -6.67 l -6.66,0.832 h -6.67 l -6.67,0.828 -6.66,0.84 h -6.67 l -6.67,0.832 -6.66,0.828 -7.5,0.84 -6.67,0.832 H -730 l -6.66,0.828 -6.67,0.84 -6.67,0.832 -7.5,0.84 -6.66,0.828 -6.67,0.832 -6.67,0.84 -6.66,0.828 -7.5,0.832 -6.67,0.84 -6.67,0.828 -6.66,0.832 -7.5,0.84 -6.67,1.66 -6.67,0.84 -7.5,0.828 -6.66,0.832 -6.67,1.668 -7.5,0.832 -6.67,0.84 -6.66,1.66 -7.5,0.84 -6.67,1.66 -7.5,0.84 -6.67,0.828 -6.66,1.672 -7.5,1.66 -6.67,0.84 -7.5,1.66 -6.67,0.84 -7.5,1.66 -6.66,1.668 -6.67,0.832 -7.5,1.668 -6.67,1.672 -7.5,0.828 -6.66,1.672 -7.5,1.66 -7.5,1.668 -6.67,1.672 -7.5,1.66 -6.67,1.668 -7.5,1.672 -6.66,1.66 -7.5,1.668 -6.67,1.672 -7.5,1.66 -7.5,1.668 -6.67,1.672 -7.5,1.66 -7.5,1.668 -6.66,1.672 -7.5,2.5 -7.5,1.66 -6.67,1.668 -7.5,1.672 -7.5,2.5 -6.67,1.66 15,55 15.84,53.34 15.83,51.656 16.67,50.844 16.66,50 17.5,48.328 17.5,46.672 18.34,45.828 18.33,45 19.17,42.5 19.16,42.5 19.17,40 20,40 20,37.5 20.83,36.67 20.84,35.83 20.83,34.17 20.83,33.33 21.67,31.67 20.83,30 21.67,29.16 21.67,27.5 21.66,26.67 21.67,25.83 21.67,24.17 21.66,22.5 21.67,21.67 21.67,20 21.66,20 20.84,17.5 20.83,17.5 20.83,15.83 20.84,14.17 20,14.16 20,12.5 19.16,11.67 19.17,10.83 18.33,10 18.34,9.17 18.33,7.5 16.67,7.5 17.5,6.67 15.83,5.83 15.83,5 15,4.17 15,4.16 14.17,3.34 13.33,2.5 13.34,1.66 12.5,2.5 12.5,0.84 11.66,0.83 10.84,0.83 h 29.16 l 9.17,-0.83 8.33,-0.83 8.34,-0.84 7.5,-0.83 7.5,-1.67 6.66,-1.66 5.84,-0.84 6.66,-1.66 5,-1.67 5.84,-1.67 4.16,-1.66 5,-1.67 4.17,-1.67 4.17,-1.66 3.33,-1.67 4.17,-1.67 2.5,-1.66 3.33,-1.67 2.5,-1.67 2.5,-1.66 2.5,-1.67 2.5,-1.67 2.5,-0.83 1.67,-1.67 1.66,-0.83 1.67,-1.67 1.67,-0.83 0.83,-1.67 1.67,-0.83 0.83,-1.67 1.67,-0.83 0.83,-0.83 L -10,15 -9.16,14.17 -8.33,13.34 -7.5,12.5 V 11.67 L -6.66,10.84 -5,9.17 V 8.34 L -4.16,7.5 -2.5,5.84 V 4.17 L -0.83,2.5 V 0.84 L 0,0"
             style="fill:none;stroke:#3b4ba7;stroke-width:30;stroke-linecap:butt;stroke-linejoin:round;stroke-miterlimit:10;stroke-dasharray:none;stroke-opacity:1"
             id="path214"
             inkscape:connector-curvature="0" /></g></g></g><g
       id="g216"
       transform="scale(0.1)"><g
         id="g218"
         clip-path="url(#clipPath222)"><g
           id="g224"
           transform="translate(1313.33,2120.3799)"><path
             d="M 0,0 -7.5,172.96 120,86.48"
             style="fill:none;stroke:#3b4ba7;stroke-width:30;stroke-linecap:butt;stroke-linejoin:round;stroke-miterlimit:10;stroke-dasharray:none;stroke-opacity:1"
             id="path226"
             inkscape:connector-curvature="0" /></g><g
           id="g228"
           transform="translate(1285.5601,1046.66)"><path
             d="M 0,0 121.11,110.84 V -33.33"
             style="fill:none;stroke:#3b4ba7;stroke-width:30;stroke-linecap:butt;stroke-linejoin:round;stroke-miterlimit:10;stroke-dasharray:none;stroke-opacity:1"
             id="path230"
             inkscape:connector-curvature="0" /></g><g
           id="g232"
           transform="translate(2831.6699,740.828)"><path
             d="M 0,0 61.67,124.172"
             style="fill:none;stroke:#3b4ba7;stroke-width:30;stroke-linecap:butt;stroke-linejoin:round;stroke-miterlimit:10;stroke-dasharray:none;stroke-opacity:1"
             id="path234"
             inkscape:connector-curvature="0" /></g><g
           id="g236"
           transform="translate(2831.6699,740.828)"><path
             d="M 0,0 148.32,32.5"
             style="fill:none;stroke:#3b4ba7;stroke-width:30;stroke-linecap:butt;stroke-linejoin:round;stroke-miterlimit:10;stroke-dasharray:none;stroke-opacity:1"
             id="path238"
             inkscape:connector-curvature="0" /></g></g></g><text
       transform="matrix(1,0,0,-1,233.334,276.387)"
       style="font-variant:normal;font-weight:normal;font-size:18px;font-family:MyriadPro;-inkscape-font-specification:MyriadPro-Regular;writing-mode:lr-tb;fill:#100f0d;fill-opacity:1;fill-rule:nonzero;stroke:none"
       id="text246"><tspan
         x="0 4.4814062 19.493406 24.38991 36.01791"
         y="0"
         sodipodi:role="line"
         id="tspan240">Im(G)</tspan><tspan
         x="102.749 112.50489 121.5229 126.41929 138.04729"
         y="107.501"
         sodipodi:role="line"
         id="tspan242">Re(G)</tspan><tspan
         x="-2.556 9.9359999 20.664"
         y="131.66701"
         sodipodi:role="line"
         id="tspan244">ω=∞</tspan></text>
<g
       id="g248"
       transform="scale(0.1)"><g
         id="g250"
         clip-path="url(#clipPath254)"><g
           id="g256"
           transform="translate(2253.3301,347.5)"><path
             d="M 0,0 V 2533.34"
             style="fill:#100f0d;fill-opacity:1;fill-rule:nonzero;stroke:none"
             id="path258"
             inkscape:connector-curvature="0" /></g></g></g><text
       transform="matrix(1,0,0,-1,179.403,199.258)"
       style="font-variant:normal;font-weight:normal;font-size:18px;font-family:MyriadPro;-inkscape-font-specification:MyriadPro-Regular;writing-mode:lr-tb;fill:#100f0d;fill-opacity:1;fill-rule:nonzero;stroke:none"
       id="text262"><tspan
         x="0 12.492 23.219999"
         y="0"
         sodipodi:role="line"
         id="tspan260">ω=1</tspan></text>
<g
       id="g264"
       transform="scale(0.1)"><g
         id="g266"
         clip-path="url(#clipPath270)"><g
           id="g272"
           transform="translate(2253.3301,347.5)"><path
             d="M 0,0 V 2533.34"
             style="fill:none;stroke:#100f0d;stroke-width:10;stroke-linecap:butt;stroke-linejoin:miter;stroke-miterlimit:10;stroke-dasharray:none;stroke-opacity:1"
             id="path274"
             inkscape:connector-curvature="0" /></g><g
           id="g276"
           transform="translate(545.836,1630.83)"><path
             d="M 0,0 H 3254.164"
             style="fill:none;stroke:#100f0d;stroke-width:10;stroke-linecap:butt;stroke-linejoin:miter;stroke-miterlimit:10;stroke-dasharray:none;stroke-opacity:1"
             id="path278"
             inkscape:connector-curvature="0" /></g><g
           id="g280"
           transform="translate(1866.67,1961.65)"><path
             d="M 0,0 V -261.65"
             style="fill:none;stroke:#100f0d;stroke-width:10;stroke-linecap:butt;stroke-linejoin:miter;stroke-miterlimit:10;stroke-dasharray:none;stroke-opacity:1"
             id="path282"
             inkscape:connector-curvature="0" /></g></g></g><text
       transform="matrix(1,0,0,-1,67.446,46.188)"
       style="font-variant:normal;font-weight:normal;font-size:18px;font-family:MyriadPro;-inkscape-font-specification:MyriadPro-Regular;writing-mode:lr-tb;fill:#100f0d;fill-opacity:1;fill-rule:nonzero;stroke:none"
       id="text286"><tspan
         x="0 12.492 23.219999"
         y="0"
         sodipodi:role="line"
         id="tspan284">ω=0</tspan></text>
<text
       transform="matrix(1,0,0,-1,99.899,52.182)"
       style="font-variant:normal;font-weight:normal;font-size:10.49400043px;font-family:MyriadPro;-inkscape-font-specification:MyriadPro-Regular;writing-mode:lr-tb;fill:#100f0d;fill-opacity:1;fill-rule:nonzero;stroke:none"
       id="text290"><tspan
         x="0"
         y="0"
         id="tspan288">+</tspan></text>
<g
       id="g292"
       transform="scale(0.1)"><g
         id="g294"
         clip-path="url(#clipPath298)"><g
           id="g300"
           transform="translate(1895.83,1628.33)"><path
             d="m 0,0 c 0,-16.11 -13.42,-29.16 -30,-29.16 -16.57,0 -30,13.05 -30,29.16 0,16.12 13.43,29.17 30,29.17 C -13.42,29.17 0,16.12 0,0"
             style="fill:#100f0d;fill-opacity:1;fill-rule:nonzero;stroke:none"
             id="path302"
             inkscape:connector-curvature="0" /></g></g></g><text
       transform="matrix(1,0,0,-1,67.446,272.426)"
       style="font-variant:normal;font-weight:normal;font-size:18px;font-family:MyriadPro;-inkscape-font-specification:MyriadPro-Regular;writing-mode:lr-tb;fill:#100f0d;fill-opacity:1;fill-rule:nonzero;stroke:none"
       id="text306"><tspan
         x="0 12.492 23.219999"
         y="0"
         sodipodi:role="line"
         id="tspan304">ω=0</tspan></text>
<text
       transform="matrix(1,0,0,-1,99.899,278.42)"
       style="font-variant:normal;font-weight:normal;font-size:10.49400043px;font-family:MyriadPro;-inkscape-font-specification:MyriadPro-Regular;writing-mode:lr-tb;fill:#100f0d;fill-opacity:1;fill-rule:nonzero;stroke:none"
       id="text310"><tspan
         x="0"
         y="0"
         id="tspan308">-</tspan></text>
<text
       transform="matrix(1,0,0,-1,179.403,138.477)"
       style="font-variant:normal;font-weight:normal;font-size:14px;font-family:MyriadPro;-inkscape-font-specification:MyriadPro-Regular;writing-mode:lr-tb;fill:#100f0d;fill-opacity:1;fill-rule:nonzero;stroke:none"
       id="text314"><tspan
         x="0 7.1820002 10.08"
         y="0"
         sodipodi:role="line"
         id="tspan312">0.5</tspan></text>
</g></svg>