<?xml version="1.0" encoding="UTF-8" standalone="no"?>
<!-- Created with Inkscape (http://www.inkscape.org/) -->

<svg
   xmlns:dc="http://purl.org/dc/elements/1.1/"
   xmlns:cc="http://creativecommons.org/ns#"
   xmlns:rdf="http://www.w3.org/1999/02/22-rdf-syntax-ns#"
   xmlns:svg="http://www.w3.org/2000/svg"
   xmlns="http://www.w3.org/2000/svg"
   xmlns:sodipodi="http://sodipodi.sourceforge.net/DTD/sodipodi-0.dtd"
   xmlns:inkscape="http://www.inkscape.org/namespaces/inkscape"
   version="1.1"
   id="svg2"
   xml:space="preserve"
   width="448.27945"
   height="336.68234"
   viewBox="0 0 448.27945 336.68234"
   sodipodi:docname="root-locus2.svg"
   inkscape:version="0.92.0 r15299"><metadata
     id="metadata8"><rdf:RDF><cc:Work
         rdf:about=""><dc:format>image/svg+xml</dc:format><dc:type
           rdf:resource="http://purl.org/dc/dcmitype/StillImage" /><dc:title></dc:title></cc:Work></rdf:RDF></metadata><defs
     id="defs6"><clipPath
       clipPathUnits="userSpaceOnUse"
       id="clipPath18"><path
         d="M 0,3150 V 0 h 4199.17 v 3150 z"
         id="path16"
         inkscape:connector-curvature="0" /></clipPath><clipPath
       clipPathUnits="userSpaceOnUse"
       id="clipPath44"><path
         d="M 0,3150 V 0 h 4199.17 v 3150 z"
         id="path42"
         inkscape:connector-curvature="0" /></clipPath><clipPath
       clipPathUnits="userSpaceOnUse"
       id="clipPath64"><path
         d="M 0,3150 V 0 h 4199.17 v 3150 z"
         id="path62"
         inkscape:connector-curvature="0" /></clipPath><clipPath
       clipPathUnits="userSpaceOnUse"
       id="clipPath80"><path
         d="M 0,3150 V 0 h 4199.17 v 3150 z"
         id="path78"
         inkscape:connector-curvature="0" /></clipPath><clipPath
       clipPathUnits="userSpaceOnUse"
       id="clipPath96"><path
         d="M 0,3150 V 0 h 4199.17 v 3150 z"
         id="path94"
         inkscape:connector-curvature="0" /></clipPath><clipPath
       clipPathUnits="userSpaceOnUse"
       id="clipPath112"><path
         d="M 0,3150 V 0 h 4199.17 v 3150 z"
         id="path110"
         inkscape:connector-curvature="0" /></clipPath><clipPath
       clipPathUnits="userSpaceOnUse"
       id="clipPath128"><path
         d="M 0,3150 V 0 h 4199.17 v 3150 z"
         id="path126"
         inkscape:connector-curvature="0" /></clipPath><clipPath
       clipPathUnits="userSpaceOnUse"
       id="clipPath144"><path
         d="M 0,3150 V 0 h 4199.17 v 3150 z"
         id="path142"
         inkscape:connector-curvature="0" /></clipPath><clipPath
       clipPathUnits="userSpaceOnUse"
       id="clipPath168"><path
         d="M 0,3150 V 0 h 4199.17 v 3150 z"
         id="path166"
         inkscape:connector-curvature="0" /></clipPath><clipPath
       clipPathUnits="userSpaceOnUse"
       id="clipPath186"><path
         d="M 0,3150 V 0 h 4199.17 v 3150 z"
         id="path184"
         inkscape:connector-curvature="0" /></clipPath><clipPath
       clipPathUnits="userSpaceOnUse"
       id="clipPath202"><path
         d="M 0,3150 V 0 h 4199.17 v 3150 z"
         id="path200"
         inkscape:connector-curvature="0" /></clipPath><clipPath
       clipPathUnits="userSpaceOnUse"
       id="clipPath218"><path
         d="M 0,3150 V 0 h 4199.17 v 3150 z"
         id="path216"
         inkscape:connector-curvature="0" /></clipPath><clipPath
       clipPathUnits="userSpaceOnUse"
       id="clipPath230"><path
         d="M 635.836,345.832 H 3800.83 V 2763.34 H 635.836 V 345.832"
         id="path228"
         inkscape:connector-curvature="0" /></clipPath><clipPath
       clipPathUnits="userSpaceOnUse"
       id="clipPath246"><path
         d="m 2261.67,1462.5 h 184.16 v 184.17 H 2261.67 V 1462.5"
         id="path244"
         inkscape:connector-curvature="0" /></clipPath><clipPath
       clipPathUnits="userSpaceOnUse"
       id="clipPath258"><path
         d="M 2351.67,1462.5 H 3440 v 184.17 H 2351.67 V 1462.5"
         id="path256"
         inkscape:connector-curvature="0" /></clipPath><clipPath
       clipPathUnits="userSpaceOnUse"
       id="clipPath270"><path
         d="M 635.836,345.832 H 3800.83 V 2763.34 H 635.836 V 345.832"
         id="path268"
         inkscape:connector-curvature="0" /></clipPath><clipPath
       clipPathUnits="userSpaceOnUse"
       id="clipPath292"><path
         d="M 0,3150 V 0 h 4199.17 v 3150 z"
         id="path290"
         inkscape:connector-curvature="0" /></clipPath></defs><sodipodi:namedview
     pagecolor="#ffffff"
     bordercolor="#666666"
     borderopacity="1"
     objecttolerance="10"
     gridtolerance="10"
     guidetolerance="10"
     inkscape:pageopacity="0"
     inkscape:pageshadow="2"
     inkscape:window-width="640"
     inkscape:window-height="480"
     id="namedview4"
     showgrid="false"
     fit-margin-top="0"
     fit-margin-left="0"
     fit-margin-right="0"
     fit-margin-bottom="0"
     inkscape:zoom="0.22348485"
     inkscape:cx="266.2065"
     inkscape:cy="495.57034"
     inkscape:window-x="0"
     inkscape:window-y="0"
     inkscape:window-maximized="0"
     inkscape:current-layer="g10" /><g
     id="g10"
     inkscape:groupmode="layer"
     inkscape:label="A9R104j7pp_fwqwzi_7g4"
     transform="matrix(1.3333333,0,0,-1.3333333,-63.488415,369.112)"><g
       id="g12"
       transform="scale(0.1)"><g
         id="g14"
         clip-path="url(#clipPath18)"><path
           d="m 635.836,346.672 h 3164.16 v 2416.66 H 635.836 Z"
           style="fill:#ffffff;fill-opacity:1;fill-rule:evenodd;stroke:none"
           id="path20"
           inkscape:connector-curvature="0" /><g
           id="g22"
           transform="translate(640.836,346.672)"><path
             d="M 0,0 V 2411.668 H 3154.164 V 5 H -5 V -5 h 3164.164 c 1.32,0 2.6,0.527 3.53,1.469 0.94,0.929 1.47,2.211 1.47,3.531 v 2416.668 c 0,1.31 -0.53,2.6 -1.47,3.53 -0.93,0.93 -2.21,1.47 -3.53,1.47 H -5 c -1.316,0 -2.606,-0.54 -3.535,-1.47 -0.934,-0.93 -1.465,-2.22 -1.465,-3.53 V 0 H 0"
             style="fill:#ffffff;fill-opacity:1;fill-rule:nonzero;stroke:none"
             id="path24"
             inkscape:connector-curvature="0" /></g><g
           id="g26"
           transform="translate(630.836,2763.3401)"><path
             d="M 0,0 V -30.84 H 10 V 0 H 0 m 10,-2416.668 v 31.66 H 0 v -31.66 h 10 m 0,0 V 0 H 0 v -2416.668 h 10 m -5,-5 h 3164.164 v 10 H 5 v -10 m 5,5 V 0 H 0 v -2416.668 h 10 m 3164.164,0 V 0 h -10 v -2416.668 h 10 M 5,-2421.668 h 3164.164 v 10 H 5 v -10 M 5,-5 H 3169.164 V 5 H 5 V -5"
             style="fill:#7b7979;fill-opacity:1;fill-rule:nonzero;stroke:none"
             id="path28"
             inkscape:connector-curvature="0" /></g><g
           id="g30"
           transform="translate(1082.5,2763.3401)"><path
             d="M 0,0 V -30.84 H 10 V 0 Z m 10,-2416.668 v 31.66 H 0 v -31.66"
             style="fill:#7b7979;fill-opacity:1;fill-rule:nonzero;stroke:none"
             id="path32"
             inkscape:connector-curvature="0" /></g></g></g><text
       transform="matrix(1,0,0,-1,54.507,24.42)"
       style="font-variant:normal;font-weight:normal;font-size:8px;font-family:Helvetica;-inkscape-font-specification:Helvetica;writing-mode:lr-tb;fill:#7a7d82;fill-opacity:1;fill-rule:nonzero;stroke:none"
       id="text36"><tspan
         x="0 4.7680001 8.8719997"
         y="0"
         sodipodi:role="line"
         id="tspan34">−20</tspan></text>
<g
       id="g38"
       transform="scale(0.1)"><g
         id="g40"
         clip-path="url(#clipPath44)"><g
           id="g46"
           transform="translate(1534.17,2763.3401)"><path
             d="M 0,0 V -30.84 H 10 V 0 Z m 10,-2416.668 v 31.66 H 0 v -31.66"
             style="fill:#7b7979;fill-opacity:1;fill-rule:nonzero;stroke:none"
             id="path48"
             inkscape:connector-curvature="0" /></g></g></g><text
       transform="matrix(1,0,0,-1,99.671,24.42)"
       style="font-variant:normal;font-weight:normal;font-size:8px;font-family:Helvetica;-inkscape-font-specification:Helvetica;writing-mode:lr-tb;fill:#7a7d82;fill-opacity:1;fill-rule:nonzero;stroke:none"
       id="text52"><tspan
         x="0"
         y="0"
         id="tspan50">−</tspan></text>
<text
       transform="matrix(1,0,0,-1,104.4391,24.4199)"
       style="font-variant:normal;font-weight:normal;font-size:8px;font-family:Helvetica;-inkscape-font-specification:Helvetica;writing-mode:lr-tb;fill:#7a7d82;fill-opacity:1;fill-rule:nonzero;stroke:none"
       id="text56"><tspan
         x="0 4.1040001"
         y="0"
         sodipodi:role="line"
         id="tspan54">15</tspan></text>
<g
       id="g58"
       transform="scale(0.1)"><g
         id="g60"
         clip-path="url(#clipPath64)"><g
           id="g66"
           transform="translate(1986.67,2763.3401)"><path
             d="M 0,0 V -30.84 H 10 V 0 Z m 10,-2416.668 v 31.66 H 0 v -31.66"
             style="fill:#7b7979;fill-opacity:1;fill-rule:nonzero;stroke:none"
             id="path68"
             inkscape:connector-curvature="0" /></g></g></g><text
       transform="matrix(1,0,0,-1,144.829,24.42)"
       style="font-variant:normal;font-weight:normal;font-size:8px;font-family:Helvetica;-inkscape-font-specification:Helvetica;writing-mode:lr-tb;fill:#7a7d82;fill-opacity:1;fill-rule:nonzero;stroke:none"
       id="text72"><tspan
         x="0 4.7680001 8.8719997 47.5 52.268002"
         y="0"
         sodipodi:role="line"
         id="tspan70">−10−5</tspan></text>
<g
       id="g74"
       transform="scale(0.1)"><g
         id="g76"
         clip-path="url(#clipPath80)"><g
           id="g82"
           transform="translate(2438.3301,2763.3401)"><path
             d="M 0,0 V -30.84 H 10 V 0 Z m 10,-2416.668 v 31.66 H 0 v -31.66"
             style="fill:#7b7979;fill-opacity:1;fill-rule:nonzero;stroke:none"
             id="path84"
             inkscape:connector-curvature="0" /></g></g></g><text
       transform="matrix(1,0,0,-1,242.171,24.42)"
       style="font-variant:normal;font-weight:normal;font-size:8px;font-family:Helvetica;-inkscape-font-specification:Helvetica;writing-mode:lr-tb;fill:#7a7d82;fill-opacity:1;fill-rule:nonzero;stroke:none"
       id="text88"><tspan
         x="0"
         y="0"
         id="tspan86">0</tspan></text>
<g
       id="g90"
       transform="scale(0.1)"><g
         id="g92"
         clip-path="url(#clipPath96)"><g
           id="g98"
           transform="translate(2890.8301,2763.3401)"><path
             d="M 0,0 V -30.84 H 10 V 0 Z m 10,-2416.668 v 31.66 H 0 v -31.66"
             style="fill:#7b7979;fill-opacity:1;fill-rule:nonzero;stroke:none"
             id="path100"
             inkscape:connector-curvature="0" /></g></g></g><text
       transform="matrix(1,0,0,-1,287.423,24.42)"
       style="font-variant:normal;font-weight:normal;font-size:8px;font-family:Helvetica;-inkscape-font-specification:Helvetica;writing-mode:lr-tb;fill:#7a7d82;fill-opacity:1;fill-rule:nonzero;stroke:none"
       id="text104"><tspan
         x="0"
         y="0"
         id="tspan102">5</tspan></text>
<g
       id="g106"
       transform="scale(0.1)"><g
         id="g108"
         clip-path="url(#clipPath112)"><g
           id="g114"
           transform="translate(3342.5,2763.3401)"><path
             d="M 0,0 V -30.84 H 10 V 0 Z m 10,-2416.668 v 31.66 H 0 v -31.66"
             style="fill:#7b7979;fill-opacity:1;fill-rule:nonzero;stroke:none"
             id="path116"
             inkscape:connector-curvature="0" /></g></g></g><text
       transform="matrix(1,0,0,-1,330.335,24.42)"
       style="font-variant:normal;font-weight:normal;font-size:8px;font-family:Helvetica;-inkscape-font-specification:Helvetica;writing-mode:lr-tb;fill:#7a7d82;fill-opacity:1;fill-rule:nonzero;stroke:none"
       id="text120"><tspan
         x="0 4.1040001"
         y="0"
         sodipodi:role="line"
         id="tspan118">10</tspan></text>
<g
       id="g122"
       transform="scale(0.1)"><g
         id="g124"
         clip-path="url(#clipPath128)"><g
           id="g130"
           transform="translate(3795,2763.3401)"><path
             d="M 0,0 V -30.84 H 10 V 0 Z m 10,-2416.668 v 31.66 H 0 v -31.66"
             style="fill:#7b7979;fill-opacity:1;fill-rule:nonzero;stroke:none"
             id="path132"
             inkscape:connector-curvature="0" /></g></g></g><text
       transform="matrix(1,0,0,-1,375.593,24.42)"
       style="font-variant:normal;font-weight:normal;font-size:8px;font-family:Helvetica;-inkscape-font-specification:Helvetica;writing-mode:lr-tb;fill:#7a7d82;fill-opacity:1;fill-rule:nonzero;stroke:none"
       id="text136"><tspan
         x="0 4.1040001"
         y="0"
         sodipodi:role="line"
         id="tspan134">15</tspan></text>
<g
       id="g138"
       transform="scale(0.1)"><g
         id="g140"
         clip-path="url(#clipPath144)"><g
           id="g146"
           transform="translate(3800,656.672)"><path
             d="M 0,0 H -31.67 V -10 H 0 Z m -3164.164,-10 h 30.828 V 0 h -30.828"
             style="fill:#7b7979;fill-opacity:1;fill-rule:nonzero;stroke:none"
             id="path148"
             inkscape:connector-curvature="0" /></g><g
           id="g150"
           transform="translate(3800,1108.33)"><path
             d="M 0,0 H -31.67 V -10 H 0 Z m -3164.164,-10 h 30.828 V 0 h -30.828"
             style="fill:#7b7979;fill-opacity:1;fill-rule:nonzero;stroke:none"
             id="path152"
             inkscape:connector-curvature="0" /></g></g></g><text
       transform="matrix(1,0,0,-1,47.171,62.248)"
       style="font-variant:normal;font-weight:normal;font-size:8px;font-family:Helvetica;-inkscape-font-specification:Helvetica;writing-mode:lr-tb;fill:#7a7d82;fill-opacity:1;fill-rule:nonzero;stroke:none"
       id="text156"><tspan
         x="0"
         y="0"
         id="tspan154">−</tspan></text>
<text
       transform="matrix(1,0,0,-1,51.9391,62.248)"
       style="font-variant:normal;font-weight:normal;font-size:8px;font-family:Helvetica;-inkscape-font-specification:Helvetica;writing-mode:lr-tb;fill:#7a7d82;fill-opacity:1;fill-rule:nonzero;stroke:none"
       id="text160"><tspan
         x="0 4.1040001"
         y="0"
         sodipodi:role="line"
         id="tspan158">10</tspan></text>
<g
       id="g162"
       transform="scale(0.1)"><g
         id="g164"
         clip-path="url(#clipPath168)"><g
           id="g170"
           transform="translate(3800,1560)"><path
             d="M 0,0 H -31.67 V -10 H 0 V 0 m -3164.164,-10 h 30.828 V 0 h -30.828 v -10"
             style="fill:#7b7979;fill-opacity:1;fill-rule:nonzero;stroke:none"
             id="path172"
             inkscape:connector-curvature="0" /></g></g></g><text
       transform="matrix(1,0,0,-1,51.585,107.431)"
       style="font-variant:normal;font-weight:normal;font-size:8px;font-family:Helvetica;-inkscape-font-specification:Helvetica;writing-mode:lr-tb;fill:#7a7d82;fill-opacity:1;fill-rule:nonzero;stroke:none"
       id="text178"><tspan
         x="0 4.7680001"
         y="0"
         sodipodi:role="line"
         id="tspan174">−5</tspan><tspan
         x="4.671"
         y="-45.164001"
         id="tspan176">0</tspan></text>
<g
       id="g180"
       transform="scale(0.1)"><g
         id="g182"
         clip-path="url(#clipPath186)"><g
           id="g188"
           transform="translate(3800,2012.5)"><path
             d="M 0,0 H -31.67 V -10 H 0 Z m -3164.164,-10 h 30.828 V 0 h -30.828"
             style="fill:#7b7979;fill-opacity:1;fill-rule:nonzero;stroke:none"
             id="path190"
             inkscape:connector-curvature="0" /></g></g></g><text
       transform="matrix(1,0,0,-1,56.257,197.826)"
       style="font-variant:normal;font-weight:normal;font-size:8px;font-family:Helvetica;-inkscape-font-specification:Helvetica;writing-mode:lr-tb;fill:#7a7d82;fill-opacity:1;fill-rule:nonzero;stroke:none"
       id="text194"><tspan
         x="0"
         y="0"
         id="tspan192">5</tspan></text>
<g
       id="g196"
       transform="scale(0.1)"><g
         id="g198"
         clip-path="url(#clipPath202)"><g
           id="g204"
           transform="translate(3800,2464.1599)"><path
             d="M 0,0 H -31.67 V -10 H 0 Z m -3164.164,-10 h 30.828 V 0 h -30.828"
             style="fill:#7b7979;fill-opacity:1;fill-rule:nonzero;stroke:none"
             id="path206"
             inkscape:connector-curvature="0" /></g></g></g><text
       transform="matrix(1,0,0,-1,51.843,243.006)"
       style="font-variant:normal;font-weight:normal;font-size:8px;font-family:Helvetica;-inkscape-font-specification:Helvetica;writing-mode:lr-tb;fill:#7a7d82;fill-opacity:1;fill-rule:nonzero;stroke:none"
       id="text210"><tspan
         x="0 4.1040001"
         y="0"
         sodipodi:role="line"
         id="tspan208">10</tspan></text>
<g
       id="g212"
       transform="scale(0.1)"><g
         id="g214"
         clip-path="url(#clipPath218)"><g
           id="g220"
           transform="translate(640.836,346.672)"><path
             d="M 0,0 V 2416.668 H -10 V 0 H 0 m 3164.164,0 v 2416.668 h -10 V 0 h 10 M -5,-5 H 3159.164 V 5 H -5 V -5 m 0,2416.668 h 3164.164 v 10 H -5 v -10"
             style="fill:#7b7979;fill-opacity:1;fill-rule:nonzero;stroke:none"
             id="path222"
             inkscape:connector-curvature="0" /></g></g></g><g
       id="g224"
       transform="scale(0.1)"><g
         id="g226"
         clip-path="url(#clipPath230)"><g
           id="g232"
           transform="translate(2458.2,1554.8)"><path
             d="m 0,0 c 0,-8.28 -6.72,-14.99 -15,-14.99 -8.28,0 -15,6.71 -15,14.99 0,8.28 6.72,15 15,15 C -6.72,15 0,8.28 0,0"
             style="fill:#ffffff;fill-opacity:1;fill-rule:nonzero;stroke:none"
             id="path234"
             inkscape:connector-curvature="0" /></g><g
           id="g236"
           transform="translate(2458.3301,345.832)"><path
             d="M 0,0 V 5 H -30 V 0 H 0 m 0,45 v 5 H -30 V 45 H 0 m 0,45 v 5 H -30 V 90 H 0 m 0,45 v 5 h -30 v -5 H 0 m 0,45 v 5 h -30 v -5 H 0 m 0,45 v 5 h -30 v -5 H 0 m 0,44.996 v 5 h -30 v -5 H 0 m 0,45 v 5 h -30 v -5 H 0 m 0,45 v 5 h -30 v -5 H 0 m 0,45 v 5 h -30 v -5 H 0 m 0,45 v 5 h -30 v -5 H 0 m 0,45 v 5 h -30 v -5 H 0 m 0,45 v 5 h -30 v -5 H 0 m 0,45 v 5 h -30 v -5 H 0 m 0,45 v 5 h -30 v -5 H 0 m 0,45.002 v 5 h -30 v -5 H 0 m 0,45 v 5 h -30 v -5 H 0 m 0,45 v 5 h -30 v -5 H 0 m 0,45 v 5 h -30 v -5 H 0 m 0,45 v 5 h -30 v -5 H 0 m 0,45 v 5 h -30 v -5 H 0 m 0,45 v 5 h -30 v -5 H 0 m 0,45 v 5 h -30 v -5 H 0 m 0,45 v 5 h -30 v -5 H 0 m 0,45 v 5 h -30 v -5 H 0 m 0,45 v 5 h -30 v -5 H 0 m 0,45 v 5 h -30 v -5 H 0 m 0,45 v 5 h -30 v -5 H 0 m 0,45 v 5 h -30 v -5 H 0 m 0,45 v 5 h -30 v -5 H 0 m 0,45 v 5 h -30 v -5 H 0 m 0,45 v 5 h -30 v -5 H 0 m 0,45 v 5 h -30 v -5 H 0 m 0,45 v 5 h -30 v -5 H 0 m 0,45 v 5 h -30 v -5 H 0 m 0,45 v 5 h -30 v -5 H 0 m 0,45 v 5 h -30 v -5 H 0 m 0,45 v 5 h -30 v -5 H 0 m 0,45 v 5 h -30 v -5 H 0 m 0,45 v 5 h -30 v -5 H 0 m 0,45 v 5 h -30 v -5 H 0 m 0,45 v 4.99 h -30 v -4.99 H 0 m 0,44.99 v 5 h -30 v -5 H 0 m 0,45 v 5 h -30 v -5 H 0 m 0,45 v 5 h -30 v -5 H 0 m 0,45 v 5.01 h -30 v -5.01 H 0 m 0,45 v 5 h -30 v -5 H 0 m 0,45 v 5 h -30 v -5 H 0 m 0,45 v 5 h -30 v -5 H 0 m 0,45 v 5 h -30 v -5 H 0 m 0,45 v 5 h -30 v -5 H 0 m 0,45 v 5 h -30 v -5 H 0 m 0,45 v 5 h -30 v -5 H 0 m 0,45 v 5 h -30 v -5 H 0 m -1822.494,-1190.82 h 5 v 30 h -5 v -30 m 45,0 h 5 v 30 h -5 v -30 m 45,0 h 5 v 30 h -5 v -30 m 45,0 h 5 v 30 h -5 v -30 m 45,0 h 5 v 30 h -5 v -30 m 45,0 h 5 v 30 h -5 v -30 m 45,0 h 5 v 30 h -5 v -30 m 45,0 h 5 v 30 h -5 v -30 m 45,0 h 5.004 v 30 h -5.004 v -30 m 45.004,0 h 4.99 v 30 h -4.99 v -30 m 44.99,0 h 5 v 30 h -5 v -30 m 45,0 h 5 v 30 h -5 v -30 m 45,0 h 5 v 30 h -5 v -30 m 45,0 h 5 v 30 h -5 v -30 m 45,0 h 5 v 30 h -5 v -30 m 45,0 h 5 v 30 h -5 v -30 m 45,0 h 5 v 30 h -5 v -30 m 45,0 h 5 v 30 h -5 v -30 m 45,0 h 5 v 30 h -5 v -30 m 45,0 h 5 v 30 h -5 v -30 m 45,0 h 5 v 30 h -5 v -30 m 45,0 h 5 v 30 h -5 v -30 m 45,0 h 5 v 30 h -5 v -30 m 45,0 h 5 v 30 h -5 v -30 m 45,0 h 5 v 30 h -5 v -30 m 45,0 h 5 v 30 h -5 v -30 m 45,0 h 5 v 30 h -5 v -30 m 45,0 h 5 v 30 h -5 v -30 m 45,0 h 5 v 30 h -5 v -30 m 45,0 h 5 v 30 h -5 v -30 m 45,0 h 5 v 30 h -5 v -30 m 45,0 h 5 v 30 h -5 v -30 m 45,0 h 5 v 30 h -5 v -30 m 45,0 h 5 v 30 h -5 v -30 m 45,0 h 5 v 30 h -5 v -30 m 45,0 h 5 v 30 h -5 v -30 m 45,0 h 5 v 30 h -5 v -30 m 45,0 h 5 v 30 h -5 v -30 m 45,0 h 5 v 30 h -5 v -30 m 45,0 h 5 v 30 h -5 v -30 m 45,0 h 5 v 30 h -5 v -30 m 45,0 h 5 v 30 h -5 v -30 m 45,0 h 5 v 30 h -5 v -30 m 45,0 h 5 v 30 h -5 v -30 m 45,0 h 5 v 30 h -5 v -30 m 45,0 h 5 v 30 h -5 v -30 m 45,0 h 5 v 30 h -5 v -30 m 45,0 h 5 v 30 h -5 v -30 m 45,0 h 5 v 30 h -5 v -30 m 45,0 h 5 v 30 h -5 v -30 m 45,0 h 5 v 30 h -5 v -30 m 45,0 h 5 v 30 h -5 v -30 m 45,0 h 5 v 30 h -5 v -30 m 45,0 h 5 v 30 h -5 v -30 m 45,0 h 5 v 30 h -5 v -30 m 45,0 h 5 v 30 h -5 v -30 m 45,0 h 5 v 30 h -5 v -30 m 45,0 h 5 v 30 h -5 v -30 m 45,0 h 5 v 30 h -5 v -30 m 45,0 h 5 v 30 h -5 v -30 m 45,0 h 5 v 30 h -5 v -30 m 45,0 h 5 v 30 h -5 v -30 m 45,0 h 5 v 30 h -5 v -30 m 45,0 h 5 v 30 h -5 v -30 m 45,0 h 5 v 30 h -5 v -30 m 45,0 h 5 v 30 h -5 v -30 m 45,0 h 5 v 30 h -5 v -30 m 45,0 h 5 v 30 h -5 v -30 m 45,0 h 5 v 30 h -5 v -30 m 45,0 h 5 v 30 h -5 v -30 m 45,0 h 5 v 30 h -5 v -30"
             style="fill:#7b7979;fill-opacity:1;fill-rule:nonzero;stroke:none"
             id="path238"
             inkscape:connector-curvature="0" /></g></g></g><g
       id="g240"
       transform="scale(0.1)"><g
         id="g242"
         clip-path="url(#clipPath246)"><g
           id="g248"
           transform="translate(2369.3999,1556)"><path
             d="m 0,0 c -0.01,-8.25 -6.75,-14.99 -15,-15 -8.26,0.01 -14.98,6.74 -15,15 0.02,8.26 6.74,14.99 15,15 C -6.74,14.99 -0.01,8.26 0,0 H 30 C 29.99,24.86 9.86,44.98 -15,45 -39.86,44.99 -59.98,24.85 -60,0 c 0.02,-24.85 20.14,-44.99 45,-45 24.86,0.02 44.98,20.14 45,45 H 0"
             style="fill:#3b4ba7;fill-opacity:1;fill-rule:nonzero;stroke:none"
             id="path250"
             inkscape:connector-curvature="0" /></g></g></g><g
       id="g252"
       transform="scale(0.1)"><g
         id="g254"
         clip-path="url(#clipPath258)"><g
           id="g260"
           transform="translate(3357.72,1586.45)"><path
             d="M 0,0 -41.66,-41.67 -20.44,-62.89 21.22,-21.22 0,0 M -41.66,-21.22 0,-62.89 21.22,-41.67 -20.44,0 -41.66,-21.22 M -904.16,0 l -41.67,-41.67 21.22,-21.22 41.67,41.67 L -904.16,0 m -41.67,-21.22 41.67,-41.67 21.22,21.22 -41.67,41.67 -21.22,-21.22"
             style="fill:#3b4ba7;fill-opacity:1;fill-rule:nonzero;stroke:none"
             id="path262"
             inkscape:connector-curvature="0" /></g></g></g><g
       id="g264"
       transform="scale(0.1)"><g
         id="g266"
         clip-path="url(#clipPath270)"><g
           id="g272"
           transform="translate(2443.3301,1545)"><path
             d="m 0,0 h 210 c 2.78,0 5.4,1.13 7.3,3.17 1.9,2.03 2.86,4.71 2.68,7.49 l -0.83,12.5 -0.09,0.81 -10,67.5 -0.43,1.77 -10.83,31.66 -0.48,1.17 -20.84,42.5 -0.8,1.34 -21.66,30.84 -0.61,0.78 -20.84,24.17 -0.83,0.85 -28.33,25.84 -1.02,0.81 -27.5,19.17 -1.3,0.77 -55.83,27.5 -1.34,0.54 -28.34,9.17 -1.06,0.28 -28.33,5.83 -1.42,0.19 -55.83,3.33 -1.53,-0.02 -35.84,-3.34 -1.07,-0.16 -36.66,-7.5 -1.49,-0.42 -35.84,-13.33 -0.98,-0.43 -36.66,-18.34 -1.25,-0.74 -35.84,-25 -1.27,-1.05 -36.66,-35.83 -0.76,-0.84 -18.34,-22.5 -0.72,-0.99 -18.33,-29.17 -0.69,-1.31 -17.5,-40 -0.35,-0.93 -9.17,-28.34 -0.34,-1.41 -9.18,-54.16 -0.13,-1.3 -0.83,-22.5 c -0.1,-2.71 0.91,-5.36 2.79,-7.31 1.89,-1.95 4.49,-3.06 7.21,-3.06 L -90,0 v 20 h -289.62 l 0.42,11.48 8.94,52.8 8.79,27.17 17,38.86 17.61,28.01 17.59,21.59 35.67,34.86 34.56,24.11 35.53,17.77 34.61,12.87 35.37,7.24 34.54,3.21 54.35,-3.24 27.08,-5.58 27.13,-8.78 54.5,-26.84 26.35,-18.36 27.4,-24.99 20.12,-23.34 20.93,-29.78 20.21,-41.23 10.33,-30.2 9.81,-66.19 0.09,-1.44 H 0 V 0"
             style="fill:#3b4ba7;fill-opacity:1;fill-rule:nonzero;stroke:none"
             id="path274"
             inkscape:connector-curvature="0" /></g><g
           id="g276"
           transform="translate(3347.5,1565)"><path
             d="m 0,0 h -694.17 c -5.25,0 -9.6,-4.05 -9.97,-9.29 l -0.81,-11.29 -9.81,-66.22 -10.33,-30.19 -20.21,-41.23 -20.93,-29.8 -20.12,-23.32 -27.4,-25 -26.35,-18.35 -54.5,-26.85 -27.13,-8.78 -27.08,-5.57 -54.35,-3.25 -34.54,3.22 -35.37,7.23 -34.61,12.87 -35.53,17.77 -34.56,24.11 -35.67,34.87 -17.59,21.58 -17.61,28.01 -17,38.86 -8.79,27.18 -8.94,52.8 -0.8,21.02 c -0.21,5.37 -4.62,9.62 -9.99,9.62 h -1417.504 v -20 h 1407.874 l 0.46,-12.05 0.13,-1.29 9.18,-54.16 0.34,-1.41 9.16,-28.34 0.36,-0.93 17.5,-40 0.69,-1.31 18.33,-29.16 0.72,-1 18.34,-22.5 0.76,-0.83 36.66,-35.84 1.27,-1.05 35.84,-25 1.25,-0.74 36.66,-18.33 0.98,-0.43 35.84,-13.33 1.49,-0.43 36.66,-7.5 1.07,-0.16 35.84,-3.34 1.53,-0.02 55.83,3.34 1.42,0.19 28.33,5.83 1.06,0.28 28.34,9.17 1.34,0.54 55.83,27.5 1.3,0.76 27.5,19.17 1.02,0.81 28.33,25.84 0.83,0.86 20.84,24.16 0.61,0.78 21.66,30.84 0.8,1.35 20.84,42.5 0.48,1.16 10.83,31.66 0.43,1.77 10,67.51 0.08,0.75 0.17,2.38 L 0,-20 V 0"
             style="fill:#26813a;fill-opacity:1;fill-rule:nonzero;stroke:none"
             id="path278"
             inkscape:connector-curvature="0" /></g></g></g><text
       transform="matrix(1,0,0,-1,248.841,260.914)"
       style="font-variant:normal;font-weight:normal;font-size:18px;font-family:MyriadPro;-inkscape-font-specification:MyriadPro-Regular;writing-mode:lr-tb;fill:#100f0d;fill-opacity:1;fill-rule:nonzero;stroke:none"
       id="text284"><tspan
         x="0 4.4814959 19.493496 24.605495 31.733496"
         y="0"
         sodipodi:role="line"
         id="tspan280">Im(s)</tspan><tspan
         x="95.158997 104.9148 113.9328 119.0448 126.17281"
         y="93.552002"
         sodipodi:role="line"
         id="tspan282">Re(s)</tspan></text>
<g
       id="g286"
       transform="scale(0.1)"><g
         id="g288"
         clip-path="url(#clipPath292)"><path
           d="m 2438.33,346.672 h 10 v 2416.66 h -10 z"
           style="fill:#100f0d;fill-opacity:1;fill-rule:nonzero;stroke:none"
           id="path294"
           inkscape:connector-curvature="0" /><g
           id="g296"
           transform="translate(3785.8301,1550)"><path
             d="m 0,0 h -40 v 10 h 22.5 V 0 H 0 m -45,0 h -40 v 10 h 40 V 0 m -45,0 h -40 v 10 h 40 V 0 m -45,0 h -40 v 10 h 40 V 0 m -45,0 h -40 v 10 h 40 V 0 m -45,0 h -40 v 10 h 40 V 0 m -45,0 h -40 v 10 h 40 V 0 m -45,0 h -40 v 10 h 40 V 0 m -45,0 h -40 v 10 h 40 V 0 m -45,0 h -7.12 l -5,5.01 4.99,4.99 H -405 V 0"
             style="fill:#959595;fill-opacity:1;fill-rule:nonzero;stroke:none"
             id="path298"
             inkscape:connector-curvature="0" /></g><g
           id="g300"
           transform="translate(3795,1550)"><path
             d="M 0,0 H -4.17 V 10 H 0 V 0 m -9.17,0 h -17.5 v 10 h 17.5 V 0"
             style="fill:#373737;fill-opacity:1;fill-rule:nonzero;stroke:none"
             id="path302"
             inkscape:connector-curvature="0" /></g><path
           d="m 3795,1550 h 5 v 10 h -5 z"
           style="fill:#373737;fill-opacity:1;fill-rule:nonzero;stroke:none"
           id="path304"
           inkscape:connector-curvature="0" /><g
           id="g306"
           transform="translate(3790.8301,1550)"><path
             d="M 0,0 H -5 V 10 H 0 V 0 m -45,0 h -5 v 10 h 5 V 0 m -45,0 h -5 v 10 h 5 V 0 m -45,0 h -5 v 10 h 5 V 0 m -45,0 h -5 v 10 h 5 V 0 m -45,0 h -5 v 10 h 5 V 0 m -45,0 h -5 v 10 h 5 V 0 m -45,0 h -5 v 10 h 5 V 0 m -45,0 h -5 v 10 h 5 V 0 m -45,0 h -5 v 10 h 5 V 0"
             style="fill:#373737;fill-opacity:1;fill-rule:nonzero;stroke:none"
             id="path308"
             inkscape:connector-curvature="0" /></g><g
           id="g310"
           transform="translate(3373.71,1550)"><path
             d="m 0,0 h -26.21 v 10 h 26.2 L -5,5.01 0,0"
             style="fill:#2b3188;fill-opacity:1;fill-rule:nonzero;stroke:none"
             id="path312"
             inkscape:connector-curvature="0" /></g><g
           id="g314"
           transform="translate(2642.95,1550)"><path
             d="M 0,0 H -194.62 V 10 H 1.72 C 0.98,8.73 0.52,7.27 0.41,5.71 L 0,0"
             style="fill:#2b3188;fill-opacity:1;fill-rule:nonzero;stroke:none"
             id="path316"
             inkscape:connector-curvature="0" /></g><g
           id="g318"
           transform="translate(3347.5,1550)"><path
             d="m 0,0 h -704.55 l 0.41,5.71 c 0.11,1.56 0.57,3.02 1.31,4.29 H 0 V 0"
             style="fill:#234921;fill-opacity:1;fill-rule:nonzero;stroke:none"
             id="path320"
             inkscape:connector-curvature="0" /></g><g
           id="g322"
           transform="translate(2417.1201,1550)"><path
             d="m 0,0 h -18.12 c 0.27,1.96 0.4,3.96 0.4,6 v 0 c 0,1.35 -0.06,2.68 -0.17,4 H 0.01 L 5,5.01 0,0 m -48.98,0 h -14.81 v 10 h 15.52 c 0.36,-1.28 0.55,-2.62 0.55,-4 0,-2.13 -0.45,-4.16 -1.26,-6"
             style="fill:#959595;fill-opacity:1;fill-rule:nonzero;stroke:none"
             id="path324"
             inkscape:connector-curvature="0" /></g><g
           id="g326"
           transform="translate(2399,1550)"><path
             d="m 0,0 h -30.86 c 0.81,1.84 1.26,3.87 1.26,6 0,1.38 -0.19,2.72 -0.55,4 H 0.23 C 0.34,8.68 0.4,7.35 0.4,6 V 6 C 0.4,3.96 0.27,1.96 0,0 m 0.4,6 v 0"
             style="fill:#2b3188;fill-opacity:1;fill-rule:nonzero;stroke:none"
             id="path328"
             inkscape:connector-curvature="0" /></g><g
           id="g330"
           transform="translate(2438.3301,1550)"><path
             d="m 0,0 h -21.21 l 5,5.01 L -21.2,10 H 0 V 0"
             style="fill:#2b3188;fill-opacity:1;fill-rule:nonzero;stroke:none"
             id="path332"
             inkscape:connector-curvature="0" /></g><g
           id="g334"
           transform="translate(2353.3301,1550)"><path
             d="m 0,0 h -289.8 l -0.2,5.38 c -0.07,1.68 -0.54,3.25 -1.33,4.62 H 0 V 0"
             style="fill:#2b3188;fill-opacity:1;fill-rule:nonzero;stroke:none"
             id="path336"
             inkscape:connector-curvature="0" /></g><g
           id="g338"
           transform="translate(2063.53,1550)"><path
             d="M 0,0 H -1427.694 V 10 H -1.53 C -0.74,8.63 -0.27,7.06 -0.2,5.38 L 0,0"
             style="fill:#234921;fill-opacity:1;fill-rule:nonzero;stroke:none"
             id="path340"
             inkscape:connector-curvature="0" /></g><path
           d="m 2438.33,1550 h 10 v 10 h -10 z"
           style="fill:#100f0d;fill-opacity:1;fill-rule:nonzero;stroke:none"
           id="path342"
           inkscape:connector-curvature="0" /></g></g><text
       transform="matrix(1,0,0,-1,334.75,139.25)"
       style="font-variant:normal;font-weight:normal;font-size:14px;font-family:MyriadPro;-inkscape-font-specification:MyriadPro-Regular;writing-mode:lr-tb;fill:#100f0d;fill-opacity:1;fill-rule:nonzero;stroke:none"
       id="text348"><tspan
         x="0 7.1820002"
         y="0"
         sodipodi:role="line"
         id="tspan344">10</tspan><tspan
         x="-107.079 -102.781"
         y="2.9400001"
         sodipodi:role="line"
         id="tspan346">-1</tspan></text>
</g></svg>