<?xml version="1.0" encoding="UTF-8" standalone="no"?>
<!-- Created with Inkscape (http://www.inkscape.org/) -->

<svg
   xmlns:dc="http://purl.org/dc/elements/1.1/"
   xmlns:cc="http://creativecommons.org/ns#"
   xmlns:rdf="http://www.w3.org/1999/02/22-rdf-syntax-ns#"
   xmlns:svg="http://www.w3.org/2000/svg"
   xmlns="http://www.w3.org/2000/svg"
   xmlns:sodipodi="http://sodipodi.sourceforge.net/DTD/sodipodi-0.dtd"
   xmlns:inkscape="http://www.inkscape.org/namespaces/inkscape"
   version="1.1"
   id="svg2"
   xml:space="preserve"
   width="559.88934"
   height="420"
   viewBox="0 0 559.88934 420"
   sodipodi:docname="root-locus3.svg"
   inkscape:version="0.92.0 r15299"><metadata
     id="metadata8"><rdf:RDF><cc:Work
         rdf:about=""><dc:format>image/svg+xml</dc:format><dc:type
           rdf:resource="http://purl.org/dc/dcmitype/StillImage" /><dc:title></dc:title></cc:Work></rdf:RDF></metadata><defs
     id="defs6"><clipPath
       clipPathUnits="userSpaceOnUse"
       id="clipPath18"><path
         d="M 0,0 H 4199.17 V 3150 H 0 Z"
         id="path16"
         inkscape:connector-curvature="0" /></clipPath><clipPath
       clipPathUnits="userSpaceOnUse"
       id="clipPath28"><path
         d="M 0,3150 V 0 h 4199.17 v 3150 z"
         id="path26"
         inkscape:connector-curvature="0" /></clipPath><clipPath
       clipPathUnits="userSpaceOnUse"
       id="clipPath54"><path
         d="M 0,3150 V 0 h 4199.17 v 3150 z"
         id="path52"
         inkscape:connector-curvature="0" /></clipPath><clipPath
       clipPathUnits="userSpaceOnUse"
       id="clipPath74"><path
         d="M 0,3150 V 0 h 4199.17 v 3150 z"
         id="path72"
         inkscape:connector-curvature="0" /></clipPath><clipPath
       clipPathUnits="userSpaceOnUse"
       id="clipPath94"><path
         d="M 0,3150 V 0 h 4199.17 v 3150 z"
         id="path92"
         inkscape:connector-curvature="0" /></clipPath><clipPath
       clipPathUnits="userSpaceOnUse"
       id="clipPath110"><path
         d="M 0,3150 V 0 h 4199.17 v 3150 z"
         id="path108"
         inkscape:connector-curvature="0" /></clipPath><clipPath
       clipPathUnits="userSpaceOnUse"
       id="clipPath126"><path
         d="M 0,3150 V 0 h 4199.17 v 3150 z"
         id="path124"
         inkscape:connector-curvature="0" /></clipPath><clipPath
       clipPathUnits="userSpaceOnUse"
       id="clipPath160"><path
         d="M 0,3150 V 0 h 4199.17 v 3150 z"
         id="path158"
         inkscape:connector-curvature="0" /></clipPath><clipPath
       clipPathUnits="userSpaceOnUse"
       id="clipPath176"><path
         d="M 0,3150 V 0 h 4199.17 v 3150 z"
         id="path174"
         inkscape:connector-curvature="0" /></clipPath><clipPath
       clipPathUnits="userSpaceOnUse"
       id="clipPath192"><path
         d="M 0,3150 V 0 h 4199.17 v 3150 z"
         id="path190"
         inkscape:connector-curvature="0" /></clipPath><clipPath
       clipPathUnits="userSpaceOnUse"
       id="clipPath208"><path
         d="M 0,3150 V 0 h 4199.17 v 3150 z"
         id="path206"
         inkscape:connector-curvature="0" /></clipPath><clipPath
       clipPathUnits="userSpaceOnUse"
       id="clipPath224"><path
         d="M 0,3150 V 0 h 4199.17 v 3150 z"
         id="path222"
         inkscape:connector-curvature="0" /></clipPath><clipPath
       clipPathUnits="userSpaceOnUse"
       id="clipPath240"><path
         d="M 0,3150 V 0 h 4199.17 v 3150 z"
         id="path238"
         inkscape:connector-curvature="0" /></clipPath><clipPath
       clipPathUnits="userSpaceOnUse"
       id="clipPath252"><path
         d="M 545,346.672 H 3800.83 V 2913.34 H 545 Z"
         id="path250"
         inkscape:connector-curvature="0" /></clipPath><clipPath
       clipPathUnits="userSpaceOnUse"
       id="clipPath264"><path
         d="M 0,3150 V 0 h 4199.17 v 3150 z"
         id="path262"
         inkscape:connector-curvature="0" /></clipPath><clipPath
       clipPathUnits="userSpaceOnUse"
       id="clipPath362"><path
         d="M 0,3150 V 0 h 4199.17 v 3150 z"
         id="path360"
         inkscape:connector-curvature="0" /></clipPath></defs><sodipodi:namedview
     pagecolor="#ffffff"
     bordercolor="#666666"
     borderopacity="1"
     objecttolerance="10"
     gridtolerance="10"
     guidetolerance="10"
     inkscape:pageopacity="0"
     inkscape:pageshadow="2"
     inkscape:window-width="640"
     inkscape:window-height="480"
     id="namedview4"
     showgrid="false"
     fit-margin-top="0"
     fit-margin-left="0"
     fit-margin-right="0"
     fit-margin-bottom="0"
     inkscape:zoom="0.22348485"
     inkscape:cx="329.69492"
     inkscape:cy="528"
     inkscape:window-x="0"
     inkscape:window-y="0"
     inkscape:window-maximized="0"
     inkscape:current-layer="g10" /><g
     id="g10"
     inkscape:groupmode="layer"
     inkscape:label="A9R10fguld_fwqwzm_7g4"
     transform="matrix(1.3333333,0,0,-1.3333333,0,419.99999)"><g
       id="g12"
       transform="scale(0.1)"><g
         id="g14"
         clip-path="url(#clipPath18)"><path
           d="M 0,0 H 4200 V 3150 H 0 Z"
           style="fill:#ffffff;fill-opacity:1;fill-rule:nonzero;stroke:none"
           id="path20"
           inkscape:connector-curvature="0" /></g></g><g
       id="g22"
       transform="scale(0.1)"><g
         id="g24"
         clip-path="url(#clipPath28)"><path
           d="M 545,347.5 H 3800 V 2913.34 H 545 Z"
           style="fill:#ffffff;fill-opacity:1;fill-rule:evenodd;stroke:none"
           id="path30"
           inkscape:connector-curvature="0" /><g
           id="g32"
           transform="translate(545,347.5)"><path
             d="M 0,0 V 2565.84 H 3255 V 0 H 0"
             style="fill:none;stroke:#ffffff;stroke-width:10;stroke-linecap:butt;stroke-linejoin:round;stroke-miterlimit:10;stroke-dasharray:none;stroke-opacity:1"
             id="path34"
             inkscape:connector-curvature="0" /></g><g
           id="g36"
           transform="translate(3800,2675)"><path
             d="M 0,0 V 0 M -3255,0 H 0 m 0,-260.84 v 0 m -3255,0 H 0 M 0,-522.5 v 0 m -3255,0 H 0 m 0,-260.83 v 0 m -3255,0 H 0 M 0,-1045 v 0 m -3255,0 H 0 m 0,-260.83 v 0 m -3255,0 H 0 m 0,-260.84 v 0 m -3255,0 H 0 m 0,-261.658 v 0 m -3255,0 H 0 m 0,-260.84 v 0 m -3255,0 H 0 M -152.5,238.34 v 0 m 0,-2565.84 V 238.34 m -522.5,0 v 0 m 0,-2565.84 V 238.34 m -522.5,0 v 0 m 0,-2565.84 V 238.34 m -522.5,0 v 0 m 0,-2565.84 V 238.34 m -522.5,0 v 0 m 0,-2565.84 V 238.34 m -522.5,0 v 0 m 0,-2565.84 V 238.34"
             style="fill:none;stroke:#231f20;stroke-width:6.66699982;stroke-linecap:butt;stroke-linejoin:round;stroke-miterlimit:10;stroke-dasharray:5, 40;stroke-dashoffset:0;stroke-opacity:1"
             id="path38"
             inkscape:connector-curvature="0" /></g><g
           id="g40"
           transform="translate(1035,2913.3401)"><path
             d="m 0,0 v -32.5 m 0,-2533.34 v 32.5 m -490,-32.5 V 0 m 0,-2565.84 h 3255 m -3255,0 V 0 M 2765,-2565.84 V 0 M -490,-2565.84 H 2765 M -490,0 h 3255"
             style="fill:none;stroke:#231f20;stroke-width:10;stroke-linecap:butt;stroke-linejoin:round;stroke-miterlimit:10;stroke-dasharray:none;stroke-opacity:1"
             id="path42"
             inkscape:connector-curvature="0" /></g></g></g><text
       transform="matrix(1,0,0,-1,91.499,18.826)"
       style="font-variant:normal;font-weight:normal;font-size:14px;font-family:Helvetica;-inkscape-font-specification:Helvetica;writing-mode:lr-tb;fill:#211c1d;fill-opacity:1;fill-rule:nonzero;stroke:none"
       id="text46"><tspan
         x="0 8.3439999"
         y="0"
         sodipodi:role="line"
         id="tspan44">−4</tspan></text>
<g
       id="g48"
       transform="scale(0.1)"><g
         id="g50"
         clip-path="url(#clipPath54)"><g
           id="g56"
           transform="translate(1557.5,2913.3401)"><path
             d="m 0,0 v -32.5 m 0,-2533.34 v 32.5"
             style="fill:none;stroke:#231f20;stroke-width:10;stroke-linecap:butt;stroke-linejoin:round;stroke-miterlimit:10;stroke-dasharray:none;stroke-opacity:1"
             id="path58"
             inkscape:connector-curvature="0" /></g><g
           id="g60"
           transform="translate(2080,2913.3401)"><path
             d="m 0,0 v -32.5 m 0,-2533.34 v 32.5"
             style="fill:none;stroke:#231f20;stroke-width:10;stroke-linecap:butt;stroke-linejoin:round;stroke-miterlimit:10;stroke-dasharray:none;stroke-opacity:1"
             id="path62"
             inkscape:connector-curvature="0" /></g></g></g><text
       transform="matrix(1,0,0,-1,143.749,18.826)"
       style="font-variant:normal;font-weight:normal;font-size:14px;font-family:Helvetica;-inkscape-font-specification:Helvetica;writing-mode:lr-tb;fill:#211c1d;fill-opacity:1;fill-rule:nonzero;stroke:none"
       id="text66"><tspan
         x="0 8.3439999"
         y="0"
         sodipodi:role="line"
         id="tspan64">−3</tspan></text>
<g
       id="g68"
       transform="scale(0.1)"><g
         id="g70"
         clip-path="url(#clipPath74)"><g
           id="g76"
           transform="translate(2602.5,2913.3401)"><path
             d="m 0,0 v -32.5 m 0,-2533.34 v 32.5"
             style="fill:none;stroke:#231f20;stroke-width:10;stroke-linecap:butt;stroke-linejoin:round;stroke-miterlimit:10;stroke-dasharray:none;stroke-opacity:1"
             id="path78"
             inkscape:connector-curvature="0" /></g></g></g><text
       transform="matrix(1,0,0,-1,196.007,18.826)"
       style="font-variant:normal;font-weight:normal;font-size:14px;font-family:Helvetica;-inkscape-font-specification:Helvetica;writing-mode:lr-tb;fill:#211c1d;fill-opacity:1;fill-rule:nonzero;stroke:none"
       id="text82"><tspan
         x="0"
         y="0"
         id="tspan80">−</tspan></text>
<text
       transform="matrix(1,0,0,-1,204.351,18.8262)"
       style="font-variant:normal;font-weight:normal;font-size:14px;font-family:Helvetica;-inkscape-font-specification:Helvetica;writing-mode:lr-tb;fill:#211c1d;fill-opacity:1;fill-rule:nonzero;stroke:none"
       id="text86"><tspan
         x="0"
         y="0"
         id="tspan84">2</tspan></text>
<g
       id="g88"
       transform="scale(0.1)"><g
         id="g90"
         clip-path="url(#clipPath94)"><g
           id="g96"
           transform="translate(3125,2913.3401)"><path
             d="m 0,0 v -32.5 m 0,-2533.34 v 32.5"
             style="fill:none;stroke:#231f20;stroke-width:10;stroke-linecap:butt;stroke-linejoin:round;stroke-miterlimit:10;stroke-dasharray:none;stroke-opacity:1"
             id="path98"
             inkscape:connector-curvature="0" /></g></g></g><text
       transform="matrix(1,0,0,-1,248.249,18.826)"
       style="font-variant:normal;font-weight:normal;font-size:14px;font-family:Helvetica;-inkscape-font-specification:Helvetica;writing-mode:lr-tb;fill:#211c1d;fill-opacity:1;fill-rule:nonzero;stroke:none"
       id="text102"><tspan
         x="0 8.3439999 60.414001"
         y="0"
         sodipodi:role="line"
         id="tspan100">−10</tspan></text>
<g
       id="g104"
       transform="scale(0.1)"><g
         id="g106"
         clip-path="url(#clipPath110)"><g
           id="g112"
           transform="translate(3647.5,2913.3401)"><path
             d="m 0,0 v -32.5 m 0,-2533.34 v 32.5"
             style="fill:none;stroke:#231f20;stroke-width:10;stroke-linecap:butt;stroke-linejoin:round;stroke-miterlimit:10;stroke-dasharray:none;stroke-opacity:1"
             id="path114"
             inkscape:connector-curvature="0" /></g></g></g><text
       transform="matrix(1,0,0,-1,360.913,18.826)"
       style="font-variant:normal;font-weight:normal;font-size:14px;font-family:Helvetica;-inkscape-font-specification:Helvetica;writing-mode:lr-tb;fill:#211c1d;fill-opacity:1;fill-rule:nonzero;stroke:none"
       id="text118"><tspan
         x="0"
         y="0"
         id="tspan116">1</tspan></text>
<g
       id="g120"
       transform="scale(0.1)"><g
         id="g122"
         clip-path="url(#clipPath126)"><g
           id="g128"
           transform="translate(3800,585.832)"><path
             d="M 0,0 H -33.33 M -3255,0 h 33.336"
             style="fill:none;stroke:#231f20;stroke-width:10;stroke-linecap:butt;stroke-linejoin:round;stroke-miterlimit:10;stroke-dasharray:none;stroke-opacity:1"
             id="path130"
             inkscape:connector-curvature="0" /></g><g
           id="g132"
           transform="translate(3800,846.672)"><path
             d="M 0,0 H -33.33 M -3255,0 h 33.336"
             style="fill:none;stroke:#231f20;stroke-width:10;stroke-linecap:butt;stroke-linejoin:round;stroke-miterlimit:10;stroke-dasharray:none;stroke-opacity:1"
             id="path134"
             inkscape:connector-curvature="0" /></g><g
           id="g136"
           transform="translate(3800,1108.33)"><path
             d="M 0,0 H -33.33 M -3255,0 h 33.336"
             style="fill:none;stroke:#231f20;stroke-width:10;stroke-linecap:butt;stroke-linejoin:round;stroke-miterlimit:10;stroke-dasharray:none;stroke-opacity:1"
             id="path138"
             inkscape:connector-curvature="0" /></g><g
           id="g140"
           transform="translate(3800,1369.17)"><path
             d="M 0,0 H -33.33 M -3255,0 h 33.336"
             style="fill:none;stroke:#231f20;stroke-width:10;stroke-linecap:butt;stroke-linejoin:round;stroke-miterlimit:10;stroke-dasharray:none;stroke-opacity:1"
             id="path142"
             inkscape:connector-curvature="0" /></g></g></g><text
       transform="matrix(1,0,0,-1,24.077,131.751)"
       style="font-variant:normal;font-weight:normal;font-size:14px;font-family:Helvetica;-inkscape-font-specification:Helvetica;writing-mode:lr-tb;fill:#211c1d;fill-opacity:1;fill-rule:nonzero;stroke:none"
       id="text152"><tspan
         x="0 8.3439999 15.526 18.424"
         y="0"
         sodipodi:role="line"
         id="tspan144">−0.5</tspan><tspan
         x="11.672 20.016001"
         y="26.089001"
         sodipodi:role="line"
         id="tspan146">−1</tspan><tspan
         x="0 8.3439999 15.526 18.424"
         y="52.242001"
         sodipodi:role="line"
         id="tspan148">−1.5</tspan><tspan
         x="11.672 20.016001"
         y="78.328003"
         sodipodi:role="line"
         id="tspan150">−2</tspan></text>
<g
       id="g154"
       transform="scale(0.1)"><g
         id="g156"
         clip-path="url(#clipPath160)"><g
           id="g162"
           transform="translate(3800,1630)"><path
             d="M 0,0 H -33.33 M -3255,0 h 33.336"
             style="fill:none;stroke:#231f20;stroke-width:10;stroke-linecap:butt;stroke-linejoin:round;stroke-miterlimit:10;stroke-dasharray:none;stroke-opacity:1"
             id="path164"
             inkscape:connector-curvature="0" /></g></g></g><text
       transform="matrix(1,0,0,-1,43.915,157.837)"
       style="font-variant:normal;font-weight:normal;font-size:14px;font-family:Helvetica;-inkscape-font-specification:Helvetica;writing-mode:lr-tb;fill:#211c1d;fill-opacity:1;fill-rule:nonzero;stroke:none"
       id="text168"><tspan
         x="0"
         y="0"
         id="tspan166">0</tspan></text>
<g
       id="g170"
       transform="scale(0.1)"><g
         id="g172"
         clip-path="url(#clipPath176)"><g
           id="g178"
           transform="translate(3800,1891.67)"><path
             d="M 0,0 H -33.33 M -3255,0 h 33.336"
             style="fill:none;stroke:#231f20;stroke-width:10;stroke-linecap:butt;stroke-linejoin:round;stroke-miterlimit:10;stroke-dasharray:none;stroke-opacity:1"
             id="path180"
             inkscape:connector-curvature="0" /></g></g></g><text
       transform="matrix(1,0,0,-1,32.251,184.001)"
       style="font-variant:normal;font-weight:normal;font-size:14px;font-family:Helvetica;-inkscape-font-specification:Helvetica;writing-mode:lr-tb;fill:#211c1d;fill-opacity:1;fill-rule:nonzero;stroke:none"
       id="text184"><tspan
         x="0 7.1820002 10.08"
         y="0"
         sodipodi:role="line"
         id="tspan182">0.5</tspan></text>
<g
       id="g186"
       transform="scale(0.1)"><g
         id="g188"
         clip-path="url(#clipPath192)"><g
           id="g194"
           transform="translate(3800,2152.5)"><path
             d="M 0,0 H -33.33 M -3255,0 h 33.336"
             style="fill:none;stroke:#231f20;stroke-width:10;stroke-linecap:butt;stroke-linejoin:round;stroke-miterlimit:10;stroke-dasharray:none;stroke-opacity:1"
             id="path196"
             inkscape:connector-curvature="0" /></g></g></g><text
       transform="matrix(1,0,0,-1,43.915,210.084)"
       style="font-variant:normal;font-weight:normal;font-size:14px;font-family:Helvetica;-inkscape-font-specification:Helvetica;writing-mode:lr-tb;fill:#211c1d;fill-opacity:1;fill-rule:nonzero;stroke:none"
       id="text200"><tspan
         x="0"
         y="0"
         id="tspan198">1</tspan></text>
<g
       id="g202"
       transform="scale(0.1)"><g
         id="g204"
         clip-path="url(#clipPath208)"><g
           id="g210"
           transform="translate(3800,2414.1599)"><path
             d="M 0,0 H -33.33 M -3255,0 h 33.336"
             style="fill:none;stroke:#231f20;stroke-width:10;stroke-linecap:butt;stroke-linejoin:round;stroke-miterlimit:10;stroke-dasharray:none;stroke-opacity:1"
             id="path212"
             inkscape:connector-curvature="0" /></g></g></g><text
       transform="matrix(1,0,0,-1,32.251,236.259)"
       style="font-variant:normal;font-weight:normal;font-size:14px;font-family:Helvetica;-inkscape-font-specification:Helvetica;writing-mode:lr-tb;fill:#211c1d;fill-opacity:1;fill-rule:nonzero;stroke:none"
       id="text216"><tspan
         x="0 7.1820002 10.08"
         y="0"
         sodipodi:role="line"
         id="tspan214">1.5</tspan></text>
<g
       id="g218"
       transform="scale(0.1)"><g
         id="g220"
         clip-path="url(#clipPath224)"><g
           id="g226"
           transform="translate(3800,2675)"><path
             d="M 0,0 H -33.33 M -3255,0 h 33.336"
             style="fill:none;stroke:#231f20;stroke-width:10;stroke-linecap:butt;stroke-linejoin:round;stroke-miterlimit:10;stroke-dasharray:none;stroke-opacity:1"
             id="path228"
             inkscape:connector-curvature="0" /></g></g></g><text
       transform="matrix(1,0,0,-1,43.915,262.337)"
       style="font-variant:normal;font-weight:normal;font-size:14px;font-family:Helvetica;-inkscape-font-specification:Helvetica;writing-mode:lr-tb;fill:#211c1d;fill-opacity:1;fill-rule:nonzero;stroke:none"
       id="text232"><tspan
         x="0"
         y="0"
         id="tspan230">2</tspan></text>
<g
       id="g234"
       transform="scale(0.1)"><g
         id="g236"
         clip-path="url(#clipPath240)"><g
           id="g242"
           transform="translate(545,347.5)"><path
             d="M 0,0 V 2565.84 M 3255,0 V 2565.84 M 0,0 H 3255 M 0,2565.84 h 3255"
             style="fill:none;stroke:#231f20;stroke-width:10;stroke-linecap:butt;stroke-linejoin:round;stroke-miterlimit:10;stroke-dasharray:none;stroke-opacity:1"
             id="path244"
             inkscape:connector-curvature="0" /></g></g></g><g
       id="g246"
       transform="scale(0.1)"><g
         id="g248"
         clip-path="url(#clipPath252)"><g
           id="g254"
           transform="translate(3125,1630.83)"><path
             d="m 0,0 v 13.34 l -0.83,0.83 v 9.17 l -0.84,0.83 v 6.67 l -0.83,0.83 v 4.17 l -0.83,0.83 v 4.17 l -0.84,0.83 V 45 L -5,45.84 v 3.33 l -0.83,1.67 v 2.5 l -0.84,0.83 v 2.5 l -0.83,1.67 v 0.83 l -0.83,1.67 v 1.66 l -0.84,1.67 V 65 L -10,66.67 v 1.67 l -0.83,1.66 -0.84,1.67 v 1.67 l -0.83,1.66 -0.83,1.67 v 1.67 l -0.84,2.5 -0.83,1.66 -0.83,1.67 -0.84,1.67 -0.83,2.5 -0.83,1.66 -0.84,2.5 -0.83,1.67 -0.83,2.5 -0.84,1.67 -0.83,2.5 -0.83,2.5 -1.67,1.66 -0.83,2.5 -1.67,2.5 -0.83,2.5 -1.67,2.5 -0.83,2.5 -1.67,2.5 -1.67,2.5 -1.66,2.5 -1.67,2.5 -1.67,2.5 -1.66,2.5 -1.67,2.5 -1.67,3.34 -2.5,2.5 -1.66,2.5 -2.5,3.33 -2.5,2.5 -2.5,3.33 -1.67,2.5 -2.5,3.34 -3.33,2.5 -2.5,3.33 -2.5,2.5 -3.34,3.33 -3.33,2.5 -2.5,3.34 -3.33,2.5 -3.34,3.33 -4.16,2.5 -3.34,3.33 -3.33,2.5 -4.17,3.34 -4.16,2.5 -4.17,2.5 -4.17,3.33 -4.16,2.5 -5,2.5 -4.17,2.5 -5,2.5 -5,2.5 -5,2.5 -5,2.5 -5,1.67 -5.83,2.5 -5,1.66 -5.84,1.67 -5.83,1.67 -5.83,1.66 -5.84,1.67 -5.83,1.67 -6.67,0.83 -5.83,1.67 -6.67,0.83 -5.83,0.83 -6.67,0.84 H -235 l -6.67,0.83 -6.66,-0.83 h -13.34 l -7.5,-0.84 -6.66,-0.83 -6.67,-0.83 -6.67,-1.67 -7.5,-1.67 -6.66,-0.83 -6.67,-2.5 -6.67,-1.67 -7.5,-2.5 -6.66,-1.66 -6.67,-3.34 -6.67,-2.5 -6.66,-2.5 -5.84,-3.33 -6.66,-3.33 -6.67,-3.34 -5.83,-4.16 -6.67,-3.34 -5.83,-4.16 -5.84,-4.17 -5.83,-4.17 -5.83,-5 -5.84,-4.16 -5.83,-5 -5,-5 -5,-5 -5.83,-5 -5,-5 -5,-5.84 -4.17,-5 -5,-5.83 -5,-5.83 -4.17,-5.84 -4.16,-5.83 -4.17,-5.83 -4.17,-5.84 -4.16,-6.66 -3.34,-5.84 -4.16,-6.66 -3.34,-5.84 -3.33,-6.66 -3.33,-6.67 -3.34,-6.67 -2.5,-6.66 -3.33,-6.67 -3.33,-6.67 -2.5,-6.66 -2.5,-7.5 -2.5,-6.67 -2.5,-7.5 -2.5,-6.67 -2.5,-7.5 -1.67,-7.5 -2.5,-6.66 -1.67,-7.5 -2.5,-7.5 -1.66,-7.5 -1.67,-7.5 -1.67,-7.51 -1.66,-8.33 -1.67,-7.5 -1.67,-7.5 -1.66,-8.33 -0.84,-8.33 -1.66,-7.5 -1.67,-8.34 -0.83,-8.33 -0.84,-8.33 -1.66,-8.34 -0.84,-9.16 -0.83,-8.34 -1.67,-9.16 -0.83,-8.34 -0.83,-9.16 -0.84,-9.17 -0.83,-9.17 -0.83,-9.16 -0.84,-10 -0.83,-9.17 v -10 l -0.83,-10 -0.84,-10 -0.83,-10 v -10.83 l -0.83,-10 -0.84,-10.84 v -10.83 L -565,-320 v -10.83 l -0.83,-11.67 v -11.66 l -0.84,-11.67 v -12.5 L -567.5,-390 v -12.5 l -0.83,-13.33 v -25.83 l -0.84,-14.17 v -27.5 L -570,-497.5 m 0,0 v -45 l -0.83,-15.83 v -48.33 l -0.84,-16.67 v -90 l -0.83,-19.172 v -146.656 l -0.83,-23.344 v -289.156 l -0.84,-30 v -61.672 h -41.66 l -4.17,0.832 h -16.67 l -4.16,0.84 h -12.5 l -4.17,0.828 h -8.33 l -4.17,0.832 h -8.33 l -4.17,0.84 h -4.17 l -4.16,0.828 H -695 l -4.17,0.832 h -4.16 l -4.17,0.84 h -4.17 l -4.16,0.828 H -720 l -4.17,0.832 h -4.16 l -4.17,0.84 h -4.17 l -4.16,0.828 -4.17,0.832 h -4.17 l -3.33,0.84 -4.17,0.828 h -4.16 l -4.17,0.832 -4.17,0.84 h -4.16 l -4.17,0.828 -4.17,0.832 -4.16,0.84 H -790 l -4.17,0.828 -4.16,0.832 -4.17,0.84 -4.17,0.828 -4.16,0.832 H -815 l -4.17,0.84 -4.16,0.828 -3.34,0.832 -4.16,0.84 -4.17,0.828 -4.17,0.832 -4.16,0.84 -4.17,0.828 -4.17,0.832 -4.16,0.84 -4.17,0.828 -4.17,0.832 -4.16,0.84 -3.34,0.828 -4.16,0.832 -4.17,0.84 -4.17,1.66 -4.16,0.84 -4.17,0.828 -4.17,0.832 -4.16,0.84 -3.34,0.828 -4.16,1.672 -4.17,0.828 -4.17,0.832 -4.16,0.84 -4.17,1.66 -3.33,0.84 -4.17,0.828 -4.17,1.672 -4.16,0.828 -4.17,0.832 -4.17,1.668 -3.33,0.832 -4.17,0.84 -4.16,1.66 -4.17,0.84 -4.17,1.66 -3.33,0.84 -4.17,1.66 -4.16,0.84 -4.17,1.66 -3.33,0.84 -4.17,1.66 -4.17,0.84 -4.16,1.66 -3.34,0.84 -4.16,1.66 -4.17,0.84 -4.17,1.66 -3.33,1.668 -4.17,0.832 -4.16,1.668 -4.17,1.672 -3.33,0.828 -4.17,1.672 -4.17,1.668 -3.33,0.832 -4.17,1.668 -4.16,1.66 -3.34,1.672 -4.16,0.828 -4.17,1.672 -3.33,1.668 -4.17,1.66 -4.17,1.672 -3.33,1.668 -4.17,0.832 -4.16,1.668 -3.34,1.66 -4.16,1.672 -3.34,1.668 -4.16,1.66 -4.17,1.672 -3.33,1.668 -4.17,1.66 -3.33,1.672 -4.17,1.668 -3.33,1.66 -4.17,1.672 -4.17,1.668 -3.33,1.66 -4.17,1.672 -3.33,1.668 -4.17,1.66 -3.33,1.672 -4.17,1.668 -3.33,2.5 -4.17,1.66 -3.33,1.672 -4.17,1.668 -3.33,1.66 -4.17,2.5 -3.33,1.672 -4.17,1.668 -3.33,1.66 -3.33,1.672 -4.17,2.5 -3.33,1.668 -4.17,1.66 -3.33,2.5 -4.17,1.672 -3.33,1.668 -3.34,2.5 -4.16,1.66 -3.34,1.672 -3.33,2.5 -4.17,1.668 -3.33,2.5 -3.33,1.66 -4.17,2.5 -3.33,1.672 -3.34,1.668 -4.16,2.5 -3.34,1.66 -3.33,2.5 -4.17,1.672 -3.33,2.5 -3.33,2.5 -3.34,1.668 -4.16,2.5 -3.34,1.66 -3.33,2.5 -3.33,2.5 -4.17,1.672 -3.33,2.5 -3.34,1.668 -3.33,2.5 -3.33,2.5 -4.17,1.66 -3.33,2.5 -3.34,2.5 -3.33,2.5 -3.33,1.672 -3.34,2.5 -3.33,2.5 -3.33,2.5 -4.17,1.668 -3.33,2.5 -3.34,2.5 -3.33,2.5 -3.33,2.5 -3.34,2.5 -3.33,1.66 -3.33,2.5 -3.34,2.5 -3.33,2.5 -3.33,2.5 -3.34,2.5 -3.33,2.5 -3.33,2.5 -3.34,2.5 -3.33,2.5 -3.33,2.5 -3.34,2.5 -3.33,2.5 -3.33,2.5 -3.34,2.5 -3.33,2.5 -2.5,2.5 -3.33,2.5 -3.34,2.5 -3.33,2.5 -3.33,2.5 -3.34,2.5 -3.33,3.34 -2.5,2.5 -3.33,2.5 -3.34,2.5 -3.33,2.5 -3.33,2.5 -2.5,3.332 -3.34,2.5 -3.33,2.5 -3.33,2.5 -2.5,2.5 -3.34,3.328 -3.33,2.5 -3.33,2.5 -2.5,2.5 -3.34,3.34 -3.33,2.5 -2.5,2.5 -3.33,3.332 -2.5,2.5 -3.34,2.5 -3.33,3.328 -2.5,2.5 -3.33,3.34 -2.5,2.5 -3.34,2.5 -3.33,3.332 -2.5,2.5 -3.33,3.328 -2.5,2.5 -3.34,3.34 -2.5,2.5 -3.33,2.5 -2.5,3.332 -3.33,2.5 -2.5,3.328 -3.34,2.5 -2.5,3.34 -2.5,3.332 -3.33,2.5 -2.5,3.328 -3.33,2.5 -2.5,3.328 -2.5,2.5 -3.34,3.344 -2.5,3.328 -2.5,2.5 -3.33,3.328 -2.5,3.344 -2.5,2.5 -3.33,3.328 -2.5,3.328 -2.5,2.5 -2.5,3.344 -3.34,3.328 -2.5,2.5 -2.5,3.328 -2.5,3.344 -2.5,3.328 -3.33,2.5 -2.5,3.328 -2.5,3.344 -2.5,3.328 -2.5,2.5 -2.5,3.328 m 0,0 -2.5,3.344 -2.5,3.328 -2.5,3.328 -2.5,2.5 -3.33,3.344 -2.5,3.328 -2.5,3.328 -2.5,3.344 -2.5,3.328 -2.5,3.328 -2.5,3.344 -2.5,2.5 -1.67,3.328 -2.5,3.328 -2.5,3.344 -2.5,3.328 -2.5,3.328 -2.5,3.344 -2.5,3.328 -2.5,3.328 -2.5,3.344 -1.67,3.328 -2.5,3.328 -2.5,3.344 -2.5,3.328 -2.5,3.328 -1.66,3.344 -2.5,3.328 -2.5,3.328 -2.5,3.344 -1.67,3.328 -2.5,3.328 -2.5,4.172 -1.67,3.328 -2.5,3.344 -2.5,3.328 -1.66,3.328 -2.5,3.344 -1.67,3.328 -2.5,3.328 -2.5,3.344 -1.67,4.156 -2.5,3.344 -1.66,3.328 -2.5,3.328 -1.67,3.344 -2.5,4.156 -1.67,3.344 -2.5,3.328 -1.66,3.33 -2.5,3.34 -1.67,4.16 -2.5,3.34 -1.67,3.33 -1.66,3.33 -2.5,4.17 -1.67,3.33 -1.67,3.34 -2.5,3.33 -1.66,4.17 -1.67,3.33 -2.5,3.33 -1.67,4.17 -1.66,3.33 -1.67,3.34 -2.5,4.16 -1.67,3.34 -1.66,3.33 -1.67,4.17 -1.67,3.33 -2.5,3.33 -1.66,4.17 -1.67,3.33 -1.67,3.34 -1.66,4.16 -1.67,3.34 -1.67,4.16 -1.66,3.34 -1.67,3.33 -1.67,4.17 -1.66,3.33 -1.67,4.17 -1.67,3.33 -1.66,4.17 -1.67,3.33 -1.67,4.17 -1.66,3.33 -1.67,3.33 -1.67,4.17 -1.66,3.33 -1.67,4.17 -1.67,3.33 -0.83,4.17 -1.67,3.33 -1.66,4.17 -1.67,3.33 -1.67,4.17 -0.83,3.33 -1.67,4.17 -1.66,4.17 -1.67,3.33 -0.83,4.17 -1.67,3.33 -1.67,4.17 -0.83,3.33 -1.67,4.17 -1.66,3.33 -0.84,4.17 -1.66,4.16 -1.67,3.34 -0.83,4.16 -1.67,3.34 -0.83,4.16 -1.67,4.17 -0.83,3.33 -1.67,4.17 -0.83,3.33 -1.67,4.17 -0.83,4.17 -1.67,3.33 -0.83,4.17 -0.84,4.16 -1.66,3.34 -0.84,4.16 -1.66,3.34 -0.84,4.16 -0.83,4.17 -1.67,3.33 -0.83,4.17 -0.83,4.17 -0.84,3.33 -1.66,4.17 -0.84,4.16 -0.83,3.34 -0.83,4.16 -1.67,4.17 -0.83,4.17 -0.84,3.33 -0.83,4.17 -0.83,4.16 -0.84,3.34 -0.83,4.16 -1.67,4.17 -0.83,4.17 -0.83,3.33 -0.84,4.17 -0.83,4.16 -0.83,3.34 -0.84,4.16 -0.83,4.17 -0.83,4.17 -0.84,3.33 -0.83,4.17 v 4.16 l -0.83,4.17 -0.84,3.33 -0.83,4.17 -0.83,4.17 -0.84,4.16 -0.83,3.34 v 4.16 l -0.83,4.17 -0.84,4.17 -0.83,4.16 -0.83,3.34 v 4.16 l -0.84,4.17 -0.83,4.17 v 3.33 l -0.83,4.17 -0.84,4.16 v 4.17 l -0.83,4.17 -0.83,3.33 v 4.17 l -0.84,4.16 v 4.17 l -0.83,4.17 v 3.33 l -0.83,4.17 v 4.16 l -0.84,4.17 v 4.17 l -0.83,3.33 v 4.17 l -0.83,4.16 v 8.34 l -0.84,3.33 V -85 l -0.83,4.17 v 8.33 l -0.83,3.34 v 12.5 l -0.84,4.17 v 19.99 l -0.83,4.17 V 27.5 l 0.83,4.17 v 20 l 0.84,4.17 v 12.5 l 0.83,3.33 V 80 l 0.83,4.17 v 8.33 l 0.84,3.34 v 8.33 l 0.83,4.17 v 4.16 l 0.83,3.34 V 120 l 0.84,4.17 v 4.17 l 0.83,4.16 v 3.34 l 0.83,4.16 v 4.17 l 0.84,4.17 v 4.16 l 0.83,3.34 0.83,4.16 v 4.17 l 0.84,4.17 0.83,4.16 v 3.34 l 0.83,4.16 0.84,4.17 v 4.17 l 0.83,3.33 0.83,4.17 0.84,4.16 0.83,4.17 v 4.17 l 0.83,3.33 0.84,4.17 0.83,4.16 0.83,4.17 0.84,3.33 0.83,4.17 v 4.17 l 0.83,4.16 0.84,3.34 0.83,4.16 0.83,4.17 0.84,4.17 0.83,3.33 0.83,4.17 0.84,4.16 0.83,3.34 0.83,4.16 1.67,4.17 0.83,4.17 0.84,3.33 0.83,4.17 0.83,4.16 0.84,3.34 0.83,4.16 1.67,4.17 0.83,4.17 0.83,3.33 0.84,4.17 1.66,4.16 0.84,3.34 0.83,4.16 0.83,4.17 1.67,3.33 0.83,4.17 0.84,4.17 1.66,3.33 0.84,4.17 1.66,3.33 0.84,4.17 0.83,4.16 1.67,3.34 0.83,4.16 1.67,4.17 0.83,3.33 1.67,4.17 0.83,3.33 1.67,4.17 0.83,4.17 1.67,3.33 0.83,4.17 1.67,3.33 1.66,4.17 0.84,4.16 1.66,3.34 1.67,4.16 0.83,3.34 1.67,4.16 1.67,3.34 0.83,4.16 1.67,3.34 1.66,4.16 1.67,4.17 0.83,3.33 1.67,4.17 1.67,3.33 1.66,4.17 m 0,0 1.67,3.33 0.83,4.17 1.67,3.33 1.67,4.17 1.66,3.33 1.67,4.17 1.67,3.33 1.66,3.34 1.67,4.16 1.67,3.34 1.66,4.16 1.67,3.34 1.67,4.16 1.66,3.34 1.67,4.17 1.67,3.32 1.66,3.34 1.67,4.16 1.67,3.34 1.66,4.16 1.67,3.34 1.67,3.34 1.66,4.16 2.5,3.34 1.67,3.32 1.67,4.18 1.66,3.32 1.67,3.34 2.5,4.16 1.67,3.34 1.66,3.34 1.67,4.16 2.5,3.34 1.67,3.32 1.66,4.18 2.5,3.32 1.67,3.34 1.67,3.34 2.5,4.16 1.66,3.34 1.67,3.32 2.5,3.34 1.67,4.16 2.5,3.34 1.66,3.34 2.5,3.32 1.67,3.34 2.5,4.16 1.67,3.34 2.5,3.34 1.66,3.32 2.5,3.34 1.67,4.16 2.5,3.34 2.5,3.34 1.67,3.32 2.5,3.34 1.66,3.34 2.5,3.32 2.5,3.34 1.67,3.34 2.5,4.16 2.5,3.34 1.67,3.32 2.5,3.34 2.5,3.34 2.5,3.32 1.66,3.34 2.5,3.34 2.5,3.32 2.5,3.34 2.5,3.34 1.67,3.32 2.5,3.34 2.5,3.34 2.5,3.32 2.5,3.34 2.5,3.34 2.5,3.32 2.5,3.34 2.5,3.34 1.67,3.32 2.5,2.5 2.5,3.34 2.5,3.34 2.5,3.32 2.5,3.34 2.5,3.34 2.5,3.32 3.33,3.34 2.5,2.5 2.5,3.34 2.5,3.32 2.5,3.34 2.5,3.34 2.5,2.5 2.5,3.32 2.5,3.34 2.5,3.34 3.33,2.5 2.5,3.32 2.5,3.34 2.5,3.34 2.5,2.5 3.34,3.32 2.5,3.34 2.5,2.5 2.5,3.33 3.33,3.33 2.5,2.5 2.5,3.34 3.33,3.33 2.5,2.5 2.5,3.33 3.34,3.34 2.5,2.5 2.5,3.33 3.33,2.5 2.5,3.33 3.33,2.5 2.5,3.34 2.5,3.33 3.34,2.5 2.5,3.33 3.33,2.5 2.5,3.34 3.33,2.5 2.5,2.5 3.34,3.33 2.5,2.5 3.33,3.33 2.5,2.5 3.33,3.34 3.34,2.5 2.5,2.5 3.33,3.33 2.5,2.5 3.33,3.33 3.34,2.5 2.5,2.5 3.33,3.34 2.5,2.5 3.33,2.5 3.34,3.33 2.5,2.5 3.33,2.5 3.33,2.5 3.34,3.33 2.5,2.5 3.33,2.5 3.33,2.5 3.34,2.5 2.5,3.34 3.33,2.5 3.33,2.5 3.34,2.5 3.33,2.5 2.5,2.5 3.33,3.33 3.34,2.5 3.33,2.5 3.33,2.5 3.34,2.5 3.33,2.5 2.5,2.5 3.33,2.5 3.34,2.5 3.33,2.5 3.33,2.5 3.34,2.5 3.33,2.5 3.33,2.5 3.34,2.5 3.33,2.5 3.33,2.5 3.34,2.5 3.33,2.5 3.33,2.5 3.34,2.5 3.33,2.5 3.33,1.67 3.34,2.5 3.33,2.5 3.33,2.5 3.34,2.5 3.33,2.5 4.17,1.66 3.33,2.5 3.33,2.5 3.34,2.5 3.33,1.67 3.33,2.5 3.34,2.5 3.33,2.5 4.17,1.67 3.33,2.5 3.33,2.5 3.34,1.66 3.33,2.5 4.17,1.67 3.33,2.5 3.33,2.5 3.34,1.67 4.16,2.5 3.34,1.66 3.33,2.5 3.33,2.5 4.17,1.67 3.33,2.5 3.34,1.67 4.16,2.5 3.34,1.66 3.33,1.67 4.17,2.5 3.33,1.67 3.33,2.5 4.17,1.66 3.33,2.5 3.34,1.67 4.16,1.67 3.34,2.5 3.33,1.66 4.17,1.67 3.33,2.5 4.17,1.67 3.33,1.66 4.17,2.5 3.33,1.67 3.33,1.67 4.17,1.66 3.33,1.67 4.17,2.5 3.33,1.67 4.17,1.66 3.33,1.67 4.17,1.67 3.33,2.5 4.17,1.66 3.33,1.67 4.17,1.67 3.33,1.66 4.17,1.67 3.33,1.67 4.17,1.66 4.17,1.67 3.33,1.67 4.17,1.66 3.33,1.67 4.17,1.67 3.33,1.66 4.17,1.67 4.16,1.67 3.34,1.66 4.16,1.67 3.34,1.67 4.16,1.66 4.17,0.84 3.33,1.66 4.17,1.67 4.17,1.67 3.33,1.66 4.17,1.67 4.16,0.83 3.34,1.67 4.16,1.67 4.17,1.66 3.33,0.84 4.17,1.66 4.17,1.67 3.33,0.83 4.17,1.67 4.16,1.67 4.17,0.83 3.33,1.67 4.17,1.66 4.17,0.84 4.16,1.66 3.34,0.84 4.16,1.66 4.17,0.84 4.17,1.66 3.33,0.84 4.17,1.66 4.16,0.84 4.17,1.66 3.33,0.84 4.17,1.66 4.17,0.84 4.16,1.66 4.17,0.84 3.33,0.84 4.17,1.66 4.17,0.84 4.16,0.82 4.17,1.68 4.17,0.82 3.33,0.84 4.17,1.66 4.16,0.84 m 0,0 4.17,0.84 4.17,0.82 4.16,1.68 3.34,0.82 4.16,0.84 4.17,0.84 4.17,0.82 4.16,0.84 4.17,1.66 4.17,0.84 4.16,0.84 3.34,0.82 4.16,0.84 4.17,0.84 4.17,0.82 4.16,0.84 4.17,0.84 4.17,0.82 4.16,0.84 4.17,0.84 4.17,0.82 4.16,0.84 3.34,0.84 4.16,0.82 4.17,0.84 h 4.17 l 4.16,0.84 4.17,0.82 4.17,0.84 4.16,0.84 4.17,0.83 h 4.17 l 4.16,0.83 4.17,0.84 4.17,0.83 h 4.16 l 4.17,0.83 4.17,0.84 h 4.16 l 4.17,0.83 3.33,0.83 h 4.17 l 4.17,0.84 4.16,0.83 h 4.17 l 4.17,0.83 h 4.16 l 4.17,0.84 h 4.17 l 4.16,0.83 h 4.17 l 4.17,0.83 h 4.16 l 4.17,0.84 h 4.17 l 4.16,0.83 h 4.17 l 4.17,0.83 h 8.33 l 4.17,0.84 h 8.33 l 4.17,0.83 h 12.5 l 4.16,0.83 H -620 l 4.17,0.84 h 41.66 v -61.67 l 0.84,-30 V 901.67 l 0.83,-23.33 V 731.67 l 0.83,-19.16 v -90 l 0.84,-16.67 v -48.33 l 0.83,-15.84 v -45 l 0.83,-14.17 V 455 l 0.84,-14.16 V 415 l 0.83,-13.33 v -12.5 l 0.83,-11.67 V 365 l 0.84,-11.66 V 341.67 L -565,330 v -10.83 l 0.83,-11.67 v -10.83 l 0.84,-10.83 0.83,-10 V 265 l 0.83,-10 0.84,-10 0.83,-10 v -10 l 0.83,-9.16 0.84,-10 0.83,-9.17 0.83,-9.17 0.84,-9.16 0.83,-9.17 0.83,-8.33 1.67,-9.17 0.83,-8.33 0.84,-9.17 1.66,-8.33 0.84,-8.34 0.83,-8.33 1.67,-8.33 1.66,-7.5 0.84,-8.34 1.66,-8.33 1.67,-7.5 1.67,-7.5 1.66,-8.33 1.67,-7.5 1.67,-7.5 1.66,-7.5 2.5,-7.5 1.67,-7.5 2.5,-6.67 1.67,-7.5 2.5,-7.5 2.5,-6.67 2.5,-7.5 2.5,-6.66 2.5,-7.5 2.5,-6.67 3.33,-6.67 3.33,-6.66 2.5,-6.67 3.34,-6.67 3.33,-6.66 3.33,-6.67 3.34,-5.83 4.16,-6.67 3.34,-5.83 4.16,-6.67 4.17,-5.83 4.17,-5.84 4.16,-5.83 4.17,-5.83 5,-5.84 5,-5.83 4.17,-5 5,-5.83 5,-5 5.83,-5 5,-5 5,-5 5.83,-5 5.84,-4.17 5.83,-5 5.83,-4.17 5.84,-4.16 5.83,-4.17 6.67,-3.33 5.83,-4.17 6.67,-3.33 6.66,-3.34 5.84,-3.33 6.66,-2.5 6.67,-2.5 6.67,-3.33 6.66,-1.67 7.5,-2.5 6.67,-1.67 6.67,-2.5 6.66,-0.83 7.5,-1.67 6.67,-1.66 6.67,-0.84 6.66,-0.83 7.5,-0.83 h 13.34 l 6.66,-0.84 6.67,0.84 h 13.33 l 6.67,0.83 5.83,0.83 6.67,0.84 5.83,1.66 6.67,0.84 5.83,1.66 5.84,1.67 5.83,1.67 5.83,1.66 5.84,1.67 5,1.67 5.83,2.5 5,1.66 5,2.5 5,2.5 5,2.5 5,2.5 4.17,2.5 5,2.5 4.16,2.5 4.17,3.34 4.17,2.5 4.16,2.5 4.17,3.33 3.33,2.5 3.34,3.33 4.16,2.5 3.34,3.34 3.33,2.5 2.5,3.33 3.33,2.5 3.34,3.33 2.5,2.5 2.5,3.34 3.33,2.5 2.5,3.33 1.67,2.5 2.5,3.33 2.5,2.5 2.5,3.34 1.66,2.5 2.5,2.5 1.67,3.33 1.67,2.5 1.66,2.5 1.67,2.5 1.67,2.5 1.66,2.5 1.67,2.5 1.67,2.5 0.83,2.5 1.67,2.5 0.83,2.5 1.67,2.5 0.83,2.5 1.67,1.67 0.83,2.5 0.83,2.5 0.84,1.66 0.83,2.5 0.83,1.67 0.84,2.5 0.83,1.67 0.83,2.5 0.84,1.66 0.83,1.67 0.83,1.67 0.84,2.5 v 1.66 l 0.83,1.67 0.83,1.67 v 1.66 l 0.84,1.67 0.83,1.67 v 1.66 l 0.83,1.67 V -65 l 0.84,1.67 v 1.67 L -7.5,-60 v 0.84 l 0.83,1.66 v 2.51 l 0.84,0.83 v 2.5 L -5,-50 v 3.34 l 0.83,0.83 v 3.33 l 0.84,0.84 v 4.16 l 0.83,0.84 v 4.16 l 0.83,0.84 V -25 l 0.84,0.84 v 10 L 0,-13.33 v 12.5"
             style="fill:none;stroke:#3b4ba7;stroke-width:30;stroke-linecap:butt;stroke-linejoin:round;stroke-miterlimit:10;stroke-dasharray:none;stroke-opacity:1"
             id="path256"
             inkscape:connector-curvature="0" /></g></g></g><g
       id="g258"
       transform="scale(0.1)"><g
         id="g260"
         clip-path="url(#clipPath264)"><g
           id="g266"
           transform="translate(1866.67,2793.3301)"><path
             d="M 0,0 148.33,10.83"
             style="fill:none;stroke:#3b4ba7;stroke-width:30;stroke-linecap:butt;stroke-linejoin:round;stroke-miterlimit:10;stroke-dasharray:none;stroke-opacity:1"
             id="path268"
             inkscape:connector-curvature="0" /></g><g
           id="g270"
           transform="translate(1940.83,2675)"><path
             d="M 0,0 74.17,129.16"
             style="fill:none;stroke:#3b4ba7;stroke-width:30;stroke-linecap:butt;stroke-linejoin:round;stroke-miterlimit:10;stroke-dasharray:none;stroke-opacity:1"
             id="path272"
             inkscape:connector-curvature="0" /></g><g
           id="g274"
           transform="translate(1173.33,1413.33)"><path
             d="M 0,0 47.5,165.01"
             style="fill:none;stroke:#3b4ba7;stroke-width:30;stroke-linecap:butt;stroke-linejoin:round;stroke-miterlimit:10;stroke-dasharray:none;stroke-opacity:1"
             id="path276"
             inkscape:connector-curvature="0" /></g><g
           id="g278"
           transform="translate(1300,1446.66)"><path
             d="M 0,0 -79.17,131.68"
             style="fill:none;stroke:#3b4ba7;stroke-width:30;stroke-linecap:butt;stroke-linejoin:round;stroke-miterlimit:10;stroke-dasharray:none;stroke-opacity:1"
             id="path280"
             inkscape:connector-curvature="0" /></g><g
           id="g282"
           transform="translate(2552.5,795.09)"><path
             d="M 0,0 -70.01,144.91"
             style="fill:none;stroke:#3b4ba7;stroke-width:30;stroke-linecap:butt;stroke-linejoin:round;stroke-miterlimit:10;stroke-dasharray:none;stroke-opacity:1"
             id="path284"
             inkscape:connector-curvature="0" /></g><g
           id="g286"
           transform="translate(2552.5,795.09)"><path
             d="M 0,0 50,171.57"
             style="fill:none;stroke:#3b4ba7;stroke-width:30;stroke-linecap:butt;stroke-linejoin:round;stroke-miterlimit:10;stroke-dasharray:none;stroke-opacity:1"
             id="path288"
             inkscape:connector-curvature="0" /></g><g
           id="g290"
           transform="translate(2855.8301,1868.33)"><path
             d="M 0,0 104.17,-95"
             style="fill:none;stroke:#3b4ba7;stroke-width:30;stroke-linecap:butt;stroke-linejoin:round;stroke-miterlimit:10;stroke-dasharray:none;stroke-opacity:1"
             id="path292"
             inkscape:connector-curvature="0" /></g><g
           id="g294"
           transform="translate(2855.8301,1868.33)"><path
             d="M 0,0 104.17,58.34"
             style="fill:none;stroke:#3b4ba7;stroke-width:30;stroke-linecap:butt;stroke-linejoin:round;stroke-miterlimit:10;stroke-dasharray:none;stroke-opacity:1"
             id="path296"
             inkscape:connector-curvature="0" /></g><g
           id="g298"
           transform="translate(2855.8301,1446.66)"><path
             d="M 0,0 90.84,-46.66 45.42,-129.15"
             style="fill:none;stroke:#3b4ba7;stroke-width:30;stroke-linecap:butt;stroke-linejoin:round;stroke-miterlimit:10;stroke-dasharray:none;stroke-opacity:1"
             id="path300"
             inkscape:connector-curvature="0" /></g><g
           id="g302"
           transform="translate(545,1640)"><path
             d="M 0,0 H 3255"
             style="fill:#231f20;fill-opacity:1;fill-rule:nonzero;stroke:none"
             id="path304"
             inkscape:connector-curvature="0" /></g><g
           id="g306"
           transform="translate(545,1640)"><path
             d="M 0,0 H 3255"
             style="fill:none;stroke:#231f20;stroke-width:10;stroke-linecap:butt;stroke-linejoin:round;stroke-miterlimit:10;stroke-dasharray:5, 40;stroke-dashoffset:0;stroke-opacity:1"
             id="path308"
             inkscape:connector-curvature="0" /></g><g
           id="g310"
           transform="translate(3125,2913.3401)"><path
             d="M 0,0 V -2565.84"
             style="fill:#231f20;fill-opacity:1;fill-rule:nonzero;stroke:none"
             id="path312"
             inkscape:connector-curvature="0" /></g><g
           id="g314"
           transform="translate(3125,2913.3401)"><path
             d="M 0,0 V -2565.84"
             style="fill:none;stroke:#231f20;stroke-width:10;stroke-linecap:butt;stroke-linejoin:round;stroke-miterlimit:10;stroke-dasharray:5, 40;stroke-dashoffset:0;stroke-opacity:1"
             id="path316"
             inkscape:connector-curvature="0" /></g><g
           id="g318"
           transform="translate(3125,347.5)"><path
             d="M 0,0 V 2565.84"
             style="fill:none;stroke:#100f0d;stroke-width:10;stroke-linecap:butt;stroke-linejoin:miter;stroke-miterlimit:10;stroke-dasharray:none;stroke-opacity:1"
             id="path320"
             inkscape:connector-curvature="0" /></g><g
           id="g322"
           transform="translate(3800,1630)"><path
             d="M 0,0 H -3255"
             style="fill:none;stroke:#100f0d;stroke-width:10;stroke-linecap:butt;stroke-linejoin:miter;stroke-miterlimit:10;stroke-dasharray:none;stroke-opacity:1"
             id="path324"
             inkscape:connector-curvature="0" /></g><g
           id="g326"
           transform="translate(2517.5,770.828)"><path
             d="M 0,0 V 1769.162"
             style="fill:none;stroke:#100f0d;stroke-width:10;stroke-linecap:butt;stroke-linejoin:miter;stroke-miterlimit:10;stroke-dasharray:100, 50;stroke-dashoffset:0;stroke-opacity:1"
             id="path328"
             inkscape:connector-curvature="0" /></g></g></g><text
       transform="matrix(1,0,0,-1,318.667,275.22)"
       style="font-variant:normal;font-weight:normal;font-size:18px;font-family:MyriadPro;-inkscape-font-specification:MyriadPro-Regular;writing-mode:lr-tb;fill:#100f0d;fill-opacity:1;fill-rule:nonzero;stroke:none"
       id="text336"><tspan
         x="0 4.4814062 19.493406 24.38991 36.01791"
         y="0"
         sodipodi:role="line"
         id="tspan330">Im(G)</tspan><tspan
         x="20.246 30.001892 39.019894 43.916286 55.544289"
         y="105.999"
         sodipodi:role="line"
         id="tspan332">Re(G)</tspan><tspan
         x="-58.431 -45.938999 -35.210999"
         y="-1.831"
         sodipodi:role="line"
         id="tspan334">ω=0</tspan></text>
<text
       transform="matrix(1,0,0,-1,292.689,283.045)"
       style="font-variant:normal;font-weight:normal;font-size:10.49400043px;font-family:MyriadPro;-inkscape-font-specification:MyriadPro-Regular;writing-mode:lr-tb;fill:#100f0d;fill-opacity:1;fill-rule:nonzero;stroke:none"
       id="text340"><tspan
         x="0"
         y="0"
         id="tspan338">+</tspan></text>
<text
       transform="matrix(1,0,0,-1,261.841,40.643)"
       style="font-variant:normal;font-weight:normal;font-size:18px;font-family:MyriadPro;-inkscape-font-specification:MyriadPro-Regular;writing-mode:lr-tb;fill:#100f0d;fill-opacity:1;fill-rule:nonzero;stroke:none"
       id="text344"><tspan
         x="0 12.492 23.219999"
         y="0"
         sodipodi:role="line"
         id="tspan342">ω=0</tspan></text>
<text
       transform="matrix(1,0,0,-1,294.294,46.637)"
       style="font-variant:normal;font-weight:normal;font-size:10.49400043px;font-family:MyriadPro;-inkscape-font-specification:MyriadPro-Regular;writing-mode:lr-tb;fill:#100f0d;fill-opacity:1;fill-rule:nonzero;stroke:none"
       id="text348"><tspan
         x="0"
         y="0"
         id="tspan346">-</tspan></text>
<text
       transform="matrix(1,0,0,-1,221.583,146.804)"
       style="font-variant:normal;font-weight:normal;font-size:18px;font-family:MyriadPro;-inkscape-font-specification:MyriadPro-Regular;writing-mode:lr-tb;fill:#100f0d;fill-opacity:1;fill-rule:nonzero;stroke:none"
       id="text354"><tspan
         x="0 5.526 14.76 18.486"
         y="0"
         sodipodi:role="line"
         id="tspan350">-1.1</tspan><tspan
         x="97.084 109.576 120.304"
         y="1.378"
         sodipodi:role="line"
         id="tspan352">ω=∞</tspan></text>
<g
       id="g356"
       transform="scale(0.1)"><g
         id="g358"
         clip-path="url(#clipPath362)"><g
           id="g364"
           transform="translate(3155,1630)"><path
             d="m 0,0 c 0,-16.11 -13.43,-29.17 -30,-29.17 -16.57,0 -30,13.06 -30,29.17 0,16.11 13.43,29.17 30,29.17 C -13.43,29.17 0,16.11 0,0"
             style="fill:#100f0d;fill-opacity:1;fill-rule:nonzero;stroke:none"
             id="path366"
             inkscape:connector-curvature="0" /></g><g
           id="g368"
           transform="translate(2632.5,1630)"><path
             d="m 0,0 c 0,-16.11 -13.43,-29.16 -30,-29.16 -16.57,0 -30,13.05 -30,29.16 0,16.11 13.43,29.16 30,29.16 C -13.43,29.16 0,16.11 0,0"
             style="fill:#100f0d;fill-opacity:1;fill-rule:nonzero;stroke:none"
             id="path370"
             inkscape:connector-curvature="0" /></g></g></g></g></svg>