<?xml version="1.0" encoding="UTF-8" standalone="no"?>
<!-- Created with Inkscape (http://www.inkscape.org/) -->

<svg
   xmlns:dc="http://purl.org/dc/elements/1.1/"
   xmlns:cc="http://creativecommons.org/ns#"
   xmlns:rdf="http://www.w3.org/1999/02/22-rdf-syntax-ns#"
   xmlns:svg="http://www.w3.org/2000/svg"
   xmlns="http://www.w3.org/2000/svg"
   xmlns:sodipodi="http://sodipodi.sourceforge.net/DTD/sodipodi-0.dtd"
   xmlns:inkscape="http://www.inkscape.org/namespaces/inkscape"
   version="1.1"
   id="svg2"
   xml:space="preserve"
   width="913.49414"
   height="738.49182"
   viewBox="0 0 913.49414 738.49182"
   sodipodi:docname="bode3.svg"
   inkscape:version="0.92.0 r15299"><metadata
     id="metadata8"><rdf:RDF><cc:Work
         rdf:about=""><dc:format>image/svg+xml</dc:format><dc:type
           rdf:resource="http://purl.org/dc/dcmitype/StillImage" /><dc:title></dc:title></cc:Work></rdf:RDF></metadata><defs
     id="defs6"><clipPath
       clipPathUnits="userSpaceOnUse"
       id="clipPath18"><path
         d="M 6847.86,5510 H 547.855 V 720 H 6847.86 Z"
         id="path16"
         inkscape:connector-curvature="0" /></clipPath></defs><sodipodi:namedview
     pagecolor="#ffffff"
     bordercolor="#666666"
     borderopacity="1"
     objecttolerance="10"
     gridtolerance="10"
     guidetolerance="10"
     inkscape:pageopacity="0"
     inkscape:pageshadow="2"
     inkscape:window-width="640"
     inkscape:window-height="480"
     id="namedview4"
     showgrid="false"
     fit-margin-top="0"
     fit-margin-left="0"
     fit-margin-right="0"
     fit-margin-bottom="0"
     inkscape:zoom="0.22348485"
     inkscape:cx="327.84129"
     inkscape:cy="495.20279"
     inkscape:window-x="0"
     inkscape:window-y="0"
     inkscape:window-maximized="0"
     inkscape:current-layer="g10" /><g
     id="g10"
     inkscape:groupmode="layer"
     inkscape:label="A9R1xq39le_h2opwv_4gs"
     transform="matrix(1.3333333,0,0,-1.3333333,-1.853625,771.28902)"><g
       id="g12"
       transform="scale(0.1)"><g
         id="g14"
         clip-path="url(#clipPath18)"><g
           id="g20"
           transform="translate(1050.8199,746.27)"><path
             d="M 0,0 C -0.08,4.019 -0.16,8.05 -0.24,12.101 -147.949,3.691 -295.953,15.98 -443.535,0 -295.691,0 -147.84,0 0,0 Z m 1062.58,-4.59 c 22.49,-3.391 29.52,3.519 30.35,19.5 0.96,18.558 -7.24,23.629 -24.81,22.609 -47.27,-2.711 -94.61,-4.25 -141.93,-5.891 -86.01,-2.988 -172.03,-5.418 -258.02,-8.937 -9.91,-0.402 -26.66,1.98 -26.64,-13.313 0.02,-15.269 15.91,-11.918 26.51,-13.339 43.49,-5.829 86.01,11.222 130.86,1.152 34.39,-7.723 71.75,9.398 107.99,-1.473 18.88,-5.668 42.38,17.75 45.04,14.711 35.41,-40.281 83.5,21.36 110.65,-15.019 z m 3912.32,998 c 232.21,-287.06 480.94,-552.24 747.06,-815.5 0,61.269 -1.38,111.22 0.53,161.03 1.09,28.66 -9.53,45.42 -34.12,60.01 C 5483,520.81 5302.88,674.47 5133.71,841.86 5082.7,892.32 5029.93,941 4974.9,993.41 Z M 2677.22,407.84 c -1.16,-8.45 -7.23,-12.54 -14.03,-16.17 C 2576.15,345.1 2487.97,301.04 2395.59,265.8 2178.75,183.07 1954.29,130.878 1724.86,99.121 1539.4,73.429 1353.46,52.199 1166.09,46.019 c -14.72,-0.48 -29.52,-4.34 -43.91,-8.09 -11.21,-2.91 -14.86,-13.199 -15.32,-23.48 -0.57,-12.43 8.29,-17.348 19.11,-18.918 8.6,-1.242 17.32,-2.242 26,-2.301 118.42,-0.91 236.84,-2.148 355.26,-1.789 16.76,0.059 34.67,-8.082 51.78,9.41 11.64,11.867 23.28,-13.109 41.45,-12.23 63.59,3.078 127.44,0.789 191.18,1.238 14.09,0.101 30.71,-4.301 38.01,15.461 3.61,9.75 9.42,6.851 11.36,-1.512 4.18,-18 18.31,-13.93 30.13,-14.047 38.75,-0.41 78.13,-4.613 116.03,1 28.75,4.258 54.93,3.18 83.51,0.828 32.73,-2.718 72.54,-19.89 100.82,16.262 0.72,0.91 5.05,0.258 6.66,-1 37.91,-29.391 76.31,-25.383 114.91,-1.75 5.79,3.559 8.69,1.66 11.3,-3.641 7.96,-16.21 23.09,-11.71 36.31,-12.179 37.11,-1.301 73.9,3.859 111.52,1.879 27.69,-1.469 57.33,-1.809 85.79,-0.571 21.25,0.93 40.77,8.821 63.26,-0.48 14.83,-6.117 29.18,1.851 30.33,22.441 0.5,8.961 -3.74,20.301 13.11,28.828 -5.37,-67.886 41.83,-52.839 79.55,-52.988 109.64,-0.43 219.44,2.602 328.78,-3.148 24.89,-1.313 50.45,33.949 73.93,-0.141 81.17,9.457 165.33,-23.031 244.41,17.289 2.08,1.059 6.46,-1.14 9.19,-2.781 43.09,-25.66 139.32,-25.129 181.87,2.082 8.54,5.469 11.43,1 13.59,-4.602 6.11,-15.859 20.53,-14.699 31.81,-13.211 35.26,4.68 74.52,-18.039 105.82,14.973 3.96,4.18 5.51,-2.172 8.28,-3.691 37.56,-20.399 74.95,-25.282 110.89,3.441 7.02,5.609 9.5,1.629 14.77,-2.66 28.27,-22.953 58.21,-21.231 87.31,-2.121 5.82,3.828 8.14,9.262 12.42,0.199 7.01,-14.848 20.67,-11.359 32.69,-12.168 31.81,-2.109 63.02,23.219 95.96,0.797 6.48,-4.398 19.6,0.113 25.09,11.121 5.74,11.512 9.56,8.473 18.74,0.66 27.53,-23.449 44.36,-16.359 52.82,19.281 1.57,6.551 -0.62,15.399 8.57,18.75 13.03,-50.89 13.03,-50.761 71.23,-50.742 111.26,0.043 222.57,1.832 333.73,-1.476 29.03,-0.864 56.39,7.308 86.37,6.078 80.88,-3.32 165.23,-25.719 244.83,11.898 2.42,1.153 6.95,-0.097 9.59,-1.718 53.2,-32.559 111,-8.59 166.39,-13.79 10.92,-1.031 9.28,17.668 22.3,13.239 63.23,-21.508 73.7,-21.258 143.13,3.64 4.46,1.59 6.31,-0.109 9.41,-2.23 36.97,-25.391 74.21,-27.699 111.29,-0.32 7.06,5.211 11.22,2.402 14.71,-3.739 8.56,-15.109 23.48,-11.379 36.74,-12.672 22.85,-2.23 44.23,1.012 62.33,16.582 32.63,-43.921 77.04,4.469 117.63,-15.511 28.6,-14.059 64.79,29.031 103.63,23.511 1.33,-0.191 5.62,8.239 5.63,12.668 0.19,69.52 12.23,136.832 -51.75,195.622 -110.14,101.2 -212.78,210.92 -314.84,320.52 -161.64,173.58 -311.91,357.2 -466.28,537.21 -115.42,134.6 -233.22,267.82 -379.27,370.97 -145.67,102.88 -302.47,152.4 -479.48,86.39 -109.57,-40.85 -200.82,-110.48 -288.9,-184.53 C 3619.03,1242.67 3513.94,1125.49 3405.37,1011.89 3240.47,839.33 3071.8,670.8 2877.86,530.11 2814.51,484.16 2752.89,434.95 2677.7,408.27 c 6.31,13.37 19.2,19.19 30.8,26.15 265.18,158.94 482.39,373.73 693.6,595.53 135.01,141.78 265.71,288.14 425.17,404.23 100.54,73.18 208.89,128.52 335.25,137.33 142.83,9.94 267.17,-42.87 380.6,-123.2 117.63,-83.31 218.7,-185.62 318.21,-289.32 141.72,-147.71 277.28,-301.38 429.98,-438.49 123.01,-110.46 253.36,-210.73 393.67,-298.1 20.13,-12.55 38.86,-24.92 37.72,15.71 -1.08,38.57 -2.15,77.38 0.68,115.79 10.67,144.75 2.42,289.64 5.71,434.42 0.78,33.92 2.39,64.93 -50.36,60.76 51.15,-2.83 50.65,26.79 50.58,60.94 -0.6,309.79 -0.39,619.58 6.12,929.31 1.14,54.35 1.69,54.94 -52.15,59.49 -10.29,0.88 -14.73,7.09 -21.91,11.31 -25.89,15.22 -50.56,18.05 -68.12,-13.16 -12.92,21.64 -24.36,27.99 -54.19,24.05 -23.09,-3.04 -41.77,-18.77 -70.01,-2.03 -15.1,8.94 -54.46,15.23 -70.44,-24.18 -10.29,26.81 -30.76,32.1 -52.19,27.93 -21.51,-4.18 -43.37,6.95 -66.41,-10.26 -10.42,-7.81 -40.72,15.4 -62.16,9.7 -30.34,-8.06 -68.58,22.83 -91.99,-18.38 -0.43,-0.76 -5.87,-0.29 -6.51,0.91 -18.6,35.3 -52.63,19.09 -77.07,17.39 -34.52,-2.39 -74.83,18.73 -104.43,-17.21 -3.95,-4.81 -9.13,-0.62 -11.22,4.71 -7.46,19 -24.37,14.75 -38.58,14.78 -63.74,0.17 -127.47,-0.43 -191.21,-0.84 -9.78,-0.06 -22.02,3.15 -27.39,-7.27 -9.85,-19.12 -15.93,-13.47 -24.43,0.76 -5.05,8.48 -15.39,7.15 -24.03,7.16 -130.01,0.13 -260.01,-0.02 -390,0.36 -20.37,0.05 -29.71,-8.71 -30.52,-28.85 -0.3,-7.77 2.4,-18.03 -10.3,-22.35 -7.87,7.83 -6.43,18.22 -6.57,27.52 -0.28,18.22 -13.95,29.56 -25.91,22.12 -26,-16.17 -47.76,-3.09 -71.53,1.06 -10.73,1.87 -22.92,2.42 -31.94,-6.47 -5.12,-5.04 -7.83,-4.21 -14.93,-1.4 -27.56,10.88 -56.36,20.57 -79.94,-8.93 -24.46,25.28 -55.43,17.05 -84.75,15.77 -5.25,-0.23 -10.84,-5.39 -15.18,-9.45 -3.7,-3.46 -6.93,-8.53 -11.43,-3.11 -21.87,26.37 -51.87,14.77 -76.83,12.63 -29.16,-2.52 -56.56,-3.28 -86.11,-0.76 -32.48,2.77 -72.19,19.38 -101.28,-14.75 -0.75,-0.88 -5.18,-0.36 -5.94,0.79 -19.92,30.23 -51.14,16.74 -75.4,14.71 -37.12,-3.09 -80.18,21.62 -111.47,-18.38 -2.89,-3.69 -7.3,-0.6 -8.63,3.21 -8.3,23.68 -28.67,16.03 -44.78,16.32 -52.48,0.97 -105.05,2.08 -157.45,-0.22 -19.67,-0.86 -45.91,14.33 -58.95,-16.22 -2.87,-6.75 -8.23,-1.3 -10.26,3.37 -8.2,18.97 -25.27,13.15 -39.22,13.22 -117.49,0.56 -235.03,-0.93 -352.49,1.4 -36.91,0.73 -60.76,-5.51 -60.96,-47.5 -0.01,-0.84 -4.08,-1.66 -6.89,-2.74 -11.94,14.72 5.16,54.51 -26.87,46.87 -30.34,-7.25 -56.25,-2.28 -84.27,2.15 -9.7,1.53 -20.33,-0.26 -26.57,-10.16 -7.58,-12.03 -13,-12.76 -20.24,1.13 -6.12,11.79 -20.36,11.76 -30.31,9.14 -32.62,-8.54 -65.69,2.08 -96.46,-1.58 -41.09,-4.88 -80.21,1.86 -120.17,2.08 -16.96,0.1 -35.39,4.84 -49.29,-10.86 -3.21,-3.63 -7.28,-5.04 -13.16,-2.29 -45.74,21.3 -91.79,21.95 -137.43,-0.31 -5.71,-2.78 -8.79,0.1 -13.37,1.54 -59.78,18.77 -119.46,22.18 -178.84,-2.07 -2.72,-1.12 -8.14,-1.47 -9.19,0.03 -17.63,25.03 -43.71,12.58 -65.92,14.2 -29.84,2.16 -59.96,0.52 -89.96,0.42 -28.74,-0.1 -64.92,10.51 -84.55,-2.95 -32.29,-22.15 -49.54,9.17 -75.08,7.28 -123.33,-9.15 -246.86,2.49 -370.37,1 -23.11,-0.29 -35.08,-7.61 -37.51,-30.77 -0.77,-7.35 3.73,-18.1 -9.28,-21.32 -10.84,16.47 5.08,46.12 -26.48,51.78 -19.64,3.52 -33.81,-1.8 -43.84,-27.19 0.09,31.33 -17.47,28.54 -34.4,27.35 -27.68,-1.96 -54.35,-12.1 -83.54,-0.12 -12.72,5.23 -34.58,8.15 -46.37,-12.65 -6.04,-10.66 -7.81,2.27 -11.85,4.5 -29.1,16.03 -59.05,12.08 -88.81,2.1 -4.37,-1.47 -3.19,-12.14 -12.96,-6.91 -38.5,20.58 -76.93,26.65 -113.85,-3.93 -5.3,-4.39 -9.85,-2 -12.18,2.71 -10.39,21.03 -30.67,11.02 -46.24,15.89 -40.18,12.57 -77.69,-9.56 -119.69,-4.75 -53.93,6.15 -115.55,25.79 -168.03,-14.42 -5.15,-3.94 -9.53,-1.93 -12,3.31 -10.11,21.44 -29.72,14.69 -46.19,14.99 -44.98,0.82 -90.2,-2.23 -134.93,1.29 -43.21,3.41 -85.24,-5.56 -128.99,-3.37 -135.827,6.81 -272.222,2.49 -410.202,2.49 12.754,-12.07 34.062,3.36 42.383,-15.87 -2.082,-1.9 -2.895,-3.23 -3.953,-3.48 -3.633,-0.86 -7.625,-2.54 -10.997,-1.77 -41.207,9.34 -46.328,-12.67 -46.183,-47.04 0.543,-128.54 -1.297,-257.08 -2.266,-385.62 -1.406,-186.14 -2.363,-372.28 -4.637,-558.4 -0.449,-36.5 10.473,-57.91 56.231,-55.95 -57.477,6.36 -55.363,-26.12 -54.641,-63.24 1.868,-95.93 2.621,-191.98 -0.023,-287.87 -5.996,-217.35 -2.777,-434.72 -4.871,-652.049 -0.254,-26.019 6.304,-38.641 35.894,-37.961 100.871,2.25 201.789,2.551 302.688,2.84 299.767,0.859 599.467,3.039 899.117,14.301 299.45,11.258 598.42,25.539 895.66,66.879 152.28,21.179 303.33,47.09 451.83,87.14 171.62,46.282 337.86,106.2 494.11,192.11 17.09,9.39 33.38,22.78 54.94,21.68 z M 5740.79,1665.9 c 0,-139.64 0.24,-279.28 -0.06,-418.92 -0.69,-327.23 -1.65,-654.46 -2.48,-981.68 -0.21,-83.57 -0.04,-167.129 -0.56,-250.699 -0.27,-45 -5,-49.961 -49.32,-49.723 -193.56,1.012 -387.11,3.153 -580.65,3.614 -628.12,1.488 -1256.24,2.5 -1884.36,3.496 -344.93,0.543 -689.86,0.051 -1034.79,1.211 -444.46,1.5 -888.94,4.261 -1333.4,6.332 -219.63,1.019 -439.25,1.41 -658.87,2.64 -208.28,1.18 -416.55,3.457 -624.831,4.207 -30.297,0.114 -45.887,6.293 -44.793,41.653 12.637,409.609 3.922,819.379 7.328,1229.059 2.332,280.95 5.164,561.91 6.606,842.88 0.179,34.99 10.558,47.55 47.441,47.16 565.549,-6.01 1131.129,-5.63 1696.709,-4.37 332.36,0.73 664.73,-2.59 997.1,-3.72 190.76,-0.65 381.53,0.47 572.3,-0.95 928,-6.93 1856.03,-1.7 2784.04,-4.02 18.73,-0.04 37.45,-1.66 56.19,-1.81 52.24,-0.42 52.44,-0.26 52.49,-53.91 0.12,-137.48 0.04,-274.96 0.04,-412.43 -2.04,-0.01 -4.09,-0.02 -6.13,-0.02"
             style="fill:#231f20;fill-opacity:1;fill-rule:evenodd;stroke:none"
             id="path22"
             inkscape:connector-curvature="0" /></g><g
           id="g24"
           transform="translate(6783.0801,5159.5098)"><path
             d="M 0,0 C -138.66,1.02 -416.99,-49.75 -490.62,-90.03 -324.44,-39.94 -162.76,-18.73 0,0 Z m -2409.69,307.88 c 61.34,17.83 123.96,4.84 185.86,6.4 108.36,2.76 216.87,-0.51 325.31,-0.61 139.55,-0.14 279.08,0.78 418.63,0.49 213.08,-0.44 426.17,-1.47 639.26,-2.35 193.35,-0.8 386.69,-1.93 580.04,-2.52 83.62,-0.24 167.25,-0.48 250.84,1.42 28.57,0.66 40.05,-6.86 39.88,-37.33 -1.77,-312.44 -2.51,-624.88 -3.34,-937.32 -0.39,-145.8 0.29,-291.62 -0.7,-437.42 -1.04,-148.62 -4.01,-297.23 -5.27,-445.85 -1.38,-161.81 -0.63,-323.72 -3.87,-485.39 -2.03,-101.22 25.4,-91 -83.29,-90.97 -882.39,0.23 -1764.79,0.34 -2647.19,1.39 -262.05,0.3 -524.11,4.65 -786.16,5.1 -687.25,1.16 -1374.49,0.95 -2061.73,1.86 -184.63,0.25 -369.258,2.41 -553.887,3.91 -76.113,0.6 -76.8,0.87 -75.515,76.04 6.543,382.2 4.808,764.46 9.07,1146.65 2.906,260.95 3.906,521.88 6.586,782.81 1.305,127.12 3.871,254.23 5.762,381.34 0.664,44.46 6.551,48.32 50.211,47.54 103.246,-1.81 206.523,-1.68 309.785,-2.38 164.138,-1.11 328.268,-2.36 492.398,-3.32 93.63,-0.55 187.27,-0.84 280.9,-0.89 243.65,-0.11 487.3,0.08 730.94,-0.03 458.68,-0.2 917.34,-0.53 1376.01,-0.79 154.86,-0.09 309.73,-0.17 464.58,-0.28 18.7,-0.01 37.61,1.36 55.15,-7.38 -5.65,-2.35 -11.1,-5.7 -16.98,-6.89 -56.99,-11.51 -118.51,20.32 -172.89,-17.92 -0.79,-0.56 -4.44,1.68 -5.8,3.37 -19.16,24.01 -46.16,14.34 -69.69,14.66 -109.8,1.5 -219.6,1.07 -329.41,1.7 -28.46,0.16 -56.84,1.67 -52.23,-40.55 0.2,-1.84 -4.56,-4.22 -9.95,-8.93 -4.98,43.77 -21.82,64.24 -62.83,36.02 -6.46,-4.45 -8.32,1.66 -12.09,4.22 -21.33,14.46 -42.58,12.15 -61.78,-3.21 -7.86,-6.27 -11.19,-4.66 -18.48,0.36 -24.12,16.58 -49.21,18.36 -72.91,-1.1 -4.76,-3.91 -6.42,-4.81 -11.69,-0.86 -31.25,23.41 -63.03,19.22 -94.21,-0.19 -4.59,-2.86 -8.56,-6.65 -12.48,-1.73 -23.37,29.38 -56.19,10.8 -84.02,17.15 -17.43,3.96 -27.13,-23.53 -31.93,-18.18 -34.47,38.41 -76.93,9.96 -114.6,16.83 -7.45,1.36 -18.48,5.87 -22.98,-5.85 -5.49,-14.31 -8.57,-18.23 -16.15,-0.48 -5.39,12.64 -19.88,7.7 -30.4,7.76 -38.65,0.27 -79.17,6.52 -115.38,-3.09 -30.29,-8.03 -54.9,2.23 -82.1,3.12 -59.83,1.97 -119.73,1.87 -179.59,2.57 -28.5,0.33 -56.11,-4.38 -85.62,-2.74 -119.54,6.59 -239.69,1.43 -359.57,3.31 -36.01,0.56 -61.15,-4.4 -61.71,-46.74 -0.01,-0.87 -4.09,-1.68 -6.4,-2.56 -13.54,13.24 6.4,43.94 -24.7,47.75 -19.38,2.38 -37.01,0.4 -42.99,-24.9 -18.45,29.8 -42.77,34.9 -68.86,15.48 -7.75,-5.77 -9.36,-11.39 -19.76,-1.83 -23.05,21.17 -49.6,15.82 -75.11,2.91 -4.35,-2.2 -4.56,-12.61 -13.3,-5.77 -30.96,24.21 -61.89,23.62 -92.26,-1.09 -6.66,-5.42 -8.92,-1.48 -14.44,2.82 -23.42,18.22 -81.52,19.22 -107.04,2.91 -3.47,-2.21 -4.76,-10.98 -10.55,-5.11 -31.55,31.94 -71.11,14.83 -105.77,13.5 -26.14,-1.01 -49.78,-7.36 -77.85,0.11 -30.33,8.08 -64.5,2.11 -96.99,1.71 -22.61,-0.28 -47.81,6.49 -62,-20.11 -14.27,25.92 -39.04,20.47 -61.84,20.54 -45,0.16 -90.03,-1.05 -134.98,0.43 -42.38,1.39 -84.41,-3.25 -127.08,-1.75 -126.03,4.43 -252.319,1 -378.494,2.23 -30.004,0.28 -41.356,-7.64 -41.18,-40.12 0.867,-162.47 -0.91,-324.95 -1.418,-487.43 -0.055,-17.36 -0.695,-35.53 3.945,-51.91 5.66,-19.95 30.871,-5.2 48.157,-21.83 -50.567,8.1 -52.504,-19.21 -52.625,-53.25 -0.543,-158.32 -3.094,-316.64 -4.481,-474.95 -0.523,-59.66 0.024,-59.66 51.895,-74.28 -53.121,-12.31 -53.102,-12.31 -53.493,-70.96 -1,-150.91 -1.367,-301.82 -3.343,-452.72 -0.856,-65.2 -2.379,-65.19 53.785,-79.34 -2.004,-7.8 -8.942,-8.79 -14.551,-8.14 -39.676,4.54 -44.309,-17.88 -43.34,-50.29 1.821,-61.19 0.586,-122.48 0.297,-183.72 -0.269,-57.59 -0.461,-57.63 57.227,-57.74 512.359,-0.93 1024.719,-2.24 1537.089,-2.63 253.45,-0.19 506.9,1.57 760.36,2.01 317.22,0.55 634.33,3.33 949.53,45.49 137.75,18.42 271.53,52.12 402.21,100.36 52.56,19.41 100.13,50.2 154.89,63.59 -5.04,-12.86 -16.56,-17.96 -27.86,-23.44 -102.53,-49.71 -209.29,-88.04 -319.79,-115.36 -189.89,-46.96 -384.11,-60.37 -578.49,-72.85 -177.07,-11.37 -354.46,-9.1 -531.66,-12.28 -261.16,-4.68 -522.45,-2.62 -783.68,-1.6 -336.14,1.3 -672.29,-2.15 -1008.44,3.34 -191.93,3.14 -383.945,0.97 -575.905,2.7 -25.985,0.23 -36.235,-5.89 -35.934,-32.66 0.812,-72.47 0.684,-144.99 -0.898,-217.46 -0.622,-28.71 8.808,-39.93 38.675,-39.82 106.2,0.41 212.555,-4.65 318.555,-0.38 34.625,1.4 77.677,-21.9 106.437,19.31 2.56,3.68 7.19,2.77 8.95,-1.47 11.58,-27.91 36.39,-16.53 55.62,-17.36 46.17,-1.98 92.51,0.07 138.7,-1.74 43.99,-1.74 86.53,14.26 132.22,2.4 32.79,-8.49 69.73,0.41 104.49,-2.44 17.06,-1.39 27.06,16.14 43.33,10.78 45.62,-15.04 91.01,-20.72 135.45,3.55 5.15,2.8 8.24,2.15 13.21,-0.15 36.85,-17.17 74.01,-31.71 111.53,-1.52 3.49,2.79 4.99,1.17 8.51,-0.63 40.69,-20.93 55.21,-20.55 98.4,3.35 9.17,5.06 9.56,-3.43 14.18,-5.99 24.91,-13.8 50.45,-25.95 74.13,1.99 6,7.09 9.78,5.95 13.94,-0.82 11.52,-18.75 30.1,-10.94 44.26,-8.53 17.41,2.97 30.38,9.34 49.61,-2.78 12.86,-8.08 41.47,-5.88 41.18,26.03 -0.06,7.5 -2.87,18.3 9.97,20.49 16,-48.04 15.99,-49.1 69.77,-49.57 116.22,-1.02 232.44,-0.93 348.67,-1.06 14.57,-0.02 30.43,-2.88 37.5,16.53 3.14,8.65 10,6.74 11.56,-1.56 2.05,-10.89 8.4,-15.67 18.13,-14.55 80.97,9.4 164.84,-21.97 243.68,17.34 1.8,0.9 5.39,0.96 6.65,-0.2 39.82,-37.03 88.16,-10.16 131.99,-17.11 17.16,-2.72 37.84,-5.78 48.81,17.14 5.07,10.59 12.18,6.3 14.48,-3.28 3.67,-15.4 16.3,-15.54 26.75,-13.95 36.41,5.58 77.42,-17.94 109.45,16.81 1.43,1.55 7.29,1.14 9.52,-0.5 36.71,-26.85 72.95,-28.11 108.9,1.18 4.66,3.79 8.16,3.57 12.51,-0.71 29.62,-29.13 60.93,-23.74 92.26,-3.45 6.01,3.89 10.16,7.57 14.49,-0.83 9.97,-19.36 30.57,-16.89 42.95,-11.98 25.84,10.26 48.09,5.21 73.35,-0.35 25.27,-5.58 50.89,19.22 79.55,0.3 11.04,-7.28 25.81,3.22 27.15,21.47 0.67,8.97 -3.1,20.57 9.31,25.9 16.47,-48.69 16.47,-48.8 73.92,-48.92 78.75,-0.17 157.5,-0.15 236.24,-0.21 36.25,-0.03 75.29,-8.53 107.98,2.26 35.58,11.75 65.08,-2.05 97.26,-2.44 57.48,-0.7 115.03,1.3 172.46,-0.55 24.65,-0.79 44.29,12.53 74.44,5.79 50.03,-11.2 109.46,-25.35 159.73,12.01 3.52,2.61 5.23,1.79 8.89,-0.2 44.96,-24.2 92.29,-24.76 135.36,-1.17 6.75,3.69 10.59,5.27 14.28,-2.55 7.6,-16.08 22.75,-12.83 36.01,-13.47 48.1,-2.31 96.17,12.51 144.43,-0.05 6.8,-1.78 17.46,-1.75 21.76,2.31 13.57,12.77 22.52,6.83 37.84,1.07 21.49,-8.1 45.72,-12.38 69.59,9.15 6.14,5.55 43.15,-22.95 67.57,-4.73 10.7,7.98 14.55,4.87 24.53,-0.84 26.81,-15.33 40.64,-7.47 46.41,22.41 1.53,7.89 -1.38,18.38 10.85,20.88 8.64,-6.49 6.12,-15.97 6.08,-24.15 -0.13,-21.19 10.66,-28 30.61,-27.99 123.48,0.09 246.96,-0.69 370.46,-0.57 30.82,0.03 58.44,12.79 93.26,2.9 41.41,-11.77 88.91,-1.82 133.78,-1.81 24.92,0 49.85,-1.66 74.79,-1.52 19.57,0.12 39.15,3.35 58.68,2.98 51.93,-0.97 109.94,-27.24 158.38,15.26 1.39,1.24 5.76,1.65 6.5,0.71 29.57,-38.18 71.58,-13.29 107.1,-21.06 18.36,-4.01 34.47,1 40.31,20.59 13.49,-2.65 7.83,-20.77 17.07,-19.42 33.06,4.88 69.77,-18 99.31,12.37 4.66,4.81 7.59,9.1 14.65,2.89 30.71,-26.99 61.79,-27.68 92.54,0.1 7.12,6.45 9.65,0.76 14.29,-3.7 23.5,-22.53 47.98,-20.76 72.07,-0.9 4.29,3.53 6.73,12.88 13.17,4.16 21.69,-29.33 45.36,-22.05 69.3,-4.25 4.69,3.49 5.75,3.72 11.35,0.83 47.84,-24.72 57.26,-19.08 57.36,33.5 0.29,167.5 0.17,335 0.8,502.5 0.1,28.45 1.54,55.69 -48.43,52.65 55.19,-5.64 48.33,27.44 48.68,54.91 2.01,161.04 3.64,322.08 5.98,483.11 0.47,32.7 5.35,66.7 -44.03,65.06 -0.03,0 -0.19,3.93 -0.41,8.08 41.81,-6.32 45.12,18.24 45.02,51.7 -0.43,154.97 1.01,309.94 2.19,464.9 0.29,38.37 14.32,83.84 -54.89,84.19 36.64,1.81 57.6,10.94 56.69,49.19 -1.61,67.17 0.38,134.42 1.27,201.64 0.31,23.57 -14.36,26.47 -32.37,24.6 -49.62,-5.17 -99.28,-10.17 -148.79,-16.3 -154.36,-19.08 -304.67,-54.39 -448.89,-113.62 -176.63,-72.56 -331.46,-179.87 -472.69,-306.09 -186.38,-166.57 -353.61,-352.28 -520.69,-537.79 -167.53,-186 -344.37,-361.87 -550.16,-505.77 -48.4,-33.84 -96.15,-71.5 -155.63,-86.57 9.8,13.49 23.95,21.77 37.86,29.77 195.81,112.58 360.17,263.78 515.12,425.28 199.61,208.07 382.16,432.19 590.33,632.26 170.29,163.67 354.78,307.77 576.44,396.52 183.69,73.54 376.13,108.86 572.88,121.58 28.47,1.84 39.93,10 39.16,39.59 -1.71,64.95 -0.81,129.97 -0.68,194.96 0.1,54.73 -9.25,53.97 -60.7,37.97 -23.67,-7.36 -56.22,8.25 -89.76,1.7 -20.87,-4.08 -51.33,16.6 -77.65,-3.75 -5.13,-3.98 -8.3,-3.52 -11.77,1.44 -13.72,19.65 -34.87,12.99 -51.77,10.79 -29.18,-3.78 -56.26,-7.52 -86.83,-1.2 -24.21,5.01 -57.38,15.8 -78.95,-14.38 -2.84,-3.97 -6.21,0.58 -7.92,3.88 -9.13,17.63 -25.74,11.77 -39.98,12.38 -59.65,2.55 -118.87,-7.73 -179.13,-1 -40.35,4.5 -84.87,-8.56 -123.05,-6.05 -89.66,5.9 -177.93,17.06 -266.43,-5.97 -5.8,-1.51 -9.44,-0.09 -13.08,3.66 -13.13,13.56 -30.33,9.77 -46.08,9.84 -106.21,0.45 -212.44,1.18 -318.65,-0.13 -36.43,-0.46 -84.65,19.63 -91.12,-55.32 -12.42,28.1 -4.09,61.2 -34.16,54.15 -27.74,-6.52 -52.9,-2.5 -79.35,0.83 -9.97,1.25 -20.08,-1.07 -26.05,-11.16 -4.45,-7.55 -7.41,-4.66 -13.8,-0.42 -29.35,19.42 -58.51,20.75 -85.34,-5.62 -26.61,28.99 -57.77,20.21 -88.94,10.55 -2.15,-0.68 -3.73,-3.24 -5.57,-4.92 -4.51,-4.1 -8.78,-3.11 -13.13,0.43 -28.8,23.41 -62.34,7.26 -93.44,11.39 -13.05,1.73 -14.72,-17.26 -28.34,-13.29 -69.8,20.35 -84.55,19.85 -139.82,-3.28 -2.58,-1.07 -8.1,-0.76 -9.08,0.84 -16.44,26.77 -43.48,17.29 -64.81,15.29 -40.68,-3.8 -84.86,17.61 -121.96,-14.77 -22.21,25.84 -56.96,8.25 -82.16,23.73"
             style="fill:#231f20;fill-opacity:1;fill-rule:evenodd;stroke:none"
             id="path26"
             inkscape:connector-curvature="0" /></g></g></g><text
       transform="matrix(1,0,0,-1,46.786,55.791)"
       style="font-variant:normal;font-weight:normal;font-size:18px;font-family:MyriadPro;-inkscape-font-specification:MyriadPro-Regular;writing-mode:lr-tb;fill:#100f0d;fill-opacity:1;fill-rule:nonzero;stroke:none"
       id="text46"><tspan
         x="0 9.2340002 12.96 22.194 162 171.23399 174.96001 469 478.23401 611 620.23401 629.46802"
         y="0"
         sodipodi:role="line"
         id="tspan28">0.010.110100</tspan><tspan
         x="-7 2.234"
         y="-486"
         sodipodi:role="line"
         id="tspan30">50</tspan><tspan
         x="-8 1.234"
         y="-366.14301"
         sodipodi:role="line"
         id="tspan32">40</tspan><tspan
         x="319"
         y="-4.9737992e-014"
         id="tspan34">1</tspan><tspan
         x="226.422 234.7204 240.42639 249.4444 259.5784 269.4964 278.5144 288.50439 296.89209 304.66849 308.3945 312.21048 324.70248 328.51849 333.63049 339.42548 348.10147 358.25348 364.42749 371.55548 380.57349 388.63748"
         y="27.572001"
         sodipodi:role="line"
         id="tspan36">Frequency, ω (rad/sec)</tspan><tspan
         x="-6.9990001 2.2349999"
         y="-425.85699"
         sodipodi:role="line"
         id="tspan38">45</tspan><tspan
         x="-10 -0.76599997"
         y="-306.71399"
         sodipodi:role="line"
         id="tspan40">35</tspan><tspan
         x="-10 -0.76599997"
         y="-244.929"
         sodipodi:role="line"
         id="tspan42">30</tspan><tspan
         x="-14.999 -5.7649999 3.4690001"
         y="-121.75"
         sodipodi:role="line"
         id="tspan44">30˚</tspan></text>
<text
       transform="matrix(0,1,1,0,15.066,361.285)"
       style="font-variant:normal;font-weight:normal;font-size:18px;font-family:MyriadPro;-inkscape-font-specification:MyriadPro-Regular;writing-mode:lr-tb;fill:#100f0d;fill-opacity:1;fill-rule:nonzero;stroke:none"
       id="text50"><tspan
         x="0 14.580108 23.256107 33.209209 43.199207 47.411209 53.369209 63.287209 73.439209 82.457207 86.273209 91.385208 101.53721 111.29321"
         y="0"
         sodipodi:role="line"
         id="tspan48">Magnitude (dB)</tspan></text>
<text
       transform="matrix(1,0,0,-1,34.7867,279.47)"
       style="font-variant:normal;font-weight:normal;font-size:18px;font-family:MyriadPro;-inkscape-font-specification:MyriadPro-Regular;writing-mode:lr-tb;fill:#100f0d;fill-opacity:1;fill-rule:nonzero;stroke:none"
       id="text56"><tspan
         x="0 9.2340002 18.468"
         y="0"
         sodipodi:role="line"
         id="tspan52">60˚</tspan><tspan
         x="4.9990001 14.233"
         y="208.5"
         sodipodi:role="line"
         id="tspan54">0˚</tspan></text>
<text
       transform="matrix(0,1,1,0,15.0664,156.071)"
       style="font-variant:normal;font-weight:normal;font-size:18px;font-family:MyriadPro;-inkscape-font-specification:MyriadPro-Regular;writing-mode:lr-tb;fill:#100f0d;fill-opacity:1;fill-rule:nonzero;stroke:none"
       id="text60"><tspan
         x="0 9.4863062 19.476307 28.152306 35.280308"
         y="0"
         sodipodi:role="line"
         id="tspan58">Phase</tspan></text>
<text
       transform="matrix(1,0,0,-1,283.536,564.791)"
       style="font-variant:normal;font-weight:normal;font-size:18px;font-family:MyriadPro;-inkscape-font-specification:MyriadPro-Regular;writing-mode:lr-tb;fill:#100f0d;fill-opacity:1;fill-rule:nonzero;stroke:none"
       id="text64"><tspan
         x="0 9.8276043 19.709604 29.861605 38.879604 42.695602 54.683605 58.895603 67.571602 77.525711 83.321602 91.997604 107.00961 110.82561 115.93761 125.9996 129.7256 133.54161"
         y="0"
         sodipodi:role="line"
         id="tspan62">Bode Diagram (K, K</tspan></text>
<text
       transform="matrix(1,0,0,-1,426.832,558.798)"
       style="font-variant:normal;font-weight:normal;font-size:10.49400043px;font-family:MyriadPro;-inkscape-font-specification:MyriadPro-Regular;writing-mode:lr-tb;fill:#100f0d;fill-opacity:1;fill-rule:nonzero;stroke:none"
       id="text68"><tspan
         x="0"
         y="0"
         id="tspan66">d</tspan></text>
<text
       transform="matrix(1,0,0,-1,432.75,564.791)"
       style="font-variant:normal;font-weight:normal;font-size:18px;font-family:MyriadPro;-inkscape-font-specification:MyriadPro-Regular;writing-mode:lr-tb;fill:#100f0d;fill-opacity:1;fill-rule:nonzero;stroke:none"
       id="text72"><tspan
         x="0"
         y="0"
         id="tspan70">)</tspan></text>
</g></svg>