<?xml version="1.0" encoding="UTF-8" standalone="no"?>
<!-- Created with Inkscape (http://www.inkscape.org/) -->

<svg
   xmlns:dc="http://purl.org/dc/elements/1.1/"
   xmlns:cc="http://creativecommons.org/ns#"
   xmlns:rdf="http://www.w3.org/1999/02/22-rdf-syntax-ns#"
   xmlns:svg="http://www.w3.org/2000/svg"
   xmlns="http://www.w3.org/2000/svg"
   xmlns:sodipodi="http://sodipodi.sourceforge.net/DTD/sodipodi-0.dtd"
   xmlns:inkscape="http://www.inkscape.org/namespaces/inkscape"
   version="1.1"
   id="svg2"
   xml:space="preserve"
   width="916.30414"
   height="731.0625"
   viewBox="0 0 916.30414 731.0625"
   sodipodi:docname="bode2.svg"
   inkscape:version="0.92.0 r15299"><metadata
     id="metadata8"><rdf:RDF><cc:Work
         rdf:about=""><dc:format>image/svg+xml</dc:format><dc:type
           rdf:resource="http://purl.org/dc/dcmitype/StillImage" /><dc:title></dc:title></cc:Work></rdf:RDF></metadata><defs
     id="defs6"><clipPath
       clipPathUnits="userSpaceOnUse"
       id="clipPath18"><path
         d="M 6932.38,640 H 758.93 v 4810 h 6173.45 z"
         id="path16"
         inkscape:connector-curvature="0" /></clipPath></defs><sodipodi:namedview
     pagecolor="#ffffff"
     bordercolor="#666666"
     borderopacity="1"
     objecttolerance="10"
     gridtolerance="10"
     guidetolerance="10"
     inkscape:pageopacity="0"
     inkscape:pageshadow="2"
     inkscape:window-width="640"
     inkscape:window-height="480"
     id="namedview4"
     showgrid="false"
     fit-margin-top="0"
     fit-margin-left="0"
     fit-margin-right="0"
     fit-margin-bottom="0"
     inkscape:zoom="0.22348485"
     inkscape:cx="327.84129"
     inkscape:cy="495.20212"
     inkscape:window-x="0"
     inkscape:window-y="0"
     inkscape:window-maximized="0"
     inkscape:current-layer="g10" /><g
     id="g10"
     inkscape:groupmode="layer"
     inkscape:label="A9R1qr0sut_h2opwt_4gs"
     transform="matrix(1.3333333,0,0,-1.3333333,-1.853625,763.86036)"><g
       id="g12"
       transform="scale(0.1)"><g
         id="g14"
         clip-path="url(#clipPath18)"><g
           id="g20"
           transform="translate(1275.29,2836.8201)"><path
             d="m 0,0 c 0.2,-3.96 0.39,-7.93 0.58,-11.91 77.7,-2.86 155.39,-5.84 233.1,-8.45 8.78,-0.29 19.1,1.09 18.43,13.16 C 251.4,5.4 239.4,3.6 231.71,3.87 196.95,5.1 161.73,8.69 127.44,4.75 85.06,-0.11 41.72,11.93 0,0 Z m -446.497,2.55 c 141.758,-12.08 283.677,-13.33 425.597,-14.87 0.06,4.95 0.12,9.91 0.18,14.87 -141.92,0 -283.851,0 -425.777,0 z M 5273.79,-1559.41 c -19.63,0.1 -30.19,16.03 -44.08,25.8 -43.89,30.89 -85.85,64.75 -131.11,93.42 -215.14,136.28 -450.98,224.2 -695.16,291.02 -261.38,71.52 -527.61,122.82 -790.91,186.54 -260.88,63.13 -512.18,151.82 -754.96,265.23 -203.67,95.13 -399.24,206.39 -602.46,302.58 -229.15,108.46 -467.54,189.85 -715.14,241.13 -228.7,47.36 -460.97,74.66 -693.91,90.98 -237.81,16.66 -476.03,27.89 -714.51,31.92 -183.45,3.1 -366.89,6.93 -550.32,11.45 -31.29,0.76 -46.778,-4.41 -46.254,-42.28 1.769,-129.64 -0.813,-259.36 -1.211,-389.04 -0.055,-17.36 0.535,-35.35 4.988,-51.93 6.582,-24.53 33.598,-4.74 47.527,-17.95 -54.234,-13.05 -53.699,-13.05 -53.648,-71.51 0.101,-125.97 0.555,-251.97 -1.289,-377.93 -0.504,-34.74 1.57,-61.77 45.555,-60.51 0.316,0.01 0.757,-4.17 1.992,-11.33 -55.016,12.49 -48.266,-24.24 -48.141,-58.28 0.488,-129.95 0.531,-259.9 -0.48,-389.85 -0.254,-32.58 -1.473,-62.41 49.336,-58.14 -50.594,1.61 -49.832,-27.7 -49.536,-61.59 1.145,-129.97 1.371,-259.968 -0.918,-389.91 -0.648,-37.019 5.895,-60.917 47.75,-61.507 0.227,0 0.403,-4.153 0.723,-7.821 -11.074,-1.242 -22.168,-2.472 -42.887,-4.781 55.77,-10.902 101.942,-2.301 147.903,-5.43 39.672,-2.691 79.69,-0.41 119.55,-0.089 38.7,0.308 77.63,3.699 116.04,0.578 33.25,-2.7 62.1,13.242 99.97,3.781 59.69,-14.91 125.74,-3.199 188.97,-5.859 22.31,-0.942 32.14,11.957 44.61,24.328 9.75,-18.399 23.85,-24.211 45.43,-22.75 35.88,2.441 75.48,-9.028 107.22,2.562 34.86,12.758 62.13,-9.293 91.89,-3.5 29.22,5.68 62.81,-11.293 87.92,16.199 2.8,3.051 5.9,2.219 9.4,-0.73 33.92,-28.59 69.94,-20.172 104.16,-2.41 11.2,5.808 13.19,0.328 20.87,-3.192 29.15,-13.277 59.79,-19 87.32,3.661 7.05,5.8 8.12,4.742 13.55,-0.618 21.85,-21.593 46.65,-12.601 70.76,-4.89 3.45,1.109 5.9,12.301 9.76,6.738 29.83,-42.961 72.96,17.5 106.18,-14.391 7.93,-7.609 28.06,4.211 28.85,24.422 0.28,7.25 -4.32,17.739 7.89,21.571 13.1,-15 -1.67,-47.961 35.29,-47.602 123.31,1.242 246.68,1.961 369.92,-1.09 22.96,-0.551 46.16,22.41 48.35,18.34 14.4,-26.801 37.32,-16.488 56.56,-17.219 36.11,-1.379 72.33,0.149 108.5,0.258 24.95,0.09 56.92,-9.887 73.26,1.91 26.36,19.063 41.54,-7.129 61.48,-3.109 47.57,9.59 100.58,-21.66 144.08,19.332 5.02,4.73 7.44,-1.203 11.11,-4.512 16.88,-15.23 116.65,-24.308 129.03,-7.84 13.22,17.61 14.71,11.832 27.57,0.551 19.3,-16.93 88.82,-4.879 106.37,14.418 3.3,-6.367 6.49,-18.168 9.92,-18.238 26.02,-0.52 54.07,-15.551 77.45,7.679 5.16,5.129 7.61,14.141 16.39,3.872 23.91,-27.981 49.17,-18.551 73.32,-0.84 5.46,4 6.65,10.41 12.78,1.008 19.1,-29.329 41.84,-17.54 63.5,-3.86 4.51,2.84 4.31,10.059 13.53,5.649 48.98,-23.469 49.11,-23.09 55,26.523 0.43,3.617 2.21,7.238 9.02,5.93 0.92,-3.922 3.65,-8.891 2.84,-13.192 -6.29,-33.32 10.33,-38.941 39.3,-37.351 42.29,2.332 84.8,0.933 127.21,0.98 81.1,0.09 162.25,1.731 243.25,-1.019 20.37,-0.68 31.81,23.972 37.87,18.781 40.13,-34.379 85.94,-12.191 128.55,-16.672 32.14,-3.379 66.11,-7.238 96.88,-0.289 28.91,6.512 55.53,0.609 82.63,2.012 45.64,2.328 96.24,-22.821 137.44,17.179 1.47,1.418 6.71,0.481 9.29,-0.961 45.16,-25.558 90.83,-26.578 136.98,-1.929 5.37,2.871 7.37,2.25 12.19,-0.93 32.79,-21.59 72.36,-21.82 106.89,-0.148 6.31,3.957 7.16,1.117 11.52,-1.871 31.4,-21.563 52.64,-20.782 92.11,3.98 7.26,4.539 8.81,1.188 9.79,-3.652 3.79,-18.52 18.66,-13.008 30.11,-14.051 18.57,-1.699 38.17,-4.848 46.44,19.012 13.61,-11.34 26.3,-23.582 46.96,-19.149 19.73,4.227 37.26,17.789 60.86,1.438 13.75,-9.539 34.28,-0.578 31.93,25.652 -0.66,7.379 -2.99,18.199 9.16,21.43 15.86,-45.852 15.83,-48.36 71.26,-49.09 115.85,-1.5 231.74,-0.121 347.61,0.238 15.16,0.051 31.48,-0.59 31.47,27.981 5.33,-29.821 23.72,-27.371 41.65,-27.309 62.38,0.219 124.76,-0.383 187.13,0.109 10.33,0.09 24.36,-5.41 30.02,8.411 6.22,15.128 11.48,15.05 19,1.609 4.9,-8.731 12.59,-10.75 22.13,-10.672 42.4,0.363 87.43,-8.43 126.31,3.313 25.85,7.828 43.35,-2.25 64.41,-1.68 37.37,1.019 78.66,-19.07 111.46,16.027 1.1,1.172 6.57,-0.808 9.43,-2.367 36.99,-20.082 73.51,-30.672 108.65,3.707 5.02,4.891 8.47,0.992 12.23,-2.547 28.6,-26.851 58.15,-26.992 87.84,-2.113 4.38,3.684 8.44,7.5 10.68,0.523 8.23,-25.523 31.13,-16.55 44.38,-14.211 23.6,4.18 42.77,8.028 68.99,1.02 31.14,-8.34 61.45,29.211 99.03,22.75 7.59,-1.301 8.15,11.219 8.65,18.488 7.65,110.68 12.58,220.471 -92.64,296.031 -9.98,7.17 -18.13,17.07 -26.54,26.24 -49.6,54.06 -107.4,100.05 -154.26,156.8 14.79,-1.17 25.42,-10.32 35.16,-19.85 49.94,-48.84 99.85,-97.7 148.96,-147.36 27.92,-28.25 54.3,-58.03 85.62,-91.65 8.32,71.96 4.94,135.55 6.94,198.93 1.11,35.41 -0.16,65.59 -47.35,63.63 -0.45,-0.03 -1.07,4.11 -2.08,8.27 19.97,6.67 49.41,-0.74 49.14,36.48 -1.1,146.18 -0.37,292.37 -0.12,438.54 0.03,17.65 -5.64,28.33 -25.37,29.24 -29.86,1.36 -59.62,5.75 -89.46,6.07 -166.07,1.75 -332.09,2.3 -498.17,6.8 -312.08,8.45 -623.76,20.94 -934.41,53.45 -195.02,20.4 -388.66,48.84 -579.34,95.41 -51.39,12.54 -102.47,26.37 -153.69,39.61 3.44,-7.87 8.42,-11.49 13.98,-13.13 98.15,-28.88 195.51,-60.83 294.68,-85.59 296.45,-74.01 597.56,-128.81 891.55,-212.91 249.68,-71.42 487.86,-169.91 702.01,-319.41 35.91,-25.07 77.02,-46.14 101.24,-85.89 z M 1066.26,7.83 c 16.75,11.63 36,8.78 54.49,8.78 496.08,0.01 992.16,-0.17 1488.24,-0.3 224.88,-0.06 449.76,-0.16 674.63,-0.14 438.57,0.03 877.13,0.2 1315.7,0.16 302.32,-0.02 604.63,-0.16 906.95,-0.57 60.91,-0.08 61.02,-0.75 60.92,-62.78 -0.4,-211.95 -0.65,-423.9 -1.36,-635.86 -1.52,-449.44 -3.31,-898.89 -4.93,-1348.331 -0.24,-62.55 -0.11,-62.429 -61.66,-62.429 -1272.28,-0.028 -2544.55,-0.188 -3816.84,-0.11 -697.35,0.059 -1394.7,0.539 -2092.049,0.832 -2.496,0 -4.996,-0.07 -7.496,-0.07 -70.122,0.379 -66.911,0.359 -66.329,71.617 2.207,269.681 2.426,539.351 2.864,809.031 0.625,391.19 0.734,782.39 1.187,1173.59 0.067,57.84 0.512,61.85 61.953,59.86 104.739,-3.38 209.35,0.67 314.02,-0.34 169.71,-1.65 339.43,-2.46 509.16,-2.97 209.92,-0.62 419.84,-0.53 629.77,-0.93 10.98,-0.02 22.85,1.25 31.02,-9.13 -12.33,-14.11 -1.05,-36.65 -18.36,-54.48 -7.18,23.93 -4.15,51.32 -38.46,47.24 C 963,-5.01 916.18,-2.85 869.14,-1.49 835.48,-0.53 800.39,3.05 767.67,-1.14 720.81,-7.14 675.49,0.7 629.65,2.12 613.57,2.62 601.86,-14.86 590.1,-7.4 551.28,17.23 510.36,-2.81 470.87,1.75 461.09,2.88 458.09,-15.5 445.48,-8.83 397.55,16.48 346.4,0.27 296.72,2.25 287.4,2.61 269.3,8.49 269.37,-7.94 c 0.09,-18.08 18.49,-12.41 29.72,-12.9 137.05,-6.01 274.07,-11.02 411.04,-19.94 189.14,-12.32 377.56,-27.52 565.61,-52.95 213.26,-28.84 422.3,-72.14 627.22,-137.83 195.66,-62.71 381.15,-148.89 564.43,-239.92 208.98,-103.79 415.54,-211.98 635.6,-292.12 183.61,-66.84 371.49,-115.68 563.48,-149.3 172.13,-30.15 345.92,-46.7 519.91,-63.35 268.87,-25.74 538.73,-26.12 808.02,-39.68 171.98,-8.66 344.54,-4.88 516.79,-8.95 32.75,-0.76 40.24,9.83 39.95,40.06 -1.22,131.23 -0.66,262.48 -0.33,393.72 0.09,33.24 7.67,70.32 -52.5,69.56 59.77,-6.44 52.57,29.91 52.55,61.91 -0.07,130 -1.03,260.01 1.07,389.97 0.62,38.43 -6.34,61.19 -50.55,53.69 -4.59,-0.79 -10.51,-0.21 -14.36,2.14 -43.06,26.29 -90.86,1.06 -135.23,12.63 -2.95,0.77 -8.27,-1.3 -10.18,-3.81 -10.88,-14.24 -18.71,-5.4 -30.72,0.06 -21.9,9.95 -47.7,9.59 -69.45,1.17 -12.08,-4.68 -17.24,-4.38 -29.61,-0.94 -29.6,8.2 -61.52,10.19 -91.54,-2.17 -6.54,-2.7 -10.27,-9.11 -19.41,-3.77 -38.22,22.36 -80.63,4.71 -120.43,11.67 -13.67,2.4 -14.4,-24.83 -30.36,-10.77 -18.02,15.87 -40.51,13.61 -60.43,10.15 -39.34,-6.87 -82.22,15.43 -118.49,-14.43 -20.04,24.04 -47.27,13.09 -71.52,13.66 -52.47,1.26 -105.09,-1.34 -157.44,1.44 -18.76,1 -31.9,-22.52 -46.54,-11.77 -17.68,13 -35.37,10.51 -53.46,10.57 -106.18,0.41 -212.37,0.17 -318.55,-0.06 -16.2,-0.03 -32.67,0.54 -48.5,-2.15 -22.51,-3.82 -9.8,-30.52 -24.33,-44.16 -11.82,19.6 -5.45,50.94 -42.23,46.85 -45.06,-5.03 -90.21,-7.26 -136.38,-2.06 -33.94,3.81 -70.38,1.56 -104.41,-0.75 -39.55,-2.69 -78.64,7.96 -116.21,1.45 -46.23,-8.04 -90.7,3.34 -135.96,1.27 -40.06,-1.84 -79.71,-4.5 -120.34,-2.08 -41.25,2.45 -86.84,17.04 -126.2,-12.52 -1.35,-1.01 -6.75,1.48 -8.88,3.68 -16.45,17 -37.62,10.32 -56.82,10.8 -42.47,1.05 -85.2,-2.3 -127.44,1 -40.38,3.15 -79.17,-6.74 -120.55,-3.83 -120.61,8.48 -242.14,4.11 -363.3,4.65 -20.54,0.09 -37.48,-3.91 -35.36,-30.94 0.46,-5.99 0.84,-15.51 -9.56,-17.22 -11.02,47.93 -11.02,47.94 -61.77,36.61 -2.26,-0.5 -5.57,-2.51 -6.5,-1.69 -33.93,30.04 -72.14,-4.24 -110.9,7.56 -29.27,8.92 -70.15,7.02 -103.89,1.93 -34.82,-5.25 -67.11,-2.47 -100.77,1.6 -34.4,4.16 -67.96,-8.51 -104.06,-0.38 -53.76,12.1 -108.84,-12.26 -164.6,0.22 -60.4,13.52 -121.3,-10.46 -183.81,0.01 -55.85,9.35 -114.54,0.59 -171.8,3.4 -18.25,0.91 -27.54,-24.19 -42.1,-13.84 -23.4,16.65 -48.21,10.64 -72.31,10.88 -104.94,1.06 -209.89,0.52 -314.84,0.68 -14.86,0.03 -30.2,-2.36 -43.58,7.06"
             style="fill:#231f20;fill-opacity:1;fill-rule:evenodd;stroke:none"
             id="path22"
             inkscape:connector-curvature="0" /></g><g
           id="g24"
           transform="translate(6822.8501,3283.9299)"><path
             d="m 0,0 c 4.84,23.53 11.26,45.94 -3.2,52.23 -18.79,8.19 -32.1,22.81 -47.8,31 -62.98,32.85 -129.57,58.78 -194.82,87.27 C -162.33,118.65 -78.65,68.06 0,0 Z m -1495.79,-211.73 c 17.18,-54.3 17.18,-54.16 72.31,-54.13 92.49,0.08 185.04,-1.98 277.43,0.99 32.28,1.04 70.67,-18.63 97.13,18.1 0.93,1.28 5.71,1.75 6.63,0.74 36.88,-40.93 85.16,-18.23 126.6,-17.68 44.04,0.59 93.78,-23.93 133.82,16.33 5.78,5.81 7.87,-1.59 9.79,-5.67 3.57,-7.57 9.78,-11.69 17.71,-11.73 46.18,-0.3 92.5,-2.29 138.45,0.87 15.98,1.09 27.69,6.21 47.17,2.8 38.74,-6.79 85.7,-22.67 123.44,11.43 9.17,8.28 11.57,-1.23 17.07,-5.42 21.79,-16.52 77.99,-16.35 100.13,1.72 7.4,6.04 10.73,9.61 16.58,0.79 13.26,-20.05 35.46,-17.2 50.97,-11.81 27.37,9.54 51.69,2.55 78.12,1.32 30.82,-1.45 62.22,6.24 93.35,-4.04 8.83,-2.91 18.33,-0.21 22.42,8.96 6.53,14.66 11.3,18.24 21.45,1.98 8.8,-14.1 24.47,-11.03 37.55,-7.4 16.44,4.54 12.34,19.37 12.38,31.46 0.18,56.15 -0.74,112.34 0.72,168.46 0.79,30.67 -12.35,51.29 -35.27,69.98 -97.41,79.43 -205.02,142.91 -317.58,197.05 -211.44,101.68 -423.9,201.31 -637.4,298.59 -254.41,115.93 -510.09,229.12 -765.71,342.37 -353.89,156.78 -707.02,315.31 -1070.05,450.55 -204.83,76.3 -412.86,142.66 -623.92,198.51 -205.01,54.25 -410.63,106.5 -617.74,152.71 -247.24,55.15 -493.58,114.33 -740.71,169.99 -291.02,65.53 -582.48,129.16 -873.75,193.6 -96.26,21.29 -192.72,41.68 -288.677,64.22 -29.746,6.99 -37.668,-2.66 -37.274,-30.94 1.067,-74.97 1.203,-150 -0.179,-224.96 -0.641,-34.77 -1.192,-66.19 49.593,-61.6 -48.754,-12.41 -48.812,-12.41 -48.976,-61.96 -0.246,-71.25 0.508,-142.52 -0.992,-213.73 -0.727,-34.73 -1.465,-66.37 50.168,-63.01 -23.333,-7.92 -51.454,-0.61 -50.676,-38.47 1.621,-78.66 0.144,-157.44 -1.824,-236.13 -0.907,-36.01 3.55,-63.96 49.519,-59.36 0.324,0.04 1.035,-3.71 2.734,-10.08 -52.121,14.43 -55.722,-17.96 -54.082,-54.78 3.664,-82.24 1.766,-164.44 -0.972,-246.64 -0.52,-15.49 4.992,-23.63 21.234,-23.7 9.371,-0.04 20.047,3.37 29.692,-10.99 -51.879,9.09 -52.379,-23.64 -52.231,-57.84 0.316,-71.06 -0.055,-142.14 -0.01,-213.2 0.016,-31.64 -5.969,-67.8 51.278,-61.74 -49.614,1.26 -52.895,-25.73 -52.118,-59.66 1.571,-68.71 0.563,-137.48 0.684,-206.22 0.098,-57.89 0.137,-57.89 53.012,-71.83 -20.293,-10.58 -54.075,5.14 -53.594,-33.68 1.078,-88.72 0.387,-177.47 -0.035,-266.21 -0.106,-22.74 10.765,-30.53 32.515,-30.34 63.512,0.54 127.032,0.04 190.539,-0.28 32.39,-0.17 64.76,-1.02 97.14,-1.19 33.68,-0.18 70.06,-7.83 100.3,2.43 30.01,10.17 54.75,-0.54 81.73,-0.56 61.18,-0.05 122.35,-0.82 183.52,-1.43 16.57,-0.16 33.29,-1.12 37.52,25.36 4.55,-24.43 18.09,-26.48 36.08,-25.81 36.19,1.31 72.85,-3.26 108.6,0.88 30.11,3.48 57.99,5.51 89,1 31.52,-4.6 69.87,-16.62 99.24,13.51 1.09,1.12 6.18,-0.7 8.81,-2.19 36.47,-20.82 72.42,-25.57 107.23,3.34 4.65,3.87 9.19,5.02 12.24,-0.24 15.98,-27.54 44.6,-20.39 63.89,-14.77 24.35,7.1 43.4,5.19 67.31,-0.25 32.06,-7.3 64.73,12.74 100.99,1.43 13.41,-4.19 36.1,11.77 58.19,-1.68 12.52,-7.64 29.34,-0.28 31.08,20.77 0.74,8.9 -3.67,20.11 12.02,28.79 -2.18,-66.45 44.76,-51.01 81.92,-51.17 106.23,-0.49 212.46,0.05 318.69,-0.55 21.23,-0.11 40.02,1.43 49.78,39.15 5.88,-25.32 9,-40.28 26.52,-38.34 76.73,8.5 155.87,-19.69 230.97,15.04 2.28,1.06 7.88,-0.26 8.94,-2.15 11.55,-20.46 31.2,-12.16 47.43,-12.81 32.45,-1.29 68.72,-9.34 96.5,2.13 33.25,13.73 59.25,-5.67 87.91,-2.24 31.06,3.73 67.66,-17.47 92.51,18.35 0.71,1.02 5.99,0.74 6.49,-0.26 16.46,-32.97 46.65,-13.04 70.18,-18.33 21.04,-4.74 34.11,7.6 45.79,22.4 13.49,-11.53 24.24,-27.51 46.36,-22.75 33.44,7.19 66.64,15.55 101.01,0.54 10.02,-4.38 25.62,-3.2 32.62,11.05 5.68,11.59 11.68,12.51 18.06,1.2 7.59,-13.5 21.11,-15.17 32.69,-12.32 21.51,5.28 41.3,8.06 63.53,0.65 15.88,-5.3 28.96,2.84 29.06,23.59 0.04,8.78 -4.06,20.17 12.35,28.14 -5.72,-70.56 43.85,-52.63 81.37,-52.82 104.98,-0.56 210,1.29 314.93,-1.28 22.87,-0.56 46.04,22.92 53.1,16.3 19.02,-17.83 38.64,-14.45 58.98,-15.13 33.68,-1.14 68.12,-5.76 100.93,-0.59 33.01,5.22 71.95,-18.78 99.38,18.06 4.82,6.48 8.58,-0.06 10.34,-4.57 3.8,-9.75 11.86,-14.12 20.81,-12.36 51.24,10.09 107.98,-24.72 155.06,19.01 3.48,3.24 6.22,0.04 9.53,-1.97 40.27,-24.46 98.08,-25.73 134.59,-1.63 8.91,5.88 7.71,0.73 12.37,-3.86 24.48,-24.14 92.59,-17.51 116.26,13.29 2.04,-22.9 15.84,-25.87 33.72,-26.1 37.02,-0.48 71.95,16.38 111.79,3.33 21,-6.89 47.58,11.45 76.48,-0.68 18.1,-7.58 41.88,11.79 69.99,0.55 36.14,-14.44 23.54,29.86 37.75,51.45 z M -211.1,2090.99 c 69.57,10.12 139.43,3.91 209.16,3.44 21.22,-0.14 30.78,-10.32 30.56,-32.82 C 27,1897.96 25.77,1734.32 25.27,1570.66 24.92,1449.91 25.8,1329.14 26.21,1208.38 26.44,1138.69 23.88,1069.05 24.1,999.32 24.8,772.14 21.72,544.95 20.83,317.76 20.13,137.78 20.55,-42.21 20.45,-222.2 c -0.03,-57.85 -1.81,-59.71 -57.99,-59.71 -344.9,-0.01 -689.81,0.02 -1034.71,0.03 -494.74,0.01 -989.48,-0.02 -1484.22,0.01 -321.06,0.02 -642.12,0.09 -963.18,0.16 -327.12,0.07 -654.24,-0.4 -981.36,0.44 -264.38,0.69 -528.77,3.38 -793.15,4.35 -224.88,0.83 -449.77,0.39 -674.647,0.71 -58.074,0.08 -58.609,0.43 -57.672,58.83 8.531,529.61 5.024,1059.28 7.809,1588.91 1.203,228.35 4.398,456.7 4.898,685.06 0.07,34.27 13.77,43.19 44.203,43.04 416.089,-1.85 832.169,-3.52 1248.259,-4.63 183.61,-0.49 367.21,0.43 550.82,0.41 8.48,0 16.96,-2.93 25.45,-4.49 0.88,-1.72 1.76,-3.44 2.65,-5.17 -13.54,-1.68 -27.07,-4.75 -40.61,-4.81 -81.19,-0.36 -162.4,-0.77 -243.58,0.47 -29.87,0.46 -56.37,0.15 -57.11,-50.3 -11.07,46.94 -14.61,53.68 -36.93,48.19 -22.5,-5.53 -41.6,-6.35 -63.38,2.13 -9.88,3.85 -25.24,2.47 -35.18,-7.39 -5.59,-5.54 -9.37,-9.77 -18.65,-4.72 -25.25,13.77 -51.04,26.11 -75.6,-2.61 -4.87,-5.68 -7.53,2.89 -11.3,5.07 -26.82,15.47 -54.68,12.18 -82.06,2.31 -7.35,-2.66 -9.42,-9.04 -21.09,-2.17 -31.39,18.49 -66.08,11.53 -99.27,1.44 -6.14,-1.88 -10.72,-13.9 -18.29,-6.18 -22.89,23.35 -51.25,12.53 -77.61,14.27 -23.25,1.51 -47.42,-12.33 -66.68,-9.71 -88.31,11.97 -111.41,14.1 -184.62,-5.37 -6.02,-1.6 -8.92,1.8 -12.26,5.66 -9.48,10.94 -22.69,9 -34.96,9.17 -47.3,0.62 -95.03,-2.9 -141.8,2.3 -44.75,4.96 -87.06,-9.67 -133.17,-3.2 -73.36,10.31 -149.09,3.81 -223.81,4.29 -28.535,0.18 -57.07,0.03 -85.605,0.03 22.73,-13.76 45.375,-20.64 68.425,-25.67 142.53,-31.12 285.36,-60.83 427.67,-92.89 256.83,-57.86 512.98,-118.81 770.12,-175.24 309.68,-67.96 618.88,-138.05 926.72,-213.67 218.05,-53.57 434.87,-112.47 648.5,-182.27 160.17,-52.33 318.04,-111.08 474.4,-173.53 141.27,-56.41 280.54,-117.9 420.23,-178.24 174.12,-75.2 348.02,-150.89 521.54,-227.47 209.96,-92.68 419.36,-186.62 629.1,-279.78 143.6,-63.79 287.45,-127.01 431.03,-190.8 133.45,-59.29 266.68,-119.04 400.04,-178.52 62.98,-28.08 126.01,-56.02 197.5,-87.78 0,86.22 0.07,163.41 -0.06,240.59 -0.03,18.7 0.72,37.57 -1.43,56.06 -3.2,27.47 -35.27,10.04 -47.78,26.85 47.93,13.9 48.84,13.88 49.74,65.97 1.11,64.96 0.65,129.95 0.57,194.92 -0.02,17.46 1.02,35.31 -2.17,52.28 -4.55,24.18 -33.83,7.85 -50.28,29.46 65.28,-7.33 52.43,35.39 52.5,70.11 0.14,68.74 -0.38,137.5 0.7,206.23 0.5,31.23 1.38,60.39 -45.09,56.66 44.96,12.5 45,12.5 44.94,58.73 -0.07,68.74 -0.12,137.49 -0.39,206.24 -0.07,17.45 1.14,35.26 -1.83,52.29 -4.05,23.15 -33.44,3.06 -43.42,24.57 45.85,-4.77 47.02,23.13 46.22,56.57 -1.62,67.46 -0.19,134.98 -0.27,202.48 -0.04,32.36 9.49,70.62 -45.89,69.32 13.78,19.54 47.05,-2.21 46.72,31.83 -0.9,91.23 -0.69,182.48 -0.85,273.71 -0.04,18.88 -12.02,32.59 -27.54,25.18 -24.43,-11.68 -44.77,-3.73 -67.19,1.19 -10.81,2.37 -22.64,0.82 -31.8,-7.5 -6.36,-5.79 -10.78,-5.62 -18.94,-0.35 -21.44,13.83 -45.47,13.18 -66.96,0.69 -21.62,-12.56 -9.87,8.05 -14.21,12.39 1.43,1.91 2.87,3.84 4.29,5.76"
             style="fill:#231f20;fill-opacity:1;fill-rule:evenodd;stroke:none"
             id="path26"
             inkscape:connector-curvature="0" /></g><g
           id="g28"
           transform="translate(3828.8,5374.8799)"><path
             d="m 0,0 c 73.14,11.92 146.83,4.08 220.22,5.28 134.69,2.21 269.43,0.7 404.15,0.47 315.79,-0.56 631.58,-1.57 947.37,-1.8 163.44,-0.12 326.89,1.32 490.32,1.54 229.43,0.29 458.84,0.13 688.25,0 11.05,-0.01 22.63,1.51 32.64,-5.46 -1.42,-1.91 -2.86,-3.84 -4.29,-5.75 -43.44,0.78 -84.46,-17.23 -130.5,-6.56 -45.09,10.45 -92.87,-7.9 -140.97,0.45 -49.74,8.62 -100.72,-4.82 -152.14,-0.66 -41.06,3.32 -87.03,17.16 -126.45,-12.66 -1.63,-1.23 -7.72,0.8 -9.7,3.07 -14.88,17.16 -34.9,10.81 -52.84,11.22 -43.67,1.02 -87.39,-0.16 -131.08,0.56 -42.15,0.69 -83.61,-5.12 -126.58,-2.47 -105.72,6.53 -212.12,2.5 -318.23,2.05 -35.29,-0.15 -79.66,15.16 -82.47,-48.72 -10.49,55.38 -10.48,55.36 -62.24,36.81 -3.19,-1.14 -8.43,-3.16 -9.84,-1.8 -35.94,35 -78.3,-2.31 -119.27,9.85 -24.47,7.27 -62.51,9.5 -90.76,2.42 -38.97,-9.75 -75.61,8.03 -111.4,0.33 -44.5,-9.57 -87.03,1.92 -130.43,1.66 -47.5,-0.27 -94.86,-7.74 -142.54,-0.44 -54.84,8.39 -109.23,-7.74 -165.08,-1.08 C 583.03,-0.58 489.1,-15.64 395.19,-11.48 293,-6.96 190.46,-10.06 88.09,-10.71 53.88,-10.92 10.61,4.57 0.55,-52.61 -0.91,-36.83 -2.38,-21.06 -3.84,-5.29 -2.55,-3.53 -1.28,-1.76 0,0"
             style="fill:#231f20;fill-opacity:1;fill-rule:evenodd;stroke:none"
             id="path30"
             inkscape:connector-curvature="0" /></g><g
           id="g32"
           transform="translate(2677.8101,5374.8501)"><path
             d="M 0,0 C 31.42,13.07 64.24,4.61 96.15,4.73 335.9,5.61 575.66,4.92 815.41,4.62 918.94,4.49 1022.49,4.1 1126.03,3.93 c 8.58,-0.01 17.48,2.85 24.96,-3.92 -1.28,-1.74 -2.55,-3.51 -3.84,-5.26 -19.05,-7.99 -47.21,1.88 -53.62,-31.51 -11.78,15.83 -22.98,32.42 -40.57,25.54 -28.26,-11.07 -55.74,2.29 -81.42,-1.29 -33.23,-4.63 -65.96,5.61 -95.89,0.17 -39.78,-7.23 -76.65,3.12 -114.8,2.44 -29.84,-0.56 -58.21,-8.23 -89.92,-1.65 -51.85,10.75 -105.45,-5.17 -159.37,1.91 -63.1,8.29 -127.22,-3.98 -191.37,-2.53 C 251.81,-10.65 181.22,5.19 114.04,-23.46 80.03,1.67 38.74,-17.62 2.65,-5.17 1.76,-3.44 0.88,-1.72 0,0"
             style="fill:#231f20;fill-opacity:1;fill-rule:evenodd;stroke:none"
             id="path34"
             inkscape:connector-curvature="0" /></g></g></g><text
       transform="matrix(1,0,0,-1,45.178,275.47)"
       style="font-variant:normal;font-weight:normal;font-size:18px;font-family:MyriadPro;-inkscape-font-specification:MyriadPro-Regular;writing-mode:lr-tb;fill:#100f0d;fill-opacity:1;fill-rule:nonzero;stroke:none"
       id="text38"><tspan
         x="0"
         y="0"
         id="tspan36">-</tspan></text>
<text
       transform="matrix(1,0,0,-1,50.7045,275.4701)"
       style="font-variant:normal;font-weight:normal;font-size:18px;font-family:MyriadPro;-inkscape-font-specification:MyriadPro-Regular;writing-mode:lr-tb;fill:#100f0d;fill-opacity:1;fill-rule:nonzero;stroke:none"
       id="text44"><tspan
         x="0 9.2340002 18.468"
         y="0"
         sodipodi:role="line"
         id="tspan40">90˚</tspan><tspan
         x="17.580999"
         y="-189.60699"
         id="tspan42">0</tspan></text>
<text
       transform="matrix(0,1,1,0,23.5664,153.5)"
       style="font-variant:normal;font-weight:normal;font-size:18px;font-family:MyriadPro;-inkscape-font-specification:MyriadPro-Regular;writing-mode:lr-tb;fill:#100f0d;fill-opacity:1;fill-rule:nonzero;stroke:none"
       id="text48"><tspan
         x="0 9.4863062 19.476307 28.152306 35.280308"
         y="0"
         sodipodi:role="line"
         id="tspan46">Phase</tspan></text>
<text
       transform="matrix(1,0,0,-1,36.8929,223.9701)"
       style="font-variant:normal;font-weight:normal;font-size:18px;font-family:MyriadPro;-inkscape-font-specification:MyriadPro-Regular;writing-mode:lr-tb;fill:#100f0d;fill-opacity:1;fill-rule:nonzero;stroke:none"
       id="text52"><tspan
         x="0"
         y="0"
         id="tspan50">-</tspan></text>
<text
       transform="matrix(1,0,0,-1,42.4189,223.9701)"
       style="font-variant:normal;font-weight:normal;font-size:18px;font-family:MyriadPro;-inkscape-font-specification:MyriadPro-Regular;writing-mode:lr-tb;fill:#100f0d;fill-opacity:1;fill-rule:nonzero;stroke:none"
       id="text58"><tspan
         x="0 9.2340002 18.468 27.702"
         y="0"
         sodipodi:role="line"
         id="tspan54">135˚</tspan><tspan
         x="-4.1329999"
         y="49"
         id="tspan56">-</tspan></text>
<text
       transform="matrix(1,0,0,-1,43.8119,174.97)"
       style="font-variant:normal;font-weight:normal;font-size:18px;font-family:MyriadPro;-inkscape-font-specification:MyriadPro-Regular;writing-mode:lr-tb;fill:#100f0d;fill-opacity:1;fill-rule:nonzero;stroke:none"
       id="text64"><tspan
         x="0 9.2340002 18.468 27.702"
         y="0"
         sodipodi:role="line"
         id="tspan60">180˚</tspan><tspan
         x="-5.526"
         y="53.429001"
         id="tspan62">-</tspan></text>
<text
       transform="matrix(1,0,0,-1,43.8119,121.5411)"
       style="font-variant:normal;font-weight:normal;font-size:18px;font-family:MyriadPro;-inkscape-font-specification:MyriadPro-Regular;writing-mode:lr-tb;fill:#100f0d;fill-opacity:1;fill-rule:nonzero;stroke:none"
       id="text70"><tspan
         x="0 9.2340002 18.468 27.702"
         y="0"
         sodipodi:role="line"
         id="tspan66">225˚</tspan><tspan
         x="-5.526"
         y="55"
         id="tspan68">-</tspan></text>
<text
       transform="matrix(1,0,0,-1,43.8119,66.5411)"
       style="font-variant:normal;font-weight:normal;font-size:18px;font-family:MyriadPro;-inkscape-font-specification:MyriadPro-Regular;writing-mode:lr-tb;fill:#100f0d;fill-opacity:1;fill-rule:nonzero;stroke:none"
       id="text78"><tspan
         x="0 9.2340002 18.468 27.702"
         y="0"
         sodipodi:role="line"
         id="tspan72">270˚</tspan><tspan
         x="14.081 23.315001"
         y="-432.10699"
         sodipodi:role="line"
         id="tspan74">20</tspan><tspan
         x="15.367 24.601"
         y="-466.10599"
         sodipodi:role="line"
         id="tspan76">40</tspan></text>
<text
       transform="matrix(0,1,1,0,15.066,359)"
       style="font-variant:normal;font-weight:normal;font-size:18px;font-family:MyriadPro;-inkscape-font-specification:MyriadPro-Regular;writing-mode:lr-tb;fill:#100f0d;fill-opacity:1;fill-rule:nonzero;stroke:none"
       id="text82"><tspan
         x="0 14.580108 23.256107 33.209209 43.199207 47.411209 53.369209 63.287209 73.439209 82.457207 86.273209 91.385208 101.53721 111.29321"
         y="0"
         sodipodi:role="line"
         id="tspan80">Magnitude (dB)</tspan></text>
<text
       transform="matrix(1,0,0,-1,53.1785,433.0765)"
       style="font-variant:normal;font-weight:normal;font-size:18px;font-family:MyriadPro;-inkscape-font-specification:MyriadPro-Regular;writing-mode:lr-tb;fill:#100f0d;fill-opacity:1;fill-rule:nonzero;stroke:none"
       id="text86"><tspan
         x="0"
         y="0"
         id="tspan84">-</tspan></text>
<text
       transform="matrix(1,0,0,-1,58.7045,433.0765)"
       style="font-variant:normal;font-weight:normal;font-size:18px;font-family:MyriadPro;-inkscape-font-specification:MyriadPro-Regular;writing-mode:lr-tb;fill:#100f0d;fill-opacity:1;fill-rule:nonzero;stroke:none"
       id="text92"><tspan
         x="0 9.2340002"
         y="0"
         sodipodi:role="line"
         id="tspan88">20</tspan><tspan
         x="-4.8109999"
         y="36"
         id="tspan90">-</tspan></text>
<text
       transform="matrix(1,0,0,-1,59.4198,397.0765)"
       style="font-variant:normal;font-weight:normal;font-size:18px;font-family:MyriadPro;-inkscape-font-specification:MyriadPro-Regular;writing-mode:lr-tb;fill:#100f0d;fill-opacity:1;fill-rule:nonzero;stroke:none"
       id="text98"><tspan
         x="0 9.2340002"
         y="0"
         sodipodi:role="line"
         id="tspan94">40</tspan><tspan
         x="-6.2410002"
         y="32"
         id="tspan96">-</tspan></text>
<text
       transform="matrix(1,0,0,-1,58.7045,365.0765)"
       style="font-variant:normal;font-weight:normal;font-size:18px;font-family:MyriadPro;-inkscape-font-specification:MyriadPro-Regular;writing-mode:lr-tb;fill:#100f0d;fill-opacity:1;fill-rule:nonzero;stroke:none"
       id="text104"><tspan
         x="0 9.2340002"
         y="0"
         sodipodi:role="line"
         id="tspan100">60</tspan><tspan
         x="-5.526"
         y="35"
         id="tspan102">-</tspan></text>
<text
       transform="matrix(1,0,0,-1,58.7045,330.0765)"
       style="font-variant:normal;font-weight:normal;font-size:18px;font-family:MyriadPro;-inkscape-font-specification:MyriadPro-Regular;writing-mode:lr-tb;fill:#100f0d;fill-opacity:1;fill-rule:nonzero;stroke:none"
       id="text114"><tspan
         x="0 9.2340002"
         y="0"
         sodipodi:role="line"
         id="tspan106">80</tspan><tspan
         x="13.189 22.423 26.149 35.382999 161.189 170.423 174.149 463.189 472.423 601.18903 610.42297 619.65698 318.189"
         y="274.28601"
         sodipodi:role="line"
         id="tspan108">0.010.1101001</tspan><tspan
         x="225.61 233.9084 239.6144 248.6324 258.76639 268.68439 277.70239 287.69238 296.08008 303.85648 307.58249 311.3985 323.89047 327.70648 332.81848 338.61429 347.29028 357.44229 363.6163 370.74429 379.7623 387.82629"
         y="301.85699"
         sodipodi:role="line"
         id="tspan110">Frequency, ω (rad/sec)</tspan><tspan
         x="243.509 253.33661 263.2186 273.37061 282.38861 286.20459 298.1926 302.4046 311.0806 321.0347 326.8306 335.50659 350.51862 354.33459 359.23059 370.85861 374.58459 378.4006"
         y="-229.14301"
         sodipodi:role="line"
         id="tspan112">Bode Diagram (G, G</tspan></text>
<text
       transform="matrix(1,0,0,-1,448.7315,553.2265)"
       style="font-variant:normal;font-weight:normal;font-size:10.49400043px;font-family:MyriadPro;-inkscape-font-specification:MyriadPro-Regular;writing-mode:lr-tb;fill:#100f0d;fill-opacity:1;fill-rule:nonzero;stroke:none"
       id="text118"><tspan
         x="0"
         y="0"
         id="tspan116">d</tspan></text>
<text
       transform="matrix(1,0,0,-1,454.6505,559.2195)"
       style="font-variant:normal;font-weight:normal;font-size:18px;font-family:MyriadPro;-inkscape-font-specification:MyriadPro-Regular;writing-mode:lr-tb;fill:#100f0d;fill-opacity:1;fill-rule:nonzero;stroke:none"
       id="text122"><tspan
         x="0"
         y="0"
         id="tspan120">)</tspan></text>
</g></svg>