<?xml version="1.0" encoding="UTF-8" standalone="no"?>
<!-- Created with Inkscape (http://www.inkscape.org/) -->

<svg
   xmlns:dc="http://purl.org/dc/elements/1.1/"
   xmlns:cc="http://creativecommons.org/ns#"
   xmlns:rdf="http://www.w3.org/1999/02/22-rdf-syntax-ns#"
   xmlns:svg="http://www.w3.org/2000/svg"
   xmlns="http://www.w3.org/2000/svg"
   xmlns:sodipodi="http://sodipodi.sourceforge.net/DTD/sodipodi-0.dtd"
   xmlns:inkscape="http://www.inkscape.org/namespaces/inkscape"
   version="1.1"
   id="svg2"
   xml:space="preserve"
   width="406.85046"
   height="116.47507"
   viewBox="0 0 406.85046 116.47507"
   sodipodi:docname="sampling.svg"
   inkscape:version="0.92.0 r15299"><metadata
     id="metadata8"><rdf:RDF><cc:Work
         rdf:about=""><dc:format>image/svg+xml</dc:format><dc:type
           rdf:resource="http://purl.org/dc/dcmitype/StillImage" /><dc:title></dc:title></cc:Work></rdf:RDF></metadata><defs
     id="defs6"><clipPath
       clipPathUnits="userSpaceOnUse"
       id="clipPath18"><path
         d="M 0,873.563 V 0 h 3051.38 v 873.563 z"
         id="path16"
         inkscape:connector-curvature="0" /></clipPath></defs><sodipodi:namedview
     pagecolor="#ffffff"
     bordercolor="#666666"
     borderopacity="1"
     objecttolerance="10"
     gridtolerance="10"
     guidetolerance="10"
     inkscape:pageopacity="0"
     inkscape:pageshadow="2"
     inkscape:window-width="640"
     inkscape:window-height="480"
     id="namedview4"
     showgrid="false"
     fit-margin-top="0"
     fit-margin-left="0"
     fit-margin-right="0"
     fit-margin-bottom="0"
     inkscape:zoom="0.22348485"
     inkscape:cx="329.69492"
     inkscape:cy="528"
     inkscape:window-x="0"
     inkscape:window-y="0"
     inkscape:window-maximized="0"
     inkscape:current-layer="g10" /><g
     id="g10"
     inkscape:groupmode="layer"
     inkscape:label="A9Rrwytry_h2opwx_4gs"
     transform="matrix(1.3333333,0,0,-1.3333333,0,116.47506)"><g
       id="g12"
       transform="scale(0.1)"><g
         id="g14"
         clip-path="url(#clipPath18)"><g
           id="g20"
           transform="translate(4.3516,376.172)"><path
             d="m 0,0 c 412.691,730.158 876.156,441.824 1087.298,38.832 269.84,-515.024 729.03,-539.059 1031.75,50.879 308.54,601.297 764.681,442.637 923.41,85.492"
             style="fill:#ffffff;fill-opacity:1;fill-rule:nonzero;stroke:none"
             id="path22"
             inkscape:connector-curvature="0" /></g><g
           id="g24"
           transform="translate(4.3516,376.172)"><path
             d="m 0,0 c 412.691,730.158 876.156,441.824 1087.298,38.832 269.84,-515.024 729.03,-539.059 1031.75,50.879 308.54,601.297 764.681,442.637 923.41,85.492"
             style="fill:none;stroke:#211c1d;stroke-width:10;stroke-linecap:butt;stroke-linejoin:miter;stroke-miterlimit:10;stroke-dasharray:none;stroke-opacity:1"
             id="path26"
             inkscape:connector-curvature="0" /></g><g
           id="g28"
           transform="translate(90.7969,513.598)"><path
             d="M 0,0 H 137.68 V 161.343"
             style="fill:none;stroke:#211c1d;stroke-width:10;stroke-linecap:butt;stroke-linejoin:miter;stroke-miterlimit:10;stroke-dasharray:none;stroke-opacity:1"
             id="path30"
             inkscape:connector-curvature="0" /></g><g
           id="g32"
           transform="translate(235.004,674.941)"><path
             d="m 0,0 h 137.687 v 103.434 h 159.118 v 46.004 h 205 v -38.871 h 135 V 23.211 h 135.001 v -146.777 h 110 v -182.012 h 115 v -160.566 h 115 v -102.43 h 115 v -58.785 h 133.81 v -21.563 h 146.19 v 31.547 h 105 v 59.524 h 140 v 135.32 h 105 v 155.192 h 120 v 186.664"
             style="fill:none;stroke:#211c1d;stroke-width:10;stroke-linecap:butt;stroke-linejoin:miter;stroke-miterlimit:10;stroke-dasharray:none;stroke-opacity:1"
             id="path34"
             inkscape:connector-curvature="0" /></g><g
           id="g36"
           transform="translate(2206.8101,594.266)"><path
             d="M 0,0 H 150"
             style="fill:none;stroke:#211c1d;stroke-width:10;stroke-linecap:butt;stroke-linejoin:miter;stroke-miterlimit:10;stroke-dasharray:none;stroke-opacity:1"
             id="path38"
             inkscape:connector-curvature="0" /></g><g
           id="g40"
           transform="translate(2356.8101,595.707)"><path
             d="M 0,0 V 172.848"
             style="fill:none;stroke:#211c1d;stroke-width:10;stroke-linecap:butt;stroke-linejoin:miter;stroke-miterlimit:10;stroke-dasharray:none;stroke-opacity:1"
             id="path42"
             inkscape:connector-curvature="0" /></g><g
           id="g44"
           transform="translate(249.496,674.941)"><path
             d="m 0,0 c 0,-11.613 -9.406,-21.019 -21.019,-21.019 -11.614,0 -21.02,9.406 -21.02,21.019 0,11.61 9.406,21.02 21.02,21.02 C -9.406,21.02 0,11.61 0,0"
             style="fill:#100f0d;fill-opacity:1;fill-rule:nonzero;stroke:none"
             id="path46"
             inkscape:connector-curvature="0" /></g><g
           id="g48"
           transform="translate(249.496,674.941)"><path
             d="m 0,0 c 0,-11.613 -9.406,-21.019 -21.019,-21.019 -11.614,0 -21.02,9.406 -21.02,21.019 0,11.61 9.406,21.02 21.02,21.02 C -9.406,21.02 0,11.61 0,0 Z"
             style="fill:none;stroke:#211c1d;stroke-width:10;stroke-linecap:butt;stroke-linejoin:miter;stroke-miterlimit:10;stroke-dasharray:none;stroke-opacity:1"
             id="path50"
             inkscape:connector-curvature="0" /></g><g
           id="g52"
           transform="translate(2377.8301,768.555)"><path
             d="m 0,0 c 0,-11.614 -9.4,-21.02 -21.02,-21.02 -11.6,0 -21.02,9.406 -21.02,21.02 0,11.609 9.42,21.019 21.02,21.019 C -9.4,21.019 0,11.609 0,0"
             style="fill:#100f0d;fill-opacity:1;fill-rule:nonzero;stroke:none"
             id="path54"
             inkscape:connector-curvature="0" /></g><g
           id="g56"
           transform="translate(2377.8301,768.555)"><path
             d="m 0,0 c 0,-11.614 -9.4,-21.02 -21.02,-21.02 -11.6,0 -21.02,9.406 -21.02,21.02 0,11.609 9.42,21.019 21.02,21.019 C -9.4,21.019 0,11.609 0,0 Z"
             style="fill:none;stroke:#211c1d;stroke-width:10;stroke-linecap:butt;stroke-linejoin:miter;stroke-miterlimit:10;stroke-dasharray:none;stroke-opacity:1"
             id="path58"
             inkscape:connector-curvature="0" /></g><g
           id="g60"
           transform="translate(2227.8201,594.266)"><path
             d="m 0,0 c 0,-11.61 -9.4,-21.02 -21.02,-21.02 -11.6,0 -21.01,9.41 -21.01,21.02 0,11.613 9.41,21.023 21.01,21.023 C -9.4,21.023 0,11.613 0,0"
             style="fill:#100f0d;fill-opacity:1;fill-rule:nonzero;stroke:none"
             id="path62"
             inkscape:connector-curvature="0" /></g><g
           id="g64"
           transform="translate(2227.8201,594.266)"><path
             d="m 0,0 c 0,-11.61 -9.4,-21.02 -21.02,-21.02 -11.6,0 -21.01,9.41 -21.01,21.02 0,11.613 9.41,21.023 21.01,21.023 C -9.4,21.023 0,11.613 0,0 Z"
             style="fill:none;stroke:#211c1d;stroke-width:10;stroke-linecap:butt;stroke-linejoin:miter;stroke-miterlimit:10;stroke-dasharray:none;stroke-opacity:1"
             id="path66"
             inkscape:connector-curvature="0" /></g><g
           id="g68"
           transform="translate(2112.8301,407.602)"><path
             d="m 0,0 c 0,-11.61 -9.4,-21.02 -21.02,-21.02 -11.6,0 -21.02,9.41 -21.02,21.02 0,11.613 9.42,21.019 21.02,21.019 C -9.4,21.019 0,11.613 0,0"
             style="fill:#100f0d;fill-opacity:1;fill-rule:nonzero;stroke:none"
             id="path70"
             inkscape:connector-curvature="0" /></g><g
           id="g72"
           transform="translate(2112.8301,407.602)"><path
             d="m 0,0 c 0,-11.61 -9.4,-21.02 -21.02,-21.02 -11.6,0 -21.02,9.41 -21.02,21.02 0,11.613 9.42,21.019 21.02,21.019 C -9.4,21.019 0,11.613 0,0 Z"
             style="fill:none;stroke:#211c1d;stroke-width:10;stroke-linecap:butt;stroke-linejoin:miter;stroke-miterlimit:10;stroke-dasharray:none;stroke-opacity:1"
             id="path74"
             inkscape:connector-curvature="0" /></g><g
           id="g76"
           transform="translate(2007.83,252.41)"><path
             d="m 0,0 c 0,-11.609 -9.41,-21.019 -21.03,-21.019 -11.6,0 -21.01,9.41 -21.01,21.019 0,11.613 9.41,21.024 21.01,21.024 C -9.41,21.024 0,11.613 0,0"
             style="fill:#100f0d;fill-opacity:1;fill-rule:nonzero;stroke:none"
             id="path78"
             inkscape:connector-curvature="0" /></g><g
           id="g80"
           transform="translate(2007.83,252.41)"><path
             d="m 0,0 c 0,-11.609 -9.41,-21.019 -21.03,-21.019 -11.6,0 -21.01,9.41 -21.01,21.019 0,11.613 9.41,21.024 21.01,21.024 C -9.41,21.024 0,11.613 0,0 Z"
             style="fill:none;stroke:#211c1d;stroke-width:10;stroke-linecap:butt;stroke-linejoin:miter;stroke-miterlimit:10;stroke-dasharray:none;stroke-opacity:1"
             id="path82"
             inkscape:connector-curvature="0" /></g><g
           id="g84"
           transform="translate(1867.83,117.09)"><path
             d="m 0,0 c 0,-11.613 -9.4,-21.02 -21.02,-21.02 -11.6,0 -21.02,9.407 -21.02,21.02 0,11.609 9.42,21.019 21.02,21.019 C -9.4,21.019 0,11.609 0,0"
             style="fill:#100f0d;fill-opacity:1;fill-rule:nonzero;stroke:none"
             id="path86"
             inkscape:connector-curvature="0" /></g><g
           id="g88"
           transform="translate(1867.83,117.09)"><path
             d="m 0,0 c 0,-11.613 -9.4,-21.02 -21.02,-21.02 -11.6,0 -21.02,9.407 -21.02,21.02 0,11.609 9.42,21.019 21.02,21.019 C -9.4,21.019 0,11.609 0,0 Z"
             style="fill:none;stroke:#211c1d;stroke-width:10;stroke-linecap:butt;stroke-linejoin:miter;stroke-miterlimit:10;stroke-dasharray:none;stroke-opacity:1"
             id="path90"
             inkscape:connector-curvature="0" /></g><g
           id="g92"
           transform="translate(1762.83,57.5664)"><path
             d="m 0,0 c 0,-11.609 -9.41,-21.019 -21.03,-21.019 -11.6,0 -21.01,9.41 -21.01,21.019 0,11.613 9.41,21.023 21.01,21.023 C -9.41,21.023 0,11.613 0,0"
             style="fill:#100f0d;fill-opacity:1;fill-rule:nonzero;stroke:none"
             id="path94"
             inkscape:connector-curvature="0" /></g><g
           id="g96"
           transform="translate(1762.83,57.5664)"><path
             d="m 0,0 c 0,-11.609 -9.41,-21.019 -21.03,-21.019 -11.6,0 -21.01,9.41 -21.01,21.019 0,11.613 9.41,21.023 21.01,21.023 C -9.41,21.023 0,11.613 0,0 Z"
             style="fill:none;stroke:#211c1d;stroke-width:10;stroke-linecap:butt;stroke-linejoin:miter;stroke-miterlimit:10;stroke-dasharray:none;stroke-opacity:1"
             id="path98"
             inkscape:connector-curvature="0" /></g><g
           id="g100"
           transform="translate(1616.64,26.0195)"><path
             d="m 0,0 c 0,-11.609 -9.4,-21.02 -21.02,-21.02 -11.61,0 -21.02,9.411 -21.02,21.02 0,11.613 9.41,21.023 21.02,21.023 C -9.4,21.023 0,11.613 0,0"
             style="fill:#100f0d;fill-opacity:1;fill-rule:nonzero;stroke:none"
             id="path102"
             inkscape:connector-curvature="0" /></g><g
           id="g104"
           transform="translate(1616.64,26.0195)"><path
             d="m 0,0 c 0,-11.609 -9.4,-21.02 -21.02,-21.02 -11.61,0 -21.02,9.411 -21.02,21.02 0,11.613 9.41,21.023 21.02,21.023 C -9.4,21.023 0,11.613 0,0 Z"
             style="fill:none;stroke:#211c1d;stroke-width:10;stroke-linecap:butt;stroke-linejoin:miter;stroke-miterlimit:10;stroke-dasharray:none;stroke-opacity:1"
             id="path106"
             inkscape:connector-curvature="0" /></g><g
           id="g108"
           transform="translate(1482.83,47.582)"><path
             d="m 0,0 c 0,-11.609 -9.41,-21.02 -21.03,-21.02 -11.6,0 -21.01,9.411 -21.01,21.02 0,11.613 9.41,21.02 21.01,21.02 C -9.41,21.02 0,11.613 0,0"
             style="fill:#100f0d;fill-opacity:1;fill-rule:nonzero;stroke:none"
             id="path110"
             inkscape:connector-curvature="0" /></g><g
           id="g112"
           transform="translate(1482.83,47.582)"><path
             d="m 0,0 c 0,-11.609 -9.41,-21.02 -21.03,-21.02 -11.6,0 -21.01,9.411 -21.01,21.02 0,11.613 9.41,21.02 21.01,21.02 C -9.41,21.02 0,11.613 0,0 Z"
             style="fill:none;stroke:#211c1d;stroke-width:10;stroke-linecap:butt;stroke-linejoin:miter;stroke-miterlimit:10;stroke-dasharray:none;stroke-opacity:1"
             id="path114"
             inkscape:connector-curvature="0" /></g><g
           id="g116"
           transform="translate(1367.83,106.367)"><path
             d="m 0,0 c 0,-11.613 -9.4,-21.019 -21.02,-21.019 -11.6,0 -21.02,9.406 -21.02,21.019 0,11.61 9.42,21.02 21.02,21.02 C -9.4,21.02 0,11.61 0,0"
             style="fill:#100f0d;fill-opacity:1;fill-rule:nonzero;stroke:none"
             id="path118"
             inkscape:connector-curvature="0" /></g><g
           id="g120"
           transform="translate(1367.83,106.367)"><path
             d="m 0,0 c 0,-11.613 -9.4,-21.019 -21.02,-21.019 -11.6,0 -21.02,9.406 -21.02,21.019 0,11.61 9.42,21.02 21.02,21.02 C -9.4,21.02 0,11.61 0,0 Z"
             style="fill:none;stroke:#211c1d;stroke-width:10;stroke-linecap:butt;stroke-linejoin:miter;stroke-miterlimit:10;stroke-dasharray:none;stroke-opacity:1"
             id="path122"
             inkscape:connector-curvature="0" /></g><g
           id="g124"
           transform="translate(1252.83,208.797)"><path
             d="m 0,0 c 0,-11.609 -9.41,-21.02 -21.03,-21.02 -11.6,0 -21.01,9.411 -21.01,21.02 0,11.613 9.41,21.023 21.01,21.023 C -9.41,21.023 0,11.613 0,0"
             style="fill:#100f0d;fill-opacity:1;fill-rule:nonzero;stroke:none"
             id="path126"
             inkscape:connector-curvature="0" /></g><g
           id="g128"
           transform="translate(1252.83,208.797)"><path
             d="m 0,0 c 0,-11.609 -9.41,-21.02 -21.03,-21.02 -11.6,0 -21.01,9.411 -21.01,21.02 0,11.613 9.41,21.023 21.01,21.023 C -9.41,21.023 0,11.613 0,0 Z"
             style="fill:none;stroke:#211c1d;stroke-width:10;stroke-linecap:butt;stroke-linejoin:miter;stroke-miterlimit:10;stroke-dasharray:none;stroke-opacity:1"
             id="path130"
             inkscape:connector-curvature="0" /></g><g
           id="g132"
           transform="translate(1137.83,369.363)"><path
             d="m 0,0 c 0,-11.609 -9.41,-21.019 -21.03,-21.019 -11.6,0 -21.01,9.41 -21.01,21.019 0,11.614 9.41,21.024 21.01,21.024 C -9.41,21.024 0,11.614 0,0"
             style="fill:#100f0d;fill-opacity:1;fill-rule:nonzero;stroke:none"
             id="path134"
             inkscape:connector-curvature="0" /></g><g
           id="g136"
           transform="translate(1137.83,369.363)"><path
             d="m 0,0 c 0,-11.609 -9.41,-21.019 -21.03,-21.019 -11.6,0 -21.01,9.41 -21.01,21.019 0,11.614 9.41,21.024 21.01,21.024 C -9.41,21.024 0,11.614 0,0 Z"
             style="fill:none;stroke:#211c1d;stroke-width:10;stroke-linecap:butt;stroke-linejoin:miter;stroke-miterlimit:10;stroke-dasharray:none;stroke-opacity:1"
             id="path138"
             inkscape:connector-curvature="0" /></g><g
           id="g140"
           transform="translate(1027.83,551.375)"><path
             d="m 0,0 c 0,-11.609 -9.41,-21.02 -21.03,-21.02 -11.601,0 -21.015,9.411 -21.015,21.02 0,11.613 9.414,21.023 21.015,21.023 C -9.41,21.023 0,11.613 0,0"
             style="fill:#100f0d;fill-opacity:1;fill-rule:nonzero;stroke:none"
             id="path142"
             inkscape:connector-curvature="0" /></g><g
           id="g144"
           transform="translate(1027.83,551.375)"><path
             d="m 0,0 c 0,-11.609 -9.41,-21.02 -21.03,-21.02 -11.601,0 -21.015,9.411 -21.015,21.02 0,11.613 9.414,21.023 21.015,21.023 C -9.41,21.023 0,11.613 0,0 Z"
             style="fill:none;stroke:#211c1d;stroke-width:10;stroke-linecap:butt;stroke-linejoin:miter;stroke-miterlimit:10;stroke-dasharray:none;stroke-opacity:1"
             id="path146"
             inkscape:connector-curvature="0" /></g><g
           id="g148"
           transform="translate(892.832,698.152)"><path
             d="m 0,0 c 0,-11.609 -9.402,-21.019 -21.023,-21.019 -11.606,0 -21.016,9.41 -21.016,21.019 0,11.614 9.41,21.024 21.016,21.024 C -9.402,21.024 0,11.614 0,0"
             style="fill:#100f0d;fill-opacity:1;fill-rule:nonzero;stroke:none"
             id="path150"
             inkscape:connector-curvature="0" /></g><g
           id="g152"
           transform="translate(892.832,698.152)"><path
             d="m 0,0 c 0,-11.609 -9.402,-21.019 -21.023,-21.019 -11.606,0 -21.016,9.41 -21.016,21.019 0,11.614 9.41,21.024 21.016,21.024 C -9.402,21.024 0,11.614 0,0 Z"
             style="fill:none;stroke:#211c1d;stroke-width:10;stroke-linecap:butt;stroke-linejoin:miter;stroke-miterlimit:10;stroke-dasharray:none;stroke-opacity:1"
             id="path154"
             inkscape:connector-curvature="0" /></g><g
           id="g156"
           transform="translate(757.828,785.508)"><path
             d="m 0,0 c 0,-11.613 -9.406,-21.02 -21.027,-21.02 -11.602,0 -21.016,9.407 -21.016,21.02 0,11.609 9.414,21.019 21.016,21.019 C -9.406,21.019 0,11.609 0,0"
             style="fill:#100f0d;fill-opacity:1;fill-rule:nonzero;stroke:none"
             id="path158"
             inkscape:connector-curvature="0" /></g><g
           id="g160"
           transform="translate(757.828,785.508)"><path
             d="m 0,0 c 0,-11.613 -9.406,-21.02 -21.027,-21.02 -11.602,0 -21.016,9.407 -21.016,21.02 0,11.609 9.414,21.019 21.016,21.019 C -9.406,21.019 0,11.609 0,0 Z"
             style="fill:none;stroke:#211c1d;stroke-width:10;stroke-linecap:butt;stroke-linejoin:miter;stroke-miterlimit:10;stroke-dasharray:none;stroke-opacity:1"
             id="path162"
             inkscape:connector-curvature="0" /></g><g
           id="g164"
           transform="translate(573.848,824.379)"><path
             d="m 0,0 c 0,-11.609 -9.407,-21.02 -21.028,-21.02 -11.597,0 -21.011,9.411 -21.011,21.02 0,11.613 9.414,21.019 21.011,21.019 C -9.407,21.019 0,11.613 0,0"
             style="fill:#100f0d;fill-opacity:1;fill-rule:nonzero;stroke:none"
             id="path166"
             inkscape:connector-curvature="0" /></g><g
           id="g168"
           transform="translate(573.848,824.379)"><path
             d="m 0,0 c 0,-11.609 -9.407,-21.02 -21.028,-21.02 -11.597,0 -21.011,9.411 -21.011,21.02 0,11.613 9.414,21.019 21.011,21.019 C -9.407,21.019 0,11.613 0,0 Z"
             style="fill:none;stroke:#211c1d;stroke-width:10;stroke-linecap:butt;stroke-linejoin:miter;stroke-miterlimit:10;stroke-dasharray:none;stroke-opacity:1"
             id="path170"
             inkscape:connector-curvature="0" /></g><g
           id="g172"
           transform="translate(393.711,768.555)"><path
             d="m 0,0 c 0,-11.614 -9.402,-21.02 -21.023,-21.02 -11.602,0 -21.016,9.406 -21.016,21.02 0,11.609 9.414,21.019 21.016,21.019 C -9.402,21.019 0,11.609 0,0"
             style="fill:#100f0d;fill-opacity:1;fill-rule:nonzero;stroke:none"
             id="path174"
             inkscape:connector-curvature="0" /></g><g
           id="g176"
           transform="translate(393.711,768.555)"><path
             d="m 0,0 c 0,-11.614 -9.402,-21.02 -21.023,-21.02 -11.602,0 -21.016,9.406 -21.016,21.02 0,11.609 9.414,21.019 21.016,21.019 C -9.402,21.019 0,11.609 0,0 Z"
             style="fill:none;stroke:#211c1d;stroke-width:10;stroke-linecap:butt;stroke-linejoin:miter;stroke-miterlimit:10;stroke-dasharray:none;stroke-opacity:1"
             id="path178"
             inkscape:connector-curvature="0" /></g><g
           id="g180"
           transform="translate(111.82,513.598)"><path
             d="m 0,0 c 0,-11.61 -9.402,-21.02 -21.023,-21.02 -11.602,0 -21.016,9.41 -21.016,21.02 0,11.613 9.414,21.019 21.016,21.019 C -9.402,21.019 0,11.613 0,0"
             style="fill:#100f0d;fill-opacity:1;fill-rule:nonzero;stroke:none"
             id="path182"
             inkscape:connector-curvature="0" /></g><g
           id="g184"
           transform="translate(111.82,513.598)"><path
             d="m 0,0 c 0,-11.61 -9.402,-21.02 -21.023,-21.02 -11.602,0 -21.016,9.41 -21.016,21.02 0,11.613 9.414,21.019 21.016,21.019 C -9.402,21.019 0,11.613 0,0 Z"
             style="fill:none;stroke:#211c1d;stroke-width:10;stroke-linecap:butt;stroke-linejoin:miter;stroke-miterlimit:10;stroke-dasharray:none;stroke-opacity:1"
             id="path186"
             inkscape:connector-curvature="0" /></g></g></g></g></svg>