<?xml version="1.0" encoding="UTF-8" standalone="no"?>
<!-- Created with Inkscape (http://www.inkscape.org/) -->

<svg
   xmlns:dc="http://purl.org/dc/elements/1.1/"
   xmlns:cc="http://creativecommons.org/ns#"
   xmlns:rdf="http://www.w3.org/1999/02/22-rdf-syntax-ns#"
   xmlns:svg="http://www.w3.org/2000/svg"
   xmlns="http://www.w3.org/2000/svg"
   xmlns:sodipodi="http://sodipodi.sourceforge.net/DTD/sodipodi-0.dtd"
   xmlns:inkscape="http://www.inkscape.org/namespaces/inkscape"
   version="1.1"
   id="svg2"
   xml:space="preserve"
   width="904.70746"
   height="712.98138"
   viewBox="0 0 904.70746 712.98138"
   sodipodi:docname="step.svg"
   inkscape:version="0.92.0 r15299"><metadata
     id="metadata8"><rdf:RDF><cc:Work
         rdf:about=""><dc:format>image/svg+xml</dc:format><dc:type
           rdf:resource="http://purl.org/dc/dcmitype/StillImage" /><dc:title></dc:title></cc:Work></rdf:RDF></metadata><defs
     id="defs6"><clipPath
       clipPathUnits="userSpaceOnUse"
       id="clipPath18"><path
         d="M 6872.7,464.281 H 576.738 V 5384.28 H 6872.7 Z"
         id="path16"
         inkscape:connector-curvature="0" /></clipPath><clipPath
       clipPathUnits="userSpaceOnUse"
       id="clipPath410"><path
         d="M 0,5384.28 V 0 h 6872.7 v 5384.28 z"
         id="path408"
         inkscape:connector-curvature="0" /></clipPath></defs><sodipodi:namedview
     pagecolor="#ffffff"
     bordercolor="#666666"
     borderopacity="1"
     objecttolerance="10"
     gridtolerance="10"
     guidetolerance="10"
     inkscape:pageopacity="0"
     inkscape:pageshadow="2"
     inkscape:window-width="640"
     inkscape:window-height="480"
     id="namedview4"
     showgrid="false"
     fit-margin-top="0"
     fit-margin-left="0"
     fit-margin-right="0"
     fit-margin-bottom="0"
     inkscape:zoom="0.22348485"
     inkscape:cx="325.17119"
     inkscape:cy="525.56527"
     inkscape:window-x="0"
     inkscape:window-y="0"
     inkscape:window-maximized="0"
     inkscape:current-layer="g10" /><g
     id="g10"
     inkscape:groupmode="layer"
     inkscape:label="A9R17v9lxg_h2opwp_4gs"
     transform="matrix(1.3333333,0,0,-1.3333333,-4.5237287,715.41612)"><g
       id="g12"
       transform="scale(0.1)"><g
         id="g14"
         clip-path="url(#clipPath18)"><g
           id="g20"
           transform="translate(1982.01,4579.1602)"><path
             d="m 0,0 c -83.88,-107.2 -154.36,-222.98 -213.29,-345.29 -78.51,-162.93 -147.03,-330.23 -202.75,-502.42 -50.03,-154.61 -101.24,-308.97 -145.68,-465.23 -57.3,-201.52 -109.07,-404.62 -161.9,-607.39 -38.69,-148.47 -75.31,-297.47 -112.52,-446.32 -1.77,-7.1 -0.23,-15.03 -0.23,-29.65 -8.94,6.29 -12.03,8.47 -19.54,13.75 -3.69,-22.14 -7.07,-42.47 -10.46,-62.8"
             style="fill:none;stroke:#231f20;stroke-width:20;stroke-linecap:round;stroke-linejoin:round;stroke-miterlimit:10;stroke-dasharray:none;stroke-opacity:1"
             id="path22"
             inkscape:connector-curvature="0" /></g><g
           id="g24"
           transform="translate(3140.9199,4537.8999)"><path
             d="m 0,0 c 141.27,-72.51 282.02,-146.05 423.95,-217.25 151.32,-75.91 309.77,-134.65 472.7,-179.32 127.41,-34.93 256.86,-62.86 386.21,-90.16 58.96,-12.44 119.81,-16.01 179.85,-23.3 83.74,-10.16 167.35,-22.11 251.33,-29.44 76.02,-6.64 152.48,-8.03 228.73,-11.88 46.27,-2.35 92.63,-3.87 138.7,-8.25 11.74,-1.12 22.58,-11.73 33.83,-17.98"
             style="fill:none;stroke:#231f20;stroke-width:20;stroke-linecap:round;stroke-linejoin:round;stroke-miterlimit:10;stroke-dasharray:none;stroke-opacity:1"
             id="path26"
             inkscape:connector-curvature="0" /></g><g
           id="g28"
           transform="translate(3681,5351.77)"><path
             d="m 0,0 c 32.5,-1.26 65.01,-3.58 97.52,-3.59 585.07,-0.22 1170.15,-0.16 1755.24,-0.16 423.81,0 847.62,0 1275.18,0 0,-13.68 0,-27.47 0,-41.26 0,-422.56 0.85,-845.12 -0.34,-1267.68 -0.67,-243.79 -4.49,-487.57 -7.21,-731.35 -2.25,-200.03 -6.19,-400.06 -7.15,-600.09 -1.25,-262.53 0.17,-525.07 -0.46,-787.61 -0.48,-203.78 -2.97,-407.55 -3.44,-611.34 -0.62,-267.53 -0.15,-535.061 -0.15,-810.1 -73.71,0 -143.74,-0.219 -213.78,0.031 -323.8,1.168 -647.59,2.758 -971.39,3.609 -211.28,0.559 -422.56,0.11 -633.84,0.11 -201.28,0 -402.56,-0.481 -603.84,0.148 -156.28,0.481 -312.54,2.844 -468.81,3.461 -161.27,0.621 -322.54,-0.16 -483.82,0.192 -511.32,1.097 -1022.64,2.468 -1533.96,3.679 -75.02,0.168 -150.03,0.02 -225.04,0.02"
             style="fill:none;stroke:#231f20;stroke-width:20;stroke-linecap:round;stroke-linejoin:round;stroke-miterlimit:10;stroke-dasharray:none;stroke-opacity:1"
             id="path30"
             inkscape:connector-curvature="0" /></g><g
           id="g32"
           transform="translate(3035.9099,4609.1602)"><path
             d="M 0,0 C -31.87,-7.15 -51.69,18.35 -74.41,31.07 -187.39,94.33 -303.48,150 -427.62,187.34 -647.16,253.37 -847.14,201.03 -1001.44,26.3 -1016.08,9.72 -1031.4,-6.25 -1046.4,-22.5"
             style="fill:none;stroke:#231f20;stroke-width:20;stroke-linecap:round;stroke-linejoin:round;stroke-miterlimit:10;stroke-dasharray:none;stroke-opacity:1"
             id="path34"
             inkscape:connector-curvature="0" /></g><g
           id="g36"
           transform="translate(1093.13,2036.3)"><path
             d="m 0,0 c -27.5,-127.52 -51.74,-255.85 -83.26,-382.36 -49.682,-199.48 -102.686,-398.19 -157.39,-596.36 -30.289,-109.721 -62.789,-219.221 -102.23,-325.881 -22.469,-60.75 -59.777,-116.277 -92.969,-172.629 -8.465,-14.379 -26.711,-22.98 -40.465,-34.23"
             style="fill:none;stroke:#231f20;stroke-width:20;stroke-linecap:round;stroke-linejoin:round;stroke-miterlimit:10;stroke-dasharray:none;stroke-opacity:1"
             id="path38"
             inkscape:connector-curvature="0" /></g><g
           id="g40"
           transform="translate(654.32,1901.28)"><path
             d="m 0,0 c -17.5,0 -35,0 -56.254,0 0,-16.17 0,-28.72 0,-41.26 0,-203.78 0.965,-407.56 -0.293,-611.34 -1.085,-175.03 -4.89,-350.032 -7.097,-525.059 -0.696,-55 -0.11,-110.019 -0.11,-165.019 0,-13.75 0,-27.512 0,-41.262"
             style="fill:none;stroke:#231f20;stroke-width:20;stroke-linecap:round;stroke-linejoin:round;stroke-miterlimit:10;stroke-dasharray:none;stroke-opacity:1"
             id="path42"
             inkscape:connector-curvature="0" /></g><g
           id="g44"
           transform="translate(1715.72,4417.8799)"><path
             d="m 0,0 c -53.75,-153.77 -109.38,-306.93 -160.47,-461.57 -24.67,-74.72 -40.76,-152.27 -60.82,-228.52 -23.7,-90.03 -48.08,-179.88 -71.1,-270.08 -30.6,-119.87 -60.39,-239.93 -90.09,-360.03 -26.58,-107.43 -53.78,-214.74 -78.52,-322.6 -30.05,-130.97 -57.81,-262.47 -86.58,-393.73 -13.71,-62.52 -27.5,-125.02 -41.25,-187.53"
             style="fill:none;stroke:#231f20;stroke-width:20;stroke-linecap:round;stroke-linejoin:round;stroke-miterlimit:10;stroke-dasharray:none;stroke-opacity:1"
             id="path46"
             inkscape:connector-curvature="0" /></g><g
           id="g48"
           transform="translate(3208.4299,5355.52)"><path
             d="m 0,0 c -858.87,0 -1717.74,0 -2584.11,0 0,-61.16 0.235,-129.97 -0.043,-198.79 -1.152,-283.78 -1.894,-567.58 -3.886,-851.36 -1.641,-233.79 -5.157,-467.56 -7.243,-701.35 -2.828,-317.54 -5.214,-635.09 -7.535,-952.63 -1.504,-206.28 -2.59,-412.56 -3.761,-618.84 -0.25,-43.76 -0.036,-87.52 -0.036,-131.27"
             style="fill:none;stroke:#231f20;stroke-width:20;stroke-linecap:round;stroke-linejoin:round;stroke-miterlimit:10;stroke-dasharray:none;stroke-opacity:1"
             id="path50"
             inkscape:connector-curvature="0" /></g><g
           id="g52"
           transform="translate(601.816,521.09)"><path
             d="m 0,0 c 33.754,-1.25 67.508,-3.551 101.266,-3.59 258.781,-0.301 517.568,-0.141 776.358,-0.32 5,-0.008 10,-2.34 15,-3.59"
             style="fill:none;stroke:#231f20;stroke-width:20;stroke-linecap:round;stroke-linejoin:round;stroke-miterlimit:10;stroke-dasharray:none;stroke-opacity:1"
             id="path54"
             inkscape:connector-curvature="0" /></g><g
           id="g56"
           transform="translate(1873.24,4747.9302)"><path
             d="M 0,0 C -51.25,-107.51 -102.51,-215.03 -153.77,-322.55"
             style="fill:none;stroke:#231f20;stroke-width:20;stroke-linecap:round;stroke-linejoin:round;stroke-miterlimit:10;stroke-dasharray:none;stroke-opacity:1"
             id="path58"
             inkscape:connector-curvature="0" /></g><g
           id="g60"
           transform="translate(3545.98,4226.6001)"><path
             d="m 0,0 c 46.26,-21.25 94.76,-38.72 138.28,-64.57 79.23,-47.08 165.35,-76.38 252.06,-103.27 78.65,-24.39 159.28,-43.14 239.92,-60.13 50.34,-10.6 102.34,-13.31 153.59,-19.56"
             style="fill:none;stroke:#231f20;stroke-width:20;stroke-linecap:round;stroke-linejoin:round;stroke-miterlimit:10;stroke-dasharray:none;stroke-opacity:1"
             id="path62"
             inkscape:connector-curvature="0" /></g><g
           id="g64"
           transform="translate(5725.04,3971.5701)"><path
             d="M 0,0 C 102.51,1.25 205.02,3.39 307.54,3.48 395.05,3.54 482.56,0.55 570.08,0.16 707.59,-0.44 845.12,0 982.64,0 c 30,0 60,0 90.01,0"
             style="fill:none;stroke:#231f20;stroke-width:20;stroke-linecap:round;stroke-linejoin:round;stroke-miterlimit:10;stroke-dasharray:none;stroke-opacity:1"
             id="path66"
             inkscape:connector-curvature="0" /></g><g
           id="g68"
           transform="translate(2027.02,4972.96)"><path
             d="m 0,0 c -2.5,-10 -2.27,-22.03 -7.94,-29.68 -46.74,-63.08 -94.58,-125.34 -142.08,-187.85"
             style="fill:none;stroke:#231f20;stroke-width:20;stroke-linecap:round;stroke-linejoin:round;stroke-miterlimit:10;stroke-dasharray:none;stroke-opacity:1"
             id="path70"
             inkscape:connector-curvature="0" /></g><g
           id="g72"
           transform="translate(2848.3799,4297.8599)"><path
             d="m 0,0 c -22.16,21.85 -36.22,8.6 -52.58,-12.65 13.57,-14.89 26.17,-28.73 41.35,-45.38 -32.42,-16.98 -63.37,-8.09 -93.79,-5.72"
             style="fill:none;stroke:#231f20;stroke-width:20;stroke-linecap:round;stroke-linejoin:round;stroke-miterlimit:10;stroke-dasharray:none;stroke-opacity:1"
             id="path74"
             inkscape:connector-curvature="0" /></g><g
           id="g76"
           transform="translate(2638.3501,4282.8599)"><path
             d="m 0,0 c -13.75,14.9 -26.45,17.46 -41.7,0.41 -7.5,-8.37 -19.75,-12.49 -31.19,-19.34 2.45,-9.03 4.82,-17.81 9.87,-36.49 24.05,19.72 43.54,35.7 63.02,51.67"
             style="fill:none;stroke:#231f20;stroke-width:20;stroke-linecap:round;stroke-linejoin:round;stroke-miterlimit:10;stroke-dasharray:none;stroke-opacity:1"
             id="path78"
             inkscape:connector-curvature="0" /></g><g
           id="g80"
           transform="translate(556.813,4631.6602)"><path
             d="m 0,0 c -12.333,-1.47 -24.661,-2.94 -36.989,-4.41 -1.594,2.98 -3.187,5.95 -4.781,8.92 18.055,16.85 36.109,33.71 55.742,52.04 C 7.539,66.63 1.761,75.69 -8.938,92.45 -21.223,76.89 -29.364,66.57 -37.504,56.26"
             style="fill:none;stroke:#231f20;stroke-width:20;stroke-linecap:round;stroke-linejoin:round;stroke-miterlimit:10;stroke-dasharray:none;stroke-opacity:1"
             id="path82"
             inkscape:connector-curvature="0" /></g><g
           id="g84"
           transform="translate(5244.9702,3964.0701)"><path
             d="m 0,0 c -65.02,-1.25 -130.03,-2.21 -195.03,-3.82 -90.02,-2.22 -180.07,-8.01 -270.03,-6.64 -108.81,1.66 -217.57,8.7 -326.29,14.48 -38.84,2.07 -77.53,7.23 -116.28,10.98"
             style="fill:none;stroke:#231f20;stroke-width:20;stroke-linecap:round;stroke-linejoin:round;stroke-miterlimit:10;stroke-dasharray:none;stroke-opacity:1"
             id="path86"
             inkscape:connector-curvature="0" /></g><g
           id="g88"
           transform="translate(2338.3101,5085.48)"><path
             d="M 0,0 C -51.26,-6.25 -102.51,-12.51 -153.77,-18.75"
             style="fill:none;stroke:#231f20;stroke-width:20;stroke-linecap:round;stroke-linejoin:round;stroke-miterlimit:10;stroke-dasharray:none;stroke-opacity:1"
             id="path90"
             inkscape:connector-curvature="0" /></g><g
           id="g92"
           transform="translate(3208.4299,5014.21)"><path
             d="m 0,0 c 45.01,5.01 90.37,7.97 134.86,15.91 20.69,3.69 52.47,6.35 37.73,44.1 -38.51,2.76 -42.53,-0.68 -52.57,-45"
             style="fill:none;stroke:#231f20;stroke-width:20;stroke-linecap:round;stroke-linejoin:round;stroke-miterlimit:10;stroke-dasharray:none;stroke-opacity:1"
             id="path94"
             inkscape:connector-curvature="0" /></g><g
           id="g96"
           transform="translate(5717.5298,3971.5701)"><path
             d="m 0,0 c -87.51,0 -175.03,0.47 -262.53,-0.15 -65.02,-0.47 -130.02,-2.35 -195.03,-3.6"
             style="fill:none;stroke:#231f20;stroke-width:20;stroke-linecap:round;stroke-linejoin:round;stroke-miterlimit:10;stroke-dasharray:none;stroke-opacity:1"
             id="path98"
             inkscape:connector-curvature="0" /></g><g
           id="g100"
           transform="translate(2345.8101,5081.73)"><path
             d="m 0,0 c 106.22,-26.15 206.06,-66.02 292.76,-134.75 5.82,-4.61 14.78,-5.28 22.28,-7.77"
             style="fill:none;stroke:#231f20;stroke-width:20;stroke-linecap:round;stroke-linejoin:round;stroke-miterlimit:10;stroke-dasharray:none;stroke-opacity:1"
             id="path102"
             inkscape:connector-curvature="0" /></g><g
           id="g104"
           transform="translate(2045.77,4256.6099)"><path
             d="m 0,0 c -16.53,-3.68 -33.05,-7.36 -47.31,-10.54 -5.58,-28.59 6.08,-39.83 28.36,-33.75 18.06,4.92 40.59,12.22 26.45,40.54"
             style="fill:none;stroke:#231f20;stroke-width:20;stroke-linecap:round;stroke-linejoin:round;stroke-miterlimit:10;stroke-dasharray:none;stroke-opacity:1"
             id="path106"
             inkscape:connector-curvature="0" /></g><g
           id="g108"
           transform="translate(1955.76,4282.8599)"><path
             d="m 0,0 c -12.97,-8.14 -25.94,-16.27 -36.33,-22.79 -4.92,-14.71 -8.69,-25.96 -13.2,-39.45 18.3,-31.88 42.52,-9.15 64.53,-5.27"
             style="fill:none;stroke:#231f20;stroke-width:20;stroke-linecap:round;stroke-linejoin:round;stroke-miterlimit:10;stroke-dasharray:none;stroke-opacity:1"
             id="path110"
             inkscape:connector-curvature="0" /></g><g
           id="g112"
           transform="translate(3542.23,4234.1099)"><path
             d="M 0,0 C -46.26,28.75 -92.51,57.51 -138.77,86.26"
             style="fill:none;stroke:#231f20;stroke-width:20;stroke-linecap:round;stroke-linejoin:round;stroke-miterlimit:10;stroke-dasharray:none;stroke-opacity:1"
             id="path114"
             inkscape:connector-curvature="0" /></g><g
           id="g116"
           transform="translate(3257.1899,4429.1299)"><path
             d="M 0,0 C 46.26,-35 92.51,-70 138.77,-105.01"
             style="fill:none;stroke:#231f20;stroke-width:20;stroke-linecap:round;stroke-linejoin:round;stroke-miterlimit:10;stroke-dasharray:none;stroke-opacity:1"
             id="path118"
             inkscape:connector-curvature="0" /></g><g
           id="g120"
           transform="translate(714.332,671.109)"><path
             d="M 0,0 C -38.758,-48.757 -77.512,-97.507 -116.266,-146.269"
             style="fill:none;stroke:#231f20;stroke-width:20;stroke-linecap:round;stroke-linejoin:round;stroke-miterlimit:10;stroke-dasharray:none;stroke-opacity:1"
             id="path122"
             inkscape:connector-curvature="0" /></g><g
           id="g124"
           transform="translate(2173.29,5059.2202)"><path
             d="M 0,0 C -43.76,-30 -87.51,-60.01 -131.27,-90.01"
             style="fill:none;stroke:#231f20;stroke-width:20;stroke-linecap:round;stroke-linejoin:round;stroke-miterlimit:10;stroke-dasharray:none;stroke-opacity:1"
             id="path126"
             inkscape:connector-curvature="0" /></g><g
           id="g128"
           transform="translate(2810.8701,4819.1899)"><path
             d="M 0,0 C 42.51,-40 85.02,-80.01 127.52,-120.02"
             style="fill:none;stroke:#231f20;stroke-width:20;stroke-linecap:round;stroke-linejoin:round;stroke-miterlimit:10;stroke-dasharray:none;stroke-opacity:1"
             id="path130"
             inkscape:connector-curvature="0" /></g><g
           id="g132"
           transform="translate(2747.1201,4320.3701)"><path
             d="m 0,0 c -1.6,-30.79 -6.36,-59.75 -43.15,-71.91 -6.4,4.53 -13.76,9.73 -21.72,15.34 2.96,11.73 5.79,22.9 8.61,34.06"
             style="fill:none;stroke:#231f20;stroke-width:20;stroke-linecap:round;stroke-linejoin:round;stroke-miterlimit:10;stroke-dasharray:none;stroke-opacity:1"
             id="path134"
             inkscape:connector-curvature="0" /></g><g
           id="g136"
           transform="translate(2672.1001,4924.2002)"><path
             d="M 0,0 C 38.76,-30 77.52,-60 116.27,-90.01"
             style="fill:none;stroke:#231f20;stroke-width:20;stroke-linecap:round;stroke-linejoin:round;stroke-miterlimit:10;stroke-dasharray:none;stroke-opacity:1"
             id="path138"
             inkscape:connector-curvature="0" /></g><g
           id="g140"
           transform="translate(3103.4199,4560.3999)"><path
             d="M 0,0 C 47.5,-41.25 95.01,-82.51 142.52,-123.77"
             style="fill:none;stroke:#231f20;stroke-width:20;stroke-linecap:round;stroke-linejoin:round;stroke-miterlimit:10;stroke-dasharray:none;stroke-opacity:1"
             id="path142"
             inkscape:connector-curvature="0" /></g><g
           id="g144"
           transform="translate(2409.5701,4222.8501)"><path
             d="m 0,0 c -3.54,20.26 -7.08,40.52 -10.62,60.78 -3.7,2 -7.39,3.99 -11.08,5.98 -11.04,-16.52 -22.08,-33.04 -36.56,-54.72 -3,17.97 -4.25,25.47 -5.5,32.97"
             style="fill:none;stroke:#231f20;stroke-width:20;stroke-linecap:round;stroke-linejoin:round;stroke-miterlimit:10;stroke-dasharray:none;stroke-opacity:1"
             id="path146"
             inkscape:connector-curvature="0" /></g><g
           id="g148"
           transform="translate(2953.3899,5047.9702)"><path
             d="m 0,0 c -17.53,-10.52 -35.06,-21.03 -52.69,-31.62 19.92,-38.02 53.02,-15.89 75.2,-28.39"
             style="fill:none;stroke:#231f20;stroke-width:20;stroke-linecap:round;stroke-linejoin:round;stroke-miterlimit:10;stroke-dasharray:none;stroke-opacity:1"
             id="path150"
             inkscape:connector-curvature="0" /></g><g
           id="g152"
           transform="translate(2777.1201,5122.98)"><path
             d="M 0,0 C 2.5,-26.25 4.67,-52.54 7.62,-78.75 9.47,-95.07 12.5,-111.26 15,-127.52"
             style="fill:none;stroke:#231f20;stroke-width:20;stroke-linecap:round;stroke-linejoin:round;stroke-miterlimit:10;stroke-dasharray:none;stroke-opacity:1"
             id="path154"
             inkscape:connector-curvature="0" /></g><g
           id="g156"
           transform="translate(3253.4399,5122.98)"><path
             d="M 0,0 C -2.5,-32.5 -5.01,-65.01 -7.5,-97.52"
             style="fill:none;stroke:#231f20;stroke-width:20;stroke-linecap:round;stroke-linejoin:round;stroke-miterlimit:10;stroke-dasharray:none;stroke-opacity:1"
             id="path158"
             inkscape:connector-curvature="0" /></g><g
           id="g160"
           transform="translate(3324.7,5021.71)"><path
             d="M 0,0 C 17,-35.46 27.8,-39.58 78.76,-30"
             style="fill:none;stroke:#231f20;stroke-width:20;stroke-linecap:round;stroke-linejoin:round;stroke-miterlimit:10;stroke-dasharray:none;stroke-opacity:1"
             id="path162"
             inkscape:connector-curvature="0" /></g><g
           id="g164"
           transform="translate(2503.3301,4290.3599)"><path
             d="m 0,0 c 2.76,-9.92 5.53,-19.85 10.08,-36.21 -19.67,-6.7 -39.25,-13.37 -58.83,-20.04"
             style="fill:none;stroke:#231f20;stroke-width:20;stroke-linecap:round;stroke-linejoin:round;stroke-miterlimit:10;stroke-dasharray:none;stroke-opacity:1"
             id="path166"
             inkscape:connector-curvature="0" /></g><g
           id="g168"
           transform="translate(2747.1201,5059.2202)"><path
             d="m 0,0 c -16.28,-16.26 -32.56,-32.53 -49.85,-49.8 8.38,-11.28 13.76,-18.51 21.36,-28.74 19.85,12.65 39.17,24.97 58.49,37.28"
             style="fill:none;stroke:#231f20;stroke-width:20;stroke-linecap:round;stroke-linejoin:round;stroke-miterlimit:10;stroke-dasharray:none;stroke-opacity:1"
             id="path170"
             inkscape:connector-curvature="0" /></g><g
           id="g172"
           transform="translate(2844.6299,5047.9702)"><path
             d="M 0,0 C 2.5,-22.51 5,-45.01 7.5,-67.51"
             style="fill:none;stroke:#231f20;stroke-width:20;stroke-linecap:round;stroke-linejoin:round;stroke-miterlimit:10;stroke-dasharray:none;stroke-opacity:1"
             id="path174"
             inkscape:connector-curvature="0" /></g><g
           id="g176"
           transform="translate(2222.04,4342.8701)"><path
             d="m 0,0 c 0,-20 0,-40 0,-63.64 -7.02,-3.54 -18.51,-9.33 -30,-15.12"
             style="fill:none;stroke:#231f20;stroke-width:20;stroke-linecap:round;stroke-linejoin:round;stroke-miterlimit:10;stroke-dasharray:none;stroke-opacity:1"
             id="path178"
             inkscape:connector-curvature="0" /></g><g
           id="g180"
           transform="translate(3125.9199,5029.2202)"><path
             d="M 0,0 C 12.49,6.94 24.98,13.86 37.47,20.8 36.42,24.26 35.38,27.72 34.33,31.17 24.32,32.19 14.3,33.21 10.1,33.64 -3.39,15.07 -12.94,1.91 -22.5,-11.26"
             style="fill:none;stroke:#231f20;stroke-width:20;stroke-linecap:round;stroke-linejoin:round;stroke-miterlimit:10;stroke-dasharray:none;stroke-opacity:1"
             id="path182"
             inkscape:connector-curvature="0" /></g><g
           id="g184"
           transform="translate(3073.4099,5036.7202)"><path
             d="M 0,0 C -7.5,2.51 -15,5.01 -31.4,10.49 -36.07,-9.81 -40.53,-29.29 -45,-48.76"
             style="fill:none;stroke:#231f20;stroke-width:20;stroke-linecap:round;stroke-linejoin:round;stroke-miterlimit:10;stroke-dasharray:none;stroke-opacity:1"
             id="path186"
             inkscape:connector-curvature="0" /></g><g
           id="g188"
           transform="translate(3024.6599,4624.1602)"><path
             d="M 0,0 C 23.75,-20 47.5,-40 71.26,-60.01"
             style="fill:none;stroke:#231f20;stroke-width:20;stroke-linecap:round;stroke-linejoin:round;stroke-miterlimit:10;stroke-dasharray:none;stroke-opacity:1"
             id="path190"
             inkscape:connector-curvature="0" /></g><g
           id="g192"
           transform="translate(2960.8999,4684.1699)"><path
             d="M 0,0 C 18.75,-17.5 37.5,-35.01 56.25,-52.51"
             style="fill:none;stroke:#231f20;stroke-width:20;stroke-linecap:round;stroke-linejoin:round;stroke-miterlimit:10;stroke-dasharray:none;stroke-opacity:1"
             id="path194"
             inkscape:connector-curvature="0" /></g><g
           id="g196"
           transform="translate(1138.14,2182.5701)"><path
             d="M 0,0 C -3.75,-18.75 -7.5,-37.51 -11.25,-56.26"
             style="fill:none;stroke:#231f20;stroke-width:20;stroke-linecap:round;stroke-linejoin:round;stroke-miterlimit:10;stroke-dasharray:none;stroke-opacity:1"
             id="path198"
             inkscape:connector-curvature="0" /></g><g
           id="g200"
           transform="translate(1220.65,577.352)"><path
             d="M 0,0 C 0,-18.75 0,-37.512 0,-56.262"
             style="fill:none;stroke:#231f20;stroke-width:20;stroke-linecap:round;stroke-linejoin:round;stroke-miterlimit:10;stroke-dasharray:none;stroke-opacity:1"
             id="path202"
             inkscape:connector-curvature="0" /></g><g
           id="g204"
           transform="translate(2465.8301,569.852)"><path
             d="M 0,0 C 0,-18.762 0,-37.512 0,-56.262"
             style="fill:none;stroke:#231f20;stroke-width:20;stroke-linecap:round;stroke-linejoin:round;stroke-miterlimit:10;stroke-dasharray:none;stroke-opacity:1"
             id="path206"
             inkscape:connector-curvature="0" /></g><g
           id="g208"
           transform="translate(3080.9099,569.852)"><path
             d="M 0,0 C 0,-18.762 0,-37.512 0,-56.262"
             style="fill:none;stroke:#231f20;stroke-width:20;stroke-linecap:round;stroke-linejoin:round;stroke-miterlimit:10;stroke-dasharray:none;stroke-opacity:1"
             id="path210"
             inkscape:connector-curvature="0" /></g><g
           id="g212"
           transform="translate(6163.8501,562.352)"><path
             d="M 0,0 C 0,-18.762 0,-37.512 0,-56.262"
             style="fill:none;stroke:#231f20;stroke-width:20;stroke-linecap:round;stroke-linejoin:round;stroke-miterlimit:10;stroke-dasharray:none;stroke-opacity:1"
             id="path214"
             inkscape:connector-curvature="0" /></g><g
           id="g216"
           transform="translate(673.074,3979.0701)"><path
             d="M 0,0 C -17.504,0 -35.004,0 -52.508,0"
             style="fill:none;stroke:#231f20;stroke-width:20;stroke-linecap:round;stroke-linejoin:round;stroke-miterlimit:10;stroke-dasharray:none;stroke-opacity:1"
             id="path218"
             inkscape:connector-curvature="0" /></g><g
           id="g220"
           transform="translate(6786.4399,2580.1299)"><path
             d="M 0,0 C -17.5,0 -35.01,0 -52.51,0"
             style="fill:none;stroke:#231f20;stroke-width:20;stroke-linecap:round;stroke-linejoin:round;stroke-miterlimit:10;stroke-dasharray:none;stroke-opacity:1"
             id="path222"
             inkscape:connector-curvature="0" /></g><g
           id="g224"
           transform="translate(6801.4399,4657.9199)"><path
             d="M 0,0 C -17.5,0 -35.01,0 -52.51,0"
             style="fill:none;stroke:#231f20;stroke-width:20;stroke-linecap:round;stroke-linejoin:round;stroke-miterlimit:10;stroke-dasharray:none;stroke-opacity:1"
             id="path226"
             inkscape:connector-curvature="0" /></g><g
           id="g228"
           transform="translate(6193.8501,5340.5098)"><path
             d="M 0,0 C 0,-17.5 0,-35.01 0,-52.51"
             style="fill:none;stroke:#231f20;stroke-width:20;stroke-linecap:round;stroke-linejoin:round;stroke-miterlimit:10;stroke-dasharray:none;stroke-opacity:1"
             id="path230"
             inkscape:connector-curvature="0" /></g><g
           id="g232"
           transform="translate(613.066,2595.1299)"><path
             d="M 0,0 C 17.504,0 35.004,0 52.508,0"
             style="fill:none;stroke:#231f20;stroke-width:20;stroke-linecap:round;stroke-linejoin:round;stroke-miterlimit:10;stroke-dasharray:none;stroke-opacity:1"
             id="path234"
             inkscape:connector-curvature="0" /></g><g
           id="g236"
           transform="translate(3107.1699,5348.02)"><path
             d="M 0,0 C 0,-17.5 0,-35.02 0,-52.52"
             style="fill:none;stroke:#231f20;stroke-width:20;stroke-linecap:round;stroke-linejoin:round;stroke-miterlimit:10;stroke-dasharray:none;stroke-opacity:1"
             id="path238"
             inkscape:connector-curvature="0" /></g><g
           id="g240"
           transform="translate(628.07,4672.9199)"><path
             d="M 0,0 C 17.5,0 35,0 52.504,0"
             style="fill:none;stroke:#231f20;stroke-width:20;stroke-linecap:round;stroke-linejoin:round;stroke-miterlimit:10;stroke-dasharray:none;stroke-opacity:1"
             id="path242"
             inkscape:connector-curvature="0" /></g><g
           id="g244"
           transform="translate(3696,562.352)"><path
             d="M 0,0 C 0,-17.5 0,-35.012 0,-52.512"
             style="fill:none;stroke:#231f20;stroke-width:20;stroke-linecap:round;stroke-linejoin:round;stroke-miterlimit:10;stroke-dasharray:none;stroke-opacity:1"
             id="path246"
             inkscape:connector-curvature="0" /></g><g
           id="g248"
           transform="translate(4926.1699,562.352)"><path
             d="M 0,0 C 1.25,-17.5 2.5,-35.012 3.75,-52.512"
             style="fill:none;stroke:#231f20;stroke-width:20;stroke-linecap:round;stroke-linejoin:round;stroke-miterlimit:10;stroke-dasharray:none;stroke-opacity:1"
             id="path250"
             inkscape:connector-curvature="0" /></g><g
           id="g252"
           transform="translate(2492.0801,5348.02)"><path
             d="M 0,0 C 1.25,-17.5 2.5,-35.02 3.75,-52.52"
             style="fill:none;stroke:#231f20;stroke-width:20;stroke-linecap:round;stroke-linejoin:round;stroke-miterlimit:10;stroke-dasharray:none;stroke-opacity:1"
             id="path254"
             inkscape:connector-curvature="0" /></g><g
           id="g256"
           transform="translate(658.074,1211.1801)"><path
             d="M 0,0 C -17.504,0 -35.004,0 -52.508,0"
             style="fill:none;stroke:#231f20;stroke-width:20;stroke-linecap:round;stroke-linejoin:round;stroke-miterlimit:10;stroke-dasharray:none;stroke-opacity:1"
             id="path258"
             inkscape:connector-curvature="0" /></g><g
           id="g260"
           transform="translate(5548.7598,562.352)"><path
             d="M 0,0 C -1.25,-17.5 -2.5,-35.012 -3.75,-52.512"
             style="fill:none;stroke:#231f20;stroke-width:20;stroke-linecap:round;stroke-linejoin:round;stroke-miterlimit:10;stroke-dasharray:none;stroke-opacity:1"
             id="path262"
             inkscape:connector-curvature="0" /></g><g
           id="g264"
           transform="translate(6778.9399,1192.4301)"><path
             d="M 0,0 C -17.5,0 -35.01,0 -52.51,0"
             style="fill:none;stroke:#231f20;stroke-width:20;stroke-linecap:round;stroke-linejoin:round;stroke-miterlimit:10;stroke-dasharray:none;stroke-opacity:1"
             id="path266"
             inkscape:connector-curvature="0" /></g><g
           id="g268"
           transform="translate(6793.9399,3273.97)"><path
             d="M 0,0 C -17.5,-1.25 -35.01,-2.49 -52.51,-3.75"
             style="fill:none;stroke:#231f20;stroke-width:20;stroke-linecap:round;stroke-linejoin:round;stroke-miterlimit:10;stroke-dasharray:none;stroke-opacity:1"
             id="path270"
             inkscape:connector-curvature="0" /></g><g
           id="g272"
           transform="translate(4311.0801,562.352)"><path
             d="M 0,0 C 0,-17.5 0,-35.012 0,-52.512"
             style="fill:none;stroke:#231f20;stroke-width:20;stroke-linecap:round;stroke-linejoin:round;stroke-miterlimit:10;stroke-dasharray:none;stroke-opacity:1"
             id="path274"
             inkscape:connector-curvature="0" /></g><g
           id="g276"
           transform="translate(2218.29,4271.6099)"><path
             d="M 0,0 C 1.25,-21.25 2.51,-42.51 3.75,-63.76"
             style="fill:none;stroke:#231f20;stroke-width:20;stroke-linecap:round;stroke-linejoin:round;stroke-miterlimit:10;stroke-dasharray:none;stroke-opacity:1"
             id="path278"
             inkscape:connector-curvature="0" /></g><g
           id="g280"
           transform="translate(616.816,3285.22)"><path
             d="M 0,0 C 16.254,0 32.508,0 48.758,0"
             style="fill:none;stroke:#231f20;stroke-width:20;stroke-linecap:round;stroke-linejoin:round;stroke-miterlimit:10;stroke-dasharray:none;stroke-opacity:1"
             id="path282"
             inkscape:connector-curvature="0" /></g><g
           id="g284"
           transform="translate(1250.66,5348.02)"><path
             d="M 0,0 C 0,-15.01 0,-30.01 0,-45.02"
             style="fill:none;stroke:#231f20;stroke-width:20;stroke-linecap:round;stroke-linejoin:round;stroke-miterlimit:10;stroke-dasharray:none;stroke-opacity:1"
             id="path286"
             inkscape:connector-curvature="0" /></g><g
           id="g288"
           transform="translate(3118.4199,5014.21)"><path
             d="M 0,0 C 15,-8.75 30,-17.5 45.01,-26.25"
             style="fill:none;stroke:#231f20;stroke-width:20;stroke-linecap:round;stroke-linejoin:round;stroke-miterlimit:10;stroke-dasharray:none;stroke-opacity:1"
             id="path290"
             inkscape:connector-curvature="0" /></g><g
           id="g292"
           transform="translate(3726.01,5340.5098)"><path
             d="M 0,0 C 0,-15 0,-30 0,-45.01"
             style="fill:none;stroke:#231f20;stroke-width:20;stroke-linecap:round;stroke-linejoin:round;stroke-miterlimit:10;stroke-dasharray:none;stroke-opacity:1"
             id="path294"
             inkscape:connector-curvature="0" /></g><g
           id="g296"
           transform="translate(4956.1699,5340.5098)"><path
             d="M 0,0 C 0,-15 0,-30 0,-45.01"
             style="fill:none;stroke:#231f20;stroke-width:20;stroke-linecap:round;stroke-linejoin:round;stroke-miterlimit:10;stroke-dasharray:none;stroke-opacity:1"
             id="path298"
             inkscape:connector-curvature="0" /></g><g
           id="g300"
           transform="translate(5571.2598,5340.5098)"><path
             d="M 0,0 C 0,-15 0,-30 0,-45.01"
             style="fill:none;stroke:#231f20;stroke-width:20;stroke-linecap:round;stroke-linejoin:round;stroke-miterlimit:10;stroke-dasharray:none;stroke-opacity:1"
             id="path302"
             inkscape:connector-curvature="0" /></g><g
           id="g304"
           transform="translate(2109.53,4245.3599)"><path
             d="m 0,0 c 10.12,6.09 20.24,12.17 37.5,22.55 0,-17.59 0,-31.32 0,-45.06"
             style="fill:none;stroke:#231f20;stroke-width:20;stroke-linecap:round;stroke-linejoin:round;stroke-miterlimit:10;stroke-dasharray:none;stroke-opacity:1"
             id="path306"
             inkscape:connector-curvature="0" /></g><g
           id="g308"
           transform="translate(4341.0898,5340.5098)"><path
             d="M 0,0 C -1.26,-12.5 -2.5,-25 -3.75,-37.51"
             style="fill:none;stroke:#231f20;stroke-width:20;stroke-linecap:round;stroke-linejoin:round;stroke-miterlimit:10;stroke-dasharray:none;stroke-opacity:1"
             id="path310"
             inkscape:connector-curvature="0" /></g><g
           id="g312"
           transform="translate(3253.4399,5348.02)"><path
             d="M 0,0 C -10,2.49 -20.01,5 -30.01,7.5"
             style="fill:none;stroke:#231f20;stroke-width:20;stroke-linecap:round;stroke-linejoin:round;stroke-miterlimit:10;stroke-dasharray:none;stroke-opacity:1"
             id="path314"
             inkscape:connector-curvature="0" /></g><g
           id="g316"
           transform="translate(1108.13,2096.3101)"><path
             d="M 0,0 C 0,11.28 0,22.56 0,33.84 3.54,34.22 7.08,34.61 10.62,35 17.59,22.06 16.55,7.67 11.26,-7.5"
             style="fill:none;stroke:#231f20;stroke-width:20;stroke-linecap:round;stroke-linejoin:round;stroke-miterlimit:10;stroke-dasharray:none;stroke-opacity:1"
             id="path318"
             inkscape:connector-curvature="0" /></g><g
           id="g320"
           transform="translate(3658.5,5355.52)"><path
             d="M 0,0 C -23.76,-2.5 -47.46,-5.92 -71.28,-7.24 -93.71,-8.48 -116.27,-7.5 -138.77,-7.5"
             style="fill:none;stroke:#231f20;stroke-width:20;stroke-linecap:round;stroke-linejoin:round;stroke-miterlimit:10;stroke-dasharray:none;stroke-opacity:1"
             id="path322"
             inkscape:connector-curvature="0" /></g><g
           id="g324"
           transform="translate(1850.74,569.852)"><path
             d="M 0,0 C -1.25,-17.5 -2.5,-35.012 -3.75,-52.512"
             style="fill:none;stroke:#231f20;stroke-width:20;stroke-linecap:round;stroke-linejoin:round;stroke-miterlimit:10;stroke-dasharray:none;stroke-opacity:1"
             id="path326"
             inkscape:connector-curvature="0" /></g><g
           id="g328"
           transform="translate(2315.8101,4275.3599)"><path
             d="M 0,0 C -2.5,-17.5 -5,-35.01 -7.5,-52.51"
             style="fill:none;stroke:#231f20;stroke-width:20;stroke-linecap:round;stroke-linejoin:round;stroke-miterlimit:10;stroke-dasharray:none;stroke-opacity:1"
             id="path330"
             inkscape:connector-curvature="0" /></g><g
           id="g332"
           transform="translate(1104.38,2040.05)"><path
             d="M 0,0 C 4.67,17.02 9.34,34.04 14.01,51.08 9.41,52.07 4.82,53.07 0.23,54.06 -2.17,36.27 -13.25,20.34 -3.75,0"
             style="fill:none;stroke:#231f20;stroke-width:20;stroke-linecap:round;stroke-linejoin:round;stroke-miterlimit:10;stroke-dasharray:none;stroke-opacity:1"
             id="path334"
             inkscape:connector-curvature="0" /></g><g
           id="g336"
           transform="translate(2855.8799,5077.98)"><path
             d="M 0,0 C 5,-7.5 10,-15.01 15,-22.51"
             style="fill:none;stroke:#231f20;stroke-width:20;stroke-linecap:round;stroke-linejoin:round;stroke-miterlimit:10;stroke-dasharray:none;stroke-opacity:1"
             id="path338"
             inkscape:connector-curvature="0" /></g><g
           id="g340"
           transform="translate(1877,5348.02)"><path
             d="M 0,0 C -1.25,-15.01 -2.51,-30.01 -3.76,-45.02"
             style="fill:none;stroke:#231f20;stroke-width:20;stroke-linecap:round;stroke-linejoin:round;stroke-miterlimit:10;stroke-dasharray:none;stroke-opacity:1"
             id="path342"
             inkscape:connector-curvature="0" /></g><g
           id="g344"
           transform="translate(2105.78,4264.1099)"><path
             d="M 0,0 C -2.5,-16.25 -5,-32.5 -7.5,-48.76"
             style="fill:none;stroke:#231f20;stroke-width:20;stroke-linecap:round;stroke-linejoin:round;stroke-miterlimit:10;stroke-dasharray:none;stroke-opacity:1"
             id="path346"
             inkscape:connector-curvature="0" /></g><g
           id="g348"
           transform="translate(3279.6899,5355.52)"><path
             d="M 0,0 C 26.26,-1.26 52.51,-2.5 78.76,-3.75"
             style="fill:none;stroke:#231f20;stroke-width:20;stroke-linecap:round;stroke-linejoin:round;stroke-miterlimit:10;stroke-dasharray:none;stroke-opacity:1"
             id="path350"
             inkscape:connector-curvature="0" /></g><g
           id="g352"
           transform="translate(575.563,5348.02)"><path
             d="M 0,0 C -15,-1.26 -30.004,-2.5 -45.004,-3.76"
             style="fill:none;stroke:#231f20;stroke-width:20;stroke-linecap:round;stroke-linejoin:round;stroke-miterlimit:10;stroke-dasharray:none;stroke-opacity:1"
             id="path354"
             inkscape:connector-curvature="0" /></g><g
           id="g356"
           transform="translate(3384.71,5351.77)"><path
             d="M 0,0 C 13.75,-1.26 27.5,-2.5 41.25,-3.75"
             style="fill:none;stroke:#231f20;stroke-width:20;stroke-linecap:round;stroke-linejoin:round;stroke-miterlimit:10;stroke-dasharray:none;stroke-opacity:1"
             id="path358"
             inkscape:connector-curvature="0" /></g><g
           id="g360"
           transform="translate(6733.9302,1882.53)"><path
             d="M 0,0 C 17.5,1.25 35.01,2.49 52.51,3.75"
             style="fill:none;stroke:#231f20;stroke-width:20;stroke-linecap:round;stroke-linejoin:round;stroke-miterlimit:10;stroke-dasharray:none;stroke-opacity:1"
             id="path362"
             inkscape:connector-curvature="0" /></g><g
           id="g364"
           transform="translate(1561.95,517.34)"><path
             d="M 0,0 C 3.75,-2.5 7.5,-5 11.25,-7.5"
             style="fill:none;stroke:#231f20;stroke-width:20;stroke-linecap:round;stroke-linejoin:round;stroke-miterlimit:10;stroke-dasharray:none;stroke-opacity:1"
             id="path366"
             inkscape:connector-curvature="0" /></g><g
           id="g368"
           transform="translate(3485.97,5355.52)"><path
             d="M 0,0 C 2.5,-2.5 5.01,-5.01 7.5,-7.5"
             style="fill:none;stroke:#231f20;stroke-width:20;stroke-linecap:round;stroke-linejoin:round;stroke-miterlimit:10;stroke-dasharray:none;stroke-opacity:1"
             id="path370"
             inkscape:connector-curvature="0" /></g></g></g><text
       transform="matrix(1,0,0,-1,32.96,118.753)"
       style="font-variant:normal;font-weight:normal;font-size:18px;font-family:MyriadPro;-inkscape-font-specification:MyriadPro-Regular;writing-mode:lr-tb;fill:#100f0d;fill-opacity:1;fill-rule:nonzero;stroke:none"
       id="text390"><tspan
         x="0 9.2340002 12.96"
         y="0"
         sodipodi:role="line"
         id="tspan372">0.2</tspan><tspan
         x="0 9.2340002 12.96"
         y="-67.446999"
         sodipodi:role="line"
         id="tspan374">0.4</tspan><tspan
         x="0 9.2340002 12.96"
         y="-136.51801"
         sodipodi:role="line"
         id="tspan376">0.6</tspan><tspan
         x="1.571 10.805 14.531"
         y="-206.32201"
         sodipodi:role="line"
         id="tspan378">0.8</tspan><tspan
         x="1 10.234 13.96"
         y="-273.362"
         sodipodi:role="line"
         id="tspan380">1.0</tspan><tspan
         x="1 10.234 13.96"
         y="-343.897"
         sodipodi:role="line"
         id="tspan382">1.2</tspan><tspan
         x="138.196 147.42999 151.15601"
         y="88.605003"
         sodipodi:role="line"
         id="tspan384">0.2</tspan><tspan
         x="263.97101 273.20499 276.931"
         y="87.747002"
         sodipodi:role="line"
         id="tspan386">0.4</tspan><tspan
         x="387.461 396.69501 400.42099"
         y="86.605003"
         sodipodi:role="line"
         id="tspan388">0.6</tspan></text>
<text
       transform="matrix(-0.0175,0.9998,0.9998,0.0175,16.9109,249.997)"
       style="font-variant:normal;font-weight:normal;font-size:17.99915695px;font-family:MyriadPro;-inkscape-font-specification:MyriadPro-Regular;writing-mode:lr-tb;fill:#100f0d;fill-opacity:1;fill-rule:nonzero;stroke:none"
       id="text394"><tspan
         x="0 8.8198929 14.669726 23.687304 33.928825 37.744644 43.449963 52.467541 59.595207 69.836731 79.718262 89.707794 96.835464"
         y="0"
         sodipodi:role="line"
         id="tspan392">Step response</tspan></text>
<text
       transform="matrix(1,0,0,-1,543.586,30.148)"
       style="font-variant:normal;font-weight:normal;font-size:18px;font-family:MyriadPro;-inkscape-font-specification:MyriadPro-Regular;writing-mode:lr-tb;fill:#100f0d;fill-opacity:1;fill-rule:nonzero;stroke:none"
       id="text402"><tspan
         x="0 9.2340002 12.96"
         y="0"
         sodipodi:role="line"
         id="tspan396">0.8</tspan><tspan
         x="-431.483 -422.24899 -418.52301 -307.34 -298.10599 -294.38 -185.15401 -175.92 -172.194 -61.664001 -52.43 -48.703999"
         y="-1"
         sodipodi:role="line"
         id="tspan398">0.10.30.50.7</tspan><tspan
         x="61.826 71.059998 74.786003"
         y="-0.43000001"
         sodipodi:role="line"
         id="tspan400">0.9</tspan></text>
<g
       id="g404"
       transform="scale(0.1)"><g
         id="g406"
         clip-path="url(#clipPath410)"><path
           d="m 2676.74,4964.28 h 780 v 190 h -780 z"
           style="fill:#ffffff;fill-opacity:1;fill-rule:nonzero;stroke:none"
           id="path412"
           inkscape:connector-curvature="0" /><path
           d="m 1856.74,4154.28 h 1280 v 201.84 h -1280 z"
           style="fill:#ffffff;fill-opacity:1;fill-rule:nonzero;stroke:none"
           id="path414"
           inkscape:connector-curvature="0" /></g></g><text
       transform="matrix(1,0,0,-1,350.764,5.078)"
       style="font-variant:normal;font-weight:normal;font-size:18px;font-family:MyriadPro;-inkscape-font-specification:MyriadPro-Regular;writing-mode:lr-tb;fill:#100f0d;fill-opacity:1;fill-rule:nonzero;stroke:none"
       id="text422"><tspan
         x="0 8.7299995 12.942 27.954 36.756199 40.482197 44.298199"
         y="0"
         sodipodi:role="line"
         id="tspan416">Time, t</tspan><tspan
         x="-153.09 -145.1339 -135.25189 -125.334 -119.376 -115.164 -105.174 -95.255997 -85.374001 -75.456001"
         y="-430.66199"
         sodipodi:role="line"
         id="tspan418">continuous</tspan><tspan
         x="-76.089996 -65.938004 -61.726002 -54.598 -46.534 -40.827892 -31.809893 -25.960396"
         y="-497.57001"
         sodipodi:role="line"
         id="tspan420">discrete</tspan></text>
</g></svg>