<?xml version="1.0" encoding="UTF-8" standalone="no"?>
<!-- Created with Inkscape (http://www.inkscape.org/) -->

<svg
   xmlns:dc="http://purl.org/dc/elements/1.1/"
   xmlns:cc="http://creativecommons.org/ns#"
   xmlns:rdf="http://www.w3.org/1999/02/22-rdf-syntax-ns#"
   xmlns:svg="http://www.w3.org/2000/svg"
   xmlns="http://www.w3.org/2000/svg"
   xmlns:sodipodi="http://sodipodi.sourceforge.net/DTD/sodipodi-0.dtd"
   xmlns:inkscape="http://www.inkscape.org/namespaces/inkscape"
   version="1.1"
   id="svg2"
   xml:space="preserve"
   width="906.06555"
   height="712.61328"
   viewBox="0 0 906.06555 712.61328"
   sodipodi:docname="step2.svg"
   inkscape:version="0.92.0 r15299"><metadata
     id="metadata8"><rdf:RDF><cc:Work
         rdf:about=""><dc:format>image/svg+xml</dc:format><dc:type
           rdf:resource="http://purl.org/dc/dcmitype/StillImage" /><dc:title></dc:title></cc:Work></rdf:RDF></metadata><defs
     id="defs6"><clipPath
       clipPathUnits="userSpaceOnUse"
       id="clipPath18"><path
         d="M 6851.24,436.191 H 595.313 V 5362.86 H 6851.24 Z"
         id="path16"
         inkscape:connector-curvature="0" /></clipPath><clipPath
       clipPathUnits="userSpaceOnUse"
       id="clipPath270"><path
         d="M 0,5362.86 V 0 h 6851.24 v 5362.86 z"
         id="path268"
         inkscape:connector-curvature="0" /></clipPath></defs><sodipodi:namedview
     pagecolor="#ffffff"
     bordercolor="#666666"
     borderopacity="1"
     objecttolerance="10"
     gridtolerance="10"
     guidetolerance="10"
     inkscape:pageopacity="0"
     inkscape:pageshadow="2"
     inkscape:window-width="640"
     inkscape:window-height="480"
     id="namedview4"
     showgrid="false"
     fit-margin-top="0"
     fit-margin-left="0"
     fit-margin-right="0"
     fit-margin-bottom="0"
     inkscape:zoom="0.22348485"
     inkscape:cx="325.17119"
     inkscape:cy="525.56527"
     inkscape:window-x="0"
     inkscape:window-y="0"
     inkscape:window-maximized="0"
     inkscape:current-layer="g10" /><g
     id="g10"
     inkscape:groupmode="layer"
     inkscape:label="A9R4dekj0_h2opwz_4gs"
     transform="matrix(1.3333333,0,0,-1.3333333,-4.5237287,715.04798)"><g
       id="g12"
       transform="scale(0.1)"><g
         id="g14"
         clip-path="url(#clipPath18)"><g
           id="g20"
           transform="translate(2005.5699,4575.2402)"><path
             d="m 0,0 c -106.31,-118.55 -175.69,-259.84 -243.16,-401.61 -72.4,-152.1 -135.41,-308.41 -187.85,-468.62 -52.64,-160.81 -105.59,-321.62 -153.23,-483.96 -40.37,-137.56 -73.57,-277.23 -109.55,-416.07 -35.29,-136.2 -71.09,-272.27 -104.78,-408.86 -32.61,-132.19 -62.97,-264.93 -94.01,-397.49 -33.95,-144.98 -66.26,-290.35 -101.8,-434.94 -21.069,-85.67 -47.018,-170.14 -70.768,-255.15"
             style="fill:none;stroke:#231f20;stroke-width:20;stroke-linecap:round;stroke-linejoin:round;stroke-miterlimit:10;stroke-dasharray:none;stroke-opacity:1"
             id="path22"
             inkscape:connector-curvature="0" /></g><g
           id="g24"
           transform="translate(2230.6001,4747.7598)"><path
             d="m 0,0 c 27.5,11.25 54.22,25.32 82.65,33.27 117.77,32.92 232.2,10.49 344.84,-25.99 141.06,-45.7 268.28,-120.49 397.83,-190.67 180.46,-97.77 360.84,-195.91 544.28,-287.87 87.45,-43.84 181.86,-73.82 273.13,-110.07"
             style="fill:none;stroke:#231f20;stroke-width:20;stroke-linecap:round;stroke-linejoin:round;stroke-miterlimit:10;stroke-dasharray:none;stroke-opacity:1"
             id="path26"
             inkscape:connector-curvature="0" /></g><g
           id="g28"
           transform="translate(6806.23,3937.6499)"><path
             d="M 0,0 C 1.26,-10 3.65,-20.01 3.57,-30 2.58,-173.77 0.81,-317.54 0.14,-461.31 c -0.62,-131.27 0.8,-262.55 -0.36,-393.81 -1.59,-177.53 -5.79,-355.04 -7,-532.58 -1.26,-183.76 0.21,-367.54 -0.41,-551.32 -0.67,-202.52 -3.04,-405.05 -3.45,-607.58 -0.62,-297.55 -0.17,-595.081 -0.17,-892.628 0,-8.77 0,-17.543 0,-30 -16.17,0 -28.71,0 -41.25,0 -386.31,0 -772.61,0 -1158.92,0 -153.77,0 -307.53,-0.172 -461.3,0.168 -25.01,0.051 -50.01,2.32 -75.01,3.582"
             style="fill:none;stroke:#231f20;stroke-width:20;stroke-linecap:round;stroke-linejoin:round;stroke-miterlimit:10;stroke-dasharray:none;stroke-opacity:1"
             id="path30"
             inkscape:connector-curvature="0" /></g><g
           id="g32"
           transform="translate(6498.6899,3948.8999)"><path
             d="m 0,0 c 7.5,-3.75 15.17,-11.01 22.47,-10.67 42.56,1.94 85.01,7.13 127.57,8.29 28.67,0.78 57.47,-3.84 86.25,-4.93 23.79,-0.91 47.63,-0.19 73.3,-0.19 3.73,460.05 7.42,916.35 11.14,1376.44 -209.44,0 -413.22,0 -624.52,0 0,-18.65 0,-37.45 0,-56.25"
             style="fill:none;stroke:#231f20;stroke-width:20;stroke-linecap:round;stroke-linejoin:round;stroke-miterlimit:10;stroke-dasharray:none;stroke-opacity:1"
             id="path34"
             inkscape:connector-curvature="0" /></g><g
           id="g36"
           transform="translate(1870.55,4503.98)"><path
             d="m 0,0 c -36.26,-61.26 -70.15,-124.09 -109.33,-183.41 -54.97,-83.19 -85.27,-177.53 -126.49,-266.87 -70.3,-152.33 -116.64,-313.68 -167.88,-472.79 -45.23,-140.43 -80.28,-284.23 -117.28,-427.21 -51.37,-198.42 -101.35,-397.22 -149.99,-596.33 -29.52,-120.77 -56.43,-242.22 -82.54,-363.78 -19.26,-89.64 -34.02,-180.25 -53.2,-269.9 -22.26,-104.08 -46.59,-207.73 -71.063,-311.32 -28.105,-118.93 -55.261,-238.14 -86.648,-356.19 -37.727,-141.89 -79.785,-282.598 -119.156,-424.051 -6.082,-21.859 -6,-45.41 -11.91,-67.328 -19.415,-72 -74.473,-123.738 -108.868,-187.379 -13.605,-25.192 -32.07,-47.742 -48.32,-71.5"
             style="fill:none;stroke:#231f20;stroke-width:20;stroke-linecap:round;stroke-linejoin:round;stroke-miterlimit:10;stroke-dasharray:none;stroke-opacity:1"
             id="path38"
             inkscape:connector-curvature="0" /></g><g
           id="g40"
           transform="translate(3111.97,5269.0898)"><path
             d="m 0,0 c 1.8,18.7 3.6,37.41 5.59,58.13 -826.95,0 -1652.07,0 -2484.685,0 0,-49.26 0.156,-100.58 -0.023,-151.9 -1.204,-336.29 -1.914,-672.59 -3.903,-1008.89 -1.64,-277.54 -5.105,-555.07 -7.234,-832.61 -1.695,-221.28 -2.637,-442.57 -3.824,-663.85 -1.313,-243.78 -2.457,-487.56 -3.786,-731.34 -1.167,-213.78 -2.089,-427.57 -3.835,-641.35 -2.063,-252.53 -5.059,-505.069 -7.051,-757.6 -0.145,-17.489 4.652,-35.008 7.152,-52.508"
             style="fill:none;stroke:#231f20;stroke-width:20;stroke-linecap:round;stroke-linejoin:round;stroke-miterlimit:10;stroke-dasharray:none;stroke-opacity:1"
             id="path42"
             inkscape:connector-curvature="0" /></g><g
           id="g44"
           transform="translate(3415.76,4282.7002)"><path
             d="m 0,0 c 93.77,-31.26 186.96,-64.37 281.51,-93.08 57.61,-17.49 117.29,-28.25 176.06,-41.93 86.25,-20.06 172.16,-41.76 258.87,-59.6 123.43,-25.4 247.12,-49.87 371.34,-70.98 80.63,-13.7 162.15,-23.76 243.71,-30.07 172.36,-13.34 344.9,-24.95 517.54,-33.75 114.86,-5.86 230,-6.85 345.02,-7.88 233.78,-2.11 467.57,-2.82 701.35,-3.82 11.63,-0.05 23.27,2.62 34.9,4.01 -0.16,4.04 -0.32,8.08 -0.48,12.11 -25.22,2.07 -50.42,5.5 -75.68,5.98 -156.26,2.93 -312.55,4.84 -468.81,7.86 -87.52,1.7 -175.07,3.63 -262.52,7.63 -141.31,6.47 -282.55,14.72 -423.82,22.23 -93.76,4.99 -187.52,9.93 -281.28,15.1 -10.04,0.54 -20.01,2.4 -30.01,3.65"
             style="fill:none;stroke:#231f20;stroke-width:20;stroke-linecap:round;stroke-linejoin:round;stroke-miterlimit:10;stroke-dasharray:none;stroke-opacity:1"
             id="path46"
             inkscape:connector-curvature="0" /></g><g
           id="g48"
           transform="translate(3730.8101,5321.5898)"><path
             d="m 0,0 c 118.76,0 237.53,0 356.3,0 270.04,0 540.07,0 810.11,0 212.53,0 425.07,0 637.58,0 216.28,0 432.57,0.03 648.85,-0.15 5,-0.01 9.99,-2.34 15,-3.6"
             style="fill:none;stroke:#231f20;stroke-width:20;stroke-linecap:round;stroke-linejoin:round;stroke-miterlimit:10;stroke-dasharray:none;stroke-opacity:1"
             id="path50"
             inkscape:connector-curvature="0" /></g><g
           id="g52"
           transform="translate(655.383,509.672)"><path
             d="M 0,0 C -7.418,-6.352 -14.84,-12.692 -26.692,-22.84 -2.883,-25.5 17.305,-29.602 37.504,-29.703 161.265,-30.301 285.039,-30 408.797,-30 c 272.54,0 545.08,0.449 817.62,-0.16 182.53,-0.41 365.05,-2.891 547.58,-3.442 205.02,-0.64 410.05,-0.148 615.08,-0.148 207.53,0 415.06,0 622.59,0 373.8,0 747.61,0 1121.41,0 47.5,0 95.01,0 142.52,0"
             style="fill:none;stroke:#231f20;stroke-width:20;stroke-linecap:round;stroke-linejoin:round;stroke-miterlimit:10;stroke-dasharray:none;stroke-opacity:1"
             id="path54"
             inkscape:connector-curvature="0" /></g><g
           id="g56"
           transform="translate(925.414,1308.54)"><path
             d="m 0,0 c 20.797,-5.57 13.527,-23.22 10.594,-33.57 -44.055,-155.3 -89.297,-310.251 -134.703,-465.15 -0.977,-3.32 -7.157,-5.109 -10.907,-7.609"
             style="fill:none;stroke:#231f20;stroke-width:20;stroke-linecap:round;stroke-linejoin:round;stroke-miterlimit:10;stroke-dasharray:none;stroke-opacity:1"
             id="path58"
             inkscape:connector-curvature="0" /></g><g
           id="g60"
           transform="translate(2661.9099,4642.75)"><path
             d="m 0,0 c 72.51,-35.01 145.38,-69.27 217.45,-105.18 111.58,-55.62 221.83,-113.97 334.18,-167.97 62.05,-29.83 127.21,-53.15 190.97,-79.4"
             style="fill:none;stroke:#231f20;stroke-width:20;stroke-linecap:round;stroke-linejoin:round;stroke-miterlimit:10;stroke-dasharray:none;stroke-opacity:1"
             id="path62"
             inkscape:connector-curvature="0" /></g><g
           id="g64"
           transform="translate(3066.96,4774.02)"><path
             d="m 0,0 c -32.55,-12.86 -60.13,-29.64 -55.9,-74.7 55.45,-26.14 106.32,-4.03 157.17,18.44"
             style="fill:none;stroke:#231f20;stroke-width:20;stroke-linecap:round;stroke-linejoin:round;stroke-miterlimit:10;stroke-dasharray:none;stroke-opacity:1"
             id="path66"
             inkscape:connector-curvature="0" /></g><g
           id="g68"
           transform="translate(749.141,693.449)"><path
             d="M 0,0 C -15.352,-65.32 -47.703,-122.308 -86.258,-176.277"
             style="fill:none;stroke:#231f20;stroke-width:20;stroke-linecap:round;stroke-linejoin:round;stroke-miterlimit:10;stroke-dasharray:none;stroke-opacity:1"
             id="path70"
             inkscape:connector-curvature="0" /></g><g
           id="g72"
           transform="translate(2013.0699,4582.7402)"><path
             d="m 0,0 c 51.26,46.26 102.76,92.24 153.65,138.89 22.03,20.19 47.4,19.24 75.12,19.47 65.93,0.53 131.43,3.53 195.11,-19.37 72.18,-25.96 144.95,-50.23 217.46,-75.23"
             style="fill:none;stroke:#231f20;stroke-width:20;stroke-linecap:round;stroke-linejoin:round;stroke-miterlimit:10;stroke-dasharray:none;stroke-opacity:1"
             id="path74"
             inkscape:connector-curvature="0" /></g><g
           id="g76"
           transform="translate(4795.96,4020.1599)"><path
             d="m 0,0 c -127.52,11.25 -255.07,22.2 -382.54,33.93 -42.61,3.91 -84.99,10.2 -127.58,14.4 -5.94,0.59 -12.46,-4.58 -18.71,-7.07"
             style="fill:none;stroke:#231f20;stroke-width:20;stroke-linecap:round;stroke-linejoin:round;stroke-miterlimit:10;stroke-dasharray:none;stroke-opacity:1"
             id="path78"
             inkscape:connector-curvature="0" /></g><g
           id="g80"
           transform="translate(2020.5699,4654)"><path
             d="M 0,0 C -46.26,-43.75 -92.51,-87.52 -138.77,-131.27"
             style="fill:none;stroke:#231f20;stroke-width:20;stroke-linecap:round;stroke-linejoin:round;stroke-miterlimit:10;stroke-dasharray:none;stroke-opacity:1"
             id="path82"
             inkscape:connector-curvature="0" /></g><g
           id="g84"
           transform="translate(2144.3401,4710.2598)"><path
             d="M 0,0 C -40.01,-16.26 -80.01,-32.5 -120.02,-48.76"
             style="fill:none;stroke:#231f20;stroke-width:20;stroke-linecap:round;stroke-linejoin:round;stroke-miterlimit:10;stroke-dasharray:none;stroke-opacity:1"
             id="path86"
             inkscape:connector-curvature="0" /></g><g
           id="g88"
           transform="translate(6348.6699,3960.1499)"><path
             d="M 0,0 C 97.51,-2.5 195.03,-5 292.54,-7.5"
             style="fill:none;stroke:#231f20;stroke-width:20;stroke-linecap:round;stroke-linejoin:round;stroke-miterlimit:10;stroke-dasharray:none;stroke-opacity:1"
             id="path90"
             inkscape:connector-curvature="0" /></g><g
           id="g92"
           transform="translate(2650.6499,4470.2202)"><path
             d="M 0,0 C -6.25,-35 -12.5,-70 -18.75,-105.01"
             style="fill:none;stroke:#231f20;stroke-width:20;stroke-linecap:round;stroke-linejoin:round;stroke-miterlimit:10;stroke-dasharray:none;stroke-opacity:1"
             id="path94"
             inkscape:connector-curvature="0" /></g><g
           id="g96"
           transform="translate(3727.0601,5269.0898)"><path
             d="m 0,0 c 0,17.59 0,35.18 0,49.66 -120.07,3.52 -236.31,7.01 -352.56,10.16 -7.46,0.2 -14.99,-2.31 -22.5,-3.56"
             style="fill:none;stroke:#231f20;stroke-width:20;stroke-linecap:round;stroke-linejoin:round;stroke-miterlimit:10;stroke-dasharray:none;stroke-opacity:1"
             id="path98"
             inkscape:connector-curvature="0" /></g><g
           id="g100"
           transform="translate(557.867,5355.3398)"><path
             d="m 0,0 c -11.222,-11.29 -22.437,-22.58 -33.656,-33.87 1.156,-3.71 2.316,-7.42 3.48,-11.13 18.809,0 37.618,0 56.43,0"
             style="fill:none;stroke:#231f20;stroke-width:20;stroke-linecap:round;stroke-linejoin:round;stroke-miterlimit:10;stroke-dasharray:none;stroke-opacity:1"
             id="path102"
             inkscape:connector-curvature="0" /></g><g
           id="g104"
           transform="translate(3284.49,5325.3501)"><path
             d="M 0,0 C -48.75,0 -97.51,0 -146.27,0"
             style="fill:none;stroke:#231f20;stroke-width:20;stroke-linecap:round;stroke-linejoin:round;stroke-miterlimit:10;stroke-dasharray:none;stroke-opacity:1"
             id="path106"
             inkscape:connector-curvature="0" /></g><g
           id="g108"
           transform="translate(3933.3301,4140.1802)"><path
             d="M 0,0 C -30.52,22.19 -37.2,23.52 -56.25,11.25"
             style="fill:none;stroke:#231f20;stroke-width:20;stroke-linecap:round;stroke-linejoin:round;stroke-miterlimit:10;stroke-dasharray:none;stroke-opacity:1"
             id="path110"
             inkscape:connector-curvature="0" /></g><g
           id="g112"
           transform="translate(617.875,1871.12)"><path
             d="M 0,0 C 18.75,0 37.508,0 56.258,0"
             style="fill:none;stroke:#231f20;stroke-width:20;stroke-linecap:round;stroke-linejoin:round;stroke-miterlimit:10;stroke-dasharray:none;stroke-opacity:1"
             id="path114"
             inkscape:connector-curvature="0" /></g><g
           id="g116"
           transform="translate(4934.73,535.93)"><path
             d="m 0,0 c 0,-20.078 0,-40.16 0,-64.481 17.18,1.711 31.09,3.082 45,4.473"
             style="fill:none;stroke:#231f20;stroke-width:20;stroke-linecap:round;stroke-linejoin:round;stroke-miterlimit:10;stroke-dasharray:none;stroke-opacity:1"
             id="path118"
             inkscape:connector-curvature="0" /></g><g
           id="g120"
           transform="translate(4319.6401,535.93)"><path
             d="M 0,0 C 0,-18.758 0,-37.508 0,-56.258"
             style="fill:none;stroke:#231f20;stroke-width:20;stroke-linecap:round;stroke-linejoin:round;stroke-miterlimit:10;stroke-dasharray:none;stroke-opacity:1"
             id="path122"
             inkscape:connector-curvature="0" /></g><g
           id="g124"
           transform="translate(674.133,2564.95)"><path
             d="M 0,0 C -17.508,0 -35.008,0 -52.508,0"
             style="fill:none;stroke:#231f20;stroke-width:20;stroke-linecap:round;stroke-linejoin:round;stroke-miterlimit:10;stroke-dasharray:none;stroke-opacity:1"
             id="path126"
             inkscape:connector-curvature="0" /></g><g
           id="g128"
           transform="translate(6172.3901,528.422)"><path
             d="M 0,0 C 0,-17.5 0,-35 0,-52.5"
             style="fill:none;stroke:#231f20;stroke-width:20;stroke-linecap:round;stroke-linejoin:round;stroke-miterlimit:10;stroke-dasharray:none;stroke-opacity:1"
             id="path130"
             inkscape:connector-curvature="0" /></g><g
           id="g132"
           transform="translate(5553.5601,528.422)"><path
             d="M 0,0 C 0,-17.5 0,-35 0,-52.5"
             style="fill:none;stroke:#231f20;stroke-width:20;stroke-linecap:round;stroke-linejoin:round;stroke-miterlimit:10;stroke-dasharray:none;stroke-opacity:1"
             id="path134"
             inkscape:connector-curvature="0" /></g><g
           id="g136"
           transform="translate(3089.47,535.93)"><path
             d="M 0,0 C -1.25,-17.5 -2.5,-35.008 -3.75,-52.508"
             style="fill:none;stroke:#231f20;stroke-width:20;stroke-linecap:round;stroke-linejoin:round;stroke-miterlimit:10;stroke-dasharray:none;stroke-opacity:1"
             id="path138"
             inkscape:connector-curvature="0" /></g><g
           id="g140"
           transform="translate(1851.8,535.93)"><path
             d="M 0,0 C 0,-17.5 0,-35.008 0,-52.508"
             style="fill:none;stroke:#231f20;stroke-width:20;stroke-linecap:round;stroke-linejoin:round;stroke-miterlimit:10;stroke-dasharray:none;stroke-opacity:1"
             id="path142"
             inkscape:connector-curvature="0" /></g><g
           id="g144"
           transform="translate(2470.6299,535.93)"><path
             d="M 0,0 C 0,-17.5 0,-35.008 0,-52.508"
             style="fill:none;stroke:#231f20;stroke-width:20;stroke-linecap:round;stroke-linejoin:round;stroke-miterlimit:10;stroke-dasharray:none;stroke-opacity:1"
             id="path146"
             inkscape:connector-curvature="0" /></g><g
           id="g148"
           transform="translate(2500.6299,5321.5898)"><path
             d="M 0,0 C -1.25,-17.5 -2.5,-35 -3.75,-52.5"
             style="fill:none;stroke:#231f20;stroke-width:20;stroke-linecap:round;stroke-linejoin:round;stroke-miterlimit:10;stroke-dasharray:none;stroke-opacity:1"
             id="path150"
             inkscape:connector-curvature="0" /></g><g
           id="g152"
           transform="translate(5576.0601,5314.0898)"><path
             d="M 0,0 C 1.25,-17.5 2.5,-35 3.75,-52.5"
             style="fill:none;stroke:#231f20;stroke-width:20;stroke-linecap:round;stroke-linejoin:round;stroke-miterlimit:10;stroke-dasharray:none;stroke-opacity:1"
             id="path154"
             inkscape:connector-curvature="0" /></g><g
           id="g156"
           transform="translate(6787.48,1162.27)"><path
             d="M 0,0 C -17.5,0 -35.01,0 -52.51,0"
             style="fill:none;stroke:#231f20;stroke-width:20;stroke-linecap:round;stroke-linejoin:round;stroke-miterlimit:10;stroke-dasharray:none;stroke-opacity:1"
             id="path158"
             inkscape:connector-curvature="0" /></g><g
           id="g160"
           transform="translate(3700.8,535.93)"><path
             d="M 0,0 C 0,-17.5 0,-35.008 0,-52.508"
             style="fill:none;stroke:#231f20;stroke-width:20;stroke-linecap:round;stroke-linejoin:round;stroke-miterlimit:10;stroke-dasharray:none;stroke-opacity:1"
             id="path162"
             inkscape:connector-curvature="0" /></g><g
           id="g164"
           transform="translate(6794.98,2549.95)"><path
             d="M 0,0 C -17.5,1.26 -35.01,2.5 -52.51,3.75"
             style="fill:none;stroke:#231f20;stroke-width:20;stroke-linecap:round;stroke-linejoin:round;stroke-miterlimit:10;stroke-dasharray:none;stroke-opacity:1"
             id="path166"
             inkscape:connector-curvature="0" /></g><g
           id="g168"
           transform="translate(6791.23,1856.11)"><path
             d="M 0,0 C -16.25,0 -32.5,0 -48.76,0"
             style="fill:none;stroke:#231f20;stroke-width:20;stroke-linecap:round;stroke-linejoin:round;stroke-miterlimit:10;stroke-dasharray:none;stroke-opacity:1"
             id="path170"
             inkscape:connector-curvature="0" /></g><g
           id="g172"
           transform="translate(674.133,3255.0601)"><path
             d="M 0,0 C -16.25,0 -32.508,0 -48.758,0"
             style="fill:none;stroke:#231f20;stroke-width:20;stroke-linecap:round;stroke-linejoin:round;stroke-miterlimit:10;stroke-dasharray:none;stroke-opacity:1"
             id="path174"
             inkscape:connector-curvature="0" /></g><g
           id="g176"
           transform="translate(617.875,1173.52)"><path
             d="M 0,0 C 16.25,0 32.508,0 48.758,0"
             style="fill:none;stroke:#231f20;stroke-width:20;stroke-linecap:round;stroke-linejoin:round;stroke-miterlimit:10;stroke-dasharray:none;stroke-opacity:1"
             id="path178"
             inkscape:connector-curvature="0" /></g><g
           id="g180"
           transform="translate(6798.73,3243.8)"><path
             d="M 0,0 C -16.25,0 -32.5,0 -48.75,0"
             style="fill:none;stroke:#231f20;stroke-width:20;stroke-linecap:round;stroke-linejoin:round;stroke-miterlimit:10;stroke-dasharray:none;stroke-opacity:1"
             id="path182"
             inkscape:connector-curvature="0" /></g><g
           id="g184"
           transform="translate(6806.23,4627.75)"><path
             d="M 0,0 C -16.25,0 -32.5,0 -48.75,0"
             style="fill:none;stroke:#231f20;stroke-width:20;stroke-linecap:round;stroke-linejoin:round;stroke-miterlimit:10;stroke-dasharray:none;stroke-opacity:1"
             id="path186"
             inkscape:connector-curvature="0" /></g><g
           id="g188"
           transform="translate(1229.21,543.43)"><path
             d="M 0,0 C 0,-20.008 0,-40.008 0,-60.008"
             style="fill:none;stroke:#231f20;stroke-width:20;stroke-linecap:round;stroke-linejoin:round;stroke-miterlimit:10;stroke-dasharray:none;stroke-opacity:1"
             id="path190"
             inkscape:connector-curvature="0" /></g><g
           id="g192"
           transform="translate(1259.21,5321.5898)"><path
             d="M 0,0 C 0,-15 0,-30 0,-45"
             style="fill:none;stroke:#231f20;stroke-width:20;stroke-linecap:round;stroke-linejoin:round;stroke-miterlimit:10;stroke-dasharray:none;stroke-opacity:1"
             id="path194"
             inkscape:connector-curvature="0" /></g><g
           id="g196"
           transform="translate(636.625,4639)"><path
             d="M 0,0 C 15.008,0 30.008,0 45.008,0"
             style="fill:none;stroke:#231f20;stroke-width:20;stroke-linecap:round;stroke-linejoin:round;stroke-miterlimit:10;stroke-dasharray:none;stroke-opacity:1"
             id="path198"
             inkscape:connector-curvature="0" /></g><g
           id="g200"
           transform="translate(4994.7402,475.922)"><path
             d="M 0,0 C 15,-1.262 30,-2.5 45,-3.75"
             style="fill:none;stroke:#231f20;stroke-width:20;stroke-linecap:round;stroke-linejoin:round;stroke-miterlimit:10;stroke-dasharray:none;stroke-opacity:1"
             id="path202"
             inkscape:connector-curvature="0" /></g><g
           id="g204"
           transform="translate(1881.8,5321.5898)"><path
             d="M 0,0 C 0,-15 0,-30 0,-45"
             style="fill:none;stroke:#231f20;stroke-width:20;stroke-linecap:round;stroke-linejoin:round;stroke-miterlimit:10;stroke-dasharray:none;stroke-opacity:1"
             id="path206"
             inkscape:connector-curvature="0" /></g><g
           id="g208"
           transform="translate(4342.1401,5314.0898)"><path
             d="M 0,0 C 0,-15 0,-30 0,-45"
             style="fill:none;stroke:#231f20;stroke-width:20;stroke-linecap:round;stroke-linejoin:round;stroke-miterlimit:10;stroke-dasharray:none;stroke-opacity:1"
             id="path210"
             inkscape:connector-curvature="0" /></g><g
           id="g212"
           transform="translate(4960.98,5314.0898)"><path
             d="M 0,0 C -1.25,-15 -2.5,-30 -3.75,-45"
             style="fill:none;stroke:#231f20;stroke-width:20;stroke-linecap:round;stroke-linejoin:round;stroke-miterlimit:10;stroke-dasharray:none;stroke-opacity:1"
             id="path214"
             inkscape:connector-curvature="0" /></g><g
           id="g216"
           transform="translate(3299.5,5329.1001)"><path
             d="M 0,0 C 11.25,-1.26 22.5,-2.5 33.75,-3.75"
             style="fill:none;stroke:#231f20;stroke-width:20;stroke-linecap:round;stroke-linejoin:round;stroke-miterlimit:10;stroke-dasharray:none;stroke-opacity:1"
             id="path218"
             inkscape:connector-curvature="0" /></g><g
           id="g220"
           transform="translate(4267.1299,4072.6699)"><path
             d="M 0,0 C -11.25,0 -22.5,0 -33.75,0"
             style="fill:none;stroke:#231f20;stroke-width:20;stroke-linecap:round;stroke-linejoin:round;stroke-miterlimit:10;stroke-dasharray:none;stroke-opacity:1"
             id="path222"
             inkscape:connector-curvature="0" /></g><g
           id="g224"
           transform="translate(6352.4199,3945.1499)"><path
             d="M 0,0 C 46.26,0 92.51,0 138.77,0"
             style="fill:none;stroke:#231f20;stroke-width:20;stroke-linecap:round;stroke-linejoin:round;stroke-miterlimit:10;stroke-dasharray:none;stroke-opacity:1"
             id="path226"
             inkscape:connector-curvature="0" /></g><g
           id="g228"
           transform="translate(632.875,3948.8999)"><path
             d="M 0,0 C 16.25,0 32.508,0 48.758,0"
             style="fill:none;stroke:#231f20;stroke-width:20;stroke-linecap:round;stroke-linejoin:round;stroke-miterlimit:10;stroke-dasharray:none;stroke-opacity:1"
             id="path230"
             inkscape:connector-curvature="0" /></g></g></g><text
       transform="matrix(1,0,0,-1,32.96,112.246)"
       style="font-variant:normal;font-weight:normal;font-size:18px;font-family:MyriadPro;-inkscape-font-specification:MyriadPro-Regular;writing-mode:lr-tb;fill:#100f0d;fill-opacity:1;fill-rule:nonzero;stroke:none"
       id="text248"><tspan
         x="0 9.2340002 12.96"
         y="0"
         sodipodi:role="line"
         id="tspan232">0.2</tspan><tspan
         x="0 9.2340002 12.96"
         y="-70.096001"
         sodipodi:role="line"
         id="tspan234">0.4</tspan><tspan
         x="0 9.2340002 12.96"
         y="-137.882"
         sodipodi:role="line"
         id="tspan236">0.6</tspan><tspan
         x="1.571 10.805 14.531"
         y="-207.42599"
         sodipodi:role="line"
         id="tspan238">0.8</tspan><tspan
         x="1 10.234 13.96"
         y="-278.10001"
         sodipodi:role="line"
         id="tspan240">1.0</tspan><tspan
         x="1 10.234 13.96"
         y="-347.40399"
         sodipodi:role="line"
         id="tspan242">1.2</tspan><tspan
         x="135.15601 144.39 148.116"
         y="82.097"
         sodipodi:role="line"
         id="tspan244">0.2</tspan><tspan
         x="262.67099 271.905 275.63101"
         y="81.238998"
         sodipodi:role="line"
         id="tspan246">0.4</tspan></text>
<text
       transform="matrix(-0.0175,0.9998,0.9998,0.0175,16.9109,248.144)"
       style="font-variant:normal;font-weight:normal;font-size:17.99915695px;font-family:MyriadPro;-inkscape-font-specification:MyriadPro-Regular;writing-mode:lr-tb;fill:#100f0d;fill-opacity:1;fill-rule:nonzero;stroke:none"
       id="text252"><tspan
         x="0 8.8198929 14.669726 23.687304 33.928825 37.744644 43.449963 52.467541 59.595207 69.836731 79.718262 89.707794 96.835464"
         y="0"
         sodipodi:role="line"
         id="tspan250">Step response</tspan></text>
<text
       transform="matrix(1,0,0,-1,420.83,32.1492)"
       style="font-variant:normal;font-weight:normal;font-size:18px;font-family:MyriadPro;-inkscape-font-specification:MyriadPro-Regular;writing-mode:lr-tb;fill:#100f0d;fill-opacity:1;fill-rule:nonzero;stroke:none"
       id="text262"><tspan
         x="0 9.2340002 12.96"
         y="0"
         sodipodi:role="line"
         id="tspan254">0.6</tspan><tspan
         x="124.869 134.103 137.82899"
         y="2"
         sodipodi:role="line"
         id="tspan256">0.8</tspan><tspan
         x="-312.58401 -303.35001 -299.62399 -186.72301 -177.489 -173.763 -62.847 -53.612999 -49.887001 62.353001 71.586998 75.313004"
         y="1"
         sodipodi:role="line"
         id="tspan258">0.10.30.50.7</tspan><tspan
         x="187.552 196.786 200.51199"
         y="1.5700001"
         sodipodi:role="line"
         id="tspan260">0.9</tspan></text>
<g
       id="g264"
       transform="scale(0.1)"><g
         id="g266"
         clip-path="url(#clipPath270)"><path
           d="m 2996.74,4652.87 h 232.469 v 150 H 2996.74 Z"
           style="fill:#ffffff;fill-opacity:1;fill-rule:nonzero;stroke:none"
           id="path272"
           inkscape:connector-curvature="0" /><path
           d="m 2525.31,4310.48 h 200 v 163.816 h -200 z"
           style="fill:#ffffff;fill-opacity:1;fill-rule:nonzero;stroke:none"
           id="path274"
           inkscape:connector-curvature="0" /></g></g><text
       transform="matrix(1,0,0,-1,350.21,5.078)"
       style="font-variant:normal;font-weight:normal;font-size:18px;font-family:MyriadPro;-inkscape-font-specification:MyriadPro-Regular;writing-mode:lr-tb;fill:#100f0d;fill-opacity:1;fill-rule:nonzero;stroke:none"
       id="text282"><tspan
         x="0 8.7299995 12.942 27.954 36.756199 40.482197 44.298199"
         y="0"
         sodipodi:role="line"
         id="tspan276">Time, t</tspan><tspan
         x="-37.226002"
         y="-451.38101"
         id="tspan278">C</tspan><tspan
         x="-88.814003"
         y="-436.38101"
         id="tspan280">D</tspan></text>
</g></svg>