<?xml version="1.0" encoding="UTF-8" standalone="no"?>
<!-- Created with Inkscape (http://www.inkscape.org/) -->

<svg
   xmlns:dc="http://purl.org/dc/elements/1.1/"
   xmlns:cc="http://creativecommons.org/ns#"
   xmlns:rdf="http://www.w3.org/1999/02/22-rdf-syntax-ns#"
   xmlns:svg="http://www.w3.org/2000/svg"
   xmlns="http://www.w3.org/2000/svg"
   xmlns:sodipodi="http://sodipodi.sourceforge.net/DTD/sodipodi-0.dtd"
   xmlns:inkscape="http://www.inkscape.org/namespaces/inkscape"
   version="1.1"
   id="svg2"
   xml:space="preserve"
   width="297.26309"
   height="247.92986"
   viewBox="0 0 297.2631 247.92985"
   sodipodi:docname="6-poles-area.svg"
   inkscape:version="0.92.0 r15299"><metadata
     id="metadata8"><rdf:RDF><cc:Work
         rdf:about=""><dc:format>image/svg+xml</dc:format><dc:type
           rdf:resource="http://purl.org/dc/dcmitype/StillImage" /><dc:title></dc:title></cc:Work></rdf:RDF></metadata><defs
     id="defs6"><marker
       inkscape:stockid="Arrow1Mend"
       orient="auto"
       refY="0"
       refX="0"
       id="marker5322"
       style="overflow:visible"
       inkscape:isstock="true"><path
         id="path5320"
         d="M 0,0 5,-5 -12.5,0 5,5 Z"
         style="fill:#0066ff;fill-opacity:1;fill-rule:evenodd;stroke:#0066ff;stroke-width:1.00000003pt;stroke-opacity:1"
         transform="matrix(-0.4,0,0,-0.4,-4,0)"
         inkscape:connector-curvature="0" /></marker><marker
       inkscape:stockid="Arrow1Mstart"
       orient="auto"
       refY="0"
       refX="0"
       id="Arrow1Mstart"
       style="overflow:visible"
       inkscape:isstock="true"><path
         id="path4540"
         d="M 0,0 5,-5 -12.5,0 5,5 Z"
         style="fill:#000000;fill-opacity:1;fill-rule:evenodd;stroke:#000000;stroke-width:1.00000003pt;stroke-opacity:1"
         transform="matrix(0.4,0,0,0.4,4,0)"
         inkscape:connector-curvature="0" /></marker><marker
       inkscape:stockid="Arrow1Lend"
       orient="auto"
       refY="0"
       refX="0"
       id="Arrow1Lend"
       style="overflow:visible"
       inkscape:isstock="true"><path
         id="path4537"
         d="M 0,0 5,-5 -12.5,0 5,5 Z"
         style="fill:#211c1d;fill-opacity:1;fill-rule:evenodd;stroke:#211c1d;stroke-width:1.00000003pt;stroke-opacity:1"
         transform="matrix(-0.8,0,0,-0.8,-10,0)"
         inkscape:connector-curvature="0" /></marker><marker
       inkscape:isstock="true"
       style="overflow:visible"
       id="marker4818"
       refX="0"
       refY="0"
       orient="auto"
       inkscape:stockid="Arrow1Mend"
       inkscape:collect="always"><path
         transform="matrix(-0.4,0,0,-0.4,-4,0)"
         style="fill:#000000;fill-opacity:1;fill-rule:evenodd;stroke:#000000;stroke-width:1.00000003pt;stroke-opacity:1"
         d="M 0,0 5,-5 -12.5,0 5,5 Z"
         id="path4816"
         inkscape:connector-curvature="0" /></marker><clipPath
       clipPathUnits="userSpaceOnUse"
       id="clipPath18"><path
         d="M 0,1840.27 V 0 h 2075 v 1840.27 z"
         id="path16"
         inkscape:connector-curvature="0" /></clipPath><clipPath
       clipPathUnits="userSpaceOnUse"
       id="clipPath52"><path
         d="M 0,1840.27 V 0 h 2075 v 1840.27 z"
         id="path50"
         inkscape:connector-curvature="0" /></clipPath><clipPath
       clipPathUnits="userSpaceOnUse"
       id="clipPath72"><path
         d="M 0,1840.27 V 0 h 2075 v 1840.27 z"
         id="path70"
         inkscape:connector-curvature="0" /></clipPath><clipPath
       clipPathUnits="userSpaceOnUse"
       id="clipPath72-3"><path
         d="M 0,1840.27 V 0 h 2075 v 1840.27 z"
         id="path70-9"
         inkscape:connector-curvature="0" /></clipPath><clipPath
       clipPathUnits="userSpaceOnUse"
       id="clipPath52-3"><path
         d="M 0,1840.27 V 0 h 2075 v 1840.27 z"
         id="path50-0"
         inkscape:connector-curvature="0" /></clipPath><marker
       inkscape:isstock="true"
       style="overflow:visible"
       id="marker4818-0"
       refX="0"
       refY="0"
       orient="auto"
       inkscape:stockid="Arrow1Mend"><path
         inkscape:connector-curvature="0"
         transform="matrix(-0.4,0,0,-0.4,-4,0)"
         style="fill:#211c1d;fill-opacity:1;fill-rule:evenodd;stroke:#211c1d;stroke-width:1.00000003pt;stroke-opacity:1"
         d="M 0,0 5,-5 -12.5,0 5,5 Z"
         id="path4816-4" /></marker><marker
       inkscape:stockid="Arrow1Mstart"
       orient="auto"
       refY="0"
       refX="0"
       id="Arrow1Mstart-4"
       style="overflow:visible"
       inkscape:isstock="true"><path
         inkscape:connector-curvature="0"
         id="path4540-2"
         d="M 0,0 5,-5 -12.5,0 5,5 Z"
         style="fill:#211c1d;fill-opacity:1;fill-rule:evenodd;stroke:#211c1d;stroke-width:1.00000003pt;stroke-opacity:1"
         transform="matrix(0.4,0,0,0.4,4,0)" /></marker><marker
       inkscape:isstock="true"
       style="overflow:visible"
       id="marker4818-5"
       refX="0"
       refY="0"
       orient="auto"
       inkscape:stockid="Arrow1Mend"><path
         inkscape:connector-curvature="0"
         transform="matrix(-0.4,0,0,-0.4,-4,0)"
         style="fill:#211c1d;fill-opacity:1;fill-rule:evenodd;stroke:#211c1d;stroke-width:1.00000003pt;stroke-opacity:1"
         d="M 0,0 5,-5 -12.5,0 5,5 Z"
         id="path4816-2" /></marker><clipPath
       clipPathUnits="userSpaceOnUse"
       id="clipPath38"><path
         d="M 0,1790.05 V 0 h 2173.41 v 1790.05 z"
         id="path36"
         inkscape:connector-curvature="0" /></clipPath><clipPath
       clipPathUnits="userSpaceOnUse"
       id="clipPath18-8"><path
         d="M 0,1790.05 V 0 h 2173.41 v 1790.05 z"
         id="path16-3"
         inkscape:connector-curvature="0" /></clipPath><clipPath
       clipPathUnits="userSpaceOnUse"
       id="clipPath18-6"><path
         d="M 0,1790.05 V 0 h 2173.41 v 1790.05 z"
         id="path16-39"
         inkscape:connector-curvature="0" /></clipPath><marker
       inkscape:stockid="Arrow1Mend"
       orient="auto"
       refY="0"
       refX="0"
       id="marker5322-6"
       style="overflow:visible"
       inkscape:isstock="true"><path
         id="path5320-3"
         d="M 0,0 5,-5 -12.5,0 5,5 Z"
         style="fill:#ff0000;fill-opacity:1;fill-rule:evenodd;stroke:#ff0000;stroke-width:1.00000003pt;stroke-opacity:1"
         transform="matrix(-0.4,0,0,-0.4,-4,0)"
         inkscape:connector-curvature="0" /></marker></defs><sodipodi:namedview
     pagecolor="#ffffff"
     bordercolor="#666666"
     borderopacity="1"
     objecttolerance="10"
     gridtolerance="10"
     guidetolerance="10"
     inkscape:pageopacity="0"
     inkscape:pageshadow="2"
     inkscape:window-width="1600"
     inkscape:window-height="847"
     id="namedview4"
     showgrid="false"
     fit-margin-top="15"
     fit-margin-left="10"
     fit-margin-right="15"
     fit-margin-bottom="10"
     inkscape:zoom="1.0595995"
     inkscape:cx="-106.73514"
     inkscape:cy="230.14917"
     inkscape:window-x="-8"
     inkscape:window-y="-8"
     inkscape:window-maximized="1"
     inkscape:current-layer="g10"
     showguides="false"
     inkscape:guide-bbox="true"
     inkscape:snap-bbox="true"
     inkscape:snap-bbox-midpoints="true"
     inkscape:bbox-nodes="false"
     inkscape:bbox-paths="false"
     inkscape:snap-intersection-paths="false"
     inkscape:object-nodes="true"
     inkscape:snap-object-midpoints="false"
     inkscape:snap-center="true"><sodipodi:guide
       position="75.850819,-190.5187"
       orientation="1,0"
       id="guide5141"
       inkscape:locked="false" /><sodipodi:guide
       position="26.779661,177.37712"
       orientation="1,0"
       id="guide5189"
       inkscape:locked="false" /></sodipodi:namedview><g
     id="g10"
     inkscape:groupmode="layer"
     inkscape:label="A9Rnbqygb_98ww1j_7ew"
     transform="matrix(1.3333333,0,0,-1.3333333,10,237.93145)"><path
       style="fill:#ffaaaa;fill-opacity:1;stroke:none;stroke-width:1.125;stroke-linecap:butt;stroke-linejoin:miter;stroke-miterlimit:4;stroke-dasharray:none;stroke-opacity:1"
       d="M 71.538827,141.50437 H 38.212706 l 6.537451,-10.76963 0.02804,-12.57885 C 32.871934,108.35181 25.365183,93.25388 25.365183,76.33985 c 0,-16.925738 7.54812,-32.02353 19.440241,-41.933911 l -0.0995,-12.264683 -6.493212,-10.493827 h 32.264393"
       id="path4646-3"
       inkscape:connector-curvature="0"
       sodipodi:nodetypes="cccsccc" /><path
       style="fill:#ffaaaa;fill-opacity:0.73023254;stroke:none;stroke-width:0.75px;stroke-linecap:butt;stroke-linejoin:miter;stroke-opacity:1;paint-order:markers stroke fill"
       d="M 38.179859,141.40709 78.159673,76.479354 38.179859,11.550148 H 144.96534 v 64.929206 64.927736 z"
       id="path5642-6"
       inkscape:connector-curvature="0"
       sodipodi:nodetypes="ccccccc" /><path
       style="fill:#ffaaaa;fill-opacity:1;stroke:none;stroke-width:1px;stroke-linecap:butt;stroke-linejoin:miter;stroke-opacity:1;paint-order:markers stroke fill"
       d="M 69.607481,49.388672 V 222.53125 H 203.28711 V 135.95898 49.388672 Z"
       transform="matrix(0.75000002,0,0,-0.75000002,-7.5000002,178.44859)"
       id="path5642"
       inkscape:connector-curvature="0"
       sodipodi:nodetypes="cccccc" /><path
       style="fill:none;stroke:#ff8181;stroke-width:1.0500001;stroke-linecap:butt;stroke-linejoin:miter;stroke-miterlimit:4;stroke-dasharray:none;stroke-opacity:0.98823529;stroke-dashoffset:0"
       d="m 44.705608,141.40709 0.0234,-10.65336 L 78.1594,76.4796 44.640531,22.104022 l 0,-10.491831"
       id="path5241"
       inkscape:connector-curvature="0"
       sodipodi:nodetypes="cccc" /><path
       sodipodi:nodetypes="cc"
       inkscape:connector-curvature="0"
       id="path26-6"
       style="fill:none;fill-opacity:0.8287037;stroke:#ff8181;stroke-width:1.12500003;stroke-linecap:butt;stroke-linejoin:round;stroke-miterlimit:4;stroke-dasharray:none;stroke-dashoffset:0;stroke-opacity:0.98823529"
       d="m 78.493348,130.24267 c -12.909032,0 -24.603016,-4.52988 -33.715151,-12.08678" /><path
       sodipodi:nodetypes="cc"
       inkscape:connector-curvature="0"
       id="path26-7"
       style="fill:none;fill-opacity:0.8287037;stroke:#ff7878;stroke-width:1.125;stroke-linecap:butt;stroke-linejoin:round;stroke-miterlimit:4;stroke-dasharray:none;stroke-dashoffset:0;stroke-opacity:0.83137256"
       d="m 44.772577,34.308664 c 9.097724,-7.544468 20.772627,-12.06609 33.669881,-12.06609" /><g
       id="g28"
       transform="matrix(0.1,0,0,0.1,78.1594,152.958)"
       style="stroke-width:7.5;stroke-miterlimit:4;stroke-dasharray:none;stroke:#000000"><path
         d="M 0,0 V -1529.568"
         style="fill:none;stroke:#000000;stroke-width:11.25;stroke-linecap:butt;stroke-linejoin:miter;stroke-miterlimit:4;stroke-dasharray:none;stroke-opacity:1;marker-start:url(#Arrow1Mstart)"
         id="path30"
         inkscape:connector-curvature="0" /></g><path
       style="fill:#ff8181;stroke:#ff8181;stroke-width:1.05000003;stroke-linecap:butt;stroke-linejoin:miter;stroke-opacity:1;fill-opacity:1;stroke-miterlimit:4;stroke-dasharray:none"
       d="M 44.778197,118.15589 V 34.439211"
       id="path5303"
       inkscape:connector-curvature="0" /><g
       id="g32"
       transform="matrix(0.1,0,0,0.1,0,76.4789)"
       style="stroke-width:7.5;stroke-miterlimit:4;stroke-dasharray:none;stroke:#000000"><path
         d="M 0,0 H 1580"
         style="fill:none;stroke:#000000;stroke-width:11.25;stroke-linecap:butt;stroke-linejoin:miter;stroke-miterlimit:4;stroke-dasharray:none;stroke-opacity:1;marker-end:url(#marker4818)"
         id="path34"
         inkscape:connector-curvature="0" /></g><text
       xml:space="preserve"
       style="font-style:normal;font-weight:normal;font-size:30px;line-height:18.75px;font-family:sans-serif;letter-spacing:0px;word-spacing:0px;fill:#000000;fill-opacity:1;stroke:none;stroke-width:0.75"
       x="82.063423"
       y="-150.69859"
       id="text4972"
       transform="scale(1,-1)"><tspan
         sodipodi:role="line"
         id="tspan4970"
         x="82.063423"
         y="-150.69859"
         style="font-style:italic;font-variant:normal;font-weight:normal;font-stretch:normal;font-size:22px;font-family:'CMU Serif';-inkscape-font-specification:'CMU Serif Italic';stroke-width:0.75">Im(s)</tspan></text>
<text
       xml:space="preserve"
       style="font-style:normal;font-weight:normal;font-size:30px;line-height:18.75px;font-family:sans-serif;letter-spacing:0px;word-spacing:0px;fill:#000000;fill-opacity:1;stroke:none;stroke-width:0.75"
       x="152.86754"
       y="-82.603157"
       id="text4972-1"
       transform="scale(1,-1)"><tspan
         sodipodi:role="line"
         id="tspan4970-5"
         x="152.86754"
         y="-82.603157"
         style="font-style:italic;font-variant:normal;font-weight:normal;font-stretch:normal;font-size:22px;font-family:'CMU Serif';-inkscape-font-specification:'CMU Serif Italic';stroke-width:0.75">Re(s)</tspan></text>
<g
       transform="matrix(1,0,0,-1,-28.794417,-66.089818)"
       id="g5164-7-5"
       style="fill:#ff2a2a;fill-opacity:1"><path
         inkscape:connector-curvature="0"
         style="color:#000000;font-style:normal;font-variant:normal;font-weight:normal;font-stretch:normal;font-size:medium;line-height:normal;font-family:sans-serif;font-variant-ligatures:normal;font-variant-position:normal;font-variant-caps:normal;font-variant-numeric:normal;font-variant-alternates:normal;font-feature-settings:normal;text-indent:0;text-align:start;text-decoration:none;text-decoration-line:none;text-decoration-style:solid;text-decoration-color:#000000;letter-spacing:normal;word-spacing:normal;text-transform:none;writing-mode:lr-tb;direction:ltr;text-orientation:mixed;dominant-baseline:auto;baseline-shift:baseline;text-anchor:start;white-space:normal;shape-padding:0;clip-rule:nonzero;display:inline;overflow:visible;visibility:visible;opacity:1;isolation:auto;mix-blend-mode:normal;color-interpolation:sRGB;color-interpolation-filters:linearRGB;solid-color:#000000;solid-opacity:1;vector-effect:none;fill:#0000ff;fill-opacity:1;fill-rule:nonzero;stroke:none;stroke-width:1.5;stroke-linecap:round;stroke-linejoin:miter;stroke-miterlimit:4;stroke-dasharray:none;stroke-dashoffset:0;stroke-opacity:1;color-rendering:auto;image-rendering:auto;shape-rendering:auto;text-rendering:auto;enable-background:accumulate"
         d="m 58.892578,367.05273 a 0.75130094,0.75130094 0 0 0 -0.564453,1.28321 l 6.460937,6.46094 -6.460937,6.46093 a 0.75007498,0.75007498 0 0 0 0.523437,1.28516 0.75007498,0.75007498 0 0 0 0.539063,-0.22656 l 6.460937,-6.45899 6.460938,6.45899 a 0.75007498,0.75007498 0 0 0 0.515625,0.22656 0.75007498,0.75007498 0 0 0 0.544922,-1.28516 l -6.460938,-6.46093 6.460938,-6.46094 a 0.75061078,0.75061078 0 0 0 -1.060547,-1.0625 l -6.460938,6.46094 -6.460937,-6.46094 a 0.75130094,0.75130094 0 0 0 -0.498047,-0.22071 z"
         transform="matrix(0.75000002,0,0,-0.75000002,0,182.17338)"
         id="path5145-0-6" /></g><g
       transform="translate(-28.794417,219.04761)"
       id="g5164-7-5-9"
       style="fill:#ff2a2a;fill-opacity:1"><path
         inkscape:connector-curvature="0"
         style="color:#000000;font-style:normal;font-variant:normal;font-weight:normal;font-stretch:normal;font-size:medium;line-height:normal;font-family:sans-serif;font-variant-ligatures:normal;font-variant-position:normal;font-variant-caps:normal;font-variant-numeric:normal;font-variant-alternates:normal;font-feature-settings:normal;text-indent:0;text-align:start;text-decoration:none;text-decoration-line:none;text-decoration-style:solid;text-decoration-color:#000000;letter-spacing:normal;word-spacing:normal;text-transform:none;writing-mode:lr-tb;direction:ltr;text-orientation:mixed;dominant-baseline:auto;baseline-shift:baseline;text-anchor:start;white-space:normal;shape-padding:0;clip-rule:nonzero;display:inline;overflow:visible;visibility:visible;opacity:1;isolation:auto;mix-blend-mode:normal;color-interpolation:sRGB;color-interpolation-filters:linearRGB;solid-color:#000000;solid-opacity:1;vector-effect:none;fill:#0000ff;fill-opacity:1;fill-rule:nonzero;stroke:none;stroke-width:1.5;stroke-linecap:round;stroke-linejoin:miter;stroke-miterlimit:4;stroke-dasharray:none;stroke-dashoffset:0;stroke-opacity:1;color-rendering:auto;image-rendering:auto;shape-rendering:auto;text-rendering:auto;enable-background:accumulate"
         d="m 58.892578,367.05273 a 0.75130094,0.75130094 0 0 0 -0.564453,1.28321 l 6.460937,6.46094 -6.460937,6.46093 a 0.75007498,0.75007498 0 0 0 0.523437,1.28516 0.75007498,0.75007498 0 0 0 0.539063,-0.22656 l 6.460937,-6.45899 6.460938,6.45899 a 0.75007498,0.75007498 0 0 0 0.515625,0.22656 0.75007498,0.75007498 0 0 0 0.544922,-1.28516 l -6.460938,-6.46093 6.460938,-6.46094 a 0.75061078,0.75061078 0 0 0 -1.060547,-1.0625 l -6.460938,6.46094 -6.460937,-6.46094 a 0.75130094,0.75130094 0 0 0 -0.498047,-0.22071 z"
         transform="matrix(0.75000002,0,0,-0.75000002,0,182.17338)"
         id="path5145-0-6-1" /></g><path
       style="fill:none;stroke:#ff0000;stroke-width:1.50000004;stroke-linecap:round;stroke-linejoin:round;stroke-miterlimit:4;stroke-dasharray:none;stroke-opacity:1"
       d="m 38.179859,141.40709 6.537451,-10.76963 0.02804,-12.57885 C 32.839087,108.25453 25.332336,93.156602 25.332336,76.242572 c 0,-16.92574 7.54812,-32.023529 19.440241,-41.933908 L 44.67308,22.043981 38.179868,11.550148"
       id="path4646"
       inkscape:connector-curvature="0"
       sodipodi:nodetypes="cccsccc" /></g></svg>