<?xml version="1.0" encoding="UTF-8" standalone="no"?>
<!-- Created with Inkscape (http://www.inkscape.org/) -->

<svg
   xmlns:dc="http://purl.org/dc/elements/1.1/"
   xmlns:cc="http://creativecommons.org/ns#"
   xmlns:rdf="http://www.w3.org/1999/02/22-rdf-syntax-ns#"
   xmlns:svg="http://www.w3.org/2000/svg"
   xmlns="http://www.w3.org/2000/svg"
   xmlns:sodipodi="http://sodipodi.sourceforge.net/DTD/sodipodi-0.dtd"
   xmlns:inkscape="http://www.inkscape.org/namespaces/inkscape"
   version="1.1"
   id="svg2"
   xml:space="preserve"
   width="798.24933"
   height="301.15692"
   viewBox="0 0 798.24933 301.15692"
   sodipodi:docname="discrete-system.svg"
   inkscape:version="0.92.0 r15299"><metadata
     id="metadata8"><rdf:RDF><cc:Work
         rdf:about=""><dc:format>image/svg+xml</dc:format><dc:type
           rdf:resource="http://purl.org/dc/dcmitype/StillImage" /><dc:title></dc:title></cc:Work></rdf:RDF></metadata><defs
     id="defs6"><clipPath
       clipPathUnits="userSpaceOnUse"
       id="clipPath18"><path
         d="M 0,2301.89 V 0 h 6005.84 v 2301.89 z"
         id="path16"
         inkscape:connector-curvature="0" /></clipPath><clipPath
       clipPathUnits="userSpaceOnUse"
       id="clipPath80"><path
         d="M 0,2301.89 V 0 h 6005.84 v 2301.89 z"
         id="path78"
         inkscape:connector-curvature="0" /></clipPath><clipPath
       clipPathUnits="userSpaceOnUse"
       id="clipPath96"><path
         d="M 0,2301.89 V 0 h 6005.84 v 2301.89 z"
         id="path94"
         inkscape:connector-curvature="0" /></clipPath><clipPath
       clipPathUnits="userSpaceOnUse"
       id="clipPath160"><path
         d="M 0,2301.89 V 0 h 6005.84 v 2301.89 z"
         id="path158"
         inkscape:connector-curvature="0" /></clipPath><clipPath
       clipPathUnits="userSpaceOnUse"
       id="clipPath180"><path
         d="M 0,2301.89 V 0 h 6005.84 v 2301.89 z"
         id="path178"
         inkscape:connector-curvature="0" /></clipPath><clipPath
       clipPathUnits="userSpaceOnUse"
       id="clipPath204"><path
         d="M 0,2301.89 V 0 h 6005.84 v 2301.89 z"
         id="path202"
         inkscape:connector-curvature="0" /></clipPath><clipPath
       clipPathUnits="userSpaceOnUse"
       id="clipPath228"><path
         d="M 0,2301.89 V 0 h 6005.84 v 2301.89 z"
         id="path226"
         inkscape:connector-curvature="0" /></clipPath></defs><sodipodi:namedview
     pagecolor="#ffffff"
     bordercolor="#666666"
     borderopacity="1"
     objecttolerance="10"
     gridtolerance="10"
     guidetolerance="10"
     inkscape:pageopacity="0"
     inkscape:pageshadow="2"
     inkscape:window-width="640"
     inkscape:window-height="480"
     id="namedview4"
     showgrid="false"
     fit-margin-top="0"
     fit-margin-left="0"
     fit-margin-right="0"
     fit-margin-bottom="0"
     inkscape:zoom="0.22348485"
     inkscape:cx="327.16562"
     inkscape:cy="524.40081"
     inkscape:window-x="0"
     inkscape:window-y="0"
     inkscape:window-maximized="0"
     inkscape:current-layer="g10" /><g
     id="g10"
     inkscape:groupmode="layer"
     inkscape:label="A9R2mtadv_tjakc9_c14"
     transform="matrix(1.3333333,0,0,-1.3333333,-2.5292948,304.7561)"><g
       id="g12"
       transform="scale(0.1)"><g
         id="g14"
         clip-path="url(#clipPath18)"><g
           id="g20"
           transform="translate(1444.14,1803.12)"><path
             d="m 0,0 c 0,51.47 39.71,93.2 88.71,93.2 48.99,0 88.71,-41.73 88.71,-93.2 0,-51.48 -39.72,-93.21 -88.71,-93.21 C 39.71,-93.21 0,-51.48 0,0"
             style="fill:#ffffff;fill-opacity:1;fill-rule:nonzero;stroke:none"
             id="path22"
             inkscape:connector-curvature="0" /></g><g
           id="g24"
           transform="translate(1444.14,1803.12)"><path
             d="m 0,0 c 0,51.47 39.71,93.2 88.71,93.2 48.99,0 88.71,-41.73 88.71,-93.2 0,-51.48 -39.72,-93.21 -88.71,-93.21 C 39.71,-93.21 0,-51.48 0,0 Z"
             style="fill:none;stroke:#211c1d;stroke-width:20;stroke-linecap:butt;stroke-linejoin:miter;stroke-miterlimit:10;stroke-dasharray:none;stroke-opacity:1"
             id="path26"
             inkscape:connector-curvature="0" /></g><g
           id="g28"
           transform="translate(1621.5601,1803.12)"><path
             d="M 0,0 H 320.18"
             style="fill:none;stroke:#211c1d;stroke-width:20;stroke-linecap:butt;stroke-linejoin:miter;stroke-miterlimit:10;stroke-dasharray:none;stroke-opacity:1"
             id="path30"
             inkscape:connector-curvature="0" /></g><g
           id="g32"
           transform="translate(2012.34,1803.12)"><path
             d="M 0,0 -99.49,-40.66 -75.88,0 -99.49,40.64 0,0"
             style="fill:#211c1d;fill-opacity:1;fill-rule:nonzero;stroke:none"
             id="path34"
             inkscape:connector-curvature="0" /></g><g
           id="g36"
           transform="translate(5661.73,848.551)"><path
             d="M 0,0 H -1612.63"
             style="fill:none;stroke:#211c1d;stroke-width:20;stroke-linecap:butt;stroke-linejoin:miter;stroke-miterlimit:10;stroke-dasharray:none;stroke-opacity:1"
             id="path38"
             inkscape:connector-curvature="0" /></g><g
           id="g40"
           transform="translate(1532.85,842.012)"><path
             d="M 0,0 V 800.388"
             style="fill:none;stroke:#211c1d;stroke-width:20;stroke-linecap:butt;stroke-linejoin:miter;stroke-miterlimit:10;stroke-dasharray:none;stroke-opacity:1"
             id="path42"
             inkscape:connector-curvature="0" /></g><g
           id="g44"
           transform="translate(1532.85,1713.01)"><path
             d="M 0,0 40.65,-99.49 0,-75.88 -40.65,-99.49 0,0"
             style="fill:#211c1d;fill-opacity:1;fill-rule:nonzero;stroke:none"
             id="path46"
             inkscape:connector-curvature="0" /></g><g
           id="g48"
           transform="translate(5317.6201,1783.76)"><path
             d="M 0,0 H 617.61"
             style="fill:none;stroke:#211c1d;stroke-width:20;stroke-linecap:butt;stroke-linejoin:miter;stroke-miterlimit:10;stroke-dasharray:none;stroke-opacity:1"
             id="path50"
             inkscape:connector-curvature="0" /></g><g
           id="g52"
           transform="translate(6005.8398,1783.76)"><path
             d="M 0,0 -99.49,-40.65 -75.88,0 -99.49,40.65 0,0"
             style="fill:#211c1d;fill-opacity:1;fill-rule:nonzero;stroke:none"
             id="path54"
             inkscape:connector-curvature="0" /></g></g></g><text
       transform="matrix(1,0,0,-1,450.901,92.275)"
       style="font-variant:normal;font-weight:normal;font-size:21px;font-family:MyriadPro;-inkscape-font-specification:MyriadPro-Regular;writing-mode:lr-tb;fill:#100f0d;fill-opacity:1;fill-rule:nonzero;stroke:none"
       id="text60"><tspan
         x="0 9.8909998 15.855 22.806"
         y="0"
         sodipodi:role="line"
         id="tspan56">y(t)</tspan><tspan
         x="-240.903 -231.62079 -220.0918 -208.521 -201.57001 -194.91321 -183.38422 -178.42821 -173.47221 -162.9512"
         y="-81.966003"
         sodipodi:role="line"
         id="tspan58">controller</tspan></text>
<text
       transform="matrix(1,0,0,-1,162.156,155.875)"
       style="font-variant:normal;font-weight:normal;font-size:24px;font-family:MyriadPro;-inkscape-font-specification:MyriadPro-Regular;writing-mode:lr-tb;fill:#100f0d;fill-opacity:1;fill-rule:nonzero;stroke:none"
       id="text64"><tspan
         x="0"
         y="0"
         id="tspan62">-</tspan></text>
<text
       transform="matrix(1,0,0,-1,33.229,158.736)"
       style="font-variant:normal;font-weight:normal;font-size:21px;font-family:MyriadPro;-inkscape-font-specification:MyriadPro-Regular;writing-mode:lr-tb;fill:#100f0d;fill-opacity:1;fill-rule:nonzero;stroke:none"
       id="text72"><tspan
         x="0 6.8670001 12.831 19.782"
         y="0"
         sodipodi:role="line"
         id="tspan66">r(t)</tspan><tspan
         x="335.58301"
         y="104.809"
         id="tspan68">T</tspan><tspan
         x="80.434998"
         y="8.7390003"
         id="tspan70">T</tspan></text>
<g
       id="g74"
       transform="scale(0.1)"><g
         id="g76"
         clip-path="url(#clipPath80)"><path
           d="m 3402.15,1623.76 h 1141.99 v 320 H 3402.15 Z"
           style="fill:none;stroke:#211c1d;stroke-width:20;stroke-linecap:butt;stroke-linejoin:miter;stroke-miterlimit:10;stroke-dasharray:none;stroke-opacity:1"
           id="path82"
           inkscape:connector-curvature="0" /></g></g><text
       transform="matrix(1,0,0,-1,346.699,173.196)"
       style="font-variant:normal;font-weight:normal;font-size:21px;font-family:MyriadPro;-inkscape-font-specification:MyriadPro-Regular;writing-mode:lr-tb;fill:#100f0d;fill-opacity:1;fill-rule:nonzero;stroke:none"
       id="text88"><tspan
         x="0 13.986 21.188999 34.041 38.493 51.008999 55.460999 67.115997 78.644997 83.600998"
         y="0"
         sodipodi:role="line"
         id="tspan84">D/A + hold</tspan><tspan
         x="-116.782 -103.93 -96.726997"
         y="95.602997"
         sodipodi:role="line"
         id="tspan86">A/D</tspan></text>
<g
       id="g90"
       transform="scale(0.1)"><g
         id="g92"
         clip-path="url(#clipPath96)"><path
           d="m 2225.67,726.621 h 477.227 V 972.648 H 2225.67 Z"
           style="fill:none;stroke:#211c1d;stroke-width:20;stroke-linecap:butt;stroke-linejoin:miter;stroke-miterlimit:10;stroke-dasharray:none;stroke-opacity:1"
           id="path98"
           inkscape:connector-curvature="0" /><path
           d="m 2012.34,1627.28 h 1059.99 v 320.422 H 2012.34 Z"
           style="fill:none;stroke:#211c1d;stroke-width:20;stroke-linecap:butt;stroke-linejoin:miter;stroke-miterlimit:10;stroke-dasharray:none;stroke-opacity:1"
           id="path100"
           inkscape:connector-curvature="0" /><g
           id="g102"
           transform="translate(934.137,1803.12)"><path
             d="M 0,0 202.503,123.01"
             style="fill:none;stroke:#211c1d;stroke-width:20;stroke-linecap:butt;stroke-linejoin:miter;stroke-miterlimit:10;stroke-dasharray:none;stroke-opacity:1"
             id="path104"
             inkscape:connector-curvature="0" /></g><g
           id="g106"
           transform="translate(939.457,1933.1801)"><path
             d="M 0,0 C 0,0 164.113,-40.66 188.773,-200.45"
             style="fill:none;stroke:#211c1d;stroke-width:20;stroke-linecap:butt;stroke-linejoin:miter;stroke-miterlimit:10;stroke-dasharray:none;stroke-opacity:1"
             id="path108"
             inkscape:connector-curvature="0" /></g><g
           id="g110"
           transform="translate(1088.47,1758.42)"><path
             d="M 0,0 37.92,-13.46 73.93,4.49 42.29,-85.37 0,0"
             style="fill:#211c1d;fill-opacity:1;fill-rule:nonzero;stroke:none"
             id="path112"
             inkscape:connector-curvature="0" /></g><g
           id="g114"
           transform="translate(1431.64,1803.12)"><path
             d="M 0,0 H -182.94"
             style="fill:none;stroke:#100f0d;stroke-width:20;stroke-linecap:butt;stroke-linejoin:miter;stroke-miterlimit:10;stroke-dasharray:none;stroke-opacity:1"
             id="path116"
             inkscape:connector-curvature="0" /></g><g
           id="g118"
           transform="translate(4072.27,845.898)"><path
             d="M 0,0 -200.21,126.704"
             style="fill:none;stroke:#211c1d;stroke-width:20;stroke-linecap:butt;stroke-linejoin:miter;stroke-miterlimit:10;stroke-dasharray:none;stroke-opacity:1"
             id="path120"
             inkscape:connector-curvature="0" /></g><g
           id="g122"
           transform="translate(4069.3501,976.059)"><path
             d="M 0,0 C 0,0 -164.84,-37.661 -192.43,-196.957"
             style="fill:none;stroke:#211c1d;stroke-width:20;stroke-linecap:butt;stroke-linejoin:miter;stroke-miterlimit:10;stroke-dasharray:none;stroke-opacity:1"
             id="path124"
             inkscape:connector-curvature="0" /></g><g
           id="g126"
           transform="translate(3843.3101,809.891)"><path
             d="M 0,0 35.67,-18.602 73.83,-5.84 29.99,-90.43 0,0"
             style="fill:#211c1d;fill-opacity:1;fill-rule:nonzero;stroke:none"
             id="path128"
             inkscape:connector-curvature="0" /></g><g
           id="g130"
           transform="translate(943.594,1803.12)"><path
             d="M 0,0 H -591.254"
             style="fill:none;stroke:#100f0d;stroke-width:20;stroke-linecap:butt;stroke-linejoin:miter;stroke-miterlimit:10;stroke-dasharray:none;stroke-opacity:1"
             id="path132"
             inkscape:connector-curvature="0" /></g><g
           id="g134"
           transform="translate(4544.1401,1787.49)"><path
             d="M 0,0 H 225.65"
             style="fill:none;stroke:#211c1d;stroke-width:20;stroke-linecap:butt;stroke-linejoin:miter;stroke-miterlimit:10;stroke-dasharray:none;stroke-opacity:1"
             id="path136"
             inkscape:connector-curvature="0" /></g><g
           id="g138"
           transform="translate(4840.3901,1787.49)"><path
             d="M 0,0 -99.49,-40.65 -75.88,0 -99.49,40.65 0,0"
             style="fill:#211c1d;fill-opacity:1;fill-rule:nonzero;stroke:none"
             id="path140"
             inkscape:connector-curvature="0" /></g><g
           id="g142"
           transform="translate(3072.3301,1803.12)"><path
             d="M 0,0 H 260.5"
             style="fill:none;stroke:#211c1d;stroke-width:20;stroke-linecap:butt;stroke-linejoin:miter;stroke-miterlimit:10;stroke-dasharray:none;stroke-opacity:1"
             id="path144"
             inkscape:connector-curvature="0" /></g><g
           id="g146"
           transform="translate(3403.4399,1803.12)"><path
             d="M 0,0 -99.49,-40.66 -75.89,0 -99.49,40.64 0,0"
             style="fill:#211c1d;fill-opacity:1;fill-rule:nonzero;stroke:none"
             id="path148"
             inkscape:connector-curvature="0" /></g></g></g><text
       transform="matrix(1,0,0,-1,148.288,175.44)"
       style="font-variant:normal;font-weight:normal;font-size:18px;font-family:MyriadPro;-inkscape-font-specification:MyriadPro-Regular;writing-mode:lr-tb;fill:#100f0d;fill-opacity:1;fill-rule:nonzero;stroke:none"
       id="text152"><tspan
         x="0"
         y="0"
         id="tspan150">+</tspan></text>
<g
       id="g154"
       transform="scale(0.1)"><g
         id="g156"
         clip-path="url(#clipPath160)"><g
           id="g162"
           transform="translate(2225.6699,842.012)"><path
             d="M 0,0 H -687.57"
             style="fill:none;stroke:#211c1d;stroke-width:20;stroke-linecap:butt;stroke-linejoin:miter;stroke-miterlimit:10;stroke-dasharray:none;stroke-opacity:1"
             id="path164"
             inkscape:connector-curvature="0" /></g><g
           id="g166"
           transform="translate(3775.1799,849.629)"><path
             d="M 0,0 H -1072.28"
             style="fill:none;stroke:#211c1d;stroke-width:20;stroke-linecap:butt;stroke-linejoin:miter;stroke-miterlimit:10;stroke-dasharray:none;stroke-opacity:1"
             id="path168"
             inkscape:connector-curvature="0" /></g></g></g><text
       transform="matrix(1,0,0,-1,491.389,171.338)"
       style="font-variant:normal;font-weight:normal;font-size:21px;font-family:MyriadPro;-inkscape-font-specification:MyriadPro-Regular;writing-mode:lr-tb;fill:#100f0d;fill-opacity:1;fill-rule:nonzero;stroke:none"
       id="text172"><tspan
         x="0 13.566 19.530001 27.846001"
         y="0"
         sodipodi:role="line"
         id="tspan170">G(s)</tspan></text>
<g
       id="g174"
       transform="scale(0.1)"><g
         id="g176"
         clip-path="url(#clipPath180)"><path
           d="m 4840.39,1646.44 h 477.23 v 320 h -477.23 z"
           style="fill:none;stroke:#211c1d;stroke-width:20;stroke-linecap:butt;stroke-linejoin:miter;stroke-miterlimit:10;stroke-dasharray:none;stroke-opacity:1"
           id="path182"
           inkscape:connector-curvature="0" /><g
           id="g184"
           transform="translate(5661.73,848.551)"><path
             d="M 0,0 V 935.209"
             style="fill:none;stroke:#211c1d;stroke-width:20;stroke-linecap:butt;stroke-linejoin:miter;stroke-miterlimit:10;stroke-dasharray:none;stroke-opacity:1"
             id="path186"
             inkscape:connector-curvature="0" /></g></g></g><text
       transform="matrix(1,0,0,-1,82.025,212.612)"
       style="font-variant:normal;font-weight:normal;font-size:21px;font-family:MyriadPro;-inkscape-font-specification:MyriadPro-Regular;writing-mode:lr-tb;fill:#100f0d;fill-opacity:1;fill-rule:nonzero;stroke:none"
       id="text192"><tspan
         x="0 8.316 18.438 35.952 47.901001 52.856998 63.377998"
         y="0"
         sodipodi:role="line"
         id="tspan188">sampler</tspan><tspan
         x="-82.025002 -75.368294 -64.847298 -58.987896 -48.466896 -41.810104 -31.289104 -19.634106 -10.352399"
         y="21.834"
         sodipodi:role="line"
         id="tspan190">reference</tspan></text>
<text
       transform="matrix(1,0,0,-1,133.226,191.802)"
       style="font-variant:normal;font-weight:normal;font-size:18px;font-family:MyriadPro;-inkscape-font-specification:MyriadPro-Regular;writing-mode:lr-tb;fill:#100f0d;fill-opacity:1;fill-rule:nonzero;stroke:none"
       id="text196"><tspan
         x="0"
         y="0"
         id="tspan194">+</tspan></text>
<g
       id="g198"
       transform="scale(0.1)"><g
         id="g200"
         clip-path="url(#clipPath204)"><g
           id="g206"
           transform="translate(1248.7,1803.12)"><path
             d="m 0,0 c 0,-14.74 -11.94,-26.67 -26.67,-26.67 -14.73,0 -26.67,11.93 -26.67,26.67 0,14.72 11.94,26.66 26.67,26.66 C -11.94,26.66 0,14.72 0,0 Z"
             style="fill:none;stroke:#100f0d;stroke-width:10;stroke-linecap:butt;stroke-linejoin:miter;stroke-miterlimit:10;stroke-dasharray:none;stroke-opacity:1"
             id="path208"
             inkscape:connector-curvature="0" /></g><g
           id="g210"
           transform="translate(3828.51,849.629)"><path
             d="m 0,0 c 0,-14.731 -11.94,-26.668 -26.66,-26.668 -14.73,0 -26.67,11.937 -26.67,26.668 0,14.73 11.94,26.672 26.67,26.672 C -11.94,26.672 0,14.73 0,0 Z"
             style="fill:none;stroke:#100f0d;stroke-width:10;stroke-linecap:butt;stroke-linejoin:miter;stroke-miterlimit:10;stroke-dasharray:none;stroke-opacity:1"
             id="path212"
             inkscape:connector-curvature="0" /></g></g></g><text
       transform="matrix(1,0,0,-1,452.471,141.074)"
       style="font-variant:normal;font-weight:normal;font-size:21px;font-family:MyriadPro;-inkscape-font-specification:MyriadPro-Regular;writing-mode:lr-tb;fill:#100f0d;fill-opacity:1;fill-rule:nonzero;stroke:none"
       id="text220"><tspan
         x="0 11.571 17.535 24.486 -146.795 -135.224 -129.25999 -119.411 -112.46"
         y="0"
         sodipodi:role="line"
         id="tspan214">u(t)u(kt)</tspan><tspan
         x="-276.784 -266.263 -260.29901 -250.45 -243.49899"
         y="-4.402"
         sodipodi:role="line"
         id="tspan216">e(kt)</tspan><tspan
         x="-289.30399 -278.78299 -271.83231 -265.1756 -253.64659"
         y="-59.514999"
         sodipodi:role="line"
         id="tspan218">error</tspan></text>
<g
       id="g222"
       transform="scale(0.1)"><g
         id="g224"
         clip-path="url(#clipPath228)"><g
           id="g230"
           transform="translate(1061.12,693.301)"><path
             d="M 0,0 C -4.53,-533.332 1591.78,6.668 1641.78,-406.66"
             style="fill:none;stroke:#100f0d;stroke-width:10;stroke-linecap:butt;stroke-linejoin:miter;stroke-miterlimit:10;stroke-dasharray:none;stroke-opacity:1"
             id="path232"
             inkscape:connector-curvature="0" /></g><g
           id="g234"
           transform="translate(4344.6802,693.301)"><path
             d="M 0,0 C 4.53,-533.332 -1591.78,6.668 -1641.78,-406.66"
             style="fill:none;stroke:#100f0d;stroke-width:10;stroke-linecap:butt;stroke-linejoin:miter;stroke-miterlimit:10;stroke-dasharray:none;stroke-opacity:1"
             id="path236"
             inkscape:connector-curvature="0" /></g></g></g><text
       transform="matrix(1,0,0,-1,133.226,6.924)"
       style="font-variant:normal;font-weight:normal;font-size:21px;font-family:MyriadPro;-inkscape-font-specification:MyriadPro-Regular;writing-mode:lr-tb;fill:#100f0d;fill-opacity:1;fill-rule:nonzero;stroke:none"
       id="text240"><tspan
         x="0 13.986 18.9 27.216 36.624001 43.280704 53.801704 60.626411 71.735306 78.182304 85.133308 90.04731 107.56131 118.08231 122.53431 131.81651 143.34552 160.85951 172.80852 184.33752 195.99252 206.51352 218.08481 225.03581"
         y="0"
         sodipodi:role="line"
         id="tspan238">Discrete-time components</tspan></text>
</g></svg>