<?xml version="1.0" encoding="UTF-8" standalone="no"?>
<!-- Created with Inkscape (http://www.inkscape.org/) -->

<svg
   xmlns:dc="http://purl.org/dc/elements/1.1/"
   xmlns:cc="http://creativecommons.org/ns#"
   xmlns:rdf="http://www.w3.org/1999/02/22-rdf-syntax-ns#"
   xmlns:svg="http://www.w3.org/2000/svg"
   xmlns="http://www.w3.org/2000/svg"
   xmlns:sodipodi="http://sodipodi.sourceforge.net/DTD/sodipodi-0.dtd"
   xmlns:inkscape="http://www.inkscape.org/namespaces/inkscape"
   version="1.1"
   id="svg2"
   xml:space="preserve"
   width="698.74542"
   height="245.42206"
   viewBox="0 0 698.74542 245.42206"
   sodipodi:docname="discrete-timeline.svg"
   inkscape:version="0.92.0 r15299"><metadata
     id="metadata8"><rdf:RDF><cc:Work
         rdf:about=""><dc:format>image/svg+xml</dc:format><dc:type
           rdf:resource="http://purl.org/dc/dcmitype/StillImage" /><dc:title></dc:title></cc:Work></rdf:RDF></metadata><defs
     id="defs6"><clipPath
       clipPathUnits="userSpaceOnUse"
       id="clipPath18"><path
         d="M 0,2082.38 V 0 h 5246.04 v 2082.38 z"
         id="path16"
         inkscape:connector-curvature="0" /></clipPath><clipPath
       clipPathUnits="userSpaceOnUse"
       id="clipPath48"><path
         d="M 0,2082.38 V 0 h 5246.04 v 2082.38 z"
         id="path46"
         inkscape:connector-curvature="0" /></clipPath><clipPath
       clipPathUnits="userSpaceOnUse"
       id="clipPath68"><path
         d="M 0,2082.38 V 0 h 5246.04 v 2082.38 z"
         id="path66"
         inkscape:connector-curvature="0" /></clipPath></defs><sodipodi:namedview
     pagecolor="#ffffff"
     bordercolor="#666666"
     borderopacity="1"
     objecttolerance="10"
     gridtolerance="10"
     guidetolerance="10"
     inkscape:pageopacity="0"
     inkscape:pageshadow="2"
     inkscape:window-width="640"
     inkscape:window-height="480"
     id="namedview4"
     showgrid="false"
     fit-margin-top="0"
     fit-margin-left="0"
     fit-margin-right="0"
     fit-margin-bottom="0"
     inkscape:zoom="0.22348485"
     inkscape:cx="328.96835"
     inkscape:cy="497.50916"
     inkscape:window-x="0"
     inkscape:window-y="0"
     inkscape:window-maximized="0"
     inkscape:current-layer="g10" /><g
     id="g10"
     inkscape:groupmode="layer"
     inkscape:label="A9R10lcq69_tjakcb_c14"
     transform="matrix(1.3333333,0,0,-1.3333333,-0.72656248,275.91289)"><g
       id="g12"
       transform="scale(0.1)"><g
         id="g14"
         clip-path="url(#clipPath18)"><g
           id="g20"
           transform="translate(253.969,507.93)"><path
             d="M 0,0 H 4872.671"
             style="fill:none;stroke:#211c1d;stroke-width:20;stroke-linecap:butt;stroke-linejoin:miter;stroke-miterlimit:10;stroke-dasharray:none;stroke-opacity:1"
             id="path22"
             inkscape:connector-curvature="0" /></g><g
           id="g24"
           transform="translate(5070.4702,433.871)"><path
             d="M 0,0 31.46,74.059 0,148.117 175.57,74.059 0,0"
             style="fill:#211c1d;fill-opacity:1;fill-rule:nonzero;stroke:none"
             id="path26"
             inkscape:connector-curvature="0" /></g></g></g><text
       transform="matrix(1,0,0,-1,107.547,108.252)"
       style="font-variant:normal;font-weight:normal;font-size:18px;font-family:MyriadPro;-inkscape-font-specification:MyriadPro-Regular;writing-mode:lr-tb;fill:#100f0d;fill-opacity:1;fill-rule:nonzero;stroke:none"
       id="text40"><tspan
         x="0 10.242198 20.124199 30.042198 36.000198 41.705692 51.587692 55.835693 59.651695 69.89389 79.775894 94.787895 105.02989 114.94789 120.798 129.81599 135.702"
         y="0"
         sodipodi:role="line"
         id="tspan28">Control Computer </tspan><tspan
         x="12.294 20.358 29.034 33.282001 41.346001 51.264 55.512001 64.115891 69.966003 78.984001 86.112 89.928001 99.917999 108.88189 117.44969 123.40769"
         y="21.6"
         sodipodi:role="line"
         id="tspan30">calculates next </tspan><tspan
         x="31.284 39.869892 48.545891 52.793892 62.711891 71.729889 75.545891 85.427895 90.683891 94.499893"
         y="43.201"
         sodipodi:role="line"
         id="tspan32">value of u</tspan><tspan
         x="208.73 218.9722 228.8542 238.7722 244.73019 250.4357 260.31769 264.5657 268.38168 278.62399 288.50601 303.51801 313.76001 323.67801 329.52811 338.54611 344.4321"
         y="0.59600002"
         sodipodi:role="line"
         id="tspan34">Control Computer </tspan><tspan
         x="219.96201 230.20399 239.222 245.6478 250.66969 260.5517 266.5097 281.5217 288.64969 292.4657 302.34769 308.30569 318.29568 327.31369 333.19971"
         y="22.195999"
         sodipodi:role="line"
         id="tspan36">performs other </tspan><tspan
         x="257.914 263.87201 272.548 279.67599 288.11801"
         y="43.794998"
         sodipodi:role="line"
         id="tspan38">tasks</tspan></text>
<g
       id="g42"
       transform="scale(0.1)"><g
         id="g44"
         clip-path="url(#clipPath48)"><g
           id="g50"
           transform="translate(444.449,567.629)"><path
             d="M 0,0 V 765.701"
             style="fill:none;stroke:#211c1d;stroke-width:10;stroke-linecap:butt;stroke-linejoin:miter;stroke-miterlimit:10;stroke-dasharray:none;stroke-opacity:1"
             id="path52"
             inkscape:connector-curvature="0" /></g></g></g><text
       transform="matrix(1,0,0,-1,0,193.173)"
       style="font-variant:normal;font-weight:normal;font-size:18px;font-family:MyriadPro;-inkscape-font-specification:MyriadPro-Regular;writing-mode:lr-tb;fill:#100f0d;fill-opacity:1;fill-rule:nonzero;stroke:none"
       id="text60"><tspan
         x="0 8.9276943 17.603695 32.615692 42.857693 47.105694 56.123695 63.251694 67.067696 75.653587 84.329582 88.577583 98.495583 107.51359 114.64159"
         y="0"
         sodipodi:role="line"
         id="tspan54">Samples values </tspan><tspan
         x="0 9.882 15.138 18.954 23.885695 27.611694 31.427694 39.905693 43.721695 51.677803 61.559803 71.315605 79.794197 88.812195 95.129494 100.98009 109.99809 120.15009"
         y="21.6"
         sodipodi:role="line"
         id="tspan56">of r, y converted </tspan><tspan
         x="0 5.8496041 15.731604 19.547604 29.699604 33.911606 43.865803 48.077801 54.035801 62.711803 66.959801 70.775803 79.361694 88.037697 92.28569 102.2037 111.22169"
         y="43.200001"
         sodipodi:role="line"
         id="tspan58">to digital values</tspan></text>
<g
       id="g62"
       transform="scale(0.1)"><g
         id="g64"
         clip-path="url(#clipPath68)"><g
           id="g70"
           transform="translate(481.48,595.711)"><path
             d="M 0,0 -37.031,-15.731 -74.062,0 -37.031,-87.781 0,0"
             style="fill:#211c1d;fill-opacity:1;fill-rule:nonzero;stroke:none"
             id="path72"
             inkscape:connector-curvature="0" /></g><g
           id="g74"
           transform="translate(2825.3999,507.93)"><path
             d="M 0,0 V 765.71"
             style="fill:none;stroke:#211c1d;stroke-width:10;stroke-linecap:butt;stroke-linejoin:miter;stroke-miterlimit:10;stroke-dasharray:none;stroke-opacity:1"
             id="path76"
             inkscape:connector-curvature="0" /></g><g
           id="g78"
           transform="translate(2862.4299,1245.55)"><path
             d="M 0,0 -37.03,15.73 -74.06,0 -37.03,87.78 0,0"
             style="fill:#211c1d;fill-opacity:1;fill-rule:nonzero;stroke:none"
             id="path80"
             inkscape:connector-curvature="0" /></g><g
           id="g82"
           transform="translate(4690.4702,567.629)"><path
             d="M 0,0 V 765.701"
             style="fill:none;stroke:#211c1d;stroke-width:10;stroke-linecap:butt;stroke-linejoin:miter;stroke-miterlimit:10;stroke-dasharray:none;stroke-opacity:1"
             id="path84"
             inkscape:connector-curvature="0" /></g><g
           id="g86"
           transform="translate(4727.5,595.711)"><path
             d="M 0,0 -37.03,-15.731 -74.06,0 -37.03,-87.77 0,0"
             style="fill:#211c1d;fill-opacity:1;fill-rule:nonzero;stroke:none"
             id="path88"
             inkscape:connector-curvature="0" /></g></g></g><text
       transform="matrix(1,0,0,-1,34.502,23.186)"
       style="font-variant:normal;font-weight:normal;font-size:21px;font-family:MyriadPro;-inkscape-font-specification:MyriadPro-Regular;writing-mode:lr-tb;fill:#100f0d;fill-opacity:1;fill-rule:nonzero;stroke:none"
       id="text94"><tspan
         x="0 9.4502096 226.103 235.5527 245.9897 258.50571"
         y="0"
         sodipodi:role="line"
         id="tspan90">kTkT+δ</tspan><tspan
         x="409.97 415.93399 425.78299 438.29901 449.07199 455.03601"
         y="-3.9679999"
         sodipodi:role="line"
         id="tspan92">(k+1)T</tspan></text>
<text
       transform="matrix(1,0,0,-1,228.283,193.171)"
       style="font-variant:normal;font-weight:normal;font-size:18px;font-family:MyriadPro;-inkscape-font-specification:MyriadPro-Regular;writing-mode:lr-tb;fill:#100f0d;fill-opacity:1;fill-rule:nonzero;stroke:none"
       id="text102"><tspan
         x="0 11.988 16.200001 26.153099 30.365101 36.323101 44.9991 49.247101 53.063099 61.650002 70.325996 74.573997 84.491997 93.510002 97.325996 107.208 112.464 116.28 126.198"
         y="0"
         sodipodi:role="line"
         id="tspan96">Digital value of u </tspan><tspan
         x="15.111 23.067108 32.949108 42.705898 51.184402 60.202404 66.519814 72.369415 81.387413 91.539413 95.355415 101.20502 111.08702"
         y="21.6"
         sodipodi:role="line"
         id="tspan98">converted to </tspan><tspan
         x="13.32 21.996 31.986 40.661999 44.91 54.792 64.853996 68.669998 75.797997 80.010002 89.963097 99.953102 108.6291"
         y="43.200001"
         sodipodi:role="line"
         id="tspan100">analog signal</tspan></text>
</g></svg>